<?xml version="1.0" encoding="UTF-8" standalone="no"?><!DOCTYPE svg PUBLIC "-//W3C//DTD SVG 1.1//EN" "http://www.w3.org/Graphics/SVG/1.1/DTD/svg11.dtd"><svg width="100%" height="100%" viewBox="0 0 150 61" version="1.1" xmlns="http://www.w3.org/2000/svg" xmlns:xlink="http://www.w3.org/1999/xlink" xml:space="preserve" xmlns:serif="http://www.serif.com/" style="fill-rule:evenodd;clip-rule:evenodd;stroke-linejoin:round;stroke-miterlimit:1.41421;"><rect id="_1_rows" serif:id="1_rows" x="0" y="0.64" width="150" height="60" style="fill:#fff;"/><g id="_4n3" serif:id="4n3" opacity="0.7"><path d="M115.178,24.925l1.104,0l0,-0.552l-1.104,0l0,-2.52l-1.104,1.176l0,1.344l-2.424,0c1.224,-1.824 1.848,-2.64 2.616,-4.2l-1.596,0c-0.408,1.584 -0.9,2.88 -1.74,4.272l0,0.48l3.144,0l0,0.84c0,0.504 -0.444,0.672 -0.78,0.672l-0.24,0l0,0.48l3.024,0l0,-0.48c-0.468,0 -0.9,-0.144 -0.9,-0.672l0,-0.84Z" style="fill-rule:nonzero;"/><path d="M118.418,18.925l0,2.664l-0.744,0.216l0,1.38l0.744,-0.24l0,2.352l-0.744,0.264l0,1.332l0.744,-0.24l0,2.304l0.48,0l0,-2.472l1.488,-0.456l0,2.376l0.48,0l0,-2.568l0.744,-0.264l0,-1.356l-0.744,0.24l0,-2.352l0.744,-0.264l0,-1.356l-0.744,0.24l0,-2.304l-0.48,0l0,2.52l-1.488,0.432l0,-2.448l-0.48,0Zm1.968,3.348l0,2.4l-1.488,0.456l0,-2.4l1.488,-0.456Z" style="fill-rule:nonzero;"/><path d="M112.682,33.865c0,-0.408 -0.3,-0.66 -0.648,-0.66c-0.468,0 -0.804,0.372 -0.804,0.876c0,0.792 0.864,1.692 2.28,1.692c1.584,0 2.556,-0.732 2.556,-1.848c0,-0.9 -0.648,-1.452 -1.452,-1.716l0,-0.132c0.6,-0.228 1.248,-0.6 1.248,-1.536c0,-0.924 -0.852,-1.704 -2.112,-1.704c-1.272,0 -2.1,0.888 -2.1,1.632c0,0.528 0.372,0.828 0.72,0.828c0.432,0 0.66,-0.3 0.66,-0.624c0,-0.528 -0.384,-0.552 -0.384,-0.828c0,-0.204 0.264,-0.504 0.852,-0.504c0.612,0 1.152,0.396 1.152,1.212c0,0.768 -0.516,1.356 -1.764,1.38l0,0.432c1.368,0 1.884,0.684 1.884,1.488c0,0.876 -0.576,1.416 -1.344,1.416c-0.564,0 -0.996,-0.24 -0.996,-0.6c0,-0.312 0.252,-0.432 0.252,-0.804Z" style="fill-rule:nonzero;"/><path d="M136.27,24.925l1.104,0l0,-0.552l-1.104,0l0,-2.52l-1.104,1.176l0,1.344l-2.424,0c1.224,-1.824 1.848,-2.64 2.616,-4.2l-1.596,0c-0.408,1.584 -0.9,2.88 -1.74,4.272l0,0.48l3.144,0l0,0.84c0,0.504 -0.444,0.672 -0.78,0.672l-0.24,0l0,0.48l3.024,0l0,-0.48c-0.468,0 -0.9,-0.144 -0.9,-0.672l0,-0.84Z" style="fill-rule:nonzero;"/><path d="M127.51,27.685l0,2.664l-0.744,0.216l0,1.38l0.744,-0.24l0,2.352l-0.744,0.264l0,1.332l0.744,-0.24l0,2.304l0.48,0l0,-2.472l1.488,-0.456l0,2.376l0.48,0l0,-2.568l0.744,-0.264l0,-1.356l-0.744,0.24l0,-2.352l0.744,-0.264l0,-1.356l-0.744,0.24l0,-2.304l-0.48,0l0,2.52l-1.488,0.432l0,-2.448l-0.48,0Zm1.968,3.348l0,2.4l-1.488,0.456l0,-2.4l1.488,-0.456Z" style="fill-rule:nonzero;"/><path d="M133.774,33.865c0,-0.408 -0.3,-0.66 -0.648,-0.66c-0.468,0 -0.804,0.372 -0.804,0.876c0,0.792 0.864,1.692 2.28,1.692c1.584,0 2.556,-0.732 2.556,-1.848c0,-0.9 -0.648,-1.452 -1.452,-1.716l0,-0.132c0.6,-0.228 1.248,-0.6 1.248,-1.536c0,-0.924 -0.852,-1.704 -2.112,-1.704c-1.272,0 -2.1,0.888 -2.1,1.632c0,0.528 0.372,0.828 0.72,0.828c0.432,0 0.66,-0.3 0.66,-0.624c0,-0.528 -0.384,-0.552 -0.384,-0.828c0,-0.204 0.264,-0.504 0.852,-0.504c0.612,0 1.152,0.396 1.152,1.212c0,0.768 -0.516,1.356 -1.764,1.38l0,0.432c1.368,0 1.884,0.684 1.884,1.488c0,0.876 -0.576,1.416 -1.344,1.416c-0.564,0 -0.996,-0.24 -0.996,-0.6c0,-0.312 0.252,-0.432 0.252,-0.804Z" style="fill-rule:nonzero;"/><path d="M111.733,49.201l-0.738,0l0,-2.85l-0.899,0l-0.996,2.85l0,0.389l1.47,0l0,0.96l0.425,0l0,-0.96l0.738,0l0,-0.389Zm-2.189,0l0.858,-2.467l0.168,0l0,2.467l-1.026,0Z" style="fill:#808080;fill-rule:nonzero;"/><path d="M115.513,47.934l0.048,-0.389l-0.66,0l0.138,-1.194l-0.413,0l-0.138,1.194l-0.882,0l0.138,-1.194l-0.414,0l-0.138,1.194l-0.624,0l-0.048,0.389l0.624,0l-0.12,1.081l-0.654,0l-0.048,0.389l0.654,0l-0.132,1.146l0.414,0l0.132,-1.146l0.882,0l-0.132,1.146l0.414,0l0.132,-1.146l0.629,0l0.048,-0.389l-0.629,0l0.119,-1.081l0.66,0Zm-1.193,1.081l-0.882,0l0.12,-1.081l0.882,0l-0.12,1.081Z" style="fill:#808080;fill-rule:nonzero;"/><path d="M118.226,48.403c0.456,-0.198 0.635,-0.564 0.635,-0.972c0,-0.757 -0.521,-1.116 -1.253,-1.116c-0.606,0 -1.062,0.276 -1.26,0.671l0.414,0.211c0.12,-0.283 0.456,-0.493 0.846,-0.493c0.462,0 0.786,0.192 0.786,0.727c0,0.432 -0.174,0.804 -0.858,0.804l-0.138,0l0,0.383l0.138,0c0.702,0 0.948,0.318 0.948,0.763c0,0.546 -0.336,0.846 -0.846,0.846c-0.468,0 -0.822,-0.21 -0.954,-0.492l-0.414,0.216c0.234,0.42 0.738,0.665 1.368,0.665c0.81,0 1.313,-0.455 1.313,-1.235c0,-0.475 -0.245,-0.829 -0.725,-0.978Z" style="fill:#808080;fill-rule:nonzero;"/><path d="M130.025,49.201l-0.738,0l0,-2.85l-0.899,0l-0.996,2.85l0,0.389l1.47,0l0,0.96l0.425,0l0,-0.96l0.738,0l0,-0.389Zm-2.189,0l0.858,-2.467l0.168,0l0,2.467l-1.026,0Z" style="fill:#808080;fill-rule:nonzero;"/><path d="M132.455,50.196c0,-0.222 -0.186,-0.408 -0.413,-0.408c-0.234,0 -0.414,0.186 -0.414,0.408c0,0.192 0.12,0.354 0.288,0.408l-0.174,0.552l0.306,0.138l0.377,-0.93c0.018,-0.054 0.03,-0.108 0.03,-0.168Z" style="fill:#808080;fill-rule:nonzero;"/><path d="M137.405,47.934l0.048,-0.389l-0.66,0l0.138,-1.194l-0.414,0l-0.138,1.194l-0.881,0l0.138,-1.194l-0.414,0l-0.138,1.194l-0.624,0l-0.048,0.389l0.624,0l-0.12,1.081l-0.654,0l-0.048,0.389l0.654,0l-0.132,1.146l0.414,0l0.132,-1.146l0.881,0l-0.131,1.146l0.413,0l0.132,-1.146l0.63,0l0.048,-0.389l-0.63,0l0.12,-1.081l0.66,0Zm-1.194,1.081l-0.881,0l0.12,-1.081l0.881,0l-0.12,1.081Z" style="fill:#808080;fill-rule:nonzero;"/><path d="M140.118,48.403c0.455,-0.198 0.635,-0.564 0.635,-0.972c0,-0.757 -0.521,-1.116 -1.253,-1.116c-0.606,0 -1.062,0.276 -1.26,0.671l0.414,0.211c0.12,-0.283 0.456,-0.493 0.846,-0.493c0.462,0 0.786,0.192 0.786,0.727c0,0.432 -0.174,0.804 -0.858,0.804l-0.138,0l0,0.383l0.138,0c0.702,0 0.948,0.318 0.948,0.763c0,0.546 -0.336,0.846 -0.846,0.846c-0.468,0 -0.822,-0.21 -0.954,-0.492l-0.414,0.216c0.234,0.42 0.738,0.665 1.368,0.665c0.81,0 1.313,-0.455 1.313,-1.235c0,-0.475 -0.245,-0.829 -0.725,-0.978Z" style="fill:#808080;fill-rule:nonzero;"/></g><g id="_5n42" serif:id="5n42" opacity="0.7"><path d="M64.464,13.861c-0.528,0 -0.912,0.144 -1.236,0.3l-0.072,-0.036l0.024,-1.512c0.432,0.048 0.768,0.096 1.152,0.096c1.104,0 1.656,-0.456 2.064,-1.128l-0.12,-0.168c-0.672,0.096 -1.224,0.12 -1.776,0.12c-0.576,0 -1.128,-0.048 -1.824,-0.12l-0.048,3.312l0.312,0.168c0.336,-0.312 0.756,-0.48 1.248,-0.48c0.708,0 1.392,0.432 1.392,1.512c0,1.104 -0.564,1.824 -1.428,1.824c-0.588,0 -0.912,-0.252 -0.912,-0.576c0,-0.312 0.252,-0.432 0.252,-0.804c0,-0.408 -0.3,-0.66 -0.648,-0.66c-0.468,0 -0.804,0.372 -0.804,0.876c0,0.768 0.876,1.668 2.292,1.668c1.416,0 2.52,-0.948 2.52,-2.304c0,-1.296 -1.164,-2.088 -2.388,-2.088Z" style="fill-rule:nonzero;"/><path d="M68.436,9.433l0,8.664l2.304,-0.504l-0.048,3.192l0.528,0l0,-8.64l-2.304,0.552l0,-3.264l-0.48,0Zm0.48,4.68l1.824,-0.408l0,2.4l-1.824,0.432l0,-2.424Z" style="fill-rule:nonzero;"/><path d="M65.964,24.925l1.104,0l0,-0.552l-1.104,0l0,-2.52l-1.104,1.176l0,1.344l-2.424,0c1.224,-1.824 1.848,-2.64 2.616,-4.2l-1.596,0c-0.408,1.584 -0.9,2.88 -1.74,4.272l0,0.48l3.144,0l0,0.84c0,0.504 -0.444,0.672 -0.78,0.672l-0.24,0l0,0.48l3.024,0l0,-0.48c-0.468,0 -0.9,-0.144 -0.9,-0.672l0,-0.84Z" style="fill-rule:nonzero;"/><path d="M66.852,33.781l-0.432,-0.072c-0.168,0.6 -0.456,0.888 -1.056,0.888c-0.888,0 -1.104,-0.24 -2.184,-0.24c0.552,-0.84 1.56,-1.344 1.8,-1.5c0.888,-0.54 1.812,-0.996 1.812,-2.148c0,-1.104 -1.056,-1.872 -2.352,-1.872c-1.488,0 -2.328,1.116 -2.328,1.884c0,0.516 0.3,0.828 0.768,0.828c0.42,0 0.672,-0.276 0.672,-0.624c0,-0.516 -0.348,-0.612 -0.348,-0.888c0,-0.324 0.42,-0.672 1.092,-0.672c0.672,0 1.128,0.408 1.128,1.296c0,0.72 -0.336,1.344 -1.548,2.256c-0.84,0.576 -1.872,1.752 -1.968,2.76l0.48,0c0.168,-0.432 0.36,-0.672 0.816,-0.672c0.72,0 1.392,0.768 2.256,0.768c0.96,0 1.392,-0.96 1.392,-1.992Z" style="fill-rule:nonzero;"/><path d="M90.437,14.269l0,-2.256l2.16,0l0,-0.552l-2.16,0l0,-2.232l-0.552,0l0,2.232l-1.848,0c-0.672,0.048 -0.888,0.072 -1.44,0.072c-0.576,0 -1.128,-0.048 -1.824,-0.12l-0.048,3.312l0.312,0.168c0.336,-0.312 0.756,-0.48 1.248,-0.48c0.708,0 1.392,0.432 1.392,1.512c0,1.104 -0.564,1.824 -1.428,1.824c-0.588,0 -0.912,-0.252 -0.912,-0.576c0,-0.312 0.252,-0.432 0.252,-0.804c0,-0.408 -0.3,-0.66 -0.648,-0.66c-0.468,0 -0.804,0.372 -0.804,0.876c0,0.768 0.876,1.668 2.292,1.668c1.416,0 2.52,-0.948 2.52,-2.304c0,-1.296 -1.164,-2.088 -2.388,-2.088c-0.528,0 -0.912,0.144 -1.236,0.3l-0.072,-0.036l0.024,-1.512c0.432,0.048 0.768,0.096 1.152,0.096c0.756,0 1.272,-0.264 1.656,-0.696l1.8,0l0,2.256l0.552,0Z" style="fill-rule:nonzero;"/><path d="M79.733,18.193l0,8.664l2.304,-0.504l-0.048,3.192l0.528,0l0,-8.64l-2.304,0.552l0,-3.264l-0.48,0Zm0.48,4.68l1.824,-0.408l0,2.4l-1.824,0.432l0,-2.424Z" style="fill-rule:nonzero;"/><path d="M88.061,24.925l1.104,0l0,-0.552l-1.104,0l0,-2.52l-1.104,1.176l0,1.344l-2.424,0c1.224,-1.824 1.848,-2.64 2.616,-4.2l-1.596,0c-0.408,1.584 -0.9,2.88 -1.74,4.272l0,0.48l3.144,0l0,0.84c0,0.504 -0.444,0.672 -0.78,0.672l-0.24,0l0,0.48l3.024,0l0,-0.48c-0.468,0 -0.9,-0.144 -0.9,-0.672l0,-0.84Z" style="fill-rule:nonzero;"/><path d="M88.949,33.781l-0.432,-0.072c-0.168,0.6 -0.456,0.888 -1.056,0.888c-0.888,0 -1.104,-0.24 -2.184,-0.24c0.552,-0.84 1.56,-1.344 1.8,-1.5c0.888,-0.54 1.812,-0.996 1.812,-2.148c0,-1.104 -1.056,-1.872 -2.352,-1.872c-1.488,0 -2.328,1.116 -2.328,1.884c0,0.516 0.3,0.828 0.768,0.828c0.42,0 0.672,-0.276 0.672,-0.624c0,-0.516 -0.348,-0.612 -0.348,-0.888c0,-0.324 0.42,-0.672 1.092,-0.672c0.672,0 1.128,0.408 1.128,1.296c0,0.72 -0.336,1.344 -1.548,2.256c-0.84,0.576 -1.872,1.752 -1.968,2.76l0.48,0c0.168,-0.432 0.36,-0.672 0.816,-0.672c0.72,0 1.392,0.768 2.256,0.768c0.96,0 1.392,-0.96 1.392,-1.992Z" style="fill-rule:nonzero;"/><path d="M59.034,47.761c-0.33,0 -0.624,0.114 -0.834,0.329l0.126,-1.356l1.728,0l0,-0.383l-2.1,0l-0.21,2.207l0.396,0.181c0.198,-0.415 0.558,-0.583 0.894,-0.583c0.54,0 0.744,0.39 0.744,1.009c0,0.642 -0.288,1.062 -0.87,1.062c-0.402,0 -0.714,-0.126 -0.906,-0.45l-0.408,0.21c0.282,0.444 0.738,0.629 1.296,0.629c0.834,0 1.349,-0.539 1.349,-1.451c0,-0.925 -0.419,-1.404 -1.205,-1.404Z" style="fill:#808080;fill-rule:nonzero;"/><path d="M62.898,47.485c-0.456,0 -0.829,0.21 -1.045,0.521c-0.024,-0.161 -0.06,-0.455 -0.06,-0.455l-0.353,0l0,2.999l0.431,0l0,-1.991c0.06,-0.259 0.438,-0.685 0.931,-0.685c0.51,0 0.636,0.264 0.636,1.02l0,1.656l0.431,0l0,-1.8c0,-0.894 -0.299,-1.265 -0.971,-1.265Z" style="fill:#808080;fill-rule:nonzero;"/><path d="M67.523,49.201l-0.738,0l0,-2.85l-0.899,0l-0.996,2.85l0,0.389l1.47,0l0,0.96l0.425,0l0,-0.96l0.738,0l0,-0.389Zm-2.189,0l0.858,-2.467l0.168,0l0,2.467l-1.026,0Z" style="fill:#808080;fill-rule:nonzero;"/><path d="M69.948,49.459c0.612,-0.636 1.061,-1.284 1.061,-1.938c0,-0.643 -0.401,-1.206 -1.199,-1.206c-0.546,0 -1.05,0.252 -1.284,0.665l0.408,0.216c0.144,-0.288 0.486,-0.492 0.864,-0.492c0.48,0 0.756,0.348 0.756,0.817c0,0.522 -0.396,1.146 -0.954,1.698c-0.282,0.306 -0.66,0.624 -1.068,0.948l0,0.383l2.465,0l0,-0.383l-1.817,0c0.054,-0.024 0.48,-0.396 0.768,-0.708Z" style="fill:#808080;fill-rule:nonzero;"/><path d="M79.331,47.761c-0.33,0 -0.624,0.114 -0.834,0.329l0.126,-1.356l1.728,0l0,-0.383l-2.1,0l-0.21,2.207l0.396,0.181c0.198,-0.415 0.558,-0.583 0.894,-0.583c0.54,0 0.744,0.39 0.744,1.009c0,0.642 -0.288,1.062 -0.87,1.062c-0.402,0 -0.714,-0.126 -0.906,-0.45l-0.408,0.21c0.282,0.444 0.738,0.629 1.296,0.629c0.834,0 1.349,-0.539 1.349,-1.451c0,-0.925 -0.419,-1.404 -1.205,-1.404Z" style="fill:#808080;fill-rule:nonzero;"/><path d="M84.028,48.535l-0.942,0l0,-0.942l-0.383,0l0,0.942l-0.948,0l0,0.383l0.948,0l0,0.948l0.383,0l0,-0.948l0.942,0l0,-0.383Z" style="fill:#808080;fill-rule:nonzero;"/><path d="M86.795,47.485c-0.456,0 -0.828,0.21 -1.045,0.521c-0.024,-0.161 -0.059,-0.455 -0.059,-0.455l-0.354,0l0,2.999l0.431,0l0,-1.991c0.06,-0.259 0.439,-0.685 0.931,-0.685c0.51,0 0.636,0.264 0.636,1.02l0,1.656l0.431,0l0,-1.8c0,-0.894 -0.299,-1.265 -0.971,-1.265Z" style="fill:#808080;fill-rule:nonzero;"/><path d="M91.42,49.201l-0.738,0l0,-2.85l-0.899,0l-0.996,2.85l0,0.389l1.47,0l0,0.96l0.425,0l0,-0.96l0.738,0l0,-0.389Zm-2.189,0l0.858,-2.467l0.168,0l0,2.467l-1.026,0Z" style="fill:#808080;fill-rule:nonzero;"/><path d="M93.845,49.459c0.612,-0.636 1.061,-1.284 1.061,-1.938c0,-0.643 -0.401,-1.206 -1.199,-1.206c-0.546,0 -1.05,0.252 -1.284,0.665l0.408,0.216c0.144,-0.288 0.486,-0.492 0.864,-0.492c0.48,0 0.756,0.348 0.756,0.817c0,0.522 -0.396,1.146 -0.954,1.698c-0.282,0.306 -0.66,0.624 -1.068,0.948l0,0.383l2.465,0l0,-0.383l-1.817,0c0.054,-0.024 0.48,-0.396 0.768,-0.708Z" style="fill:#808080;fill-rule:nonzero;"/></g><g id="b7n" opacity="0.7"><path d="M32.515,17.845l-0.528,0l0,9.624l0.24,0c1.296,-1.56 3.312,-1.536 3.312,-3.504c0,-1.008 -0.792,-1.464 -1.56,-1.464c-0.72,0 -1.128,0.408 -1.464,0.744l0,-5.4Zm0,8.76l0.024,-2.832c0,0 0.396,-0.456 0.936,-0.456c0.42,0 0.804,0.264 0.804,0.96c0,1.08 -0.876,1.488 -1.764,2.328Z" style="fill-rule:nonzero;"/><path d="M37.435,20.173l-0.48,0l-0.144,2.568l0.456,0c0.168,-1.44 0.672,-1.536 1.032,-1.536c0.504,0 1.704,0.384 2.232,0.456c-1.08,1.848 -2.496,3.216 -2.496,4.536c0,0.504 0.36,0.792 0.72,0.792c0.36,0 0.72,-0.264 0.768,-0.912c0.168,-2.16 1.512,-3.672 1.992,-5.904l-0.528,0c-0.096,0.312 -0.336,0.552 -0.672,0.552c-0.576,0 -0.696,-0.648 -1.536,-0.648c-0.696,0 -0.96,0.528 -1.176,0.528c-0.168,0 -0.168,-0.144 -0.168,-0.432Z" style="fill-rule:nonzero;"/><path d="M37.771,28.153l0,8.664l2.304,-0.504l-0.048,3.192l0.528,0l0,-8.64l-2.304,0.552l0,-3.264l-0.48,0Zm0.48,4.68l1.824,-0.408l0,2.4l-1.824,0.432l0,-2.424Z" style="fill-rule:nonzero;"/><path d="M35.133,47.485c-0.438,0 -0.781,0.204 -0.985,0.509l0,-2.243l-0.431,0l0,4.799l0.371,0l0.06,-0.425l0,-0.012c0.192,0.3 0.499,0.503 0.925,0.503c0.696,0 1.175,-0.473 1.175,-1.571c0,-1.099 -0.419,-1.56 -1.115,-1.56Zm-0.15,2.742c-0.475,0 -0.769,-0.426 -0.835,-0.762l0,-0.864c0.096,-0.289 0.402,-0.727 0.895,-0.727c0.546,0 0.78,0.318 0.78,1.171c0,0.846 -0.294,1.182 -0.84,1.182Z" style="fill:#808080;fill-rule:nonzero;"/><path d="M37.317,46.351l0,0.383l2.039,0l-1.715,3.816l0.48,0l1.679,-3.816l0,-0.383l-2.483,0Z" style="fill:#808080;fill-rule:nonzero;"/><path d="M42.429,47.485c-0.456,0 -0.829,0.21 -1.045,0.521c-0.024,-0.161 -0.06,-0.455 -0.06,-0.455l-0.353,0l0,2.999l0.431,0l0,-1.991c0.06,-0.259 0.439,-0.685 0.931,-0.685c0.51,0 0.636,0.264 0.636,1.02l0,1.656l0.431,0l0,-1.8c0,-0.894 -0.299,-1.265 -0.971,-1.265Z" style="fill:#808080;fill-rule:nonzero;"/></g><g id="_642" serif:id="642" opacity="0.7"><path d="M14.355,13.417c0.432,0 0.684,-0.336 0.684,-0.756c0,-0.624 -0.684,-1.344 -1.872,-1.344c-1.344,0 -2.676,1.296 -2.676,3.624c0,1.692 0.72,3.312 2.532,3.312c1.284,0 2.304,-0.888 2.304,-2.148c0,-1.044 -0.852,-1.968 -2.184,-1.968c-0.648,0 -1.164,0.288 -1.5,0.672c0.036,-1.416 0.264,-2.976 1.548,-2.976c0.336,0 0.564,0.144 0.564,0.348c0,0.192 -0.084,0.36 -0.084,0.552c0,0.396 0.252,0.684 0.684,0.684Zm-0.252,2.652c0,0.936 -0.432,1.656 -1.248,1.656c-0.732,0 -1.128,-0.54 -1.128,-1.44c0,-0.936 0.504,-1.608 1.272,-1.608c0.756,0 1.104,0.564 1.104,1.392Z" style="fill-rule:nonzero;"/><path d="M14.463,24.925l1.104,0l0,-0.552l-1.104,0l0,-2.52l-1.104,1.176l0,1.344l-2.424,0c1.224,-1.824 1.848,-2.64 2.616,-4.2l-1.596,0c-0.408,1.584 -0.9,2.88 -1.74,4.272l0,0.48l3.144,0l0,0.84c0,0.504 -0.444,0.672 -0.78,0.672l-0.24,0l0,0.48l3.024,0l0,-0.48c-0.468,0 -0.9,-0.144 -0.9,-0.672l0,-0.84Z" style="fill-rule:nonzero;"/><path d="M15.351,33.781l-0.432,-0.072c-0.168,0.6 -0.456,0.888 -1.056,0.888c-0.888,0 -1.104,-0.24 -2.184,-0.24c0.552,-0.84 1.56,-1.344 1.8,-1.5c0.888,-0.54 1.812,-0.996 1.812,-2.148c0,-1.104 -1.056,-1.872 -2.352,-1.872c-1.488,0 -2.328,1.116 -2.328,1.884c0,0.516 0.3,0.828 0.768,0.828c0.42,0 0.672,-0.276 0.672,-0.624c0,-0.516 -0.348,-0.612 -0.348,-0.888c0,-0.324 0.42,-0.672 1.092,-0.672c0.672,0 1.128,0.408 1.128,1.296c0,0.72 -0.336,1.344 -1.548,2.256c-0.84,0.576 -1.872,1.752 -1.968,2.76l0.48,0c0.168,-0.432 0.36,-0.672 0.816,-0.672c0.72,0 1.392,0.768 2.256,0.768c0.96,0 1.392,-0.96 1.392,-1.992Z" style="fill-rule:nonzero;"/><path d="M9.483,47.761c-0.39,0 -0.726,0.132 -0.972,0.413c0.114,-1.001 0.654,-1.44 1.141,-1.464c0.204,-0.012 0.414,0.018 0.552,0.09l0.191,-0.366c-0.179,-0.089 -0.455,-0.137 -0.749,-0.119c-0.817,0.048 -1.62,0.696 -1.62,2.267c0,1.495 0.509,2.034 1.367,2.034c0.823,0 1.29,-0.545 1.29,-1.451c0,-0.919 -0.401,-1.404 -1.2,-1.404Zm-0.09,2.466c-0.576,0 -0.876,-0.402 -0.906,-1.488c0.186,-0.427 0.594,-0.589 0.996,-0.589c0.529,0 0.739,0.372 0.739,1.015c0,0.63 -0.276,1.062 -0.829,1.062Z" style="fill:#808080;fill-rule:nonzero;"/><path d="M14.307,49.201l-0.738,0l0,-2.85l-0.899,0l-0.996,2.85l0,0.389l1.47,0l0,0.96l0.425,0l0,-0.96l0.738,0l0,-0.389Zm-2.189,0l0.858,-2.467l0.168,0l0,2.467l-1.026,0Z" style="fill:#808080;fill-rule:nonzero;"/><path d="M16.732,49.459c0.612,-0.636 1.061,-1.284 1.061,-1.938c0,-0.643 -0.401,-1.206 -1.199,-1.206c-0.546,0 -1.05,0.252 -1.284,0.665l0.408,0.216c0.144,-0.288 0.486,-0.492 0.864,-0.492c0.48,0 0.756,0.348 0.756,0.817c0,0.522 -0.396,1.146 -0.954,1.698c-0.282,0.306 -0.66,0.624 -1.068,0.948l0,0.383l2.465,0l0,-0.383l-1.817,0c0.054,-0.024 0.48,-0.396 0.768,-0.708Z" style="fill:#808080;fill-rule:nonzero;"/></g></svg>