<?xml version="1.0" encoding="UTF-8" standalone="no"?><!DOCTYPE svg PUBLIC "-//W3C//DTD SVG 1.1//EN" "http://www.w3.org/Graphics/SVG/1.1/DTD/svg11.dtd"><svg width="100%" height="100%" viewBox="0 0 140 46" version="1.1" xmlns="http://www.w3.org/2000/svg" xmlns:xlink="http://www.w3.org/1999/xlink" xml:space="preserve" xmlns:serif="http://www.serif.com/" style="fill-rule:evenodd;clip-rule:evenodd;stroke-linejoin:round;stroke-miterlimit:1.41421;"><rect id="_2_accidentals" serif:id="2_accidentals" x="0" y="0.28" width="140" height="45" style="fill:#fff;"/><g id="X" opacity="0.7"><path d="M87.521,15.756c0.431,0 0.756,0.565 0.756,1.272l1.043,0.06l-0.072,-1.03c-0.707,0 -1.224,-0.35 -1.224,-0.781c0,-0.431 0.517,-0.745 1.224,-0.745l0.072,-1.03l-1.043,0.036c0,0.707 -0.325,1.212 -0.756,1.212c-0.432,0 -0.757,-0.505 -0.757,-1.212l-1.043,-0.036l0.072,1.03c0.707,0 1.224,0.314 1.224,0.745c0,0.431 -0.517,0.781 -1.224,0.781l-0.072,1.03l1.043,-0.06c0,-0.707 0.325,-1.272 0.757,-1.272Z" style="fill-rule:nonzero;"/><path d="M88.954,30.991l-0.48,0l-0.828,1.932l-0.245,0l-0.834,-1.932l-0.48,0l0.954,2.136l-0.954,2.063l0.48,0l0.84,-1.884l0.227,0l0.84,1.884l0.48,0l-0.954,-2.069l0.954,-2.13Z" style="fill:#808080;fill-rule:nonzero;"/></g><g id="m" opacity="0.7"><rect x="126.543" y="16.993" width="4.08" height="0.552" style="fill-rule:nonzero;"/><rect x="124.107" y="33.175" width="1.739" height="0.383" style="fill:#808080;fill-rule:nonzero;"/><path d="M129.549,30.391l-0.372,0l-1.494,5.652l0.372,0l1.494,-5.652Z" style="fill:#808080;fill-rule:nonzero;"/><path d="M133.155,32.125c-0.306,0 -0.57,0.186 -0.738,0.473c-0.072,-0.329 -0.294,-0.473 -0.606,-0.473c-0.288,0 -0.54,0.168 -0.702,0.437l-0.048,-0.371l-0.348,0l0,2.999l0.426,0l0,-2.112c0.042,-0.228 0.294,-0.564 0.57,-0.564c0.294,0 0.336,0.162 0.336,0.9l0,1.776l0.414,0l0,-2.112c0.042,-0.234 0.294,-0.564 0.57,-0.564c0.288,0 0.354,0.162 0.354,0.9l0,1.776l0.426,0l0,-1.956c0,-0.929 -0.246,-1.109 -0.654,-1.109Z" style="fill:#808080;fill-rule:nonzero;"/></g><g id="p" opacity="0.7"><path d="M112.731,14.629l0,2.364l-2.364,0l0,0.552l2.364,0l0,2.364l0.552,0l0,-2.364l2.364,0l0,-0.552l-2.364,0l0,-2.364l-0.552,0Z" style="fill-rule:nonzero;"/><path d="M110.571,33.175l-0.942,0l0,-0.942l-0.383,0l0,0.942l-0.948,0l0,0.383l0.948,0l0,0.948l0.383,0l0,-0.948l0.942,0l0,-0.383Z" style="fill:#808080;fill-rule:nonzero;"/><path d="M113.973,30.391l-0.372,0l-1.493,5.652l0.372,0l1.493,-5.652Z" style="fill:#808080;fill-rule:nonzero;"/><path d="M116.859,32.119c-0.444,0 -0.792,0.234 -1.002,0.557l0,-0.06l-0.078,-0.425l-0.353,0l0,4.199l0.431,0l0,-1.595c0.192,0.276 0.498,0.461 0.942,0.461c0.739,0 1.188,-0.461 1.188,-1.559c0,-1.099 -0.389,-1.578 -1.128,-1.578Zm-0.138,2.748c-0.528,0 -0.804,-0.408 -0.864,-0.672l0,-0.937c0.066,-0.282 0.396,-0.75 0.924,-0.75c0.571,0 0.775,0.372 0.775,1.189c0,0.816 -0.264,1.17 -0.835,1.17Z" style="fill:#808080;fill-rule:nonzero;"/></g><g id="x" opacity="0.7"><path d="M73.344,18.541c0.516,0 0.84,0.72 0.84,1.56l1.272,0.072l-0.072,-1.272c-0.84,0 -1.512,-0.348 -1.512,-0.864c0,-0.516 0.672,-0.84 1.512,-0.84l0.072,-1.272l-1.272,0.048c0,0.84 -0.324,1.512 -0.84,1.512c-0.516,0 -0.84,-0.672 -0.84,-1.512l-1.272,-0.048l0.072,1.272c0.84,0 1.512,0.324 1.512,0.84c0,0.516 -0.672,0.864 -1.512,0.864l-0.072,1.272l1.272,-0.072c0,-0.84 0.324,-1.56 0.84,-1.56Z" style="fill-rule:nonzero;"/><path d="M74.748,32.191l-0.498,0l-0.798,1.29l-0.216,0l-0.798,-1.29l-0.497,0l0.947,1.488l-0.947,1.511l0.497,0l0.804,-1.326l0.204,0l0.804,1.326l0.498,0l-0.948,-1.511l0.948,-1.488Z" style="fill:#808080;fill-rule:nonzero;"/></g><g id="bb" opacity="0.7"><path d="M55.442,20.005l0.024,-2.448c0,0 0.384,-0.72 0.936,-0.72c0.384,0 0.672,0.312 0.672,0.984c0,0.96 -0.84,1.44 -1.632,2.184Zm0,-8.76l-0.528,0l0,9.624l0.24,0c0.936,-1.008 2.016,-1.368 2.52,-2.208l0,2.208l0.24,0c1.296,-1.392 2.976,-1.56 2.976,-3.432c0,-0.96 -0.624,-1.368 -1.272,-1.368c-0.672,0 -1.128,0.504 -1.416,0.816l0,-5.64l-0.528,0l0,5.208c-0.216,-0.264 -0.552,-0.384 -0.888,-0.384c-0.648,0 -1.056,0.504 -1.344,0.816l0,-5.64Zm2.76,8.76l0.024,-2.448c0,0 0.384,-0.72 0.936,-0.72c0.384,0 0.672,0.312 0.672,0.984c0,0.96 -0.84,1.44 -1.632,2.184Z" style="fill-rule:nonzero;"/><path d="M56.252,32.125c-0.439,0 -0.781,0.204 -0.985,0.509l0,-2.243l-0.431,0l0,4.799l0.371,0l0.06,-0.425l0,-0.012c0.192,0.3 0.498,0.503 0.925,0.503c0.696,0 1.175,-0.473 1.175,-1.571c0,-1.099 -0.419,-1.56 -1.115,-1.56Zm-0.15,2.742c-0.475,0 -0.769,-0.426 -0.835,-0.762l0,-0.865c0.096,-0.288 0.402,-0.726 0.895,-0.726c0.546,0 0.78,0.318 0.78,1.171c0,0.846 -0.294,1.182 -0.84,1.182Z" style="fill:#808080;fill-rule:nonzero;"/><path d="M59.852,32.125c-0.439,0 -0.781,0.204 -0.985,0.509l0,-2.243l-0.431,0l0,4.799l0.371,0l0.06,-0.425l0,-0.012c0.192,0.3 0.498,0.503 0.925,0.503c0.696,0 1.175,-0.473 1.175,-1.571c0,-1.099 -0.419,-1.56 -1.115,-1.56Zm-0.15,2.742c-0.475,0 -0.769,-0.426 -0.835,-0.762l0,-0.865c0.096,-0.288 0.402,-0.726 0.895,-0.726c0.546,0 0.78,0.318 0.78,1.171c0,0.846 -0.294,1.182 -0.84,1.182Z" style="fill:#808080;fill-rule:nonzero;"/></g><g id="s" opacity="0.7"><path d="M39.262,12.325l0,2.664l-0.744,0.216l0,1.38l0.744,-0.24l0,2.352l-0.744,0.264l0,1.332l0.744,-0.24l0,2.304l0.48,0l0,-2.472l1.488,-0.456l0,2.376l0.48,0l0,-2.568l0.744,-0.264l0,-1.356l-0.744,0.24l0,-2.352l0.744,-0.264l0,-1.356l-0.744,0.24l0,-2.304l-0.48,0l0,2.52l-1.488,0.432l0,-2.448l-0.48,0Zm1.968,3.348l0,2.4l-1.488,0.456l0,-2.4l1.488,-0.456Z" style="fill-rule:nonzero;"/><path d="M38.593,32.574l0.048,-0.389l-0.66,0l0.138,-1.194l-0.414,0l-0.138,1.194l-0.882,0l0.138,-1.194l-0.414,0l-0.138,1.194l-0.624,0l-0.048,0.389l0.624,0l-0.12,1.081l-0.654,0l-0.047,0.389l0.653,0l-0.132,1.146l0.414,0l0.132,-1.146l0.882,0l-0.132,1.146l0.414,0l0.132,-1.146l0.63,0l0.048,-0.389l-0.63,0l0.12,-1.081l0.66,0Zm-1.194,1.081l-0.882,0l0.12,-1.081l0.882,0l-0.12,1.081Z" style="fill:#808080;fill-rule:nonzero;"/><path d="M41.623,30.391l-0.372,0l-1.493,5.652l0.371,0l1.494,-5.652Z" style="fill:#808080;fill-rule:nonzero;"/><path d="M44.281,35.256c0.6,0 1.278,-0.269 1.29,-0.905c0.012,-0.684 -0.96,-0.852 -1.23,-0.924c-0.198,-0.06 -0.738,-0.163 -0.738,-0.487c0,-0.336 0.474,-0.432 0.732,-0.432c0.252,0 0.6,0.096 0.75,0.336l0.366,-0.24c-0.21,-0.329 -0.696,-0.485 -1.116,-0.485c-0.51,0 -1.205,0.234 -1.193,0.809c0.011,0.637 0.833,0.823 1.133,0.901c0.216,0.06 0.835,0.174 0.835,0.534c0,0.372 -0.433,0.504 -0.817,0.504c-0.348,0 -0.768,-0.126 -0.912,-0.336l-0.377,0.252c0.251,0.33 0.803,0.473 1.277,0.473Z" style="fill:#808080;fill-rule:nonzero;"/></g><g id="b" opacity="0.7"><path d="M24.112,11.245l-0.528,0l0,9.624l0.24,0c1.296,-1.56 3.312,-1.536 3.312,-3.504c0,-1.008 -0.792,-1.464 -1.56,-1.464c-0.72,0 -1.128,0.408 -1.464,0.744l0,-5.4Zm0,8.76l0.024,-2.832c0,0 0.396,-0.456 0.936,-0.456c0.42,0 0.804,0.264 0.804,0.96c0,1.08 -0.876,1.488 -1.764,2.328Z" style="fill-rule:nonzero;"/><path d="M25.511,32.125c-0.439,0 -0.781,0.204 -0.985,0.509l0,-2.243l-0.431,0l0,4.799l0.371,0l0.06,-0.425l0,-0.012c0.192,0.3 0.498,0.503 0.924,0.503c0.697,0 1.176,-0.473 1.176,-1.571c0,-1.099 -0.419,-1.56 -1.115,-1.56Zm-0.151,2.742c-0.474,0 -0.768,-0.426 -0.834,-0.762l0,-0.865c0.096,-0.288 0.402,-0.726 0.894,-0.726c0.547,0 0.781,0.318 0.781,1.171c0,0.846 -0.294,1.182 -0.841,1.182Z" style="fill:#808080;fill-rule:nonzero;"/></g><g id="n" opacity="0.7"><path d="M9.535,11.593l0,8.664l2.304,-0.504l-0.048,3.192l0.528,0l0,-8.64l-2.304,0.552l0,-3.264l-0.48,0Zm0.48,4.68l1.824,-0.408l0,2.4l-1.824,0.432l0,-2.424Z" style="fill-rule:nonzero;"/><path d="M11.171,32.125c-0.457,0 -0.829,0.21 -1.045,0.521c-0.024,-0.161 -0.06,-0.455 -0.06,-0.455l-0.353,0l0,2.999l0.431,0l0,-1.991c0.06,-0.259 0.438,-0.685 0.93,-0.685c0.511,0 0.637,0.264 0.637,1.02l0,1.656l0.431,0l0,-1.8c0,-0.894 -0.299,-1.265 -0.971,-1.265Z" style="fill:#808080;fill-rule:nonzero;"/></g></svg>