<?xml version="1.0" encoding="UTF-8" standalone="no"?><!DOCTYPE svg PUBLIC "-//W3C//DTD SVG 1.1//EN" "http://www.w3.org/Graphics/SVG/1.1/DTD/svg11.dtd"><svg width="100%" height="100%" viewBox="0 0 220 46" version="1.1" xmlns="http://www.w3.org/2000/svg" xmlns:xlink="http://www.w3.org/1999/xlink" xml:space="preserve" xmlns:serif="http://www.serif.com/" style="fill-rule:evenodd;clip-rule:evenodd;stroke-linejoin:round;stroke-miterlimit:1.41421;"><rect id="_3_slashedNumbers" serif:id="3_slashedNumbers" x="0" y="0.92" width="220" height="45" style="fill:#fff;"/><g opacity="0.7"><path d="M76.518,17.74l2.759,0.48c-0.468,0.72 -0.815,1.38 -0.815,2.028c0,0.504 0.359,0.792 0.719,0.792c0.36,0 0.719,-0.264 0.767,-0.912c0.048,-0.624 0.192,-1.188 0.385,-1.728l2.567,0.432l0.072,-0.54l-2.435,-0.42c0.48,-1.152 1.104,-2.268 1.403,-3.646l-0.526,0c-0.096,0.311 -0.337,0.551 -0.673,0.551c-0.577,0 -0.697,-0.647 -1.536,-0.647c-0.695,0 -0.96,0.527 -1.176,0.527c-0.169,0 -0.169,-0.144 -0.169,-0.431l-0.478,0l-0.12,2.206l0.454,0c0.12,-1.08 0.649,-1.176 1.009,-1.176c0.504,0 1.704,0.384 2.232,0.456c-0.432,0.732 -0.913,1.392 -1.345,2.004l-3.022,-0.516l-0.072,0.54Z" style="fill-rule:nonzero;"/><path d="M77.371,31.631l0,0.383l2.04,0l-1.716,3.816l0.48,0l1.68,-3.816l0,-0.383l-2.484,0Z" style="fill:#808080;fill-rule:nonzero;"/><path d="M83.119,31.031l-0.372,0l-1.494,5.652l0.372,0l1.494,-5.652Z" style="fill:#808080;fill-rule:nonzero;"/></g><g opacity="0.7"><path d="M186.463,14.226l-0.478,0l-0.12,2.206l0.454,0c0.121,-1.08 0.65,-1.176 1.01,-1.176c0.503,0 1.703,0.384 2.231,0.456c-0.288,0.492 -0.6,0.948 -0.9,1.392l-4.283,0.768l0.12,0.54l3.707,-0.672c-0.636,0.912 -1.139,1.716 -1.139,2.508c0,0.504 0.36,0.792 0.719,0.792c0.36,0 0.719,-0.264 0.767,-0.912c0.073,-0.948 0.373,-1.776 0.733,-2.592l3.155,-0.564l-0.12,-0.54l-2.771,0.504c0.385,-0.84 0.78,-1.704 0.995,-2.71l-0.526,0c-0.096,0.311 -0.336,0.551 -0.673,0.551c-0.576,0 -0.696,-0.647 -1.536,-0.647c-0.695,0 -0.959,0.527 -1.176,0.527c-0.168,0 -0.168,-0.144 -0.168,-0.431l-0.001,0Z" style="fill-rule:nonzero;"/><path d="M184.175,31.631l0,0.383l2.039,0l-1.716,3.816l0.48,0l1.68,-3.816l0,-0.383l-2.483,0Z" style="fill:#808080;fill-rule:nonzero;"/><path d="M189.922,31.031l-0.372,0l-1.493,5.652l0.371,0l1.494,-5.652Z" style="fill:#808080;fill-rule:nonzero;"/><path d="M193.522,31.031l-0.372,0l-1.493,5.652l0.371,0l1.494,-5.652Z" style="fill:#808080;fill-rule:nonzero;"/></g><g opacity="0.7"><path d="M91.57,20.837l-0.408,1.331l0.528,0.144l0.396,-1.32c0.228,0.036 0.468,0.06 0.72,0.06c1.429,0 2.76,-1.247 2.76,-3.645c0,-1.435 -0.504,-2.595 -1.475,-3.062l0.444,-1.463l-0.528,-0.132l-0.432,1.428c0,0 -0.265,-0.048 -0.493,-0.048c-1.356,0 -2.351,1.04 -2.351,2.284c0,1.029 0.587,1.759 1.571,1.95l-0.324,1.105c-0.12,-0.096 -0.276,-0.156 -0.432,-0.156c-0.431,0 -0.659,0.336 -0.659,0.648c0,0.469 0.275,0.696 0.683,0.876Zm0.744,-0.576l0.552,-1.837c0.685,0 1.285,-0.311 1.669,-0.694c0,0.958 -0.288,2.82 -1.729,2.82c-0.252,0 -0.432,-0.108 -0.492,-0.289Zm0.72,-2.387l0.889,-2.967c0.324,0.263 0.516,0.73 0.516,1.412c0,0.885 -0.612,1.555 -1.405,1.555Zm0.384,-3.194l-0.924,3.086c-0.456,-0.191 -0.684,-0.67 -0.684,-1.423c0,-0.969 0.468,-1.687 1.356,-1.687c0.132,0 0.252,0.024 0.252,0.024Z" style="fill-rule:nonzero;"/><path d="M91.992,31.589c-0.78,0 -1.289,0.545 -1.289,1.452c0,0.918 0.437,1.403 1.217,1.403c0.414,0 0.709,-0.144 0.955,-0.449c-0.102,0.779 -0.414,1.134 -0.853,1.302c-0.378,0.138 -0.9,0.15 -0.96,0.15l0,0.383c0.072,0 0.558,0.012 1.02,-0.15c0.727,-0.239 1.278,-0.791 1.278,-2.261c0,-1.381 -0.527,-1.83 -1.368,-1.83Zm-0.09,2.466c-0.528,0 -0.738,-0.372 -0.738,-1.014c0,-0.631 0.288,-1.063 0.828,-1.063c0.601,0 0.907,0.33 0.913,1.423c-0.18,0.408 -0.541,0.654 -1.003,0.654Z" style="fill:#808080;fill-rule:nonzero;"/><path d="M96.594,31.031l-0.372,0l-1.493,5.652l0.372,0l1.493,-5.652Z" style="fill:#808080;fill-rule:nonzero;"/></g><g opacity="0.7"><path d="M201.165,19.961c0,0.792 1.008,1.092 1.932,1.092c1.428,0 2.76,-1.248 2.76,-3.648c0,-0.348 -0.024,-0.672 -0.084,-0.984l2.1,-0.372l-0.12,-0.54l-2.124,0.384c-0.348,-1.068 -1.116,-1.776 -2.256,-1.776c-1.356,0 -2.352,1.044 -2.352,2.292c0,0.204 0.024,0.312 0.024,0.312l-2.316,0.408l0.12,0.54l2.328,-0.42c0.3,0.732 1.008,1.176 1.992,1.176c0.732,0 1.212,-0.312 1.596,-0.696c0,0.96 -0.228,2.82 -1.668,2.82c-0.264,0 -0.42,-0.12 -0.492,-0.312c-0.048,-0.132 -0.048,-0.276 -0.096,-0.42c-0.12,-0.336 -0.384,-0.528 -0.684,-0.528c-0.444,0 -0.66,0.348 -0.66,0.672Zm3.48,-3.336c-0.108,0.732 -0.6,1.248 -1.332,1.248c-0.588,0 -0.936,-0.276 -1.08,-0.816l2.412,-0.432Zm0.012,-0.564l-2.508,0.456l0,-0.18c0,-0.972 0.408,-1.692 1.308,-1.692c0.708,0 1.14,0.468 1.2,1.416Z" style="fill-rule:nonzero;"/><path d="M200.483,31.589c-0.78,0 -1.289,0.545 -1.289,1.452c0,0.918 0.437,1.403 1.217,1.403c0.414,0 0.708,-0.144 0.955,-0.449c-0.102,0.779 -0.415,1.134 -0.853,1.302c-0.378,0.138 -0.9,0.15 -0.96,0.15l0,0.383c0.072,0 0.558,0.012 1.02,-0.15c0.727,-0.239 1.278,-0.791 1.278,-2.261c0,-1.381 -0.527,-1.83 -1.368,-1.83Zm-0.09,2.466c-0.528,0 -0.738,-0.372 -0.738,-1.014c0,-0.631 0.288,-1.063 0.828,-1.063c0.6,0 0.907,0.33 0.913,1.423c-0.18,0.408 -0.541,0.654 -1.003,0.654Z" style="fill:#808080;fill-rule:nonzero;"/><path d="M205.085,31.031l-0.372,0l-1.493,5.652l0.371,0l1.494,-5.652Z" style="fill:#808080;fill-rule:nonzero;"/><path d="M208.685,31.031l-0.372,0l-1.493,5.652l0.371,0l1.494,-5.652Z" style="fill:#808080;fill-rule:nonzero;"/></g><g opacity="0.7"><path d="M64.761,22.324l0.373,-1.308c0,0 0.252,0.036 0.468,0.036c1.284,0 2.303,-0.874 2.303,-2.267c0,-0.997 -0.587,-1.8 -1.571,-2.028l0.264,-0.931c0.084,0.036 0.169,0.06 0.265,0.06c0.467,0 0.719,-0.346 0.719,-0.681c0,-0.382 -0.228,-0.657 -0.564,-0.836l0.42,-1.511l-0.528,-0.132l-0.408,1.463c0,0 -0.276,-0.059 -0.54,-0.059c-1.477,0 -2.891,1.29 -2.891,3.61c0,1.345 0.455,2.642 1.546,3.121l-0.384,1.331l0.528,0.132Zm0,-1.99c-0.36,-0.229 -0.564,-0.697 -0.564,-1.369c0,-1.189 0.6,-1.729 1.441,-1.729l-0.877,3.098Zm0.517,0.18l0.888,-3.146c0.432,0.228 0.661,0.733 0.661,1.381c0,1.008 -0.517,1.777 -1.393,1.777c-0.048,0 -0.156,-0.012 -0.156,-0.012Zm0.504,-3.816c-0.708,0 -1.357,0.311 -1.669,0.67c0.036,-1.411 0.552,-2.724 1.657,-2.724c0.348,0 0.444,0.167 0.468,0.43l-0.456,1.624Z" style="fill-rule:nonzero;"/><path d="M64.5,33.041c-0.39,0 -0.726,0.132 -0.973,0.413c0.114,-1.002 0.655,-1.44 1.141,-1.464c0.204,-0.012 0.414,0.018 0.552,0.09l0.192,-0.366c-0.18,-0.089 -0.456,-0.137 -0.75,-0.119c-0.816,0.048 -1.62,0.695 -1.62,2.267c0,1.495 0.509,2.034 1.368,2.034c0.822,0 1.289,-0.545 1.289,-1.451c0,-0.919 -0.401,-1.404 -1.199,-1.404Zm-0.09,2.466c-0.576,0 -0.877,-0.402 -0.907,-1.489c0.187,-0.426 0.595,-0.588 0.997,-0.588c0.528,0 0.738,0.372 0.738,1.015c0,0.63 -0.276,1.062 -0.828,1.062Z" style="fill:#808080;fill-rule:nonzero;"/><path d="M68.933,31.031l-0.371,0l-1.494,5.652l0.372,0l1.493,-5.652Z" style="fill:#808080;fill-rule:nonzero;"/></g><g opacity="0.7"><path d="M175.815,15.205c0,-0.704 -0.815,-1.075 -1.619,-1.075c-1.477,0 -2.892,1.29 -2.892,3.61c0,0.337 0.024,0.673 0.096,0.997l-2.34,0.42l0.12,0.54l2.352,-0.42c0.336,1.021 1.067,1.775 2.304,1.775c1.284,0 2.303,-0.874 2.303,-2.267c0,-0.192 -0.024,-0.336 -0.024,-0.336l2.088,-0.372l-0.12,-0.541l-2.112,0.384c-0.312,-0.732 -1.007,-1.222 -1.991,-1.222c-0.697,0 -1.285,0.323 -1.585,0.67c0.036,-1.411 0.504,-2.724 1.609,-2.724c0.432,0 0.468,0.239 0.492,0.633c0.024,0.382 0.288,0.609 0.6,0.609c0.467,0 0.719,-0.346 0.719,-0.681Zm-0.839,3.448l0,0.096c0,1.008 -0.444,1.777 -1.308,1.777c-0.745,0 -1.153,-0.493 -1.189,-1.429l2.497,-0.444Zm-0.072,-0.54l-2.401,0.432c0.12,-0.889 0.624,-1.309 1.309,-1.309c0.6,0 0.948,0.336 1.092,0.877Z" style="fill-rule:nonzero;"/><path d="M170.934,33.041c-0.391,0 -0.727,0.132 -0.973,0.413c0.114,-1.002 0.654,-1.44 1.141,-1.464c0.204,-0.012 0.414,0.018 0.552,0.09l0.192,-0.366c-0.18,-0.089 -0.456,-0.137 -0.75,-0.119c-0.817,0.048 -1.62,0.695 -1.62,2.267c0,1.495 0.509,2.034 1.368,2.034c0.822,0 1.289,-0.545 1.289,-1.451c0,-0.919 -0.401,-1.404 -1.199,-1.404Zm-0.09,2.466c-0.577,0 -0.877,-0.402 -0.907,-1.489c0.186,-0.426 0.594,-0.588 0.997,-0.588c0.528,0 0.738,0.372 0.738,1.015c0,0.63 -0.276,1.062 -0.828,1.062Z" style="fill:#808080;fill-rule:nonzero;"/><path d="M175.367,31.031l-0.372,0l-1.493,5.652l0.372,0l1.493,-5.652Z" style="fill:#808080;fill-rule:nonzero;"/><path d="M178.967,31.031l-0.372,0l-1.493,5.652l0.372,0l1.493,-5.652Z" style="fill:#808080;fill-rule:nonzero;"/></g><g opacity="0.7"><path d="M51.142,22.324l0.372,-1.296c0,0 0.24,0.024 0.36,0.024c1.417,0 2.556,-0.947 2.556,-2.303c0,-1.057 -0.767,-1.776 -1.703,-2.004l0.408,-1.489c0.564,-0.167 1.007,-0.467 1.259,-0.874l-0.12,-0.168c-0.264,0.036 -0.863,0.084 -0.863,0.084l0.407,-1.452l-0.527,-0.132l-0.456,1.608c0,0 -0.432,0.012 -0.709,0.012c-0.576,0 -1.176,-0.048 -1.871,-0.12l-0.048,3.31l0.311,0.168c0.336,-0.312 0.78,-0.48 1.272,-0.48c0.072,0 0.228,0.012 0.228,0.012l-0.912,3.23c-0.276,-0.096 -0.456,-0.264 -0.456,-0.517c0,-0.3 0.228,-0.42 0.228,-0.78c0,-0.384 -0.276,-0.648 -0.624,-0.648c-0.467,0 -0.707,0.372 -0.707,0.876c0,0.588 0.539,1.26 1.427,1.536l-0.36,1.271l0.528,0.132Zm0.504,-1.774l0.901,-3.17c0.432,0.216 0.768,0.637 0.768,1.345c0,1.128 -0.684,1.825 -1.669,1.825Zm0.528,-3.888l-0.132,0c-0.528,0 -0.912,0.143 -1.236,0.299l-0.072,-0.036l0.024,-1.609c0.432,0.048 0.816,0.096 1.2,0.096c0.276,0 0.577,-0.036 0.577,-0.036l-0.361,1.286Z" style="fill-rule:nonzero;"/><path d="M50.959,33.041c-0.33,0 -0.624,0.114 -0.834,0.329l0.126,-1.356l1.727,0l0,-0.383l-2.099,0l-0.21,2.207l0.396,0.18c0.198,-0.414 0.558,-0.582 0.894,-0.582c0.54,0 0.744,0.39 0.744,1.009c0,0.642 -0.288,1.062 -0.87,1.062c-0.402,0 -0.714,-0.126 -0.906,-0.45l-0.408,0.21c0.282,0.444 0.738,0.629 1.296,0.629c0.834,0 1.349,-0.539 1.349,-1.451c0,-0.925 -0.419,-1.404 -1.205,-1.404Z" style="fill:#808080;fill-rule:nonzero;"/><path d="M55.458,31.031l-0.372,0l-1.493,5.652l0.372,0l1.493,-5.652Z" style="fill:#808080;fill-rule:nonzero;"/></g><g opacity="0.7"><path d="M157.544,20.009c0,-0.216 0.133,-0.36 0.133,-0.612c0,-0.42 -0.324,-0.672 -0.648,-0.672c-0.479,0 -0.767,0.396 -0.767,0.84c0,0.985 1.151,1.487 2.231,1.487c1.417,0 2.531,-0.778 2.531,-1.967c0,-1.165 -1.018,-1.883 -2.243,-1.883c-0.66,0 -1.152,0.215 -1.452,0.371l0.011,-0.768l5.124,-0.924l-0.12,-0.541l-5.004,0.913l0.013,-0.817c1.62,0 2.629,-0.287 3.204,-1.114l-0.12,-0.168c-0.707,0.12 -1.283,0.168 -1.884,0.168c-0.528,0 -1.068,-0.036 -1.703,-0.108l-0.024,2.135l-2.424,0.432l0.12,0.54l2.292,-0.42l-0.012,1.055l0.275,0.216c0.42,-0.252 0.888,-0.396 1.38,-0.396c0.709,0 1.345,0.372 1.345,1.285c0,0.936 -0.552,1.489 -1.477,1.489c-0.36,0 -0.78,-0.132 -0.78,-0.541l-0.001,0Z" style="fill-rule:nonzero;"/><path d="M155.754,33.041c-0.33,0 -0.624,0.114 -0.834,0.329l0.126,-1.356l1.727,0l0,-0.383l-2.099,0l-0.21,2.207l0.396,0.18c0.198,-0.414 0.558,-0.582 0.894,-0.582c0.54,0 0.744,0.39 0.744,1.009c0,0.642 -0.288,1.062 -0.87,1.062c-0.402,0 -0.714,-0.126 -0.906,-0.45l-0.408,0.21c0.282,0.444 0.738,0.629 1.296,0.629c0.834,0 1.349,-0.539 1.349,-1.451c0,-0.925 -0.419,-1.404 -1.205,-1.404Z" style="fill:#808080;fill-rule:nonzero;"/><path d="M160.253,31.031l-0.372,0l-1.493,5.652l0.371,0l1.494,-5.652Z" style="fill:#808080;fill-rule:nonzero;"/><path d="M163.853,31.031l-0.372,0l-1.493,5.652l0.371,0l1.494,-5.652Z" style="fill:#808080;fill-rule:nonzero;"/></g><g opacity="0.7"><path d="M40.21,18.964l1.164,0l0,-0.55l-1.164,0l0,-2.52l1.668,-2.004l-0.432,-0.336l-4.042,4.86l-0.732,0c1.224,-1.824 1.824,-2.64 2.592,-4.2l-1.5,0c-0.408,1.584 -0.9,2.88 -1.74,4.271l0,0.479l0.924,0l-1.8,2.16l0.432,0.336l2.076,-2.496l1.572,0l0,0.841c0,0.504 -0.444,0.673 -0.78,0.673l-0.24,0l0,0.478l2.962,0l0,-0.478c-0.468,0 -0.96,-0.144 -0.96,-0.673l0,-0.841Zm-2.086,-0.55l1.104,-1.332l0,1.332l-1.104,0Z" style="fill-rule:nonzero;"/><path d="M38.725,34.481l-0.738,0l0,-2.85l-0.9,0l-0.996,2.85l0,0.389l1.47,0l0,0.96l0.426,0l0,-0.96l0.738,0l0,-0.389Zm-2.19,0l0.858,-2.467l0.168,0l0,2.467l-1.026,0Z" style="fill:#808080;fill-rule:nonzero;"/><path d="M41.935,31.031l-0.372,0l-1.494,5.652l0.372,0l1.494,-5.652Z" style="fill:#808080;fill-rule:nonzero;"/></g><g opacity="0.7"><path d="M145.642,19.204l1.104,0l0,-0.55l-1.104,0l0,-1.416l2.556,-0.456l-0.12,-0.54l-2.436,0.444l0,-0.96l-1.091,1.152l-1.452,0.264l-0.06,-0.072c0.648,-1.02 1.2,-1.776 1.692,-2.856l-1.596,0c-0.24,1.068 -0.612,2.124 -1.056,3.12l-2.784,0.504l0.12,0.54l2.364,-0.432l0.036,0.072c0,0 -0.264,0.456 -0.42,0.707l0,0.479l3.144,0l0,0.601c0,0.504 -0.444,0.673 -0.78,0.673l-0.24,0l0,0.478l3.023,0l0,-0.478c-0.468,0 -0.9,-0.145 -0.9,-0.673l0,-0.601Zm-2.987,-1.414l1.884,-0.348l0,1.212l-2.424,0c0.192,-0.312 0.372,-0.6 0.54,-0.864Z" style="fill-rule:nonzero;"/><path d="M142.296,34.481l-0.738,0l0,-2.85l-0.899,0l-0.996,2.85l0,0.389l1.47,0l0,0.96l0.425,0l0,-0.96l0.738,0l0,-0.389Zm-2.189,0l0.858,-2.467l0.168,0l0,2.467l-1.026,0Z" style="fill:#808080;fill-rule:nonzero;"/><path d="M145.506,31.031l-0.372,0l-1.493,5.652l0.372,0l1.493,-5.652Z" style="fill:#808080;fill-rule:nonzero;"/><path d="M149.106,31.031l-0.372,0l-1.493,5.652l0.372,0l1.493,-5.652Z" style="fill:#808080;fill-rule:nonzero;"/></g><g opacity="0.7"><path d="M22.315,22.216l0.491,-1.367c0.36,0.131 0.756,0.203 1.129,0.203c1.584,0 2.555,-0.73 2.555,-1.799c0,-0.828 -0.647,-1.368 -1.451,-1.632l0,-0.133c0.6,-0.228 1.331,-0.648 1.331,-1.604c0,-0.679 -0.455,-1.3 -1.211,-1.587l0.48,-1.343l-0.516,-0.168l-0.492,1.38c0,0 -0.228,-0.036 -0.456,-0.036c-1.309,0 -2.171,0.884 -2.171,1.623c0,0.525 0.371,0.823 0.719,0.823c0.431,0 0.659,-0.298 0.659,-0.62c0,-0.525 -0.384,-0.549 -0.384,-0.823c0,-0.203 0.348,-0.501 1.009,-0.501c0.24,0 0.432,0.036 0.432,0.036l-0.961,2.664l-0.168,0.012l0,0.469c0,0 -0.348,0.96 -0.408,1.14c-0.108,-0.084 -0.239,-0.132 -0.371,-0.132c-0.479,0 -0.767,0.408 -0.767,0.816c0,0.408 0.228,0.721 0.551,0.949l-0.527,1.462l0.527,0.168Zm0.779,-2.183l0.793,-2.208c1.008,0.156 1.417,0.732 1.417,1.356c0,0.828 -0.601,1.369 -1.453,1.369c-0.421,0 -0.745,-0.144 -0.757,-0.517l0,0Zm0.997,-2.785l0.864,-2.365c0.252,0.179 0.421,0.489 0.421,0.966c0,0.679 -0.469,1.183 -1.285,1.399l0,0Z" style="fill-rule:nonzero;"/><path d="M23.646,33.683c0.456,-0.198 0.635,-0.564 0.635,-0.972c0,-0.757 -0.521,-1.116 -1.253,-1.116c-0.606,0 -1.062,0.275 -1.26,0.671l0.414,0.21c0.12,-0.282 0.456,-0.492 0.846,-0.492c0.462,0 0.786,0.192 0.786,0.727c0,0.432 -0.174,0.804 -0.858,0.804l-0.138,0l0,0.383l0.138,0c0.702,0 0.948,0.318 0.948,0.763c0,0.546 -0.336,0.846 -0.846,0.846c-0.468,0 -0.822,-0.21 -0.954,-0.492l-0.414,0.216c0.234,0.42 0.738,0.665 1.368,0.665c0.81,0 1.313,-0.455 1.313,-1.235c0,-0.475 -0.245,-0.829 -0.725,-0.978Z" style="fill:#808080;fill-rule:nonzero;"/><path d="M27.563,31.031l-0.371,0l-1.494,5.652l0.372,0l1.493,-5.652Z" style="fill:#808080;fill-rule:nonzero;"/></g><g opacity="0.7"><path d="M127.735,19.961c0,-0.216 0.132,-0.36 0.132,-0.612c0,-0.42 -0.324,-0.672 -0.648,-0.672c-0.479,0 -0.779,0.396 -0.779,0.816c0,0.877 1.007,1.559 2.219,1.559c1.585,0 2.556,-0.73 2.556,-1.847c0,-0.9 -0.624,-1.44 -1.451,-1.668l0,-0.109l3.599,-0.648l-0.12,-0.538l-2.496,0.454c0.156,-0.215 0.264,-0.501 0.264,-0.871c0,-0.919 -0.851,-1.695 -2.112,-1.695c-1.272,0 -2.099,0.884 -2.099,1.623c0,0.525 0.371,0.823 0.719,0.823c0.432,0 0.66,-0.298 0.66,-0.62c0,-0.525 -0.384,-0.549 -0.384,-0.823c0,-0.203 0.264,-0.501 0.852,-0.501c0.613,0 1.153,0.394 1.153,1.205c0,0.596 -0.324,1.087 -1.009,1.219l-4.091,0.733l0.12,0.54l2.987,-0.54c0.24,-0.048 0.456,-0.084 0.672,-0.084c0.877,0 1.441,0.636 1.441,1.428c0,0.876 -0.576,1.417 -1.345,1.417c-0.6,0 -0.84,-0.204 -0.84,-0.589Z" style="fill-rule:nonzero;"/><path d="M126.571,33.683c0.455,-0.198 0.635,-0.564 0.635,-0.972c0,-0.757 -0.521,-1.116 -1.253,-1.116c-0.606,0 -1.062,0.275 -1.26,0.671l0.414,0.21c0.12,-0.282 0.456,-0.492 0.846,-0.492c0.462,0 0.786,0.192 0.786,0.727c0,0.432 -0.174,0.804 -0.858,0.804l-0.138,0l0,0.383l0.138,0c0.702,0 0.948,0.318 0.948,0.763c0,0.546 -0.336,0.846 -0.846,0.846c-0.468,0 -0.822,-0.21 -0.954,-0.492l-0.414,0.216c0.234,0.42 0.738,0.665 1.368,0.665c0.81,0 1.313,-0.455 1.313,-1.235c0,-0.475 -0.246,-0.829 -0.725,-0.978Z" style="fill:#808080;fill-rule:nonzero;"/><path d="M130.488,31.031l-0.372,0l-1.493,5.652l0.372,0l1.493,-5.652Z" style="fill:#808080;fill-rule:nonzero;"/><path d="M134.088,31.031l-0.372,0l-1.493,5.652l0.372,0l1.493,-5.652Z" style="fill:#808080;fill-rule:nonzero;"/></g><g opacity="0.7"><path d="M13.144,19.063l-0.431,-0.071c-0.168,0.598 -0.456,0.946 -1.056,0.946c-0.541,0 -0.889,-0.072 -1.333,-0.12l0.324,-1.282c0.288,-0.203 0.528,-0.335 0.624,-0.395c0.889,-0.539 1.932,-0.994 1.932,-2.144c0,-0.85 -0.623,-1.496 -1.511,-1.748l0.348,-1.451l-0.528,-0.108l-0.36,1.452c-0.096,-0.012 -0.193,-0.012 -0.301,-0.012c-1.488,0 -2.327,1.113 -2.327,1.879c0,0.515 0.288,0.827 0.731,0.827c0.408,0 0.648,-0.276 0.648,-0.623c0,-0.515 -0.348,-0.611 -0.348,-0.886c0,-0.324 0.504,-0.671 1.2,-0.671c0.096,0 0.18,0 0.264,0.012l-0.864,3.545c-0.84,0.575 -1.859,1.736 -1.955,2.743l0.48,0c0.168,-0.432 0.359,-0.672 0.815,-0.672c0.048,0 0.096,0 0.156,0.012l-0.48,1.956l0.528,0.108l0.468,-1.896c0.492,0.229 0.996,0.588 1.585,0.588c0.96,0 1.391,-0.959 1.391,-1.989Zm-2.304,-1.353l0.709,-2.874c0.36,0.204 0.612,0.564 0.612,1.116c0,0.816 -0.504,1.188 -1.321,1.764l0,-0.006Zm-0.888,1.35l-0.18,0.72c-0.144,-0.022 -0.3,-0.022 -0.468,-0.022c0.168,-0.264 0.408,-0.503 0.648,-0.707l0,0.009Z" style="fill-rule:nonzero;"/><path d="M9.721,34.739c0.612,-0.636 1.061,-1.285 1.061,-1.939c0,-0.642 -0.401,-1.205 -1.199,-1.205c-0.546,0 -1.05,0.251 -1.284,0.665l0.408,0.216c0.144,-0.288 0.486,-0.492 0.864,-0.492c0.48,0 0.756,0.348 0.756,0.816c0,0.522 -0.396,1.147 -0.954,1.699c-0.282,0.306 -0.66,0.624 -1.068,0.948l0,0.383l2.465,0l0,-0.383l-1.817,0c0.054,-0.024 0.48,-0.396 0.768,-0.708Z" style="fill:#808080;fill-rule:nonzero;"/><path d="M14.106,31.031l-0.372,0l-1.493,5.652l0.372,0l1.493,-5.652Z" style="fill:#808080;fill-rule:nonzero;"/></g><g opacity="0.7"><path d="M110.262,18.56l3.839,-0.707c-0.12,0.108 -0.276,0.228 -0.432,0.348c-0.84,0.574 -1.871,1.748 -1.967,2.755l0.48,0c0.168,-0.432 0.36,-0.672 0.815,-0.672c0.72,0.001 1.38,0.768 2.257,0.768c0.96,0 1.391,-0.959 1.391,-1.989l-0.431,-0.072c-0.168,0.599 -0.456,0.887 -1.056,0.887c-0.9,-0.001 -1.104,-0.24 -2.185,-0.24c0.552,-0.839 1.561,-1.342 1.801,-1.497c0.312,-0.192 0.636,-0.371 0.924,-0.575l2.867,-0.527l-0.12,-0.539l-2.1,0.383c0.156,-0.239 0.24,-0.526 0.24,-0.886c0,-1.101 -1.055,-1.867 -2.351,-1.867c-1.165,0 -2.316,0.79 -2.316,1.843c0,0.431 0.288,0.755 0.779,0.755c0.384,0 0.636,-0.276 0.636,-0.671c0,-0.347 -0.264,-0.527 -0.264,-0.742c0,-0.419 0.456,-0.659 1.021,-0.659c0.672,0 1.128,0.407 1.128,1.293c0,0.42 -0.108,0.803 -0.444,1.222l-4.632,0.85l0.12,0.539Z" style="fill-rule:nonzero;"/><path d="M111.422,34.739c0.612,-0.636 1.061,-1.285 1.061,-1.939c0,-0.642 -0.401,-1.205 -1.199,-1.205c-0.546,0 -1.05,0.251 -1.284,0.665l0.408,0.216c0.144,-0.288 0.486,-0.492 0.864,-0.492c0.48,0 0.756,0.348 0.756,0.816c0,0.522 -0.396,1.147 -0.954,1.699c-0.282,0.306 -0.66,0.624 -1.068,0.948l0,0.383l2.465,0l0,-0.383l-1.817,0c0.054,-0.024 0.48,-0.396 0.768,-0.708Z" style="fill:#808080;fill-rule:nonzero;"/><path d="M115.807,31.031l-0.372,0l-1.493,5.652l0.372,0l1.493,-5.652Z" style="fill:#808080;fill-rule:nonzero;"/><path d="M119.407,31.031l-0.372,0l-1.493,5.652l0.372,0l1.493,-5.652Z" style="fill:#808080;fill-rule:nonzero;"/></g></svg>