<?xml version="1.0" encoding="UTF-8" standalone="no"?><!DOCTYPE svg PUBLIC "-//W3C//DTD SVG 1.1//EN" "http://www.w3.org/Graphics/SVG/1.1/DTD/svg11.dtd"><svg width="100%" height="100%" viewBox="0 0 170 46" version="1.1" xmlns="http://www.w3.org/2000/svg" xmlns:xlink="http://www.w3.org/1999/xlink" xml:space="preserve" xmlns:serif="http://www.serif.com/" style="fill-rule:evenodd;clip-rule:evenodd;stroke-linejoin:round;stroke-miterlimit:1.41421;"><rect id="_4_tickedNumbers" serif:id="4_tickedNumbers" x="0" y="0.56" width="170" height="45" style="fill:#fff;"/><g opacity="0.7"><g id="_2--" serif:id="2&apos;&apos;"><path d="M25.423,18.009l0.012,1.701c-0.828,-0.049 -1.692,-0.432 -2.701,-0.432c0.528,-1.078 1.645,-1.581 1.885,-1.737c0.888,-0.539 1.811,-0.934 1.811,-2.023c0,-1.042 -1.055,-1.748 -2.351,-1.748c-1.489,0 -2.327,1.113 -2.327,1.879c0,0.515 0.299,0.826 0.767,0.826c0.419,0 0.671,-0.275 0.671,-0.622c0,-0.515 -0.348,-0.611 -0.348,-0.886c0,-0.324 0.42,-0.671 1.093,-0.671c0.672,0 1.129,0.347 1.129,1.174c0,0.658 -0.337,1.221 -1.549,2.131c-0.841,0.575 -1.859,1.856 -1.967,2.995l0.479,0c0.168,-0.432 0.36,-0.672 0.815,-0.672c0.757,0.001 1.705,0.624 2.606,0.744l0.012,1.536l0.55,0l-0.012,-1.524c0.648,-0.072 1.26,-0.419 1.704,-1.15l-0.3,-0.311c-0.408,0.299 -0.9,0.443 -1.416,0.491l-0.012,-1.701l-0.551,0Z" style="fill-rule:nonzero;"/><path d="M22.378,34.379c0.612,-0.636 1.061,-1.285 1.061,-1.939c0,-0.642 -0.401,-1.205 -1.199,-1.205c-0.546,0 -1.05,0.251 -1.284,0.665l0.408,0.216c0.144,-0.288 0.486,-0.492 0.864,-0.492c0.48,0 0.756,0.348 0.756,0.816c0,0.522 -0.396,1.147 -0.954,1.699c-0.282,0.306 -0.66,0.624 -1.068,0.948l0,0.383l2.465,0l0,-0.383l-1.817,0c0.054,-0.024 0.48,-0.396 0.768,-0.708Z" style="fill:#808080;fill-rule:nonzero;"/><path d="M25.582,30.929l0.084,1.337l0.3,0l0.083,-1.337l-0.467,0Z" style="fill:#808080;fill-rule:nonzero;"/><path d="M29.182,30.929l0.084,1.337l0.3,0l0.083,-1.337l-0.467,0Z" style="fill:#808080;fill-rule:nonzero;"/></g><g id="_2-" serif:id="2&apos;"><path d="M11.789,18.045l0.192,1.665c-0.804,-0.085 -1.633,-0.432 -2.593,-0.432c0.528,-1.078 1.645,-1.581 1.885,-1.737c0.888,-0.539 1.811,-0.934 1.811,-2.023c0,-1.042 -1.055,-1.748 -2.352,-1.748c-1.488,0 -2.327,1.113 -2.327,1.879c0,0.515 0.3,0.826 0.767,0.826c0.42,0 0.672,-0.275 0.672,-0.622c0,-0.515 -0.348,-0.611 -0.348,-0.886c0,-0.324 0.42,-0.671 1.092,-0.671c0.673,0 1.129,0.347 1.129,1.174c0,0.658 -0.336,1.221 -1.549,2.131c-0.84,0.575 -1.859,1.856 -1.967,2.995l0.48,0c0.168,-0.432 0.359,-0.672 0.815,-0.672c0.756,0.001 1.693,0.612 2.593,0.744l0.192,1.656l0.539,-0.084l-0.18,-1.56c0.66,-0.072 1.272,-0.419 1.716,-1.15l-0.3,-0.311c-0.432,0.323 -0.96,0.467 -1.524,0.491l-0.204,-1.749l-0.539,0.084Z" style="fill-rule:nonzero;"/><path d="M10.721,34.379c0.612,-0.636 1.061,-1.285 1.061,-1.939c0,-0.642 -0.401,-1.205 -1.199,-1.205c-0.546,0 -1.05,0.251 -1.284,0.665l0.408,0.216c0.144,-0.288 0.486,-0.492 0.864,-0.492c0.48,0 0.756,0.348 0.756,0.816c0,0.522 -0.396,1.147 -0.954,1.699c-0.282,0.306 -0.66,0.624 -1.068,0.948l0,0.383l2.465,0l0,-0.383l-1.817,0c0.054,-0.024 0.48,-0.396 0.768,-0.708Z" style="fill:#808080;fill-rule:nonzero;"/><path d="M13.925,30.929l0.084,1.337l0.299,0l0.084,-1.337l-0.467,0Z" style="fill:#808080;fill-rule:nonzero;"/></g></g><g id="_4-" serif:id="4&apos;" opacity="0.7"><path d="M47.551,18.604l1.729,0l0,1.86l0.551,0l0,-1.86l1.404,0l0,-0.55l-1.404,0l0,-1.896l-0.551,0l0,1.896l-1.729,0l0,-2.52l-1.103,1.176l0,1.344l-2.424,0c1.224,-1.824 1.848,-2.64 2.616,-4.2l-1.596,0c-0.408,1.584 -0.9,2.88 -1.74,4.271l0,0.479l3.144,0l0,0.841c0,0.504 -0.444,0.673 -0.78,0.673l-0.24,0l0,0.478l2.663,0l0,-0.478c-0.252,0 -0.54,-0.145 -0.54,-0.673l0,-0.841Z" style="fill-rule:nonzero;"/><path d="M47.191,34.121l-0.738,0l0,-2.85l-0.899,0l-0.996,2.85l0,0.389l1.47,0l0,0.96l0.425,0l0,-0.96l0.738,0l0,-0.389Zm-2.189,0l0.858,-2.467l0.168,0l0,2.467l-1.026,0Z" style="fill:#808080;fill-rule:nonzero;"/><path d="M49.22,30.929l0.084,1.337l0.299,0l0.084,-1.337l-0.467,0Z" style="fill:#808080;fill-rule:nonzero;"/></g><g id="_7-" serif:id="7&apos;" opacity="0.7"><path d="M135.948,13.853l-0.48,0l-0.12,2.208l0.456,0c0.12,-1.08 0.696,-1.272 1.056,-1.272c0.156,0 0.384,0.036 0.636,0.096l-1.404,2.412l0.492,0.252l1.476,-2.532c0.396,0.096 0.792,0.192 1.032,0.228c-1.236,2.052 -2.496,3.312 -2.496,4.632c0,0.504 0.312,0.792 0.672,0.792c0.36,0 0.72,-0.264 0.768,-0.912c0.168,-2.16 1.512,-3.672 1.992,-5.904l-0.528,0c-0.096,0.312 -0.336,0.552 -0.672,0.552c-0.144,0 -0.252,-0.036 -0.36,-0.096l1.176,-2.004l-0.516,-0.252l-1.116,1.92c-0.168,-0.12 -0.396,-0.216 -0.72,-0.216c-0.696,0 -0.96,0.528 -1.176,0.528c-0.168,0 -0.168,-0.144 -0.168,-0.432Z" style="fill-rule:nonzero;"/><path d="M136.314,31.271l0,0.383l2.04,0l-1.716,3.816l0.48,0l1.679,-3.816l0,-0.383l-2.483,0Z" style="fill:#808080;fill-rule:nonzero;"/><path d="M140.88,30.929l0.084,1.337l0.3,0l0.083,-1.337l-0.467,0Z" style="fill:#808080;fill-rule:nonzero;"/></g><g id="_9-" serif:id="9&apos;" opacity="0.7"><path d="M157.258,17.093c-0.744,0 -1.032,-0.576 -1.032,-1.44c0,-0.672 0.408,-1.368 1.248,-1.368c0.744,0 1.152,0.6 1.152,1.296c0,0.84 -0.6,1.512 -1.368,1.512Zm1.464,-0.096c0,0.912 -0.312,1.776 -1.032,2.376l-2.184,-1.272l-0.264,0.456l1.968,1.152c-0.504,0.264 -1.128,0.456 -1.92,0.48l0.024,0.504c0.96,0 1.824,-0.24 2.52,-0.648l2.064,1.2l0.264,-0.456l-1.848,-1.056c0.984,-0.768 1.56,-1.92 1.56,-3.24c0,-1.44 -0.84,-2.736 -2.544,-2.736c-1.32,0 -2.328,0.96 -2.328,1.92c0,1.056 0.72,1.968 2.112,1.968c0.672,0 1.272,-0.312 1.608,-0.648Z" style="fill-rule:nonzero;"/><path d="M157.222,31.229c-0.78,0 -1.29,0.545 -1.29,1.451c0,0.919 0.438,1.404 1.218,1.404c0.414,0 0.708,-0.144 0.954,-0.449c-0.102,0.779 -0.414,1.134 -0.852,1.302c-0.378,0.138 -0.9,0.15 -0.96,0.15l0,0.383c0.072,0 0.558,0.012 1.02,-0.15c0.726,-0.239 1.278,-0.792 1.278,-2.261c0,-1.381 -0.528,-1.83 -1.368,-1.83Zm-0.09,2.466c-0.528,0 -0.738,-0.372 -0.738,-1.015c0,-0.63 0.288,-1.062 0.828,-1.062c0.6,0 0.906,0.33 0.912,1.423c-0.18,0.408 -0.54,0.654 -1.002,0.654Z" style="fill:#808080;fill-rule:nonzero;"/><path d="M160.642,30.929l0.084,1.337l0.3,0l0.084,-1.337l-0.468,0Z" style="fill:#808080;fill-rule:nonzero;"/></g><g id="_5-" serif:id="5&apos;" opacity="0.7"><g id="_5--" serif:id="5&apos;&apos;"><path d="M79.506,19.649c0,-0.216 0.132,-0.36 0.132,-0.612c0,-0.42 -0.324,-0.672 -0.647,-0.672c-0.48,0 -0.767,0.396 -0.767,0.84c0,0.985 1.15,1.487 2.231,1.487c1.417,0 2.531,-0.779 2.531,-1.967c0,-1.165 -1.019,-1.883 -2.243,-1.883c-0.66,0 -1.153,0.215 -1.453,0.371l0.024,-2.233c0.433,0.036 1.045,0.072 1.465,0.072c0.085,0 0.157,0 0.229,-0.012l0.012,1.152l0.55,0l-0.012,-1.224c0.721,-0.156 1.284,-0.515 1.644,-0.946l-0.096,-0.168c-0.527,0.072 -1.067,0.096 -1.56,0.108l-0.012,-1.608l-0.55,0l0.012,1.62l-0.024,0c-0.637,0 -1.466,-0.048 -2.16,-0.12l-0.048,3.742l0.275,0.216c0.419,-0.252 0.888,-0.396 1.38,-0.396c0.708,0 1.345,0.372 1.345,1.285c0,0.936 -0.553,1.489 -1.477,1.489c-0.36,0 -0.781,-0.132 -0.781,-0.541l0,0Z" style="fill-rule:nonzero;"/><path d="M78.76,32.681c-0.33,0 -0.624,0.114 -0.834,0.329l0.126,-1.356l1.728,0l0,-0.383l-2.1,0l-0.21,2.207l0.396,0.18c0.198,-0.414 0.558,-0.582 0.894,-0.582c0.54,0 0.744,0.39 0.744,1.008c0,0.643 -0.288,1.063 -0.87,1.063c-0.402,0 -0.714,-0.126 -0.906,-0.45l-0.408,0.21c0.282,0.443 0.738,0.629 1.296,0.629c0.834,0 1.35,-0.539 1.35,-1.452c0,-0.924 -0.42,-1.403 -1.206,-1.403Z" style="fill:#808080;fill-rule:nonzero;"/><path d="M82.078,30.929l0.084,1.337l0.3,0l0.084,-1.337l-0.468,0Z" style="fill:#808080;fill-rule:nonzero;"/><path d="M85.678,30.929l0.084,1.337l0.3,0l0.084,-1.337l-0.468,0Z" style="fill:#808080;fill-rule:nonzero;"/></g><g id="_5-1" serif:id="5&apos;"><path d="M66.172,19.577c0,-0.216 0.132,-0.36 0.132,-0.612c0,-0.42 -0.324,-0.672 -0.648,-0.672c-0.479,0 -0.767,0.396 -0.767,0.84c0,0.985 1.139,1.559 2.219,1.559c1.417,0 2.532,-0.923 2.532,-2.087c0,-1.237 -1.019,-2.003 -2.243,-2.003c-0.661,0 -1.153,0.215 -1.453,0.371l0.024,-1.993c0.432,0.036 1.044,0.072 1.465,0.072c0.156,0 0.3,-0.012 0.432,-0.024l1.092,1.645l0.443,-0.324l-0.947,-1.441c0.599,-0.179 1.091,-0.503 1.403,-0.887l-0.096,-0.167c-0.66,0.084 -1.355,0.108 -1.919,0.12l-1.249,-1.884l-0.444,0.324l1.02,1.548c-0.54,-0.012 -1.164,-0.048 -1.703,-0.108l-0.048,3.502l0.275,0.216c0.42,-0.252 0.888,-0.396 1.38,-0.396c0.709,0 1.345,0.42 1.345,1.405c0,0.912 -0.552,1.609 -1.477,1.609c-0.348,0 -0.768,-0.217 -0.768,-0.613l0,0Z" style="fill-rule:nonzero;"/><path d="M67.103,32.681c-0.33,0 -0.624,0.114 -0.834,0.329l0.126,-1.356l1.727,0l0,-0.383l-2.099,0l-0.21,2.207l0.396,0.18c0.198,-0.414 0.558,-0.582 0.894,-0.582c0.54,0 0.744,0.39 0.744,1.008c0,0.643 -0.288,1.063 -0.87,1.063c-0.402,0 -0.714,-0.126 -0.906,-0.45l-0.408,0.21c0.282,0.443 0.738,0.629 1.296,0.629c0.834,0 1.349,-0.539 1.349,-1.452c0,-0.924 -0.419,-1.403 -1.205,-1.403Z" style="fill:#808080;fill-rule:nonzero;"/><path d="M70.421,30.929l0.084,1.337l0.299,0l0.084,-1.337l-0.467,0Z" style="fill:#808080;fill-rule:nonzero;"/></g></g><g id="_6-" serif:id="6&apos;" opacity="0.7"><g id="_6--" serif:id="6&apos;&apos;"><path d="M117.287,18.629c0,0.804 -0.384,1.537 -1.236,1.537c-0.757,0 -1.165,-0.553 -1.165,-1.297c0,-0.817 0.528,-1.513 1.345,-1.513c0.744,0 1.056,0.54 1.056,1.273Zm-1.092,2.063c1.296,0 2.315,-0.911 2.315,-2.027c0,-0.937 -0.731,-1.847 -2.051,-1.847c-0.661,0 -1.285,0.275 -1.609,0.61c0,-1.344 0.936,-2.22 2.065,-2.7l0.612,1.464l0.503,-0.204l-0.599,-1.44c0.528,-0.168 1.079,-0.24 1.571,-0.252l0,-0.502c-0.636,0 -1.247,0.071 -1.799,0.203l-0.648,-1.547l-0.504,0.204l0.624,1.487c-1.825,0.599 -3.012,1.943 -3.012,3.791c0,1.117 0.719,2.76 2.532,2.76Z" style="fill-rule:nonzero;"/><path d="M114.374,32.681c-0.391,0 -0.727,0.132 -0.973,0.413c0.114,-1.002 0.655,-1.44 1.141,-1.464c0.204,-0.012 0.414,0.018 0.552,0.09l0.192,-0.366c-0.18,-0.089 -0.456,-0.137 -0.75,-0.119c-0.817,0.048 -1.62,0.695 -1.62,2.267c0,1.495 0.509,2.034 1.368,2.034c0.822,0 1.289,-0.545 1.289,-1.452c0,-0.918 -0.401,-1.403 -1.199,-1.403Zm-0.09,2.466c-0.577,0 -0.877,-0.402 -0.907,-1.489c0.186,-0.426 0.594,-0.588 0.997,-0.588c0.528,0 0.738,0.372 0.738,1.014c0,0.631 -0.276,1.063 -0.828,1.063Z" style="fill:#808080;fill-rule:nonzero;"/><path d="M117.626,30.929l0.084,1.337l0.299,0l0.084,-1.337l-0.467,0Z" style="fill:#808080;fill-rule:nonzero;"/><path d="M121.226,30.929l0.084,1.337l0.299,0l0.084,-1.337l-0.467,0Z" style="fill:#808080;fill-rule:nonzero;"/></g><g id="_6-1" serif:id="6&apos;"><path d="M103.94,18.629c0,0.804 -0.384,1.536 -1.236,1.536c-0.756,0 -1.164,-0.552 -1.164,-1.296c0,-0.816 0.528,-1.512 1.344,-1.512c0.744,0 1.056,0.54 1.056,1.272Zm-1.092,2.064c1.296,0 2.316,-0.912 2.316,-2.028c0,-0.936 -0.732,-1.848 -2.052,-1.848c-0.66,0 -1.332,0.288 -1.668,0.672c0.024,-1.188 0.36,-1.956 0.888,-2.448l1.74,1.308l0.312,-0.456l-1.584,-1.176c0.504,-0.276 1.116,-0.396 1.8,-0.42l-0.024,-0.504c-0.84,0 -1.644,0.168 -2.328,0.504l-2.136,-1.596l-0.312,0.456l1.944,1.452c-0.864,0.624 -1.428,1.608 -1.428,2.964c0,1.476 0.72,3.12 2.532,3.12Z" style="fill-rule:nonzero;"/><path d="M102.716,32.681c-0.39,0 -0.726,0.132 -0.972,0.413c0.114,-1.002 0.654,-1.44 1.14,-1.464c0.204,-0.012 0.414,0.018 0.553,0.09l0.191,-0.366c-0.179,-0.089 -0.456,-0.137 -0.75,-0.119c-0.816,0.048 -1.619,0.695 -1.619,2.267c0,1.495 0.509,2.034 1.367,2.034c0.823,0 1.29,-0.545 1.29,-1.452c0,-0.918 -0.402,-1.403 -1.2,-1.403Zm-0.09,2.466c-0.576,0 -0.876,-0.402 -0.906,-1.489c0.186,-0.426 0.594,-0.588 0.996,-0.588c0.528,0 0.739,0.372 0.739,1.014c0,0.631 -0.277,1.063 -0.829,1.063Z" style="fill:#808080;fill-rule:nonzero;"/><path d="M105.969,30.929l0.083,1.337l0.3,0l0.084,-1.337l-0.467,0Z" style="fill:#808080;fill-rule:nonzero;"/></g></g></svg>