<?xml version="1.0" encoding="UTF-8" standalone="no"?><!DOCTYPE svg PUBLIC "-//W3C//DTD SVG 1.1//EN" "http://www.w3.org/Graphics/SVG/1.1/DTD/svg11.dtd"><svg width="100%" height="100%" viewBox="0 0 80 46" version="1.1" xmlns="http://www.w3.org/2000/svg" xmlns:xlink="http://www.w3.org/1999/xlink" xml:space="preserve" xmlns:serif="http://www.serif.com/" style="fill-rule:evenodd;clip-rule:evenodd;stroke-linejoin:round;stroke-miterlimit:1.41421;"><rect id="_5_numbersPlus" serif:id="5_numbersPlus" x="0" y="0.2" width="80" height="45" style="fill:#fff;"/><g id="_2-" serif:id="2+" opacity="0.7"><path d="M15.076,15.905l0,2.364l-2.364,0c-0.168,0.6 -0.456,0.888 -1.056,0.888c-0.888,0 -1.104,-0.24 -2.184,-0.24c0.552,-0.84 1.56,-1.344 1.8,-1.5c0.888,-0.54 1.812,-0.996 1.812,-2.148c0,-1.104 -1.056,-1.872 -2.352,-1.872c-1.488,0 -2.328,1.116 -2.328,1.884c0,0.516 0.3,0.828 0.768,0.828c0.42,0 0.672,-0.276 0.672,-0.624c0,-0.516 -0.348,-0.612 -0.348,-0.888c0,-0.324 0.42,-0.672 1.092,-0.672c0.672,0 1.128,0.408 1.128,1.296c0,0.72 -0.336,1.344 -1.548,2.256c-0.84,0.576 -1.872,1.752 -1.968,2.76l0.48,0c0.168,-0.432 0.36,-0.672 0.816,-0.672c0.72,0 1.392,0.768 2.256,0.768c0.804,0 1.248,-0.684 1.356,-1.512l1.968,0l0,2.364l0.552,0l0,-2.364l2.364,0l0,-0.552l-2.364,0l0,-2.364l-0.552,0Z" style="fill-rule:nonzero;"/><path d="M10.721,34.019c0.612,-0.637 1.061,-1.285 1.061,-1.939c0,-0.642 -0.401,-1.205 -1.199,-1.205c-0.546,0 -1.05,0.251 -1.284,0.665l0.408,0.216c0.144,-0.288 0.486,-0.492 0.864,-0.492c0.48,0 0.756,0.348 0.756,0.816c0,0.522 -0.396,1.146 -0.954,1.699c-0.282,0.306 -0.66,0.624 -1.068,0.948l0,0.383l2.465,0l0,-0.383l-1.817,0c0.054,-0.024 0.48,-0.396 0.768,-0.708Z" style="fill:#808080;fill-rule:nonzero;"/><path d="M15.304,33.095l-0.942,0l0,-0.942l-0.383,0l0,0.942l-0.948,0l0,0.383l0.948,0l0,0.948l0.383,0l0,-0.948l0.942,0l0,-0.383Z" style="fill:#808080;fill-rule:nonzero;"/></g><g id="_2p" serif:id="2p" opacity="0.7"><path d="M69.04,18.341l-0.432,-0.072c-0.168,0.6 -0.456,0.888 -1.056,0.888c-0.888,0 -1.104,-0.24 -2.184,-0.24c0.552,-0.84 1.56,-1.344 1.8,-1.5c0.888,-0.54 1.812,-0.996 1.812,-2.148c0,-1.104 -1.056,-1.872 -2.352,-1.872c-1.488,0 -2.328,1.116 -2.328,1.884c0,0.516 0.3,0.828 0.768,0.828c0.42,0 0.672,-0.276 0.672,-0.624c0,-0.516 -0.348,-0.612 -0.348,-0.888c0,-0.324 0.42,-0.672 1.092,-0.672c0.672,0 1.128,0.408 1.128,1.296c0,0.72 -0.336,1.344 -1.548,2.256c-0.84,0.576 -1.872,1.752 -1.968,2.76l0.48,0c0.168,-0.432 0.36,-0.672 0.816,-0.672c0.72,0 1.392,0.768 2.256,0.768c0.96,0 1.392,-0.96 1.392,-1.992Z" style="fill-rule:nonzero;"/><path d="M72.34,14.549l0,2.364l-2.364,0l0,0.552l2.364,0l0,2.364l0.552,0l0,-2.364l2.364,0l0,-0.552l-2.364,0l0,-2.364l-0.552,0Z" style="fill-rule:nonzero;"/><path d="M66.987,34.019c0.612,-0.637 1.062,-1.285 1.062,-1.939c0,-0.642 -0.402,-1.205 -1.2,-1.205c-0.546,0 -1.05,0.251 -1.284,0.665l0.408,0.216c0.144,-0.288 0.486,-0.492 0.864,-0.492c0.48,0 0.756,0.348 0.756,0.816c0,0.522 -0.396,1.146 -0.954,1.699c-0.282,0.306 -0.66,0.624 -1.068,0.948l0,0.383l2.466,0l0,-0.383l-1.818,0c0.054,-0.024 0.48,-0.396 0.768,-0.708Z" style="fill:#808080;fill-rule:nonzero;"/><path d="M70.659,32.039c-0.444,0 -0.792,0.233 -1.002,0.557l0,-0.06l-0.078,-0.425l-0.354,0l0,4.199l0.432,0l0,-1.595c0.192,0.275 0.498,0.461 0.942,0.461c0.738,0 1.188,-0.461 1.188,-1.559c0,-1.099 -0.39,-1.578 -1.128,-1.578Zm-0.138,2.748c-0.528,0 -0.804,-0.408 -0.864,-0.672l0,-0.937c0.066,-0.282 0.396,-0.75 0.924,-0.75c0.57,0 0.774,0.372 0.774,1.188c0,0.817 -0.264,1.171 -0.834,1.171Z" style="fill:#808080;fill-rule:nonzero;"/></g><g id="_4-" serif:id="4+" opacity="0.7"><path d="M31.055,15.329l0,2.364l-2.568,0l0,-2.52l-1.104,1.176l0,1.344l-2.424,0c1.224,-1.824 1.848,-2.64 2.616,-4.2l-1.596,0c-0.408,1.584 -0.9,2.88 -1.74,4.272l0,0.48l3.144,0l0,0.84c0,0.504 -0.444,0.672 -0.78,0.672l-0.24,0l0,0.48l3.024,0l0,-0.48c-0.468,0 -0.9,-0.144 -0.9,-0.672l0,-0.84l2.568,0l0,2.364l0.552,0l0,-2.364l2.364,0l0,-0.552l-2.364,0l0,-2.364l-0.552,0Z" style="fill-rule:nonzero;"/><path d="M28.718,33.761l-0.738,0l0,-2.85l-0.9,0l-0.996,2.85l0,0.389l1.47,0l0,0.96l0.426,0l0,-0.96l0.738,0l0,-0.389Zm-2.19,0l0.858,-2.467l0.168,0l0,2.467l-1.026,0Z" style="fill:#808080;fill-rule:nonzero;"/><path d="M32.126,33.095l-0.942,0l0,-0.942l-0.384,0l0,0.942l-0.948,0l0,0.383l0.948,0l0,0.948l0.384,0l0,-0.948l0.942,0l0,-0.383Z" style="fill:#808080;fill-rule:nonzero;"/></g><g id="_5-" serif:id="5+" opacity="0.7"><path d="M46.518,16.349l0,-2.256l2.16,0l0,-0.552l-2.16,0l0,-2.232l-0.552,0l0,2.232l-1.848,0c-0.672,0.048 -0.888,0.072 -1.44,0.072c-0.576,0 -1.128,-0.048 -1.824,-0.12l-0.048,3.312l0.312,0.168c0.336,-0.312 0.756,-0.48 1.248,-0.48c0.708,0 1.392,0.432 1.392,1.512c0,1.104 -0.564,1.824 -1.428,1.824c-0.588,0 -0.912,-0.252 -0.912,-0.576c0,-0.312 0.252,-0.432 0.252,-0.804c0,-0.408 -0.3,-0.66 -0.648,-0.66c-0.468,0 -0.804,0.372 -0.804,0.876c0,0.768 0.876,1.668 2.292,1.668c1.416,0 2.52,-0.948 2.52,-2.304c0,-1.296 -1.164,-2.088 -2.388,-2.088c-0.528,0 -0.912,0.144 -1.236,0.3l-0.072,-0.036l0.024,-1.512c0.432,0.048 0.768,0.096 1.152,0.096c0.756,0 1.272,-0.264 1.656,-0.696l1.8,0l0,2.256l0.552,0Z" style="fill-rule:nonzero;"/><path d="M42.819,32.321c-0.33,0 -0.624,0.114 -0.834,0.329l0.126,-1.356l1.728,0l0,-0.383l-2.1,0l-0.21,2.207l0.396,0.18c0.198,-0.414 0.558,-0.582 0.894,-0.582c0.54,0 0.744,0.39 0.744,1.008c0,0.643 -0.288,1.063 -0.87,1.063c-0.402,0 -0.714,-0.126 -0.906,-0.45l-0.408,0.21c0.282,0.443 0.738,0.629 1.296,0.629c0.834,0 1.349,-0.539 1.349,-1.452c0,-0.924 -0.419,-1.403 -1.205,-1.403Z" style="fill:#808080;fill-rule:nonzero;"/><path d="M47.516,33.095l-0.942,0l0,-0.942l-0.383,0l0,0.942l-0.948,0l0,0.383l0.948,0l0,0.948l0.383,0l0,-0.948l0.942,0l0,-0.383Z" style="fill:#808080;fill-rule:nonzero;"/></g></svg>