<?xml version="1.0" encoding="UTF-8" standalone="no"?><!DOCTYPE svg PUBLIC "-//W3C//DTD SVG 1.1//EN" "http://www.w3.org/Graphics/SVG/1.1/DTD/svg11.dtd"><svg width="100%" height="100%" viewBox="0 0 100 61" version="1.1" xmlns="http://www.w3.org/2000/svg" xmlns:xlink="http://www.w3.org/1999/xlink" xml:space="preserve" xmlns:serif="http://www.serif.com/" style="fill-rule:evenodd;clip-rule:evenodd;stroke-linejoin:round;stroke-miterlimit:1.41421;"><rect id="_6_italics" serif:id="6_italics" x="0" y="0.839" width="100" height="60" style="fill:#fff;"/><g id="i642" opacity="0.7"><path d="M14.266,13.833c0.42,0 0.768,-0.384 0.768,-0.9c0,-0.612 -0.504,-1.392 -1.656,-1.392c-1.548,0 -3.528,1.776 -3.528,4.356c0,1.356 0.696,2.556 2.304,2.556c1.14,0 2.328,-0.876 2.328,-2.22c0,-0.996 -0.732,-1.908 -1.992,-1.908c-0.492,0 -0.984,0.204 -1.344,0.516c0.372,-1.428 1.128,-2.808 2.232,-2.808c0.372,0 0.504,0.168 0.504,0.396c0,0.3 -0.264,0.48 -0.264,0.816c0,0.324 0.24,0.588 0.648,0.588Zm-0.972,2.1c0,1.032 -0.612,1.98 -1.38,1.98c-0.708,0 -1.08,-0.504 -1.08,-1.128c0,-1.092 0.708,-1.932 1.5,-1.932c0.672,0 0.96,0.468 0.96,1.08Z" style="fill-rule:nonzero;"/><path d="M13.978,25.125l1.104,0l0,-0.552l-1.104,0l0,-2.52l-1.104,1.176l0,1.344l-2.424,0c1.224,-1.824 1.848,-2.64 2.616,-4.2l-1.596,0c-0.408,1.584 -0.9,2.88 -1.74,4.272l0,0.48l3.144,0l0,0.84c0,0.504 -0.444,0.672 -0.78,0.672l-0.24,0l0,0.48l3.024,0l0,-0.48c-0.468,0 -0.9,-0.144 -0.9,-0.672l0,-0.84Z" style="fill-rule:nonzero;"/><path d="M14.866,33.981l-0.432,-0.072c-0.168,0.6 -0.456,0.888 -1.056,0.888c-0.888,0 -1.104,-0.24 -2.184,-0.24c0.552,-0.84 1.56,-1.344 1.8,-1.5c0.888,-0.54 1.812,-0.996 1.812,-2.148c0,-1.104 -1.056,-1.872 -2.352,-1.872c-1.488,0 -2.328,1.116 -2.328,1.884c0,0.516 0.3,0.828 0.768,0.828c0.42,0 0.672,-0.276 0.672,-0.624c0,-0.516 -0.348,-0.612 -0.348,-0.888c0,-0.324 0.42,-0.672 1.092,-0.672c0.672,0 1.128,0.408 1.128,1.296c0,0.72 -0.336,1.344 -1.548,2.256c-0.84,0.576 -1.872,1.752 -1.968,2.76l0.48,0c0.168,-0.432 0.36,-0.672 0.816,-0.672c0.72,0 1.392,0.768 2.256,0.768c0.96,0 1.392,-0.96 1.392,-1.992Z" style="fill-rule:nonzero;"/><path d="M6.952,46.958c0.222,0 0.396,-0.174 0.396,-0.396c0,-0.222 -0.174,-0.395 -0.396,-0.395c-0.221,0 -0.401,0.173 -0.401,0.395c0,0.222 0.18,0.396 0.401,0.396Zm0.228,3.409l0,-2.616l-1.493,0l0,0.383l1.062,0l0,2.616l1.325,0l0,-0.383l-0.894,0Z" style="fill:#808080;fill-rule:nonzero;"/><path d="M10.672,47.961c-0.39,0 -0.726,0.131 -0.972,0.413c0.114,-1.002 0.654,-1.44 1.141,-1.464c0.204,-0.012 0.414,0.018 0.552,0.09l0.191,-0.366c-0.179,-0.089 -0.455,-0.137 -0.749,-0.119c-0.817,0.048 -1.62,0.695 -1.62,2.267c0,1.495 0.509,2.034 1.367,2.034c0.823,0 1.29,-0.545 1.29,-1.452c0,-0.918 -0.401,-1.403 -1.2,-1.403Zm-0.09,2.466c-0.576,0 -0.876,-0.402 -0.906,-1.489c0.186,-0.426 0.594,-0.588 0.996,-0.588c0.529,0 0.739,0.372 0.739,1.014c0,0.631 -0.276,1.063 -0.829,1.063Z" style="fill:#808080;fill-rule:nonzero;"/><path d="M15.496,49.401l-0.738,0l0,-2.85l-0.899,0l-0.996,2.85l0,0.389l1.47,0l0,0.96l0.425,0l0,-0.96l0.738,0l0,-0.389Zm-2.189,0l0.858,-2.467l0.168,0l0,2.467l-1.026,0Z" style="fill:#808080;fill-rule:nonzero;"/><path d="M17.921,49.659c0.612,-0.637 1.061,-1.285 1.061,-1.939c0,-0.642 -0.401,-1.205 -1.199,-1.205c-0.546,0 -1.05,0.251 -1.284,0.665l0.408,0.216c0.144,-0.288 0.486,-0.492 0.864,-0.492c0.48,0 0.756,0.348 0.756,0.816c0,0.522 -0.396,1.146 -0.954,1.698c-0.282,0.307 -0.66,0.625 -1.068,0.949l0,0.383l2.465,0l0,-0.383l-1.817,0c0.054,-0.024 0.48,-0.396 0.768,-0.708Z" style="fill:#808080;fill-rule:nonzero;"/></g><g id="i6421" serif:id="i642" opacity="0.7"><path d="M40.974,13.317c-1.404,1.752 -3.348,3.312 -3.348,4.464c0,0.408 0.288,0.648 0.624,0.648c0.348,0 0.732,-0.252 0.9,-0.876c0.54,-2.004 2.184,-3.468 3.084,-5.664l-0.516,-0.036c-0.156,0.3 -0.42,0.516 -0.744,0.516c-0.624,0 -0.588,-0.72 -1.428,-0.72c-0.636,0 -0.936,0.468 -1.14,0.468c-0.096,0 -0.132,-0.06 -0.132,-0.156c0,-0.072 0.012,-0.168 0.036,-0.288l-0.468,-0.024l-0.648,2.556l0.456,0.024c0.42,-1.332 0.888,-1.488 1.248,-1.488c0.552,0 1.536,0.468 2.076,0.576Z" style="fill-rule:nonzero;"/><path d="M43.854,9.285l-0.528,0l0,9.624l0.24,0c1.296,-1.56 3.312,-1.536 3.312,-3.504c0,-1.008 -0.792,-1.464 -1.56,-1.464c-0.72,0 -1.128,0.408 -1.464,0.744l0,-5.4Zm0,8.76l0.024,-2.832c0,0 0.396,-0.456 0.936,-0.456c0.42,0 0.804,0.264 0.804,0.96c0,1.08 -0.876,1.488 -1.764,2.328Z" style="fill-rule:nonzero;"/><path d="M38.718,27.189c1.356,0 2.856,-0.936 2.856,-2.496c0,-1.152 -0.912,-1.848 -2.052,-1.848c-0.564,0 -0.78,0.12 -1.14,0.24l0.408,-1.44c0.48,0.072 0.756,0.144 1.236,0.144c1.008,0 1.68,-0.444 2.196,-1.044l-0.108,-0.18c-0.432,0.048 -0.768,0.072 -1.128,0.072c-0.888,0 -1.476,-0.072 -2.364,-0.192l-0.936,3.216l0.264,0.192c0.384,-0.264 0.792,-0.432 1.26,-0.432c0.708,0 1.116,0.384 1.116,1.08c0,1.248 -0.852,2.16 -1.752,2.16c-0.516,0 -0.84,-0.228 -0.84,-0.408c0,-0.324 0.372,-0.36 0.372,-0.948c0,-0.396 -0.252,-0.648 -0.672,-0.648c-0.432,0 -0.78,0.348 -0.78,0.948c0,0.732 0.732,1.584 2.064,1.584Z" style="fill-rule:nonzero;"/><path d="M37.53,33.105c-0.48,0 -0.912,0.444 -0.912,1.044c0,0.96 0.96,1.824 2.568,1.824c1.248,0 2.268,-0.648 2.268,-1.884c0,-0.66 -0.432,-1.164 -1.02,-1.5l0.024,-0.132c0.696,-0.12 1.68,-0.528 1.68,-1.692c0,-0.864 -0.84,-1.704 -2.1,-1.704c-1.08,0 -2.052,0.684 -2.052,1.536c0,0.432 0.276,0.696 0.66,0.696c0.408,0 0.684,-0.324 0.684,-0.732c0,-0.3 -0.192,-0.408 -0.192,-0.6c0,-0.228 0.276,-0.432 0.708,-0.432c0.648,0 1.116,0.384 1.116,1.02c0,0.924 -0.648,1.5 -1.644,1.548c-0.156,0.012 -0.516,0.012 -0.516,0.012l-0.084,0.42c1.092,0.132 1.5,0.66 1.5,1.284c0,0.984 -0.744,1.608 -1.476,1.608c-0.576,0 -1.08,-0.312 -1.08,-0.672c0,-0.456 0.492,-0.516 0.492,-1.056c0,-0.348 -0.264,-0.588 -0.624,-0.588Z" style="fill-rule:nonzero;"/><path d="M28.572,46.958c0.222,0 0.396,-0.174 0.396,-0.396c0,-0.222 -0.174,-0.395 -0.396,-0.395c-0.222,0 -0.402,0.173 -0.402,0.395c0,0.222 0.18,0.396 0.402,0.396Zm0.228,3.409l0,-2.616l-1.494,0l0,0.383l1.062,0l0,2.616l1.326,0l0,-0.383l-0.894,0Z" style="fill:#808080;fill-rule:nonzero;"/><path d="M30.978,46.551l0,0.383l2.04,0l-1.716,3.816l0.48,0l1.68,-3.816l0,-0.383l-2.484,0Z" style="fill:#808080;fill-rule:nonzero;"/><path d="M35.994,47.685c-0.438,0 -0.78,0.203 -0.984,0.509l0,-2.243l-0.432,0l0,4.799l0.372,0l0.06,-0.425l0,-0.012c0.192,0.299 0.498,0.503 0.924,0.503c0.696,0 1.176,-0.473 1.176,-1.572c0,-1.098 -0.42,-1.559 -1.116,-1.559Zm-0.15,2.742c-0.474,0 -0.768,-0.426 -0.834,-0.763l0,-0.864c0.096,-0.288 0.402,-0.726 0.894,-0.726c0.546,0 0.78,0.318 0.78,1.17c0,0.847 -0.294,1.183 -0.84,1.183Z" style="fill:#808080;fill-rule:nonzero;"/><path d="M39.372,46.958c0.222,0 0.396,-0.174 0.396,-0.396c0,-0.222 -0.174,-0.395 -0.396,-0.395c-0.222,0 -0.402,0.173 -0.402,0.395c0,0.222 0.18,0.396 0.402,0.396Zm0.228,3.409l0,-2.616l-1.494,0l0,0.383l1.062,0l0,2.616l1.326,0l0,-0.383l-0.894,0Z" style="fill:#808080;fill-rule:nonzero;"/><path d="M43.026,47.961c-0.33,0 -0.624,0.113 -0.834,0.329l0.126,-1.356l1.728,0l0,-0.383l-2.1,0l-0.21,2.207l0.396,0.18c0.198,-0.414 0.558,-0.582 0.894,-0.582c0.54,0 0.744,0.39 0.744,1.008c0,0.643 -0.288,1.063 -0.87,1.063c-0.402,0 -0.714,-0.126 -0.906,-0.451l-0.408,0.211c0.282,0.443 0.738,0.629 1.296,0.629c0.834,0 1.35,-0.539 1.35,-1.452c0,-0.924 -0.42,-1.403 -1.206,-1.403Z" style="fill:#808080;fill-rule:nonzero;"/><path d="M46.572,46.958c0.222,0 0.396,-0.174 0.396,-0.396c0,-0.222 -0.174,-0.395 -0.396,-0.395c-0.222,0 -0.402,0.173 -0.402,0.395c0,0.222 0.18,0.396 0.402,0.396Zm0.228,3.409l0,-2.616l-1.494,0l0,0.383l1.062,0l0,2.616l1.326,0l0,-0.383l-0.894,0Z" style="fill:#808080;fill-rule:nonzero;"/><path d="M50.808,48.602c0.456,-0.197 0.636,-0.564 0.636,-0.972c0,-0.756 -0.522,-1.115 -1.254,-1.115c-0.606,0 -1.062,0.275 -1.26,0.671l0.414,0.21c0.12,-0.282 0.456,-0.492 0.846,-0.492c0.462,0 0.786,0.192 0.786,0.726c0,0.432 -0.174,0.805 -0.858,0.805l-0.138,0l0,0.383l0.138,0c0.702,0 0.948,0.318 0.948,0.762c0,0.547 -0.336,0.847 -0.846,0.847c-0.468,0 -0.822,-0.21 -0.954,-0.493l-0.414,0.217c0.234,0.419 0.738,0.665 1.368,0.665c0.81,0 1.314,-0.455 1.314,-1.236c0,-0.474 -0.246,-0.828 -0.726,-0.978Z" style="fill:#808080;fill-rule:nonzero;"/></g><g id="i5--" serif:id="i5//" opacity="0.7"><path d="M66.094,35.025c0,-0.192 0.168,-0.372 0.168,-0.672c0,-0.432 -0.252,-0.709 -0.624,-0.709c-0.479,0 -0.779,0.349 -0.779,0.841c0,0.948 1.187,1.463 2.279,1.463c1.297,0 2.592,-0.743 2.592,-1.991c0,-1.081 -1.055,-1.692 -2.195,-1.692c-0.565,0 -0.781,0.06 -1.141,0.18l0.192,-0.672l5.424,-0.516l-0.072,-0.541l-5.196,0.493l0.228,-0.805c0.276,0.036 0.541,0.06 0.817,0.06c1.188,0 2.267,-0.384 2.615,-0.959l-0.108,-0.18c-0.432,0.048 -0.768,0.072 -1.128,0.072c-0.887,0 -1.475,-0.072 -2.364,-0.192l-0.6,2.064l-3.023,0.288l0.072,0.54l2.783,-0.264l-0.312,1.067l0.252,0.252c0.384,-0.264 0.9,-0.372 1.369,-0.372c0.708,0 1.164,0.396 1.164,1.02c0,1.009 -0.672,1.621 -1.513,1.621c-0.564,0 -0.9,-0.144 -0.9,-0.396Z" style="fill-rule:nonzero;"/><path d="M62.152,46.958c0.222,0 0.396,-0.174 0.396,-0.396c0,-0.222 -0.174,-0.395 -0.396,-0.395c-0.221,0 -0.401,0.173 -0.401,0.395c0,0.222 0.18,0.396 0.401,0.396Zm0.228,3.409l0,-2.616l-1.493,0l0,0.383l1.062,0l0,2.616l1.325,0l0,-0.383l-0.894,0Z" style="fill:#808080;fill-rule:nonzero;"/><path d="M65.807,47.961c-0.33,0 -0.624,0.113 -0.834,0.329l0.126,-1.356l1.727,0l0,-0.383l-2.099,0l-0.21,2.207l0.396,0.18c0.198,-0.414 0.558,-0.582 0.894,-0.582c0.54,0 0.744,0.39 0.744,1.008c0,0.643 -0.288,1.063 -0.87,1.063c-0.402,0 -0.714,-0.126 -0.906,-0.451l-0.408,0.211c0.282,0.443 0.738,0.629 1.296,0.629c0.834,0 1.349,-0.539 1.349,-1.452c0,-0.924 -0.419,-1.403 -1.205,-1.403Z" style="fill:#808080;fill-rule:nonzero;"/><path d="M70.306,45.951l-0.372,0l-1.493,5.652l0.372,0l1.493,-5.652Z" style="fill:#808080;fill-rule:nonzero;"/><path d="M73.906,45.951l-0.372,0l-1.493,5.652l0.372,0l1.493,-5.652Z" style="fill:#808080;fill-rule:nonzero;"/></g><g id="i6-" serif:id="i6&apos;" opacity="0.7"><path d="M86.627,35.397c-0.696,0 -1.045,-0.492 -1.045,-1.116c0,-0.937 0.733,-1.669 1.525,-1.669c0.673,0 0.973,0.456 0.973,0.984c0,0.973 -0.637,1.801 -1.453,1.801Zm0.252,0.575c1.165,0 2.339,-0.779 2.339,-2.087c0,-0.865 -0.659,-1.788 -1.931,-1.788c-0.504,0 -1.008,0.156 -1.344,0.407c0.336,-1.103 0.912,-1.775 1.669,-2.184l1.474,1.753l0.408,-0.372l-1.354,-1.609c0.563,-0.204 1.21,-0.288 1.906,-0.336l0,-0.527l-0.024,0c-0.78,0 -1.571,0.12 -2.302,0.371l-1.669,-1.967l-0.409,0.372l1.537,1.823c-1.429,0.66 -2.495,1.897 -2.495,3.756c0,1.213 0.611,2.388 2.195,2.388Z" style="fill-rule:nonzero;"/><path d="M83.525,46.958c0.222,0 0.396,-0.174 0.396,-0.396c0,-0.222 -0.174,-0.395 -0.396,-0.395c-0.222,0 -0.402,0.173 -0.402,0.395c0,0.222 0.18,0.396 0.402,0.396Zm0.228,3.409l0,-2.616l-1.494,0l0,0.383l1.062,0l0,2.616l1.326,0l0,-0.383l-0.894,0Z" style="fill:#808080;fill-rule:nonzero;"/><path d="M87.245,47.961c-0.39,0 -0.726,0.131 -0.972,0.413c0.114,-1.002 0.654,-1.44 1.14,-1.464c0.204,-0.012 0.414,0.018 0.552,0.09l0.192,-0.366c-0.18,-0.089 -0.456,-0.137 -0.75,-0.119c-0.816,0.048 -1.62,0.695 -1.62,2.267c0,1.495 0.51,2.034 1.368,2.034c0.822,0 1.29,-0.545 1.29,-1.452c0,-0.918 -0.402,-1.403 -1.2,-1.403Zm-0.09,2.466c-0.576,0 -0.876,-0.402 -0.906,-1.489c0.186,-0.426 0.594,-0.588 0.996,-0.588c0.528,0 0.738,0.372 0.738,1.014c0,0.631 -0.276,1.063 -0.828,1.063Z" style="fill:#808080;fill-rule:nonzero;"/><path d="M90.497,46.209l0.084,1.337l0.3,0l0.084,-1.337l-0.468,0Z" style="fill:#808080;fill-rule:nonzero;"/></g></svg>