<?xml version="1.0" encoding="UTF-8" standalone="no"?><!DOCTYPE svg PUBLIC "-//W3C//DTD SVG 1.1//EN" "http://www.w3.org/Graphics/SVG/1.1/DTD/svg11.dtd"><svg width="100%" height="100%" viewBox="0 0 210 61" version="1.1" xmlns="http://www.w3.org/2000/svg" xmlns:xlink="http://www.w3.org/1999/xlink" xml:space="preserve" xmlns:serif="http://www.serif.com/" style="fill-rule:evenodd;clip-rule:evenodd;stroke-linejoin:round;stroke-miterlimit:1.41421;"><rect id="_7_dashes" serif:id="7_dashes" x="0" y="0.479" width="210" height="60" style="fill:#fff;"/><g id="dash-examples" serif:id="dash examples" opacity="0.7"><g><path d="M12.421,22.461c-0.528,0 -0.912,0.144 -1.236,0.3l-0.072,-0.036l0.024,-1.512c0.432,0.048 0.768,0.096 1.152,0.096c1.104,0 1.656,-0.456 2.064,-1.128l-0.12,-0.168c-0.672,0.096 -1.224,0.12 -1.776,0.12c-0.576,0 -1.128,-0.048 -1.824,-0.12l-0.048,3.312l0.312,0.168c0.336,-0.312 0.756,-0.48 1.248,-0.48c0.708,0 1.392,0.432 1.392,1.512c0,1.104 -0.564,1.824 -1.428,1.824c-0.588,0 -0.912,-0.252 -0.912,-0.576c0,-0.312 0.252,-0.432 0.252,-0.804c0,-0.408 -0.3,-0.66 -0.648,-0.66c-0.468,0 -0.804,0.372 -0.804,0.876c0,0.768 0.876,1.668 2.292,1.668c1.416,0 2.52,-0.948 2.52,-2.304c0,-1.296 -1.164,-2.088 -2.388,-2.088Z" style="fill-rule:nonzero;"/><path d="M13.921,33.525l1.104,0l0,-0.552l-1.104,0l0,-2.52l-1.104,1.176l0,1.344l-2.424,0c1.224,-1.824 1.848,-2.64 2.616,-4.2l-1.596,0c-0.408,1.584 -0.9,2.88 -1.74,4.272l0,0.48l3.144,0l0,0.84c0,0.504 -0.444,0.672 -0.78,0.672l-0.24,0l0,0.48l3.024,0l0,-0.48c-0.468,0 -0.9,-0.144 -0.9,-0.672l0,-0.84Z" style="fill-rule:nonzero;"/><path d="M10.607,47.601c-0.33,0 -0.624,0.113 -0.834,0.329l0.126,-1.356l1.727,0l0,-0.383l-2.099,0l-0.21,2.207l0.396,0.18c0.198,-0.414 0.558,-0.582 0.894,-0.582c0.54,0 0.744,0.39 0.744,1.008c0,0.642 -0.288,1.063 -0.87,1.063c-0.402,0 -0.714,-0.126 -0.906,-0.451l-0.408,0.21c0.282,0.444 0.738,0.63 1.296,0.63c0.834,0 1.349,-0.539 1.349,-1.452c0,-0.924 -0.419,-1.403 -1.205,-1.403Z" style="fill:#808080;fill-rule:nonzero;"/><path d="M15.496,49.041l-0.738,0l0,-2.85l-0.899,0l-0.996,2.85l0,0.389l1.47,0l0,0.96l0.425,0l0,-0.96l0.738,0l0,-0.389Zm-2.189,0l0.858,-2.467l0.168,0l0,2.467l-1.026,0Z" style="fill:#808080;fill-rule:nonzero;"/></g><g><rect x="22.521" y="23.133" width="5.52" height="0.67" style="fill-rule:nonzero;"/><path d="M24.321,33.705c0,-0.408 -0.3,-0.66 -0.648,-0.66c-0.468,0 -0.804,0.372 -0.804,0.876c0,0.792 0.864,1.692 2.28,1.692c1.584,0 2.556,-0.732 2.556,-1.848c0,-0.9 -0.648,-1.452 -1.452,-1.716l0,-0.132c0.6,-0.228 1.248,-0.6 1.248,-1.536c0,-0.924 -0.852,-1.704 -2.112,-1.704c-1.272,0 -2.1,0.888 -2.1,1.632c0,0.528 0.372,0.828 0.72,0.828c0.432,0 0.66,-0.3 0.66,-0.624c0,-0.528 -0.384,-0.552 -0.384,-0.828c0,-0.204 0.264,-0.504 0.852,-0.504c0.612,0 1.152,0.396 1.152,1.212c0,0.768 -0.516,1.356 -1.764,1.38l0,0.432c1.368,0 1.884,0.684 1.884,1.488c0,0.876 -0.576,1.416 -1.344,1.416c-0.564,0 -0.996,-0.24 -0.996,-0.6c0,-0.312 0.252,-0.432 0.252,-0.804Z" style="fill-rule:nonzero;"/><path d="M24.199,45.591l0,2.243c-0.204,-0.306 -0.546,-0.509 -0.985,-0.509c-0.696,0 -1.115,0.461 -1.115,1.559c0,1.099 0.479,1.572 1.175,1.572c0.427,0 0.733,-0.204 0.925,-0.503l0,0.012l0.06,0.425l0.371,0l0,-4.799l-0.431,0Zm-0.835,4.476c-0.546,0 -0.84,-0.337 -0.84,-1.183c0,-0.852 0.234,-1.17 0.78,-1.17c0.493,0 0.799,0.438 0.895,0.726l0,0.864c-0.066,0.336 -0.36,0.763 -0.835,0.763Z" style="fill:#808080;fill-rule:nonzero;"/><path d="M27.739,48.242c0.455,-0.197 0.635,-0.564 0.635,-0.972c0,-0.756 -0.521,-1.115 -1.253,-1.115c-0.606,0 -1.062,0.275 -1.26,0.671l0.414,0.21c0.12,-0.282 0.456,-0.492 0.846,-0.492c0.462,0 0.786,0.192 0.786,0.726c0,0.432 -0.174,0.805 -0.858,0.805l-0.138,0l0,0.383l0.138,0c0.702,0 0.948,0.318 0.948,0.762c0,0.546 -0.336,0.847 -0.846,0.847c-0.468,0 -0.822,-0.211 -0.954,-0.493l-0.414,0.216c0.234,0.42 0.738,0.666 1.368,0.666c0.81,0 1.313,-0.455 1.313,-1.236c0,-0.474 -0.246,-0.828 -0.725,-0.978Z" style="fill:#808080;fill-rule:nonzero;"/></g><g><path d="M36.394,11.253l-0.48,0l-0.144,2.568l0.456,0c0.168,-1.44 0.672,-1.536 1.032,-1.536c0.504,0 1.704,0.384 2.232,0.456c-1.08,1.848 -2.496,3.216 -2.496,4.536c0,0.504 0.36,0.792 0.72,0.792c0.36,0 0.72,-0.264 0.768,-0.912c0.168,-2.16 1.512,-3.672 1.992,-5.904l-0.528,0c-0.096,0.312 -0.336,0.552 -0.672,0.552c-0.576,0 -0.696,-0.648 -1.536,-0.648c-0.696,0 -0.96,0.528 -1.176,0.528c-0.168,0 -0.168,-0.144 -0.168,-0.432Z" style="fill-rule:nonzero;"/><path d="M42.514,8.925l-0.528,0l0,9.624l0.24,0c1.296,-1.56 3.312,-1.536 3.312,-3.504c0,-1.008 -0.792,-1.464 -1.56,-1.464c-0.72,0 -1.128,0.408 -1.464,0.744l0,-5.4Zm0,8.76l0.024,-2.832c0,0 0.396,-0.456 0.936,-0.456c0.42,0 0.804,0.264 0.804,0.96c0,1.08 -0.876,1.488 -1.764,2.328Z" style="fill-rule:nonzero;"/><rect x="35.362" y="23.133" width="5.52" height="0.67" style="fill-rule:nonzero;"/><rect x="35.362" y="31.893" width="5.52" height="0.67" style="fill-rule:nonzero;"/><path d="M33.877,46.191l0,0.383l2.039,0l-1.715,3.816l0.48,0l1.679,-3.816l0,-0.383l-2.483,0Z" style="fill:#808080;fill-rule:nonzero;"/><path d="M38.893,47.325c-0.439,0 -0.781,0.203 -0.985,0.509l0,-2.243l-0.431,0l0,4.799l0.371,0l0.06,-0.425l0,-0.012c0.192,0.299 0.498,0.503 0.925,0.503c0.696,0 1.175,-0.473 1.175,-1.572c0,-1.098 -0.419,-1.559 -1.115,-1.559Zm-0.15,2.742c-0.475,0 -0.769,-0.427 -0.835,-0.763l0,-0.864c0.096,-0.288 0.402,-0.726 0.895,-0.726c0.546,0 0.78,0.318 0.78,1.17c0,0.846 -0.294,1.183 -0.84,1.183Z" style="fill:#808080;fill-rule:nonzero;"/><path d="M42.967,45.591l0,2.243c-0.204,-0.306 -0.546,-0.509 -0.985,-0.509c-0.696,0 -1.115,0.461 -1.115,1.559c0,1.099 0.479,1.572 1.175,1.572c0.427,0 0.733,-0.204 0.925,-0.503l0,0.012l0.06,0.425l0.371,0l0,-4.799l-0.431,0Zm-0.834,4.476c-0.547,0 -0.841,-0.337 -0.841,-1.183c0,-0.852 0.234,-1.17 0.781,-1.17c0.492,0 0.798,0.438 0.894,0.726l0,0.864c-0.066,0.336 -0.36,0.763 -0.834,0.763Z" style="fill:#808080;fill-rule:nonzero;"/><path d="M46.567,45.591l0,2.243c-0.204,-0.306 -0.546,-0.509 -0.985,-0.509c-0.696,0 -1.115,0.461 -1.115,1.559c0,1.099 0.479,1.572 1.175,1.572c0.427,0 0.733,-0.204 0.925,-0.503l0,0.012l0.06,0.425l0.371,0l0,-4.799l-0.431,0Zm-0.834,4.476c-0.547,0 -0.841,-0.337 -0.841,-1.183c0,-0.852 0.234,-1.17 0.781,-1.17c0.492,0 0.798,0.438 0.894,0.726l0,0.864c-0.066,0.336 -0.36,0.763 -0.834,0.763Z" style="fill:#808080;fill-rule:nonzero;"/></g></g><path d="M72.545,48.158c0.264,-0.185 0.431,-0.48 0.431,-0.894c0,-0.732 -0.527,-1.115 -1.181,-1.115c-0.661,0 -1.188,0.383 -1.188,1.115c0,0.414 0.168,0.709 0.431,0.894c-0.359,0.186 -0.611,0.528 -0.611,1.038c0,0.859 0.575,1.26 1.368,1.26c0.786,0 1.361,-0.401 1.361,-1.26c0,-0.51 -0.257,-0.852 -0.611,-1.038Zm-1.477,-0.894c0,-0.468 0.265,-0.726 0.727,-0.726c0.456,0 0.72,0.258 0.72,0.726c0,0.438 -0.198,0.721 -0.72,0.721c-0.516,0 -0.727,-0.283 -0.727,-0.721Zm0.727,2.803c-0.552,0 -0.907,-0.301 -0.907,-0.871c0,-0.552 0.385,-0.822 0.907,-0.822c0.516,0 0.9,0.27 0.9,0.822c0,0.57 -0.354,0.871 -0.9,0.871Z" style="fill:#a6a6a6;fill-rule:nonzero;"/><rect x="73.871" y="50.793" width="3.011" height="0.383" style="fill:#a6a6a6;fill-rule:nonzero;"/><rect x="77.471" y="50.793" width="3.011" height="0.383" style="fill:#a6a6a6;fill-rule:nonzero;"/><rect x="81.071" y="50.793" width="3.011" height="0.383" style="fill:#a6a6a6;fill-rule:nonzero;"/><rect x="84.671" y="50.793" width="3.011" height="0.383" style="fill:#a6a6a6;fill-rule:nonzero;"/><rect x="88.271" y="50.793" width="3.011" height="0.383" style="fill:#a6a6a6;fill-rule:nonzero;"/><path d="M94.073,45.591l0,2.243c-0.204,-0.306 -0.546,-0.509 -0.984,-0.509c-0.697,0 -1.116,0.461 -1.116,1.559c0,1.099 0.479,1.572 1.176,1.572c0.426,0 0.732,-0.204 0.924,-0.503l0,0.012l0.06,0.425l0.371,0l0,-4.799l-0.431,0Zm-0.834,4.476c-0.546,0 -0.841,-0.337 -0.841,-1.183c0,-0.852 0.235,-1.17 0.781,-1.17c0.492,0 0.798,0.438 0.894,0.726l0,0.864c-0.066,0.336 -0.36,0.763 -0.834,0.763Z" style="fill:#a6a6a6;fill-rule:nonzero;"/><rect x="95.471" y="50.793" width="3.011" height="0.383" style="fill:#a6a6a6;fill-rule:nonzero;"/><rect x="99.071" y="50.793" width="3.011" height="0.383" style="fill:#a6a6a6;fill-rule:nonzero;"/><path d="M104.873,45.591l0,2.243c-0.204,-0.306 -0.546,-0.509 -0.984,-0.509c-0.697,0 -1.116,0.461 -1.116,1.559c0,1.099 0.479,1.572 1.176,1.572c0.426,0 0.732,-0.204 0.924,-0.503l0,0.012l0.06,0.425l0.371,0l0,-4.799l-0.431,0Zm-0.834,4.476c-0.546,0 -0.841,-0.337 -0.841,-1.183c0,-0.852 0.235,-1.17 0.781,-1.17c0.492,0 0.798,0.438 0.894,0.726l0,0.864c-0.066,0.336 -0.36,0.763 -0.834,0.763Z" style="fill:#a6a6a6;fill-rule:nonzero;"/><rect x="106.271" y="50.793" width="3.011" height="0.383" style="fill:#a6a6a6;fill-rule:nonzero;"/><rect x="109.871" y="50.793" width="3.011" height="0.383" style="fill:#a6a6a6;fill-rule:nonzero;"/><rect x="113.471" y="50.793" width="3.011" height="0.383" style="fill:#a6a6a6;fill-rule:nonzero;"/><rect x="117.071" y="50.793" width="3.011" height="0.383" style="fill:#a6a6a6;fill-rule:nonzero;"/><rect x="120.671" y="50.793" width="3.011" height="0.383" style="fill:#a6a6a6;fill-rule:nonzero;"/><path d="M124.583,46.191l0,0.383l2.04,0l-1.716,3.816l0.48,0l1.679,-3.816l0,-0.383l-2.483,0Z" style="fill:#a6a6a6;fill-rule:nonzero;"/><path d="M129.599,47.325c-0.438,0 -0.78,0.203 -0.985,0.509l0,-2.243l-0.431,0l0,4.799l0.372,0l0.059,-0.425l0,-0.012c0.193,0.299 0.499,0.503 0.925,0.503c0.696,0 1.175,-0.473 1.175,-1.572c0,-1.098 -0.419,-1.559 -1.115,-1.559Zm-0.15,2.742c-0.474,0 -0.769,-0.427 -0.835,-0.763l0,-0.864c0.096,-0.288 0.403,-0.726 0.895,-0.726c0.546,0 0.78,0.318 0.78,1.17c0,0.846 -0.294,1.183 -0.84,1.183Z" style="fill:#a6a6a6;fill-rule:nonzero;"/><path d="M134.32,49.041l-0.738,0l0,-2.85l-0.899,0l-0.996,2.85l0,0.389l1.47,0l0,0.96l0.425,0l0,-0.96l0.738,0l0,-0.389Zm-2.189,0l0.858,-2.467l0.168,0l0,2.467l-1.026,0Z" style="fill:#a6a6a6;fill-rule:nonzero;"/><rect x="135.071" y="50.793" width="3.011" height="0.383" style="fill:#a6a6a6;fill-rule:nonzero;"/><rect x="138.671" y="50.793" width="3.011" height="0.383" style="fill:#a6a6a6;fill-rule:nonzero;"/><rect x="142.271" y="50.793" width="3.011" height="0.383" style="fill:#a6a6a6;fill-rule:nonzero;"/><rect x="145.871" y="50.793" width="3.011" height="0.383" style="fill:#a6a6a6;fill-rule:nonzero;"/><rect x="149.471" y="50.793" width="3.011" height="0.383" style="fill:#a6a6a6;fill-rule:nonzero;"/><path d="M154.75,50.036c0,-0.222 -0.185,-0.408 -0.413,-0.408c-0.234,0 -0.414,0.186 -0.414,0.408c0,0.192 0.12,0.354 0.288,0.408l-0.174,0.552l0.306,0.138l0.377,-0.93c0.018,-0.054 0.03,-0.108 0.03,-0.168Z" style="fill:#a6a6a6;fill-rule:nonzero;"/><path d="M158.873,45.591l0,2.243c-0.204,-0.306 -0.546,-0.509 -0.984,-0.509c-0.697,0 -1.116,0.461 -1.116,1.559c0,1.099 0.479,1.572 1.176,1.572c0.426,0 0.732,-0.204 0.924,-0.503l0,0.012l0.06,0.425l0.371,0l0,-4.799l-0.431,0Zm-0.834,4.476c-0.546,0 -0.841,-0.337 -0.841,-1.183c0,-0.852 0.235,-1.17 0.781,-1.17c0.492,0 0.798,0.438 0.894,0.726l0,0.864c-0.066,0.336 -0.36,0.763 -0.834,0.763Z" style="fill:#a6a6a6;fill-rule:nonzero;"/><rect x="160.271" y="50.793" width="3.011" height="0.383" style="fill:#a6a6a6;fill-rule:nonzero;"/><rect x="163.871" y="50.793" width="3.011" height="0.383" style="fill:#a6a6a6;fill-rule:nonzero;"/><path d="M169.15,50.036c0,-0.222 -0.185,-0.408 -0.413,-0.408c-0.234,0 -0.414,0.186 -0.414,0.408c0,0.192 0.12,0.354 0.288,0.408l-0.174,0.552l0.306,0.138l0.377,-0.93c0.018,-0.054 0.03,-0.108 0.03,-0.168Z" style="fill:#a6a6a6;fill-rule:nonzero;"/><path d="M173.273,45.591l0,2.243c-0.204,-0.306 -0.546,-0.509 -0.984,-0.509c-0.697,0 -1.116,0.461 -1.116,1.559c0,1.099 0.479,1.572 1.176,1.572c0.426,0 0.732,-0.204 0.924,-0.503l0,0.012l0.06,0.425l0.371,0l0,-4.799l-0.431,0Zm-0.834,4.476c-0.546,0 -0.841,-0.337 -0.841,-1.183c0,-0.852 0.235,-1.17 0.781,-1.17c0.492,0 0.798,0.438 0.894,0.726l0,0.864c-0.066,0.336 -0.36,0.763 -0.834,0.763Z" style="fill:#a6a6a6;fill-rule:nonzero;"/><rect x="174.671" y="50.793" width="3.011" height="0.383" style="fill:#a6a6a6;fill-rule:nonzero;"/><rect x="178.271" y="50.793" width="3.011" height="0.383" style="fill:#a6a6a6;fill-rule:nonzero;"/><rect x="181.871" y="50.793" width="3.011" height="0.383" style="fill:#a6a6a6;fill-rule:nonzero;"/><rect x="185.471" y="50.793" width="3.011" height="0.383" style="fill:#a6a6a6;fill-rule:nonzero;"/><rect x="189.071" y="50.793" width="3.011" height="0.383" style="fill:#a6a6a6;fill-rule:nonzero;"/><path d="M194.35,50.036c0,-0.222 -0.185,-0.408 -0.413,-0.408c-0.234,0 -0.414,0.186 -0.414,0.408c0,0.192 0.12,0.354 0.288,0.408l-0.174,0.552l0.306,0.138l0.377,-0.93c0.018,-0.054 0.03,-0.108 0.03,-0.168Z" style="fill:#a6a6a6;fill-rule:nonzero;"/><path d="M198.413,48.242c0.456,-0.197 0.635,-0.564 0.635,-0.972c0,-0.756 -0.521,-1.115 -1.253,-1.115c-0.606,0 -1.062,0.275 -1.26,0.671l0.414,0.21c0.12,-0.282 0.456,-0.492 0.846,-0.492c0.462,0 0.786,0.192 0.786,0.726c0,0.432 -0.174,0.805 -0.858,0.805l-0.138,0l0,0.383l0.138,0c0.702,0 0.948,0.318 0.948,0.762c0,0.546 -0.336,0.847 -0.846,0.847c-0.468,0 -0.822,-0.211 -0.954,-0.493l-0.414,0.216c0.234,0.42 0.738,0.666 1.368,0.666c0.81,0 1.313,-0.455 1.313,-1.236c0,-0.474 -0.245,-0.828 -0.725,-0.978Z" style="fill:#a6a6a6;fill-rule:nonzero;"/><rect x="70.427" y="56.208" width="2.04" height="0.327" style="fill:#a6a6a6;fill-rule:nonzero;"/><path d="M73.067,54.228l0,0.327l1.548,0l0,-0.327l-1.548,0Zm0,0.736l0,0.327l1.548,0l0,-0.327l-1.548,0Z" style="fill:#a6a6a6;fill-rule:nonzero;"/><path d="M76.255,56.019c0.4,0 0.88,-0.172 0.888,-0.603c0.008,-0.485 -0.664,-0.593 -0.84,-0.645c-0.132,-0.04 -0.44,-0.112 -0.44,-0.276c0,-0.18 0.264,-0.236 0.428,-0.236c0.152,0 0.38,0.068 0.472,0.22l0.304,-0.196c-0.172,-0.263 -0.528,-0.355 -0.776,-0.355c-0.34,0 -0.832,0.155 -0.82,0.555c0.012,0.436 0.576,0.58 0.78,0.632c0.136,0.037 0.5,0.101 0.5,0.313c0,0.192 -0.248,0.26 -0.488,0.26c-0.204,0 -0.496,-0.084 -0.58,-0.228l-0.312,0.208c0.176,0.259 0.584,0.351 0.884,0.351Z" style="fill:#a6a6a6;fill-rule:nonzero;"/><path d="M78.803,53.928c-0.276,0 -0.496,0.139 -0.636,0.335l0,-0.004l-0.08,-0.283l-0.292,0l0,2.799l0.372,0l0,-1.027c0.124,0.163 0.32,0.271 0.596,0.271c0.504,0 0.82,-0.307 0.82,-1.039c0,-0.733 -0.276,-1.052 -0.78,-1.052Zm-0.12,1.76c-0.3,0 -0.476,-0.208 -0.516,-0.376l0,-0.625c0.044,-0.176 0.256,-0.428 0.556,-0.428c0.368,0 0.488,0.204 0.488,0.72c0,0.517 -0.16,0.709 -0.528,0.709Z" style="fill:#a6a6a6;fill-rule:nonzero;"/><path d="M82.107,55.808l-0.232,-0.232l0,-1.085c0,-0.364 -0.3,-0.563 -0.804,-0.563c-0.38,0 -0.664,0.12 -0.8,0.255l0.248,0.244c0.1,-0.112 0.264,-0.168 0.524,-0.168c0.312,0 0.46,0.076 0.46,0.313l0,0.14l-0.472,0c-0.608,0 -0.892,0.207 -0.892,0.651c0,0.449 0.256,0.656 0.812,0.656c0.324,0 0.536,-0.12 0.652,-0.219l0.252,0.247l0.252,-0.239Zm-1.596,-0.445c0,-0.268 0.112,-0.324 0.656,-0.324l0.336,0l0,0.465c-0.096,0.1 -0.296,0.188 -0.484,0.188c-0.368,0 -0.508,-0.088 -0.508,-0.329Z" style="fill:#a6a6a6;fill-rule:nonzero;"/><path d="M84.355,55.564l-0.344,-0.18c-0.116,0.216 -0.264,0.304 -0.428,0.304c-0.292,0 -0.536,-0.208 -0.536,-0.717c0,-0.516 0.244,-0.712 0.536,-0.712c0.164,0 0.312,0.092 0.42,0.332l0.344,-0.18c-0.192,-0.359 -0.468,-0.483 -0.752,-0.483c-0.508,0 -0.94,0.271 -0.94,1.043c0,0.765 0.432,1.048 0.94,1.048c0.288,0 0.568,-0.128 0.76,-0.455Z" style="fill:#a6a6a6;fill-rule:nonzero;"/><path d="M85.967,53.928c-0.468,0 -0.944,0.263 -0.944,1.043c0,0.773 0.476,1.048 0.932,1.048c0.3,0 0.62,-0.12 0.812,-0.427l-0.328,-0.181c-0.12,0.197 -0.304,0.277 -0.496,0.277c-0.272,0 -0.496,-0.14 -0.524,-0.609l1.404,0c0.04,-0.68 -0.252,-1.151 -0.856,-1.151Zm-0.536,0.824c0.056,-0.389 0.268,-0.493 0.52,-0.493c0.296,0 0.432,0.164 0.468,0.493l-0.988,0Z" style="fill:#a6a6a6;fill-rule:nonzero;"/><path d="M69.775,21.717c0,0.804 0.42,1.26 0.96,1.596c-0.756,0.336 -1.308,0.9 -1.308,1.74c0,1.008 1.02,1.8 2.46,1.8c1.296,0 2.316,-0.804 2.316,-2.004c0,-0.9 -0.612,-1.38 -1.296,-1.74c0.6,-0.348 1.008,-0.9 1.008,-1.488c0,-0.936 -0.816,-1.704 -2.016,-1.704c-1.26,0 -2.124,0.816 -2.124,1.8Zm1.536,1.908c0.768,0.36 2.004,0.78 2.004,1.62c0,0.48 -0.588,1.008 -1.428,1.008c-1.08,0 -1.74,-0.6 -1.74,-1.248c0,-0.696 0.516,-1.14 1.164,-1.38Zm0.996,-0.792c-0.792,-0.36 -1.644,-0.732 -1.644,-1.416c0,-0.528 0.504,-0.924 1.236,-0.924c0.768,0 1.272,0.432 1.272,1.08c0,0.504 -0.312,0.996 -0.864,1.26Z" style="fill-rule:nonzero;"/><rect x="76.555" y="23.133" width="5.52" height="0.67" style="fill-rule:nonzero;"/><rect x="79.555" y="23.133" width="5.52" height="0.67" style="fill-rule:nonzero;"/><path d="M88.087,20.013l-0.48,0l-0.144,2.568l0.456,0c0.168,-1.44 0.672,-1.536 1.032,-1.536c0.504,0 1.704,0.384 2.232,0.456c-1.08,1.848 -2.496,3.216 -2.496,4.536c0,0.504 0.36,0.792 0.72,0.792c0.36,0 0.72,-0.264 0.768,-0.912c0.168,-2.16 1.512,-3.672 1.992,-5.904l-0.528,0c-0.096,0.312 -0.336,0.552 -0.672,0.552c-0.576,0 -0.696,-0.648 -1.536,-0.648c-0.696,0 -0.96,0.528 -1.176,0.528c-0.168,0 -0.168,-0.144 -0.168,-0.432Z" style="fill-rule:nonzero;"/><path d="M94.207,17.685l-0.528,0l0,9.624l0.24,0c1.296,-1.56 3.312,-1.536 3.312,-3.504c0,-1.008 -0.792,-1.464 -1.56,-1.464c-0.72,0 -1.128,0.408 -1.464,0.744l0,-5.4Zm0,8.76l0.024,-2.832c0,0 0.396,-0.456 0.936,-0.456c0.42,0 0.804,0.264 0.804,0.96c0,1.08 -0.876,1.488 -1.764,2.328Z" style="fill-rule:nonzero;"/><path d="M91.351,33.525l1.104,0l0,-0.552l-1.104,0l0,-2.52l-1.104,1.176l0,1.344l-2.424,0c1.224,-1.824 1.848,-2.64 2.616,-4.2l-1.596,0c-0.408,1.584 -0.9,2.88 -1.74,4.272l0,0.48l3.144,0l0,0.84c0,0.504 -0.444,0.672 -0.78,0.672l-0.24,0l0,0.48l3.024,0l0,-0.48c-0.468,0 -0.9,-0.144 -0.9,-0.672l0,-0.84Z" style="fill-rule:nonzero;"/><rect x="94.555" y="31.893" width="5.52" height="0.67" style="fill-rule:nonzero;"/><rect x="97.555" y="31.893" width="5.52" height="0.67" style="fill-rule:nonzero;"/><path d="M106.855,33.705c0,-0.408 -0.3,-0.66 -0.648,-0.66c-0.468,0 -0.804,0.372 -0.804,0.876c0,0.792 0.864,1.692 2.28,1.692c1.584,0 2.556,-0.732 2.556,-1.848c0,-0.9 -0.648,-1.452 -1.452,-1.716l0,-0.132c0.6,-0.228 1.248,-0.6 1.248,-1.536c0,-0.924 -0.852,-1.704 -2.112,-1.704c-1.272,0 -2.1,0.888 -2.1,1.632c0,0.528 0.372,0.828 0.72,0.828c0.432,0 0.66,-0.3 0.66,-0.624c0,-0.528 -0.384,-0.552 -0.384,-0.828c0,-0.204 0.264,-0.504 0.852,-0.504c0.612,0 1.152,0.396 1.152,1.212c0,0.768 -0.516,1.356 -1.764,1.38l0,0.432c1.368,0 1.884,0.684 1.884,1.488c0,0.876 -0.576,1.416 -1.344,1.416c-0.564,0 -0.996,-0.24 -0.996,-0.6c0,-0.312 0.252,-0.432 0.252,-0.804Z" style="fill-rule:nonzero;"/></svg>