<?xml version="1.0" encoding="UTF-8" standalone="no"?><!DOCTYPE svg PUBLIC "-//W3C//DTD SVG 1.1//EN" "http://www.w3.org/Graphics/SVG/1.1/DTD/svg11.dtd"><svg width="100%" height="100%" viewBox="0 0 170 61" version="1.1" xmlns="http://www.w3.org/2000/svg" xmlns:xlink="http://www.w3.org/1999/xlink" xml:space="preserve" xmlns:serif="http://www.serif.com/" style="fill-rule:evenodd;clip-rule:evenodd;stroke-linejoin:round;stroke-miterlimit:1.41421;"><rect id="_8_parentheses" serif:id="8_parentheses" x="0" y="0.119" width="170" height="60" style="fill:#fff;"/><g><path d="M9.618,32.036c0,-1.632 0.72,-3.024 1.464,-3.792l-0.264,-0.288c-1.152,0.936 -1.872,2.52 -1.872,4.08c0,1.56 0.72,3.144 1.872,4.08l0.264,-0.288c-0.84,-0.864 -1.464,-2.16 -1.464,-3.792Z" style="fill:#4e4e4e;fill-rule:nonzero;"/><path d="M15.87,30.416c0.432,0 0.684,-0.336 0.684,-0.756c0,-0.624 -0.684,-1.344 -1.872,-1.344c-1.344,0 -2.676,1.296 -2.676,3.624c0,1.692 0.72,3.312 2.532,3.312c1.284,0 2.304,-0.888 2.304,-2.148c0,-1.044 -0.852,-1.968 -2.184,-1.968c-0.648,0 -1.164,0.288 -1.5,0.672c0.036,-1.416 0.264,-2.976 1.548,-2.976c0.336,0 0.564,0.144 0.564,0.348c0,0.192 -0.084,0.36 -0.084,0.552c0,0.396 0.252,0.684 0.684,0.684Zm-0.252,2.652c0,0.936 -0.432,1.656 -1.248,1.656c-0.732,0 -1.128,-0.54 -1.128,-1.44c0,-0.936 0.504,-1.608 1.272,-1.608c0.756,0 1.104,0.564 1.104,1.392Z" style="fill:#4e4e4e;fill-rule:nonzero;"/><path d="M19.266,32.036c0,1.632 -0.72,3.024 -1.464,3.792l0.264,0.288c1.152,-0.936 1.872,-2.52 1.872,-4.08c0,-1.56 -0.72,-3.144 -1.872,-4.08l-0.264,0.288c0.84,0.864 1.464,2.16 1.464,3.792Z" style="fill:#4e4e4e;fill-rule:nonzero;"/><path d="M11.523,51.344l0.348,-0.174c-0.06,-0.084 -0.93,-1.278 -0.93,-2.904c0,-1.632 0.882,-2.826 0.93,-2.892l-0.348,-0.18c-0.114,0.162 -1.007,1.278 -1.007,3.072c0,1.794 0.887,2.916 1.007,3.078Z" style="fill:#a6a6a6;fill-rule:nonzero;"/><path d="M14.619,47.24c-0.39,0 -0.726,0.132 -0.972,0.414c0.114,-1.002 0.654,-1.44 1.141,-1.464c0.204,-0.012 0.414,0.018 0.552,0.09l0.191,-0.366c-0.179,-0.09 -0.455,-0.138 -0.749,-0.12c-0.817,0.048 -1.62,0.696 -1.62,2.268c0,1.494 0.509,2.034 1.367,2.034c0.823,0 1.29,-0.546 1.29,-1.452c0,-0.918 -0.401,-1.404 -1.2,-1.404Zm-0.09,2.466c-0.576,0 -0.876,-0.402 -0.906,-1.488c0.186,-0.426 0.594,-0.588 0.996,-0.588c0.529,0 0.739,0.372 0.739,1.014c0,0.63 -0.276,1.062 -0.829,1.062Z" style="fill:#a6a6a6;fill-rule:nonzero;"/><path d="M17.362,51.344c0.12,-0.162 1.007,-1.284 1.007,-3.078c0,-1.794 -0.893,-2.91 -1.007,-3.072l-0.348,0.18c0.048,0.066 0.93,1.26 0.93,2.892c0,1.626 -0.87,2.82 -0.93,2.904l0.348,0.174Z" style="fill:#a6a6a6;fill-rule:nonzero;"/></g><g><path d="M35.702,21.771c0.432,0 0.684,-0.336 0.684,-0.756c0,-0.624 -0.684,-1.344 -1.872,-1.344c-1.344,0 -2.676,1.296 -2.676,3.624c0,1.692 0.72,3.312 2.532,3.312c1.284,0 2.304,-0.888 2.304,-2.148c0,-1.044 -0.852,-1.968 -2.184,-1.968c-0.648,0 -1.164,0.288 -1.5,0.672c0.036,-1.416 0.264,-2.976 1.548,-2.976c0.336,0 0.564,0.144 0.564,0.348c0,0.192 -0.084,0.36 -0.084,0.552c0,0.396 0.252,0.684 0.684,0.684Zm-0.252,2.652c0,0.936 -0.432,1.656 -1.248,1.656c-0.732,0 -1.128,-0.54 -1.128,-1.44c0,-0.936 0.504,-1.608 1.272,-1.608c0.756,0 1.104,0.564 1.104,1.392Z" style="fill:#4e4e4e;fill-rule:nonzero;"/><path d="M35.81,33.279l1.104,0l0,-0.552l-1.104,0l0,-2.52l-1.104,1.176l0,1.344l-2.424,0c1.224,-1.824 1.848,-2.64 2.616,-4.2l-1.596,0c-0.408,1.584 -0.9,2.88 -1.74,4.272l0,0.48l3.144,0l0,0.84c0,0.504 -0.444,0.672 -0.78,0.672l-0.24,0l0,0.48l3.024,0l0,-0.48c-0.468,0 -0.9,-0.144 -0.9,-0.672l0,-0.84Z" style="fill:#4e4e4e;fill-rule:nonzero;"/><path d="M46.779,29.054l0,6.146l-1.104,0l0,0.574l1.678,0l0,-7.294l-1.678,0l0,0.574l1.104,0Zm-8.09,6.146l0,-6.146l1.104,0l0,-0.574l-1.678,0l0,7.294l1.678,0l0,-0.574l-1.104,0Zm2.82,-7.92l0,2.663l-0.744,0.216l0,1.38l0.744,-0.24l0,2.353l-0.744,0.264l0,1.332l0.744,-0.24l0,2.302l0.48,0l0,-2.47l1.488,-0.456l0,2.374l0.48,0l0,-2.566l0.744,-0.264l0,-1.357l-0.744,0.24l0,-2.352l0.744,-0.264l0,-1.356l-0.744,0.239l0,-2.302l-0.48,0l0,2.519l-1.488,0.432l0,-2.447l-0.48,0Zm1.968,3.347l0,2.4l-1.488,0.457l0,-2.401l1.488,-0.456Z" style="fill:#4e4e4e;fill-rule:nonzero;"/><path d="M32.918,47.355c-0.391,0 -0.727,0.132 -0.973,0.413c0.114,-1.001 0.654,-1.439 1.141,-1.464c0.204,-0.011 0.414,0.018 0.552,0.091l0.192,-0.367c-0.18,-0.089 -0.456,-0.137 -0.75,-0.119c-0.817,0.048 -1.62,0.696 -1.62,2.268c0,1.494 0.509,2.033 1.367,2.033c0.823,0 1.29,-0.545 1.29,-1.451c0,-0.918 -0.401,-1.404 -1.199,-1.404Zm-0.091,2.466c-0.576,0 -0.876,-0.402 -0.906,-1.488c0.186,-0.426 0.594,-0.589 0.997,-0.589c0.528,0 0.738,0.373 0.738,1.015c0,0.63 -0.276,1.062 -0.829,1.062Z" style="fill:#a6a6a6;fill-rule:nonzero;"/><path d="M37.741,48.795l-0.738,0l0,-2.85l-0.899,0l-0.996,2.85l0,0.389l1.47,0l0,0.96l0.425,0l0,-0.96l0.738,0l0,-0.389Zm-2.189,0l0.858,-2.467l0.168,0l0,2.467l-1.026,0Z" style="fill:#a6a6a6;fill-rule:nonzero;"/><path d="M41.077,45.728l0,-0.383l-1.343,0l0,5.999l1.343,0l0,-0.383l-0.918,0l0,-5.233l0.918,0Z" style="fill:#a6a6a6;fill-rule:nonzero;"/><path d="M43.609,50.21c0.601,0 1.278,-0.269 1.29,-0.905c0.012,-0.684 -0.959,-0.852 -1.23,-0.924c-0.198,-0.06 -0.738,-0.162 -0.738,-0.486c0,-0.336 0.474,-0.433 0.732,-0.433c0.253,0 0.601,0.097 0.751,0.337l0.365,-0.24c-0.209,-0.33 -0.695,-0.486 -1.116,-0.486c-0.51,0 -1.205,0.234 -1.193,0.81c0.012,0.636 0.833,0.822 1.133,0.9c0.217,0.06 0.835,0.174 0.835,0.534c0,0.372 -0.432,0.504 -0.817,0.504c-0.348,0 -0.768,-0.126 -0.912,-0.336l-0.377,0.252c0.252,0.33 0.803,0.473 1.277,0.473Z" style="fill:#a6a6a6;fill-rule:nonzero;"/><path d="M47.455,45.345l-1.343,0l0,0.383l0.918,0l0,5.233l-0.918,0l0,0.383l1.343,0l0,-5.999Z" style="fill:#a6a6a6;fill-rule:nonzero;"/></g><g><path d="M59.752,35.8l0,-25.106l1.944,0l0,-0.574l-2.518,0l0,26.254l2.518,0l0,-0.574l-1.944,0Z" style="fill:#4e4e4e;fill-rule:nonzero;"/><path d="M63.185,9.027l0,8.664l2.304,-0.504l-0.048,3.192l0.528,0l0,-8.64l-2.304,0.552l0,-3.264l-0.48,0Zm0.48,4.68l1.824,-0.408l0,2.4l-1.824,0.432l0,-2.424Z" style="fill:#4e4e4e;fill-rule:nonzero;"/><path d="M68.249,11.007l-0.48,0l-0.144,2.568l0.456,0c0.168,-1.44 0.672,-1.536 1.032,-1.536c0.504,0 1.704,0.384 2.232,0.456c-1.08,1.848 -2.496,3.216 -2.496,4.536c0,0.504 0.36,0.792 0.72,0.792c0.36,0 0.72,-0.264 0.768,-0.912c0.168,-2.16 1.512,-3.672 1.992,-5.904l-0.528,0c-0.096,0.312 -0.336,0.552 -0.672,0.552c-0.576,0 -0.696,-0.648 -1.536,-0.648c-0.696,0 -0.96,0.528 -1.176,0.528c-0.168,0 -0.168,-0.144 -0.168,-0.432Z" style="fill:#4e4e4e;fill-rule:nonzero;"/><path d="M70.013,22.215c-0.528,0 -0.912,0.144 -1.236,0.3l-0.072,-0.036l0.024,-1.512c0.432,0.048 0.768,0.096 1.152,0.096c1.104,0 1.656,-0.456 2.064,-1.128l-0.12,-0.168c-0.672,0.096 -1.224,0.12 -1.776,0.12c-0.576,0 -1.128,-0.048 -1.824,-0.12l-0.048,3.312l0.312,0.168c0.336,-0.312 0.756,-0.48 1.248,-0.48c0.708,0 1.392,0.432 1.392,1.512c0,1.104 -0.564,1.824 -1.428,1.824c-0.588,0 -0.912,-0.252 -0.912,-0.576c0,-0.312 0.252,-0.432 0.252,-0.804c0,-0.408 -0.3,-0.66 -0.648,-0.66c-0.468,0 -0.804,0.372 -0.804,0.876c0,0.768 0.876,1.668 2.292,1.668c1.416,0 2.52,-0.948 2.52,-2.304c0,-1.296 -1.164,-2.088 -2.388,-2.088Z" style="fill:#4e4e4e;fill-rule:nonzero;"/><path d="M69.017,33.459c0,-0.408 -0.3,-0.66 -0.648,-0.66c-0.468,0 -0.804,0.372 -0.804,0.876c0,0.792 0.864,1.692 2.28,1.692c1.584,0 2.556,-0.732 2.556,-1.848c0,-0.9 -0.648,-1.452 -1.452,-1.716l0,-0.132c0.6,-0.228 1.248,-0.6 1.248,-1.536c0,-0.924 -0.852,-1.704 -2.112,-1.704c-1.272,0 -2.1,0.888 -2.1,1.632c0,0.528 0.372,0.828 0.72,0.828c0.432,0 0.66,-0.3 0.66,-0.624c0,-0.528 -0.384,-0.552 -0.384,-0.828c0,-0.204 0.264,-0.504 0.852,-0.504c0.612,0 1.152,0.396 1.152,1.212c0,0.768 -0.516,1.356 -1.764,1.38l0,0.432c1.368,0 1.884,0.684 1.884,1.488c0,0.876 -0.576,1.416 -1.344,1.416c-0.564,0 -0.996,-0.24 -0.996,-0.6c0,-0.312 0.252,-0.432 0.252,-0.804Z" style="fill:#4e4e4e;fill-rule:nonzero;"/><path d="M75.521,10.695l0,25.104l-1.944,0l0,0.576l2.52,0l0,-26.256l-2.52,0l0,0.576l1.944,0Z" style="fill:#4e4e4e;fill-rule:nonzero;"/><path d="M59.72,45.728l0,-0.383l-1.343,0l0,5.999l1.343,0l0,-0.383l-0.918,0l0,-5.233l0.918,0Z" style="fill:#a6a6a6;fill-rule:nonzero;"/><path d="M62.558,47.079c-0.456,0 -0.828,0.21 -1.044,0.521c-0.024,-0.161 -0.06,-0.455 -0.06,-0.455l-0.353,0l0,2.999l0.431,0l0,-1.991c0.06,-0.259 0.438,-0.685 0.93,-0.685c0.51,0 0.637,0.264 0.637,1.02l0,1.656l0.431,0l0,-1.8c0,-0.893 -0.3,-1.265 -0.972,-1.265Z" style="fill:#a6a6a6;fill-rule:nonzero;"/><path d="M64.647,45.945l0,0.383l2.039,0l-1.716,3.816l0.48,0l1.68,-3.816l0,-0.383l-2.483,0Z" style="fill:#a6a6a6;fill-rule:nonzero;"/><path d="M69.495,47.355c-0.33,0 -0.624,0.114 -0.834,0.33l0.126,-1.357l1.727,0l0,-0.383l-2.099,0l-0.21,2.208l0.396,0.18c0.198,-0.414 0.558,-0.583 0.894,-0.583c0.54,0 0.744,0.391 0.744,1.009c0,0.642 -0.288,1.062 -0.87,1.062c-0.402,0 -0.714,-0.126 -0.906,-0.45l-0.408,0.21c0.282,0.444 0.738,0.629 1.296,0.629c0.834,0 1.349,-0.539 1.349,-1.451c0,-0.924 -0.42,-1.404 -1.205,-1.404Z" style="fill:#a6a6a6;fill-rule:nonzero;"/><path d="M73.677,47.997c0.455,-0.198 0.635,-0.564 0.635,-0.972c0,-0.756 -0.521,-1.116 -1.253,-1.116c-0.606,0 -1.062,0.276 -1.26,0.672l0.414,0.21c0.12,-0.282 0.456,-0.493 0.846,-0.493c0.462,0 0.786,0.193 0.786,0.727c0,0.432 -0.174,0.804 -0.858,0.804l-0.138,0l0,0.383l0.138,0c0.702,0 0.948,0.319 0.948,0.763c0,0.546 -0.336,0.846 -0.846,0.846c-0.468,0 -0.822,-0.21 -0.954,-0.492l-0.414,0.216c0.234,0.42 0.738,0.665 1.368,0.665c0.81,0 1.313,-0.455 1.313,-1.235c0,-0.474 -0.246,-0.828 -0.725,-0.978Z" style="fill:#a6a6a6;fill-rule:nonzero;"/><path d="M76.898,45.345l-1.343,0l0,0.383l0.918,0l0,5.233l-0.918,0l0,0.383l1.343,0l0,-5.999Z" style="fill:#a6a6a6;fill-rule:nonzero;"/></g><g><path d="M89.226,18.519l0,0.72c0,4.056 1.871,7.008 3.047,8.328l0.312,-0.288c-1.344,-1.68 -2.496,-4.344 -2.496,-8.04l0,-0.72c0,-3.696 1.152,-6.36 2.496,-8.04l-0.312,-0.288c-1.176,1.32 -3.047,4.272 -3.047,8.328Z" style="fill:#4e4e4e;fill-rule:nonzero;"/><path d="M97.254,13.011c0.432,0 0.684,-0.336 0.684,-0.756c0,-0.624 -0.684,-1.344 -1.872,-1.344c-1.344,0 -2.676,1.296 -2.676,3.624c0,1.692 0.72,3.312 2.532,3.312c1.284,0 2.304,-0.888 2.304,-2.148c0,-1.044 -0.852,-1.968 -2.184,-1.968c-0.648,0 -1.164,0.288 -1.5,0.672c0.036,-1.416 0.264,-2.976 1.548,-2.976c0.336,0 0.564,0.144 0.564,0.348c0,0.192 -0.084,0.36 -0.084,0.552c0,0.396 0.252,0.684 0.684,0.684Zm-0.252,2.652c0,0.936 -0.432,1.656 -1.248,1.656c-0.732,0 -1.128,-0.54 -1.128,-1.44c0,-0.936 0.504,-1.608 1.272,-1.608c0.756,0 1.104,0.564 1.104,1.392Z" style="fill:#4e4e4e;fill-rule:nonzero;"/><path d="M97.362,24.519l1.104,0l0,-0.552l-1.104,0l0,-2.52l-1.104,1.176l0,1.344l-2.424,0c1.224,-1.824 1.848,-2.64 2.616,-4.2l-1.596,0c-0.408,1.584 -0.9,2.88 -1.74,4.272l0,0.48l3.144,0l0,0.84c0,0.504 -0.444,0.672 -0.78,0.672l-0.24,0l0,0.48l3.024,0l0,-0.48c-0.468,0 -0.9,-0.144 -0.9,-0.672l0,-0.84Z" style="fill:#4e4e4e;fill-rule:nonzero;"/><path d="M102.426,19.239l0,-0.72c0,-4.056 -1.872,-7.008 -3.048,-8.328l-0.312,0.288c1.344,1.68 2.496,4.344 2.496,8.04l0,0.72c0,3.696 -1.152,6.36 -2.496,8.04l0.312,0.288c1.176,-1.32 3.048,-4.272 3.048,-8.328Z" style="fill:#4e4e4e;fill-rule:nonzero;"/><path d="M98.25,33.375l-0.432,-0.072c-0.168,0.6 -0.456,0.888 -1.056,0.888c-0.888,0 -1.104,-0.24 -2.184,-0.24c0.552,-0.84 1.56,-1.344 1.8,-1.5c0.888,-0.54 1.812,-0.996 1.812,-2.148c0,-1.104 -1.056,-1.872 -2.352,-1.872c-1.488,0 -2.328,1.116 -2.328,1.884c0,0.516 0.3,0.828 0.768,0.828c0.42,0 0.672,-0.276 0.672,-0.624c0,-0.516 -0.348,-0.612 -0.348,-0.888c0,-0.324 0.42,-0.672 1.092,-0.672c0.672,0 1.128,0.408 1.128,1.296c0,0.72 -0.336,1.344 -1.548,2.256c-0.84,0.576 -1.872,1.752 -1.968,2.76l0.48,0c0.168,-0.432 0.36,-0.672 0.816,-0.672c0.72,0 1.392,0.768 2.256,0.768c0.96,0 1.392,-0.96 1.392,-1.992Z" style="fill:#4e4e4e;fill-rule:nonzero;"/><path d="M88.827,51.459l0.348,-0.174c-0.06,-0.084 -0.93,-1.278 -0.93,-2.904c0,-1.632 0.882,-2.826 0.93,-2.892l-0.348,-0.18c-0.114,0.162 -1.008,1.278 -1.008,3.072c0,1.794 0.888,2.916 1.008,3.078Z" style="fill:#a6a6a6;fill-rule:nonzero;"/><path d="M91.923,47.355c-0.39,0 -0.726,0.132 -0.972,0.413c0.114,-1.001 0.654,-1.439 1.14,-1.464c0.204,-0.011 0.414,0.018 0.552,0.091l0.192,-0.367c-0.18,-0.089 -0.456,-0.137 -0.75,-0.119c-0.816,0.048 -1.62,0.696 -1.62,2.268c0,1.494 0.51,2.033 1.368,2.033c0.822,0 1.29,-0.545 1.29,-1.451c0,-0.918 -0.402,-1.404 -1.2,-1.404Zm-0.09,2.466c-0.576,0 -0.876,-0.402 -0.906,-1.488c0.186,-0.426 0.594,-0.589 0.996,-0.589c0.528,0 0.738,0.373 0.738,1.015c0,0.63 -0.276,1.062 -0.828,1.062Z" style="fill:#a6a6a6;fill-rule:nonzero;"/><path d="M96.747,48.795l-0.738,0l0,-2.85l-0.9,0l-0.996,2.85l0,0.389l1.47,0l0,0.96l0.426,0l0,-0.96l0.738,0l0,-0.389Zm-2.19,0l0.858,-2.467l0.168,0l0,2.467l-1.026,0Z" style="fill:#a6a6a6;fill-rule:nonzero;"/><path d="M98.265,51.459c0.12,-0.162 1.008,-1.284 1.008,-3.078c0,-1.794 -0.894,-2.91 -1.008,-3.072l-0.348,0.18c0.048,0.066 0.93,1.26 0.93,2.892c0,1.626 -0.87,2.82 -0.93,2.904l0.348,0.174Z" style="fill:#a6a6a6;fill-rule:nonzero;"/><path d="M102.771,49.053c0.612,-0.636 1.062,-1.284 1.062,-1.938c0,-0.642 -0.402,-1.206 -1.2,-1.206c-0.546,0 -1.05,0.252 -1.284,0.666l0.408,0.216c0.144,-0.288 0.486,-0.493 0.864,-0.493c0.48,0 0.756,0.349 0.756,0.817c0,0.522 -0.396,1.146 -0.954,1.698c-0.282,0.306 -0.66,0.624 -1.068,0.948l0,0.383l2.466,0l0,-0.383l-1.818,0c0.054,-0.024 0.48,-0.396 0.768,-0.708Z" style="fill:#a6a6a6;fill-rule:nonzero;"/></g><g><g><path d="M127.433,13.011c0.432,0 0.684,-0.336 0.684,-0.756c0,-0.624 -0.684,-1.344 -1.872,-1.344c-1.344,0 -2.676,1.296 -2.676,3.624c0,1.692 0.72,3.312 2.532,3.312c1.284,0 2.304,-0.888 2.304,-2.148c0,-1.044 -0.852,-1.968 -2.184,-1.968c-0.648,0 -1.164,0.288 -1.5,0.672c0.036,-1.416 0.264,-2.976 1.548,-2.976c0.336,0 0.564,0.144 0.564,0.348c0,0.192 -0.084,0.36 -0.084,0.552c0,0.396 0.252,0.684 0.684,0.684Zm-0.252,2.652c0,0.936 -0.432,1.656 -1.248,1.656c-0.732,0 -1.128,-0.54 -1.128,-1.44c0,-0.936 0.504,-1.608 1.272,-1.608c0.756,0 1.104,0.564 1.104,1.392Z" style="fill:#4e4e4e;fill-rule:nonzero;"/><path d="M120.58,35.8l0,-16.346l1.704,0l0,-0.574l-2.278,0l0,17.494l2.278,0l0,-0.574l-1.704,0Z" style="fill:#4e4e4e;fill-rule:nonzero;"/><path d="M130.109,21.603l0,2.364l-2.568,0l0,-2.52l-1.104,1.176l0,1.344l-2.424,0c1.224,-1.824 1.848,-2.64 2.616,-4.2l-1.596,0c-0.408,1.584 -0.9,2.88 -1.74,4.272l0,0.48l3.144,0l0,0.84c0,0.504 -0.444,0.672 -0.78,0.672l-0.24,0l0,0.48l3.024,0l0,-0.48c-0.468,0 -0.9,-0.144 -0.9,-0.672l0,-0.84l2.568,0l0,2.364l0.552,0l0,-2.364l2.364,0l0,-0.552l-2.364,0l0,-2.364l-0.552,0Z" style="fill:#4e4e4e;fill-rule:nonzero;"/><path d="M125.045,33.459c0,-0.408 -0.3,-0.66 -0.648,-0.66c-0.468,0 -0.804,0.372 -0.804,0.876c0,0.792 0.864,1.692 2.28,1.692c1.584,0 2.556,-0.732 2.556,-1.848c0,-0.9 -0.648,-1.452 -1.452,-1.716l0,-0.132c0.6,-0.228 1.248,-0.6 1.248,-1.536c0,-0.924 -0.852,-1.704 -2.112,-1.704c-1.272,0 -2.1,0.888 -2.1,1.632c0,0.528 0.372,0.828 0.72,0.828c0.432,0 0.66,-0.3 0.66,-0.624c0,-0.528 -0.384,-0.552 -0.384,-0.828c0,-0.204 0.264,-0.504 0.852,-0.504c0.612,0 1.152,0.396 1.152,1.212c0,0.768 -0.516,1.356 -1.764,1.38l0,0.432c1.368,0 1.884,0.684 1.884,1.488c0,0.876 -0.576,1.416 -1.344,1.416c-0.564,0 -0.996,-0.24 -0.996,-0.6c0,-0.312 0.252,-0.432 0.252,-0.804Z" style="fill:#4e4e4e;fill-rule:nonzero;"/><path d="M116.212,47.355c-0.391,0 -0.727,0.132 -0.973,0.413c0.114,-1.001 0.655,-1.439 1.141,-1.464c0.204,-0.011 0.414,0.018 0.552,0.091l0.192,-0.367c-0.18,-0.089 -0.456,-0.137 -0.75,-0.119c-0.817,0.048 -1.62,0.696 -1.62,2.268c0,1.494 0.509,2.033 1.368,2.033c0.822,0 1.289,-0.545 1.289,-1.451c0,-0.918 -0.401,-1.404 -1.199,-1.404Zm-0.09,2.466c-0.577,0 -0.877,-0.402 -0.907,-1.488c0.186,-0.426 0.594,-0.589 0.997,-0.589c0.528,0 0.738,0.373 0.738,1.015c0,0.63 -0.276,1.062 -0.828,1.062Z" style="fill:#a6a6a6;fill-rule:nonzero;"/><path d="M120.771,45.728l0,-0.383l-1.343,0l0,5.999l1.343,0l0,-0.383l-0.918,0l0,-5.233l0.918,0Z" style="fill:#a6a6a6;fill-rule:nonzero;"/><path d="M124.635,48.795l-0.738,0l0,-2.85l-0.899,0l-0.996,2.85l0,0.389l1.47,0l0,0.96l0.425,0l0,-0.96l0.738,0l0,-0.389Zm-2.189,0l0.858,-2.467l0.168,0l0,2.467l-1.026,0Z" style="fill:#a6a6a6;fill-rule:nonzero;"/><path d="M128.043,48.129l-0.942,0l0,-0.942l-0.383,0l0,0.942l-0.948,0l0,0.383l0.948,0l0,0.948l0.383,0l0,-0.948l0.942,0l0,-0.383Z" style="fill:#a6a6a6;fill-rule:nonzero;"/><path d="M131.128,47.997c0.456,-0.198 0.635,-0.564 0.635,-0.972c0,-0.756 -0.521,-1.116 -1.253,-1.116c-0.606,0 -1.062,0.276 -1.26,0.672l0.414,0.21c0.12,-0.282 0.456,-0.493 0.846,-0.493c0.462,0 0.786,0.193 0.786,0.727c0,0.432 -0.174,0.804 -0.858,0.804l-0.138,0l0,0.383l0.138,0c0.702,0 0.948,0.319 0.948,0.763c0,0.546 -0.336,0.846 -0.846,0.846c-0.468,0 -0.822,-0.21 -0.954,-0.492l-0.414,0.216c0.234,0.42 0.738,0.665 1.368,0.665c0.81,0 1.313,-0.455 1.313,-1.235c0,-0.474 -0.245,-0.828 -0.725,-0.978Z" style="fill:#a6a6a6;fill-rule:nonzero;"/><rect x="133.876" y="45.345" width="0.401" height="5.58" style="fill:#a6a6a6;fill-rule:nonzero;"/></g><g><path d="M145.781,11.007l-0.48,0l-0.12,2.208l0.456,0c0.12,-1.08 0.696,-1.272 1.056,-1.272c0.156,0 0.384,0.036 0.636,0.096l-1.404,2.412l0.492,0.252l1.476,-2.532c0.396,0.096 0.792,0.192 1.032,0.228c-1.236,2.052 -2.496,3.312 -2.496,4.632c0,0.504 0.312,0.792 0.672,0.792c0.36,0 0.72,-0.264 0.768,-0.912c0.168,-2.16 1.512,-3.672 1.992,-5.904l-0.528,0c-0.096,0.312 -0.336,0.552 -0.672,0.552c-0.144,0 -0.252,-0.036 -0.36,-0.096l1.176,-2.004l-0.516,-0.252l-1.116,1.92c-0.168,-0.12 -0.396,-0.216 -0.72,-0.216c-0.696,0 -0.96,0.528 -1.176,0.528c-0.168,0 -0.168,-0.144 -0.168,-0.432Z" style="fill:#4e4e4e;fill-rule:nonzero;"/><path d="M147.545,22.215c-0.528,0 -0.912,0.144 -1.236,0.3l-0.072,-0.036l0.024,-1.512c0.432,0.048 0.768,0.096 1.152,0.096c1.104,0 1.656,-0.456 2.064,-1.128l-0.12,-0.168c-0.672,0.096 -1.224,0.12 -1.776,0.12c-0.576,0 -1.128,-0.048 -1.824,-0.12l-0.048,3.312l0.312,0.168c0.336,-0.312 0.756,-0.48 1.248,-0.48c0.708,0 1.392,0.432 1.392,1.512c0,1.104 -0.564,1.824 -1.428,1.824c-0.588,0 -0.912,-0.252 -0.912,-0.576c0,-0.312 0.252,-0.432 0.252,-0.804c0,-0.408 -0.3,-0.66 -0.648,-0.66c-0.468,0 -0.804,0.372 -0.804,0.876c0,0.768 0.876,1.668 2.292,1.668c1.416,0 2.52,-0.948 2.52,-2.304c0,-1.296 -1.164,-2.088 -2.388,-2.088Z" style="fill:#4e4e4e;fill-rule:nonzero;"/><path d="M149.933,33.375l-0.432,-0.072c-0.168,0.6 -0.456,0.888 -1.056,0.888c-0.888,0 -1.104,-0.24 -2.184,-0.24c0.552,-0.84 1.56,-1.344 1.8,-1.5c0.888,-0.54 1.812,-0.996 1.812,-2.148c0,-1.104 -1.056,-1.872 -2.352,-1.872c-1.488,0 -2.328,1.116 -2.328,1.884c0,0.516 0.3,0.828 0.768,0.828c0.42,0 0.672,-0.276 0.672,-0.624c0,-0.516 -0.348,-0.612 -0.348,-0.888c0,-0.324 0.42,-0.672 1.092,-0.672c0.672,0 1.128,0.408 1.128,1.296c0,0.72 -0.336,1.344 -1.548,2.256c-0.84,0.576 -1.872,1.752 -1.968,2.76l0.48,0c0.168,-0.432 0.36,-0.672 0.816,-0.672c0.72,0 1.392,0.768 2.256,0.768c0.96,0 1.392,-0.96 1.392,-1.992Z" style="fill:#4e4e4e;fill-rule:nonzero;"/><path d="M152.933,19.455l0,16.344l-1.704,0l0,0.576l2.28,0l0,-17.496l-2.28,0l0,0.576l1.704,0Z" style="fill:#4e4e4e;fill-rule:nonzero;"/><path d="M141.523,45.945l0,0.383l2.04,0l-1.716,3.816l0.48,0l1.68,-3.816l0,-0.383l-2.484,0Z" style="fill:#a6a6a6;fill-rule:nonzero;"/><path d="M146.089,45.603l0.084,1.337l0.3,0l0.084,-1.337l-0.468,0Z" style="fill:#a6a6a6;fill-rule:nonzero;"/><rect x="149.701" y="45.345" width="0.401" height="5.58" style="fill:#a6a6a6;fill-rule:nonzero;"/><path d="M153.571,47.355c-0.33,0 -0.624,0.114 -0.834,0.33l0.126,-1.357l1.728,0l0,-0.383l-2.1,0l-0.21,2.208l0.396,0.18c0.198,-0.414 0.558,-0.583 0.894,-0.583c0.54,0 0.744,0.391 0.744,1.009c0,0.642 -0.288,1.062 -0.87,1.062c-0.402,0 -0.714,-0.126 -0.906,-0.45l-0.408,0.21c0.282,0.444 0.738,0.629 1.296,0.629c0.834,0 1.35,-0.539 1.35,-1.451c0,-0.924 -0.42,-1.404 -1.206,-1.404Z" style="fill:#a6a6a6;fill-rule:nonzero;"/><path d="M157.285,49.053c0.612,-0.636 1.062,-1.284 1.062,-1.938c0,-0.642 -0.402,-1.206 -1.2,-1.206c-0.546,0 -1.05,0.252 -1.284,0.666l0.408,0.216c0.144,-0.288 0.486,-0.493 0.864,-0.493c0.48,0 0.756,0.349 0.756,0.817c0,0.522 -0.396,1.146 -0.954,1.698c-0.282,0.306 -0.66,0.624 -1.068,0.948l0,0.383l2.466,0l0,-0.383l-1.818,0c0.054,-0.024 0.48,-0.396 0.768,-0.708Z" style="fill:#a6a6a6;fill-rule:nonzero;"/><path d="M160.975,45.345l-1.344,0l0,0.383l0.918,0l0,5.233l-0.918,0l0,0.383l1.344,0l0,-5.999Z" style="fill:#a6a6a6;fill-rule:nonzero;"/></g></g></svg>