<?xml version="1.0" encoding="UTF-8" standalone="no"?><!DOCTYPE svg PUBLIC "-//W3C//DTD SVG 1.1//EN" "http://www.w3.org/Graphics/SVG/1.1/DTD/svg11.dtd"><svg width="100%" height="100%" viewBox="0 0 140 71" version="1.1" xmlns="http://www.w3.org/2000/svg" xmlns:xlink="http://www.w3.org/1999/xlink" xml:space="preserve" xmlns:serif="http://www.serif.com/" style="fill-rule:evenodd;clip-rule:evenodd;stroke-linejoin:round;stroke-miterlimit:1.5;"><rect id="_9_FiguratoB" serif:id="9_FiguratoB" x="0" y="0.759" width="140" height="70" style="fill:#fff;"/><path d="M6.166,40.796l104.686,0" style="fill:none;stroke:#e6e6e6;stroke-width:0.5px;stroke-dasharray:1.5,1.5,0,0;"/><g><path d="M65.93,16.532l-0.48,0l-0.144,2.568l0.456,0c0.168,-1.44 0.672,-1.536 1.032,-1.536c0.504,0 1.704,0.384 2.232,0.456c-1.08,1.848 -2.496,3.216 -2.496,4.536c0,0.504 0.36,0.792 0.72,0.792c0.36,0 0.72,-0.264 0.768,-0.912c0.168,-2.16 1.512,-3.672 1.992,-5.904l-0.528,0c-0.096,0.312 -0.336,0.552 -0.672,0.552c-0.576,0 -0.696,-0.648 -1.536,-0.648c-0.696,0 -0.96,0.528 -1.176,0.528c-0.168,0 -0.168,-0.144 -0.168,-0.432Z" style="fill:#4e4e4e;fill-rule:nonzero;"/><path d="M67.694,27.74c-0.528,0 -0.912,0.144 -1.236,0.3l-0.072,-0.036l0.024,-1.512c0.432,0.048 0.768,0.096 1.152,0.096c1.104,0 1.656,-0.456 2.064,-1.128l-0.12,-0.168c-0.672,0.096 -1.224,0.12 -1.776,0.12c-0.576,0 -1.128,-0.048 -1.824,-0.12l-0.048,3.312l0.312,0.168c0.336,-0.312 0.756,-0.48 1.248,-0.48c0.708,0 1.392,0.432 1.392,1.512c0,1.104 -0.564,1.824 -1.428,1.824c-0.588,0 -0.912,-0.252 -0.912,-0.576c0,-0.312 0.252,-0.432 0.252,-0.804c0,-0.408 -0.3,-0.66 -0.648,-0.66c-0.468,0 -0.804,0.372 -0.804,0.876c0,0.768 0.876,1.668 2.292,1.668c1.416,0 2.52,-0.948 2.52,-2.304c0,-1.296 -1.164,-2.088 -2.388,-2.088Z" style="fill:#4e4e4e;fill-rule:nonzero;"/><path d="M66.434,34.004l0,2.664l-0.744,0.216l0,1.38l0.744,-0.24l0,2.352l-0.744,0.264l0,1.332l0.744,-0.24l0,2.304l0.48,0l0,-2.472l1.488,-0.456l0,2.376l0.48,0l0,-2.568l0.744,-0.264l0,-1.356l-0.744,0.24l0,-2.352l0.744,-0.264l0,-1.356l-0.744,0.24l0,-2.304l-0.48,0l0,2.52l-1.488,0.432l0,-2.448l-0.48,0Zm1.968,3.348l0,2.4l-1.488,0.456l0,-2.4l1.488,-0.456Z" style="fill:#4e4e4e;fill-rule:nonzero;"/><path d="M81.78,30.044l1.104,0l0,-0.552l-1.104,0l0,-2.52l-1.104,1.176l0,1.344l-2.424,0c1.224,-1.824 1.848,-2.64 2.616,-4.2l-1.596,0c-0.408,1.584 -0.9,2.88 -1.74,4.272l0,0.48l3.144,0l0,0.84c0,0.504 -0.444,0.672 -0.78,0.672l-0.24,0l0,0.48l3.024,0l0,-0.48c-0.468,0 -0.9,-0.144 -0.9,-0.672l0,-0.84Z" style="fill:#4e4e4e;fill-rule:nonzero;"/><path d="M82.668,38.9l-0.432,-0.072c-0.168,0.6 -0.456,0.888 -1.056,0.888c-0.888,0 -1.104,-0.24 -2.184,-0.24c0.552,-0.84 1.56,-1.344 1.8,-1.5c0.888,-0.54 1.812,-0.996 1.812,-2.148c0,-1.104 -1.056,-1.872 -2.352,-1.872c-1.488,0 -2.328,1.116 -2.328,1.884c0,0.516 0.3,0.828 0.768,0.828c0.42,0 0.672,-0.276 0.672,-0.624c0,-0.516 -0.348,-0.612 -0.348,-0.888c0,-0.324 0.42,-0.672 1.092,-0.672c0.672,0 1.128,0.408 1.128,1.296c0,0.72 -0.336,1.344 -1.548,2.256c-0.84,0.576 -1.872,1.752 -1.968,2.76l0.48,0c0.168,-0.432 0.36,-0.672 0.816,-0.672c0.72,0 1.392,0.768 2.256,0.768c0.96,0 1.392,-0.96 1.392,-1.992Z" style="fill:#4e4e4e;fill-rule:nonzero;"/><path d="M94.198,36.056c0.432,0 0.684,-0.336 0.684,-0.756c0,-0.624 -0.684,-1.344 -1.872,-1.344c-1.344,0 -2.676,1.296 -2.676,3.624c0,1.692 0.72,3.312 2.532,3.312c1.284,0 2.304,-0.888 2.304,-2.148c0,-1.044 -0.852,-1.968 -2.184,-1.968c-0.648,0 -1.164,0.288 -1.5,0.672c0.036,-1.416 0.264,-2.976 1.548,-2.976c0.336,0 0.564,0.144 0.564,0.348c0,0.192 -0.084,0.36 -0.084,0.552c0,0.396 0.252,0.684 0.684,0.684Zm-0.252,2.652c0,0.936 -0.432,1.656 -1.248,1.656c-0.732,0 -1.128,-0.54 -1.128,-1.44c0,-0.936 0.504,-1.608 1.272,-1.608c0.756,0 1.104,0.564 1.104,1.392Z" style="fill:#4e4e4e;fill-rule:nonzero;"/><path d="M96.778,32.072l0,8.664l2.304,-0.504l-0.048,3.192l0.528,0l0,-8.64l-2.304,0.552l0,-3.264l-0.48,0Zm0.48,4.68l1.824,-0.408l0,2.4l-1.824,0.432l0,-2.424Z" style="fill:#4e4e4e;fill-rule:nonzero;"/></g><g><path d="M9.955,34.052l-0.48,0l-0.144,2.568l0.456,0c0.168,-1.44 0.672,-1.536 1.032,-1.536c0.504,0 1.704,0.384 2.232,0.456c-1.08,1.848 -2.496,3.216 -2.496,4.536c0,0.504 0.36,0.792 0.72,0.792c0.36,0 0.72,-0.264 0.768,-0.912c0.168,-2.16 1.512,-3.672 1.992,-5.904l-0.528,0c-0.096,0.312 -0.336,0.552 -0.672,0.552c-0.576,0 -0.696,-0.648 -1.536,-0.648c-0.696,0 -0.96,0.528 -1.176,0.528c-0.168,0 -0.168,-0.144 -0.168,-0.432Z" style="fill:#4e4e4e;fill-rule:nonzero;"/><path d="M11.719,45.26c-0.528,0 -0.912,0.144 -1.236,0.3l-0.072,-0.036l0.024,-1.512c0.432,0.048 0.768,0.096 1.152,0.096c1.104,0 1.656,-0.456 2.064,-1.128l-0.12,-0.168c-0.672,0.096 -1.224,0.12 -1.776,0.12c-0.576,0 -1.128,-0.048 -1.824,-0.12l-0.048,3.312l0.312,0.168c0.336,-0.312 0.756,-0.48 1.248,-0.48c0.708,0 1.392,0.432 1.392,1.512c0,1.104 -0.564,1.824 -1.428,1.824c-0.588,0 -0.912,-0.252 -0.912,-0.576c0,-0.312 0.252,-0.432 0.252,-0.804c0,-0.408 -0.3,-0.66 -0.648,-0.66c-0.468,0 -0.804,0.372 -0.804,0.876c0,0.768 0.876,1.668 2.292,1.668c1.416,0 2.52,-0.948 2.52,-2.304c0,-1.296 -1.164,-2.088 -2.388,-2.088Z" style="fill:#4e4e4e;fill-rule:nonzero;"/><path d="M10.459,51.524l0,2.664l-0.744,0.216l0,1.38l0.744,-0.24l0,2.352l-0.744,0.264l0,1.332l0.744,-0.24l0,2.304l0.48,0l0,-2.472l1.488,-0.456l0,2.376l0.48,0l0,-2.568l0.744,-0.264l0,-1.356l-0.744,0.24l0,-2.352l0.744,-0.264l0,-1.356l-0.744,0.24l0,-2.304l-0.48,0l0,2.52l-1.488,0.432l0,-2.448l-0.48,0Zm1.968,3.348l0,2.4l-1.488,0.456l0,-2.4l1.488,-0.456Z" style="fill:#4e4e4e;fill-rule:nonzero;"/><path d="M25.805,38.804l1.104,0l0,-0.552l-1.104,0l0,-2.52l-1.104,1.176l0,1.344l-2.424,0c1.224,-1.824 1.848,-2.64 2.616,-4.2l-1.596,0c-0.408,1.584 -0.9,2.88 -1.74,4.272l0,0.48l3.144,0l0,0.84c0,0.504 -0.444,0.672 -0.78,0.672l-0.24,0l0,0.48l3.024,0l0,-0.48c-0.468,0 -0.9,-0.144 -0.9,-0.672l0,-0.84Z" style="fill:#4e4e4e;fill-rule:nonzero;"/><path d="M26.693,47.66l-0.432,-0.072c-0.168,0.6 -0.456,0.888 -1.056,0.888c-0.888,0 -1.104,-0.24 -2.184,-0.24c0.552,-0.84 1.56,-1.344 1.8,-1.5c0.888,-0.54 1.812,-0.996 1.812,-2.148c0,-1.104 -1.056,-1.872 -2.352,-1.872c-1.488,0 -2.328,1.116 -2.328,1.884c0,0.516 0.3,0.828 0.768,0.828c0.42,0 0.672,-0.276 0.672,-0.624c0,-0.516 -0.348,-0.612 -0.348,-0.888c0,-0.324 0.42,-0.672 1.092,-0.672c0.672,0 1.128,0.408 1.128,1.296c0,0.72 -0.336,1.344 -1.548,2.256c-0.84,0.576 -1.872,1.752 -1.968,2.76l0.48,0c0.168,-0.432 0.36,-0.672 0.816,-0.672c0.72,0 1.392,0.768 2.256,0.768c0.96,0 1.392,-0.96 1.392,-1.992Z" style="fill:#4e4e4e;fill-rule:nonzero;"/><path d="M38.223,36.056c0.432,0 0.684,-0.336 0.684,-0.756c0,-0.624 -0.684,-1.344 -1.872,-1.344c-1.344,0 -2.676,1.296 -2.676,3.624c0,1.692 0.72,3.312 2.532,3.312c1.284,0 2.304,-0.888 2.304,-2.148c0,-1.044 -0.852,-1.968 -2.184,-1.968c-0.648,0 -1.164,0.288 -1.5,0.672c0.036,-1.416 0.264,-2.976 1.548,-2.976c0.336,0 0.564,0.144 0.564,0.348c0,0.192 -0.084,0.36 -0.084,0.552c0,0.396 0.252,0.684 0.684,0.684Zm-0.252,2.652c0,0.936 -0.432,1.656 -1.248,1.656c-0.732,0 -1.128,-0.54 -1.128,-1.44c0,-0.936 0.504,-1.608 1.272,-1.608c0.756,0 1.104,0.564 1.104,1.392Z" style="fill:#4e4e4e;fill-rule:nonzero;"/><path d="M40.803,32.072l0,8.664l2.304,-0.504l-0.048,3.192l0.528,0l0,-8.64l-2.304,0.552l0,-3.264l-0.48,0Zm0.48,4.68l1.824,-0.408l0,2.4l-1.824,0.432l0,-2.424Z" style="fill:#4e4e4e;fill-rule:nonzero;"/></g><path d="M36.62,56.47l0,0.384l2.04,0l-1.716,3.816l0.48,0l1.68,-3.816l0,-0.384l-2.484,0Z" style="fill:#a6a6a6;fill-rule:nonzero;"/><path d="M41.468,57.88c-0.33,0 -0.624,0.114 -0.834,0.33l0.126,-1.356l1.728,0l0,-0.384l-2.1,0l-0.21,2.208l0.396,0.18c0.198,-0.414 0.558,-0.582 0.894,-0.582c0.54,0 0.744,0.39 0.744,1.008c0,0.642 -0.288,1.062 -0.87,1.062c-0.402,0 -0.714,-0.126 -0.906,-0.45l-0.408,0.21c0.282,0.444 0.738,0.63 1.296,0.63c0.834,0 1.35,-0.54 1.35,-1.452c0,-0.924 -0.42,-1.404 -1.206,-1.404Z" style="fill:#a6a6a6;fill-rule:nonzero;"/><path d="M45.188,60.316c0,-0.222 -0.186,-0.408 -0.414,-0.408c-0.234,0 -0.414,0.186 -0.414,0.408c0,0.192 0.12,0.354 0.288,0.408l-0.174,0.552l0.306,0.138l0.378,-0.93c0.018,-0.054 0.03,-0.108 0.03,-0.168Z" style="fill:#a6a6a6;fill-rule:nonzero;"/><path d="M50.138,58.054l0.048,-0.39l-0.66,0l0.138,-1.194l-0.414,0l-0.138,1.194l-0.882,0l0.138,-1.194l-0.414,0l-0.138,1.194l-0.624,0l-0.048,0.39l0.624,0l-0.12,1.08l-0.654,0l-0.048,0.39l0.654,0l-0.132,1.146l0.414,0l0.132,-1.146l0.882,0l-0.132,1.146l0.414,0l0.132,-1.146l0.63,0l0.048,-0.39l-0.63,0l0.12,-1.08l0.66,0Zm-1.194,1.08l-0.882,0l0.12,-1.08l0.882,0l-0.12,1.08Z" style="fill:#a6a6a6;fill-rule:nonzero;"/><path d="M59.314,59.32l-0.738,0l0,-2.85l-0.9,0l-0.996,2.85l0,0.39l1.47,0l0,0.96l0.426,0l0,-0.96l0.738,0l0,-0.39Zm-2.19,0l0.858,-2.466l0.168,0l0,2.466l-1.026,0Z" style="fill:#a6a6a6;fill-rule:nonzero;"/><path d="M61.738,59.578c0.612,-0.636 1.062,-1.284 1.062,-1.938c0,-0.642 -0.402,-1.206 -1.2,-1.206c-0.546,0 -1.05,0.252 -1.284,0.666l0.408,0.216c0.144,-0.288 0.486,-0.492 0.864,-0.492c0.48,0 0.756,0.348 0.756,0.816c0,0.522 -0.396,1.146 -0.954,1.698c-0.282,0.306 -0.66,0.624 -1.068,0.948l0,0.384l2.466,0l0,-0.384l-1.818,0c0.054,-0.024 0.48,-0.396 0.768,-0.708Z" style="fill:#a6a6a6;fill-rule:nonzero;"/><path d="M70.646,57.88c-0.39,0 -0.726,0.132 -0.972,0.414c0.114,-1.002 0.654,-1.44 1.14,-1.464c0.204,-0.012 0.414,0.018 0.552,0.09l0.192,-0.366c-0.179,-0.09 -0.456,-0.138 -0.75,-0.12c-0.816,0.048 -1.619,0.696 -1.619,2.268c0,1.494 0.509,2.034 1.367,2.034c0.823,0 1.29,-0.546 1.29,-1.452c0,-0.918 -0.402,-1.404 -1.2,-1.404Zm-0.09,2.466c-0.576,0 -0.876,-0.402 -0.906,-1.488c0.186,-0.426 0.594,-0.588 0.996,-0.588c0.528,0 0.739,0.372 0.739,1.014c0,0.63 -0.277,1.062 -0.829,1.062Z" style="fill:#a6a6a6;fill-rule:nonzero;"/><path d="M74.444,57.604c-0.456,0 -0.828,0.21 -1.044,0.522c-0.024,-0.162 -0.06,-0.456 -0.06,-0.456l-0.353,0l0,3l0.431,0l0,-1.992c0.06,-0.258 0.438,-0.684 0.93,-0.684c0.51,0 0.637,0.264 0.637,1.02l0,1.656l0.431,0l0,-1.8c0,-0.894 -0.3,-1.266 -0.972,-1.266Z" style="fill:#a6a6a6;fill-rule:nonzero;"/><path d="M11.653,8.752l0,-0.282l-2.316,0l0,4.2l0.306,0l0,-1.926l1.77,0l0,-0.276l-1.77,0l0,-1.716l2.01,0Z" style="fill:#a6a6a6;fill-rule:nonzero;"/><path d="M13.849,8.812c0.18,0 0.33,-0.144 0.33,-0.33c0,-0.186 -0.15,-0.33 -0.33,-0.33c-0.186,0 -0.33,0.144 -0.33,0.33c0,0.186 0.144,0.33 0.33,0.33Zm0.162,3.576l0,-2.718l-1.422,0l0,0.282l1.116,0l0,2.718l1.266,0l0,-0.282l-0.96,0Z" style="fill:#a6a6a6;fill-rule:nonzero;"/><path d="M18.079,12.394l-0.006,0l-0.926,0l-0.198,-0.006c-0.389,-0.006 -0.264,-0.462 -0.036,-0.696c0.174,0.06 0.366,0.084 0.559,0.084c0.583,0 1.195,-0.234 1.195,-1.092c0,-0.246 -0.048,-0.438 -0.126,-0.588l0.438,-0.432l-0.198,-0.198l-0.414,0.402c-0.222,-0.198 -0.546,-0.27 -0.894,-0.27c-0.642,0 -1.2,0.234 -1.2,1.086c0,0.468 0.174,0.75 0.426,0.906c-0.139,0.12 -0.294,0.294 -0.318,0.528c-0.018,0.162 0.024,0.294 0.113,0.396c-0.131,0.108 -0.293,0.288 -0.293,0.546c0,0.444 0.42,0.72 1.308,0.72c0.9,0 1.212,-0.426 1.254,-0.768c0.042,-0.342 -0.15,-0.618 -0.684,-0.618Zm-0.606,-2.514c0.594,0 0.864,0.18 0.864,0.804c0,0.612 -0.33,0.804 -0.864,0.804c-0.54,0 -0.87,-0.192 -0.87,-0.804c0,-0.606 0.27,-0.804 0.87,-0.804Zm0.954,3.174c-0.042,0.21 -0.264,0.45 -0.918,0.45c-0.63,0 -0.924,-0.156 -0.966,-0.42c-0.024,-0.18 0.066,-0.342 0.162,-0.45c0.078,0.03 0.168,0.042 0.276,0.042l0.966,0c0.498,0 0.516,0.198 0.48,0.378Z" style="fill:#a6a6a6;fill-rule:nonzero;"/><path d="M22.267,12.67l-0.006,-0.606l0,-2.4l-0.306,0l0,2.112c-0.078,0.198 -0.366,0.666 -0.984,0.666c-0.636,0 -0.726,-0.384 -0.726,-1.098l0,-1.68l-0.306,0l0,1.818c0,0.978 0.396,1.248 0.966,1.248c0.468,0 0.84,-0.198 1.056,-0.504l0.012,0.444l0.294,0Z" style="fill:#a6a6a6;fill-rule:nonzero;"/><path d="M25.735,9.898c0.276,0 0.384,0.066 0.396,0.078l0.102,-0.294c-0.066,-0.03 -0.228,-0.084 -0.432,-0.084c-0.486,0 -0.876,0.234 -1.098,0.582l-0.03,-0.51l-1.188,0l0,0.282l0.918,0l0,2.436l-0.918,0l0,0.282l2.322,0l0,-0.282l-1.098,0l0,-1.692c0.126,-0.42 0.498,-0.798 1.026,-0.798Z" style="fill:#a6a6a6;fill-rule:nonzero;"/><path d="M29.767,12.508l-0.384,-0.378l0,-1.728c0,-0.546 -0.48,-0.804 -1.08,-0.804c-0.546,0 -0.882,0.144 -1.086,0.348l0.21,0.21c0.15,-0.168 0.444,-0.27 0.834,-0.27c0.468,0 0.816,0.15 0.816,0.588l0,0.3l-0.81,0c-0.912,0 -1.254,0.312 -1.254,0.978c0,0.672 0.402,0.984 1.11,0.984c0.564,0 0.9,-0.246 1.056,-0.402l0.378,0.378l0.21,-0.204Zm-1.554,-0.054c-0.546,0 -0.9,-0.162 -0.9,-0.702c0,-0.594 0.318,-0.696 1.134,-0.696l0.63,0l0,0.996c-0.156,0.192 -0.486,0.402 -0.864,0.402Z" style="fill:#a6a6a6;fill-rule:nonzero;"/><path d="M32.923,9.952l0,-0.282l-1.158,0l0,-1.08l-0.306,0l0,1.08l-0.924,0l0,0.282l0.924,0l0,2.136c0,0.408 0.258,0.648 0.66,0.648c0.36,0 0.534,-0.06 0.582,-0.066l0,-0.276c-0.054,0.012 -0.324,0.072 -0.528,0.072c-0.204,0 -0.408,-0.078 -0.408,-0.456l0,-2.058l1.158,0Z" style="fill:#a6a6a6;fill-rule:nonzero;"/><path d="M35.485,12.736c0.654,0 1.218,-0.414 1.218,-1.572c0,-1.152 -0.564,-1.566 -1.218,-1.566c-0.66,0 -1.224,0.414 -1.224,1.566c0,1.158 0.564,1.572 1.224,1.572Zm0,-0.288c-0.462,0 -0.894,-0.288 -0.894,-1.284c0,-0.978 0.432,-1.278 0.894,-1.278c0.456,0 0.888,0.3 0.888,1.278c0,0.996 -0.432,1.284 -0.888,1.284Z" style="fill:#a6a6a6;fill-rule:nonzero;"/><path d="M67.627,8.752l0,-0.282l-2.315,0l0,4.2l0.305,0l0,-1.926l1.77,0l0,-0.276l-1.77,0l0,-1.716l2.01,0Z" style="fill:#a6a6a6;fill-rule:nonzero;"/><path d="M69.823,8.812c0.18,0 0.33,-0.144 0.33,-0.33c0,-0.186 -0.15,-0.33 -0.33,-0.33c-0.185,0 -0.329,0.144 -0.329,0.33c0,0.186 0.144,0.33 0.329,0.33Zm0.162,3.576l0,-2.718l-1.421,0l0,0.282l1.116,0l0,2.718l1.265,0l0,-0.282l-0.96,0Z" style="fill:#a6a6a6;fill-rule:nonzero;"/><path d="M74.053,12.394l-0.006,0l-0.925,0l-0.199,-0.006c-0.389,-0.006 -0.264,-0.462 -0.036,-0.696c0.174,0.06 0.367,0.084 0.559,0.084c0.584,0 1.195,-0.234 1.195,-1.092c0,-0.246 -0.048,-0.438 -0.126,-0.588l0.438,-0.432l-0.198,-0.198l-0.413,0.402c-0.222,-0.198 -0.546,-0.27 -0.895,-0.27c-0.642,0 -1.199,0.234 -1.199,1.086c0,0.468 0.173,0.75 0.425,0.906c-0.139,0.12 -0.293,0.294 -0.317,0.528c-0.018,0.162 0.024,0.294 0.113,0.396c-0.132,0.108 -0.293,0.288 -0.293,0.546c0,0.444 0.419,0.72 1.307,0.72c0.901,0 1.212,-0.426 1.254,-0.768c0.042,-0.342 -0.15,-0.618 -0.684,-0.618Zm-0.606,-2.514c0.595,0 0.865,0.18 0.865,0.804c0,0.612 -0.33,0.804 -0.865,0.804c-0.54,0 -0.87,-0.192 -0.87,-0.804c0,-0.606 0.27,-0.804 0.87,-0.804Zm0.955,3.174c-0.042,0.21 -0.264,0.45 -0.919,0.45c-0.63,0 -0.924,-0.156 -0.966,-0.42c-0.024,-0.18 0.066,-0.342 0.162,-0.45c0.078,0.03 0.168,0.042 0.276,0.042l0.967,0c0.498,0 0.516,0.198 0.48,0.378Z" style="fill:#a6a6a6;fill-rule:nonzero;"/><path d="M78.241,12.67l-0.006,-0.606l0,-2.4l-0.305,0l0,2.112c-0.078,0.198 -0.366,0.666 -0.985,0.666c-0.636,0 -0.726,-0.384 -0.726,-1.098l0,-1.68l-0.305,0l0,1.818c0,0.978 0.395,1.248 0.965,1.248c0.468,0 0.841,-0.198 1.057,-0.504l0.012,0.444l0.293,0Z" style="fill:#a6a6a6;fill-rule:nonzero;"/><path d="M81.709,9.898c0.276,0 0.384,0.066 0.396,0.078l0.102,-0.294c-0.066,-0.03 -0.228,-0.084 -0.432,-0.084c-0.486,0 -0.876,0.234 -1.098,0.582l-0.03,-0.51l-1.187,0l0,0.282l0.918,0l0,2.436l-0.918,0l0,0.282l2.321,0l0,-0.282l-1.098,0l0,-1.692c0.126,-0.42 0.498,-0.798 1.026,-0.798Z" style="fill:#a6a6a6;fill-rule:nonzero;"/><path d="M85.741,12.508l-0.384,-0.378l0,-1.728c0,-0.546 -0.479,-0.804 -1.08,-0.804c-0.546,0 -0.882,0.144 -1.086,0.348l0.21,0.21c0.15,-0.168 0.444,-0.27 0.834,-0.27c0.469,0 0.817,0.15 0.817,0.588l0,0.3l-0.811,0c-0.912,0 -1.253,0.312 -1.253,0.978c0,0.672 0.401,0.984 1.109,0.984c0.565,0 0.901,-0.246 1.056,-0.402l0.378,0.378l0.21,-0.204Zm-1.554,-0.054c-0.546,0 -0.9,-0.162 -0.9,-0.702c0,-0.594 0.318,-0.696 1.134,-0.696l0.631,0l0,0.996c-0.156,0.192 -0.486,0.402 -0.865,0.402Z" style="fill:#a6a6a6;fill-rule:nonzero;"/><path d="M88.897,9.952l0,-0.282l-1.158,0l0,-1.08l-0.305,0l0,1.08l-0.924,0l0,0.282l0.924,0l0,2.136c0,0.408 0.257,0.648 0.659,0.648c0.36,0 0.534,-0.06 0.582,-0.066l0,-0.276c-0.054,0.012 -0.324,0.072 -0.528,0.072c-0.204,0 -0.408,-0.078 -0.408,-0.456l0,-2.058l1.158,0Z" style="fill:#a6a6a6;fill-rule:nonzero;"/><path d="M91.459,12.736c0.655,0 1.218,-0.414 1.218,-1.572c0,-1.152 -0.563,-1.566 -1.218,-1.566c-0.66,0 -1.223,0.414 -1.223,1.566c0,1.158 0.563,1.572 1.223,1.572Zm0,-0.288c-0.462,0 -0.894,-0.288 -0.894,-1.284c0,-0.978 0.432,-1.278 0.894,-1.278c0.457,0 0.889,0.3 0.889,1.278c0,0.996 -0.432,1.284 -0.889,1.284Z" style="fill:#a6a6a6;fill-rule:nonzero;"/><path d="M95.738,10.456c0,0 0.431,-0.144 0.431,-0.96c0,-0.966 -0.587,-1.026 -1.092,-1.026l-1.169,0l0,4.2l1.434,0c0.714,0 1.037,-0.396 1.037,-1.2c0,-0.894 -0.641,-1.014 -0.641,-1.014Zm-1.525,-1.704l0.996,0c0.355,0 0.631,0.132 0.631,0.762c0,0.54 -0.186,0.852 -0.547,0.852l-1.08,0l0,-1.614Zm1.116,3.636l-1.116,0l0,-1.746l1.2,0c0.343,0 0.655,0.252 0.655,0.828c0,0.648 -0.222,0.918 -0.739,0.918Z" style="fill:#a6a6a6;fill-rule:nonzero;"/><path d="M112.752,39.3c-0.292,0 -0.52,0.136 -0.657,0.34l0,-1.496l-0.287,0l0,3.2l0.248,0l0.039,-0.284l0,-0.008c0.129,0.2 0.333,0.336 0.617,0.336c0.464,0 0.783,-0.316 0.783,-1.048c0,-0.732 -0.279,-1.04 -0.743,-1.04Zm-0.1,1.828c-0.316,0 -0.513,-0.284 -0.557,-0.508l0,-0.576c0.064,-0.192 0.269,-0.484 0.597,-0.484c0.364,0 0.52,0.212 0.52,0.78c0,0.564 -0.196,0.788 -0.56,0.788Z" style="fill:#a6a6a6;fill-rule:nonzero;"/><path d="M116.231,41.204l-0.244,-0.244l0,-1.116c0,-0.364 -0.307,-0.548 -0.759,-0.548c-0.372,0 -0.628,0.108 -0.764,0.244l0.195,0.192c0.101,-0.112 0.281,-0.176 0.541,-0.176c0.312,0 0.504,0.088 0.504,0.352l0,0.172l-0.508,0c-0.608,0 -0.864,0.208 -0.864,0.652c0,0.448 0.264,0.656 0.776,0.656c0.348,0 0.568,-0.14 0.68,-0.244l0.247,0.248l0.196,-0.188Zm-1.612,-0.472c0,-0.332 0.161,-0.396 0.705,-0.396l0.38,0l0,0.564c-0.1,0.116 -0.312,0.232 -0.532,0.232c-0.368,0 -0.553,-0.1 -0.553,-0.4Z" style="fill:#a6a6a6;fill-rule:nonzero;"/><path d="M117.812,41.388c0.4,0 0.851,-0.18 0.859,-0.604c0.008,-0.456 -0.639,-0.568 -0.819,-0.616c-0.132,-0.04 -0.493,-0.108 -0.493,-0.324c0,-0.224 0.317,-0.288 0.489,-0.288c0.168,0 0.4,0.064 0.5,0.224l0.244,-0.16c-0.14,-0.22 -0.464,-0.324 -0.744,-0.324c-0.34,0 -0.804,0.156 -0.796,0.54c0.008,0.424 0.556,0.548 0.756,0.6c0.144,0.04 0.556,0.116 0.556,0.356c0,0.248 -0.288,0.336 -0.544,0.336c-0.232,0 -0.512,-0.084 -0.608,-0.224l-0.252,0.168c0.168,0.22 0.536,0.316 0.852,0.316Z" style="fill:#a6a6a6;fill-rule:nonzero;"/><path d="M120.524,39.296c-0.456,0 -0.916,0.28 -0.916,1.044c0,0.756 0.44,1.048 0.904,1.048c0.348,0 0.64,-0.172 0.796,-0.424l-0.26,-0.14c-0.104,0.172 -0.288,0.304 -0.544,0.304c-0.332,0 -0.569,-0.204 -0.589,-0.716l1.436,0c0.04,-0.636 -0.239,-1.116 -0.827,-1.116Zm-0.597,0.86c0.052,-0.448 0.301,-0.6 0.585,-0.6c0.352,0 0.504,0.256 0.524,0.6l-1.109,0Z" style="fill:#a6a6a6;fill-rule:nonzero;"/><path d="M123.407,41.144c-0.132,0 -0.316,-0.02 -0.316,-0.34l0,-2.66l-0.919,0l0,0.256l0.632,0l0,2.464c0,0.436 0.295,0.524 0.543,0.524c0.248,0 0.432,-0.04 0.46,-0.044l0,-0.248c-0.036,0.008 -0.256,0.048 -0.4,0.048Z" style="fill:#a6a6a6;fill-rule:nonzero;"/><path d="M125.604,38.816c0.148,0 0.263,-0.116 0.263,-0.264c0,-0.148 -0.115,-0.264 -0.263,-0.264c-0.148,0 -0.268,0.116 -0.268,0.264c0,0.148 0.12,0.264 0.268,0.264Zm0.151,2.272l0,-1.744l-0.995,0l0,0.256l0.708,0l0,1.744l0.883,0l0,-0.256l-0.596,0Z" style="fill:#a6a6a6;fill-rule:nonzero;"/><path d="M128.416,39.3c-0.304,0 -0.552,0.14 -0.697,0.348c-0.015,-0.108 -0.039,-0.304 -0.039,-0.304l-0.236,0l0,2l0.287,0l0,-1.328c0.04,-0.172 0.293,-0.456 0.621,-0.456c0.34,0 0.424,0.176 0.424,0.68l0,1.104l0.287,0l0,-1.2c0,-0.596 -0.199,-0.844 -0.647,-0.844Z" style="fill:#a6a6a6;fill-rule:nonzero;"/><path d="M130.924,39.296c-0.456,0 -0.916,0.28 -0.916,1.044c0,0.756 0.44,1.048 0.904,1.048c0.348,0 0.64,-0.172 0.796,-0.424l-0.26,-0.14c-0.104,0.172 -0.288,0.304 -0.544,0.304c-0.332,0 -0.569,-0.204 -0.589,-0.716l1.436,0c0.04,-0.636 -0.239,-1.116 -0.827,-1.116Zm-0.597,0.86c0.052,-0.448 0.301,-0.6 0.585,-0.6c0.352,0 0.504,0.256 0.524,0.6l-1.109,0Z" style="fill:#a6a6a6;fill-rule:nonzero;"/></svg>