<?xml version="1.0" encoding="UTF-8" standalone="no"?><!DOCTYPE svg PUBLIC "-//W3C//DTD SVG 1.1//EN" "http://www.w3.org/Graphics/SVG/1.1/DTD/svg11.dtd"><svg width="100%" height="100%" viewBox="0 0 140 71" version="1.1" xmlns="http://www.w3.org/2000/svg" xmlns:xlink="http://www.w3.org/1999/xlink" xml:space="preserve" xmlns:serif="http://www.serif.com/" style="fill-rule:evenodd;clip-rule:evenodd;stroke-linejoin:round;stroke-miterlimit:1.5;"><rect id="_9_FiguratoB" serif:id="9_FiguratoB" x="0" y="0.759" width="140" height="70" style="fill:#fff;"/><path d="M6.166,40.796l104.686,0" style="fill:none;stroke:#f2f2f2;stroke-width:2.5px;"/><g><path d="M65.93,16.532l-0.48,0l-0.144,2.568l0.456,0c0.168,-1.44 0.672,-1.536 1.032,-1.536c0.504,0 1.704,0.384 2.232,0.456c-1.08,1.848 -2.496,3.216 -2.496,4.536c0,0.504 0.36,0.792 0.72,0.792c0.36,0 0.72,-0.264 0.768,-0.912c0.168,-2.16 1.512,-3.672 1.992,-5.904l-0.528,0c-0.096,0.312 -0.336,0.552 -0.672,0.552c-0.576,0 -0.696,-0.648 -1.536,-0.648c-0.696,0 -0.96,0.528 -1.176,0.528c-0.168,0 -0.168,-0.144 -0.168,-0.432Z" style="fill-rule:nonzero;"/><path d="M67.694,27.74c-0.528,0 -0.912,0.144 -1.236,0.3l-0.072,-0.036l0.024,-1.512c0.432,0.048 0.768,0.096 1.152,0.096c1.104,0 1.656,-0.456 2.064,-1.128l-0.12,-0.168c-0.672,0.096 -1.224,0.12 -1.776,0.12c-0.576,0 -1.128,-0.048 -1.824,-0.12l-0.048,3.312l0.312,0.168c0.336,-0.312 0.756,-0.48 1.248,-0.48c0.708,0 1.392,0.432 1.392,1.512c0,1.104 -0.564,1.824 -1.428,1.824c-0.588,0 -0.912,-0.252 -0.912,-0.576c0,-0.312 0.252,-0.432 0.252,-0.804c0,-0.408 -0.3,-0.66 -0.648,-0.66c-0.468,0 -0.804,0.372 -0.804,0.876c0,0.768 0.876,1.668 2.292,1.668c1.416,0 2.52,-0.948 2.52,-2.304c0,-1.296 -1.164,-2.088 -2.388,-2.088Z" style="fill-rule:nonzero;"/><path d="M66.434,34.004l0,2.664l-0.744,0.216l0,1.38l0.744,-0.24l0,2.352l-0.744,0.264l0,1.332l0.744,-0.24l0,2.304l0.48,0l0,-2.472l1.488,-0.456l0,2.376l0.48,0l0,-2.568l0.744,-0.264l0,-1.356l-0.744,0.24l0,-2.352l0.744,-0.264l0,-1.356l-0.744,0.24l0,-2.304l-0.48,0l0,2.52l-1.488,0.432l0,-2.448l-0.48,0Zm1.968,3.348l0,2.4l-1.488,0.456l0,-2.4l1.488,-0.456Z" style="fill-rule:nonzero;"/><path d="M81.78,30.044l1.104,0l0,-0.552l-1.104,0l0,-2.52l-1.104,1.176l0,1.344l-2.424,0c1.224,-1.824 1.848,-2.64 2.616,-4.2l-1.596,0c-0.408,1.584 -0.9,2.88 -1.74,4.272l0,0.48l3.144,0l0,0.84c0,0.504 -0.444,0.672 -0.78,0.672l-0.24,0l0,0.48l3.024,0l0,-0.48c-0.468,0 -0.9,-0.144 -0.9,-0.672l0,-0.84Z" style="fill-rule:nonzero;"/><path d="M82.668,38.9l-0.432,-0.072c-0.168,0.6 -0.456,0.888 -1.056,0.888c-0.888,0 -1.104,-0.24 -2.184,-0.24c0.552,-0.84 1.56,-1.344 1.8,-1.5c0.888,-0.54 1.812,-0.996 1.812,-2.148c0,-1.104 -1.056,-1.872 -2.352,-1.872c-1.488,0 -2.328,1.116 -2.328,1.884c0,0.516 0.3,0.828 0.768,0.828c0.42,0 0.672,-0.276 0.672,-0.624c0,-0.516 -0.348,-0.612 -0.348,-0.888c0,-0.324 0.42,-0.672 1.092,-0.672c0.672,0 1.128,0.408 1.128,1.296c0,0.72 -0.336,1.344 -1.548,2.256c-0.84,0.576 -1.872,1.752 -1.968,2.76l0.48,0c0.168,-0.432 0.36,-0.672 0.816,-0.672c0.72,0 1.392,0.768 2.256,0.768c0.96,0 1.392,-0.96 1.392,-1.992Z" style="fill-rule:nonzero;"/><path d="M94.198,36.056c0.432,0 0.684,-0.336 0.684,-0.756c0,-0.624 -0.684,-1.344 -1.872,-1.344c-1.344,0 -2.676,1.296 -2.676,3.624c0,1.692 0.72,3.312 2.532,3.312c1.284,0 2.304,-0.888 2.304,-2.148c0,-1.044 -0.852,-1.968 -2.184,-1.968c-0.648,0 -1.164,0.288 -1.5,0.672c0.036,-1.416 0.264,-2.976 1.548,-2.976c0.336,0 0.564,0.144 0.564,0.348c0,0.192 -0.084,0.36 -0.084,0.552c0,0.396 0.252,0.684 0.684,0.684Zm-0.252,2.652c0,0.936 -0.432,1.656 -1.248,1.656c-0.732,0 -1.128,-0.54 -1.128,-1.44c0,-0.936 0.504,-1.608 1.272,-1.608c0.756,0 1.104,0.564 1.104,1.392Z" style="fill-rule:nonzero;"/><path d="M96.778,32.072l0,8.664l2.304,-0.504l-0.048,3.192l0.528,0l0,-8.64l-2.304,0.552l0,-3.264l-0.48,0Zm0.48,4.68l1.824,-0.408l0,2.4l-1.824,0.432l0,-2.424Z" style="fill-rule:nonzero;"/></g><g><path d="M9.955,34.052l-0.48,0l-0.144,2.568l0.456,0c0.168,-1.44 0.672,-1.536 1.032,-1.536c0.504,0 1.704,0.384 2.232,0.456c-1.08,1.848 -2.496,3.216 -2.496,4.536c0,0.504 0.36,0.792 0.72,0.792c0.36,0 0.72,-0.264 0.768,-0.912c0.168,-2.16 1.512,-3.672 1.992,-5.904l-0.528,0c-0.096,0.312 -0.336,0.552 -0.672,0.552c-0.576,0 -0.696,-0.648 -1.536,-0.648c-0.696,0 -0.96,0.528 -1.176,0.528c-0.168,0 -0.168,-0.144 -0.168,-0.432Z" style="fill-rule:nonzero;"/><path d="M11.719,45.26c-0.528,0 -0.912,0.144 -1.236,0.3l-0.072,-0.036l0.024,-1.512c0.432,0.048 0.768,0.096 1.152,0.096c1.104,0 1.656,-0.456 2.064,-1.128l-0.12,-0.168c-0.672,0.096 -1.224,0.12 -1.776,0.12c-0.576,0 -1.128,-0.048 -1.824,-0.12l-0.048,3.312l0.312,0.168c0.336,-0.312 0.756,-0.48 1.248,-0.48c0.708,0 1.392,0.432 1.392,1.512c0,1.104 -0.564,1.824 -1.428,1.824c-0.588,0 -0.912,-0.252 -0.912,-0.576c0,-0.312 0.252,-0.432 0.252,-0.804c0,-0.408 -0.3,-0.66 -0.648,-0.66c-0.468,0 -0.804,0.372 -0.804,0.876c0,0.768 0.876,1.668 2.292,1.668c1.416,0 2.52,-0.948 2.52,-2.304c0,-1.296 -1.164,-2.088 -2.388,-2.088Z" style="fill-rule:nonzero;"/><path d="M10.459,51.524l0,2.664l-0.744,0.216l0,1.38l0.744,-0.24l0,2.352l-0.744,0.264l0,1.332l0.744,-0.24l0,2.304l0.48,0l0,-2.472l1.488,-0.456l0,2.376l0.48,0l0,-2.568l0.744,-0.264l0,-1.356l-0.744,0.24l0,-2.352l0.744,-0.264l0,-1.356l-0.744,0.24l0,-2.304l-0.48,0l0,2.52l-1.488,0.432l0,-2.448l-0.48,0Zm1.968,3.348l0,2.4l-1.488,0.456l0,-2.4l1.488,-0.456Z" style="fill-rule:nonzero;"/><path d="M25.805,38.804l1.104,0l0,-0.552l-1.104,0l0,-2.52l-1.104,1.176l0,1.344l-2.424,0c1.224,-1.824 1.848,-2.64 2.616,-4.2l-1.596,0c-0.408,1.584 -0.9,2.88 -1.74,4.272l0,0.48l3.144,0l0,0.84c0,0.504 -0.444,0.672 -0.78,0.672l-0.24,0l0,0.48l3.024,0l0,-0.48c-0.468,0 -0.9,-0.144 -0.9,-0.672l0,-0.84Z" style="fill-rule:nonzero;"/><path d="M26.693,47.66l-0.432,-0.072c-0.168,0.6 -0.456,0.888 -1.056,0.888c-0.888,0 -1.104,-0.24 -2.184,-0.24c0.552,-0.84 1.56,-1.344 1.8,-1.5c0.888,-0.54 1.812,-0.996 1.812,-2.148c0,-1.104 -1.056,-1.872 -2.352,-1.872c-1.488,0 -2.328,1.116 -2.328,1.884c0,0.516 0.3,0.828 0.768,0.828c0.42,0 0.672,-0.276 0.672,-0.624c0,-0.516 -0.348,-0.612 -0.348,-0.888c0,-0.324 0.42,-0.672 1.092,-0.672c0.672,0 1.128,0.408 1.128,1.296c0,0.72 -0.336,1.344 -1.548,2.256c-0.84,0.576 -1.872,1.752 -1.968,2.76l0.48,0c0.168,-0.432 0.36,-0.672 0.816,-0.672c0.72,0 1.392,0.768 2.256,0.768c0.96,0 1.392,-0.96 1.392,-1.992Z" style="fill-rule:nonzero;"/><path d="M38.223,36.056c0.432,0 0.684,-0.336 0.684,-0.756c0,-0.624 -0.684,-1.344 -1.872,-1.344c-1.344,0 -2.676,1.296 -2.676,3.624c0,1.692 0.72,3.312 2.532,3.312c1.284,0 2.304,-0.888 2.304,-2.148c0,-1.044 -0.852,-1.968 -2.184,-1.968c-0.648,0 -1.164,0.288 -1.5,0.672c0.036,-1.416 0.264,-2.976 1.548,-2.976c0.336,0 0.564,0.144 0.564,0.348c0,0.192 -0.084,0.36 -0.084,0.552c0,0.396 0.252,0.684 0.684,0.684Zm-0.252,2.652c0,0.936 -0.432,1.656 -1.248,1.656c-0.732,0 -1.128,-0.54 -1.128,-1.44c0,-0.936 0.504,-1.608 1.272,-1.608c0.756,0 1.104,0.564 1.104,1.392Z" style="fill-rule:nonzero;"/><path d="M40.803,32.072l0,8.664l2.304,-0.504l-0.048,3.192l0.528,0l0,-8.64l-2.304,0.552l0,-3.264l-0.48,0Zm0.48,4.68l1.824,-0.408l0,2.4l-1.824,0.432l0,-2.424Z" style="fill-rule:nonzero;"/></g><path d="M36.62,56.47l0,0.384l2.04,0l-1.716,3.816l0.48,0l1.68,-3.816l0,-0.384l-2.484,0Z" style="fill:#a6a6a6;fill-rule:nonzero;"/><path d="M41.468,57.88c-0.33,0 -0.624,0.114 -0.834,0.33l0.126,-1.356l1.728,0l0,-0.384l-2.1,0l-0.21,2.208l0.396,0.18c0.198,-0.414 0.558,-0.582 0.894,-0.582c0.54,0 0.744,0.39 0.744,1.008c0,0.642 -0.288,1.062 -0.87,1.062c-0.402,0 -0.714,-0.126 -0.906,-0.45l-0.408,0.21c0.282,0.444 0.738,0.63 1.296,0.63c0.834,0 1.35,-0.54 1.35,-1.452c0,-0.924 -0.42,-1.404 -1.206,-1.404Z" style="fill:#a6a6a6;fill-rule:nonzero;"/><path d="M45.188,60.316c0,-0.222 -0.186,-0.408 -0.414,-0.408c-0.234,0 -0.414,0.186 -0.414,0.408c0,0.192 0.12,0.354 0.288,0.408l-0.174,0.552l0.306,0.138l0.378,-0.93c0.018,-0.054 0.03,-0.108 0.03,-0.168Z" style="fill:#a6a6a6;fill-rule:nonzero;"/><path d="M50.138,58.054l0.048,-0.39l-0.66,0l0.138,-1.194l-0.414,0l-0.138,1.194l-0.882,0l0.138,-1.194l-0.414,0l-0.138,1.194l-0.624,0l-0.048,0.39l0.624,0l-0.12,1.08l-0.654,0l-0.048,0.39l0.654,0l-0.132,1.146l0.414,0l0.132,-1.146l0.882,0l-0.132,1.146l0.414,0l0.132,-1.146l0.63,0l0.048,-0.39l-0.63,0l0.12,-1.08l0.66,0Zm-1.194,1.08l-0.882,0l0.12,-1.08l0.882,0l-0.12,1.08Z" style="fill:#a6a6a6;fill-rule:nonzero;"/><path d="M59.314,59.32l-0.738,0l0,-2.85l-0.9,0l-0.996,2.85l0,0.39l1.47,0l0,0.96l0.426,0l0,-0.96l0.738,0l0,-0.39Zm-2.19,0l0.858,-2.466l0.168,0l0,2.466l-1.026,0Z" style="fill:#a6a6a6;fill-rule:nonzero;"/><path d="M61.738,59.578c0.612,-0.636 1.062,-1.284 1.062,-1.938c0,-0.642 -0.402,-1.206 -1.2,-1.206c-0.546,0 -1.05,0.252 -1.284,0.666l0.408,0.216c0.144,-0.288 0.486,-0.492 0.864,-0.492c0.48,0 0.756,0.348 0.756,0.816c0,0.522 -0.396,1.146 -0.954,1.698c-0.282,0.306 -0.66,0.624 -1.068,0.948l0,0.384l2.466,0l0,-0.384l-1.818,0c0.054,-0.024 0.48,-0.396 0.768,-0.708Z" style="fill:#a6a6a6;fill-rule:nonzero;"/><path d="M70.646,57.88c-0.39,0 -0.726,0.132 -0.972,0.414c0.114,-1.002 0.654,-1.44 1.14,-1.464c0.204,-0.012 0.414,0.018 0.552,0.09l0.192,-0.366c-0.179,-0.09 -0.456,-0.138 -0.75,-0.12c-0.816,0.048 -1.619,0.696 -1.619,2.268c0,1.494 0.509,2.034 1.367,2.034c0.823,0 1.29,-0.546 1.29,-1.452c0,-0.918 -0.402,-1.404 -1.2,-1.404Zm-0.09,2.466c-0.576,0 -0.876,-0.402 -0.906,-1.488c0.186,-0.426 0.594,-0.588 0.996,-0.588c0.528,0 0.739,0.372 0.739,1.014c0,0.63 -0.277,1.062 -0.829,1.062Z" style="fill:#a6a6a6;fill-rule:nonzero;"/><path d="M74.444,57.604c-0.456,0 -0.828,0.21 -1.044,0.522c-0.024,-0.162 -0.06,-0.456 -0.06,-0.456l-0.353,0l0,3l0.431,0l0,-1.992c0.06,-0.258 0.438,-0.684 0.93,-0.684c0.51,0 0.637,0.264 0.637,1.02l0,1.656l0.431,0l0,-1.8c0,-0.894 -0.3,-1.266 -0.972,-1.266Z" style="fill:#a6a6a6;fill-rule:nonzero;"/><path d="M11.653,8.752l0,-0.282l-2.316,0l0,4.2l0.306,0l0,-1.926l1.77,0l0,-0.276l-1.77,0l0,-1.716l2.01,0Z" style="fill:#808080;fill-rule:nonzero;"/><path d="M13.849,8.812c0.18,0 0.33,-0.144 0.33,-0.33c0,-0.186 -0.15,-0.33 -0.33,-0.33c-0.186,0 -0.33,0.144 -0.33,0.33c0,0.186 0.144,0.33 0.33,0.33Zm0.162,3.576l0,-2.718l-1.422,0l0,0.282l1.116,0l0,2.718l1.266,0l0,-0.282l-0.96,0Z" style="fill:#808080;fill-rule:nonzero;"/><path d="M18.079,12.394l-0.006,0l-0.926,0l-0.198,-0.006c-0.389,-0.006 -0.264,-0.462 -0.036,-0.696c0.174,0.06 0.366,0.084 0.559,0.084c0.583,0 1.195,-0.234 1.195,-1.092c0,-0.246 -0.048,-0.438 -0.126,-0.588l0.438,-0.432l-0.198,-0.198l-0.414,0.402c-0.222,-0.198 -0.546,-0.27 -0.894,-0.27c-0.642,0 -1.2,0.234 -1.2,1.086c0,0.468 0.174,0.75 0.426,0.906c-0.139,0.12 -0.294,0.294 -0.318,0.528c-0.018,0.162 0.024,0.294 0.113,0.396c-0.131,0.108 -0.293,0.288 -0.293,0.546c0,0.444 0.42,0.72 1.308,0.72c0.9,0 1.212,-0.426 1.254,-0.768c0.042,-0.342 -0.15,-0.618 -0.684,-0.618Zm-0.606,-2.514c0.594,0 0.864,0.18 0.864,0.804c0,0.612 -0.33,0.804 -0.864,0.804c-0.54,0 -0.87,-0.192 -0.87,-0.804c0,-0.606 0.27,-0.804 0.87,-0.804Zm0.954,3.174c-0.042,0.21 -0.264,0.45 -0.918,0.45c-0.63,0 -0.924,-0.156 -0.966,-0.42c-0.024,-0.18 0.066,-0.342 0.162,-0.45c0.078,0.03 0.168,0.042 0.276,0.042l0.966,0c0.498,0 0.516,0.198 0.48,0.378Z" style="fill:#808080;fill-rule:nonzero;"/><path d="M22.267,12.67l-0.006,-0.606l0,-2.4l-0.306,0l0,2.112c-0.078,0.198 -0.366,0.666 -0.984,0.666c-0.636,0 -0.726,-0.384 -0.726,-1.098l0,-1.68l-0.306,0l0,1.818c0,0.978 0.396,1.248 0.966,1.248c0.468,0 0.84,-0.198 1.056,-0.504l0.012,0.444l0.294,0Z" style="fill:#808080;fill-rule:nonzero;"/><path d="M25.735,9.898c0.276,0 0.384,0.066 0.396,0.078l0.102,-0.294c-0.066,-0.03 -0.228,-0.084 -0.432,-0.084c-0.486,0 -0.876,0.234 -1.098,0.582l-0.03,-0.51l-1.188,0l0,0.282l0.918,0l0,2.436l-0.918,0l0,0.282l2.322,0l0,-0.282l-1.098,0l0,-1.692c0.126,-0.42 0.498,-0.798 1.026,-0.798Z" style="fill:#808080;fill-rule:nonzero;"/><path d="M29.767,12.508l-0.384,-0.378l0,-1.728c0,-0.546 -0.48,-0.804 -1.08,-0.804c-0.546,0 -0.882,0.144 -1.086,0.348l0.21,0.21c0.15,-0.168 0.444,-0.27 0.834,-0.27c0.468,0 0.816,0.15 0.816,0.588l0,0.3l-0.81,0c-0.912,0 -1.254,0.312 -1.254,0.978c0,0.672 0.402,0.984 1.11,0.984c0.564,0 0.9,-0.246 1.056,-0.402l0.378,0.378l0.21,-0.204Zm-1.554,-0.054c-0.546,0 -0.9,-0.162 -0.9,-0.702c0,-0.594 0.318,-0.696 1.134,-0.696l0.63,0l0,0.996c-0.156,0.192 -0.486,0.402 -0.864,0.402Z" style="fill:#808080;fill-rule:nonzero;"/><path d="M32.923,9.952l0,-0.282l-1.158,0l0,-1.08l-0.306,0l0,1.08l-0.924,0l0,0.282l0.924,0l0,2.136c0,0.408 0.258,0.648 0.66,0.648c0.36,0 0.534,-0.06 0.582,-0.066l0,-0.276c-0.054,0.012 -0.324,0.072 -0.528,0.072c-0.204,0 -0.408,-0.078 -0.408,-0.456l0,-2.058l1.158,0Z" style="fill:#808080;fill-rule:nonzero;"/><path d="M35.485,12.736c0.654,0 1.218,-0.414 1.218,-1.572c0,-1.152 -0.564,-1.566 -1.218,-1.566c-0.66,0 -1.224,0.414 -1.224,1.566c0,1.158 0.564,1.572 1.224,1.572Zm0,-0.288c-0.462,0 -0.894,-0.288 -0.894,-1.284c0,-0.978 0.432,-1.278 0.894,-1.278c0.456,0 0.888,0.3 0.888,1.278c0,0.996 -0.432,1.284 -0.888,1.284Z" style="fill:#808080;fill-rule:nonzero;"/><path d="M67.627,8.752l0,-0.282l-2.315,0l0,4.2l0.305,0l0,-1.926l1.77,0l0,-0.276l-1.77,0l0,-1.716l2.01,0Z" style="fill:#808080;fill-rule:nonzero;"/><path d="M69.823,8.812c0.18,0 0.33,-0.144 0.33,-0.33c0,-0.186 -0.15,-0.33 -0.33,-0.33c-0.185,0 -0.329,0.144 -0.329,0.33c0,0.186 0.144,0.33 0.329,0.33Zm0.162,3.576l0,-2.718l-1.421,0l0,0.282l1.116,0l0,2.718l1.265,0l0,-0.282l-0.96,0Z" style="fill:#808080;fill-rule:nonzero;"/><path d="M74.053,12.394l-0.006,0l-0.925,0l-0.199,-0.006c-0.389,-0.006 -0.264,-0.462 -0.036,-0.696c0.174,0.06 0.367,0.084 0.559,0.084c0.584,0 1.195,-0.234 1.195,-1.092c0,-0.246 -0.048,-0.438 -0.126,-0.588l0.438,-0.432l-0.198,-0.198l-0.413,0.402c-0.222,-0.198 -0.546,-0.27 -0.895,-0.27c-0.642,0 -1.199,0.234 -1.199,1.086c0,0.468 0.173,0.75 0.425,0.906c-0.139,0.12 -0.293,0.294 -0.317,0.528c-0.018,0.162 0.024,0.294 0.113,0.396c-0.132,0.108 -0.293,0.288 -0.293,0.546c0,0.444 0.419,0.72 1.307,0.72c0.901,0 1.212,-0.426 1.254,-0.768c0.042,-0.342 -0.15,-0.618 -0.684,-0.618Zm-0.606,-2.514c0.595,0 0.865,0.18 0.865,0.804c0,0.612 -0.33,0.804 -0.865,0.804c-0.54,0 -0.87,-0.192 -0.87,-0.804c0,-0.606 0.27,-0.804 0.87,-0.804Zm0.955,3.174c-0.042,0.21 -0.264,0.45 -0.919,0.45c-0.63,0 -0.924,-0.156 -0.966,-0.42c-0.024,-0.18 0.066,-0.342 0.162,-0.45c0.078,0.03 0.168,0.042 0.276,0.042l0.967,0c0.498,0 0.516,0.198 0.48,0.378Z" style="fill:#808080;fill-rule:nonzero;"/><path d="M78.241,12.67l-0.006,-0.606l0,-2.4l-0.305,0l0,2.112c-0.078,0.198 -0.366,0.666 -0.985,0.666c-0.636,0 -0.726,-0.384 -0.726,-1.098l0,-1.68l-0.305,0l0,1.818c0,0.978 0.395,1.248 0.965,1.248c0.468,0 0.841,-0.198 1.057,-0.504l0.012,0.444l0.293,0Z" style="fill:#808080;fill-rule:nonzero;"/><path d="M81.709,9.898c0.276,0 0.384,0.066 0.396,0.078l0.102,-0.294c-0.066,-0.03 -0.228,-0.084 -0.432,-0.084c-0.486,0 -0.876,0.234 -1.098,0.582l-0.03,-0.51l-1.187,0l0,0.282l0.918,0l0,2.436l-0.918,0l0,0.282l2.321,0l0,-0.282l-1.098,0l0,-1.692c0.126,-0.42 0.498,-0.798 1.026,-0.798Z" style="fill:#808080;fill-rule:nonzero;"/><path d="M85.741,12.508l-0.384,-0.378l0,-1.728c0,-0.546 -0.479,-0.804 -1.08,-0.804c-0.546,0 -0.882,0.144 -1.086,0.348l0.21,0.21c0.15,-0.168 0.444,-0.27 0.834,-0.27c0.469,0 0.817,0.15 0.817,0.588l0,0.3l-0.811,0c-0.912,0 -1.253,0.312 -1.253,0.978c0,0.672 0.401,0.984 1.109,0.984c0.565,0 0.901,-0.246 1.056,-0.402l0.378,0.378l0.21,-0.204Zm-1.554,-0.054c-0.546,0 -0.9,-0.162 -0.9,-0.702c0,-0.594 0.318,-0.696 1.134,-0.696l0.631,0l0,0.996c-0.156,0.192 -0.486,0.402 -0.865,0.402Z" style="fill:#808080;fill-rule:nonzero;"/><path d="M88.897,9.952l0,-0.282l-1.158,0l0,-1.08l-0.305,0l0,1.08l-0.924,0l0,0.282l0.924,0l0,2.136c0,0.408 0.257,0.648 0.659,0.648c0.36,0 0.534,-0.06 0.582,-0.066l0,-0.276c-0.054,0.012 -0.324,0.072 -0.528,0.072c-0.204,0 -0.408,-0.078 -0.408,-0.456l0,-2.058l1.158,0Z" style="fill:#808080;fill-rule:nonzero;"/><path d="M91.459,12.736c0.655,0 1.218,-0.414 1.218,-1.572c0,-1.152 -0.563,-1.566 -1.218,-1.566c-0.66,0 -1.223,0.414 -1.223,1.566c0,1.158 0.563,1.572 1.223,1.572Zm0,-0.288c-0.462,0 -0.894,-0.288 -0.894,-1.284c0,-0.978 0.432,-1.278 0.894,-1.278c0.457,0 0.889,0.3 0.889,1.278c0,0.996 -0.432,1.284 -0.889,1.284Z" style="fill:#808080;fill-rule:nonzero;"/><path d="M95.738,10.456c0,0 0.431,-0.144 0.431,-0.96c0,-0.966 -0.587,-1.026 -1.092,-1.026l-1.169,0l0,4.2l1.434,0c0.714,0 1.037,-0.396 1.037,-1.2c0,-0.894 -0.641,-1.014 -0.641,-1.014Zm-1.525,-1.704l0.996,0c0.355,0 0.631,0.132 0.631,0.762c0,0.54 -0.186,0.852 -0.547,0.852l-1.08,0l0,-1.614Zm1.116,3.636l-1.116,0l0,-1.746l1.2,0c0.343,0 0.655,0.252 0.655,0.828c0,0.648 -0.222,0.918 -0.739,0.918Z" style="fill:#808080;fill-rule:nonzero;"/><path d="M114.663,39.681c-0.276,0 -0.496,0.116 -0.636,0.295l0,-1.451l-0.372,0l0,3.199l0.312,0l0.056,-0.259c0.128,0.18 0.332,0.303 0.6,0.303c0.504,0 0.82,-0.315 0.82,-1.047c0,-0.733 -0.276,-1.04 -0.78,-1.04Zm-0.12,1.756c-0.296,0 -0.476,-0.244 -0.516,-0.42l0,-0.6c0.06,-0.141 0.244,-0.405 0.556,-0.405c0.368,0 0.488,0.192 0.488,0.709c0,0.516 -0.16,0.716 -0.528,0.716Z" style="fill:#a6a6a6;fill-rule:nonzero;"/><path d="M117.967,41.557l-0.232,-0.232l0,-1.084c0,-0.364 -0.3,-0.564 -0.804,-0.564c-0.38,0 -0.664,0.12 -0.8,0.256l0.248,0.244c0.1,-0.113 0.264,-0.169 0.524,-0.169c0.312,0 0.46,0.076 0.46,0.313l0,0.14l-0.472,0c-0.608,0 -0.892,0.208 -0.892,0.652c0,0.448 0.256,0.655 0.812,0.655c0.324,0 0.536,-0.119 0.652,-0.219l0.252,0.247l0.252,-0.239Zm-1.596,-0.444c0,-0.269 0.112,-0.325 0.656,-0.325l0.336,0l0,0.465c-0.096,0.1 -0.296,0.188 -0.484,0.188c-0.368,0 -0.508,-0.088 -0.508,-0.328Z" style="fill:#a6a6a6;fill-rule:nonzero;"/><path d="M119.315,41.768c0.4,0 0.88,-0.171 0.888,-0.603c0.008,-0.484 -0.664,-0.592 -0.84,-0.644c-0.132,-0.04 -0.44,-0.112 -0.44,-0.277c0,-0.18 0.264,-0.236 0.428,-0.236c0.152,0 0.38,0.068 0.472,0.22l0.304,-0.196c-0.172,-0.263 -0.528,-0.355 -0.776,-0.355c-0.34,0 -0.832,0.156 -0.82,0.555c0.012,0.437 0.576,0.581 0.78,0.633c0.136,0.036 0.5,0.1 0.5,0.312c0,0.192 -0.248,0.26 -0.488,0.26c-0.204,0 -0.496,-0.084 -0.58,-0.228l-0.312,0.208c0.176,0.26 0.584,0.351 0.884,0.351Z" style="fill:#a6a6a6;fill-rule:nonzero;"/><path d="M121.827,39.677c-0.468,0 -0.944,0.263 -0.944,1.044c0,0.772 0.476,1.047 0.932,1.047c0.3,0 0.62,-0.119 0.812,-0.427l-0.328,-0.18c-0.12,0.196 -0.304,0.276 -0.496,0.276c-0.272,0 -0.496,-0.14 -0.524,-0.609l1.404,0c0.04,-0.679 -0.252,-1.151 -0.856,-1.151Zm-0.536,0.824c0.056,-0.389 0.268,-0.493 0.52,-0.493c0.296,0 0.432,0.165 0.468,0.493l-0.988,0Z" style="fill:#a6a6a6;fill-rule:nonzero;"/><path d="M124.547,41.461c-0.108,0 -0.288,-0.012 -0.288,-0.304l0,-2.632l-1,0l0,0.327l0.628,0l0,2.385c0,0.452 0.336,0.531 0.584,0.531c0.268,0 0.444,-0.04 0.476,-0.044l0,-0.311c-0.044,0.008 -0.276,0.048 -0.4,0.048Z" style="fill:#a6a6a6;fill-rule:nonzero;"/><path d="M126.519,39.244c0.176,0 0.312,-0.135 0.312,-0.311c0,-0.176 -0.136,-0.312 -0.312,-0.312c-0.176,0 -0.312,0.136 -0.312,0.312c0,0.176 0.136,0.311 0.312,0.311Zm0.196,2.153l0,-1.672l-1.044,0l0,0.327l0.672,0l0,1.672l0.928,0l0,-0.327l-0.556,0Z" style="fill:#a6a6a6;fill-rule:nonzero;"/><path d="M129.119,39.681c-0.3,0 -0.532,0.12 -0.668,0.311l-0.056,-0.267l-0.292,0l0,1.999l0.372,0l0,-1.328c0.052,-0.132 0.236,-0.384 0.564,-0.384c0.368,0 0.408,0.228 0.408,0.704l0,1.008l0.372,0l0,-1.128c0,-0.652 -0.236,-0.915 -0.7,-0.915Z" style="fill:#a6a6a6;fill-rule:nonzero;"/><path d="M131.427,39.677c-0.468,0 -0.944,0.263 -0.944,1.044c0,0.772 0.476,1.047 0.932,1.047c0.3,0 0.62,-0.119 0.812,-0.427l-0.328,-0.18c-0.12,0.196 -0.304,0.276 -0.496,0.276c-0.272,0 -0.496,-0.14 -0.524,-0.609l1.404,0c0.04,-0.679 -0.252,-1.151 -0.856,-1.151Zm-0.536,0.824c0.056,-0.389 0.268,-0.493 0.52,-0.493c0.296,0 0.432,0.165 0.468,0.493l-0.988,0Z" style="fill:#a6a6a6;fill-rule:nonzero;"/></svg>