<?xml version="1.0" encoding="UTF-8" standalone="no"?><!DOCTYPE svg PUBLIC "-//W3C//DTD SVG 1.1//EN" "http://www.w3.org/Graphics/SVG/1.1/DTD/svg11.dtd"><svg width="100%" height="100%" viewBox="0 0 124 100" version="1.1" xmlns="http://www.w3.org/2000/svg" xmlns:xlink="http://www.w3.org/1999/xlink" xml:space="preserve" xmlns:serif="http://www.serif.com/" style="fill-rule:evenodd;clip-rule:evenodd;stroke-linejoin:round;stroke-miterlimit:1.41421;"><g><g><path d="M34.7,18.74c0.789,0 1.249,-0.614 1.249,-1.381c0,-1.14 -1.249,-2.455 -3.419,-2.455c-2.455,0 -4.887,2.367 -4.887,6.619c0,3.091 1.315,6.05 4.624,6.05c2.345,0 4.208,-1.622 4.208,-3.924c0,-1.907 -1.556,-3.594 -3.989,-3.594c-1.183,0 -2.126,0.526 -2.739,1.227c0.065,-2.586 0.482,-5.435 2.827,-5.435c0.614,0 1.03,0.263 1.03,0.635c0,0.351 -0.153,0.658 -0.153,1.008c0,0.724 0.46,1.25 1.249,1.25Zm-0.46,4.844c0,1.709 -0.789,3.024 -2.28,3.024c-1.337,0 -2.06,-0.986 -2.06,-2.63c0,-1.71 0.921,-2.937 2.323,-2.937c1.381,0 2.017,1.03 2.017,2.543Z" style="fill-rule:nonzero;"/><path d="M44.936,10.827l-0.965,0l0,17.578l0.439,0c2.367,-2.849 6.049,-2.805 6.049,-6.4c0,-1.841 -1.447,-2.673 -2.849,-2.673c-1.315,0 -2.061,0.745 -2.674,1.358l0,-9.863Zm0,16l0.044,-5.172c0,0 0.745,-0.833 1.753,-0.833c0.789,0 1.534,0.482 1.534,1.753c0,1.973 -1.709,2.718 -3.331,4.252Z" style="fill-rule:nonzero;"/><path d="M34.897,39.759l2.017,0l0,-1.008l-2.017,0l0,-4.603l-2.016,2.148l0,2.455l-4.427,0c2.235,-3.332 3.375,-4.822 4.778,-7.672l-2.915,0c-0.746,2.894 -1.644,5.261 -3.179,7.803l0,0.877l5.743,0l0,1.534c0,0.921 -0.811,1.228 -1.425,1.228l-0.438,0l0,0.876l5.523,0l0,-0.876c-0.855,0 -1.644,-0.263 -1.644,-1.228l0,-1.534Z" style="fill-rule:nonzero;"/><path d="M40.07,27.463l0,15.825l4.208,-0.921l-0.087,5.83l0.964,0l0,-15.781l-4.208,1.009l0,-5.962l-0.877,0Zm0.877,8.767l3.331,-0.745l0,3.945l-3.331,0.789l0,-3.989Z" style="fill-rule:nonzero;"/><path d="M30.338,56.088c0,-0.746 -0.547,-1.206 -1.183,-1.206c-0.855,0 -1.469,0.68 -1.469,1.6c0,1.447 1.579,3.091 4.165,3.091c2.893,0 4.668,-1.337 4.668,-3.376c0,-1.644 -1.183,-2.652 -2.652,-3.134l0,-0.241c1.096,-0.417 2.28,-1.096 2.28,-2.806c0,-1.687 -1.556,-3.112 -3.858,-3.112c-2.323,0 -3.835,1.622 -3.835,2.981c0,0.964 0.679,1.512 1.315,1.512c0.789,0 1.205,-0.548 1.205,-1.139c0,-0.965 -0.701,-1.009 -0.701,-1.513c0,-0.372 0.482,-0.92 1.556,-0.92c1.118,0 2.104,0.723 2.104,2.213c0,1.403 -0.942,2.477 -3.222,2.521l0,0.789c2.499,0 3.441,1.249 3.441,2.718c0,1.6 -1.052,2.586 -2.455,2.586c-1.03,0 -1.819,-0.438 -1.819,-1.096c0,-0.57 0.46,-0.789 0.46,-1.468Z" style="fill-rule:nonzero;"/><path d="M14.461,81.704c0,-1.921 0.374,-3.358 1.121,-4.31c0.747,-0.953 1.851,-1.429 3.314,-1.429c0.504,0 0.901,0.043 1.191,0.128l0,0.956c-0.344,-0.111 -0.736,-0.167 -1.178,-0.167c-1.047,0 -1.848,0.326 -2.401,0.98c-0.553,0.653 -0.856,1.68 -0.909,3.08l0.08,0c0.49,-0.767 1.266,-1.151 2.327,-1.151c0.879,0 1.571,0.266 2.077,0.796c0.506,0.531 0.76,1.251 0.76,2.161c0,1.017 -0.278,1.816 -0.833,2.398c-0.555,0.582 -1.306,0.873 -2.251,0.873c-1.012,0 -1.815,-0.38 -2.408,-1.141c-0.593,-0.76 -0.89,-1.818 -0.89,-3.174Zm3.285,3.372c0.633,0 1.124,-0.2 1.475,-0.599c0.35,-0.399 0.525,-0.976 0.525,-1.729c0,-0.647 -0.163,-1.155 -0.489,-1.525c-0.325,-0.37 -0.811,-0.555 -1.458,-0.555c-0.401,0 -0.769,0.082 -1.104,0.247c-0.334,0.165 -0.6,0.393 -0.799,0.682c-0.198,0.29 -0.297,0.591 -0.297,0.903c0,0.46 0.089,0.888 0.267,1.285c0.178,0.397 0.432,0.711 0.759,0.943c0.328,0.232 0.701,0.348 1.121,0.348Z" style="fill-rule:nonzero;"/><path d="M26.1,78.434c0.963,0 1.711,0.328 2.244,0.986c0.533,0.658 0.799,1.589 0.799,2.793c0,1.204 -0.268,2.139 -0.806,2.806c-0.537,0.666 -1.283,1 -2.237,1c-0.477,0 -0.913,-0.088 -1.308,-0.264c-0.394,-0.177 -0.725,-0.448 -0.993,-0.813l-0.08,0l-0.234,0.943l-0.796,0l0,-10.408l1.11,0l0,2.529c0,0.566 -0.018,1.074 -0.054,1.525l0.054,0c0.517,-0.732 1.284,-1.097 2.301,-1.097Zm-0.161,0.929c-0.758,0 -1.304,0.218 -1.638,0.653c-0.335,0.434 -0.502,1.167 -0.502,2.197c0,1.03 0.172,1.767 0.515,2.21c0.343,0.444 0.894,0.666 1.652,0.666c0.682,0 1.191,-0.249 1.525,-0.746c0.335,-0.497 0.502,-1.212 0.502,-2.144c0,-0.954 -0.167,-1.665 -0.502,-2.133c-0.334,-0.469 -0.852,-0.703 -1.552,-0.703Z" style="fill-rule:nonzero;"/><path d="M37.464,83.638l-1.451,-0.001l0,2.248l-1.064,0l0,-2.248l-4.756,0.001l0,-0.97l4.642,-6.616l1.178,0l0,6.575l1.451,0l0,1.01Zm-2.515,-1.01l0,-3.25c0,-0.638 0.022,-1.358 0.067,-2.161l-0.053,0c-0.214,0.428 -0.415,0.783 -0.602,1.064l-3.057,4.347l3.645,0Z" style="fill-rule:nonzero;"/><path d="M43.932,85.885l0,-4.742c0,-0.598 -0.136,-1.044 -0.408,-1.338c-0.272,-0.294 -0.698,-0.442 -1.277,-0.442c-0.767,0 -1.329,0.208 -1.686,0.622c-0.357,0.415 -0.535,1.1 -0.535,2.054l0,3.846l-1.11,0l0,-7.331l0.903,0l0.18,1.003l0.054,0c0.227,-0.361 0.546,-0.641 0.956,-0.839c0.41,-0.199 0.868,-0.298 1.371,-0.298c0.883,0 1.548,0.213 1.994,0.639c0.446,0.426 0.669,1.107 0.669,2.043l0,4.783l-1.111,0Z" style="fill-rule:nonzero;"/><path d="M52.875,78.407c0,0.624 -0.175,1.135 -0.525,1.532c-0.35,0.396 -0.846,0.662 -1.488,0.796l0,0.053c0.785,0.098 1.367,0.348 1.746,0.749c0.379,0.402 0.568,0.928 0.568,1.579c0,0.932 -0.323,1.649 -0.97,2.15c-0.646,0.502 -1.565,0.753 -2.756,0.753c-0.517,0 -0.991,-0.039 -1.421,-0.117c-0.43,-0.078 -0.848,-0.216 -1.254,-0.412l0,-1.057c0.424,0.21 0.875,0.369 1.354,0.479c0.48,0.109 0.934,0.164 1.362,0.164c1.69,0 2.535,-0.663 2.535,-1.987c0,-1.186 -0.932,-1.779 -2.796,-1.779l-0.963,0l0,-0.957l0.976,0c0.763,0 1.367,-0.168 1.813,-0.505c0.446,-0.336 0.669,-0.803 0.669,-1.401c0,-0.477 -0.164,-0.852 -0.492,-1.124c-0.328,-0.272 -0.773,-0.408 -1.334,-0.408c-0.428,0 -0.832,0.058 -1.211,0.174c-0.379,0.116 -0.812,0.33 -1.298,0.642l-0.562,-0.749c0.402,-0.316 0.864,-0.565 1.388,-0.746c0.524,-0.18 1.076,-0.271 1.656,-0.271c0.95,0 1.688,0.218 2.214,0.653c0.526,0.434 0.789,1.031 0.789,1.789Z" style="fill-rule:nonzero;"/></g><g><path d="M90.041,18.74c0.789,0 1.25,-0.614 1.25,-1.381c0,-1.14 -1.25,-2.455 -3.42,-2.455c-2.454,0 -4.887,2.367 -4.887,6.619c0,3.091 1.315,6.05 4.624,6.05c2.346,0 4.209,-1.622 4.209,-3.924c0,-1.907 -1.557,-3.594 -3.989,-3.594c-1.184,0 -2.126,0.526 -2.74,1.227c0.066,-2.586 0.482,-5.435 2.827,-5.435c0.614,0 1.03,0.263 1.03,0.635c0,0.351 -0.153,0.658 -0.153,1.008c0,0.724 0.46,1.25 1.249,1.25Zm-0.46,4.844c0,1.709 -0.789,3.024 -2.279,3.024c-1.337,0 -2.061,-0.986 -2.061,-2.63c0,-1.71 0.921,-2.937 2.324,-2.937c1.38,0 2.016,1.03 2.016,2.543Z" style="fill-rule:nonzero;"/><path d="M96.332,10.827l-0.965,0l0,17.578l0.439,0c2.367,-2.849 6.049,-2.805 6.049,-6.4c0,-1.841 -1.447,-2.673 -2.849,-2.673c-1.315,0 -2.061,0.745 -2.674,1.358l0,-9.863Zm0,16l0.043,-5.172c0,0 0.746,-0.833 1.754,-0.833c0.789,0 1.534,0.482 1.534,1.753c0,1.973 -1.709,2.718 -3.331,4.252Z" style="fill-rule:nonzero;"/><path d="M90.238,39.759l2.017,0l0,-1.008l-2.017,0l0,-4.603l-2.016,2.148l0,2.455l-4.427,0c2.235,-3.332 3.375,-4.822 4.778,-7.672l-2.915,0c-0.746,2.894 -1.644,5.261 -3.178,7.803l0,0.877l5.742,0l0,1.534c0,0.921 -0.811,1.228 -1.425,1.228l-0.438,0l0,0.876l5.523,0l0,-0.876c-0.854,0 -1.644,-0.263 -1.644,-1.228l0,-1.534Z" style="fill-rule:nonzero;"/><path d="M74.151,43.463l0,15.825l4.208,-0.921l-0.088,5.83l0.965,0l0,-15.781l-4.208,1.009l0,-5.962l-0.877,0Zm0.877,8.767l3.331,-0.745l0,3.945l-3.331,0.789l0,-3.989Z" style="fill-rule:nonzero;"/><path d="M85.68,56.088c0,-0.746 -0.548,-1.206 -1.184,-1.206c-0.855,0 -1.468,0.68 -1.468,1.6c0,1.447 1.578,3.091 4.164,3.091c2.893,0 4.668,-1.337 4.668,-3.376c0,-1.644 -1.183,-2.652 -2.652,-3.134l0,-0.241c1.096,-0.417 2.28,-1.096 2.28,-2.806c0,-1.687 -1.556,-3.112 -3.858,-3.112c-2.323,0 -3.835,1.622 -3.835,2.981c0,0.964 0.679,1.512 1.315,1.512c0.789,0 1.205,-0.548 1.205,-1.139c0,-0.965 -0.701,-1.009 -0.701,-1.513c0,-0.372 0.482,-0.92 1.556,-0.92c1.118,0 2.104,0.723 2.104,2.213c0,1.403 -0.942,2.477 -3.222,2.521l0,0.789c2.499,0 3.441,1.249 3.441,2.718c0,1.6 -1.052,2.586 -2.455,2.586c-1.03,0 -1.819,-0.438 -1.819,-1.096c0,-0.57 0.461,-0.789 0.461,-1.468Z" style="fill-rule:nonzero;"/><path d="M66.754,81.704c0,-1.921 0.373,-3.358 1.12,-4.31c0.747,-0.953 1.852,-1.429 3.314,-1.429c0.504,0 0.901,0.043 1.191,0.128l0,0.956c-0.343,-0.111 -0.736,-0.167 -1.177,-0.167c-1.048,0 -1.849,0.326 -2.401,0.98c-0.553,0.653 -0.857,1.68 -0.91,3.08l0.08,0c0.491,-0.767 1.267,-1.151 2.328,-1.151c0.878,0 1.571,0.266 2.077,0.796c0.506,0.531 0.759,1.251 0.759,2.161c0,1.017 -0.278,1.816 -0.833,2.398c-0.555,0.582 -1.305,0.873 -2.251,0.873c-1.012,0 -1.815,-0.38 -2.408,-1.141c-0.593,-0.76 -0.889,-1.818 -0.889,-3.174Zm3.284,3.372c0.633,0 1.125,-0.2 1.475,-0.599c0.35,-0.399 0.525,-0.976 0.525,-1.729c0,-0.647 -0.163,-1.155 -0.488,-1.525c-0.326,-0.37 -0.812,-0.555 -1.459,-0.555c-0.401,0 -0.769,0.082 -1.103,0.247c-0.335,0.165 -0.601,0.393 -0.799,0.682c-0.199,0.29 -0.298,0.591 -0.298,0.903c0,0.46 0.089,0.888 0.267,1.285c0.179,0.397 0.432,0.711 0.76,0.943c0.327,0.232 0.701,0.348 1.12,0.348Z" style="fill-rule:nonzero;"/><path d="M78.392,78.434c0.963,0 1.711,0.328 2.244,0.986c0.533,0.658 0.8,1.589 0.8,2.793c0,1.204 -0.269,2.139 -0.806,2.806c-0.538,0.666 -1.283,1 -2.238,1c-0.477,0 -0.913,-0.088 -1.307,-0.264c-0.395,-0.177 -0.726,-0.448 -0.994,-0.813l-0.08,0l-0.234,0.943l-0.796,0l0,-10.408l1.11,0l0,2.529c0,0.566 -0.018,1.074 -0.053,1.525l0.053,0c0.518,-0.732 1.285,-1.097 2.301,-1.097Zm-0.16,0.929c-0.758,0 -1.305,0.218 -1.639,0.653c-0.334,0.434 -0.502,1.167 -0.502,2.197c0,1.03 0.172,1.767 0.515,2.21c0.344,0.444 0.894,0.666 1.652,0.666c0.683,0 1.191,-0.249 1.526,-0.746c0.334,-0.497 0.501,-1.212 0.501,-2.144c0,-0.954 -0.167,-1.665 -0.501,-2.133c-0.335,-0.469 -0.852,-0.703 -1.552,-0.703Z" style="fill-rule:nonzero;"/><path d="M89.757,83.638l-1.452,-0.001l0,2.248l-1.063,0l0,-2.248l-4.756,0.001l0,-0.97l4.642,-6.616l1.177,0l0,6.575l1.452,0l0,1.01Zm-2.515,-1.01l0,-3.25c0,-0.638 0.022,-1.358 0.066,-2.161l-0.053,0c-0.214,0.428 -0.415,0.783 -0.602,1.064l-3.057,4.347l3.646,0Z" style="fill-rule:nonzero;"/><path d="M92.372,84.293l0.1,0.154c-0.116,0.446 -0.283,0.964 -0.501,1.555c-0.219,0.591 -0.446,1.14 -0.683,1.649l-0.836,0c0.121,-0.464 0.253,-1.037 0.398,-1.719c0.145,-0.683 0.247,-1.229 0.304,-1.639l1.218,0Z" style="fill-rule:nonzero;"/><path d="M99.582,85.885l0,-4.742c0,-0.598 -0.136,-1.044 -0.408,-1.338c-0.272,-0.294 -0.698,-0.442 -1.277,-0.442c-0.767,0 -1.329,0.208 -1.686,0.622c-0.357,0.415 -0.535,1.1 -0.535,2.054l0,3.846l-1.11,0l0,-7.331l0.903,0l0.18,1.003l0.054,0c0.227,-0.361 0.546,-0.641 0.956,-0.839c0.411,-0.199 0.868,-0.298 1.372,-0.298c0.882,0 1.547,0.213 1.993,0.639c0.446,0.426 0.669,1.107 0.669,2.043l0,4.783l-1.111,0Z" style="fill-rule:nonzero;"/><path d="M108.525,78.407c0,0.624 -0.175,1.135 -0.525,1.532c-0.35,0.396 -0.846,0.662 -1.488,0.796l0,0.053c0.785,0.098 1.367,0.348 1.746,0.749c0.379,0.402 0.568,0.928 0.568,1.579c0,0.932 -0.323,1.649 -0.97,2.15c-0.646,0.502 -1.565,0.753 -2.755,0.753c-0.518,0 -0.991,-0.039 -1.422,-0.117c-0.43,-0.078 -0.848,-0.216 -1.254,-0.412l0,-1.057c0.424,0.21 0.875,0.369 1.355,0.479c0.479,0.109 0.933,0.164 1.361,0.164c1.69,0 2.535,-0.663 2.535,-1.987c0,-1.186 -0.932,-1.779 -2.796,-1.779l-0.963,0l0,-0.957l0.976,0c0.763,0 1.367,-0.168 1.813,-0.505c0.446,-0.336 0.669,-0.803 0.669,-1.401c0,-0.477 -0.164,-0.852 -0.492,-1.124c-0.328,-0.272 -0.772,-0.408 -1.334,-0.408c-0.428,0 -0.832,0.058 -1.211,0.174c-0.379,0.116 -0.812,0.33 -1.298,0.642l-0.561,-0.749c0.401,-0.316 0.864,-0.565 1.388,-0.746c0.523,-0.18 1.075,-0.271 1.655,-0.271c0.95,0 1.688,0.218 2.214,0.653c0.526,0.434 0.789,1.031 0.789,1.789Z" style="fill-rule:nonzero;"/></g></g></svg>