<?xml version="1.0" encoding="UTF-8" standalone="no"?><!DOCTYPE svg PUBLIC "-//W3C//DTD SVG 1.1//EN" "http://www.w3.org/Graphics/SVG/1.1/DTD/svg11.dtd"><svg width="100%" height="100%" viewBox="0 0 125 73" version="1.1" xmlns="http://www.w3.org/2000/svg" xmlns:xlink="http://www.w3.org/1999/xlink" xml:space="preserve" xmlns:serif="http://www.serif.com/" style="fill-rule:evenodd;clip-rule:evenodd;stroke-linejoin:round;stroke-miterlimit:1.41421;"><g><path d="M13.353,14.272c-0.704,0 -1.216,0.192 -1.648,0.4l-0.096,-0.048l0.032,-2.016c0.576,0.064 1.024,0.128 1.536,0.128c1.472,0 2.208,-0.608 2.752,-1.504l-0.16,-0.224c-0.896,0.128 -1.632,0.16 -2.368,0.16c-0.768,0 -1.504,-0.064 -2.432,-0.16l-0.064,4.416l0.416,0.224c0.448,-0.416 1.008,-0.64 1.664,-0.64c0.944,0 1.856,0.576 1.856,2.016c0,1.472 -0.752,2.432 -1.904,2.432c-0.784,0 -1.216,-0.336 -1.216,-0.768c0,-0.416 0.336,-0.576 0.336,-1.072c0,-0.544 -0.4,-0.88 -0.864,-0.88c-0.624,0 -1.072,0.496 -1.072,1.168c0,1.024 1.168,2.224 3.056,2.224c1.888,0 3.36,-1.264 3.36,-3.072c0,-1.728 -1.552,-2.784 -3.184,-2.784Z" style="fill-rule:nonzero;"/><path d="M19.673,9.344l0,3.552l-0.992,0.288l0,1.92l0.992,-0.32l0,2.976l-0.992,0.352l0,1.856l0.992,-0.32l0,3.072l0.64,0l0,-3.296l1.984,-0.608l0,3.168l0.64,0l0,-3.424l0.992,-0.352l0,-1.888l-0.992,0.32l0,-2.976l0.992,-0.352l0,-1.888l-0.992,0.32l0,-3.072l-0.64,0l0,3.36l-1.984,0.576l0,-3.264l-0.64,0Zm2.624,4.544l0,3.04l-1.984,0.608l0,-3.04l1.984,-0.608Z" style="fill-rule:nonzero;"/><g><path d="M13.461,58.336c0.752,0 1.343,0.186 1.775,0.559c0.431,0.372 0.647,0.883 0.647,1.53c0,0.739 -0.236,1.319 -0.706,1.739c-0.47,0.42 -1.119,0.63 -1.946,0.63c-0.804,0 -1.417,-0.129 -1.841,-0.386l0,-0.781c0.228,0.146 0.512,0.261 0.85,0.344c0.339,0.083 0.672,0.124 1.001,0.124c0.573,0 1.018,-0.135 1.335,-0.405c0.318,-0.27 0.477,-0.661 0.477,-1.172c0,-0.996 -0.611,-1.494 -1.831,-1.494c-0.31,0 -0.723,0.047 -1.241,0.142l-0.42,-0.269l0.269,-3.34l3.55,0l0,0.747l-2.857,0l-0.18,2.144c0.374,-0.075 0.747,-0.112 1.118,-0.112Z" style="fill-rule:nonzero;"/><path d="M21.249,58.306l-0.322,1.661l1.381,0l0,0.629l-1.499,0l-0.41,2.1l-0.669,0l0.41,-2.1l-1.479,0l-0.4,2.1l-0.664,0l0.39,-2.1l-1.279,0l0,-0.629l1.401,0l0.332,-1.661l-1.352,0l0,-0.62l1.46,0l0.4,-2.129l0.679,0l-0.401,2.129l1.49,0l0.41,-2.129l0.654,0l-0.41,2.129l1.289,0l0,0.62l-1.411,0Zm-2.471,1.661l1.48,0l0.322,-1.661l-1.48,0l-0.322,1.661Z" style="fill-rule:nonzero;"/></g></g><g><path d="M39.859,14.272c-0.704,0 -1.216,0.192 -1.648,0.4l-0.096,-0.048l0.032,-2.016c0.576,0.064 1.024,0.128 1.536,0.128c1.472,0 2.208,-0.608 2.752,-1.504l-0.16,-0.224c-0.896,0.128 -1.632,0.16 -2.368,0.16c-0.768,0 -1.504,-0.064 -2.432,-0.16l-0.064,4.416l0.416,0.224c0.448,-0.416 1.008,-0.64 1.664,-0.64c0.944,0 1.856,0.576 1.856,2.016c0,1.472 -0.752,2.432 -1.904,2.432c-0.784,0 -1.216,-0.336 -1.216,-0.768c0,-0.416 0.336,-0.576 0.336,-1.072c0,-0.544 -0.4,-0.88 -0.864,-0.88c-0.624,0 -1.072,0.496 -1.072,1.168c0,1.024 1.168,2.224 3.056,2.224c1.888,0 3.36,-1.264 3.36,-3.072c0,-1.728 -1.552,-2.784 -3.184,-2.784Z" style="fill-rule:nonzero;"/><path d="M38.179,22.624l0,3.552l-0.992,0.288l0,1.92l0.992,-0.32l0,2.976l-0.992,0.352l0,1.856l0.992,-0.32l0,3.072l0.64,0l0,-3.296l1.984,-0.608l0,3.168l0.64,0l0,-3.424l0.992,-0.352l0,-1.888l-0.992,0.32l0,-2.976l0.992,-0.352l0,-1.888l-0.992,0.32l0,-3.072l-0.64,0l0,3.36l-1.984,0.576l0,-3.264l-0.64,0Zm2.624,4.544l0,3.04l-1.984,0.608l0,-3.04l1.984,-0.608Z" style="fill-rule:nonzero;"/><g><path d="M35.045,58.336c0.752,0 1.344,0.186 1.775,0.559c0.431,0.372 0.647,0.883 0.647,1.53c0,0.739 -0.235,1.319 -0.706,1.739c-0.47,0.42 -1.119,0.63 -1.945,0.63c-0.805,0 -1.418,-0.129 -1.841,-0.386l0,-0.781c0.228,0.146 0.511,0.261 0.849,0.344c0.339,0.083 0.673,0.124 1.001,0.124c0.573,0 1.018,-0.135 1.336,-0.405c0.317,-0.27 0.476,-0.661 0.476,-1.172c0,-0.996 -0.611,-1.494 -1.831,-1.494c-0.309,0 -0.723,0.047 -1.24,0.142l-0.42,-0.269l0.268,-3.34l3.55,0l0,0.747l-2.856,0l-0.181,2.144c0.374,-0.075 0.747,-0.112 1.118,-0.112Z" style="fill-rule:nonzero;"/><path d="M39.752,61.534l0.073,0.112c-0.084,0.326 -0.206,0.704 -0.366,1.135c-0.159,0.432 -0.325,0.833 -0.498,1.204l-0.61,0c0.088,-0.338 0.184,-0.757 0.29,-1.255c0.106,-0.498 0.18,-0.897 0.222,-1.196l0.889,0Z" style="fill-rule:nonzero;"/><path d="M45.284,58.306l-0.322,1.661l1.382,0l0,0.629l-1.499,0l-0.41,2.1l-0.669,0l0.41,-2.1l-1.48,0l-0.4,2.1l-0.664,0l0.391,-2.1l-1.28,0l0,-0.629l1.402,0l0.332,-1.661l-1.353,0l0,-0.62l1.46,0l0.4,-2.129l0.679,0l-0.4,2.129l1.489,0l0.41,-2.129l0.655,0l-0.411,2.129l1.289,0l0,0.62l-1.411,0Zm-2.47,1.661l1.479,0l0.322,-1.661l-1.479,0l-0.322,1.661Z" style="fill-rule:nonzero;"/></g></g><g><path d="M75.933,14.272c-0.704,0 -1.216,0.192 -1.648,0.4l-0.096,-0.048l0.032,-2.016c0.576,0.064 1.024,0.128 1.536,0.128c1.472,0 2.208,-0.608 2.752,-1.504l-0.16,-0.224c-0.896,0.128 -1.632,0.16 -2.368,0.16c-0.768,0 -1.504,-0.064 -2.432,-0.16l-0.064,4.416l0.416,0.224c0.448,-0.416 1.008,-0.64 1.664,-0.64c0.944,0 1.856,0.576 1.856,2.016c0,1.472 -0.752,2.432 -1.904,2.432c-0.784,0 -1.216,-0.336 -1.216,-0.768c0,-0.416 0.336,-0.576 0.336,-1.072c0,-0.544 -0.4,-0.88 -0.864,-0.88c-0.624,0 -1.072,0.496 -1.072,1.168c0,1.024 1.168,2.224 3.056,2.224c1.888,0 3.36,-1.264 3.36,-3.072c0,-1.728 -1.552,-2.784 -3.184,-2.784Z" style="fill-rule:nonzero;"/><path d="M81.869,8.368l0,11.552l3.072,-0.672l-0.064,4.256l0.704,0l0,-11.52l-3.072,0.736l0,-4.352l-0.64,0Zm0.64,6.4l2.432,-0.544l0,2.88l-2.432,0.576l0,-2.912Z" style="fill-rule:nonzero;"/><path d="M74.253,22.624l0,3.552l-0.992,0.288l0,1.92l0.992,-0.32l0,2.976l-0.992,0.352l0,1.856l0.992,-0.32l0,3.072l0.64,0l0,-3.296l1.984,-0.608l0,3.168l0.64,0l0,-3.424l0.992,-0.352l0,-1.888l-0.992,0.32l0,-2.976l0.992,-0.352l0,-1.888l-0.992,0.32l0,-3.072l-0.64,0l0,3.36l-1.984,0.576l0,-3.264l-0.64,0Zm2.624,4.544l0,3.04l-1.984,0.608l0,-3.04l1.984,-0.608Z" style="fill-rule:nonzero;"/><g><path d="M71.508,58.336c0.752,0 1.344,0.186 1.775,0.559c0.431,0.372 0.647,0.883 0.647,1.53c0,0.739 -0.235,1.319 -0.706,1.739c-0.47,0.42 -1.119,0.63 -1.945,0.63c-0.805,0 -1.418,-0.129 -1.841,-0.386l0,-0.781c0.228,0.146 0.511,0.261 0.849,0.344c0.339,0.083 0.673,0.124 1.001,0.124c0.573,0 1.018,-0.135 1.336,-0.405c0.317,-0.27 0.476,-0.661 0.476,-1.172c0,-0.996 -0.611,-1.494 -1.831,-1.494c-0.309,0 -0.723,0.047 -1.24,0.142l-0.42,-0.269l0.268,-3.34l3.55,0l0,0.747l-2.856,0l-0.181,2.144c0.374,-0.075 0.747,-0.112 1.118,-0.112Z" style="fill-rule:nonzero;"/><path d="M79.028,62.696l0,-3.462c0,-0.436 -0.1,-0.762 -0.298,-0.976c-0.199,-0.215 -0.51,-0.323 -0.933,-0.323c-0.56,0 -0.97,0.152 -1.23,0.454c-0.261,0.303 -0.391,0.803 -0.391,1.499l0,2.808l-0.811,0l0,-5.352l0.66,0l0.131,0.733l0.04,0c0.166,-0.264 0.398,-0.468 0.698,-0.613c0.299,-0.145 0.633,-0.217 1.001,-0.217c0.644,0 1.129,0.155 1.455,0.466c0.325,0.311 0.488,0.808 0.488,1.492l0,3.491l-0.81,0Z" style="fill-rule:nonzero;"/><path d="M85.434,58.306l-0.322,1.661l1.381,0l0,0.629l-1.499,0l-0.41,2.1l-0.669,0l0.41,-2.1l-1.479,0l-0.4,2.1l-0.665,0l0.391,-2.1l-1.279,0l0,-0.629l1.401,0l0.332,-1.661l-1.352,0l0,-0.62l1.46,0l0.4,-2.129l0.679,0l-0.401,2.129l1.49,0l0.41,-2.129l0.654,0l-0.41,2.129l1.289,0l0,0.62l-1.411,0Zm-2.471,1.661l1.48,0l0.322,-1.661l-1.48,0l-0.322,1.661Z" style="fill-rule:nonzero;"/></g></g><g><path d="M102.389,14.272c-0.704,0 -1.216,0.192 -1.648,0.4l-0.096,-0.048l0.032,-2.016c0.576,0.064 1.024,0.128 1.536,0.128c1.472,0 2.208,-0.608 2.752,-1.504l-0.16,-0.224c-0.896,0.128 -1.632,0.16 -2.368,0.16c-0.768,0 -1.504,-0.064 -2.432,-0.16l-0.064,4.416l0.416,0.224c0.448,-0.416 1.008,-0.64 1.664,-0.64c0.944,0 1.856,0.576 1.856,2.016c0,1.472 -0.752,2.432 -1.904,2.432c-0.784,0 -1.216,-0.336 -1.216,-0.768c0,-0.416 0.336,-0.576 0.336,-1.072c0,-0.544 -0.4,-0.88 -0.864,-0.88c-0.624,0 -1.072,0.496 -1.072,1.168c0,1.024 1.168,2.224 3.056,2.224c1.888,0 3.36,-1.264 3.36,-3.072c0,-1.728 -1.552,-2.784 -3.184,-2.784Z" style="fill-rule:nonzero;"/><path d="M108.325,8.368l0,11.552l3.072,-0.672l-0.064,4.256l0.704,0l0,-11.52l-3.072,0.736l0,-4.352l-0.64,0Zm0.64,6.4l2.432,-0.544l0,2.88l-2.432,0.576l0,-2.912Z" style="fill-rule:nonzero;"/><path d="M100.709,32.704l0,3.552l-0.992,0.288l0,1.92l0.992,-0.32l0,2.976l-0.992,0.352l0,1.856l0.992,-0.32l0,3.072l0.64,0l0,-3.296l1.984,-0.608l0,3.168l0.64,0l0,-3.424l0.992,-0.352l0,-1.888l-0.992,0.32l0,-2.976l0.992,-0.352l0,-1.888l-0.992,0.32l0,-3.072l-0.64,0l0,3.36l-1.984,0.576l0,-3.264l-0.64,0Zm2.624,4.544l0,3.04l-1.984,0.608l0,-3.04l1.984,-0.608Z" style="fill-rule:nonzero;"/><g><path d="M97.091,58.336c0.752,0 1.343,0.186 1.775,0.559c0.431,0.372 0.647,0.883 0.647,1.53c0,0.739 -0.236,1.319 -0.706,1.739c-0.47,0.42 -1.119,0.63 -1.946,0.63c-0.804,0 -1.417,-0.129 -1.841,-0.386l0,-0.781c0.228,0.146 0.511,0.261 0.85,0.344c0.339,0.083 0.672,0.124 1.001,0.124c0.573,0 1.018,-0.135 1.335,-0.405c0.318,-0.27 0.476,-0.661 0.476,-1.172c0,-0.996 -0.61,-1.494 -1.831,-1.494c-0.309,0 -0.722,0.047 -1.24,0.142l-0.42,-0.269l0.269,-3.34l3.55,0l0,0.747l-2.857,0l-0.18,2.144c0.374,-0.075 0.747,-0.112 1.118,-0.112Z" style="fill-rule:nonzero;"/><path d="M104.61,62.696l0,-3.462c0,-0.436 -0.099,-0.762 -0.298,-0.976c-0.198,-0.215 -0.509,-0.323 -0.932,-0.323c-0.56,0 -0.97,0.152 -1.231,0.454c-0.26,0.303 -0.39,0.803 -0.39,1.499l0,2.808l-0.811,0l0,-5.352l0.659,0l0.132,0.733l0.039,0c0.166,-0.264 0.399,-0.468 0.698,-0.613c0.3,-0.145 0.634,-0.217 1.001,-0.217c0.645,0 1.13,0.155 1.455,0.466c0.326,0.311 0.489,0.808 0.489,1.492l0,3.491l-0.811,0Z" style="fill-rule:nonzero;"/><path d="M107.935,61.534l0.074,0.112c-0.085,0.326 -0.207,0.704 -0.367,1.135c-0.159,0.432 -0.325,0.833 -0.498,1.204l-0.61,0c0.088,-0.338 0.185,-0.757 0.291,-1.255c0.105,-0.498 0.179,-0.897 0.222,-1.196l0.888,0Z" style="fill-rule:nonzero;"/><path d="M113.468,58.306l-0.323,1.661l1.382,0l0,0.629l-1.499,0l-0.41,2.1l-0.669,0l0.41,-2.1l-1.479,0l-0.401,2.1l-0.664,0l0.391,-2.1l-1.279,0l0,-0.629l1.401,0l0.332,-1.661l-1.353,0l0,-0.62l1.46,0l0.401,-2.129l0.679,0l-0.401,2.129l1.489,0l0.411,-2.129l0.654,0l-0.41,2.129l1.289,0l0,0.62l-1.411,0Zm-2.471,1.661l1.479,0l0.323,-1.661l-1.48,0l-0.322,1.661Z" style="fill-rule:nonzero;"/></g></g></svg>