<?xml version="1.0" encoding="UTF-8" standalone="no"?><!DOCTYPE svg PUBLIC "-//W3C//DTD SVG 1.1//EN" "http://www.w3.org/Graphics/SVG/1.1/DTD/svg11.dtd"><svg width="100%" height="100%" viewBox="0 0 274 100" version="1.1" xmlns="http://www.w3.org/2000/svg" xmlns:xlink="http://www.w3.org/1999/xlink" xml:space="preserve" xmlns:serif="http://www.serif.com/" style="fill-rule:evenodd;clip-rule:evenodd;stroke-linejoin:round;stroke-miterlimit:1.41421;"><g><g><path d="M101.712,18.74c0.789,0 1.249,-0.614 1.249,-1.381c0,-1.14 -1.249,-2.455 -3.419,-2.455c-2.455,0 -4.888,2.367 -4.888,6.619c0,3.091 1.316,6.05 4.625,6.05c2.345,0 4.208,-1.622 4.208,-3.924c0,-1.907 -1.556,-3.594 -3.989,-3.594c-1.183,0 -2.126,0.526 -2.739,1.227c0.065,-2.586 0.482,-5.435 2.827,-5.435c0.614,0 1.03,0.263 1.03,0.635c0,0.351 -0.153,0.658 -0.153,1.008c0,0.724 0.46,1.25 1.249,1.25Zm-0.46,4.844c0,1.709 -0.789,3.024 -2.28,3.024c-1.337,0 -2.06,-0.986 -2.06,-2.63c0,-1.71 0.921,-2.937 2.323,-2.937c1.381,0 2.017,1.03 2.017,2.543Z" style="fill-rule:nonzero;"/><path d="M107.301,11.463l0,15.825l4.208,-0.921l-0.087,5.83l0.964,0l0,-15.781l-4.208,1.009l0,-5.962l-0.877,0Zm0.877,8.767l3.331,-0.745l0,3.945l-3.331,0.789l0,-3.989Z" style="fill-rule:nonzero;"/><path d="M101.909,39.759l2.017,0l0,-1.008l-2.017,0l0,-4.603l-2.016,2.148l0,2.455l-4.428,0c2.236,-3.332 3.376,-4.822 4.778,-7.672l-2.915,0c-0.745,2.894 -1.643,5.261 -3.178,7.803l0,0.877l5.743,0l0,1.534c0,0.921 -0.811,1.228 -1.425,1.228l-0.438,0l0,0.876l5.523,0l0,-0.876c-0.855,0 -1.644,-0.263 -1.644,-1.228l0,-1.534Z" style="fill-rule:nonzero;"/><path d="M91.866,81.704c0,-1.921 0.373,-3.358 1.12,-4.31c0.747,-0.953 1.852,-1.429 3.314,-1.429c0.504,0 0.901,0.043 1.191,0.128l0,0.956c-0.343,-0.111 -0.736,-0.167 -1.177,-0.167c-1.048,0 -1.849,0.326 -2.402,0.98c-0.553,0.653 -0.856,1.68 -0.909,3.08l0.08,0c0.49,-0.767 1.266,-1.151 2.328,-1.151c0.878,0 1.57,0.266 2.077,0.796c0.506,0.531 0.759,1.251 0.759,2.161c0,1.017 -0.278,1.816 -0.833,2.398c-0.555,0.582 -1.305,0.873 -2.251,0.873c-1.012,0 -1.815,-0.38 -2.408,-1.141c-0.593,-0.76 -0.889,-1.818 -0.889,-3.174Zm3.284,3.372c0.633,0 1.125,-0.2 1.475,-0.599c0.35,-0.399 0.525,-0.976 0.525,-1.729c0,-0.647 -0.163,-1.155 -0.489,-1.525c-0.325,-0.37 -0.811,-0.555 -1.458,-0.555c-0.401,0 -0.769,0.082 -1.103,0.247c-0.335,0.165 -0.601,0.393 -0.8,0.682c-0.198,0.29 -0.297,0.591 -0.297,0.903c0,0.46 0.089,0.888 0.267,1.285c0.179,0.397 0.432,0.711 0.759,0.943c0.328,0.232 0.702,0.348 1.121,0.348Z" style="fill-rule:nonzero;"/><path d="M105.109,85.885l0,-4.742c0,-0.598 -0.136,-1.044 -0.408,-1.338c-0.272,-0.294 -0.697,-0.442 -1.277,-0.442c-0.767,0 -1.329,0.208 -1.686,0.622c-0.356,0.415 -0.535,1.1 -0.535,2.054l0,3.846l-1.11,0l0,-7.331l0.903,0l0.18,1.003l0.054,0c0.227,-0.361 0.546,-0.641 0.956,-0.839c0.411,-0.199 0.868,-0.298 1.372,-0.298c0.883,0 1.547,0.213 1.993,0.639c0.446,0.426 0.669,1.107 0.669,2.043l0,4.783l-1.111,0Z" style="fill-rule:nonzero;"/><path d="M114.882,83.638l-1.452,-0.001l0,2.248l-1.063,0l0,-2.248l-4.756,0.001l0,-0.97l4.642,-6.616l1.177,0l0,6.575l1.452,0l0,1.01Zm-2.515,-1.01l0,-3.25c0,-0.638 0.022,-1.358 0.067,-2.161l-0.054,0c-0.214,0.428 -0.415,0.783 -0.602,1.064l-3.057,4.347l3.646,0Z" style="fill-rule:nonzero;"/></g><g><path d="M145.065,18.74c0.789,0 1.249,-0.614 1.249,-1.381c0,-1.14 -1.249,-2.455 -3.419,-2.455c-2.455,0 -4.888,2.367 -4.888,6.619c0,3.091 1.316,6.05 4.625,6.05c2.345,0 4.208,-1.622 4.208,-3.924c0,-1.907 -1.556,-3.594 -3.989,-3.594c-1.183,0 -2.126,0.526 -2.739,1.227c0.065,-2.586 0.482,-5.435 2.827,-5.435c0.614,0 1.03,0.263 1.03,0.635c0,0.351 -0.153,0.658 -0.153,1.008c0,0.724 0.46,1.25 1.249,1.25Zm-0.46,4.844c0,1.709 -0.789,3.024 -2.28,3.024c-1.337,0 -2.06,-0.986 -2.06,-2.63c0,-1.71 0.921,-2.937 2.323,-2.937c1.381,0 2.017,1.03 2.017,2.543Z" style="fill-rule:nonzero;"/><path d="M129.175,27.463l0,15.825l4.208,-0.921l-0.088,5.83l0.965,0l0,-15.781l-4.209,1.009l0,-5.962l-0.876,0Zm0.876,8.767l3.332,-0.745l0,3.945l-3.332,0.789l0,-3.989Z" style="fill-rule:nonzero;"/><path d="M145.262,39.759l2.017,0l0,-1.008l-2.017,0l0,-4.603l-2.016,2.148l0,2.455l-4.428,0c2.236,-3.332 3.376,-4.822 4.778,-7.672l-2.915,0c-0.745,2.894 -1.643,5.261 -3.178,7.803l0,0.877l5.743,0l0,1.534c0,0.921 -0.811,1.228 -1.425,1.228l-0.438,0l0,0.876l5.523,0l0,-0.876c-0.855,0 -1.644,-0.263 -1.644,-1.228l0,-1.534Z" style="fill-rule:nonzero;"/><path d="M128.521,81.704c0,-1.921 0.374,-3.358 1.121,-4.31c0.746,-0.953 1.851,-1.429 3.314,-1.429c0.504,0 0.901,0.043 1.19,0.128l0,0.956c-0.343,-0.111 -0.735,-0.167 -1.177,-0.167c-1.048,0 -1.848,0.326 -2.401,0.98c-0.553,0.653 -0.856,1.68 -0.91,3.08l0.081,0c0.49,-0.767 1.266,-1.151 2.327,-1.151c0.879,0 1.571,0.266 2.077,0.796c0.506,0.531 0.759,1.251 0.759,2.161c0,1.017 -0.277,1.816 -0.832,2.398c-0.556,0.582 -1.306,0.873 -2.251,0.873c-1.012,0 -1.815,-0.38 -2.408,-1.141c-0.593,-0.76 -0.89,-1.818 -0.89,-3.174Zm3.284,3.372c0.634,0 1.125,-0.2 1.475,-0.599c0.35,-0.399 0.525,-0.976 0.525,-1.729c0,-0.647 -0.162,-1.155 -0.488,-1.525c-0.325,-0.37 -0.812,-0.555 -1.458,-0.555c-0.401,0 -0.769,0.082 -1.104,0.247c-0.334,0.165 -0.601,0.393 -0.799,0.682c-0.199,0.29 -0.298,0.591 -0.298,0.903c0,0.46 0.089,0.888 0.268,1.285c0.178,0.397 0.431,0.711 0.759,0.943c0.328,0.232 0.701,0.348 1.12,0.348Z" style="fill-rule:nonzero;"/><path d="M137.912,84.293l0.101,0.154c-0.116,0.446 -0.284,0.964 -0.502,1.555c-0.219,0.591 -0.446,1.14 -0.682,1.649l-0.836,0c0.12,-0.464 0.253,-1.037 0.398,-1.719c0.144,-0.683 0.246,-1.229 0.304,-1.639l1.217,0Z" style="fill-rule:nonzero;"/><path d="M145.123,85.885l0,-4.742c0,-0.598 -0.136,-1.044 -0.408,-1.338c-0.272,-0.294 -0.698,-0.442 -1.278,-0.442c-0.767,0 -1.329,0.208 -1.685,0.622c-0.357,0.415 -0.536,1.1 -0.536,2.054l0,3.846l-1.11,0l0,-7.331l0.903,0l0.181,1.003l0.053,0c0.228,-0.361 0.546,-0.641 0.957,-0.839c0.41,-0.199 0.867,-0.298 1.371,-0.298c0.883,0 1.547,0.213 1.993,0.639c0.446,0.426 0.669,1.107 0.669,2.043l0,4.783l-1.11,0Z" style="fill-rule:nonzero;"/><path d="M154.895,83.638l-1.451,-0.001l0,2.248l-1.064,0l0,-2.248l-4.756,0.001l0,-0.97l4.642,-6.616l1.178,0l0,6.575l1.451,0l0,1.01Zm-2.515,-1.01l0,-3.25c0,-0.638 0.022,-1.358 0.067,-2.161l-0.054,0c-0.214,0.428 -0.414,0.783 -0.602,1.064l-3.056,4.347l3.645,0Z" style="fill-rule:nonzero;"/></g></g><g><g><path d="M197.915,18.74c0.789,0 1.249,-0.614 1.249,-1.381c0,-1.14 -1.249,-2.455 -3.419,-2.455c-2.455,0 -4.888,2.367 -4.888,6.619c0,3.091 1.316,6.05 4.625,6.05c2.345,0 4.208,-1.622 4.208,-3.924c0,-1.907 -1.556,-3.594 -3.989,-3.594c-1.183,0 -2.126,0.526 -2.739,1.227c0.065,-2.586 0.482,-5.435 2.827,-5.435c0.614,0 1.03,0.263 1.03,0.635c0,0.351 -0.153,0.658 -0.153,1.008c0,0.724 0.46,1.25 1.249,1.25Zm-0.46,4.844c0,1.709 -0.789,3.024 -2.28,3.024c-1.337,0 -2.06,-0.986 -2.06,-2.63c0,-1.71 0.921,-2.937 2.323,-2.937c1.381,0 2.017,1.03 2.017,2.543Z" style="fill-rule:nonzero;"/><path d="M203.504,11.463l0,15.825l4.208,-0.921l-0.087,5.83l0.964,0l0,-15.781l-4.208,1.009l0,-5.962l-0.877,0Zm0.877,8.767l3.331,-0.745l0,3.945l-3.331,0.789l0,-3.989Z" style="fill-rule:nonzero;"/><path d="M182.112,28.8l0,4.866l-1.359,0.394l0,2.63l1.359,-0.438l0,4.077l-1.359,0.482l0,2.542l1.359,-0.438l0,4.208l0.877,0l0,-4.515l2.718,-0.833l0,4.34l0.876,0l0,-4.69l1.359,-0.483l0,-2.586l-1.359,0.439l0,-4.077l1.359,-0.482l0,-2.587l-1.359,0.439l0,-4.209l-0.876,0l0,4.603l-2.718,0.789l0,-4.471l-0.877,0Zm3.595,6.225l0,4.164l-2.718,0.833l0,-4.164l2.718,-0.833Z" style="fill-rule:nonzero;"/><path d="M198.112,39.759l2.017,0l0,-1.008l-2.017,0l0,-4.603l-2.016,2.148l0,2.455l-4.428,0c2.236,-3.332 3.376,-4.822 4.779,-7.672l-2.916,0c-0.745,2.894 -1.643,5.261 -3.178,7.803l0,0.877l5.743,0l0,1.534c0,0.921 -0.811,1.228 -1.425,1.228l-0.438,0l0,0.876l5.523,0l0,-0.876c-0.855,0 -1.644,-0.263 -1.644,-1.228l0,-1.534Z" style="fill-rule:nonzero;"/><path d="M180.108,81.704c0,-1.921 0.374,-3.358 1.121,-4.31c0.747,-0.953 1.851,-1.429 3.314,-1.429c0.504,0 0.901,0.043 1.191,0.128l0,0.956c-0.344,-0.111 -0.736,-0.167 -1.178,-0.167c-1.048,0 -1.848,0.326 -2.401,0.98c-0.553,0.653 -0.856,1.68 -0.91,3.08l0.081,0c0.49,-0.767 1.266,-1.151 2.327,-1.151c0.879,0 1.571,0.266 2.077,0.796c0.506,0.531 0.759,1.251 0.759,2.161c0,1.017 -0.277,1.816 -0.832,2.398c-0.555,0.582 -1.306,0.873 -2.251,0.873c-1.012,0 -1.815,-0.38 -2.408,-1.141c-0.593,-0.76 -0.89,-1.818 -0.89,-3.174Zm3.285,3.372c0.633,0 1.124,-0.2 1.474,-0.599c0.35,-0.399 0.525,-0.976 0.525,-1.729c0,-0.647 -0.162,-1.155 -0.488,-1.525c-0.325,-0.37 -0.811,-0.555 -1.458,-0.555c-0.401,0 -0.769,0.082 -1.104,0.247c-0.334,0.165 -0.6,0.393 -0.799,0.682c-0.198,0.29 -0.298,0.591 -0.298,0.903c0,0.46 0.09,0.888 0.268,1.285c0.178,0.397 0.431,0.711 0.759,0.943c0.328,0.232 0.701,0.348 1.121,0.348Z" style="fill-rule:nonzero;"/><path d="M193.352,85.885l0,-4.742c0,-0.598 -0.136,-1.044 -0.408,-1.338c-0.272,-0.294 -0.698,-0.442 -1.277,-0.442c-0.767,0 -1.329,0.208 -1.686,0.622c-0.357,0.415 -0.535,1.1 -0.535,2.054l0,3.846l-1.11,0l0,-7.331l0.903,0l0.18,1.003l0.054,0c0.227,-0.361 0.546,-0.641 0.956,-0.839c0.41,-0.199 0.867,-0.298 1.371,-0.298c0.883,0 1.548,0.213 1.994,0.639c0.446,0.426 0.668,1.107 0.668,2.043l0,4.783l-1.11,0Z" style="fill-rule:nonzero;"/><path d="M202.128,79.872l-0.442,2.274l1.893,0l0,0.863l-2.053,0l-0.562,2.876l-0.916,0l0.561,-2.876l-2.026,0l-0.549,2.876l-0.909,0l0.535,-2.876l-1.753,0l0,-0.863l1.92,0l0.455,-2.274l-1.853,0l0,-0.85l2,0l0.548,-2.916l0.93,0l-0.548,2.916l2.04,0l0.562,-2.916l0.896,0l-0.562,2.916l1.766,0l0,0.85l-1.933,0Zm-3.385,2.274l2.027,0l0.441,-2.274l-2.026,0l-0.442,2.274Z" style="fill-rule:nonzero;"/><path d="M211.974,83.638l-1.452,-0.001l0,2.248l-1.063,0l0,-2.248l-4.756,0.001l0,-0.97l4.642,-6.616l1.177,0l0,6.575l1.452,0l0,1.01Zm-2.515,-1.01l0,-3.25c0,-0.638 0.022,-1.358 0.067,-2.161l-0.054,0c-0.214,0.428 -0.415,0.783 -0.602,1.064l-3.057,4.347l3.646,0Z" style="fill-rule:nonzero;"/></g><g><path d="M241.917,18.74c0.789,0 1.25,-0.614 1.25,-1.381c0,-1.14 -1.25,-2.455 -3.419,-2.455c-2.455,0 -4.888,2.367 -4.888,6.619c0,3.091 1.315,6.05 4.625,6.05c2.345,0 4.208,-1.622 4.208,-3.924c0,-1.907 -1.556,-3.594 -3.989,-3.594c-1.184,0 -2.126,0.526 -2.74,1.227c0.066,-2.586 0.482,-5.435 2.827,-5.435c0.614,0 1.031,0.263 1.031,0.635c0,0.351 -0.154,0.658 -0.154,1.008c0,0.724 0.46,1.25 1.249,1.25Zm-0.46,4.844c0,1.709 -0.789,3.024 -2.279,3.024c-1.337,0 -2.061,-0.986 -2.061,-2.63c0,-1.71 0.921,-2.937 2.324,-2.937c1.381,0 2.016,1.03 2.016,2.543Z" style="fill-rule:nonzero;"/><path d="M247.506,11.463l0,15.825l4.209,-0.921l-0.088,5.83l0.964,0l0,-15.781l-4.208,1.009l0,-5.962l-0.877,0Zm0.877,8.767l3.332,-0.745l0,3.945l-3.332,0.789l0,-3.989Z" style="fill-rule:nonzero;"/><path d="M226.115,44.8l0,4.866l-1.359,0.394l0,2.63l1.359,-0.438l0,4.077l-1.359,0.482l0,2.542l1.359,-0.438l0,4.208l0.876,0l0,-4.515l2.718,-0.833l0,4.34l0.877,0l0,-4.69l1.359,-0.483l0,-2.586l-1.359,0.439l0,-4.077l1.359,-0.482l0,-2.587l-1.359,0.439l0,-4.209l-0.877,0l0,4.603l-2.718,0.789l0,-4.471l-0.876,0Zm3.594,6.225l0,4.164l-2.718,0.833l0,-4.164l2.718,-0.833Z" style="fill-rule:nonzero;"/><path d="M242.115,55.759l2.016,0l0,-1.008l-2.016,0l0,-4.603l-2.017,2.148l0,2.455l-4.427,0c2.235,-3.332 3.375,-4.822 4.778,-7.672l-2.915,0c-0.745,2.894 -1.644,5.261 -3.178,7.803l0,0.877l5.742,0l0,1.534c0,0.921 -0.811,1.228 -1.424,1.228l-0.439,0l0,0.876l5.523,0l0,-0.876c-0.854,0 -1.643,-0.263 -1.643,-1.228l0,-1.534Z" style="fill-rule:nonzero;"/><path d="M222.319,81.704c0,-1.921 0.373,-3.358 1.12,-4.31c0.747,-0.953 1.852,-1.429 3.314,-1.429c0.504,0 0.901,0.043 1.191,0.128l0,0.956c-0.343,-0.111 -0.736,-0.167 -1.177,-0.167c-1.048,0 -1.848,0.326 -2.401,0.98c-0.553,0.653 -0.857,1.68 -0.91,3.08l0.08,0c0.491,-0.767 1.267,-1.151 2.328,-1.151c0.878,0 1.571,0.266 2.077,0.796c0.506,0.531 0.759,1.251 0.759,2.161c0,1.017 -0.278,1.816 -0.833,2.398c-0.555,0.582 -1.305,0.873 -2.251,0.873c-1.012,0 -1.815,-0.38 -2.408,-1.141c-0.593,-0.76 -0.889,-1.818 -0.889,-3.174Zm3.284,3.372c0.633,0 1.125,-0.2 1.475,-0.599c0.35,-0.399 0.525,-0.976 0.525,-1.729c0,-0.647 -0.163,-1.155 -0.488,-1.525c-0.326,-0.37 -0.812,-0.555 -1.458,-0.555c-0.402,0 -0.77,0.082 -1.104,0.247c-0.335,0.165 -0.601,0.393 -0.799,0.682c-0.199,0.29 -0.298,0.591 -0.298,0.903c0,0.46 0.089,0.888 0.267,1.285c0.179,0.397 0.432,0.711 0.76,0.943c0.327,0.232 0.701,0.348 1.12,0.348Z" style="fill-rule:nonzero;"/><path d="M235.563,85.885l0,-4.742c0,-0.598 -0.136,-1.044 -0.408,-1.338c-0.272,-0.294 -0.698,-0.442 -1.278,-0.442c-0.767,0 -1.329,0.208 -1.686,0.622c-0.356,0.415 -0.535,1.1 -0.535,2.054l0,3.846l-1.11,0l0,-7.331l0.903,0l0.181,1.003l0.053,0c0.228,-0.361 0.546,-0.641 0.957,-0.839c0.41,-0.199 0.867,-0.298 1.371,-0.298c0.883,0 1.547,0.213 1.993,0.639c0.446,0.426 0.669,1.107 0.669,2.043l0,4.783l-1.11,0Z" style="fill-rule:nonzero;"/><path d="M240.118,84.293l0.1,0.154c-0.116,0.446 -0.283,0.964 -0.502,1.555c-0.218,0.591 -0.446,1.14 -0.682,1.649l-0.836,0c0.12,-0.464 0.253,-1.037 0.398,-1.719c0.145,-0.683 0.246,-1.229 0.304,-1.639l1.218,0Z" style="fill-rule:nonzero;"/><path d="M247.696,79.872l-0.441,2.274l1.893,0l0,0.863l-2.054,0l-0.562,2.876l-0.916,0l0.562,-2.876l-2.027,0l-0.548,2.876l-0.91,0l0.535,-2.876l-1.753,0l0,-0.863l1.92,0l0.455,-2.274l-1.853,0l0,-0.85l2,0l0.549,-2.916l0.929,0l-0.548,2.916l2.04,0l0.562,-2.916l0.896,0l-0.562,2.916l1.766,0l0,0.85l-1.933,0Zm-3.384,2.274l2.026,0l0.442,-2.274l-2.027,0l-0.441,2.274Z" style="fill-rule:nonzero;"/><path d="M257.542,83.638l-1.452,-0.001l0,2.248l-1.063,0l0,-2.248l-4.756,0.001l0,-0.97l4.642,-6.616l1.177,0l0,6.575l1.452,0l0,1.01Zm-2.515,-1.01l0,-3.25c0,-0.638 0.022,-1.358 0.067,-2.161l-0.054,0c-0.214,0.428 -0.414,0.783 -0.602,1.064l-3.056,4.347l3.645,0Z" style="fill-rule:nonzero;"/></g></g><g><g><path d="M16.224,15.079l-0.877,0l-0.263,4.691l0.833,0c0.307,-2.63 1.227,-2.806 1.885,-2.806c0.92,0 3.112,0.702 4.077,0.833c-1.973,3.376 -4.559,5.874 -4.559,8.285c0,0.921 0.657,1.447 1.315,1.447c0.657,0 1.315,-0.482 1.403,-1.666c0.306,-3.945 2.761,-6.707 3.638,-10.784l-0.964,0c-0.176,0.57 -0.614,1.009 -1.228,1.009c-1.052,0 -1.271,-1.184 -2.805,-1.184c-1.272,0 -1.754,0.964 -2.148,0.964c-0.307,0 -0.307,-0.263 -0.307,-0.789Z" style="fill-rule:nonzero;"/><path d="M28.279,10.827l-0.965,0l0,17.578l0.439,0c2.367,-2.849 6.049,-2.805 6.049,-6.4c0,-1.841 -1.447,-2.673 -2.849,-2.673c-1.315,0 -2.061,0.745 -2.674,1.358l0,-9.863Zm0,16l0.043,-5.172c0,0 0.746,-0.833 1.754,-0.833c0.789,0 1.534,0.482 1.534,1.753c0,1.973 -1.709,2.718 -3.331,4.252Z" style="fill-rule:nonzero;"/><path d="M17.921,85.885l4.054,-8.756l-5.331,0l0,-1.023l6.508,0l0,0.89l-4,8.889l-1.231,0Z" style="fill-rule:nonzero;"/><path d="M28.436,78.434c0.963,0 1.711,0.328 2.244,0.986c0.533,0.658 0.8,1.589 0.8,2.793c0,1.204 -0.269,2.139 -0.806,2.806c-0.538,0.666 -1.283,1 -2.238,1c-0.477,0 -0.913,-0.088 -1.307,-0.264c-0.395,-0.177 -0.726,-0.448 -0.994,-0.813l-0.08,0l-0.234,0.943l-0.796,0l0,-10.408l1.11,0l0,2.529c0,0.566 -0.018,1.074 -0.053,1.525l0.053,0c0.518,-0.732 1.285,-1.097 2.301,-1.097Zm-0.16,0.929c-0.758,0 -1.305,0.218 -1.639,0.653c-0.334,0.434 -0.502,1.167 -0.502,2.197c0,1.03 0.172,1.767 0.515,2.21c0.344,0.444 0.894,0.666 1.652,0.666c0.683,0 1.191,-0.249 1.526,-0.746c0.334,-0.497 0.501,-1.212 0.501,-2.144c0,-0.954 -0.167,-1.665 -0.501,-2.133c-0.335,-0.469 -0.852,-0.703 -1.552,-0.703Z" style="fill-rule:nonzero;"/></g><g><path d="M49.337,10.827l-0.964,0l0,17.578l0.438,0c2.367,-2.849 6.05,-2.805 6.05,-6.4c0,-1.841 -1.447,-2.673 -2.85,-2.673c-1.315,0 -2.06,0.745 -2.674,1.358l0,-9.863Zm0,16l0.044,-5.172c0,0 0.745,-0.833 1.754,-0.833c0.789,0 1.534,0.482 1.534,1.753c0,1.973 -1.71,2.718 -3.332,4.252Z" style="fill-rule:nonzero;"/><path d="M59.2,15.079l-0.876,0l-0.263,4.691l0.832,0c0.307,-2.63 1.228,-2.806 1.885,-2.806c0.921,0 3.113,0.702 4.077,0.833c-1.973,3.376 -4.559,5.874 -4.559,8.285c0,0.921 0.658,1.447 1.315,1.447c0.658,0 1.315,-0.482 1.403,-1.666c0.307,-3.945 2.762,-6.707 3.638,-10.784l-0.964,0c-0.175,0.57 -0.614,1.009 -1.227,1.009c-1.053,0 -1.272,-1.184 -2.806,-1.184c-1.271,0 -1.753,0.964 -2.148,0.964c-0.307,0 -0.307,-0.263 -0.307,-0.789Z" style="fill-rule:nonzero;"/><path d="M53.747,78.434c0.963,0 1.711,0.328 2.244,0.986c0.533,0.658 0.799,1.589 0.799,2.793c0,1.204 -0.268,2.139 -0.806,2.806c-0.537,0.666 -1.283,1 -2.237,1c-0.477,0 -0.913,-0.088 -1.308,-0.264c-0.394,-0.177 -0.726,-0.448 -0.993,-0.813l-0.08,0l-0.235,0.943l-0.795,0l0,-10.408l1.11,0l0,2.529c0,0.566 -0.018,1.074 -0.054,1.525l0.054,0c0.517,-0.732 1.284,-1.097 2.301,-1.097Zm-0.161,0.929c-0.758,0 -1.304,0.218 -1.638,0.653c-0.335,0.434 -0.502,1.167 -0.502,2.197c0,1.03 0.172,1.767 0.515,2.21c0.343,0.444 0.894,0.666 1.652,0.666c0.682,0 1.191,-0.249 1.525,-0.746c0.335,-0.497 0.502,-1.212 0.502,-2.144c0,-0.954 -0.167,-1.665 -0.502,-2.133c-0.334,-0.469 -0.852,-0.703 -1.552,-0.703Z" style="fill-rule:nonzero;"/><path d="M59.459,85.885l4.053,-8.756l-5.331,0l0,-1.023l6.509,0l0,0.89l-4,8.889l-1.231,0Z" style="fill-rule:nonzero;"/></g></g></svg>