<?xml version="1.0" encoding="UTF-8" standalone="no"?><!DOCTYPE svg PUBLIC "-//W3C//DTD SVG 1.1//EN" "http://www.w3.org/Graphics/SVG/1.1/DTD/svg11.dtd"><svg width="100%" height="100%" viewBox="0 0 172 100" version="1.1" xmlns="http://www.w3.org/2000/svg" xmlns:xlink="http://www.w3.org/1999/xlink" xml:space="preserve" xmlns:serif="http://www.serif.com/" style="fill-rule:evenodd;clip-rule:evenodd;stroke-linejoin:round;stroke-miterlimit:1.41421;"><g><path d="M18.292,19.551c-0.964,0 -1.666,0.263 -2.257,0.548l-0.132,-0.066l0.044,-2.762c0.789,0.088 1.403,0.176 2.104,0.176c2.016,0 3.025,-0.833 3.77,-2.061l-0.219,-0.307c-1.228,0.176 -2.236,0.22 -3.244,0.22c-1.052,0 -2.06,-0.088 -3.332,-0.22l-0.087,6.05l0.57,0.307c0.613,-0.57 1.38,-0.877 2.279,-0.877c1.293,0 2.542,0.789 2.542,2.762c0,2.016 -1.03,3.331 -2.608,3.331c-1.074,0 -1.666,-0.46 -1.666,-1.052c0,-0.57 0.461,-0.789 0.461,-1.468c0,-0.746 -0.548,-1.206 -1.184,-1.206c-0.855,0 -1.468,0.679 -1.468,1.6c0,1.403 1.6,3.047 4.186,3.047c2.586,0 4.603,-1.732 4.603,-4.209c0,-2.367 -2.126,-3.813 -4.362,-3.813Z" style="fill-rule:nonzero;"/><path d="M26.95,12.8l0,4.866l-1.359,0.394l0,2.63l1.359,-0.438l0,4.077l-1.359,0.482l0,2.542l1.359,-0.438l0,4.208l0.876,0l0,-4.515l2.718,-0.833l0,4.34l0.877,0l0,-4.69l1.359,-0.483l0,-2.586l-1.359,0.439l0,-4.077l1.359,-0.482l0,-2.587l-1.359,0.439l0,-4.209l-0.877,0l0,4.603l-2.718,0.789l0,-4.471l-0.876,0Zm3.594,6.225l0,4.164l-2.718,0.833l0,-4.164l2.718,-0.833Z" style="fill-rule:nonzero;"/><g><path d="M18.439,79.912c1.03,0 1.841,0.255 2.432,0.766c0.591,0.51 0.886,1.209 0.886,2.097c0,1.012 -0.322,1.806 -0.966,2.381c-0.645,0.575 -1.533,0.863 -2.666,0.863c-1.101,0 -1.942,-0.176 -2.522,-0.529l0,-1.07c0.312,0.201 0.7,0.358 1.164,0.472c0.464,0.113 0.921,0.17 1.371,0.17c0.785,0 1.395,-0.185 1.83,-0.555c0.435,-0.37 0.652,-0.905 0.652,-1.605c0,-1.365 -0.836,-2.047 -2.508,-2.047c-0.424,0 -0.99,0.065 -1.699,0.194l-0.576,-0.368l0.368,-4.575l4.863,0l0,1.023l-3.913,0l-0.247,2.937c0.512,-0.103 1.023,-0.154 1.531,-0.154Z" style="fill-rule:nonzero;"/><path d="M29.108,79.872l-0.441,2.274l1.892,0l0,0.863l-2.053,0l-0.562,2.876l-0.916,0l0.562,-2.876l-2.027,0l-0.549,2.876l-0.909,0l0.535,-2.876l-1.753,0l0,-0.863l1.92,0l0.455,-2.274l-1.853,0l0,-0.85l2,0l0.549,-2.916l0.929,0l-0.548,2.916l2.04,0l0.562,-2.916l0.896,0l-0.562,2.916l1.766,0l0,0.85l-1.933,0Zm-3.385,2.274l2.027,0l0.442,-2.274l-2.027,0l-0.442,2.274Z" style="fill-rule:nonzero;"/></g></g><g><path d="M54.601,19.551c-0.964,0 -1.665,0.263 -2.257,0.548l-0.132,-0.066l0.044,-2.762c0.789,0.088 1.403,0.176 2.104,0.176c2.017,0 3.025,-0.833 3.77,-2.061l-0.219,-0.307c-1.227,0.176 -2.236,0.22 -3.244,0.22c-1.052,0 -2.06,-0.088 -3.331,-0.22l-0.088,6.05l0.57,0.307c0.614,-0.57 1.381,-0.877 2.279,-0.877c1.293,0 2.543,0.789 2.543,2.762c0,2.016 -1.03,3.331 -2.608,3.331c-1.074,0 -1.666,-0.46 -1.666,-1.052c0,-0.57 0.46,-0.789 0.46,-1.468c0,-0.746 -0.548,-1.206 -1.183,-1.206c-0.855,0 -1.469,0.679 -1.469,1.6c0,1.403 1.6,3.047 4.186,3.047c2.587,0 4.603,-1.732 4.603,-4.209c0,-2.367 -2.126,-3.813 -4.362,-3.813Z" style="fill-rule:nonzero;"/><path d="M52.3,30.992l0,4.866l-1.359,0.394l0,2.63l1.359,-0.438l0,4.077l-1.359,0.482l0,2.542l1.359,-0.438l0,4.208l0.877,0l0,-4.515l2.718,-0.833l0,4.34l0.876,0l0,-4.691l1.359,-0.482l0,-2.586l-1.359,0.438l0,-4.076l1.359,-0.483l0,-2.586l-1.359,0.438l0,-4.208l-0.876,0l0,4.603l-2.718,0.789l0,-4.471l-0.877,0Zm3.595,6.224l0,4.165l-2.718,0.833l0,-4.165l2.718,-0.833Z" style="fill-rule:nonzero;"/><g><path d="M48.007,79.912c1.03,0 1.84,0.255 2.431,0.766c0.591,0.51 0.887,1.209 0.887,2.097c0,1.012 -0.323,1.806 -0.967,2.381c-0.644,0.575 -1.533,0.863 -2.665,0.863c-1.102,0 -1.942,-0.176 -2.522,-0.529l0,-1.07c0.312,0.201 0.7,0.358 1.164,0.472c0.463,0.113 0.921,0.17 1.371,0.17c0.785,0 1.395,-0.185 1.829,-0.555c0.435,-0.37 0.652,-0.905 0.652,-1.605c0,-1.365 -0.836,-2.047 -2.508,-2.047c-0.423,0 -0.99,0.065 -1.699,0.194l-0.575,-0.368l0.368,-4.575l4.863,0l0,1.023l-3.913,0l-0.248,2.937c0.513,-0.103 1.024,-0.154 1.532,-0.154Z" style="fill-rule:nonzero;"/><path d="M54.455,84.293l0.1,0.154c-0.116,0.446 -0.283,0.964 -0.501,1.555c-0.219,0.591 -0.446,1.14 -0.683,1.649l-0.836,0c0.121,-0.464 0.253,-1.037 0.398,-1.719c0.145,-0.683 0.247,-1.229 0.305,-1.639l1.217,0Z" style="fill-rule:nonzero;"/><path d="M62.033,79.872l-0.441,2.274l1.893,0l0,0.863l-2.054,0l-0.562,2.876l-0.916,0l0.562,-2.876l-2.027,0l-0.548,2.876l-0.91,0l0.535,-2.876l-1.752,0l0,-0.863l1.919,0l0.455,-2.274l-1.853,0l0,-0.85l2,0l0.549,-2.916l0.93,0l-0.549,2.916l2.04,0l0.562,-2.916l0.896,0l-0.562,2.916l1.766,0l0,0.85l-1.933,0Zm-3.384,2.274l2.026,0l0.442,-2.274l-2.027,0l-0.441,2.274Z" style="fill-rule:nonzero;"/></g></g><g><path d="M104.018,19.551c-0.964,0 -1.666,0.263 -2.257,0.548l-0.132,-0.066l0.044,-2.762c0.789,0.088 1.403,0.176 2.104,0.176c2.017,0 3.025,-0.833 3.77,-2.061l-0.219,-0.307c-1.228,0.176 -2.236,0.22 -3.244,0.22c-1.052,0 -2.06,-0.088 -3.332,-0.22l-0.087,6.05l0.57,0.307c0.613,-0.57 1.38,-0.877 2.279,-0.877c1.293,0 2.543,0.789 2.543,2.762c0,2.016 -1.031,3.331 -2.609,3.331c-1.074,0 -1.665,-0.46 -1.665,-1.052c0,-0.57 0.46,-0.789 0.46,-1.468c0,-0.746 -0.548,-1.206 -1.184,-1.206c-0.854,0 -1.468,0.679 -1.468,1.6c0,1.403 1.6,3.047 4.186,3.047c2.586,0 4.603,-1.732 4.603,-4.209c0,-2.367 -2.126,-3.813 -4.362,-3.813Z" style="fill-rule:nonzero;"/><path d="M112.15,11.463l0,15.825l4.208,-0.921l-0.088,5.83l0.965,0l0,-15.781l-4.209,1.009l0,-5.962l-0.876,0Zm0.876,8.767l3.332,-0.745l0,3.945l-3.332,0.789l0,-3.989Z" style="fill-rule:nonzero;"/><path d="M101.717,30.992l0,4.866l-1.359,0.394l0,2.63l1.359,-0.438l0,4.077l-1.359,0.482l0,2.542l1.359,-0.438l0,4.208l0.877,0l0,-4.515l2.717,-0.833l0,4.34l0.877,0l0,-4.691l1.359,-0.482l0,-2.586l-1.359,0.438l0,-4.076l1.359,-0.483l0,-2.586l-1.359,0.438l0,-4.208l-0.877,0l0,4.603l-2.717,0.789l0,-4.471l-0.877,0Zm3.594,6.224l0,4.165l-2.717,0.833l0,-4.165l2.717,-0.833Z" style="fill-rule:nonzero;"/><g><path d="M97.956,79.912c1.03,0 1.841,0.255 2.432,0.766c0.59,0.51 0.886,1.209 0.886,2.097c0,1.012 -0.322,1.806 -0.967,2.381c-0.644,0.575 -1.533,0.863 -2.665,0.863c-1.102,0 -1.942,-0.176 -2.522,-0.529l0,-1.07c0.312,0.201 0.7,0.358 1.164,0.472c0.464,0.113 0.921,0.17 1.371,0.17c0.785,0 1.395,-0.185 1.83,-0.555c0.434,-0.37 0.652,-0.905 0.652,-1.605c0,-1.365 -0.836,-2.047 -2.509,-2.047c-0.423,0 -0.99,0.065 -1.699,0.194l-0.575,-0.368l0.368,-4.575l4.863,0l0,1.023l-3.913,0l-0.248,2.937c0.513,-0.103 1.024,-0.154 1.532,-0.154Z" style="fill-rule:nonzero;"/><path d="M108.257,85.885l0,-4.742c0,-0.598 -0.136,-1.044 -0.408,-1.338c-0.272,-0.294 -0.698,-0.442 -1.278,-0.442c-0.767,0 -1.329,0.208 -1.685,0.622c-0.357,0.415 -0.535,1.1 -0.535,2.054l0,3.846l-1.111,0l0,-7.331l0.903,0l0.181,1.003l0.053,0c0.228,-0.361 0.547,-0.641 0.957,-0.839c0.41,-0.199 0.867,-0.298 1.371,-0.298c0.883,0 1.547,0.213 1.993,0.639c0.446,0.426 0.669,1.107 0.669,2.043l0,4.783l-1.11,0Z" style="fill-rule:nonzero;"/><path d="M117.033,79.872l-0.442,2.274l1.893,0l0,0.863l-2.053,0l-0.562,2.876l-0.917,0l0.562,-2.876l-2.026,0l-0.549,2.876l-0.91,0l0.535,-2.876l-1.752,0l0,-0.863l1.92,0l0.455,-2.274l-1.853,0l0,-0.85l2,0l0.548,-2.916l0.93,0l-0.549,2.916l2.041,0l0.561,-2.916l0.897,0l-0.562,2.916l1.766,0l0,0.85l-1.933,0Zm-3.385,2.274l2.027,0l0.441,-2.274l-2.026,0l-0.442,2.274Z" style="fill-rule:nonzero;"/></g></g><g><path d="M140.258,19.551c-0.964,0 -1.665,0.263 -2.257,0.548l-0.132,-0.066l0.044,-2.762c0.789,0.088 1.403,0.176 2.104,0.176c2.017,0 3.025,-0.833 3.77,-2.061l-0.219,-0.307c-1.227,0.176 -2.236,0.22 -3.244,0.22c-1.052,0 -2.06,-0.088 -3.331,-0.22l-0.088,6.05l0.57,0.307c0.614,-0.57 1.381,-0.877 2.279,-0.877c1.293,0 2.543,0.789 2.543,2.762c0,2.016 -1.03,3.331 -2.608,3.331c-1.074,0 -1.666,-0.46 -1.666,-1.052c0,-0.57 0.46,-0.789 0.46,-1.468c0,-0.746 -0.548,-1.206 -1.183,-1.206c-0.855,0 -1.469,0.679 -1.469,1.6c0,1.403 1.6,3.047 4.186,3.047c2.587,0 4.603,-1.732 4.603,-4.209c0,-2.367 -2.126,-3.813 -4.362,-3.813Z" style="fill-rule:nonzero;"/><path d="M148.39,11.463l0,15.825l4.208,-0.921l-0.088,5.83l0.965,0l0,-15.781l-4.208,1.009l0,-5.962l-0.877,0Zm0.877,8.767l3.331,-0.745l0,3.945l-3.331,0.789l0,-3.989Z" style="fill-rule:nonzero;"/><path d="M137.957,44.8l0,4.866l-1.359,0.394l0,2.63l1.359,-0.438l0,4.077l-1.359,0.482l0,2.542l1.359,-0.438l0,4.208l0.877,0l0,-4.515l2.718,-0.833l0,4.34l0.876,0l0,-4.69l1.359,-0.483l0,-2.586l-1.359,0.439l0,-4.077l1.359,-0.482l0,-2.587l-1.359,0.439l0,-4.209l-0.876,0l0,4.603l-2.718,0.789l0,-4.471l-0.877,0Zm3.595,6.225l0,4.164l-2.718,0.833l0,-4.164l2.718,-0.833Z" style="fill-rule:nonzero;"/><g><path d="M133.001,79.912c1.03,0 1.84,0.255 2.431,0.766c0.591,0.51 0.887,1.209 0.887,2.097c0,1.012 -0.323,1.806 -0.967,2.381c-0.644,0.575 -1.533,0.863 -2.665,0.863c-1.102,0 -1.942,-0.176 -2.522,-0.529l0,-1.07c0.312,0.201 0.7,0.358 1.164,0.472c0.464,0.113 0.921,0.17 1.371,0.17c0.785,0 1.395,-0.185 1.829,-0.555c0.435,-0.37 0.653,-0.905 0.653,-1.605c0,-1.365 -0.837,-2.047 -2.509,-2.047c-0.423,0 -0.99,0.065 -1.699,0.194l-0.575,-0.368l0.368,-4.575l4.863,0l0,1.023l-3.913,0l-0.248,2.937c0.513,-0.103 1.024,-0.154 1.532,-0.154Z" style="fill-rule:nonzero;"/><path d="M143.302,85.885l0,-4.742c0,-0.598 -0.136,-1.044 -0.408,-1.338c-0.272,-0.294 -0.698,-0.442 -1.278,-0.442c-0.767,0 -1.329,0.208 -1.685,0.622c-0.357,0.415 -0.536,1.1 -0.536,2.054l0,3.846l-1.11,0l0,-7.331l0.903,0l0.181,1.003l0.053,0c0.228,-0.361 0.546,-0.641 0.957,-0.839c0.41,-0.199 0.867,-0.298 1.371,-0.298c0.883,0 1.547,0.213 1.993,0.639c0.446,0.426 0.669,1.107 0.669,2.043l0,4.783l-1.11,0Z" style="fill-rule:nonzero;"/><path d="M147.857,84.293l0.1,0.154c-0.116,0.446 -0.283,0.964 -0.502,1.555c-0.218,0.591 -0.445,1.14 -0.682,1.649l-0.836,0c0.12,-0.464 0.253,-1.037 0.398,-1.719c0.145,-0.683 0.246,-1.229 0.304,-1.639l1.218,0Z" style="fill-rule:nonzero;"/><path d="M155.435,79.872l-0.441,2.274l1.893,0l0,0.863l-2.054,0l-0.562,2.876l-0.916,0l0.562,-2.876l-2.027,0l-0.548,2.876l-0.91,0l0.535,-2.876l-1.752,0l0,-0.863l1.919,0l0.455,-2.274l-1.853,0l0,-0.85l2,0l0.549,-2.916l0.929,0l-0.548,2.916l2.04,0l0.562,-2.916l0.896,0l-0.562,2.916l1.766,0l0,0.85l-1.933,0Zm-3.384,2.274l2.026,0l0.442,-2.274l-2.027,0l-0.441,2.274Z" style="fill-rule:nonzero;"/></g></g></svg>