<?xml version="1.0" encoding="UTF-8" standalone="no"?><!DOCTYPE svg PUBLIC "-//W3C//DTD SVG 1.1//EN" "http://www.w3.org/Graphics/SVG/1.1/DTD/svg11.dtd"><svg width="100%" height="100%" viewBox="0 0 200 73" version="1.1" xmlns="http://www.w3.org/2000/svg" xmlns:xlink="http://www.w3.org/1999/xlink" xml:space="preserve" xmlns:serif="http://www.serif.com/" style="fill-rule:evenodd;clip-rule:evenodd;stroke-linejoin:round;stroke-miterlimit:1.41421;"><g><g><path d="M74.17,13.632c0.592,0 0.912,-0.448 0.912,-1.008c0,-0.832 -0.896,-1.744 -2.464,-1.744c-1.76,0 -3.52,1.664 -3.52,4.704c0,2.304 0.992,4.544 3.392,4.544c1.76,0 3.104,-1.216 3.104,-2.88c0,-1.408 -1.152,-2.624 -2.912,-2.624c-0.896,0 -1.6,0.416 -2.048,0.96c0,-1.92 0.256,-4.032 2.016,-4.032c0.432,0 0.704,0.208 0.704,0.464c0,0.24 -0.096,0.464 -0.096,0.704c0,0.528 0.352,0.912 0.912,0.912Zm-1.68,1.728c0.992,0 1.472,0.768 1.472,1.92c0,1.216 -0.576,2.144 -1.664,2.144c-0.96,0 -1.504,-0.736 -1.504,-1.984c0,-1.216 0.672,-2.08 1.696,-2.08Z" style="fill-rule:nonzero;"/><path d="M78.33,8.368l0,11.552l3.072,-0.672l-0.064,4.256l0.704,0l0,-11.52l-3.072,0.736l0,-4.352l-0.64,0Zm0.64,6.4l2.432,-0.544l0,2.88l-2.432,0.576l0,-2.912Z" style="fill-rule:nonzero;"/><path d="M74.394,29.024l1.472,0l0,-0.736l-1.472,0l0,-3.36l-1.472,1.568l0,1.792l-3.232,0c1.632,-2.432 2.464,-3.52 3.488,-5.6l-2.128,0c-0.544,2.112 -1.2,3.84 -2.32,5.696l0,0.64l4.192,0l0,1.12c0,0.672 -0.592,0.896 -1.04,0.896l-0.32,0l0,0.64l4.032,0l0,-0.64c-0.624,0 -1.2,-0.192 -1.2,-0.896l0,-1.12Z" style="fill-rule:nonzero;"/><path d="M67.062,59.644c0,-1.403 0.273,-2.452 0.818,-3.147c0.545,-0.695 1.351,-1.042 2.419,-1.042c0.368,0 0.658,0.031 0.869,0.093l0,0.698c-0.25,-0.082 -0.537,-0.122 -0.859,-0.122c-0.765,0 -1.349,0.238 -1.753,0.715c-0.404,0.477 -0.625,1.226 -0.664,2.249l0.059,0c0.358,-0.56 0.924,-0.84 1.699,-0.84c0.641,0 1.146,0.193 1.516,0.581c0.369,0.387 0.554,0.913 0.554,1.577c0,0.742 -0.203,1.326 -0.608,1.75c-0.405,0.425 -0.953,0.638 -1.643,0.638c-0.739,0 -1.325,-0.278 -1.758,-0.833c-0.433,-0.555 -0.649,-1.327 -0.649,-2.317Zm2.397,2.461c0.463,0 0.821,-0.145 1.077,-0.437c0.256,-0.291 0.383,-0.712 0.383,-1.262c0,-0.472 -0.118,-0.843 -0.356,-1.113c-0.238,-0.271 -0.593,-0.406 -1.065,-0.406c-0.293,0 -0.561,0.061 -0.805,0.181c-0.244,0.121 -0.439,0.287 -0.584,0.498c-0.145,0.212 -0.217,0.431 -0.217,0.659c0,0.336 0.065,0.648 0.195,0.938c0.13,0.29 0.315,0.519 0.554,0.688c0.24,0.17 0.512,0.254 0.818,0.254Z" style="fill-rule:nonzero;"/><path d="M76.73,62.696l0,-3.462c0,-0.436 -0.099,-0.762 -0.298,-0.976c-0.199,-0.215 -0.509,-0.323 -0.933,-0.323c-0.559,0 -0.97,0.152 -1.23,0.454c-0.26,0.303 -0.391,0.803 -0.391,1.499l0,2.808l-0.81,0l0,-5.352l0.659,0l0.132,0.733l0.039,0c0.166,-0.264 0.399,-0.468 0.698,-0.613c0.3,-0.145 0.633,-0.217 1.001,-0.217c0.645,0 1.13,0.155 1.455,0.466c0.326,0.311 0.488,0.808 0.488,1.492l0,3.491l-0.81,0Z" style="fill-rule:nonzero;"/><path d="M83.864,61.055l-1.06,0l0,1.641l-0.776,0l0,-1.641l-3.472,0l0,-0.708l3.389,-4.829l0.859,0l0,4.8l1.06,0l0,0.737Zm-1.836,-0.737l0,-2.373c0,-0.465 0.016,-0.991 0.049,-1.577l-0.04,0c-0.156,0.312 -0.302,0.571 -0.439,0.776l-2.231,3.174l2.661,0Z" style="fill-rule:nonzero;"/></g><g><path d="M105.817,13.632c0.592,0 0.912,-0.448 0.912,-1.008c0,-0.832 -0.896,-1.744 -2.464,-1.744c-1.76,0 -3.52,1.664 -3.52,4.704c0,2.304 0.992,4.544 3.392,4.544c1.76,0 3.104,-1.216 3.104,-2.88c0,-1.408 -1.152,-2.624 -2.912,-2.624c-0.896,0 -1.6,0.416 -2.048,0.96c0,-1.92 0.256,-4.032 2.016,-4.032c0.432,0 0.704,0.208 0.704,0.464c0,0.24 -0.096,0.464 -0.096,0.704c0,0.528 0.352,0.912 0.912,0.912Zm-1.68,1.728c0.992,0 1.472,0.768 1.472,1.92c0,1.216 -0.576,2.144 -1.664,2.144c-0.96,0 -1.504,-0.736 -1.504,-1.984c0,-1.216 0.672,-2.08 1.696,-2.08Z" style="fill-rule:nonzero;"/><path d="M94.297,20.048l0,11.552l3.072,-0.672l-0.064,4.256l0.704,0l0,-11.52l-3.072,0.736l0,-4.352l-0.64,0Zm0.64,6.4l2.432,-0.544l0,2.88l-2.432,0.576l0,-2.912Z" style="fill-rule:nonzero;"/><path d="M106.041,29.024l1.472,0l0,-0.736l-1.472,0l0,-3.36l-1.472,1.568l0,1.792l-3.232,0c1.632,-2.432 2.464,-3.52 3.488,-5.6l-2.128,0c-0.544,2.112 -1.2,3.84 -2.32,5.696l0,0.64l4.192,0l0,1.12c0,0.672 -0.592,0.896 -1.04,0.896l-0.32,0l0,0.64l4.032,0l0,-0.64c-0.624,0 -1.2,-0.192 -1.2,-0.896l0,-1.12Z" style="fill-rule:nonzero;"/><path d="M93.82,59.644c0,-1.403 0.273,-2.452 0.818,-3.147c0.546,-0.695 1.352,-1.042 2.42,-1.042c0.368,0 0.657,0.031 0.869,0.093l0,0.698c-0.251,-0.082 -0.537,-0.122 -0.859,-0.122c-0.765,0 -1.35,0.238 -1.753,0.715c-0.404,0.477 -0.625,1.226 -0.664,2.249l0.058,0c0.358,-0.56 0.925,-0.84 1.699,-0.84c0.642,0 1.147,0.193 1.516,0.581c0.37,0.387 0.555,0.913 0.555,1.577c0,0.742 -0.203,1.326 -0.608,1.75c-0.406,0.425 -0.953,0.638 -1.643,0.638c-0.739,0 -1.325,-0.278 -1.758,-0.833c-0.433,-0.555 -0.65,-1.327 -0.65,-2.317Zm2.398,2.461c0.462,0 0.821,-0.145 1.077,-0.437c0.255,-0.291 0.383,-0.712 0.383,-1.262c0,-0.472 -0.119,-0.843 -0.357,-1.113c-0.237,-0.271 -0.592,-0.406 -1.064,-0.406c-0.293,0 -0.562,0.061 -0.806,0.181c-0.244,0.121 -0.438,0.287 -0.583,0.498c-0.145,0.212 -0.217,0.431 -0.217,0.659c0,0.336 0.065,0.648 0.195,0.938c0.13,0.29 0.315,0.519 0.554,0.688c0.239,0.17 0.512,0.254 0.818,0.254Z" style="fill-rule:nonzero;"/><path d="M100.676,61.534l0.073,0.112c-0.084,0.326 -0.207,0.704 -0.366,1.135c-0.16,0.432 -0.326,0.833 -0.498,1.204l-0.61,0c0.087,-0.338 0.184,-0.757 0.29,-1.255c0.106,-0.498 0.18,-0.897 0.222,-1.196l0.889,0Z" style="fill-rule:nonzero;"/><path d="M105.94,62.696l0,-3.462c0,-0.436 -0.1,-0.762 -0.298,-0.976c-0.199,-0.215 -0.51,-0.323 -0.933,-0.323c-0.56,0 -0.97,0.152 -1.23,0.454c-0.261,0.303 -0.391,0.803 -0.391,1.499l0,2.808l-0.811,0l0,-5.352l0.66,0l0.132,0.733l0.039,0c0.166,-0.264 0.398,-0.468 0.698,-0.613c0.299,-0.145 0.633,-0.217 1.001,-0.217c0.644,0 1.129,0.155 1.455,0.466c0.325,0.311 0.488,0.808 0.488,1.492l0,3.491l-0.81,0Z" style="fill-rule:nonzero;"/><path d="M113.073,61.055l-1.059,0l0,1.641l-0.777,0l0,-1.641l-3.471,0l0,-0.708l3.388,-4.829l0.86,0l0,4.8l1.059,0l0,0.737Zm-1.836,-0.737l0,-2.373c0,-0.465 0.017,-0.991 0.049,-1.577l-0.039,0c-0.156,0.312 -0.303,0.571 -0.439,0.776l-2.232,3.174l2.661,0Z" style="fill-rule:nonzero;"/></g></g><g><g><path d="M144.398,13.632c0.592,0 0.912,-0.448 0.912,-1.008c0,-0.832 -0.896,-1.744 -2.464,-1.744c-1.76,0 -3.52,1.664 -3.52,4.704c0,2.304 0.992,4.544 3.392,4.544c1.76,0 3.104,-1.216 3.104,-2.88c0,-1.408 -1.152,-2.624 -2.912,-2.624c-0.896,0 -1.6,0.416 -2.048,0.96c0,-1.92 0.256,-4.032 2.016,-4.032c0.432,0 0.704,0.208 0.704,0.464c0,0.24 -0.096,0.464 -0.096,0.704c0,0.528 0.352,0.912 0.912,0.912Zm-1.68,1.728c0.992,0 1.472,0.768 1.472,1.92c0,1.216 -0.576,2.144 -1.664,2.144c-0.96,0 -1.504,-0.736 -1.504,-1.984c0,-1.216 0.672,-2.08 1.696,-2.08Z" style="fill-rule:nonzero;"/><path d="M148.558,8.368l0,11.552l3.072,-0.672l-0.064,4.256l0.704,0l0,-11.52l-3.072,0.736l0,-4.352l-0.64,0Zm0.64,6.4l2.432,-0.544l0,2.88l-2.432,0.576l0,-2.912Z" style="fill-rule:nonzero;"/><path d="M132.942,21.024l0,3.552l-0.992,0.288l0,1.92l0.992,-0.32l0,2.976l-0.992,0.352l0,1.856l0.992,-0.32l0,3.072l0.64,0l0,-3.296l1.984,-0.608l0,3.168l0.64,0l0,-3.424l0.992,-0.352l0,-1.888l-0.992,0.32l0,-2.976l0.992,-0.352l0,-1.888l-0.992,0.32l0,-3.072l-0.64,0l0,3.36l-1.984,0.576l0,-3.264l-0.64,0Zm2.624,4.544l0,3.04l-1.984,0.608l0,-3.04l1.984,-0.608Z" style="fill-rule:nonzero;"/><path d="M144.622,29.024l1.472,0l0,-0.736l-1.472,0l0,-3.36l-1.472,1.568l0,1.792l-3.232,0c1.632,-2.432 2.464,-3.52 3.488,-5.6l-2.128,0c-0.544,2.112 -1.2,3.84 -2.32,5.696l0,0.64l4.192,0l0,1.12c0,0.672 -0.592,0.896 -1.04,0.896l-0.32,0l0,0.64l4.032,0l0,-0.64c-0.624,0 -1.2,-0.192 -1.2,-0.896l0,-1.12Z" style="fill-rule:nonzero;"/><path d="M131.479,59.644c0,-1.403 0.273,-2.452 0.818,-3.147c0.545,-0.695 1.352,-1.042 2.419,-1.042c0.368,0 0.658,0.031 0.87,0.093l0,0.698c-0.251,-0.082 -0.538,-0.122 -0.86,-0.122c-0.765,0 -1.349,0.238 -1.753,0.715c-0.403,0.477 -0.625,1.226 -0.664,2.249l0.059,0c0.358,-0.56 0.924,-0.84 1.699,-0.84c0.641,0 1.147,0.193 1.516,0.581c0.37,0.387 0.554,0.913 0.554,1.577c0,0.742 -0.202,1.326 -0.608,1.75c-0.405,0.425 -0.953,0.638 -1.643,0.638c-0.739,0 -1.325,-0.278 -1.757,-0.833c-0.433,-0.555 -0.65,-1.327 -0.65,-2.317Zm2.398,2.461c0.462,0 0.821,-0.145 1.076,-0.437c0.256,-0.291 0.384,-0.712 0.384,-1.262c0,-0.472 -0.119,-0.843 -0.357,-1.113c-0.238,-0.271 -0.592,-0.406 -1.064,-0.406c-0.293,0 -0.562,0.061 -0.806,0.181c-0.244,0.121 -0.439,0.287 -0.584,0.498c-0.144,0.212 -0.217,0.431 -0.217,0.659c0,0.336 0.065,0.648 0.195,0.938c0.131,0.29 0.315,0.519 0.555,0.688c0.239,0.17 0.512,0.254 0.818,0.254Z" style="fill-rule:nonzero;"/><path d="M141.147,62.696l0,-3.462c0,-0.436 -0.099,-0.762 -0.298,-0.976c-0.198,-0.215 -0.509,-0.323 -0.932,-0.323c-0.56,0 -0.97,0.152 -1.231,0.454c-0.26,0.303 -0.391,0.803 -0.391,1.499l0,2.808l-0.81,0l0,-5.352l0.659,0l0.132,0.733l0.039,0c0.166,-0.264 0.399,-0.468 0.698,-0.613c0.3,-0.145 0.633,-0.217 1.001,-0.217c0.645,0 1.13,0.155 1.455,0.466c0.326,0.311 0.489,0.808 0.489,1.492l0,3.491l-0.811,0Z" style="fill-rule:nonzero;"/><path d="M147.553,58.306l-0.322,1.661l1.382,0l0,0.629l-1.499,0l-0.41,2.1l-0.669,0l0.41,-2.1l-1.48,0l-0.4,2.1l-0.664,0l0.391,-2.1l-1.28,0l0,-0.629l1.402,0l0.332,-1.661l-1.353,0l0,-0.62l1.46,0l0.401,-2.129l0.678,0l-0.4,2.129l1.489,0l0.41,-2.129l0.655,0l-0.411,2.129l1.289,0l0,0.62l-1.411,0Zm-2.47,1.661l1.479,0l0.322,-1.661l-1.479,0l-0.322,1.661Z" style="fill-rule:nonzero;"/><path d="M154.741,61.055l-1.06,0l0,1.641l-0.776,0l0,-1.641l-3.472,0l0,-0.708l3.389,-4.829l0.859,0l0,4.8l1.06,0l0,0.737Zm-1.836,-0.737l0,-2.373c0,-0.465 0.016,-0.991 0.049,-1.577l-0.039,0c-0.157,0.312 -0.303,0.571 -0.44,0.776l-2.231,3.174l2.661,0Z" style="fill-rule:nonzero;"/></g><g><path d="M176.52,13.632c0.592,0 0.912,-0.448 0.912,-1.008c0,-0.832 -0.896,-1.744 -2.464,-1.744c-1.76,0 -3.52,1.664 -3.52,4.704c0,2.304 0.992,4.544 3.392,4.544c1.76,0 3.104,-1.216 3.104,-2.88c0,-1.408 -1.152,-2.624 -2.912,-2.624c-0.896,0 -1.6,0.416 -2.048,0.96c0,-1.92 0.256,-4.032 2.016,-4.032c0.432,0 0.704,0.208 0.704,0.464c0,0.24 -0.096,0.464 -0.096,0.704c0,0.528 0.352,0.912 0.912,0.912Zm-1.68,1.728c0.992,0 1.472,0.768 1.472,1.92c0,1.216 -0.576,2.144 -1.664,2.144c-0.96,0 -1.504,-0.736 -1.504,-1.984c0,-1.216 0.672,-2.08 1.696,-2.08Z" style="fill-rule:nonzero;"/><path d="M180.68,8.368l0,11.552l3.072,-0.672l-0.064,4.256l0.704,0l0,-11.52l-3.072,0.736l0,-4.352l-0.64,0Zm0.64,6.4l2.432,-0.544l0,2.88l-2.432,0.576l0,-2.912Z" style="fill-rule:nonzero;"/><path d="M165.064,32.704l0,3.552l-0.992,0.288l0,1.92l0.992,-0.32l0,2.976l-0.992,0.352l0,1.856l0.992,-0.32l0,3.072l0.64,0l0,-3.296l1.984,-0.608l0,3.168l0.64,0l0,-3.424l0.992,-0.352l0,-1.888l-0.992,0.32l0,-2.976l0.992,-0.352l0,-1.888l-0.992,0.32l0,-3.072l-0.64,0l0,3.36l-1.984,0.576l0,-3.264l-0.64,0Zm2.624,4.544l0,3.04l-1.984,0.608l0,-3.04l1.984,-0.608Z" style="fill-rule:nonzero;"/><path d="M176.744,40.704l1.472,0l0,-0.736l-1.472,0l0,-3.36l-1.472,1.568l0,1.792l-3.232,0c1.632,-2.432 2.464,-3.52 3.488,-5.6l-2.128,0c-0.544,2.112 -1.2,3.84 -2.32,5.696l0,0.64l4.192,0l0,1.12c0,0.672 -0.592,0.896 -1.04,0.896l-0.32,0l0,0.64l4.032,0l0,-0.64c-0.624,0 -1.2,-0.192 -1.2,-0.896l0,-1.12Z" style="fill-rule:nonzero;"/><path d="M162.293,59.644c0,-1.403 0.272,-2.452 0.818,-3.147c0.545,-0.695 1.351,-1.042 2.419,-1.042c0.368,0 0.658,0.031 0.869,0.093l0,0.698c-0.25,-0.082 -0.537,-0.122 -0.859,-0.122c-0.765,0 -1.349,0.238 -1.753,0.715c-0.404,0.477 -0.625,1.226 -0.664,2.249l0.058,0c0.358,-0.56 0.925,-0.84 1.7,-0.84c0.641,0 1.146,0.193 1.516,0.581c0.369,0.387 0.554,0.913 0.554,1.577c0,0.742 -0.203,1.326 -0.608,1.75c-0.405,0.425 -0.953,0.638 -1.643,0.638c-0.739,0 -1.325,-0.278 -1.758,-0.833c-0.433,-0.555 -0.649,-1.327 -0.649,-2.317Zm2.397,2.461c0.462,0 0.821,-0.145 1.077,-0.437c0.255,-0.291 0.383,-0.712 0.383,-1.262c0,-0.472 -0.119,-0.843 -0.356,-1.113c-0.238,-0.271 -0.593,-0.406 -1.065,-0.406c-0.293,0 -0.561,0.061 -0.805,0.181c-0.245,0.121 -0.439,0.287 -0.584,0.498c-0.145,0.212 -0.217,0.431 -0.217,0.659c0,0.336 0.065,0.648 0.195,0.938c0.13,0.29 0.315,0.519 0.554,0.688c0.24,0.17 0.512,0.254 0.818,0.254Z" style="fill-rule:nonzero;"/><path d="M171.961,62.696l0,-3.462c0,-0.436 -0.1,-0.762 -0.298,-0.976c-0.199,-0.215 -0.51,-0.323 -0.933,-0.323c-0.56,0 -0.97,0.152 -1.23,0.454c-0.261,0.303 -0.391,0.803 -0.391,1.499l0,2.808l-0.81,0l0,-5.352l0.659,0l0.132,0.733l0.039,0c0.166,-0.264 0.398,-0.468 0.698,-0.613c0.299,-0.145 0.633,-0.217 1.001,-0.217c0.644,0 1.129,0.155 1.455,0.466c0.325,0.311 0.488,0.808 0.488,1.492l0,3.491l-0.81,0Z" style="fill-rule:nonzero;"/><path d="M175.286,61.534l0.073,0.112c-0.084,0.326 -0.207,0.704 -0.366,1.135c-0.16,0.432 -0.326,0.833 -0.498,1.204l-0.61,0c0.087,-0.338 0.184,-0.757 0.29,-1.255c0.106,-0.498 0.18,-0.897 0.222,-1.196l0.889,0Z" style="fill-rule:nonzero;"/><path d="M180.818,58.306l-0.322,1.661l1.382,0l0,0.629l-1.499,0l-0.41,2.1l-0.669,0l0.41,-2.1l-1.48,0l-0.4,2.1l-0.664,0l0.39,-2.1l-1.279,0l0,-0.629l1.401,0l0.333,-1.661l-1.353,0l0,-0.62l1.46,0l0.4,-2.129l0.679,0l-0.4,2.129l1.489,0l0.41,-2.129l0.654,0l-0.41,2.129l1.289,0l0,0.62l-1.411,0Zm-2.471,1.661l1.48,0l0.322,-1.661l-1.479,0l-0.323,1.661Z" style="fill-rule:nonzero;"/><path d="M188.006,61.055l-1.06,0l0,1.641l-0.776,0l0,-1.641l-3.472,0l0,-0.708l3.389,-4.829l0.859,0l0,4.8l1.06,0l0,0.737Zm-1.836,-0.737l0,-2.373c0,-0.465 0.016,-0.991 0.049,-1.577l-0.04,0c-0.156,0.312 -0.302,0.571 -0.439,0.776l-2.231,3.174l2.661,0Z" style="fill-rule:nonzero;"/></g></g><g><g><path d="M11.843,11.008l-0.64,0l-0.192,3.424l0.608,0c0.224,-1.92 0.896,-2.048 1.376,-2.048c0.672,0 2.272,0.512 2.976,0.608c-1.44,2.464 -3.328,4.288 -3.328,6.048c0,0.672 0.48,1.056 0.96,1.056c0.48,0 0.96,-0.352 1.024,-1.216c0.224,-2.88 2.016,-4.896 2.656,-7.872l-0.704,0c-0.128,0.416 -0.448,0.736 -0.896,0.736c-0.768,0 -0.928,-0.864 -2.048,-0.864c-0.928,0 -1.28,0.704 -1.568,0.704c-0.224,0 -0.224,-0.192 -0.224,-0.576Z" style="fill-rule:nonzero;"/><path d="M20.643,7.904l-0.704,0l0,12.832l0.32,0c1.728,-2.08 4.416,-2.048 4.416,-4.672c0,-1.344 -1.056,-1.952 -2.08,-1.952c-0.96,0 -1.504,0.544 -1.952,0.992l0,-7.2Zm0,11.68l0.032,-3.776c0,0 0.544,-0.608 1.28,-0.608c0.576,0 1.12,0.352 1.12,1.28c0,1.44 -1.248,1.984 -2.432,3.104Z" style="fill-rule:nonzero;"/><path d="M13.083,62.696l2.959,-6.392l-3.892,0l0,-0.747l4.751,0l0,0.65l-2.92,6.489l-0.898,0Z" style="fill-rule:nonzero;"/><path d="M20.758,57.257c0.704,0 1.25,0.24 1.639,0.72c0.389,0.48 0.583,1.159 0.583,2.038c0,0.879 -0.196,1.562 -0.588,2.049c-0.392,0.486 -0.937,0.73 -1.634,0.73c-0.348,0 -0.666,-0.065 -0.954,-0.193c-0.288,-0.129 -0.53,-0.327 -0.725,-0.593l-0.059,0l-0.171,0.688l-0.581,0l0,-7.598l0.811,0l0,1.846c0,0.413 -0.013,0.785 -0.039,1.113l0.039,0c0.377,-0.534 0.937,-0.8 1.679,-0.8Zm-0.117,0.678c-0.553,0 -0.952,0.159 -1.196,0.476c-0.244,0.318 -0.366,0.852 -0.366,1.604c0,0.752 0.125,1.29 0.376,1.614c0.25,0.324 0.652,0.486 1.206,0.486c0.498,0 0.869,-0.182 1.113,-0.544c0.244,-0.363 0.366,-0.885 0.366,-1.565c0,-0.697 -0.122,-1.216 -0.366,-1.558c-0.244,-0.342 -0.622,-0.513 -1.133,-0.513Z" style="fill-rule:nonzero;"/></g><g><path d="M36.016,7.904l-0.704,0l0,12.832l0.32,0c1.728,-2.08 4.416,-2.048 4.416,-4.672c0,-1.344 -1.056,-1.952 -2.08,-1.952c-0.96,0 -1.504,0.544 -1.952,0.992l0,-7.2Zm0,11.68l0.032,-3.776c0,0 0.544,-0.608 1.28,-0.608c0.576,0 1.12,0.352 1.12,1.28c0,1.44 -1.248,1.984 -2.432,3.104Z" style="fill-rule:nonzero;"/><path d="M43.216,11.008l-0.64,0l-0.192,3.424l0.608,0c0.224,-1.92 0.896,-2.048 1.376,-2.048c0.672,0 2.272,0.512 2.976,0.608c-1.44,2.464 -3.328,4.288 -3.328,6.048c0,0.672 0.48,1.056 0.96,1.056c0.48,0 0.96,-0.352 1.024,-1.216c0.224,-2.88 2.016,-4.896 2.656,-7.872l-0.704,0c-0.128,0.416 -0.448,0.736 -0.896,0.736c-0.768,0 -0.928,-0.864 -2.048,-0.864c-0.928,0 -1.28,0.704 -1.568,0.704c-0.224,0 -0.224,-0.192 -0.224,-0.576Z" style="fill-rule:nonzero;"/><path d="M39.235,57.257c0.703,0 1.249,0.24 1.638,0.72c0.389,0.48 0.584,1.159 0.584,2.038c0,0.879 -0.196,1.562 -0.589,2.049c-0.392,0.486 -0.936,0.73 -1.633,0.73c-0.348,0 -0.666,-0.065 -0.954,-0.193c-0.289,-0.129 -0.53,-0.327 -0.726,-0.593l-0.058,0l-0.171,0.688l-0.581,0l0,-7.598l0.81,0l0,1.846c0,0.413 -0.013,0.785 -0.039,1.113l0.039,0c0.378,-0.534 0.938,-0.8 1.68,-0.8Zm-0.117,0.678c-0.553,0 -0.952,0.159 -1.196,0.476c-0.244,0.318 -0.367,0.852 -0.367,1.604c0,0.752 0.126,1.29 0.376,1.614c0.251,0.324 0.653,0.486 1.207,0.486c0.498,0 0.869,-0.182 1.113,-0.544c0.244,-0.363 0.366,-0.885 0.366,-1.565c0,-0.697 -0.122,-1.216 -0.366,-1.558c-0.244,-0.342 -0.622,-0.513 -1.133,-0.513Z" style="fill-rule:nonzero;"/><path d="M43.405,62.696l2.959,-6.392l-3.892,0l0,-0.747l4.751,0l0,0.65l-2.919,6.489l-0.899,0Z" style="fill-rule:nonzero;"/></g></g></svg>