<?xml version="1.0" encoding="UTF-8" standalone="no"?><!DOCTYPE svg PUBLIC "-//W3C//DTD SVG 1.1//EN" "http://www.w3.org/Graphics/SVG/1.1/DTD/svg11.dtd"><svg width="100%" height="100%" viewBox="0 0 301 251" version="1.1" xmlns="http://www.w3.org/2000/svg" xmlns:xlink="http://www.w3.org/1999/xlink" xml:space="preserve" xmlns:serif="http://www.serif.com/" style="fill-rule:evenodd;clip-rule:evenodd;stroke-linejoin:round;stroke-miterlimit:1.41421;"><rect id="allFigures" x="0.511" y="0.28" width="300" height="250" style="fill:#fff;"/><g><g><g><path d="M145.466,63.002c0.432,0 0.757,0.565 0.757,1.272l1.043,0.06l-0.072,-1.031c-0.707,0 -1.224,-0.349 -1.224,-0.781c0,-0.431 0.517,-0.744 1.224,-0.744l0.072,-1.031l-1.043,0.036c0,0.707 -0.325,1.212 -0.757,1.212c-0.431,0 -0.756,-0.505 -0.756,-1.212l-1.043,-0.036l0.072,1.031c0.707,0 1.224,0.313 1.224,0.744c0,0.432 -0.517,0.781 -1.224,0.781l-0.072,1.031l1.043,-0.06c0,-0.707 0.325,-1.272 0.756,-1.272Z" style="fill:#4e4e4e;fill-rule:nonzero;"/><path d="M146.9,75.236l-0.48,0l-0.828,1.932l-0.245,0l-0.834,-1.932l-0.48,0l0.954,2.136l-0.954,2.064l0.48,0l0.84,-1.884l0.227,0l0.84,1.884l0.48,0l-0.954,-2.07l0.954,-2.13Z" style="fill:#a6a6a6;fill-rule:nonzero;"/></g><g><path d="M131.29,65.786c0.516,0 0.84,0.72 0.84,1.56l1.272,0.072l-0.072,-1.272c-0.84,0 -1.512,-0.348 -1.512,-0.864c0,-0.516 0.672,-0.84 1.512,-0.84l0.072,-1.272l-1.272,0.048c0,0.84 -0.324,1.512 -0.84,1.512c-0.516,0 -0.84,-0.672 -0.84,-1.512l-1.272,-0.048l0.072,1.272c0.84,0 1.512,0.324 1.512,0.84c0,0.516 -0.672,0.864 -1.512,0.864l-0.072,1.272l1.272,-0.072c0,-0.84 0.324,-1.56 0.84,-1.56Z" style="fill:#4e4e4e;fill-rule:nonzero;"/><path d="M132.694,76.436l-0.498,0l-0.798,1.29l-0.216,0l-0.798,-1.29l-0.497,0l0.947,1.488l-0.947,1.512l0.497,0l0.804,-1.326l0.204,0l0.804,1.326l0.498,0l-0.948,-1.512l0.948,-1.488Z" style="fill:#a6a6a6;fill-rule:nonzero;"/></g><g><path d="M113.388,67.25l0.024,-2.448c0,0 0.384,-0.72 0.936,-0.72c0.384,0 0.672,0.312 0.672,0.984c0,0.96 -0.84,1.44 -1.632,2.184Zm0,-8.76l-0.528,0l0,9.624l0.24,0c0.936,-1.008 2.016,-1.368 2.52,-2.208l0,2.208l0.24,0c1.296,-1.392 2.976,-1.56 2.976,-3.432c0,-0.96 -0.624,-1.368 -1.272,-1.368c-0.672,0 -1.128,0.504 -1.416,0.816l0,-5.64l-0.528,0l0,5.208c-0.216,-0.264 -0.552,-0.384 -0.888,-0.384c-0.648,0 -1.056,0.504 -1.344,0.816l0,-5.64Zm2.76,8.76l0.024,-2.448c0,0 0.384,-0.72 0.936,-0.72c0.384,0 0.672,0.312 0.672,0.984c0,0.96 -0.84,1.44 -1.632,2.184Z" style="fill:#4e4e4e;fill-rule:nonzero;"/><path d="M114.198,76.37c-0.439,0 -0.781,0.204 -0.985,0.51l0,-2.244l-0.431,0l0,4.8l0.371,0l0.06,-0.426l0,-0.012c0.192,0.3 0.498,0.504 0.925,0.504c0.696,0 1.175,-0.474 1.175,-1.572c0,-1.098 -0.419,-1.56 -1.115,-1.56Zm-0.15,2.742c-0.475,0 -0.769,-0.426 -0.835,-0.762l0,-0.864c0.096,-0.288 0.402,-0.726 0.895,-0.726c0.546,0 0.78,0.318 0.78,1.17c0,0.846 -0.294,1.182 -0.84,1.182Z" style="fill:#a6a6a6;fill-rule:nonzero;"/><path d="M117.798,76.37c-0.439,0 -0.781,0.204 -0.985,0.51l0,-2.244l-0.431,0l0,4.8l0.371,0l0.06,-0.426l0,-0.012c0.192,0.3 0.498,0.504 0.925,0.504c0.696,0 1.175,-0.474 1.175,-1.572c0,-1.098 -0.419,-1.56 -1.115,-1.56Zm-0.15,2.742c-0.475,0 -0.769,-0.426 -0.835,-0.762l0,-0.864c0.096,-0.288 0.402,-0.726 0.895,-0.726c0.546,0 0.78,0.318 0.78,1.17c0,0.846 -0.294,1.182 -0.84,1.182Z" style="fill:#a6a6a6;fill-rule:nonzero;"/></g><g><path d="M97.208,59.57l0,2.664l-0.744,0.216l0,1.38l0.744,-0.24l0,2.352l-0.744,0.264l0,1.332l0.744,-0.24l0,2.304l0.48,0l0,-2.472l1.488,-0.456l0,2.376l0.48,0l0,-2.568l0.744,-0.264l0,-1.356l-0.744,0.24l0,-2.352l0.744,-0.264l0,-1.356l-0.744,0.24l0,-2.304l-0.48,0l0,2.52l-1.488,0.432l0,-2.448l-0.48,0Zm1.968,3.348l0,2.4l-1.488,0.456l0,-2.4l1.488,-0.456Z" style="fill:#4e4e4e;fill-rule:nonzero;"/><path d="M96.539,76.82l0.048,-0.39l-0.66,0l0.138,-1.194l-0.414,0l-0.138,1.194l-0.882,0l0.138,-1.194l-0.414,0l-0.138,1.194l-0.624,0l-0.048,0.39l0.624,0l-0.12,1.08l-0.654,0l-0.048,0.39l0.654,0l-0.132,1.146l0.414,0l0.132,-1.146l0.882,0l-0.132,1.146l0.414,0l0.132,-1.146l0.63,0l0.048,-0.39l-0.63,0l0.12,-1.08l0.66,0Zm-1.194,1.08l-0.882,0l0.12,-1.08l0.882,0l-0.12,1.08Z" style="fill:#a6a6a6;fill-rule:nonzero;"/><path d="M99.569,74.636l-0.372,0l-1.494,5.652l0.372,0l1.494,-5.652Z" style="fill:#a6a6a6;fill-rule:nonzero;"/><path d="M102.227,79.502c0.6,0 1.278,-0.27 1.29,-0.906c0.012,-0.684 -0.96,-0.852 -1.23,-0.924c-0.198,-0.06 -0.738,-0.162 -0.738,-0.486c0,-0.336 0.474,-0.432 0.732,-0.432c0.252,0 0.6,0.096 0.75,0.336l0.366,-0.24c-0.21,-0.33 -0.696,-0.486 -1.116,-0.486c-0.51,0 -1.206,0.234 -1.194,0.81c0.012,0.636 0.834,0.822 1.134,0.9c0.216,0.06 0.834,0.174 0.834,0.534c0,0.372 -0.432,0.504 -0.816,0.504c-0.348,0 -0.768,-0.126 -0.912,-0.336l-0.378,0.252c0.252,0.33 0.804,0.474 1.278,0.474Z" style="fill:#a6a6a6;fill-rule:nonzero;"/></g><g><path d="M82.058,58.49l-0.528,0l0,9.624l0.24,0c1.296,-1.56 3.312,-1.536 3.312,-3.504c0,-1.008 -0.792,-1.464 -1.56,-1.464c-0.72,0 -1.128,0.408 -1.464,0.744l0,-5.4Zm0,8.76l0.024,-2.832c0,0 0.396,-0.456 0.936,-0.456c0.42,0 0.804,0.264 0.804,0.96c0,1.08 -0.876,1.488 -1.764,2.328Z" style="fill:#4e4e4e;fill-rule:nonzero;"/><path d="M83.456,76.37c-0.438,0 -0.78,0.204 -0.984,0.51l0,-2.244l-0.431,0l0,4.8l0.371,0l0.06,-0.426l0,-0.012c0.192,0.3 0.498,0.504 0.924,0.504c0.697,0 1.176,-0.474 1.176,-1.572c0,-1.098 -0.419,-1.56 -1.116,-1.56Zm-0.15,2.742c-0.474,0 -0.768,-0.426 -0.834,-0.762l0,-0.864c0.096,-0.288 0.402,-0.726 0.894,-0.726c0.547,0 0.781,0.318 0.781,1.17c0,0.846 -0.294,1.182 -0.841,1.182Z" style="fill:#a6a6a6;fill-rule:nonzero;"/></g><g><path d="M67.481,58.838l0,8.664l2.304,-0.504l-0.048,3.192l0.528,0l0,-8.64l-2.304,0.552l0,-3.264l-0.48,0Zm0.48,4.68l1.824,-0.408l0,2.4l-1.824,0.432l0,-2.424Z" style="fill:#4e4e4e;fill-rule:nonzero;"/><path d="M69.116,76.37c-0.456,0 -0.828,0.21 -1.044,0.522c-0.024,-0.162 -0.06,-0.456 -0.06,-0.456l-0.353,0l0,3l0.431,0l0,-1.992c0.06,-0.258 0.438,-0.684 0.93,-0.684c0.511,0 0.637,0.264 0.637,1.02l0,1.656l0.431,0l0,-1.8c0,-0.894 -0.299,-1.266 -0.972,-1.266Z" style="fill:#a6a6a6;fill-rule:nonzero;"/></g></g><g><g><rect x="183.689" y="64.238" width="4.08" height="0.552" style="fill:#4e4e4e;fill-rule:nonzero;"/><rect x="181.254" y="77.42" width="1.739" height="0.383" style="fill:#a6a6a6;fill-rule:nonzero;"/><path d="M186.695,74.636l-0.372,0l-1.493,5.652l0.371,0l1.494,-5.652Z" style="fill:#a6a6a6;fill-rule:nonzero;"/><path d="M190.301,76.37c-0.306,0 -0.57,0.186 -0.738,0.474c-0.072,-0.33 -0.294,-0.474 -0.606,-0.474c-0.288,0 -0.54,0.168 -0.702,0.438l-0.048,-0.372l-0.347,0l0,3l0.425,0l0,-2.112c0.042,-0.228 0.294,-0.564 0.57,-0.564c0.295,0 0.337,0.162 0.337,0.9l0,1.776l0.413,0l0,-2.112c0.042,-0.234 0.294,-0.564 0.57,-0.564c0.289,0 0.355,0.162 0.355,0.9l0,1.776l0.425,0l0,-1.956c0,-0.93 -0.246,-1.11 -0.654,-1.11Z" style="fill:#a6a6a6;fill-rule:nonzero;"/></g><g><path d="M169.878,61.874l0,2.364l-2.364,0l0,0.552l2.364,0l0,2.364l0.552,0l0,-2.364l2.364,0l0,-0.552l-2.364,0l0,-2.364l-0.552,0Z" style="fill:#4e4e4e;fill-rule:nonzero;"/><path d="M167.717,77.42l-0.942,0l0,-0.942l-0.383,0l0,0.942l-0.948,0l0,0.384l0.948,0l0,0.948l0.383,0l0,-0.948l0.942,0l0,-0.384Z" style="fill:#a6a6a6;fill-rule:nonzero;"/><path d="M171.119,74.636l-0.372,0l-1.493,5.652l0.372,0l1.493,-5.652Z" style="fill:#a6a6a6;fill-rule:nonzero;"/><path d="M174.006,76.364c-0.444,0 -0.793,0.234 -1.003,0.558l0,-0.06l-0.078,-0.426l-0.353,0l0,4.2l0.431,0l0,-1.596c0.192,0.276 0.499,0.462 0.943,0.462c0.738,0 1.187,-0.462 1.187,-1.56c0,-1.098 -0.389,-1.578 -1.127,-1.578Zm-0.138,2.748c-0.529,0 -0.805,-0.408 -0.865,-0.672l0,-0.936c0.066,-0.282 0.397,-0.75 0.925,-0.75c0.57,0 0.774,0.372 0.774,1.188c0,0.816 -0.264,1.17 -0.834,1.17Z" style="fill:#a6a6a6;fill-rule:nonzero;"/></g></g><g><g><path d="M209.805,64.442c0,-1.632 0.72,-3.024 1.464,-3.792l-0.264,-0.288c-1.152,0.936 -1.872,2.52 -1.872,4.08c0,1.56 0.72,3.144 1.872,4.08l0.264,-0.288c-0.84,-0.864 -1.464,-2.16 -1.464,-3.792Z" style="fill:#4e4e4e;fill-rule:nonzero;"/><path d="M217.653,64.442c0,1.632 -0.72,3.024 -1.464,3.792l0.264,0.288c1.152,-0.936 1.872,-2.52 1.872,-4.08c0,-1.56 -0.72,-3.144 -1.872,-4.08l-0.264,0.288c0.84,0.864 1.464,2.16 1.464,3.792Z" style="fill:#4e4e4e;fill-rule:nonzero;"/><path d="M210.765,80.75l0.348,-0.174c-0.06,-0.084 -0.93,-1.278 -0.93,-2.904c0,-1.632 0.882,-2.826 0.93,-2.892l-0.348,-0.18c-0.114,0.162 -1.007,1.278 -1.007,3.072c0,1.794 0.887,2.916 1.007,3.078Z" style="fill:#a6a6a6;fill-rule:nonzero;"/><path d="M216.604,80.75c0.12,-0.162 1.007,-1.284 1.007,-3.078c0,-1.794 -0.893,-2.91 -1.007,-3.072l-0.348,0.18c0.048,0.066 0.93,1.26 0.93,2.892c0,1.626 -0.87,2.82 -0.93,2.904l0.348,0.174Z" style="fill:#a6a6a6;fill-rule:nonzero;"/></g><g><path d="M225.117,67.61l0,-6.624l1.344,0l0,-0.576l-1.92,0l0,7.776l1.92,0l0,-0.576l-1.344,0Z" style="fill:#4e4e4e;fill-rule:nonzero;"/><path d="M232.965,60.986l0,6.624l-1.344,0l0,0.576l1.92,0l0,-7.776l-1.92,0l0,0.576l1.344,0Z" style="fill:#4e4e4e;fill-rule:nonzero;"/><path d="M226.533,75.02l0,-0.384l-1.343,0l0,6l1.343,0l0,-0.384l-0.918,0l0,-5.232l0.918,0Z" style="fill:#a6a6a6;fill-rule:nonzero;"/><path d="M232.911,74.636l-1.343,0l0,0.384l0.918,0l0,5.232l-0.918,0l0,0.384l1.343,0l0,-6Z" style="fill:#a6a6a6;fill-rule:nonzero;"/></g></g></g><g><g id="numbers"><path d="M31.6,21.644c0,1.944 1.02,3.456 2.472,3.456c1.452,0 2.472,-1.512 2.472,-3.456c0,-1.944 -1.02,-3.48 -2.472,-3.48c-1.452,0 -2.472,1.536 -2.472,3.48Zm2.472,-2.952c0.864,0 1.176,1.128 1.176,2.712l0,0.528c0,1.584 -0.312,2.64 -1.176,2.64c-0.864,0 -1.2,-1.056 -1.2,-2.64l0,-0.528c0,-1.584 0.336,-2.712 1.2,-2.712Z" style="fill:#4e4e4e;fill-rule:nonzero;"/><path d="M45.982,23.66l0,-5.4l-0.84,0l-1.776,1.176l0.204,0.396l0.756,-0.312c0.144,-0.048 0.24,-0.072 0.312,-0.072c0.168,0 0.24,0.096 0.24,0.264l0,3.924c0,0.6 -0.396,0.864 -0.828,0.864l-0.432,0l0,0.504l3.552,0l0,-0.504l-0.312,0c-0.432,0 -0.876,-0.216 -0.876,-0.84Z" style="fill:#4e4e4e;fill-rule:nonzero;"/><path d="M58.937,23.108l-0.432,-0.072c-0.168,0.6 -0.456,0.888 -1.056,0.888c-0.888,0 -1.104,-0.24 -2.184,-0.24c0.552,-0.84 1.56,-1.344 1.8,-1.5c0.888,-0.54 1.812,-0.996 1.812,-2.148c0,-1.104 -1.056,-1.872 -2.352,-1.872c-1.488,0 -2.328,1.116 -2.328,1.884c0,0.516 0.3,0.828 0.768,0.828c0.42,0 0.672,-0.276 0.672,-0.624c0,-0.516 -0.348,-0.612 -0.348,-0.888c0,-0.324 0.42,-0.672 1.092,-0.672c0.672,0 1.128,0.408 1.128,1.296c0,0.72 -0.336,1.344 -1.548,2.256c-0.84,0.576 -1.872,1.752 -1.968,2.76l0.48,0c0.168,-0.432 0.36,-0.672 0.816,-0.672c0.72,0 1.392,0.768 2.256,0.768c0.96,0 1.392,-0.96 1.392,-1.992Z" style="fill:#4e4e4e;fill-rule:nonzero;"/><path d="M67.212,23.192c0,-0.408 -0.3,-0.66 -0.648,-0.66c-0.468,0 -0.804,0.372 -0.804,0.876c0,0.792 0.864,1.692 2.28,1.692c1.584,0 2.556,-0.732 2.556,-1.848c0,-0.9 -0.648,-1.452 -1.452,-1.716l0,-0.132c0.6,-0.228 1.248,-0.6 1.248,-1.536c0,-0.924 -0.852,-1.704 -2.112,-1.704c-1.272,0 -2.1,0.888 -2.1,1.632c0,0.528 0.372,0.828 0.72,0.828c0.432,0 0.66,-0.3 0.66,-0.624c0,-0.528 -0.384,-0.552 -0.384,-0.828c0,-0.204 0.264,-0.504 0.852,-0.504c0.612,0 1.152,0.396 1.152,1.212c0,0.768 -0.516,1.356 -1.764,1.38l0,0.432c1.368,0 1.884,0.684 1.884,1.488c0,0.876 -0.576,1.416 -1.344,1.416c-0.564,0 -0.996,-0.24 -0.996,-0.6c0,-0.312 0.252,-0.432 0.252,-0.804Z" style="fill:#4e4e4e;fill-rule:nonzero;"/><path d="M81.666,23.012l1.104,0l0,-0.552l-1.104,0l0,-2.52l-1.104,1.176l0,1.344l-2.424,0c1.224,-1.824 1.848,-2.64 2.616,-4.2l-1.596,0c-0.408,1.584 -0.9,2.88 -1.74,4.272l0,0.48l3.144,0l0,0.84c0,0.504 -0.444,0.672 -0.78,0.672l-0.24,0l0,0.48l3.024,0l0,-0.48c-0.468,0 -0.9,-0.144 -0.9,-0.672l0,-0.84Z" style="fill:#4e4e4e;fill-rule:nonzero;"/><path d="M92.017,20.708c-0.528,0 -0.912,0.144 -1.236,0.3l-0.072,-0.036l0.024,-1.512c0.432,0.048 0.768,0.096 1.152,0.096c1.104,0 1.656,-0.456 2.064,-1.128l-0.12,-0.168c-0.672,0.096 -1.224,0.12 -1.776,0.12c-0.576,0 -1.128,-0.048 -1.824,-0.12l-0.048,3.312l0.312,0.168c0.336,-0.312 0.756,-0.48 1.248,-0.48c0.708,0 1.392,0.432 1.392,1.512c0,1.104 -0.564,1.824 -1.428,1.824c-0.588,0 -0.912,-0.252 -0.912,-0.576c0,-0.312 0.252,-0.432 0.252,-0.804c0,-0.408 -0.3,-0.66 -0.648,-0.66c-0.468,0 -0.804,0.372 -0.804,0.876c0,0.768 0.876,1.668 2.292,1.668c1.416,0 2.52,-0.948 2.52,-2.304c0,-1.296 -1.164,-2.088 -2.388,-2.088Z" style="fill:#4e4e4e;fill-rule:nonzero;"/><path d="M105.091,20.264c0.432,0 0.684,-0.336 0.684,-0.756c0,-0.624 -0.684,-1.344 -1.872,-1.344c-1.344,0 -2.676,1.296 -2.676,3.624c0,1.692 0.72,3.312 2.532,3.312c1.284,0 2.304,-0.888 2.304,-2.148c0,-1.044 -0.852,-1.968 -2.184,-1.968c-0.648,0 -1.164,0.288 -1.5,0.672c0.036,-1.416 0.264,-2.976 1.548,-2.976c0.336,0 0.564,0.144 0.564,0.348c0,0.192 -0.084,0.36 -0.084,0.552c0,0.396 0.252,0.684 0.684,0.684Zm-0.252,2.652c0,0.936 -0.432,1.656 -1.248,1.656c-0.732,0 -1.128,-0.54 -1.128,-1.44c0,-0.936 0.504,-1.608 1.272,-1.608c0.756,0 1.104,0.564 1.104,1.392Z" style="fill:#4e4e4e;fill-rule:nonzero;"/><path d="M113.51,18.26l-0.48,0l-0.144,2.568l0.456,0c0.168,-1.44 0.672,-1.536 1.032,-1.536c0.504,0 1.704,0.384 2.232,0.456c-1.08,1.848 -2.496,3.216 -2.496,4.536c0,0.504 0.36,0.792 0.72,0.792c0.36,0 0.72,-0.264 0.768,-0.912c0.168,-2.16 1.512,-3.672 1.992,-5.904l-0.528,0c-0.096,0.312 -0.336,0.552 -0.672,0.552c-0.576,0 -0.696,-0.648 -1.536,-0.648c-0.696,0 -0.96,0.528 -1.176,0.528c-0.168,0 -0.168,-0.144 -0.168,-0.432Z" style="fill:#4e4e4e;fill-rule:nonzero;"/><path d="M124.761,19.964c0,0.804 0.42,1.26 0.96,1.596c-0.756,0.336 -1.308,0.9 -1.308,1.74c0,1.008 1.02,1.8 2.46,1.8c1.296,0 2.316,-0.804 2.316,-2.004c0,-0.9 -0.612,-1.38 -1.296,-1.74c0.6,-0.348 1.008,-0.9 1.008,-1.488c0,-0.936 -0.816,-1.704 -2.016,-1.704c-1.26,0 -2.124,0.816 -2.124,1.8Zm1.536,1.908c0.768,0.36 2.004,0.78 2.004,1.62c0,0.48 -0.588,1.008 -1.428,1.008c-1.08,0 -1.74,-0.6 -1.74,-1.248c0,-0.696 0.516,-1.14 1.164,-1.38Zm0.996,-0.792c-0.792,-0.36 -1.644,-0.732 -1.644,-1.416c0,-0.528 0.504,-0.924 1.236,-0.924c0.768,0 1.272,0.432 1.272,1.08c0,0.504 -0.312,0.996 -0.864,1.26Z" style="fill:#4e4e4e;fill-rule:nonzero;"/><path d="M137.427,24.164c0,-0.144 0.048,-0.276 0.048,-0.432c0,-0.444 -0.276,-0.72 -0.672,-0.72c-0.468,0 -0.696,0.336 -0.696,0.72c0,0.576 0.72,1.368 1.98,1.368c1.428,0 2.76,-1.248 2.76,-3.648c0,-1.872 -0.864,-3.288 -2.484,-3.288c-1.356,0 -2.352,1.044 -2.352,2.172c0,1.104 0.828,1.896 2.148,1.896c0.672,0 1.152,-0.312 1.536,-0.696c0,1.212 -0.168,3.06 -1.608,3.06c-0.456,0 -0.66,-0.228 -0.66,-0.432Zm0.876,-2.484c-0.744,0 -1.104,-0.528 -1.104,-1.416c0,-0.852 0.408,-1.572 1.248,-1.572c0.708,0 1.152,0.612 1.152,1.548c0,0.804 -0.528,1.44 -1.296,1.44Z" style="fill:#4e4e4e;fill-rule:nonzero;"/></g><g><path d="M163.067,18.193c-1.584,0 -3.132,2.04 -3.132,4.332c0,1.416 0.72,2.58 2.028,2.58c1.608,0 3.12,-2.028 3.12,-4.332c0,-1.404 -0.696,-2.58 -2.016,-2.58Zm0.048,0.552c0.624,0 0.864,0.504 0.864,1.2c0,0.588 -0.228,1.548 -0.396,2.208c-0.384,1.452 -0.912,2.4 -1.668,2.4c-0.648,0 -0.888,-0.492 -0.888,-1.212c0,-0.564 0.228,-1.488 0.384,-2.124c0.384,-1.452 0.948,-2.472 1.704,-2.472Z" style="fill:#4e4e4e;fill-rule:nonzero;"/><path d="M160.314,30.163c0.222,0 0.395,-0.174 0.395,-0.395c0,-0.222 -0.173,-0.396 -0.395,-0.396c-0.222,0 -0.402,0.174 -0.402,0.396c0,0.221 0.18,0.395 0.402,0.395Zm0.227,3.409l0,-2.616l-1.493,0l0,0.383l1.062,0l0,2.616l1.325,0l0,-0.383l-0.894,0Z" style="fill:#a6a6a6;fill-rule:nonzero;"/><path d="M163.866,34.021c0.63,0 1.277,-0.449 1.277,-2.153c0,-1.699 -0.647,-2.148 -1.277,-2.148c-0.66,0 -1.284,0.449 -1.284,2.148c0,1.704 0.624,2.153 1.284,2.153Zm0,-0.389c-0.444,0 -0.835,-0.42 -0.835,-1.764c0,-1.339 0.391,-1.759 0.835,-1.759c0.426,0 0.828,0.42 0.828,1.759c0,1.344 -0.402,1.764 -0.828,1.764Zm0,-1.309c0.15,0 0.299,-0.09 0.299,-0.455c0,-0.36 -0.149,-0.45 -0.299,-0.45c-0.156,0 -0.306,0.09 -0.306,0.45c0,0.365 0.15,0.455 0.306,0.455Z" style="fill:#a6a6a6;fill-rule:nonzero;"/><path d="M173.85,23.665l1.416,-5.28l-0.84,0l-2.088,1.176l0.168,0.396l0.756,-0.276c0.12,-0.048 0.228,-0.072 0.312,-0.072c0.12,0 0.192,0.06 0.192,0.192c0,0.048 -0.012,0.108 -0.024,0.18l-0.984,3.66c-0.156,0.6 -0.636,0.864 -1.068,0.864l-0.384,0l-0.072,0.504l3.552,0l0.072,-0.504l-0.36,0c-0.36,0 -0.684,-0.156 -0.684,-0.564c0,-0.084 0.012,-0.168 0.036,-0.276Z" style="fill:#4e4e4e;fill-rule:nonzero;"/><path d="M171.413,30.163c0.222,0 0.395,-0.174 0.395,-0.395c0,-0.222 -0.173,-0.396 -0.395,-0.396c-0.222,0 -0.402,0.174 -0.402,0.396c0,0.221 0.18,0.395 0.402,0.395Zm0.227,3.409l0,-2.616l-1.493,0l0,0.383l1.062,0l0,2.616l1.325,0l0,-0.383l-0.894,0Z" style="fill:#a6a6a6;fill-rule:nonzero;"/><path d="M174.047,30.764l0.846,-0.504l0.054,-0.504l-1.092,0.654l0.192,0.354Zm1.271,2.808l0,-3.816l-0.371,0l-0.054,0.54l0,3.276l-0.87,0l0,0.383l2.111,0l0,-0.383l-0.816,0Z" style="fill:#a6a6a6;fill-rule:nonzero;"/><path d="M181.545,34.021c0.234,0 0.426,-0.186 0.426,-0.419c0,-0.24 -0.192,-0.426 -0.426,-0.426c-0.234,0 -0.425,0.186 -0.425,0.426c0,0.233 0.191,0.419 0.425,0.419Z" style="fill:#a6a6a6;fill-rule:nonzero;"/><path d="M185.145,34.021c0.234,0 0.426,-0.186 0.426,-0.419c0,-0.24 -0.192,-0.426 -0.426,-0.426c-0.234,0 -0.425,0.186 -0.425,0.426c0,0.233 0.191,0.419 0.425,0.419Z" style="fill:#a6a6a6;fill-rule:nonzero;"/><path d="M188.745,34.021c0.234,0 0.426,-0.186 0.426,-0.419c0,-0.24 -0.192,-0.426 -0.426,-0.426c-0.234,0 -0.425,0.186 -0.425,0.426c0,0.233 0.191,0.419 0.425,0.419Z" style="fill:#a6a6a6;fill-rule:nonzero;"/><path d="M183.421,23.641c0.756,-0.816 1.704,-1.128 1.968,-1.26c0.984,-0.48 2.184,-0.996 2.184,-2.28c0,-1.056 -0.984,-1.908 -2.292,-1.908c-1.332,0 -2.28,0.996 -2.28,1.884c0,0.432 0.264,0.732 0.72,0.732c0.42,0 0.696,-0.3 0.696,-0.732c0,-0.36 -0.216,-0.504 -0.216,-0.72c0,-0.348 0.408,-0.636 0.96,-0.636c0.672,0 1.068,0.372 1.068,1.104c0,1.02 -0.504,1.62 -1.944,2.496c-0.912,0.504 -2.124,1.584 -2.376,2.604l0.48,0.012c0.18,-0.42 0.372,-0.648 0.792,-0.648c0.78,0 1.404,0.852 2.328,0.852c0.924,0 1.368,-0.924 1.404,-1.944l-0.42,-0.084c-0.192,0.576 -0.468,0.852 -1.032,0.852c-0.852,0 -1.068,-0.276 -2.04,-0.324Z" style="fill:#4e4e4e;fill-rule:nonzero;"/><path d="M194.683,22.237c-0.48,0 -0.912,0.444 -0.912,1.044c0,0.96 0.96,1.824 2.568,1.824c1.248,0 2.268,-0.648 2.268,-1.884c0,-0.66 -0.432,-1.164 -1.02,-1.5l0.024,-0.132c0.696,-0.12 1.68,-0.528 1.68,-1.692c0,-0.864 -0.84,-1.704 -2.1,-1.704c-1.08,0 -2.052,0.684 -2.052,1.536c0,0.432 0.276,0.696 0.66,0.696c0.408,0 0.684,-0.324 0.684,-0.732c0,-0.3 -0.192,-0.408 -0.192,-0.6c0,-0.228 0.276,-0.432 0.708,-0.432c0.648,0 1.116,0.384 1.116,1.02c0,0.924 -0.648,1.5 -1.644,1.548c-0.156,0.012 -0.516,0.012 -0.516,0.012l-0.084,0.42c1.092,0.132 1.5,0.66 1.5,1.284c0,0.984 -0.744,1.608 -1.476,1.608c-0.576,0 -1.08,-0.312 -1.08,-0.672c0,-0.456 0.492,-0.516 0.492,-1.056c0,-0.348 -0.264,-0.588 -0.624,-0.588Z" style="fill:#4e4e4e;fill-rule:nonzero;"/><path d="M209.93,23.017l1.164,0l0.096,-0.552l-1.104,0l0.66,-2.472l-1.416,1.176l-0.348,1.296l-2.424,0c1.716,-1.824 2.508,-2.52 3.696,-4.08l-1.608,0c-0.828,1.584 -1.62,2.76 -2.832,4.152l-0.072,0.48l3.084,0l-0.216,0.84c-0.144,0.504 -0.624,0.672 -0.96,0.672l-0.192,0l-0.072,0.48l3.024,0l0.072,-0.48c-0.408,0 -0.792,-0.108 -0.792,-0.48c0,-0.06 0,-0.12 0.024,-0.192l0.216,-0.84Z" style="fill:#4e4e4e;fill-rule:nonzero;"/><path d="M219.681,25.081c1.356,0 2.856,-0.936 2.856,-2.496c0,-1.152 -0.912,-1.848 -2.052,-1.848c-0.564,0 -0.78,0.12 -1.14,0.24l0.408,-1.44c0.48,0.072 0.756,0.144 1.236,0.144c1.008,0 1.68,-0.444 2.196,-1.044l-0.108,-0.18c-0.432,0.048 -0.768,0.072 -1.128,0.072c-0.888,0 -1.476,-0.072 -2.364,-0.192l-0.936,3.216l0.264,0.192c0.384,-0.264 0.792,-0.432 1.26,-0.432c0.708,0 1.116,0.384 1.116,1.08c0,1.248 -0.852,2.16 -1.752,2.16c-0.516,0 -0.84,-0.228 -0.84,-0.408c0,-0.324 0.372,-0.36 0.372,-0.948c0,-0.396 -0.252,-0.648 -0.672,-0.648c-0.432,0 -0.78,0.348 -0.78,0.948c0,0.732 0.732,1.584 2.064,1.584Z" style="fill:#4e4e4e;fill-rule:nonzero;"/><path d="M233.931,20.485c0.42,0 0.768,-0.384 0.768,-0.9c0,-0.612 -0.504,-1.392 -1.656,-1.392c-1.548,0 -3.528,1.776 -3.528,4.356c0,1.356 0.696,2.556 2.304,2.556c1.14,0 2.328,-0.876 2.328,-2.22c0,-0.996 -0.732,-1.908 -1.992,-1.908c-0.492,0 -0.984,0.204 -1.344,0.516c0.372,-1.428 1.128,-2.808 2.232,-2.808c0.372,0 0.504,0.168 0.504,0.396c0,0.3 -0.264,0.48 -0.264,0.816c0,0.324 0.24,0.588 0.648,0.588Zm-0.972,2.1c0,1.032 -0.612,1.98 -1.38,1.98c-0.708,0 -1.08,-0.504 -1.08,-1.128c0,-1.092 0.708,-1.932 1.5,-1.932c0.672,0 0.96,0.468 0.96,1.08Z" style="fill:#4e4e4e;fill-rule:nonzero;"/><path d="M245.194,19.969c-1.404,1.752 -3.348,3.312 -3.348,4.464c0,0.408 0.288,0.648 0.624,0.648c0.348,0 0.732,-0.252 0.9,-0.876c0.54,-2.004 2.184,-3.468 3.084,-5.664l-0.516,-0.036c-0.156,0.3 -0.42,0.516 -0.744,0.516c-0.624,0 -0.588,-0.72 -1.428,-0.72c-0.636,0 -0.936,0.468 -1.14,0.468c-0.096,0 -0.132,-0.06 -0.132,-0.156c0,-0.072 0.012,-0.168 0.036,-0.288l-0.468,-0.024l-0.648,2.556l0.456,0.024c0.42,-1.332 0.888,-1.488 1.248,-1.488c0.552,0 1.536,0.468 2.076,0.576Z" style="fill:#4e4e4e;fill-rule:nonzero;"/><path d="M254.968,25.105c1.116,0 2.292,-0.78 2.292,-2.076c0,-0.636 -0.396,-1.092 -0.852,-1.476c0.768,-0.288 1.404,-0.828 1.404,-1.716c0,-0.876 -0.78,-1.644 -1.98,-1.644c-1.14,0 -2.1,0.78 -2.1,1.956c0,0.528 0.24,0.912 0.564,1.236c-0.852,0.216 -1.74,0.78 -1.74,1.872c0,0.936 0.996,1.848 2.412,1.848Zm-1.704,-1.896c0,-0.876 0.804,-1.296 1.5,-1.416c0.576,0.432 1.512,0.996 1.512,1.716c0,0.588 -0.612,0.996 -1.332,0.996c-1.032,0 -1.68,-0.696 -1.68,-1.296Zm2.568,-4.428c0.756,0 1.272,0.432 1.272,1.008c0,0.708 -0.54,1.2 -1.188,1.392c-0.564,-0.432 -1.224,-0.9 -1.224,-1.452c0,-0.612 0.528,-0.948 1.14,-0.948Z" style="fill:#4e4e4e;fill-rule:nonzero;"/><path d="M264.827,22.753c-0.42,0 -0.744,0.372 -0.744,0.828c0,0.636 0.72,1.524 1.956,1.524c1.26,0 2.628,-1.044 3.204,-3.204c0.12,-0.468 0.18,-0.9 0.18,-1.308c0,-1.356 -0.672,-2.4 -2.124,-2.4c-1.26,0 -2.484,0.948 -2.484,2.304c0,0.9 0.744,1.752 1.98,1.752c0.492,0 0.924,-0.192 1.308,-0.456c-0.3,1.128 -0.888,2.796 -2.088,2.796c-0.456,0 -0.768,-0.228 -0.768,-0.48c0,-0.264 0.204,-0.444 0.204,-0.756c0,-0.348 -0.24,-0.6 -0.624,-0.6Zm1.14,-2.016c0,-1.032 0.648,-1.98 1.476,-1.98c0.66,0 0.996,0.444 0.996,1.104c0,1.02 -0.648,1.86 -1.476,1.86c-0.66,0 -0.996,-0.408 -0.996,-0.984Z" style="fill:#4e4e4e;fill-rule:nonzero;"/></g></g><g><g><g><path d="M90.923,121.27l2.759,0.48c-0.467,0.72 -0.815,1.38 -0.815,2.028c0,0.504 0.36,0.792 0.719,0.792c0.36,0 0.72,-0.264 0.768,-0.912c0.048,-0.624 0.192,-1.188 0.384,-1.728l2.568,0.432l0.072,-0.54l-2.436,-0.42c0.481,-1.152 1.104,-2.268 1.404,-3.647l-0.527,0c-0.096,0.312 -0.336,0.551 -0.673,0.551c-0.576,0 -0.696,-0.647 -1.536,-0.647c-0.695,0 -0.959,0.528 -1.176,0.528c-0.168,0 -0.168,-0.144 -0.168,-0.432l-0.479,0l-0.12,2.207l0.455,0c0.12,-1.08 0.649,-1.176 1.009,-1.176c0.503,0 1.703,0.384 2.232,0.456c-0.433,0.732 -0.913,1.392 -1.345,2.004l-3.023,-0.516l-0.072,0.54Z" style="fill:#4e4e4e;fill-opacity:0.5;fill-rule:nonzero;"/><path d="M107.309,124.366l-0.408,1.332l0.528,0.144l0.396,-1.32c0.228,0.036 0.468,0.06 0.72,0.06c1.429,0 2.759,-1.247 2.759,-3.645c0,-1.436 -0.503,-2.596 -1.474,-3.062l0.444,-1.464l-0.528,-0.132l-0.433,1.428c0,0 -0.264,-0.048 -0.492,-0.048c-1.357,0 -2.351,1.041 -2.351,2.285c0,1.029 0.587,1.758 1.571,1.95l-0.325,1.105c-0.12,-0.097 -0.275,-0.157 -0.431,-0.157c-0.432,0 -0.659,0.337 -0.659,0.649c0,0.468 0.275,0.696 0.683,0.875Zm0.744,-0.575l0.552,-1.837c0.684,0 1.285,-0.311 1.669,-0.694c0,0.958 -0.288,2.819 -1.729,2.819c-0.252,0 -0.432,-0.108 -0.492,-0.288Zm0.72,-2.388l0.889,-2.966c0.324,0.263 0.516,0.73 0.516,1.411c0,0.885 -0.613,1.555 -1.405,1.555Zm0.384,-3.193l-0.924,3.086c-0.457,-0.192 -0.685,-0.67 -0.685,-1.424c0,-0.969 0.469,-1.686 1.357,-1.686c0.132,0 0.252,0.024 0.252,0.024Z" style="fill:#4e4e4e;fill-rule:nonzero;"/><path d="M77.834,125.854l0.372,-1.308c0,0 0.252,0.036 0.468,0.036c1.285,0 2.303,-0.875 2.303,-2.268c0,-0.996 -0.587,-1.8 -1.571,-2.027l0.265,-0.931c0.084,0.036 0.168,0.059 0.264,0.059c0.467,0 0.719,-0.346 0.719,-0.68c0,-0.382 -0.228,-0.657 -0.564,-0.836l0.42,-1.512l-0.527,-0.132l-0.409,1.464c0,0 -0.276,-0.06 -0.54,-0.06c-1.477,0 -2.891,1.291 -2.891,3.611c0,1.345 0.455,2.641 1.546,3.12l-0.384,1.332l0.529,0.132Zm0,-1.991c-0.361,-0.228 -0.565,-0.696 -0.565,-1.368c0,-1.189 0.601,-1.729 1.441,-1.729l-0.876,3.097Zm0.516,0.18l0.888,-3.145c0.433,0.228 0.661,0.732 0.661,1.38c0,1.009 -0.517,1.777 -1.393,1.777c-0.048,0 -0.156,-0.012 -0.156,-0.012Zm0.504,-3.816c-0.708,0 -1.357,0.311 -1.669,0.671c0.036,-1.411 0.552,-2.724 1.657,-2.724c0.348,0 0.444,0.167 0.468,0.43l-0.456,1.623Z" style="fill:#4e4e4e;fill-rule:nonzero;"/><path d="M62.881,125.854l0.372,-1.296c0,0 0.24,0.024 0.36,0.024c1.417,0 2.555,-0.947 2.555,-2.304c0,-1.056 -0.767,-1.776 -1.702,-2.003l0.408,-1.489c0.563,-0.168 1.007,-0.467 1.258,-0.875l-0.119,-0.168c-0.264,0.036 -0.863,0.084 -0.863,0.084l0.407,-1.452l-0.527,-0.132l-0.456,1.608c0,0 -0.433,0.012 -0.709,0.012c-0.576,0 -1.176,-0.048 -1.871,-0.12l-0.048,3.311l0.311,0.168c0.335,-0.312 0.78,-0.48 1.272,-0.48c0.072,0 0.228,0.012 0.228,0.012l-0.912,3.229c-0.277,-0.096 -0.457,-0.264 -0.457,-0.516c0,-0.3 0.229,-0.42 0.229,-0.78c0,-0.385 -0.277,-0.649 -0.624,-0.649c-0.467,0 -0.707,0.373 -0.707,0.877c0,0.588 0.539,1.26 1.427,1.535l-0.361,1.272l0.529,0.132Zm0.504,-1.775l0.9,-3.169c0.433,0.216 0.769,0.636 0.769,1.344c0,1.129 -0.684,1.825 -1.669,1.825Zm0.528,-3.888l-0.132,0c-0.528,0 -0.912,0.144 -1.237,0.299l-0.072,-0.035l0.024,-1.609c0.433,0.048 0.817,0.096 1.201,0.096c0.276,0 0.576,-0.036 0.576,-0.036l-0.36,1.285Z" style="fill:#4e4e4e;fill-rule:nonzero;"/><path d="M50.616,122.494l1.164,0l0,-0.551l-1.164,0l0,-2.52l1.668,-2.004l-0.432,-0.336l-4.043,4.86l-0.732,0c1.224,-1.824 1.824,-2.64 2.592,-4.2l-1.5,0c-0.408,1.584 -0.9,2.88 -1.74,4.272l0,0.479l0.924,0l-1.8,2.16l0.432,0.336l2.076,-2.496l1.572,0l0,0.841c0,0.504 -0.444,0.672 -0.78,0.672l-0.24,0l0,0.479l2.963,0l0,-0.479c-0.468,0 -0.96,-0.144 -0.96,-0.672l0,-0.841Zm-2.087,-0.551l1.104,-1.332l0,1.332l-1.104,0Z" style="fill:#4e4e4e;fill-rule:nonzero;"/><path d="M44.962,134.426c0.234,0 0.426,-0.186 0.426,-0.42c0,-0.24 -0.192,-0.425 -0.426,-0.425c-0.233,0 -0.425,0.185 -0.425,0.425c0,0.234 0.192,0.42 0.425,0.42Z" style="fill:#a6a6a6;fill-rule:nonzero;"/><path d="M48.562,134.426c0.234,0 0.426,-0.186 0.426,-0.42c0,-0.24 -0.192,-0.425 -0.426,-0.425c-0.233,0 -0.425,0.185 -0.425,0.425c0,0.234 0.192,0.42 0.425,0.42Z" style="fill:#a6a6a6;fill-rule:nonzero;"/><path d="M52.162,134.426c0.234,0 0.426,-0.186 0.426,-0.42c0,-0.24 -0.192,-0.425 -0.426,-0.425c-0.233,0 -0.425,0.185 -0.425,0.425c0,0.234 0.192,0.42 0.425,0.42Z" style="fill:#a6a6a6;fill-rule:nonzero;"/><path d="M31.387,125.746l0.491,-1.368c0.36,0.132 0.757,0.204 1.129,0.204c1.584,0 2.555,-0.731 2.555,-1.799c0,-0.829 -0.647,-1.369 -1.45,-1.633l0,-0.132c0.599,-0.228 1.33,-0.648 1.33,-1.604c0,-0.68 -0.455,-1.3 -1.21,-1.587l0.479,-1.344l-0.515,-0.168l-0.493,1.38c0,0 -0.228,-0.036 -0.456,-0.036c-1.309,0 -2.171,0.884 -2.171,1.624c0,0.525 0.371,0.823 0.719,0.823c0.431,0 0.659,-0.298 0.659,-0.62c0,-0.525 -0.384,-0.549 -0.384,-0.823c0,-0.203 0.348,-0.501 1.009,-0.501c0.24,0 0.432,0.036 0.432,0.036l-0.96,2.664l-0.169,0.012l0,0.468c0,0 -0.348,0.961 -0.408,1.141c-0.107,-0.084 -0.239,-0.132 -0.371,-0.132c-0.479,0 -0.767,0.408 -0.767,0.816c0,0.408 0.228,0.72 0.551,0.948l-0.527,1.463l0.527,0.168Zm0.779,-2.183l0.793,-2.209c1.008,0.156 1.417,0.733 1.417,1.357c0,0.828 -0.601,1.368 -1.453,1.368c-0.421,0 -0.745,-0.144 -0.757,-0.516l0,0Zm0.997,-2.785l0.864,-2.366c0.253,0.179 0.421,0.489 0.421,0.966c0,0.68 -0.469,1.184 -1.285,1.4l0,0Z" style="fill:#4e4e4e;fill-rule:nonzero;"/><path d="M32.718,132.212c0.456,-0.197 0.636,-0.564 0.636,-0.972c0,-0.756 -0.522,-1.115 -1.254,-1.115c-0.606,0 -1.062,0.275 -1.26,0.671l0.414,0.21c0.12,-0.282 0.456,-0.492 0.846,-0.492c0.462,0 0.786,0.192 0.786,0.726c0,0.432 -0.174,0.805 -0.858,0.805l-0.138,0l0,0.383l0.138,0c0.702,0 0.948,0.318 0.948,0.762c0,0.546 -0.336,0.847 -0.846,0.847c-0.468,0 -0.822,-0.211 -0.954,-0.493l-0.414,0.216c0.234,0.42 0.738,0.666 1.368,0.666c0.81,0 1.314,-0.455 1.314,-1.236c0,-0.474 -0.246,-0.828 -0.726,-0.978Z" style="fill:#a6a6a6;fill-rule:nonzero;"/><path d="M36.636,129.561l-0.372,0l-1.494,5.652l0.372,0l1.494,-5.652Z" style="fill:#a6a6a6;fill-rule:nonzero;"/><path d="M20.882,122.593l-0.43,-0.072c-0.168,0.599 -0.456,0.946 -1.057,0.946c-0.54,0 -0.888,-0.072 -1.332,-0.119l0.324,-1.282c0.288,-0.204 0.528,-0.335 0.624,-0.395c0.889,-0.539 1.931,-0.994 1.931,-2.144c0,-0.85 -0.623,-1.497 -1.51,-1.748l0.348,-1.452l-0.528,-0.108l-0.361,1.452c-0.096,-0.012 -0.192,-0.012 -0.3,-0.012c-1.488,0 -2.327,1.114 -2.327,1.88c0,0.515 0.288,0.826 0.731,0.826c0.407,0 0.648,-0.275 0.648,-0.622c0,-0.515 -0.349,-0.611 -0.349,-0.887c0,-0.323 0.505,-0.67 1.201,-0.67c0.096,0 0.18,0 0.264,0.012l-0.864,3.544c-0.84,0.575 -1.859,1.737 -1.955,2.744l0.48,0c0.167,-0.432 0.359,-0.672 0.815,-0.672c0.047,0 0.095,0 0.155,0.012l-0.479,1.956l0.528,0.108l0.468,-1.896c0.492,0.228 0.996,0.588 1.584,0.588c0.961,0 1.391,-0.959 1.391,-1.989Zm-2.303,-1.353l0.708,-2.875c0.361,0.205 0.613,0.565 0.613,1.117c0,0.816 -0.504,1.188 -1.321,1.764l0,-0.006Zm-0.888,1.35l-0.18,0.72c-0.145,-0.023 -0.3,-0.023 -0.468,-0.023c0.168,-0.263 0.407,-0.503 0.647,-0.706l0.001,0.009Z" style="fill:#4e4e4e;fill-rule:nonzero;"/><path d="M17.46,133.268c0.612,-0.636 1.061,-1.284 1.061,-1.938c0,-0.642 -0.402,-1.205 -1.199,-1.205c-0.546,0 -1.05,0.251 -1.284,0.665l0.408,0.216c0.144,-0.288 0.486,-0.492 0.864,-0.492c0.48,0 0.756,0.348 0.756,0.816c0,0.522 -0.396,1.146 -0.954,1.698c-0.282,0.306 -0.66,0.624 -1.068,0.949l0,0.383l2.465,0l0,-0.383l-1.817,0c0.054,-0.024 0.48,-0.397 0.768,-0.709Z" style="fill:#a6a6a6;fill-rule:nonzero;"/><path d="M21.845,129.561l-0.372,0l-1.493,5.652l0.371,0l1.494,-5.652Z" style="fill:#a6a6a6;fill-rule:nonzero;"/></g><g><path d="M217.036,117.755l-0.479,0l-0.12,2.207l0.455,0c0.12,-1.08 0.649,-1.176 1.009,-1.176c0.503,0 1.703,0.384 2.232,0.456c-0.289,0.492 -0.601,0.948 -0.901,1.392l-4.283,0.768l0.12,0.54l3.707,-0.672c-0.635,0.912 -1.139,1.716 -1.139,2.508c0,0.504 0.36,0.792 0.719,0.792c0.36,0 0.72,-0.264 0.768,-0.912c0.072,-0.948 0.372,-1.776 0.732,-2.592l3.156,-0.564l-0.12,-0.54l-2.771,0.504c0.384,-0.84 0.779,-1.704 0.995,-2.711l-0.527,0c-0.096,0.312 -0.336,0.551 -0.673,0.551c-0.576,0 -0.696,-0.647 -1.536,-0.647c-0.695,0 -0.959,0.528 -1.176,0.528c-0.168,0 -0.168,-0.144 -0.168,-0.432l0,0Z" style="fill:#4e4e4e;fill-rule:nonzero;"/><path d="M232.904,123.491c0,0.792 1.008,1.092 1.932,1.092c1.428,0 2.76,-1.248 2.76,-3.648c0,-0.348 -0.024,-0.672 -0.084,-0.984l2.1,-0.372l-0.12,-0.54l-2.124,0.384c-0.348,-1.068 -1.116,-1.776 -2.256,-1.776c-1.356,0 -2.352,1.044 -2.352,2.292c0,0.204 0.024,0.312 0.024,0.312l-2.316,0.408l0.12,0.54l2.328,-0.42c0.3,0.732 1.008,1.176 1.992,1.176c0.732,0 1.212,-0.312 1.596,-0.696c0,0.96 -0.228,2.82 -1.668,2.82c-0.264,0 -0.42,-0.12 -0.492,-0.312c-0.048,-0.132 -0.048,-0.276 -0.096,-0.42c-0.12,-0.336 -0.384,-0.528 -0.684,-0.528c-0.444,0 -0.66,0.348 -0.66,0.672Zm3.48,-3.336c-0.108,0.732 -0.6,1.248 -1.332,1.248c-0.588,0 -0.936,-0.276 -1.08,-0.816l2.412,-0.432Zm0.012,-0.564l-2.508,0.456l0,-0.18c0,-0.972 0.408,-1.692 1.308,-1.692c0.708,0 1.14,0.468 1.2,1.416Z" style="fill:#4e4e4e;fill-rule:nonzero;"/><path d="M205.22,118.735c0,-0.705 -0.815,-1.076 -1.618,-1.076c-1.478,0 -2.892,1.291 -2.892,3.611c0,0.336 0.024,0.672 0.096,0.996l-2.34,0.421l0.12,0.54l2.351,-0.42c0.336,1.02 1.067,1.775 2.304,1.775c1.285,0 2.303,-0.875 2.303,-2.268c0,-0.192 -0.024,-0.336 -0.024,-0.336l2.088,-0.372l-0.12,-0.54l-2.112,0.384c-0.311,-0.732 -1.006,-1.223 -1.991,-1.223c-0.696,0 -1.285,0.323 -1.585,0.671c0.036,-1.411 0.505,-2.724 1.609,-2.724c0.433,0 0.469,0.239 0.493,0.633c0.024,0.382 0.287,0.608 0.599,0.608c0.468,0 0.719,-0.346 0.719,-0.68Zm-0.838,3.447l0,0.096c0,1.009 -0.445,1.777 -1.309,1.777c-0.744,0 -1.153,-0.492 -1.189,-1.428l2.498,-0.445Zm-0.072,-0.54l-2.402,0.432c0.12,-0.888 0.625,-1.308 1.309,-1.308c0.6,0 0.949,0.336 1.093,0.876Z" style="fill:#4e4e4e;fill-rule:nonzero;"/><path d="M185.783,123.539c0,-0.216 0.132,-0.36 0.132,-0.612c0,-0.421 -0.324,-0.673 -0.647,-0.673c-0.48,0 -0.767,0.397 -0.767,0.841c0,0.984 1.15,1.487 2.231,1.487c1.417,0 2.531,-0.779 2.531,-1.968c0,-1.164 -1.018,-1.883 -2.243,-1.883c-0.66,0 -1.153,0.216 -1.452,0.371l0.011,-0.767l5.124,-0.925l-0.12,-0.54l-5.004,0.912l0.012,-0.816c1.621,0 2.63,-0.288 3.205,-1.115l-0.12,-0.168c-0.707,0.12 -1.284,0.168 -1.884,0.168c-0.528,0 -1.069,-0.036 -1.703,-0.108l-0.024,2.136l-2.424,0.432l0.12,0.54l2.292,-0.42l-0.012,1.055l0.275,0.216c0.419,-0.252 0.888,-0.396 1.38,-0.396c0.708,0 1.345,0.372 1.345,1.284c0,0.937 -0.553,1.489 -1.477,1.489c-0.36,0 -0.781,-0.132 -0.781,-0.54l0,0Z" style="fill:#4e4e4e;fill-rule:nonzero;"/><path d="M172.714,122.734l1.104,0l0,-0.551l-1.104,0l0,-1.416l2.556,-0.456l-0.12,-0.54l-2.436,0.444l0,-0.96l-1.091,1.152l-1.452,0.264l-0.06,-0.072c0.648,-1.02 1.2,-1.776 1.692,-2.856l-1.596,0c-0.24,1.068 -0.612,2.124 -1.056,3.12l-2.784,0.504l0.12,0.54l2.364,-0.432l0.036,0.072c0,0 -0.264,0.456 -0.42,0.708l0,0.479l3.144,0l0,0.6c0,0.505 -0.444,0.673 -0.78,0.673l-0.24,0l0,0.479l3.023,0l0,-0.479c-0.468,0 -0.9,-0.144 -0.9,-0.673l0,-0.6Zm-2.987,-1.415l1.884,-0.348l0,1.212l-2.424,0c0.192,-0.312 0.372,-0.6 0.54,-0.864Z" style="fill:#4e4e4e;fill-rule:nonzero;"/><path d="M168.001,134.426c0.233,0 0.425,-0.186 0.425,-0.42c0,-0.24 -0.192,-0.425 -0.425,-0.425c-0.234,0 -0.426,0.185 -0.426,0.425c0,0.234 0.192,0.42 0.426,0.42Z" style="fill:#a6a6a6;fill-rule:nonzero;"/><path d="M171.601,134.426c0.233,0 0.425,-0.186 0.425,-0.42c0,-0.24 -0.192,-0.425 -0.425,-0.425c-0.234,0 -0.426,0.185 -0.426,0.425c0,0.234 0.192,0.42 0.426,0.42Z" style="fill:#a6a6a6;fill-rule:nonzero;"/><path d="M175.201,134.426c0.233,0 0.425,-0.186 0.425,-0.42c0,-0.24 -0.192,-0.425 -0.425,-0.425c-0.234,0 -0.426,0.185 -0.426,0.425c0,0.234 0.192,0.42 0.426,0.42Z" style="fill:#a6a6a6;fill-rule:nonzero;"/><path d="M153.64,123.491c0,-0.216 0.132,-0.36 0.132,-0.612c0,-0.42 -0.324,-0.672 -0.647,-0.672c-0.48,0 -0.78,0.396 -0.78,0.816c0,0.876 1.007,1.559 2.22,1.559c1.584,0 2.555,-0.731 2.555,-1.847c0,-0.901 -0.623,-1.441 -1.451,-1.669l0,-0.108l3.599,-0.648l-0.12,-0.538l-2.495,0.454c0.155,-0.216 0.263,-0.502 0.263,-0.872c0,-0.918 -0.851,-1.695 -2.111,-1.695c-1.273,0 -2.1,0.884 -2.1,1.624c0,0.525 0.372,0.823 0.719,0.823c0.432,0 0.66,-0.298 0.66,-0.62c0,-0.525 -0.384,-0.549 -0.384,-0.823c0,-0.203 0.264,-0.501 0.853,-0.501c0.612,0 1.152,0.393 1.152,1.204c0,0.597 -0.324,1.088 -1.008,1.22l-4.092,0.732l0.12,0.54l2.987,-0.54c0.24,-0.048 0.456,-0.084 0.672,-0.084c0.877,0 1.441,0.636 1.441,1.429c0,0.876 -0.576,1.416 -1.344,1.416c-0.601,0 -0.841,-0.204 -0.841,-0.588Z" style="fill:#4e4e4e;fill-rule:nonzero;"/><path d="M152.476,132.212c0.456,-0.197 0.635,-0.564 0.635,-0.972c0,-0.756 -0.521,-1.115 -1.253,-1.115c-0.606,0 -1.062,0.275 -1.26,0.671l0.414,0.21c0.12,-0.282 0.456,-0.492 0.846,-0.492c0.462,0 0.786,0.192 0.786,0.726c0,0.432 -0.174,0.805 -0.858,0.805l-0.138,0l0,0.383l0.138,0c0.702,0 0.948,0.318 0.948,0.762c0,0.546 -0.336,0.847 -0.846,0.847c-0.468,0 -0.822,-0.211 -0.954,-0.493l-0.414,0.216c0.234,0.42 0.738,0.666 1.368,0.666c0.81,0 1.313,-0.455 1.313,-1.236c0,-0.474 -0.245,-0.828 -0.725,-0.978Z" style="fill:#a6a6a6;fill-rule:nonzero;"/><path d="M156.393,129.561l-0.371,0l-1.494,5.652l0.372,0l1.493,-5.652Z" style="fill:#a6a6a6;fill-rule:nonzero;"/><path d="M159.993,129.561l-0.371,0l-1.494,5.652l0.372,0l1.493,-5.652Z" style="fill:#a6a6a6;fill-rule:nonzero;"/><path d="M135.001,122.09l3.839,-0.707c-0.12,0.108 -0.276,0.228 -0.432,0.347c-0.84,0.575 -1.871,1.749 -1.967,2.756l0.48,0c0.168,-0.432 0.359,-0.672 0.815,-0.672c0.72,0.001 1.38,0.768 2.257,0.768c0.96,0 1.391,-0.959 1.391,-1.989l-0.431,-0.072c-0.168,0.599 -0.456,0.886 -1.056,0.886c-0.901,0 -1.105,-0.24 -2.185,-0.24c0.552,-0.838 1.561,-1.341 1.801,-1.497c0.312,-0.191 0.636,-0.371 0.924,-0.574l2.867,-0.527l-0.12,-0.539l-2.1,0.383c0.156,-0.239 0.24,-0.527 0.24,-0.886c0,-1.102 -1.055,-1.868 -2.352,-1.868c-1.164,0 -2.315,0.79 -2.315,1.844c0,0.431 0.288,0.754 0.779,0.754c0.384,0 0.636,-0.275 0.636,-0.67c0,-0.347 -0.264,-0.527 -0.264,-0.743c0,-0.419 0.456,-0.658 1.02,-0.658c0.673,0 1.129,0.407 1.129,1.293c0,0.419 -0.108,0.802 -0.444,1.221l-4.632,0.851l0.12,0.539Z" style="fill:#4e4e4e;fill-rule:nonzero;"/><path d="M136.161,133.268c0.612,-0.636 1.061,-1.284 1.061,-1.938c0,-0.642 -0.401,-1.205 -1.199,-1.205c-0.546,0 -1.05,0.251 -1.284,0.665l0.408,0.216c0.144,-0.288 0.486,-0.492 0.864,-0.492c0.48,0 0.756,0.348 0.756,0.816c0,0.522 -0.396,1.146 -0.954,1.698c-0.282,0.306 -0.66,0.624 -1.068,0.949l0,0.383l2.465,0l0,-0.383l-1.817,0c0.054,-0.024 0.48,-0.397 0.768,-0.709Z" style="fill:#a6a6a6;fill-rule:nonzero;"/><path d="M140.546,129.561l-0.372,0l-1.493,5.652l0.372,0l1.493,-5.652Z" style="fill:#a6a6a6;fill-rule:nonzero;"/><path d="M144.146,129.561l-0.372,0l-1.493,5.652l0.372,0l1.493,-5.652Z" style="fill:#a6a6a6;fill-rule:nonzero;"/></g><g><path d="M269.369,118.735c0,-0.705 -0.816,-1.076 -1.619,-1.076c-1.477,0 -2.892,1.291 -2.892,3.611l0,0.264l-2.16,-0.312l-0.096,0.54l2.316,0.336c0.204,1.357 0.959,2.484 2.471,2.484c1.141,0 2.064,-0.683 2.268,-1.799l2.016,0.288l0.096,-0.54l-2.076,-0.301c-0.036,-1.14 -0.863,-2.003 -2.16,-2.003c-0.696,0 -1.284,0.323 -1.584,0.671c0.036,-1.411 0.504,-2.724 1.609,-2.724c0.432,0 0.468,0.239 0.492,0.633c0.024,0.382 0.288,0.608 0.599,0.608c0.468,0 0.72,-0.346 0.72,-0.68Zm-3.324,3.519l2.473,0.361c-0.096,0.84 -0.528,1.44 -1.297,1.44c-0.78,0 -1.188,-0.54 -1.188,-1.56c0,-0.108 0.012,-0.241 0.012,-0.241l0,0Zm2.473,-0.192l-2.389,-0.348c0.204,-0.636 0.66,-0.948 1.236,-0.948c0.733,0 1.105,0.516 1.153,1.296Z" style="fill:#4e4e4e;fill-rule:nonzero;"/><path d="M266.287,131.571c-0.39,0 -0.726,0.131 -0.972,0.413c0.114,-1.002 0.654,-1.44 1.14,-1.464c0.205,-0.012 0.415,0.018 0.553,0.09l0.191,-0.366c-0.179,-0.09 -0.455,-0.137 -0.75,-0.119c-0.816,0.047 -1.619,0.695 -1.619,2.267c0,1.494 0.509,2.034 1.367,2.034c0.823,0 1.29,-0.546 1.29,-1.452c0,-0.918 -0.401,-1.403 -1.2,-1.403Zm-0.09,2.466c-0.576,0 -0.876,-0.403 -0.906,-1.489c0.186,-0.426 0.594,-0.588 0.996,-0.588c0.529,0 0.739,0.372 0.739,1.014c0,0.63 -0.276,1.063 -0.829,1.063Z" style="fill:#a6a6a6;fill-rule:nonzero;"/><path d="M268.844,129.561l1.493,5.652l0.372,0l-1.493,-5.652l-0.372,0Z" style="fill:#a6a6a6;fill-rule:nonzero;"/><path d="M278.596,121.27l2.759,0.48c-0.467,0.72 -0.815,1.38 -0.815,2.028c0,0.504 0.36,0.792 0.719,0.792c0.36,0 0.72,-0.264 0.767,-0.912c0.049,-0.624 0.193,-1.188 0.385,-1.728l2.567,0.432l0.072,-0.54l-2.435,-0.42c0.481,-1.152 1.104,-2.268 1.403,-3.647l-0.526,0c-0.096,0.312 -0.336,0.551 -0.673,0.551c-0.576,0 -0.696,-0.647 -1.536,-0.647c-0.695,0 -0.96,0.528 -1.176,0.528c-0.169,0 -0.169,-0.144 -0.169,-0.432l-0.478,0l-0.12,2.207l0.454,0c0.121,-1.08 0.65,-1.176 1.01,-1.176c0.503,0 1.703,0.384 2.232,0.456c-0.433,0.732 -0.913,1.392 -1.345,2.004l-3.023,-0.516l-0.072,0.54Z" style="fill:#4e4e4e;fill-rule:nonzero;"/><path d="M279.348,130.161l0,0.383l2.039,0l-1.715,3.816l0.479,0l1.68,-3.816l0,-0.383l-2.483,0Z" style="fill:#a6a6a6;fill-rule:nonzero;"/><path d="M283.218,129.561l1.493,5.652l0.372,0l-1.494,-5.652l-0.371,0Z" style="fill:#a6a6a6;fill-rule:nonzero;"/></g></g><g><g><g><path d="M33.852,149.988l0.012,1.701c-0.828,-0.049 -1.692,-0.432 -2.701,-0.432c0.528,-1.078 1.645,-1.581 1.885,-1.737c0.888,-0.539 1.811,-0.934 1.811,-2.023c0,-1.042 -1.055,-1.748 -2.351,-1.748c-1.489,0 -2.327,1.113 -2.327,1.879c0,0.515 0.299,0.827 0.767,0.827c0.419,0 0.671,-0.276 0.671,-0.623c0,-0.515 -0.348,-0.611 -0.348,-0.886c0,-0.324 0.42,-0.671 1.093,-0.671c0.672,0 1.129,0.347 1.129,1.174c0,0.658 -0.337,1.221 -1.549,2.131c-0.841,0.575 -1.859,1.856 -1.967,2.995l0.479,0c0.168,-0.432 0.36,-0.672 0.815,-0.672c0.757,0.001 1.705,0.624 2.606,0.744l0.012,1.536l0.55,0l-0.012,-1.524c0.648,-0.072 1.26,-0.419 1.704,-1.15l-0.3,-0.311c-0.408,0.299 -0.9,0.443 -1.416,0.491l-0.012,-1.701l-0.551,0Z" style="fill:#4e4e4e;fill-rule:nonzero;"/><path d="M30.807,161.358c0.612,-0.636 1.062,-1.285 1.062,-1.939c0,-0.642 -0.402,-1.205 -1.2,-1.205c-0.546,0 -1.05,0.251 -1.284,0.665l0.408,0.216c0.144,-0.288 0.486,-0.492 0.864,-0.492c0.48,0 0.756,0.348 0.756,0.816c0,0.522 -0.396,1.147 -0.954,1.699c-0.282,0.306 -0.66,0.624 -1.068,0.948l0,0.383l2.466,0l0,-0.383l-1.818,0c0.054,-0.024 0.48,-0.396 0.768,-0.708Z" style="fill:#a6a6a6;fill-rule:nonzero;"/><path d="M34.011,157.908l0.084,1.337l0.3,0l0.084,-1.337l-0.468,0Z" style="fill:#a6a6a6;fill-rule:nonzero;"/><path d="M37.611,157.908l0.084,1.337l0.3,0l0.084,-1.337l-0.468,0Z" style="fill:#a6a6a6;fill-rule:nonzero;"/><path d="M19.218,150.024l0.192,1.665c-0.804,-0.085 -1.633,-0.432 -2.593,-0.432c0.528,-1.078 1.645,-1.581 1.885,-1.737c0.888,-0.539 1.811,-0.934 1.811,-2.023c0,-1.042 -1.055,-1.748 -2.351,-1.748c-1.489,0 -2.328,1.113 -2.328,1.879c0,0.515 0.3,0.827 0.767,0.827c0.42,0 0.672,-0.276 0.672,-0.623c0,-0.515 -0.348,-0.611 -0.348,-0.886c0,-0.324 0.42,-0.671 1.092,-0.671c0.673,0 1.129,0.347 1.129,1.174c0,0.658 -0.336,1.221 -1.549,2.131c-0.84,0.575 -1.859,1.856 -1.967,2.995l0.48,0c0.168,-0.432 0.359,-0.672 0.815,-0.672c0.756,0.001 1.693,0.612 2.593,0.744l0.192,1.656l0.539,-0.084l-0.18,-1.56c0.66,-0.072 1.272,-0.419 1.716,-1.15l-0.3,-0.311c-0.432,0.323 -0.96,0.467 -1.524,0.491l-0.203,-1.749l-0.54,0.084Z" style="fill:#4e4e4e;fill-rule:nonzero;"/><path d="M18.15,161.358c0.612,-0.636 1.061,-1.285 1.061,-1.939c0,-0.642 -0.401,-1.205 -1.199,-1.205c-0.546,0 -1.05,0.251 -1.284,0.665l0.408,0.216c0.144,-0.288 0.486,-0.492 0.864,-0.492c0.48,0 0.756,0.348 0.756,0.816c0,0.522 -0.396,1.147 -0.954,1.699c-0.282,0.306 -0.66,0.624 -1.068,0.948l0,0.383l2.465,0l0,-0.383l-1.817,0c0.054,-0.024 0.48,-0.396 0.768,-0.708Z" style="fill:#a6a6a6;fill-rule:nonzero;"/><path d="M21.354,157.908l0.084,1.337l0.299,0l0.084,-1.337l-0.467,0Z" style="fill:#a6a6a6;fill-rule:nonzero;"/></g><path d="M56.38,150.583l1.729,0l0,1.861l0.551,0l0,-1.861l1.404,0l0,-0.55l-1.404,0l0,-1.896l-0.551,0l0,1.896l-1.729,0l0,-2.52l-1.103,1.176l0,1.344l-2.424,0c1.224,-1.824 1.848,-2.64 2.616,-4.2l-1.596,0c-0.408,1.584 -0.9,2.88 -1.74,4.271l0,0.479l3.144,0l0,0.841c0,0.504 -0.444,0.673 -0.78,0.673l-0.24,0l0,0.478l2.663,0l0,-0.478c-0.252,0 -0.54,-0.145 -0.54,-0.673l0,-0.841Z" style="fill:#4e4e4e;fill-rule:nonzero;"/><path d="M56.02,161.1l-0.738,0l0,-2.85l-0.899,0l-0.996,2.85l0,0.389l1.47,0l0,0.96l0.425,0l0,-0.96l0.738,0l0,-0.389Zm-2.189,0l0.858,-2.467l0.168,0l0,2.467l-1.026,0Z" style="fill:#a6a6a6;fill-rule:nonzero;"/><path d="M58.049,157.908l0.084,1.337l0.299,0l0.084,-1.337l-0.467,0Z" style="fill:#a6a6a6;fill-rule:nonzero;"/><path d="M147.977,145.832l-0.48,0l-0.12,2.208l0.456,0c0.12,-1.08 0.696,-1.272 1.056,-1.272c0.156,0 0.384,0.036 0.636,0.096l-1.404,2.412l0.492,0.252l1.476,-2.532c0.396,0.096 0.792,0.192 1.032,0.228c-1.236,2.052 -2.496,3.312 -2.496,4.632c0,0.504 0.312,0.792 0.672,0.792c0.36,0 0.72,-0.264 0.768,-0.912c0.168,-2.16 1.512,-3.672 1.992,-5.904l-0.528,0c-0.096,0.312 -0.336,0.552 -0.672,0.552c-0.144,0 -0.252,-0.036 -0.36,-0.096l1.176,-2.004l-0.516,-0.252l-1.116,1.92c-0.168,-0.12 -0.396,-0.216 -0.72,-0.216c-0.696,0 -0.96,0.528 -1.176,0.528c-0.168,0 -0.168,-0.144 -0.168,-0.432Z" style="fill:#4e4e4e;fill-rule:nonzero;"/><path d="M148.343,158.25l0,0.383l2.04,0l-1.716,3.816l0.48,0l1.68,-3.816l0,-0.383l-2.484,0Z" style="fill:#a6a6a6;fill-rule:nonzero;"/><path d="M152.909,157.908l0.084,1.337l0.3,0l0.084,-1.337l-0.468,0Z" style="fill:#a6a6a6;fill-rule:nonzero;"/><path d="M169.687,149.072c-0.744,0 -1.032,-0.576 -1.032,-1.44c0,-0.672 0.408,-1.368 1.248,-1.368c0.744,0 1.152,0.6 1.152,1.296c0,0.84 -0.6,1.512 -1.368,1.512Zm1.464,-0.096c0,0.912 -0.312,1.776 -1.032,2.376l-2.184,-1.272l-0.264,0.456l1.968,1.152c-0.504,0.264 -1.128,0.456 -1.92,0.48l0.024,0.504c0.96,0 1.824,-0.24 2.52,-0.648l2.064,1.2l0.264,-0.456l-1.848,-1.056c0.984,-0.768 1.56,-1.92 1.56,-3.24c0,-1.44 -0.84,-2.736 -2.544,-2.736c-1.32,0 -2.328,0.96 -2.328,1.92c0,1.056 0.72,1.968 2.112,1.968c0.672,0 1.272,-0.312 1.608,-0.648Z" style="fill:#4e4e4e;fill-rule:nonzero;"/><path d="M169.651,158.208c-0.78,0 -1.289,0.545 -1.289,1.452c0,0.918 0.437,1.403 1.217,1.403c0.414,0 0.708,-0.144 0.955,-0.449c-0.103,0.779 -0.415,1.134 -0.853,1.302c-0.378,0.138 -0.9,0.15 -0.96,0.15l0,0.383c0.072,0 0.558,0.012 1.02,-0.15c0.726,-0.239 1.278,-0.792 1.278,-2.261c0,-1.381 -0.527,-1.83 -1.368,-1.83Zm-0.09,2.466c-0.528,0 -0.738,-0.372 -0.738,-1.014c0,-0.631 0.288,-1.063 0.828,-1.063c0.6,0 0.907,0.33 0.913,1.423c-0.181,0.408 -0.541,0.654 -1.003,0.654Z" style="fill:#a6a6a6;fill-rule:nonzero;"/><path d="M173.072,157.908l0.083,1.337l0.3,0l0.084,-1.337l-0.467,0Z" style="fill:#a6a6a6;fill-rule:nonzero;"/><g><path d="M89.735,151.628c0,-0.216 0.132,-0.36 0.132,-0.612c0,-0.42 -0.324,-0.672 -0.647,-0.672c-0.48,0 -0.767,0.396 -0.767,0.84c0,0.985 1.15,1.487 2.231,1.487c1.417,0 2.531,-0.779 2.531,-1.967c0,-1.165 -1.019,-1.883 -2.243,-1.883c-0.66,0 -1.153,0.215 -1.453,0.371l0.024,-2.233c0.433,0.036 1.045,0.072 1.466,0.072c0.084,0 0.156,0 0.228,-0.012l0.012,1.152l0.55,0l-0.012,-1.224c0.721,-0.156 1.284,-0.515 1.644,-0.946l-0.096,-0.168c-0.527,0.072 -1.067,0.096 -1.56,0.108l-0.012,-1.608l-0.55,0l0.012,1.62l-0.024,0c-0.637,0 -1.466,-0.048 -2.16,-0.12l-0.048,3.742l0.275,0.216c0.419,-0.252 0.888,-0.396 1.38,-0.396c0.708,0 1.345,0.372 1.345,1.285c0,0.936 -0.553,1.489 -1.477,1.489c-0.36,0 -0.781,-0.132 -0.781,-0.541l0,0Z" style="fill:#4e4e4e;fill-rule:nonzero;"/><path d="M88.989,159.66c-0.33,0 -0.624,0.114 -0.834,0.329l0.126,-1.356l1.728,0l0,-0.383l-2.1,0l-0.21,2.207l0.396,0.18c0.198,-0.414 0.558,-0.582 0.894,-0.582c0.54,0 0.744,0.39 0.744,1.008c0,0.643 -0.288,1.063 -0.87,1.063c-0.402,0 -0.714,-0.126 -0.906,-0.45l-0.408,0.21c0.282,0.443 0.738,0.629 1.296,0.629c0.834,0 1.35,-0.539 1.35,-1.452c0,-0.924 -0.42,-1.403 -1.206,-1.403Z" style="fill:#a6a6a6;fill-rule:nonzero;"/><path d="M92.307,157.908l0.084,1.337l0.3,0l0.084,-1.337l-0.468,0Z" style="fill:#a6a6a6;fill-rule:nonzero;"/><path d="M95.907,157.908l0.084,1.337l0.3,0l0.084,-1.337l-0.468,0Z" style="fill:#a6a6a6;fill-rule:nonzero;"/><path d="M75.401,151.556c0,-0.216 0.132,-0.36 0.132,-0.612c0,-0.42 -0.324,-0.672 -0.648,-0.672c-0.479,0 -0.767,0.396 -0.767,0.84c0,0.985 1.139,1.559 2.219,1.559c1.417,0 2.532,-0.923 2.532,-2.087c0,-1.237 -1.019,-2.003 -2.243,-2.003c-0.661,0 -1.153,0.215 -1.453,0.371l0.024,-1.993c0.432,0.036 1.044,0.072 1.465,0.072c0.156,0 0.3,-0.012 0.432,-0.024l1.092,1.645l0.443,-0.324l-0.947,-1.441c0.599,-0.179 1.091,-0.503 1.403,-0.886l-0.096,-0.168c-0.66,0.084 -1.355,0.108 -1.919,0.12l-1.249,-1.884l-0.444,0.324l1.021,1.548c-0.541,-0.012 -1.165,-0.048 -1.704,-0.108l-0.048,3.502l0.275,0.216c0.42,-0.252 0.888,-0.396 1.38,-0.396c0.709,0 1.345,0.42 1.345,1.405c0,0.912 -0.552,1.609 -1.477,1.609c-0.348,0 -0.768,-0.216 -0.768,-0.613l0,0Z" style="fill:#4e4e4e;fill-rule:nonzero;"/><path d="M76.332,159.66c-0.33,0 -0.624,0.114 -0.834,0.329l0.126,-1.356l1.727,0l0,-0.383l-2.099,0l-0.21,2.207l0.396,0.18c0.198,-0.414 0.558,-0.582 0.894,-0.582c0.54,0 0.744,0.39 0.744,1.008c0,0.643 -0.288,1.063 -0.87,1.063c-0.402,0 -0.714,-0.126 -0.906,-0.45l-0.408,0.21c0.282,0.443 0.738,0.629 1.296,0.629c0.834,0 1.349,-0.539 1.349,-1.452c0,-0.924 -0.419,-1.403 -1.205,-1.403Z" style="fill:#a6a6a6;fill-rule:nonzero;"/><path d="M79.65,157.908l0.084,1.337l0.299,0l0.084,-1.337l-0.467,0Z" style="fill:#a6a6a6;fill-rule:nonzero;"/></g><g><path d="M128.916,150.608c0,0.804 -0.384,1.537 -1.236,1.537c-0.757,0 -1.165,-0.553 -1.165,-1.297c0,-0.817 0.528,-1.513 1.345,-1.513c0.744,0 1.056,0.54 1.056,1.273Zm-1.092,2.063c1.296,0 2.315,-0.911 2.315,-2.027c0,-0.937 -0.731,-1.847 -2.051,-1.847c-0.661,0 -1.285,0.275 -1.609,0.61c0,-1.344 0.936,-2.22 2.065,-2.7l0.612,1.464l0.504,-0.204l-0.6,-1.44c0.528,-0.168 1.079,-0.24 1.571,-0.252l0,-0.502c-0.636,0 -1.247,0.071 -1.799,0.203l-0.648,-1.547l-0.504,0.204l0.624,1.487c-1.825,0.599 -3.012,1.943 -3.012,3.791c0,1.117 0.72,2.76 2.532,2.76Z" style="fill:#4e4e4e;fill-rule:nonzero;"/><path d="M126.003,159.66c-0.39,0 -0.727,0.132 -0.973,0.413c0.114,-1.002 0.655,-1.44 1.141,-1.464c0.204,-0.012 0.414,0.018 0.552,0.09l0.192,-0.366c-0.18,-0.089 -0.456,-0.137 -0.75,-0.119c-0.817,0.048 -1.62,0.695 -1.62,2.267c0,1.495 0.509,2.034 1.368,2.034c0.822,0 1.289,-0.545 1.289,-1.452c0,-0.918 -0.401,-1.403 -1.199,-1.403Zm-0.09,2.466c-0.577,0 -0.877,-0.402 -0.907,-1.489c0.186,-0.426 0.595,-0.588 0.997,-0.588c0.528,0 0.738,0.372 0.738,1.014c0,0.631 -0.276,1.063 -0.828,1.063Z" style="fill:#a6a6a6;fill-rule:nonzero;"/><path d="M129.255,157.908l0.084,1.337l0.299,0l0.084,-1.337l-0.467,0Z" style="fill:#a6a6a6;fill-rule:nonzero;"/><path d="M132.855,157.908l0.084,1.337l0.299,0l0.084,-1.337l-0.467,0Z" style="fill:#a6a6a6;fill-rule:nonzero;"/><path d="M114.569,150.608c0,0.804 -0.384,1.536 -1.236,1.536c-0.756,0 -1.164,-0.552 -1.164,-1.296c0,-0.816 0.528,-1.512 1.344,-1.512c0.744,0 1.056,0.54 1.056,1.272Zm-1.092,2.064c1.296,0 2.316,-0.912 2.316,-2.028c0,-0.936 -0.732,-1.848 -2.052,-1.848c-0.66,0 -1.332,0.288 -1.668,0.672c0.024,-1.188 0.36,-1.956 0.888,-2.448l1.74,1.308l0.312,-0.456l-1.584,-1.176c0.504,-0.276 1.116,-0.396 1.8,-0.42l-0.024,-0.504c-0.84,0 -1.644,0.168 -2.328,0.504l-2.136,-1.596l-0.312,0.456l1.944,1.452c-0.864,0.624 -1.428,1.608 -1.428,2.964c0,1.476 0.72,3.12 2.532,3.12Z" style="fill:#4e4e4e;fill-rule:nonzero;"/><path d="M113.345,159.66c-0.39,0 -0.726,0.132 -0.972,0.413c0.114,-1.002 0.654,-1.44 1.14,-1.464c0.204,-0.012 0.415,0.018 0.553,0.09l0.191,-0.366c-0.179,-0.089 -0.456,-0.137 -0.75,-0.119c-0.816,0.048 -1.619,0.695 -1.619,2.267c0,1.495 0.509,2.034 1.367,2.034c0.823,0 1.29,-0.545 1.29,-1.452c0,-0.918 -0.402,-1.403 -1.2,-1.403Zm-0.09,2.466c-0.576,0 -0.876,-0.402 -0.906,-1.489c0.186,-0.426 0.594,-0.588 0.996,-0.588c0.528,0 0.739,0.372 0.739,1.014c0,0.631 -0.277,1.063 -0.829,1.063Z" style="fill:#a6a6a6;fill-rule:nonzero;"/><path d="M116.598,157.908l0.084,1.337l0.299,0l0.084,-1.337l-0.467,0Z" style="fill:#a6a6a6;fill-rule:nonzero;"/></g></g><g><path d="M225.365,148.242l0,2.364l-2.364,0c-0.168,0.6 -0.456,0.888 -1.056,0.888c-0.888,0 -1.104,-0.24 -2.184,-0.24c0.552,-0.84 1.56,-1.344 1.8,-1.5c0.888,-0.54 1.812,-0.996 1.812,-2.148c0,-1.104 -1.056,-1.872 -2.352,-1.872c-1.488,0 -2.328,1.116 -2.328,1.884c0,0.516 0.3,0.828 0.768,0.828c0.42,0 0.672,-0.276 0.672,-0.624c0,-0.516 -0.348,-0.612 -0.348,-0.888c0,-0.324 0.42,-0.672 1.092,-0.672c0.672,0 1.128,0.408 1.128,1.296c0,0.72 -0.336,1.344 -1.548,2.256c-0.84,0.576 -1.872,1.752 -1.968,2.76l0.48,0c0.168,-0.432 0.36,-0.672 0.816,-0.672c0.72,0 1.392,0.768 2.256,0.768c0.804,0 1.248,-0.684 1.356,-1.512l1.968,0l0,2.364l0.552,0l0,-2.364l2.364,0l0,-0.552l-2.364,0l0,-2.364l-0.552,0Z" style="fill:#4e4e4e;fill-rule:nonzero;"/><path d="M221.009,161.356c0.612,-0.636 1.062,-1.284 1.062,-1.939c0,-0.642 -0.402,-1.205 -1.2,-1.205c-0.546,0 -1.05,0.252 -1.284,0.665l0.408,0.216c0.144,-0.288 0.486,-0.492 0.864,-0.492c0.48,0 0.756,0.348 0.756,0.816c0,0.523 -0.396,1.147 -0.954,1.699c-0.282,0.306 -0.66,0.624 -1.068,0.948l0,0.383l2.466,0l0,-0.383l-1.818,0c0.054,-0.024 0.48,-0.396 0.768,-0.708Z" style="fill:#a6a6a6;fill-rule:nonzero;"/><path d="M225.593,160.432l-0.942,0l0,-0.942l-0.384,0l0,0.942l-0.948,0l0,0.383l0.948,0l0,0.948l0.384,0l0,-0.948l0.942,0l0,-0.383Z" style="fill:#a6a6a6;fill-rule:nonzero;"/><path d="M279.329,150.678l-0.432,-0.072c-0.168,0.6 -0.456,0.888 -1.056,0.888c-0.888,0 -1.104,-0.24 -2.184,-0.24c0.552,-0.84 1.56,-1.344 1.8,-1.5c0.888,-0.54 1.812,-0.996 1.812,-2.148c0,-1.104 -1.056,-1.872 -2.352,-1.872c-1.488,0 -2.328,1.116 -2.328,1.884c0,0.516 0.3,0.828 0.768,0.828c0.42,0 0.672,-0.276 0.672,-0.624c0,-0.516 -0.348,-0.612 -0.348,-0.888c0,-0.324 0.42,-0.672 1.092,-0.672c0.672,0 1.128,0.408 1.128,1.296c0,0.72 -0.336,1.344 -1.548,2.256c-0.84,0.576 -1.872,1.752 -1.968,2.76l0.48,0c0.168,-0.432 0.36,-0.672 0.816,-0.672c0.72,0 1.392,0.768 2.256,0.768c0.96,0 1.392,-0.96 1.392,-1.992Z" style="fill:#4e4e4e;fill-opacity:0.5;fill-rule:nonzero;"/><path d="M282.629,146.886l0,2.364l-2.364,0l0,0.552l2.364,0l0,2.364l0.552,0l0,-2.364l2.364,0l0,-0.552l-2.364,0l0,-2.364l-0.552,0Z" style="fill:#4e4e4e;fill-opacity:0.5;fill-rule:nonzero;"/><path d="M277.276,161.356c0.612,-0.636 1.061,-1.284 1.061,-1.939c0,-0.642 -0.401,-1.205 -1.199,-1.205c-0.546,0 -1.05,0.252 -1.284,0.665l0.408,0.216c0.144,-0.288 0.486,-0.492 0.864,-0.492c0.48,0 0.756,0.348 0.756,0.816c0,0.523 -0.396,1.147 -0.954,1.699c-0.282,0.306 -0.66,0.624 -1.068,0.948l0,0.383l2.465,0l0,-0.383l-1.817,0c0.054,-0.024 0.48,-0.396 0.768,-0.708Z" style="fill:#a6a6a6;fill-opacity:0.5;fill-rule:nonzero;"/><path d="M280.948,159.376c-0.445,0 -0.793,0.234 -1.003,0.557l0,-0.06l-0.078,-0.425l-0.353,0l0,4.199l0.431,0l0,-1.595c0.192,0.276 0.498,0.461 0.943,0.461c0.738,0 1.187,-0.461 1.187,-1.559c0,-1.099 -0.389,-1.578 -1.127,-1.578Zm-0.138,2.748c-0.529,0 -0.805,-0.408 -0.865,-0.672l0,-0.937c0.066,-0.282 0.396,-0.75 0.925,-0.75c0.57,0 0.774,0.372 0.774,1.189c0,0.816 -0.264,1.17 -0.834,1.17Z" style="fill:#a6a6a6;fill-opacity:0.5;fill-rule:nonzero;"/><path d="M241.344,147.666l0,2.364l-2.568,0l0,-2.52l-1.104,1.176l0,1.344l-2.424,0c1.224,-1.824 1.848,-2.64 2.616,-4.2l-1.596,0c-0.408,1.584 -0.9,2.88 -1.74,4.272l0,0.48l3.144,0l0,0.84c0,0.504 -0.444,0.672 -0.78,0.672l-0.24,0l0,0.48l3.024,0l0,-0.48c-0.468,0 -0.9,-0.144 -0.9,-0.672l0,-0.84l2.568,0l0,2.364l0.552,0l0,-2.364l2.364,0l0,-0.552l-2.364,0l0,-2.364l-0.552,0Z" style="fill:#4e4e4e;fill-rule:nonzero;"/><path d="M239.006,161.098l-0.738,0l0,-2.85l-0.899,0l-0.996,2.85l0,0.389l1.47,0l0,0.96l0.425,0l0,-0.96l0.738,0l0,-0.389Zm-2.189,0l0.858,-2.467l0.168,0l0,2.467l-1.026,0Z" style="fill:#a6a6a6;fill-rule:nonzero;"/><path d="M242.414,160.432l-0.942,0l0,-0.942l-0.383,0l0,0.942l-0.948,0l0,0.383l0.948,0l0,0.948l0.383,0l0,-0.948l0.942,0l0,-0.383Z" style="fill:#a6a6a6;fill-rule:nonzero;"/><path d="M256.806,148.686l0,-2.256l2.16,0l0,-0.552l-2.16,0l0,-2.232l-0.552,0l0,2.232l-1.848,0c-0.672,0.048 -0.888,0.072 -1.44,0.072c-0.576,0 -1.128,-0.048 -1.824,-0.12l-0.048,3.312l0.312,0.168c0.336,-0.312 0.756,-0.48 1.248,-0.48c0.708,0 1.392,0.432 1.392,1.512c0,1.104 -0.564,1.824 -1.428,1.824c-0.588,0 -0.912,-0.252 -0.912,-0.576c0,-0.312 0.252,-0.432 0.252,-0.804c0,-0.408 -0.3,-0.66 -0.648,-0.66c-0.468,0 -0.804,0.372 -0.804,0.876c0,0.768 0.876,1.668 2.292,1.668c1.416,0 2.52,-0.948 2.52,-2.304c0,-1.296 -1.164,-2.088 -2.388,-2.088c-0.528,0 -0.912,0.144 -1.236,0.3l-0.072,-0.036l0.024,-1.512c0.432,0.048 0.768,0.096 1.152,0.096c0.756,0 1.272,-0.264 1.656,-0.696l1.8,0l0,2.256l0.552,0Z" style="fill:#4e4e4e;fill-rule:nonzero;"/><path d="M253.108,159.658c-0.33,0 -0.624,0.114 -0.834,0.329l0.126,-1.356l1.727,0l0,-0.383l-2.099,0l-0.21,2.207l0.396,0.18c0.198,-0.414 0.558,-0.582 0.894,-0.582c0.54,0 0.744,0.39 0.744,1.009c0,0.642 -0.288,1.062 -0.87,1.062c-0.402,0 -0.714,-0.126 -0.906,-0.45l-0.408,0.21c0.282,0.444 0.738,0.629 1.296,0.629c0.834,0 1.349,-0.539 1.349,-1.451c0,-0.925 -0.419,-1.404 -1.205,-1.404Z" style="fill:#a6a6a6;fill-rule:nonzero;"/><path d="M257.805,160.432l-0.942,0l0,-0.942l-0.383,0l0,0.942l-0.948,0l0,0.383l0.948,0l0,0.948l0.383,0l0,-0.948l0.942,0l0,-0.383Z" style="fill:#a6a6a6;fill-rule:nonzero;"/></g></g></g><g><g><g><path d="M90.683,201.083l2.771,0.48c-0.731,0.816 -1.295,1.548 -1.295,2.172c0,0.408 0.288,0.648 0.623,0.648c0.348,0 0.732,-0.252 0.9,-0.876c0.168,-0.636 0.456,-1.212 0.78,-1.776l2.604,0.444l0.072,-0.54l-2.364,-0.408c0.672,-1.044 1.464,-2.088 1.992,-3.383l-0.516,-0.036c-0.156,0.3 -0.42,0.516 -0.744,0.516c-0.624,0 -0.588,-0.72 -1.428,-0.72c-0.636,0 -0.936,0.468 -1.14,0.468c-0.096,0 -0.132,-0.06 -0.132,-0.156c0,-0.072 0.012,-0.168 0.036,-0.288l-0.467,-0.024l-0.564,2.195l0.455,0.024c0.348,-1.092 0.804,-1.128 1.164,-1.128c0.552,0 1.536,0.468 2.076,0.576c-0.504,0.636 -1.08,1.236 -1.608,1.812l-3.143,-0.54l-0.072,0.54Z" style="fill:#4e4e4e;fill-rule:nonzero;"/><path d="M106.194,203.232c0,0.312 0.144,0.564 0.384,0.756l-0.624,1.139l0.492,0.252l0.612,-1.14c0.287,0.108 0.635,0.168 0.994,0.168c1.261,0 2.63,-1.043 3.205,-3.203c0.119,-0.469 0.179,-0.903 0.179,-1.313c0,-0.892 -0.287,-1.639 -0.886,-2.06l0.671,-1.223l-0.479,-0.252l-0.684,1.236c-0.217,-0.072 -0.469,-0.108 -0.745,-0.108c-1.261,0 -2.483,0.949 -2.483,2.311c0,0.675 0.419,1.337 1.15,1.612l-0.635,1.176c-0.096,-0.108 -0.24,-0.168 -0.407,-0.168c-0.48,0 -0.744,0.361 -0.744,0.817Zm1.295,0.24l1.044,-1.933c0,0 0.18,0.012 0.276,0.012c0.492,0 1.044,-0.192 1.429,-0.455c-0.301,1.127 -1.009,2.796 -2.21,2.796c-0.443,0 -0.539,-0.156 -0.539,-0.42Zm1.332,-2.46l1.453,-2.664c0.204,0.205 0.3,0.519 0.3,0.868c0,1.025 -0.649,1.808 -1.597,1.808c-0.084,0 -0.156,-0.012 -0.156,-0.012Zm-0.528,-0.156c-0.301,-0.181 -0.433,-0.507 -0.433,-0.868c0,-1.037 0.649,-1.941 1.597,-1.941c0.216,0 0.336,0.036 0.336,0.036l-1.5,2.773Z" style="fill:#4e4e4e;fill-rule:nonzero;"/><path d="M81.133,198.639c0,-0.326 -0.168,-0.616 -0.456,-0.82l0.648,-1.331l-0.504,-0.228l-0.635,1.32c-0.204,-0.06 -0.432,-0.096 -0.671,-0.096c-1.549,0 -3.528,1.782 -3.528,4.367c0,0.937 0.335,1.801 1.066,2.245l-0.539,1.103l0.503,0.228l0.541,-1.116c0.216,0.06 0.456,0.096 0.732,0.096c1.141,0 2.327,-0.875 2.327,-2.22c0,-0.756 -0.419,-1.476 -1.186,-1.763l0.539,-1.121c0.096,0.084 0.24,0.12 0.396,0.12c0.455,0 0.767,-0.35 0.767,-0.784Zm-1.979,2.36c0.277,0.192 0.397,0.516 0.397,0.888c0,1.033 -0.649,1.981 -1.501,1.981c-0.144,0 -0.264,-0.024 -0.264,-0.024l1.368,-2.845Zm0.744,-2.831l-1.008,2.124c0,0 -0.144,-0.012 -0.264,-0.012c-0.492,0 -1.068,0.204 -1.429,0.515c0.373,-1.432 1.213,-2.82 2.318,-2.82c0.191,0 0.335,0.06 0.383,0.193Zm-1.26,2.651l-1.357,2.809c-0.264,-0.204 -0.396,-0.528 -0.396,-0.888c0,-1.093 0.733,-1.933 1.585,-1.933c0.06,0 0.168,0.012 0.168,0.012Z" style="fill:#4e4e4e;fill-rule:nonzero;"/><path d="M62.209,205.511l0.48,-1.14c0,0 0.204,0.012 0.312,0.012c1.417,0 2.915,-0.935 2.915,-2.496c0,-0.924 -0.587,-1.559 -1.438,-1.763l0.528,-1.273c0.707,-0.12 1.27,-0.444 1.678,-0.911l-0.108,-0.18c-0.408,0.048 -0.791,0.072 -1.139,0.072l0.587,-1.404l-0.515,-0.192l-0.659,1.584c-0.672,-0.024 -1.309,-0.084 -2.005,-0.18l-0.937,3.215l0.265,0.192c0.384,-0.264 0.816,-0.432 1.38,-0.432l0.12,0l-1.32,3.169c-0.277,-0.084 -0.445,-0.216 -0.445,-0.336c0,-0.324 0.277,-0.42 0.277,-0.948c0,-0.397 -0.241,-0.649 -0.624,-0.649c-0.408,0 -0.719,0.349 -0.719,0.949c0,0.564 0.455,1.2 1.307,1.463l-0.444,1.056l0.504,0.192Zm1.704,-5.471l-0.108,0c-0.624,0 -0.84,0.12 -1.2,0.24l0.432,-1.525c0.48,0.072 0.876,0.144 1.357,0.144l-0.481,1.141Zm0.301,0.695c0.384,0.168 0.576,0.504 0.576,0.972c0,1.261 -0.865,2.149 -1.885,2.149l1.309,-3.121Z" style="fill:#4e4e4e;fill-rule:nonzero;"/><path d="M50.496,202.319l1.164,0l0.096,-0.551l-1.104,0l0.612,-2.292l1.752,-1.476l-0.372,-0.408l-4.932,4.176l-0.624,0c1.716,-1.824 2.508,-2.52 3.696,-4.08l-1.608,0c-0.828,1.584 -1.62,2.76 -2.832,4.152l-0.072,0.479l0.792,0l-1.944,1.645l0.372,0.407l2.424,-2.052l1.572,0l-0.216,0.841c-0.144,0.504 -0.624,0.672 -0.96,0.672l-0.192,0l-0.072,0.479l2.928,0l0.072,-0.479c-0.408,0 -0.792,-0.108 -0.792,-0.48c0,-0.06 0,-0.12 0.024,-0.192l0.216,-0.841Zm-1.932,-0.551l1.404,-1.188l-0.324,1.188l-1.08,0Z" style="fill:#4e4e4e;fill-rule:nonzero;"/><path d="M44.962,214.251c0.234,0 0.426,-0.186 0.426,-0.42c0,-0.24 -0.192,-0.425 -0.426,-0.425c-0.233,0 -0.425,0.185 -0.425,0.425c0,0.234 0.192,0.42 0.425,0.42Z" style="fill:#a6a6a6;fill-rule:nonzero;"/><path d="M48.562,214.251c0.234,0 0.426,-0.186 0.426,-0.42c0,-0.24 -0.192,-0.425 -0.426,-0.425c-0.233,0 -0.425,0.185 -0.425,0.425c0,0.234 0.192,0.42 0.425,0.42Z" style="fill:#a6a6a6;fill-rule:nonzero;"/><path d="M52.162,214.251c0.234,0 0.426,-0.186 0.426,-0.42c0,-0.24 -0.192,-0.425 -0.426,-0.425c-0.233,0 -0.425,0.185 -0.425,0.425c0,0.234 0.192,0.42 0.425,0.42Z" style="fill:#a6a6a6;fill-rule:nonzero;"/><path d="M30.356,202.704c0,0.6 0.443,1.212 1.296,1.511l-0.434,1.188l0.53,0.168l0.431,-1.224c0.216,0.036 0.443,0.06 0.683,0.06c1.25,0 2.268,-0.647 2.268,-1.823c0,-0.709 -0.479,-1.105 -1.066,-1.441l0.024,-0.132c0.696,-0.12 1.762,-0.612 1.762,-1.758c0,-0.699 -0.491,-1.338 -1.259,-1.625l0.48,-1.344l-0.516,-0.168l-0.504,1.392c0,0 -0.168,-0.024 -0.336,-0.024c-1.081,0 -2.051,0.684 -2.051,1.54c0,0.434 0.275,0.7 0.659,0.7c0.407,0 0.683,-0.326 0.683,-0.736c0,-0.302 -0.192,-0.41 -0.192,-0.603c0,-0.229 0.288,-0.434 0.877,-0.434c0.096,0 0.192,0.012 0.192,0.012l-0.961,2.689l-0.491,0.012l-0.084,0.419l0.407,0.072l-0.934,2.569c-0.277,-0.12 -0.398,-0.324 -0.398,-0.516c0,-0.336 0.338,-0.48 0.338,-0.865c0,-0.348 -0.253,-0.564 -0.565,-0.564c-0.492,0 -0.839,0.42 -0.839,0.925Zm2.003,1.14l0.912,-2.521c0.492,0.216 0.745,0.564 0.745,1.008c0,0.925 -0.673,1.525 -1.489,1.525c-0.072,0 -0.168,-0.012 -0.168,-0.012Zm1.176,-3.264l0.876,-2.448c0.313,0.193 0.505,0.53 0.505,0.964c0,0.748 -0.505,1.279 -1.381,1.484l0,0Z" style="fill:#4e4e4e;fill-rule:nonzero;"/><path d="M30.282,210.393c0.222,0 0.396,-0.174 0.396,-0.396c0,-0.222 -0.174,-0.395 -0.396,-0.395c-0.222,0 -0.402,0.173 -0.402,0.395c0,0.222 0.18,0.396 0.402,0.396Zm0.228,3.409l0,-2.616l-1.494,0l0,0.383l1.062,0l0,2.616l1.326,0l0,-0.383l-0.894,0Z" style="fill:#a6a6a6;fill-rule:nonzero;"/><path d="M34.518,212.037c0.456,-0.197 0.636,-0.564 0.636,-0.972c0,-0.756 -0.522,-1.115 -1.254,-1.115c-0.606,0 -1.062,0.275 -1.26,0.671l0.414,0.21c0.12,-0.282 0.456,-0.492 0.846,-0.492c0.462,0 0.786,0.192 0.786,0.726c0,0.432 -0.174,0.805 -0.858,0.805l-0.138,0l0,0.383l0.138,0c0.702,0 0.948,0.318 0.948,0.762c0,0.546 -0.336,0.847 -0.846,0.847c-0.468,0 -0.822,-0.211 -0.954,-0.493l-0.414,0.216c0.234,0.42 0.738,0.666 1.368,0.666c0.81,0 1.314,-0.455 1.314,-1.236c0,-0.474 -0.246,-0.828 -0.726,-0.978Z" style="fill:#a6a6a6;fill-rule:nonzero;"/><path d="M38.436,209.386l-0.372,0l-1.494,5.652l0.372,0l1.494,-5.652Z" style="fill:#a6a6a6;fill-rule:nonzero;"/><path d="M17.055,205.619l0.575,-1.703c0.421,0.239 0.853,0.527 1.381,0.527c0.925,0 1.368,-0.923 1.403,-1.945l-0.418,-0.084c-0.192,0.577 -0.588,0.938 -1.153,0.938c-0.432,0 -0.696,-0.072 -0.972,-0.144l0.42,-1.251c1.02,-0.529 2.783,-1.034 2.783,-2.563c0,-0.782 -0.527,-1.443 -1.33,-1.742l0.468,-1.38l-0.516,-0.156l-0.481,1.404c0,0 -0.192,-0.036 -0.432,-0.036c-1.332,0 -2.279,0.996 -2.279,1.886c0,0.434 0.252,0.734 0.683,0.734c0.396,0 0.66,-0.3 0.66,-0.734c0,-0.361 -0.205,-0.505 -0.205,-0.722c0,-0.348 0.397,-0.637 1.057,-0.637c0.168,0 0.336,0.024 0.336,0.024l-1.2,3.549c-0.9,0.554 -2.159,1.6 -2.423,2.643l0.48,0.012c0.18,-0.42 0.372,-0.648 0.792,-0.648c0.251,0 0.443,0.084 0.443,0.084l-0.599,1.788l0.527,0.156Zm1.512,-4.48l0.985,-2.924c0.324,0.193 0.528,0.506 0.528,0.939c0,0.842 -0.456,1.299 -1.513,1.985Zm-1.236,1.949c0,0 -0.24,-0.048 -0.527,-0.06c0.239,-0.252 0.503,-0.469 0.767,-0.649l-0.24,0.709Z" style="fill:#4e4e4e;fill-rule:nonzero;"/><path d="M15.491,210.393c0.222,0 0.396,-0.174 0.396,-0.396c0,-0.222 -0.174,-0.395 -0.396,-0.395c-0.222,0 -0.401,0.173 -0.401,0.395c0,0.222 0.179,0.396 0.401,0.396Zm0.228,3.409l0,-2.616l-1.493,0l0,0.383l1.062,0l0,2.616l1.325,0l0,-0.383l-0.894,0Z" style="fill:#a6a6a6;fill-rule:nonzero;"/><path d="M19.26,213.093c0.612,-0.636 1.061,-1.284 1.061,-1.938c0,-0.642 -0.402,-1.205 -1.199,-1.205c-0.546,0 -1.05,0.251 -1.284,0.665l0.408,0.216c0.144,-0.288 0.486,-0.492 0.864,-0.492c0.48,0 0.756,0.348 0.756,0.816c0,0.522 -0.396,1.146 -0.954,1.698c-0.282,0.306 -0.66,0.624 -1.068,0.949l0,0.383l2.465,0l0,-0.383l-1.817,0c0.054,-0.024 0.48,-0.397 0.768,-0.709Z" style="fill:#a6a6a6;fill-rule:nonzero;"/><path d="M23.645,209.386l-0.372,0l-1.493,5.652l0.371,0l1.494,-5.652Z" style="fill:#a6a6a6;fill-rule:nonzero;"/></g><g><path d="M220.276,199.271c-0.36,0.444 -0.756,0.888 -1.14,1.308l-4.403,0.42l0.072,0.54l3.767,-0.36c-0.9,0.972 -1.643,1.848 -1.643,2.556c0,0.408 0.288,0.648 0.623,0.648c0.348,0 0.732,-0.252 0.9,-0.876c0.24,-0.876 0.684,-1.656 1.188,-2.424l3.588,-0.348l-0.072,-0.54l-3.132,0.3c0.54,-0.816 1.104,-1.656 1.512,-2.651l-0.516,-0.036c-0.156,0.3 -0.42,0.516 -0.744,0.516c-0.624,0 -0.588,-0.72 -1.428,-0.72c-0.636,0 -0.936,0.468 -1.14,0.468c-0.096,0 -0.132,-0.06 -0.132,-0.156c0,-0.072 0.012,-0.168 0.036,-0.288l-0.467,-0.024l-0.564,2.195l0.455,0.024c0.348,-1.092 0.804,-1.128 1.164,-1.128c0.552,0 1.536,0.468 2.076,0.576Z" style="fill:#4e4e4e;fill-rule:nonzero;"/><path d="M232.484,203.232c0,0.768 0.876,1.176 1.86,1.176c1.26,0 2.628,-1.044 3.204,-3.204c0.108,-0.432 0.168,-0.828 0.18,-1.2l2.052,-0.204l-0.072,-0.54l-2.004,0.192c-0.132,-1.128 -0.816,-1.956 -2.1,-1.956c-1.248,0 -2.508,0.936 -2.52,2.4l-2.316,0.228l0.072,0.54l2.316,-0.228c0.204,0.756 0.864,1.356 1.872,1.356c0.492,0 1.044,-0.192 1.428,-0.456c-0.312,0.96 -0.936,2.556 -2.136,2.556c-0.444,0 -0.54,-0.168 -0.54,-0.444c0,-0.12 0.024,-0.228 0.024,-0.36c0,-0.408 -0.216,-0.672 -0.576,-0.672c-0.48,0 -0.744,0.36 -0.744,0.816Zm1.644,-2.892l2.616,-0.24c-0.24,0.732 -0.816,1.164 -1.548,1.164c-0.696,0 -1.008,-0.348 -1.068,-0.924Zm2.712,-0.804l-2.7,0.264c0.108,-0.984 0.756,-1.74 1.608,-1.74c0.78,0 1.104,0.54 1.104,1.284c0,0.06 -0.012,0.192 -0.012,0.192Z" style="fill:#4e4e4e;fill-rule:nonzero;"/><path d="M204.082,197.484c-1.549,0 -3.516,1.771 -3.528,4.343l-2.232,0.216l0.072,0.541l2.184,-0.216c0.132,1.128 0.73,2.039 2.087,2.039c1.177,0 2.483,-0.923 2.519,-2.472l2.148,-0.216l-0.072,-0.54l-2.124,0.204c-0.155,-0.828 -0.767,-1.403 -1.835,-1.403c-0.492,0 -1.068,0.204 -1.429,0.515c0.373,-1.191 1.105,-2.52 2.21,-2.52c0.252,0 0.408,0.096 0.408,0.35c0,0.181 -0.084,0.363 -0.084,0.556c0,0.326 0.24,0.519 0.539,0.519c0.48,0 0.767,-0.374 0.767,-0.773c0,-0.7 -0.731,-1.143 -1.63,-1.143l0,0Zm-2.618,4.8l2.618,-0.253c-0.144,0.949 -0.793,1.837 -1.585,1.837c-0.721,0 -1.045,-0.504 -1.045,-1.284c0,-0.108 0.012,-0.3 0.012,-0.3l0,0Zm2.654,-0.805l-2.522,0.24c0.276,-0.756 0.913,-1.212 1.549,-1.212c0.637,0 0.925,0.408 0.973,0.972Z" style="fill:#4e4e4e;fill-rule:nonzero;"/><path d="M185.291,203.46c0,-0.192 0.168,-0.372 0.168,-0.672c0,-0.433 -0.252,-0.709 -0.623,-0.709c-0.48,0 -0.779,0.348 -0.779,0.841c0,0.948 1.186,1.463 2.279,1.463c1.297,0 2.591,-0.743 2.591,-1.992c0,-1.08 -1.054,-1.691 -2.195,-1.691c-0.564,0 -0.78,0.06 -1.141,0.18l0.193,-0.672l5.423,-0.517l-0.072,-0.54l-5.195,0.492l0.228,-0.804c0.276,0.036 0.54,0.06 0.816,0.06c1.188,0 2.267,-0.384 2.615,-0.959l-0.108,-0.18c-0.432,0.048 -0.767,0.072 -1.127,0.072c-0.887,0 -1.476,-0.072 -2.364,-0.192l-0.601,2.063l-3.022,0.289l0.072,0.54l2.782,-0.264l-0.311,1.067l0.251,0.252c0.384,-0.264 0.901,-0.372 1.369,-0.372c0.708,0 1.165,0.396 1.165,1.02c0,1.009 -0.673,1.621 -1.513,1.621c-0.565,0 -0.901,-0.144 -0.901,-0.396Z" style="fill:#4e4e4e;fill-rule:nonzero;"/><path d="M172.451,202.559l1.164,0l0.096,-0.551l-1.104,0l0.336,-1.224l2.604,-0.252l-0.072,-0.54l-2.376,0.228l0.288,-1.044l-1.38,1.152l-1.488,0.132c0.876,-0.948 1.536,-1.716 2.34,-2.772l-1.608,0c-0.528,1.008 -1.08,1.956 -1.728,2.868l-2.808,0.276l0.072,0.54l2.304,-0.228c-0.24,0.312 -0.492,0.624 -0.756,0.936l-0.072,0.479l3.084,0l-0.132,0.6c-0.108,0.517 -0.624,0.673 -0.96,0.673l-0.192,0l-0.072,0.479l3.024,0l0.072,-0.479c-0.408,0 -0.792,-0.108 -0.792,-0.48c0,-0.06 0,-0.12 0.024,-0.193l0.132,-0.6Zm-2.484,-1.487l1.848,-0.18l-0.312,1.116l-2.424,0c0.324,-0.336 0.612,-0.648 0.888,-0.936Z" style="fill:#4e4e4e;fill-rule:nonzero;"/><path d="M151.913,202.75c0,0.83 0.959,1.657 2.507,1.657c1.249,0 2.268,-0.647 2.268,-1.886c0,-0.661 -0.431,-1.178 -1.019,-1.527l0.024,-0.133l3.371,-0.324l-0.072,-0.542l-1.956,0.193c0.204,-0.241 0.336,-0.565 0.336,-0.998c0,-0.866 -0.839,-1.706 -2.099,-1.706c-1.081,0 -2.052,0.683 -2.052,1.537c0,0.433 0.276,0.698 0.66,0.698c0.407,0 0.683,-0.325 0.683,-0.734c0,-0.301 -0.192,-0.409 -0.192,-0.601c0,-0.229 0.276,-0.433 0.709,-0.433c0.648,0 1.116,0.385 1.116,1.022c0,0.469 -0.156,0.842 -0.444,1.107c-0.228,0.204 -0.432,0.264 -0.841,0.3l-4.319,0.421l0.072,0.542l3.072,-0.289c0.12,-0.012 0.228,-0.024 0.335,-0.024c0.841,0 1.381,0.529 1.381,1.215c0,0.986 -0.745,1.611 -1.476,1.611c-0.54,0 -0.901,-0.288 -0.901,-0.601c0,-0.289 0.229,-0.421 0.229,-0.746c0,-0.397 -0.253,-0.637 -0.589,-0.637c-0.503,0 -0.803,0.397 -0.803,0.878Z" style="fill:#4e4e4e;fill-rule:nonzero;"/><path d="M137.425,202.944c0.755,-0.818 1.703,-1.131 1.968,-1.263c0.408,-0.205 0.864,-0.409 1.248,-0.674l2.783,-0.277l-0.072,-0.541l-2.076,0.204c0.18,-0.276 0.3,-0.601 0.3,-0.998c0,-1.059 -0.983,-1.911 -2.292,-1.911c-1.332,0 -2.267,1.008 -2.267,1.826c0,0.397 0.252,0.674 0.707,0.674c0.42,0 0.684,-0.277 0.684,-0.674c0,-0.337 -0.204,-0.469 -0.204,-0.674c0,-0.312 0.408,-0.625 0.96,-0.625c0.673,0 1.069,0.373 1.069,1.107c0,0.565 -0.156,0.999 -0.528,1.42l-4.776,0.457l0.072,0.541l3.995,-0.373c0,0 -0.444,0.301 -0.708,0.458c-0.911,0.505 -2.123,1.587 -2.375,2.606l0.48,0.012c0.18,-0.42 0.372,-0.648 0.792,-0.648c0.779,0.001 1.403,0.852 2.328,0.852c0.924,0 1.367,-0.923 1.403,-1.945l-0.419,-0.084c-0.192,0.578 -0.468,0.854 -1.033,0.854c-0.852,0 -1.068,-0.276 -2.039,-0.325l0,0.001Z" style="fill:#4e4e4e;fill-rule:nonzero;"/></g><g><path d="M268.266,201.623c0,0.072 -0.012,0.192 -0.012,0.192l-2.365,-0.396c0.312,-0.576 0.852,-0.912 1.405,-0.912c0.684,0 0.972,0.48 0.972,1.116Zm-0.036,-4.139c-1.417,0 -3.204,1.506 -3.492,3.743l-2.148,-0.36l-0.084,0.54l2.196,0.372c0,1.417 0.527,2.628 2.111,2.628c1.009,0 2.124,-0.683 2.436,-1.871l2.124,0.36l0.072,-0.54l-2.112,-0.361l0,-0.132c0,-1.068 -0.624,-1.883 -1.883,-1.883c-0.493,0 -1.069,0.204 -1.429,0.515c0.372,-1.191 1.104,-2.52 2.209,-2.52c0.252,0 0.408,0.096 0.408,0.35c0,0.181 -0.084,0.363 -0.084,0.556c0,0.326 0.24,0.519 0.54,0.519c0.479,0 0.767,-0.374 0.767,-0.773c0,-0.7 -0.732,-1.143 -1.631,-1.143l0,0Zm-2.545,4.451l2.473,0.421c-0.228,0.816 -0.816,1.512 -1.513,1.512c-0.72,0 -1.044,-0.504 -1.044,-1.284c0,-0.228 0.024,-0.444 0.084,-0.649l0,0Z" style="fill:#4e4e4e;fill-rule:nonzero;"/><path d="M278.356,201.083l2.771,0.48c-0.732,0.816 -1.295,1.548 -1.295,2.172c0,0.408 0.288,0.648 0.623,0.648c0.348,0 0.732,-0.252 0.899,-0.876c0.168,-0.636 0.456,-1.212 0.78,-1.776l2.604,0.444l0.072,-0.54l-2.364,-0.408c0.672,-1.044 1.464,-2.088 1.992,-3.383l-0.516,-0.036c-0.156,0.3 -0.42,0.516 -0.744,0.516c-0.624,0 -0.588,-0.72 -1.428,-0.72c-0.635,0 -0.935,0.468 -1.139,0.468c-0.096,0 -0.132,-0.06 -0.132,-0.156c0,-0.072 0.012,-0.168 0.035,-0.288l-0.466,-0.024l-0.564,2.195l0.454,0.024c0.349,-1.092 0.804,-1.128 1.164,-1.128c0.552,0 1.536,0.468 2.076,0.576c-0.504,0.636 -1.08,1.236 -1.608,1.812l-3.142,-0.54l-0.072,0.54Z" style="fill:#4e4e4e;fill-rule:nonzero;"/></g></g><g><g><path d="M33.613,227.926l0.012,1.552c-0.853,-0.049 -1.802,-0.444 -2.821,-0.444c0.624,-0.939 1.764,-1.36 2.028,-1.492c0.985,-0.482 2.279,-0.843 2.279,-2.166c0,-1.023 -0.983,-1.802 -2.291,-1.802c-1.333,0 -2.279,0.995 -2.279,1.886c0,0.433 0.263,0.734 0.719,0.734c0.419,0 0.695,-0.301 0.695,-0.734c0,-0.361 -0.216,-0.506 -0.216,-0.722c0,-0.349 0.408,-0.638 0.961,-0.638c0.672,0 1.069,0.325 1.069,1.059c0,1.023 -0.505,1.42 -1.946,2.298c-0.911,0.506 -2.05,1.577 -2.374,2.859l0.48,0.012c0.18,-0.42 0.36,-0.648 0.863,-0.648c0.767,0.001 1.896,0.636 2.845,0.756l0.012,1.572l0.55,0l-0.012,-1.572c0.636,-0.084 1.224,-0.431 1.668,-1.151l-0.3,-0.313c-0.396,0.301 -0.876,0.445 -1.38,0.494l-0.012,-1.54l-0.55,0Z" style="fill:#4e4e4e;fill-rule:nonzero;"/><path d="M16.446,229.68c0.623,0 1.499,0.432 2.316,0.648l-0.397,1.656l0.541,0.108l0.396,-1.656c0,0 0.168,0.012 0.252,0.012c0.743,0 1.451,-0.335 1.955,-1.163l-0.3,-0.313c-0.48,0.361 -1.068,0.494 -1.679,0.506l0.372,-1.576l-0.54,-0.109l-0.396,1.649c-0.769,-0.109 -1.609,-0.408 -2.508,-0.408c0.623,-0.939 1.763,-1.36 2.027,-1.492c0.985,-0.482 2.28,-0.843 2.28,-2.166c0,-1.023 -0.983,-1.802 -2.292,-1.802c-1.332,0 -2.279,0.995 -2.279,1.886c0,0.433 0.264,0.734 0.719,0.734c0.42,0 0.696,-0.301 0.696,-0.734c0,-0.361 -0.216,-0.506 -0.216,-0.722c0,-0.349 0.408,-0.638 0.96,-0.638c0.673,0 1.069,0.325 1.069,1.059c0,1.023 -0.504,1.42 -1.945,2.298c-0.911,0.506 -2.051,1.577 -2.375,2.859l0.48,0.012c0.18,-0.42 0.36,-0.648 0.864,-0.648Z" style="fill:#4e4e4e;fill-rule:nonzero;"/><path d="M58.6,225.95l-0.444,1.908l-1.8,0l0.66,-2.472l-1.416,1.176l-0.348,1.296l-2.424,0c1.716,-1.824 2.508,-2.52 3.696,-4.08l-1.608,0c-0.828,1.584 -1.62,2.76 -2.832,4.151l-0.072,0.479l3.084,0l-0.216,0.841c-0.144,0.504 -0.624,0.673 -0.96,0.673l-0.192,0l-0.072,0.478l3.024,0l0.072,-0.478c-0.408,0 -0.792,-0.108 -0.792,-0.481c0,-0.06 0,-0.12 0.024,-0.192l0.216,-0.841l1.836,0l-0.432,1.873l0.564,0l0.432,-1.873l1.404,0l0.096,-0.55l-1.38,0l0.444,-1.908l-0.564,0Z" style="fill:#4e4e4e;fill-rule:nonzero;"/><path d="M148.721,227.196l1.643,-2.244c0.348,0.12 0.684,0.252 0.936,0.3c-1.332,1.752 -3.358,3.42 -3.358,4.572c0,0.408 0.251,0.648 0.587,0.648c0.348,0 0.695,-0.252 0.863,-0.876c0.54,-2.004 2.184,-3.468 3.084,-5.662l-0.516,-0.036c-0.156,0.3 -0.42,0.515 -0.744,0.515c-0.156,0 -0.276,-0.048 -0.372,-0.12l1.464,-1.991l-0.492,-0.3l-1.38,1.908c-0.156,-0.12 -0.336,-0.216 -0.648,-0.216c-0.636,0 -0.935,0.468 -1.139,0.468c-0.096,0 -0.132,-0.06 -0.132,-0.156c-0.001,-0.072 0.011,-0.168 0.035,-0.288l-0.466,-0.024l-0.564,2.194l0.454,0.024c0.349,-1.092 0.888,-1.236 1.248,-1.236c0.168,0 0.36,0.036 0.576,0.096l-1.547,2.136l0.468,0.288Z" style="fill:#4e4e4e;fill-rule:nonzero;"/><path d="M169.026,225.945c0,-0.892 0.517,-1.809 1.417,-1.809c0.697,0 1.045,0.495 1.045,1.134c0,0.94 -0.793,1.676 -1.549,1.676c-0.624,0 -0.913,-0.398 -0.913,-1.001Zm2.126,1.132c-0.228,0.863 -0.733,1.596 -1.489,2.1l-2.351,-1.525l-0.288,0.432l2.122,1.381c-0.587,0.277 -1.294,0.445 -2.11,0.481l-0.024,0.514c1.08,0 2.014,-0.203 2.795,-0.562l1.729,1.114l0.287,-0.432l-1.488,-0.971c1.153,-0.708 2.159,-2.209 2.159,-3.761c0,-1.169 -0.719,-2.274 -2.255,-2.274c-1.296,0 -2.363,0.839 -2.363,2.106c0,0.892 0.659,1.804 1.943,1.804c0.504,0 0.997,-0.179 1.333,-0.407Z" style="fill:#4e4e4e;fill-rule:nonzero;"/><path d="M92.052,222.158l0.012,1.752c-0.707,-0.024 -1.404,-0.084 -2.112,-0.18l-1.032,3.514l0.251,0.252c0.384,-0.264 0.901,-0.372 1.369,-0.372c0.708,0 1.117,0.336 1.117,1.081c0,1.152 -0.733,1.741 -1.633,1.741c-0.505,0 -0.781,-0.144 -0.781,-0.397c0,-0.192 0.168,-0.372 0.168,-0.672c0,-0.432 -0.252,-0.708 -0.623,-0.708c-0.48,0 -0.779,0.348 -0.779,0.84c0,0.949 1.126,1.463 2.159,1.463c1.357,0 2.711,-0.803 2.711,-2.111c0,-1.129 -1.007,-1.751 -2.147,-1.751c-0.564,0 -0.78,0.059 -1.141,0.179l0.529,-1.861c0.276,0.036 0.768,0.06 1.044,0.06c0.289,0 0.601,-0.024 0.912,-0.072l0.013,1.321l0.55,0l-0.012,-1.429c0.696,-0.167 1.32,-0.443 1.524,-0.779l-0.108,-0.179c-0.42,0.048 -1.056,0.072 -1.428,0.072l-0.012,-1.764l-0.551,0Z" style="fill:#4e4e4e;fill-rule:nonzero;"/><path d="M76.025,222.074l0.973,1.8c-0.456,-0.036 -0.924,-0.084 -1.393,-0.144l-1.008,3.454l0.252,0.252c0.384,-0.264 0.9,-0.372 1.369,-0.372c0.708,0 1.092,0.408 1.092,1.021c0,1.14 -0.732,1.861 -1.633,1.861c-0.504,0 -0.78,-0.144 -0.78,-0.397c0,-0.192 0.168,-0.372 0.168,-0.672c0,-0.432 -0.252,-0.708 -0.624,-0.708c-0.479,0 -0.779,0.348 -0.779,0.84c0,0.949 1.127,1.463 2.159,1.463c1.357,0 2.712,-0.851 2.712,-2.231c0,-1.069 -0.983,-1.691 -2.123,-1.691c-0.565,0 -0.781,0.059 -1.141,0.179l0.504,-1.799c0.276,0.036 0.769,0.06 1.045,0.06c0.24,0 0.492,-0.012 0.756,-0.048l0.887,1.632l0.48,-0.276l-0.792,-1.452c0.756,-0.168 1.44,-0.456 1.656,-0.816l-0.108,-0.18c-0.432,0.048 -1.092,0.072 -1.452,0.072c-0.276,0 -0.599,-0.012 -0.599,-0.012l-1.14,-2.112l-0.481,0.276Z" style="fill:#4e4e4e;fill-rule:nonzero;"/><path d="M127.812,222.566l0.492,1.547c-1.729,0.575 -3.096,1.884 -3.096,3.996c0,1.212 0.611,2.387 2.196,2.387c1.164,0 2.339,-0.778 2.339,-2.087c0,-0.865 -0.659,-1.787 -1.931,-1.787c-0.504,0 -1.009,0.155 -1.345,0.406c0.384,-1.271 1.093,-1.967 2.017,-2.34l0.492,1.537l0.527,-0.156l-0.491,-1.561c0.479,-0.132 0.995,-0.192 1.559,-0.228l0,-0.526l-0.024,0c-0.576,0 -1.152,0.071 -1.715,0.203l-0.492,-1.547l-0.528,0.156Zm-0.66,7.356c-0.697,0 -1.045,-0.493 -1.045,-1.117c0,-0.936 0.732,-1.669 1.525,-1.669c0.672,0 0.972,0.456 0.972,0.985c0,0.972 -0.636,1.801 -1.452,1.801Z" style="fill:#4e4e4e;fill-rule:nonzero;"/><path d="M112.805,229.922c-0.696,0 -1.045,-0.493 -1.045,-1.117c0,-0.936 0.733,-1.669 1.525,-1.669c0.673,0 0.973,0.456 0.973,0.985c0,0.972 -0.636,1.801 -1.453,1.801Zm0.252,0.574c1.165,0 2.339,-0.778 2.339,-2.087c0,-0.865 -0.659,-1.787 -1.931,-1.787c-0.504,0 -1.008,0.155 -1.344,0.406c0.336,-1.103 0.912,-1.775 1.669,-2.184l1.475,1.754l0.407,-0.373l-1.354,-1.609c0.563,-0.204 1.21,-0.288 1.906,-0.336l0,-0.526l-0.024,0c-0.78,0 -1.571,0.119 -2.302,0.371l-1.669,-1.967l-0.408,0.372l1.536,1.822c-1.428,0.661 -2.495,1.897 -2.495,3.757c0,1.212 0.611,2.387 2.195,2.387Z" style="fill:#4e4e4e;fill-rule:nonzero;"/></g><g><path d="M225.09,226.133l0,2.371l-2.365,0c-0.227,0.574 -0.587,0.852 -1.152,0.852c-0.852,-0.001 -1.129,-0.276 -2.1,-0.324c0.755,-0.818 1.704,-1.131 1.968,-1.264c0.985,-0.481 2.183,-0.998 2.183,-2.286c0,-1.059 -0.983,-1.91 -2.291,-1.91c-1.332,0 -2.279,0.996 -2.279,1.886c0,0.433 0.263,0.734 0.719,0.734c0.419,0 0.695,-0.301 0.695,-0.734c0,-0.361 -0.216,-0.505 -0.216,-0.722c0,-0.349 0.409,-0.638 0.961,-0.638c0.672,0 1.069,0.373 1.069,1.107c0,1.023 -0.505,1.625 -1.946,2.503c-0.911,0.506 -2.122,1.587 -2.374,2.606l0.48,0.012c0.18,-0.42 0.372,-0.648 0.792,-0.648c0.779,0.001 1.463,0.852 2.387,0.852c0.781,0 1.272,-0.659 1.452,-1.476l2.017,0l0,2.364l0.55,0l0,-2.364l2.364,0l0,-0.55l-2.364,0l0,-2.371l-0.55,0Z" style="fill:#4e4e4e;fill-rule:nonzero;"/><path d="M241.38,225.492l0,2.364l-2.628,0l0.66,-2.472l-1.416,1.176l-0.348,1.296l-2.424,0c1.716,-1.824 2.508,-2.52 3.696,-4.08l-1.608,0c-0.828,1.584 -1.62,2.76 -2.832,4.152l-0.072,0.478l3.084,0l-0.216,0.841c-0.144,0.505 -0.624,0.673 -0.96,0.673l-0.192,0l-0.072,0.478l3.024,0l0.072,-0.478c-0.408,0 -0.792,-0.108 -0.792,-0.481c0,-0.06 0,-0.12 0.024,-0.192l0.216,-0.841l2.784,0l0,2.364l0.551,0l0,-2.364l2.364,0l0,-0.55l-2.364,0l0,-2.364l-0.551,0Z" style="fill:#4e4e4e;fill-rule:nonzero;"/><path d="M257.406,226.654l0,-2.256l2.16,0l0,-0.55l-2.16,0l0,-2.232l-0.551,0l0,2.232l-1.429,0c-0.432,0.048 -0.768,0.072 -1.128,0.072c-0.767,0 -1.355,-0.072 -2.244,-0.192l-0.936,3.214l0.264,0.192c0.384,-0.264 0.792,-0.432 1.26,-0.432c0.709,0 1.117,0.384 1.117,1.081c0,1.248 -0.852,2.161 -1.753,2.161c-0.516,0 -0.84,-0.228 -0.84,-0.408c0,-0.325 0.372,-0.361 0.372,-0.949c0,-0.396 -0.252,-0.648 -0.672,-0.648c-0.431,0 -0.779,0.348 -0.779,0.948c0,0.733 0.731,1.583 2.063,1.583c1.357,0 2.856,-0.934 2.856,-2.495c0,-1.153 -0.911,-1.847 -2.051,-1.847c-0.565,0 -0.781,0.119 -1.141,0.239l0.408,-1.44c0.48,0.072 0.757,0.144 1.141,0.144c0.78,0 1.355,-0.264 1.811,-0.673l1.681,0l0,2.256l0.551,0Z" style="fill:#4e4e4e;fill-rule:nonzero;"/></g></g></g></svg>