<?xml version="1.0" encoding="UTF-8" standalone="no"?><!DOCTYPE svg PUBLIC "-//W3C//DTD SVG 1.1//EN" "http://www.w3.org/Graphics/SVG/1.1/DTD/svg11.dtd"><svg width="100%" height="100%" viewBox="0 0 81 66" version="1.1" xmlns="http://www.w3.org/2000/svg" xmlns:xlink="http://www.w3.org/1999/xlink" xml:space="preserve" xmlns:serif="http://www.serif.com/" style="fill-rule:evenodd;clip-rule:evenodd;stroke-linejoin:round;stroke-miterlimit:1.5;"><rect id="anatomy" x="0.511" y="0.479" width="80" height="65" style="fill:#fff;"/><rect x="5.309" y="22.413" width="70.405" height="4.183" style="fill:#f9f9f9;"/><rect x="5.309" y="38.109" width="70.405" height="4.178" style="fill:#f9f9f9;"/><path d="M19.44,3.244l0,59.471" style="fill:none;stroke:#e6e6e6;stroke-width:0.5px;stroke-dasharray:1.5,1.5,0,0;"/><path d="M50.737,3.244l0,59.471" style="fill:none;stroke:#e6e6e6;stroke-width:0.5px;stroke-dasharray:1.5,1.5,0,0;"/><path d="M5.309,42.038l70.405,0" style="fill:none;stroke:#e6e6e6;stroke-width:0.5px;stroke-dasharray:1.5,1.5,0,0;"/><path d="M5.309,54.277l70.405,0" style="fill:none;stroke:#e6e6e6;stroke-width:0.5px;stroke-dasharray:1.5,1.5,0,0;"/><path d="M5.309,26.348l70.405,0" style="fill:none;stroke:#e6e6e6;stroke-width:0.5px;stroke-dasharray:1.5,1.5,0,0;"/><path d="M5.309,38.356l70.405,0" style="fill:none;stroke:#e6e6e6;stroke-width:0.5px;stroke-dasharray:1.5,1.5,0,0;"/><path d="M5.309,22.666l70.405,0" style="fill:none;stroke:#e6e6e6;stroke-width:0.5px;stroke-dasharray:1.5,1.5,0,0;"/><path d="M60.057,17.758l0,44.226" style="fill:none;stroke:#e6e6e6;stroke-width:0.5px;stroke-dasharray:1.5,1.5,0,0;"/><path d="M64.456,17.758l0,44.226" style="fill:none;stroke:#e6e6e6;stroke-width:0.5px;stroke-dasharray:1.5,1.5,0,0;"/><path d="M16.237,10.412l-0.868,0l-0.217,3.989l0.824,0c0.217,-1.951 1.258,-2.298 1.909,-2.298c0.281,0 0.693,0.065 1.149,0.173l-2.537,4.359l0.889,0.455l2.667,-4.575c0.715,0.173 1.431,0.347 1.865,0.412c-2.234,3.708 -4.51,5.984 -4.51,8.37c0,0.91 0.563,1.431 1.214,1.431c0.65,0 1.301,-0.477 1.388,-1.648c0.303,-3.903 2.732,-6.635 3.599,-10.668l-0.954,0c-0.174,0.563 -0.607,0.997 -1.214,0.997c-0.261,0 -0.456,-0.065 -0.651,-0.173l2.125,-3.622l-0.932,-0.455l-2.017,3.469c-0.303,-0.216 -0.715,-0.39 -1.301,-0.39c-1.257,0 -1.734,0.954 -2.125,0.954c-0.303,0 -0.303,-0.26 -0.303,-0.78Z" style="fill:#4e4e4e;fill-rule:nonzero;"/><path d="M22.135,34.827l1.994,0l0,-0.997l-1.994,0l0,-4.554l-1.995,2.125l0,2.429l-4.38,0c2.211,-3.296 3.339,-4.771 4.727,-7.59l-2.884,0c-0.738,2.863 -1.627,5.204 -3.144,7.72l0,0.867l5.681,0l0,1.518c0,0.911 -0.803,1.214 -1.41,1.214l-0.433,0l0,0.868l5.464,0l0,-0.868c-0.846,0 -1.626,-0.26 -1.626,-1.214l0,-1.518Z" style="fill:#4e4e4e;fill-rule:nonzero;"/><path d="M27.23,46.428l0,4.271l-4.271,0c-0.304,1.085 -0.824,1.605 -1.909,1.605c-1.604,0 -1.995,-0.434 -3.946,-0.434c0.997,-1.518 2.819,-2.428 3.252,-2.71c1.605,-0.976 3.275,-1.8 3.275,-3.882c0,-1.994 -1.908,-3.382 -4.25,-3.382c-2.689,0 -4.207,2.016 -4.207,3.404c0,0.933 0.542,1.496 1.388,1.496c0.759,0 1.214,-0.498 1.214,-1.127c0,-0.933 -0.629,-1.106 -0.629,-1.605c0,-0.585 0.759,-1.214 1.974,-1.214c1.214,0 2.038,0.737 2.038,2.342c0,1.301 -0.607,2.428 -2.797,4.076c-1.518,1.041 -3.383,3.166 -3.556,4.987l0.867,0c0.303,-0.78 0.65,-1.214 1.474,-1.214c1.301,0 2.516,1.388 4.077,1.388c1.453,0 2.255,-1.236 2.45,-2.732l3.556,0l0,4.271l0.998,0l0,-4.271l4.271,0l0,-0.998l-4.271,0l0,-4.271l-0.998,0Z" style="fill:#4e4e4e;fill-rule:nonzero;"/><path d="M53.032,29.862c0.78,0 1.236,-0.608 1.236,-1.366c0,-1.128 -1.236,-2.429 -3.383,-2.429c-2.429,0 -4.836,2.342 -4.836,6.548c0,3.058 1.301,5.985 4.576,5.985c2.32,0 4.163,-1.605 4.163,-3.881c0,-1.887 -1.54,-3.556 -3.946,-3.556c-1.171,0 -2.104,0.52 -2.711,1.214c0.065,-2.559 0.477,-5.378 2.797,-5.378c0.607,0 1.019,0.261 1.019,0.629c0,0.347 -0.151,0.651 -0.151,0.998c0,0.715 0.455,1.236 1.236,1.236Zm-0.456,4.792c0,1.691 -0.78,2.992 -2.255,2.992c-1.323,0 -2.038,-0.976 -2.038,-2.602c0,-1.691 0.911,-2.906 2.298,-2.906c1.366,0 1.995,1.019 1.995,2.516Z" style="fill:#4e4e4e;fill-rule:nonzero;"/><path d="M62.29,22.034l-0.954,0l0,17.39l0.434,0c2.342,-2.819 5.985,-2.776 5.985,-6.332c0,-1.821 -1.432,-2.645 -2.819,-2.645c-1.301,0 -2.039,0.737 -2.646,1.344l0,-9.757Zm0,15.829l0.044,-5.118c0,0 0.715,-0.823 1.691,-0.823c0.759,0 1.453,0.477 1.453,1.734c0,1.952 -1.583,2.689 -3.188,4.207Z" style="fill:#4e4e4e;fill-rule:nonzero;"/><path d="M50.516,46.493c-0.954,0 -1.648,0.26 -2.233,0.542l-0.13,-0.065l0.043,-2.732c0.781,0.086 1.388,0.173 2.082,0.173c1.995,0 2.992,-0.824 3.729,-2.038l-0.217,-0.304c-1.214,0.174 -2.211,0.217 -3.209,0.217c-1.04,0 -2.038,-0.087 -3.296,-0.217l-0.086,5.985l0.563,0.304c0.608,-0.564 1.367,-0.868 2.256,-0.868c1.279,0 2.515,0.781 2.515,2.732c0,1.995 -1.019,3.296 -2.58,3.296c-1.063,0 -1.648,-0.455 -1.648,-1.041c0,-0.563 0.455,-0.78 0.455,-1.452c0,-0.738 -0.542,-1.193 -1.171,-1.193c-0.846,0 -1.453,0.672 -1.453,1.583c0,1.388 1.583,3.014 4.142,3.014c2.558,0 4.553,-1.713 4.553,-4.163c0,-2.342 -2.103,-3.773 -4.315,-3.773Z" style="fill:#4e4e4e;fill-rule:nonzero;"/><path d="M57.477,38.492l0,15.655l4.163,-0.911l-0.087,5.768l0.954,0l0,-15.612l-4.163,0.997l0,-5.897l-0.867,0Zm0.867,8.456l3.296,-0.737l0,4.337l-3.296,0.78l0,-4.38Z" style="fill:#4e4e4e;fill-rule:nonzero;"/><path d="M22.972,7.607l-5.565,9.593l-0.952,-0.552l5.566,-9.593l0.951,0.552Z" style="fill:#66b182;"/><g><rect x="27.19" y="46.372" width="1.1" height="9.673" style="fill:#66b182;"/><path d="M32.576,51.759l-9.673,0l0,-1.1l9.673,0l0,1.1Z" style="fill:#66b182;"/></g></svg>