<?xml version="1.0" encoding="UTF-8" standalone="no"?><!DOCTYPE svg PUBLIC "-//W3C//DTD SVG 1.1//EN" "http://www.w3.org/Graphics/SVG/1.1/DTD/svg11.dtd"><svg width="100%" height="100%" viewBox="0 0 110 60" version="1.1" xmlns="http://www.w3.org/2000/svg" xmlns:xlink="http://www.w3.org/1999/xlink" xml:space="preserve" xmlns:serif="http://www.serif.com/" style="fill-rule:evenodd;clip-rule:evenodd;stroke-linejoin:round;stroke-miterlimit:1.41421;"><path d="M11.683,18.192c0,1.468 0.767,2.301 1.753,2.915c-1.381,0.614 -2.389,1.644 -2.389,3.178c0,1.841 1.863,3.288 4.493,3.288c2.367,0 4.23,-1.469 4.23,-3.661c0,-1.644 -1.117,-2.52 -2.367,-3.178c1.096,-0.635 1.841,-1.644 1.841,-2.718c0,-1.709 -1.49,-3.112 -3.682,-3.112c-2.301,0 -3.879,1.491 -3.879,3.288Zm2.805,3.485c1.403,0.657 3.661,1.424 3.661,2.959c0,0.876 -1.074,1.841 -2.609,1.841c-1.972,0 -3.178,-1.096 -3.178,-2.28c0,-1.271 0.943,-2.082 2.126,-2.52Zm1.819,-1.447c-1.446,-0.657 -3.002,-1.337 -3.002,-2.586c0,-0.965 0.92,-1.688 2.257,-1.688c1.403,0 2.324,0.789 2.324,1.973c0,0.92 -0.57,1.819 -1.579,2.301Z" style="fill-rule:nonzero;"/><rect x="24.066" y="20.778" width="10.082" height="1.227" style="fill-rule:nonzero;"/><rect x="32.286" y="20.778" width="10.082" height="1.227" style="fill-rule:nonzero;"/><path d="M47.869,15.079l-0.877,0l-0.263,4.691l0.833,0c0.307,-2.63 1.228,-2.806 1.885,-2.806c0.921,0 3.112,0.702 4.077,0.833c-1.973,3.376 -4.559,5.874 -4.559,8.285c0,0.921 0.658,1.447 1.315,1.447c0.658,0 1.315,-0.482 1.403,-1.666c0.307,-3.945 2.761,-6.707 3.638,-10.784l-0.964,0c-0.176,0.57 -0.614,1.009 -1.228,1.009c-1.052,0 -1.271,-1.184 -2.805,-1.184c-1.271,0 -1.754,0.964 -2.148,0.964c-0.307,0 -0.307,-0.263 -0.307,-0.789Z" style="fill-rule:nonzero;"/><path d="M59.924,10.827l-0.965,0l0,17.578l0.439,0c2.367,-2.849 6.049,-2.805 6.049,-6.4c0,-1.841 -1.446,-2.673 -2.849,-2.673c-1.315,0 -2.06,0.745 -2.674,1.358l0,-9.863Zm0,16l0.044,-5.172c0,0 0.745,-0.833 1.753,-0.833c0.789,0 1.534,0.482 1.534,1.753c0,1.973 -1.709,2.718 -3.331,4.252Z" style="fill-rule:nonzero;"/><path d="M53.831,39.759l2.016,0l0,-1.008l-2.016,0l0,-4.603l-2.017,2.148l0,2.455l-4.427,0c2.236,-3.332 3.375,-4.822 4.778,-7.672l-2.915,0c-0.745,2.894 -1.644,5.261 -3.178,7.803l0,0.877l5.742,0l0,1.534c0,0.921 -0.811,1.228 -1.424,1.228l-0.439,0l0,0.876l5.524,0l0,-0.876c-0.855,0 -1.644,-0.263 -1.644,-1.228l0,-1.534Z" style="fill-rule:nonzero;"/><rect x="59.683" y="36.778" width="10.082" height="1.227" style="fill-rule:nonzero;"/><rect x="67.902" y="36.778" width="10.082" height="1.227" style="fill-rule:nonzero;"/><rect x="76.121" y="36.778" width="10.082" height="1.227" style="fill-rule:nonzero;"/><path d="M89.579,27.463l0,15.825l4.208,-0.921l-0.088,5.83l0.965,0l0,-15.781l-4.209,1.009l0,-5.962l-0.876,0Zm0.876,8.767l3.332,-0.745l0,3.945l-3.332,0.789l0,-3.989Z" style="fill-rule:nonzero;"/></svg>