<?xml version="1.0" encoding="UTF-8" standalone="no"?><!DOCTYPE svg PUBLIC "-//W3C//DTD SVG 1.1//EN" "http://www.w3.org/Graphics/SVG/1.1/DTD/svg11.dtd"><svg width="100%" height="100%" viewBox="0 0 750 170" version="1.1" xmlns="http://www.w3.org/2000/svg" xmlns:xlink="http://www.w3.org/1999/xlink" xml:space="preserve" xmlns:serif="http://www.serif.com/" style="fill-rule:evenodd;clip-rule:evenodd;stroke-miterlimit:2;"><rect id="Example" x="0" y="0" width="750" height="170" style="fill:none;"/><g opacity="0.7"><g><path d="M62.982,60.747l624.036,0" style="fill:none;stroke:#000;stroke-width:0.71px;"/><path d="M62.982,66.388l624.036,0" style="fill:none;stroke:#000;stroke-width:0.71px;"/><path d="M62.982,72.029l624.036,0" style="fill:none;stroke:#000;stroke-width:0.71px;"/><path d="M62.982,83.31l624.036,0" style="fill:none;stroke:#000;stroke-width:0.71px;"/><path d="M62.982,77.669l624.036,0" style="fill:none;stroke:#000;stroke-width:0.71px;"/></g><g><path d="M208.452,60.393l0,23.27" style="fill:none;stroke:#000;stroke-width:1.06px;"/><path d="M339.049,60.393l0,23.27" style="fill:none;stroke:#000;stroke-width:1.06px;"/><path d="M450.741,60.393l0,23.27" style="fill:none;stroke:#000;stroke-width:1.06px;"/><path d="M600.223,60.393l0,23.27" style="fill:none;stroke:#000;stroke-width:1.06px;"/><path d="M680.848,60.393l0,23.27" style="fill:none;stroke:#000;stroke-width:1.06px;"/></g><path d="M685.608,60.393l0,23.27" style="fill:none;stroke:#000;stroke-width:2.82px;"/><g><path d="M102.174,54.635l0,16.491" style="fill:none;stroke:#000;stroke-width:0.71px;"/><path d="M188.225,56.672l0,17.319" style="fill:none;stroke:#000;stroke-width:0.71px;"/><path d="M224.453,56.493l0,14.678" style="fill:none;stroke:#000;stroke-width:0.71px;"/><path d="M243.33,58.015l0,15.976" style="fill:none;stroke:#000;stroke-width:0.71px;"/><path d="M262.194,59.536l0,17.276" style="fill:none;stroke:#000;stroke-width:0.71px;"/><path d="M281.07,61.057l0,18.575" style="fill:none;stroke:#000;stroke-width:0.71px;"/><path d="M294.43,62.133l0,20.319" style="fill:none;stroke:#000;stroke-width:0.71px;"/><path d="M307.972,60.747l0,18.84" style="fill:none;stroke:#000;stroke-width:0.71px;"/><path d="M355.233,60.747l0,18.84" style="fill:none;stroke:#000;stroke-width:0.71px;"/><path d="M392.78,62.149l0,17.483" style="fill:none;stroke:#000;stroke-width:0.71px;"/><path d="M411.655,60.738l0,16.074" style="fill:none;stroke:#000;stroke-width:0.71px;"/><path d="M430.532,56.672l0,17.319" style="fill:none;stroke:#000;stroke-width:0.71px;"/><path d="M466.742,54.165l0,19.826" style="fill:none;stroke:#000;stroke-width:0.71px;"/><path d="M485.617,54.165l0,22.647" style="fill:none;stroke:#000;stroke-width:0.71px;"/><path d="M504.493,54.165l0,14.185" style="fill:none;stroke:#000;stroke-width:0.71px;"/><path d="M523.369,54.165l0,17.006" style="fill:none;stroke:#000;stroke-width:0.71px;"/><path d="M542.244,57.918l0,16.073" style="fill:none;stroke:#000;stroke-width:0.71px;"/><path d="M561.119,59.329l0,17.483" style="fill:none;stroke:#000;stroke-width:0.71px;"/><path d="M579.996,56.672l0,17.319" style="fill:none;stroke:#000;stroke-width:0.71px;"/><path d="M616.224,58.71l0,18.102" style="fill:none;stroke:#000;stroke-width:0.71px;"/></g><path d="M105.347,69.208c0,0.725 0.566,1.245 1.268,1.245c0.679,0 1.267,-0.52 1.267,-1.245c0,-0.701 -0.588,-1.245 -1.267,-1.245c-0.702,0 -1.268,0.544 -1.268,1.245" style="fill-rule:nonzero;"/><path d="M101.785,70.693c0,0.928 -1.087,1.404 -1.698,1.834c-0.769,0.543 -2.467,1.788 -3.418,1.788c-0.068,0 -1.041,-0.498 -1.041,-0.906c0,-0.43 0.249,-0.814 0.702,-1.109c1.086,-0.701 2.942,-2.467 4.436,-2.467c0.589,0 1.019,0.294 1.019,0.86m-6.791,2.241c0,0.815 0.43,1.358 0.905,1.766c0.408,0.339 0.974,0.385 2.445,0.385c0.951,0 1.879,-0.476 2.49,-0.883c0.793,-0.521 1.698,-1.834 1.698,-3.079c0,-0.883 -0.521,-1.584 -0.86,-1.765c-0.43,-0.249 -1.517,-0.385 -1.834,-0.385c-0.769,0 -2.196,0.271 -2.965,0.792c-0.86,0.566 -1.879,1.969 -1.879,3.169" style="fill-rule:nonzero;"/><path d="M175.592,67.651c0,0.543 0.045,2.06 0.045,2.761c0,1.132 -0.09,1.2 -0.385,1.291c-0.316,0.113 -0.588,0.203 -0.588,0.362l0,1.426c0,0.113 0.226,0.204 0.226,0.204c0,0 0.295,-0.114 0.408,-0.114c0.113,0 0.339,0.068 0.339,0.589l0,2.943c0,0.339 -0.973,0.407 -0.973,0.566l0,1.539c0,0.068 0.113,0.204 0.204,0.204c0.068,0 0.271,-0.114 0.498,-0.114c0.226,0 0.271,0.068 0.271,1.268c0,0.77 -0.045,2.083 -0.045,2.083c0,0 0.249,0.045 0.475,0.045c0.272,0 0.272,-0.068 0.272,-0.068c0,0 -0.023,-0.928 -0.023,-1.992l0,-1.698c0,0 1.268,-0.452 1.517,-0.452c0.226,0 0.294,0.135 0.294,0.135c0,0.951 -0.045,3.351 -0.045,3.373c0,0 0.136,0.068 0.407,0.068c0.295,0 0.363,-0.068 0.363,-0.068l-0.046,-3.78c0.227,-0.181 1.019,-0.362 1.019,-0.453l0,-1.63c0,-0.113 -0.045,-0.136 -0.113,-0.136c-0.159,0 -0.317,0.159 -0.611,0.159c-0.204,0 -0.295,-0.204 -0.295,-0.362l0,-3.192c0,-0.34 1.019,-0.34 1.019,-0.656l0,-1.562c0,-0.068 -0.249,-0.091 -0.249,-0.091c0,0 -0.226,0.136 -0.475,0.136c-0.295,0 -0.295,-0.317 -0.295,-2.151c0,-0.407 0.046,-1.131 0.046,-1.245c0,0 -0.227,-0.045 -0.476,-0.045c-0.203,0 -0.317,0.045 -0.317,0.045c0,0.838 0.068,2.536 0.068,3.373c0,0.408 -0.52,0.544 -0.815,0.634c-0.181,0.068 -0.566,0.181 -0.724,0.181c-0.226,0 -0.249,-0.226 -0.249,-0.611c0,-0.407 0.023,-2.513 0.023,-2.92c0,0 -0.181,-0.068 -0.408,-0.068c-0.181,0 -0.362,0.023 -0.362,0.023m0.724,8.601c0,-0.724 0,-2.557 0.046,-2.784c0.045,-0.271 0.882,-0.588 1.313,-0.588c0.158,0 0.452,0.022 0.452,0.135l0,3.26c0,0.181 -0.724,0.589 -1.471,0.589c-0.294,0 -0.34,-0.317 -0.34,-0.612" style="fill-rule:nonzero;"/><path d="M181.226,75.732c0,1.426 1.2,2.105 2.603,2.105c2.445,0 4.754,-2.037 4.754,-3.848c0,-1.449 -1.222,-2.128 -2.626,-2.128c-2.422,0 -4.731,2.06 -4.731,3.871" style="fill-rule:nonzero;"/><path d="M217.456,72.911c0,1.427 1.199,2.106 2.603,2.106c2.445,0 4.753,-2.038 4.753,-3.849c0,-1.448 -1.222,-2.127 -2.625,-2.127c-2.423,0 -4.731,2.06 -4.731,3.87" style="fill-rule:nonzero;"/><path d="M234.126,79.693l-0.023,3.056c0,0 0.181,0.068 0.408,0.068c0.226,0 0.407,-0.045 0.407,-0.045c0,0 -0.068,-4.731 -0.068,-6.361l0,-5.84c0,-0.159 -0.068,-0.159 -0.181,-0.159c-0.136,0 -2.309,0.86 -2.535,0.86c-0.159,0 -0.249,-0.203 -0.249,-0.316l0.022,-4.03c0,0 -0.226,-0.045 -0.407,-0.045c-0.362,0 -0.407,0.068 -0.407,0.068c0,0 0.09,5.342 0.09,6.678l0,5.636c0,0.136 0.045,0.204 0.136,0.204c0.362,0 1.811,-0.747 2.467,-0.747c0.204,0 0.34,0.317 0.34,0.973m-2.264,-5.931c0,-0.181 0.317,-0.384 0.611,-0.498c0.272,-0.113 1.313,-0.43 1.381,-0.43c0.091,0 0.295,0.114 0.295,0.204l0,2.92c0,0.136 -0.046,0.385 -0.408,0.566c-0.226,0.113 -1.2,0.34 -1.471,0.34c-0.249,0 -0.408,-0.249 -0.408,-0.317l0,-2.785" style="fill-rule:nonzero;"/><path d="M236.331,75.732c0,1.426 1.2,2.105 2.603,2.105c2.445,0 4.754,-2.037 4.754,-3.848c0,-1.449 -1.223,-2.128 -2.626,-2.128c-2.422,0 -4.731,2.06 -4.731,3.871" style="fill-rule:nonzero;"/><path d="M249.965,67.868c0,0 -0.091,-0.068 -0.453,-0.068c-0.294,0 -0.453,0.045 -0.453,0.045c0.023,4.165 0.023,8.919 0.023,13.378c0,0.159 0.045,0.181 0.113,0.181c0.294,0 0.951,-0.679 1.471,-1.086c1.087,-0.86 2.083,-1.177 2.74,-2.332c0.135,-0.226 0.384,-0.973 0.384,-1.562c0,-1.448 -0.973,-2.06 -1.924,-2.06c-1.018,0 -1.72,0.996 -1.879,0.996c-0.113,0 -0.135,-0.113 -0.135,-0.226c0,-1.788 0.113,-5.682 0.113,-7.266m-0.181,12.314l0,-2.218c0,-0.634 0.09,-1.472 0.09,-1.472c0,0 0.408,-0.996 1.087,-0.996c0.543,0 0.973,0.521 0.973,1.291c0,1.856 -1.154,2.399 -2.15,3.395" style="fill-rule:nonzero;"/><path d="M255.196,78.552c0,1.426 1.2,2.105 2.603,2.105c2.445,0 4.754,-2.037 4.754,-3.848c0,-1.449 -1.222,-2.128 -2.626,-2.128c-2.422,0 -4.731,2.06 -4.731,3.871" style="fill-rule:nonzero;"/><path d="M274.071,81.373c0,1.426 1.2,2.105 2.604,2.105c2.444,0 4.753,-2.037 4.753,-3.848c0,-1.449 -1.222,-2.128 -2.625,-2.128c-2.423,0 -4.732,2.06 -4.732,3.871" style="fill-rule:nonzero;"/><path d="M287.432,84.193c0,1.426 1.2,2.105 2.603,2.105c2.445,0 4.754,-2.037 4.754,-3.848c0,-1.449 -1.223,-2.128 -2.626,-2.128c-2.422,0 -4.731,2.06 -4.731,3.871" style="fill-rule:nonzero;"/><path d="M307.582,79.154c0,0.928 -1.086,1.404 -1.698,1.834c-0.769,0.543 -2.467,1.788 -3.418,1.788c-0.068,0 -1.041,-0.498 -1.041,-0.905c0,-0.43 0.249,-0.815 0.702,-1.11c1.086,-0.701 2.943,-2.467 4.437,-2.467c0.588,0 1.018,0.294 1.018,0.86m-6.791,2.241c0,0.815 0.43,1.358 0.906,1.766c0.407,0.339 0.973,0.385 2.444,0.385c0.951,0 1.879,-0.476 2.49,-0.883c0.793,-0.521 1.698,-1.834 1.698,-3.079c0,-0.882 -0.52,-1.584 -0.86,-1.765c-0.43,-0.249 -1.517,-0.385 -1.834,-0.385c-0.769,0 -2.195,0.272 -2.965,0.792c-0.86,0.566 -1.879,1.97 -1.879,3.169" style="fill-rule:nonzero;"/><path d="M354.842,79.154c0,0.928 -1.086,1.404 -1.697,1.834c-0.77,0.543 -2.468,1.788 -3.418,1.788c-0.068,0 -1.042,-0.498 -1.042,-0.905c0,-0.43 0.249,-0.815 0.702,-1.11c1.087,-0.701 2.943,-2.467 4.437,-2.467c0.588,0 1.018,0.294 1.018,0.86m-6.791,2.241c0,0.815 0.431,1.358 0.906,1.766c0.407,0.339 0.973,0.385 2.445,0.385c0.95,0 1.879,-0.476 2.49,-0.883c0.792,-0.521 1.697,-1.834 1.697,-3.079c0,-0.882 -0.52,-1.584 -0.86,-1.765c-0.43,-0.249 -1.516,-0.385 -1.833,-0.385c-0.77,0 -2.196,0.272 -2.966,0.792c-0.86,0.566 -1.879,1.97 -1.879,3.169" style="fill-rule:nonzero;"/><path d="M385.781,81.373c0,1.426 1.2,2.105 2.603,2.105c2.445,0 4.754,-2.037 4.754,-3.848c0,-1.449 -1.222,-2.128 -2.626,-2.128c-2.422,0 -4.731,2.06 -4.731,3.871" style="fill-rule:nonzero;"/><path d="M402.453,82.514l-0.023,3.056c0,0 0.181,0.067 0.407,0.067c0.227,0 0.408,-0.045 0.408,-0.045c0,0 -0.068,-4.731 -0.068,-6.361l0,-5.84c0,-0.158 -0.068,-0.158 -0.181,-0.158c-0.136,0 -2.309,0.86 -2.535,0.86c-0.159,0 -0.249,-0.204 -0.249,-0.317l0.022,-4.029c0,0 -0.226,-0.046 -0.407,-0.046c-0.362,0 -0.408,0.068 -0.408,0.068c0,0 0.091,5.342 0.091,6.678l0,5.637c0,0.135 0.045,0.203 0.136,0.203c0.362,0 1.811,-0.747 2.467,-0.747c0.204,0 0.34,0.317 0.34,0.974m-2.264,-5.931c0,-0.181 0.317,-0.385 0.611,-0.498c0.272,-0.113 1.313,-0.43 1.381,-0.43c0.091,0 0.294,0.113 0.294,0.203l0,2.921c0,0.135 -0.045,0.384 -0.407,0.566c-0.227,0.113 -1.2,0.339 -1.472,0.339c-0.249,0 -0.407,-0.249 -0.407,-0.317l0,-2.784" style="fill-rule:nonzero;"/><path d="M404.658,78.552c0,1.426 1.199,2.105 2.603,2.105c2.445,0 4.753,-2.037 4.753,-3.848c0,-1.449 -1.222,-2.128 -2.625,-2.128c-2.422,0 -4.731,2.06 -4.731,3.871" style="fill-rule:nonzero;"/><path d="M423.533,75.732c0,1.426 1.2,2.105 2.603,2.105c2.445,0 4.754,-2.037 4.754,-3.848c0,-1.449 -1.223,-2.128 -2.626,-2.128c-2.422,0 -4.731,2.06 -4.731,3.871" style="fill-rule:nonzero;"/><path d="M459.743,75.732c0,1.426 1.2,2.105 2.603,2.105c2.445,0 4.754,-2.037 4.754,-3.848c0,-1.449 -1.223,-2.128 -2.626,-2.128c-2.422,0 -4.731,2.06 -4.731,3.871" style="fill-rule:nonzero;"/><path d="M478.618,78.552c0,1.426 1.2,2.105 2.603,2.105c2.445,0 4.754,-2.037 4.754,-3.848c0,-1.449 -1.222,-2.128 -2.626,-2.128c-2.422,0 -4.731,2.06 -4.731,3.871" style="fill-rule:nonzero;"/><path d="M497.494,70.091c0,1.426 1.2,2.105 2.604,2.105c2.444,0 4.753,-2.037 4.753,-3.848c0,-1.449 -1.222,-2.128 -2.625,-2.128c-2.423,0 -4.732,2.06 -4.732,3.871" style="fill-rule:nonzero;"/><path d="M516.371,72.911c0,1.427 1.2,2.106 2.603,2.106c2.445,0 4.754,-2.038 4.754,-3.849c0,-1.448 -1.223,-2.127 -2.626,-2.127c-2.422,0 -4.731,2.06 -4.731,3.87" style="fill-rule:nonzero;"/><path d="M529.61,67.651c0,0.543 0.045,2.06 0.045,2.761c0,1.132 -0.091,1.2 -0.385,1.291c-0.317,0.113 -0.588,0.203 -0.588,0.362l0,1.426c0,0.113 0.226,0.204 0.226,0.204c0,0 0.294,-0.114 0.407,-0.114c0.114,0 0.34,0.068 0.34,0.589l0,2.943c0,0.339 -0.973,0.407 -0.973,0.566l0,1.539c0,0.068 0.113,0.204 0.203,0.204c0.068,0 0.272,-0.114 0.498,-0.114c0.227,0 0.272,0.068 0.272,1.268c0,0.77 -0.045,2.083 -0.045,2.083c0,0 0.249,0.045 0.475,0.045c0.272,0 0.272,-0.068 0.272,-0.068c0,0 -0.023,-0.928 -0.023,-1.992l0,-1.698c0,0 1.268,-0.452 1.517,-0.452c0.226,0 0.294,0.135 0.294,0.135c0,0.951 -0.045,3.351 -0.045,3.373c0,0 0.135,0.068 0.407,0.068c0.294,0 0.362,-0.068 0.362,-0.068l-0.045,-3.78c0.226,-0.181 1.019,-0.362 1.019,-0.453l0,-1.63c0,-0.113 -0.046,-0.136 -0.114,-0.136c-0.158,0 -0.316,0.159 -0.611,0.159c-0.203,0 -0.294,-0.204 -0.294,-0.362l0,-3.192c0,-0.34 1.019,-0.34 1.019,-0.656l0,-1.562c0,-0.068 -0.249,-0.091 -0.249,-0.091c0,0 -0.227,0.136 -0.476,0.136c-0.294,0 -0.294,-0.317 -0.294,-2.151c0,-0.407 0.045,-1.131 0.045,-1.245c0,0 -0.226,-0.045 -0.475,-0.045c-0.204,0 -0.317,0.045 -0.317,0.045c0,0.838 0.068,2.536 0.068,3.373c0,0.408 -0.521,0.544 -0.815,0.634c-0.181,0.068 -0.566,0.181 -0.724,0.181c-0.227,0 -0.249,-0.226 -0.249,-0.611c0,-0.407 0.022,-2.513 0.022,-2.92c0,0 -0.181,-0.068 -0.407,-0.068c-0.181,0 -0.362,0.023 -0.362,0.023m0.724,8.601c0,-0.724 0,-2.557 0.045,-2.784c0.046,-0.271 0.883,-0.588 1.313,-0.588c0.159,0 0.453,0.022 0.453,0.135l0,3.26c0,0.181 -0.724,0.589 -1.471,0.589c-0.295,0 -0.34,-0.317 -0.34,-0.612" style="fill-rule:nonzero;"/><path d="M535.245,75.732c0,1.426 1.2,2.105 2.603,2.105c2.445,0 4.754,-2.037 4.754,-3.848c0,-1.449 -1.223,-2.128 -2.626,-2.128c-2.422,0 -4.731,2.06 -4.731,3.871" style="fill-rule:nonzero;"/><path d="M554.12,78.552c0,1.426 1.2,2.105 2.603,2.105c2.445,0 4.754,-2.037 4.754,-3.848c0,-1.449 -1.222,-2.128 -2.626,-2.128c-2.422,0 -4.731,2.06 -4.731,3.871" style="fill-rule:nonzero;"/><path d="M572.997,75.732c0,1.426 1.199,2.105 2.603,2.105c2.445,0 4.753,-2.037 4.753,-3.848c0,-1.449 -1.222,-2.128 -2.625,-2.128c-2.422,0 -4.731,2.06 -4.731,3.871" style="fill-rule:nonzero;"/><path d="M609.225,78.552c0,1.426 1.2,2.105 2.603,2.105c2.445,0 4.754,-2.037 4.754,-3.848c0,-1.449 -1.223,-2.128 -2.626,-2.128c-2.422,0 -4.731,2.06 -4.731,3.871" style="fill-rule:nonzero;"/><path d="M630.05,76.013c1.154,0 1.426,0.543 1.834,0.543c0.067,0 0.362,-0.317 0.362,-0.317c0,0 -1.472,-1.381 -1.743,-1.63c-0.996,-0.928 -1.2,-2.06 -1.2,-2.739c0,-1.72 1.471,-3.282 1.924,-4.233l-4.007,-4.527l-0.52,0.385l0.883,1.222c0.543,0.724 0.611,1.63 0.611,1.63c0,0 -0.793,2.422 -2.105,4.188c0.882,1.313 2.806,2.739 2.806,3.395c0,0.113 -0.09,0.159 -0.679,0.159c-0.407,0 -0.95,0.045 -1.335,0.339c-0.521,0.43 -0.974,1.268 -0.974,2.015c0,0.837 0.702,1.924 1.223,2.445c0.204,0.226 1.267,1.154 1.856,1.358l0.385,-0.408c-0.34,-0.249 -1.155,-0.905 -1.155,-1.946c0,-0.974 0.747,-1.879 1.834,-1.879" style="fill-rule:nonzero;"/><path d="M649.715,71.485l0,-2.558l-6.791,0l0,2.558c0,0.136 -0.226,0.34 -0.34,0.34l0,0.204l7.471,0l0,-0.204c-0.114,0 -0.34,-0.136 -0.34,-0.34" style="fill-rule:nonzero;"/><path d="M79.922,69.24c0,0.634 0.588,1.336 1.222,1.336c0.634,0 1.132,-0.702 1.132,-1.336c0,-0.634 -0.566,-1.222 -1.2,-1.222c-0.634,0 -1.154,0.588 -1.154,1.222m0,-5.297c0,0.634 0.52,1.222 1.154,1.222c0.634,0 1.222,-0.588 1.222,-1.222c0,-0.634 -0.656,-1.177 -1.29,-1.177c-0.634,0 -1.086,0.543 -1.086,1.177m-4.211,2.558c0,6.27 -4.029,10.571 -9.236,12.314c-0.362,0.136 -0.679,0.249 -0.679,0.295c0.023,0.203 0.204,0.679 0.272,0.679c0.091,0 0.272,-0.068 0.611,-0.136c5.433,-1.109 11.749,-6.587 11.749,-12.926c0,-3.735 -2.49,-6.338 -5.592,-6.338c-3.418,0 -5.953,2.558 -5.953,5.161c0,1.698 1.222,2.717 2.648,2.717c1.291,0 2.174,-0.883 2.174,-2.083c0,-1.177 -0.702,-2.105 -2.196,-2.105c-0.657,0 -0.838,-0.068 -0.838,-0.34c0,-0.792 1.449,-2.376 3.305,-2.376c2.581,0 3.735,1.607 3.735,5.138" style="fill-rule:nonzero;"/><path d="M96.866,93.48l-0.44,0l-0.132,2.356l0.418,0c0.154,-1.321 0.617,-1.409 0.947,-1.409c0.463,0 1.564,0.352 2.049,0.418c-0.992,1.696 -2.291,2.951 -2.291,4.163c0,0.462 0.33,0.727 0.661,0.727c0.33,0 0.66,-0.243 0.705,-0.837c0.154,-1.983 1.387,-3.37 1.828,-5.418l-0.485,0c-0.088,0.286 -0.308,0.506 -0.617,0.506c-0.528,0 -0.638,-0.595 -1.409,-0.595c-0.639,0 -0.881,0.485 -1.079,0.485c-0.155,0 -0.155,-0.132 -0.155,-0.396Z" style="fill-rule:nonzero;"/><path d="M97.329,101.475l0,2.444l-0.683,0.199l0,1.266l0.683,-0.22l0,2.158l-0.683,0.242l0,1.223l0.683,-0.22l0,2.114l0.44,0l0,-2.269l1.366,-0.418l0,2.18l0.44,0l0,-2.356l0.683,-0.243l0,-1.244l-0.683,0.22l0,-2.158l0.683,-0.242l0,-1.245l-0.683,0.22l0,-2.114l-0.44,0l0,2.313l-1.366,0.396l0,-2.246l-0.44,0Zm1.806,3.072l0,2.202l-1.366,0.419l0,-2.203l1.366,-0.418Z" style="fill-rule:nonzero;"/><path d="M108.839,91.343l-0.485,0l0,8.832l0.22,0c1.19,-1.432 3.04,-1.41 3.04,-3.216c0,-0.925 -0.727,-1.343 -1.432,-1.343c-0.661,0 -1.035,0.374 -1.343,0.683l0,-4.956Zm0,8.039l0.022,-2.599c0,0 0.363,-0.418 0.859,-0.418c0.385,0 0.737,0.242 0.737,0.881c0,0.991 -0.803,1.365 -1.618,2.136Z" style="fill-rule:nonzero;"/><path d="M116.25,95.319c0.396,0 0.628,-0.309 0.628,-0.694c0,-0.573 -0.628,-1.234 -1.718,-1.234c-1.234,0 -2.456,1.19 -2.456,3.326c0,1.553 0.661,3.04 2.324,3.04c1.178,0 2.114,-0.815 2.114,-1.972c0,-0.958 -0.782,-1.806 -2.004,-1.806c-0.595,0 -1.068,0.265 -1.377,0.617c0.033,-1.299 0.242,-2.731 1.421,-2.731c0.308,0 0.517,0.132 0.517,0.319c0,0.177 -0.077,0.331 -0.077,0.507c0,0.363 0.232,0.628 0.628,0.628Zm-0.231,2.433c0,0.859 -0.397,1.52 -1.146,1.52c-0.671,0 -1.035,-0.496 -1.035,-1.321c0,-0.859 0.463,-1.476 1.168,-1.476c0.693,0 1.013,0.517 1.013,1.277Z" style="fill-rule:nonzero;"/><path d="M113.816,101.475l0,2.444l-0.682,0.199l0,1.266l0.682,-0.22l0,2.158l-0.682,0.242l0,1.223l0.682,-0.22l0,2.114l0.441,0l0,-2.269l1.365,-0.418l0,2.18l0.441,0l0,-2.356l0.683,-0.243l0,-1.244l-0.683,0.22l0,-2.158l0.683,-0.242l0,-1.245l-0.683,0.22l0,-2.114l-0.441,0l0,2.313l-1.365,0.396l0,-2.246l-0.441,0Zm1.806,3.072l0,2.202l-1.365,0.419l0,-2.203l1.365,-0.418Z" style="fill-rule:nonzero;"/><rect x="124.663" y="96.343" width="5.066" height="0.615" style="fill-rule:nonzero;"/><path d="M128.606,105.879l1.013,0l0,-0.506l-1.013,0l0,-2.313l-1.013,1.08l0,1.233l-2.225,0c1.124,-1.674 1.696,-2.423 2.401,-3.854l-1.465,0c-0.374,1.453 -0.826,2.643 -1.596,3.92l0,0.44l2.885,0l0,0.771c0,0.463 -0.408,0.617 -0.716,0.617l-0.22,0l0,0.441l2.775,0l0,-0.441c-0.43,0 -0.826,-0.132 -0.826,-0.617l0,-0.771Z" style="fill-rule:nonzero;"/><path d="M141.601,95.726c-0.485,0 -0.837,0.132 -1.134,0.275l-0.066,-0.033l0.022,-1.387c0.396,0.044 0.704,0.088 1.057,0.088c1.013,0 1.52,-0.419 1.894,-1.035l-0.11,-0.154c-0.617,0.088 -1.123,0.11 -1.63,0.11c-0.529,0 -1.035,-0.044 -1.674,-0.11l-0.044,3.039l0.286,0.154c0.309,-0.286 0.694,-0.44 1.146,-0.44c0.649,0 1.277,0.396 1.277,1.387c0,1.013 -0.517,1.674 -1.31,1.674c-0.54,0 -0.837,-0.231 -0.837,-0.529c0,-0.286 0.231,-0.396 0.231,-0.737c0,-0.375 -0.275,-0.606 -0.595,-0.606c-0.429,0 -0.737,0.341 -0.737,0.804c0,0.705 0.803,1.531 2.103,1.531c1.299,0 2.312,-0.87 2.312,-2.115c0,-1.189 -1.068,-1.916 -2.191,-1.916Z" style="fill-rule:nonzero;"/><path d="M140.291,100.803l0,7.951l2.114,-0.463l-0.044,2.929l0.484,0l0,-7.928l-2.114,0.506l0,-2.995l-0.44,0Zm0.44,4.295l1.674,-0.375l0,2.203l-1.674,0.396l0,-2.224Z" style="fill-rule:nonzero;"/><path d="M157.251,95.319c0.396,0 0.628,-0.309 0.628,-0.694c0,-0.573 -0.628,-1.234 -1.718,-1.234c-1.234,0 -2.456,1.19 -2.456,3.326c0,1.553 0.661,3.04 2.323,3.04c1.179,0 2.115,-0.815 2.115,-1.972c0,-0.958 -0.782,-1.806 -2.004,-1.806c-0.595,0 -1.069,0.265 -1.377,0.617c0.033,-1.299 0.242,-2.731 1.421,-2.731c0.308,0 0.517,0.132 0.517,0.319c0,0.177 -0.077,0.331 -0.077,0.507c0,0.363 0.231,0.628 0.628,0.628Zm-0.231,2.433c0,0.859 -0.397,1.52 -1.146,1.52c-0.671,0 -1.035,-0.496 -1.035,-1.321c0,-0.859 0.463,-1.476 1.167,-1.476c0.694,0 1.014,0.517 1.014,1.277Z" style="fill-rule:nonzero;"/><path d="M159.971,91.343l-0.485,0l0,8.832l0.221,0c1.189,-1.432 3.039,-1.41 3.039,-3.216c0,-0.925 -0.727,-1.343 -1.432,-1.343c-0.66,0 -1.035,0.374 -1.343,0.683l0,-4.956Zm0,8.039l0.022,-2.599c0,0 0.363,-0.418 0.859,-0.418c0.385,0 0.738,0.242 0.738,0.881c0,0.991 -0.804,1.365 -1.619,2.136Z" style="fill-rule:nonzero;"/><path d="M157.35,105.879l1.013,0l0,-0.506l-1.013,0l0,-2.313l-1.013,1.08l0,1.233l-2.225,0c1.124,-1.674 1.696,-2.423 2.401,-3.854l-1.465,0c-0.374,1.453 -0.826,2.643 -1.596,3.92l0,0.44l2.885,0l0,0.771c0,0.463 -0.408,0.617 -0.716,0.617l-0.22,0l0,0.441l2.775,0l0,-0.441c-0.43,0 -0.826,-0.132 -0.826,-0.617l0,-0.771Z" style="fill-rule:nonzero;"/><path d="M158.165,114.007l-0.397,-0.066c-0.154,0.55 -0.418,0.814 -0.969,0.814c-0.815,0 -1.013,-0.22 -2.004,-0.22c0.507,-0.771 1.432,-1.233 1.652,-1.376c0.815,-0.496 1.663,-0.914 1.663,-1.972c0,-1.013 -0.969,-1.717 -2.159,-1.717c-1.365,0 -2.136,1.024 -2.136,1.728c0,0.474 0.275,0.76 0.705,0.76c0.385,0 0.616,-0.253 0.616,-0.572c0,-0.474 -0.319,-0.562 -0.319,-0.815c0,-0.298 0.386,-0.617 1.002,-0.617c0.617,0 1.035,0.374 1.035,1.189c0,0.661 -0.308,1.234 -1.42,2.071c-0.771,0.528 -1.718,1.608 -1.806,2.533l0.44,0c0.154,-0.397 0.331,-0.617 0.749,-0.617c0.661,0 1.278,0.705 2.07,0.705c0.881,0 1.278,-0.881 1.278,-1.828Z" style="fill-rule:nonzero;"/><path d="M185.996,95.319c0.396,0 0.627,-0.309 0.627,-0.694c0,-0.573 -0.627,-1.234 -1.718,-1.234c-1.233,0 -2.455,1.19 -2.455,3.326c0,1.553 0.66,3.04 2.323,3.04c1.179,0 2.115,-0.815 2.115,-1.972c0,-0.958 -0.782,-1.806 -2.005,-1.806c-0.594,0 -1.068,0.265 -1.376,0.617c0.033,-1.299 0.242,-2.731 1.42,-2.731c0.309,0 0.518,0.132 0.518,0.319c0,0.177 -0.077,0.331 -0.077,0.507c0,0.363 0.231,0.628 0.628,0.628Zm-0.232,2.433c0,0.859 -0.396,1.52 -1.145,1.52c-0.672,0 -1.035,-0.496 -1.035,-1.321c0,-0.859 0.462,-1.476 1.167,-1.476c0.694,0 1.013,0.517 1.013,1.277Z" style="fill-rule:nonzero;"/><path d="M184.718,103.765c-0.484,0 -0.837,0.132 -1.134,0.275l-0.066,-0.033l0.022,-1.387c0.396,0.044 0.705,0.088 1.057,0.088c1.013,0 1.52,-0.419 1.894,-1.035l-0.11,-0.154c-0.617,0.088 -1.123,0.11 -1.63,0.11c-0.528,0 -1.035,-0.044 -1.674,-0.11l-0.044,3.039l0.287,0.154c0.308,-0.286 0.693,-0.44 1.145,-0.44c0.65,0 1.277,0.396 1.277,1.387c0,1.013 -0.517,1.674 -1.31,1.674c-0.54,0 -0.837,-0.231 -0.837,-0.528c0,-0.287 0.231,-0.397 0.231,-0.738c0,-0.375 -0.275,-0.606 -0.594,-0.606c-0.43,0 -0.738,0.341 -0.738,0.804c0,0.705 0.804,1.531 2.103,1.531c1.3,0 2.313,-0.87 2.313,-2.115c0,-1.189 -1.069,-1.916 -2.192,-1.916Z" style="fill-rule:nonzero;"/><path d="M259.965,95.319c0.396,0 0.627,-0.309 0.627,-0.694c0,-0.573 -0.627,-1.234 -1.718,-1.234c-1.233,0 -2.455,1.19 -2.455,3.326c0,1.553 0.66,3.04 2.323,3.04c1.179,0 2.115,-0.815 2.115,-1.972c0,-0.958 -0.782,-1.806 -2.005,-1.806c-0.594,0 -1.068,0.265 -1.376,0.617c0.033,-1.299 0.242,-2.731 1.42,-2.731c0.309,0 0.518,0.132 0.518,0.319c0,0.177 -0.077,0.331 -0.077,0.507c0,0.363 0.231,0.628 0.628,0.628Zm-0.232,2.433c0,0.859 -0.396,1.52 -1.145,1.52c-0.672,0 -1.035,-0.496 -1.035,-1.321c0,-0.859 0.462,-1.476 1.167,-1.476c0.694,0 1.013,0.517 1.013,1.277Z" style="fill-rule:nonzero;"/><path d="M302.665,93.48l-0.441,0l-0.132,2.356l0.418,0c0.155,-1.321 0.617,-1.409 0.947,-1.409c0.463,0 1.564,0.352 2.049,0.418c-0.991,1.696 -2.291,2.951 -2.291,4.163c0,0.462 0.331,0.727 0.661,0.727c0.33,0 0.661,-0.243 0.705,-0.837c0.154,-1.983 1.387,-3.37 1.828,-5.418l-0.485,0c-0.088,0.286 -0.308,0.506 -0.617,0.506c-0.528,0 -0.638,-0.595 -1.409,-0.595c-0.639,0 -0.881,0.485 -1.079,0.485c-0.154,0 -0.154,-0.132 -0.154,-0.396Z" style="fill-rule:nonzero;"/><path d="M303.127,101.475l0,2.444l-0.683,0.199l0,1.266l0.683,-0.22l0,2.158l-0.683,0.242l0,1.223l0.683,-0.22l0,2.114l0.441,0l0,-2.269l1.365,-0.418l0,2.18l0.441,0l0,-2.356l0.682,-0.243l0,-1.244l-0.682,0.22l0,-2.158l0.682,-0.242l0,-1.245l-0.682,0.22l0,-2.114l-0.441,0l0,2.313l-1.365,0.396l0,-2.246l-0.441,0Zm1.806,3.072l0,2.202l-1.365,0.419l0,-2.203l1.365,-0.418Z" style="fill-rule:nonzero;"/><path d="M314.992,95.319c0.397,0 0.628,-0.309 0.628,-0.694c0,-0.573 -0.628,-1.234 -1.718,-1.234c-1.233,0 -2.456,1.19 -2.456,3.326c0,1.553 0.661,3.04 2.324,3.04c1.178,0 2.114,-0.815 2.114,-1.972c0,-0.958 -0.782,-1.806 -2.004,-1.806c-0.595,0 -1.068,0.265 -1.377,0.617c0.034,-1.299 0.243,-2.731 1.421,-2.731c0.308,0 0.518,0.132 0.518,0.319c0,0.177 -0.077,0.331 -0.077,0.507c0,0.363 0.231,0.628 0.627,0.628Zm-0.231,2.433c0,0.859 -0.396,1.52 -1.145,1.52c-0.672,0 -1.035,-0.496 -1.035,-1.321c0,-0.859 0.462,-1.476 1.167,-1.476c0.694,0 1.013,0.517 1.013,1.277Z" style="fill-rule:nonzero;"/><rect x="311.149" y="104.382" width="5.066" height="0.615" style="fill-rule:nonzero;"/><rect x="320.582" y="96.343" width="5.066" height="0.615" style="fill-rule:nonzero;"/><path d="M324.524,105.879l1.013,0l0,-0.506l-1.013,0l0,-2.313l-1.013,1.08l0,1.233l-2.225,0c1.124,-1.674 1.696,-2.423 2.401,-3.854l-1.464,0c-0.375,1.453 -0.826,2.643 -1.597,3.92l0,0.44l2.885,0l0,0.771c0,0.463 -0.407,0.617 -0.716,0.617l-0.22,0l0,0.441l2.775,0l0,-0.441c-0.429,0 -0.826,-0.132 -0.826,-0.617l0,-0.771Z" style="fill-rule:nonzero;"/><path d="M332.58,95.726c-0.484,0 -0.837,0.132 -1.134,0.275l-0.066,-0.033l0.022,-1.387c0.396,0.044 0.705,0.088 1.057,0.088c1.013,0 1.52,-0.419 1.894,-1.035l-0.11,-0.154c-0.617,0.088 -1.123,0.11 -1.63,0.11c-0.528,0 -1.035,-0.044 -1.674,-0.11l-0.044,3.039l0.287,0.154c0.308,-0.286 0.693,-0.44 1.145,-0.44c0.65,0 1.277,0.396 1.277,1.387c0,1.013 -0.517,1.674 -1.31,1.674c-0.54,0 -0.837,-0.231 -0.837,-0.529c0,-0.286 0.231,-0.396 0.231,-0.737c0,-0.375 -0.275,-0.606 -0.594,-0.606c-0.43,0 -0.738,0.341 -0.738,0.804c0,0.705 0.804,1.531 2.103,1.531c1.3,0 2.313,-0.87 2.313,-2.115c0,-1.189 -1.068,-1.916 -2.192,-1.916Z" style="fill-rule:nonzero;"/><path d="M331.27,100.803l0,7.951l2.114,-0.463l-0.044,2.929l0.485,0l0,-7.928l-2.115,0.506l0,-2.995l-0.44,0Zm0.44,4.295l1.674,-0.375l0,2.203l-1.674,0.396l0,-2.224Z" style="fill-rule:nonzero;"/><path d="M349.802,93.48l-0.44,0l-0.132,2.356l0.418,0c0.154,-1.321 0.617,-1.409 0.947,-1.409c0.463,0 1.564,0.352 2.049,0.418c-0.991,1.696 -2.291,2.951 -2.291,4.163c0,0.462 0.33,0.727 0.661,0.727c0.33,0 0.661,-0.243 0.705,-0.837c0.154,-1.983 1.387,-3.37 1.828,-5.418l-0.485,0c-0.088,0.286 -0.308,0.506 -0.617,0.506c-0.528,0 -0.638,-0.595 -1.409,-0.595c-0.639,0 -0.881,0.485 -1.079,0.485c-0.155,0 -0.155,-0.132 -0.155,-0.396Z" style="fill-rule:nonzero;"/><path d="M355.154,103.203l0,2.17l-2.356,0l0,-2.313l-1.013,1.08l0,1.233l-2.225,0c1.123,-1.674 1.696,-2.423 2.401,-3.854l-1.465,0c-0.374,1.453 -0.826,2.643 -1.597,3.92l0,0.44l2.886,0l0,0.771c0,0.463 -0.408,0.617 -0.716,0.617l-0.22,0l0,0.441l2.775,0l0,-0.441c-0.43,0 -0.826,-0.132 -0.826,-0.617l0,-0.771l2.356,0l0,2.17l0.507,0l0,-2.17l2.169,0l0,-0.506l-2.169,0l0,-2.17l-0.507,0Z" style="fill-rule:nonzero;"/><path d="M353.613,114.007l-0.397,-0.066c-0.154,0.55 -0.418,0.814 -0.969,0.814c-0.815,0 -1.013,-0.22 -2.004,-0.22c0.506,-0.771 1.432,-1.233 1.652,-1.376c0.815,-0.496 1.663,-0.914 1.663,-1.972c0,-1.013 -0.969,-1.717 -2.159,-1.717c-1.365,0 -2.136,1.024 -2.136,1.728c0,0.474 0.275,0.76 0.705,0.76c0.385,0 0.616,-0.253 0.616,-0.572c0,-0.474 -0.319,-0.562 -0.319,-0.815c0,-0.298 0.385,-0.617 1.002,-0.617c0.617,0 1.035,0.374 1.035,1.189c0,0.661 -0.308,1.234 -1.42,2.071c-0.771,0.528 -1.718,1.608 -1.806,2.533l0.44,0c0.154,-0.397 0.33,-0.617 0.749,-0.617c0.661,0 1.277,0.705 2.07,0.705c0.881,0 1.278,-0.881 1.278,-1.828Z" style="fill-rule:nonzero;"/><path d="M387.367,95.043c0,0.738 0.385,1.157 0.881,1.465c-0.694,0.308 -1.2,0.826 -1.2,1.597c0,0.925 0.936,1.652 2.257,1.652c1.189,0 2.125,-0.738 2.125,-1.839c0,-0.826 -0.561,-1.267 -1.189,-1.597c0.551,-0.32 0.925,-0.826 0.925,-1.366c0,-0.859 -0.749,-1.564 -1.85,-1.564c-1.156,0 -1.949,0.749 -1.949,1.652Zm1.409,1.751c0.705,0.331 1.84,0.716 1.84,1.487c0,0.44 -0.54,0.925 -1.311,0.925c-0.991,0 -1.597,-0.551 -1.597,-1.145c0,-0.639 0.474,-1.046 1.068,-1.267Zm0.915,-0.727c-0.727,-0.33 -1.509,-0.671 -1.509,-1.299c0,-0.485 0.462,-0.848 1.134,-0.848c0.705,0 1.167,0.396 1.167,0.991c0,0.463 -0.286,0.914 -0.792,1.156Z" style="fill-rule:nonzero;"/><path d="M388.358,106.045c0,-0.375 -0.275,-0.606 -0.595,-0.606c-0.429,0 -0.737,0.341 -0.737,0.804c0,0.727 0.792,1.553 2.092,1.553c1.454,0 2.346,-0.672 2.346,-1.696c0,-0.826 -0.595,-1.333 -1.333,-1.575l0,-0.121c0.551,-0.209 1.145,-0.551 1.145,-1.41c0,-0.848 -0.782,-1.564 -1.938,-1.564c-1.167,0 -1.927,0.815 -1.927,1.498c0,0.485 0.341,0.76 0.661,0.76c0.396,0 0.605,-0.275 0.605,-0.573c0,-0.484 -0.352,-0.506 -0.352,-0.759c0,-0.188 0.242,-0.463 0.782,-0.463c0.562,0 1.057,0.363 1.057,1.112c0,0.705 -0.473,1.245 -1.619,1.267l0,0.396c1.256,0 1.729,0.628 1.729,1.366c0,0.804 -0.528,1.299 -1.233,1.299c-0.518,0 -0.914,-0.22 -0.914,-0.55c0,-0.287 0.231,-0.397 0.231,-0.738Z" style="fill-rule:nonzero;"/><path d="M428.302,95.319c0.397,0 0.628,-0.309 0.628,-0.694c0,-0.573 -0.628,-1.234 -1.718,-1.234c-1.233,0 -2.456,1.19 -2.456,3.326c0,1.553 0.661,3.04 2.324,3.04c1.178,0 2.114,-0.815 2.114,-1.972c0,-0.958 -0.781,-1.806 -2.004,-1.806c-0.595,0 -1.068,0.265 -1.376,0.617c0.033,-1.299 0.242,-2.731 1.42,-2.731c0.309,0 0.518,0.132 0.518,0.319c0,0.177 -0.077,0.331 -0.077,0.507c0,0.363 0.231,0.628 0.627,0.628Zm-0.231,2.433c0,0.859 -0.396,1.52 -1.145,1.52c-0.672,0 -1.035,-0.496 -1.035,-1.321c0,-0.859 0.462,-1.476 1.167,-1.476c0.694,0 1.013,0.517 1.013,1.277Z" style="fill-rule:nonzero;"/><path d="M466.224,95.164l0,2.17l-2.356,0l0,-2.313l-1.013,1.079l0,1.234l-2.225,0c1.123,-1.674 1.696,-2.423 2.401,-3.854l-1.465,0c-0.374,1.453 -0.826,2.643 -1.597,3.92l0,0.44l2.886,0l0,0.771c0,0.463 -0.408,0.617 -0.716,0.617l-0.22,0l0,0.441l2.775,0l0,-0.441c-0.43,0 -0.826,-0.132 -0.826,-0.617l0,-0.771l2.356,0l0,2.17l0.507,0l0,-2.17l2.17,0l0,-0.506l-2.17,0l0,-2.17l-0.507,0Z" style="fill-rule:nonzero;"/><path d="M466.456,103.732l0,2.17l-2.17,0c-0.154,0.55 -0.418,0.814 -0.969,0.814c-0.815,0 -1.013,-0.22 -2.004,-0.22c0.507,-0.771 1.432,-1.233 1.652,-1.376c0.815,-0.496 1.663,-0.914 1.663,-1.972c0,-1.013 -0.969,-1.718 -2.159,-1.718c-1.365,0 -2.136,1.025 -2.136,1.729c0,0.474 0.275,0.76 0.705,0.76c0.385,0 0.616,-0.253 0.616,-0.572c0,-0.474 -0.319,-0.562 -0.319,-0.815c0,-0.298 0.385,-0.617 1.002,-0.617c0.617,0 1.035,0.374 1.035,1.189c0,0.661 -0.308,1.234 -1.42,2.071c-0.771,0.528 -1.718,1.608 -1.806,2.533l0.44,0c0.154,-0.397 0.331,-0.617 0.749,-0.617c0.661,0 1.277,0.705 2.07,0.705c0.738,0 1.146,-0.628 1.245,-1.388l1.806,0l0,2.17l0.506,0l0,-2.17l2.17,0l0,-0.506l-2.17,0l0,-2.17l-0.506,0Z" style="fill-rule:nonzero;"/><path d="M483.388,95.319c0.396,0 0.627,-0.309 0.627,-0.694c0,-0.573 -0.627,-1.234 -1.718,-1.234c-1.233,0 -2.455,1.19 -2.455,3.326c0,1.553 0.66,3.04 2.323,3.04c1.179,0 2.115,-0.815 2.115,-1.972c0,-0.958 -0.782,-1.806 -2.005,-1.806c-0.594,0 -1.068,0.265 -1.376,0.617c0.033,-1.299 0.242,-2.731 1.42,-2.731c0.309,0 0.518,0.132 0.518,0.319c0,0.177 -0.077,0.331 -0.077,0.507c0,0.363 0.231,0.628 0.628,0.628Zm-0.232,2.433c0,0.859 -0.396,1.52 -1.145,1.52c-0.672,0 -1.035,-0.496 -1.035,-1.321c0,-0.859 0.462,-1.476 1.167,-1.476c0.694,0 1.013,0.517 1.013,1.277Z" style="fill-rule:nonzero;"/><path d="M480.954,101.475l0,2.444l-0.683,0.199l0,1.266l0.683,-0.22l0,2.158l-0.683,0.242l0,1.223l0.683,-0.22l0,2.114l0.44,0l0,-2.269l1.366,-0.418l0,2.18l0.44,0l0,-2.356l0.683,-0.243l0,-1.244l-0.683,0.22l0,-2.158l0.683,-0.242l0,-1.245l-0.683,0.22l0,-2.114l-0.44,0l0,2.313l-1.366,0.396l0,-2.246l-0.44,0Zm1.806,3.072l0,2.202l-1.366,0.419l0,-2.203l1.366,-0.418Z" style="fill-rule:nonzero;"/><path d="M521.139,95.319c0.397,0 0.628,-0.309 0.628,-0.694c0,-0.573 -0.628,-1.234 -1.718,-1.234c-1.233,0 -2.456,1.19 -2.456,3.326c0,1.553 0.661,3.04 2.324,3.04c1.178,0 2.114,-0.815 2.114,-1.972c0,-0.958 -0.782,-1.806 -2.004,-1.806c-0.595,0 -1.068,0.265 -1.377,0.617c0.034,-1.299 0.243,-2.731 1.421,-2.731c0.308,0 0.518,0.132 0.518,0.319c0,0.177 -0.077,0.331 -0.077,0.507c0,0.363 0.231,0.628 0.627,0.628Zm-0.231,2.433c0,0.859 -0.396,1.52 -1.145,1.52c-0.672,0 -1.035,-0.496 -1.035,-1.321c0,-0.859 0.462,-1.476 1.167,-1.476c0.694,0 1.013,0.517 1.013,1.277Z" style="fill-rule:nonzero;"/><path d="M518.706,101.475l0,2.444l-0.683,0.199l0,1.266l0.683,-0.22l0,2.158l-0.683,0.242l0,1.223l0.683,-0.22l0,2.114l0.44,0l0,-2.269l1.366,-0.418l0,2.18l0.44,0l0,-2.356l0.683,-0.243l0,-1.244l-0.683,0.22l0,-2.158l0.683,-0.242l0,-1.245l-0.683,0.22l0,-2.114l-0.44,0l0,2.313l-1.366,0.396l0,-2.246l-0.44,0Zm1.806,3.072l0,2.202l-1.366,0.419l0,-2.203l1.366,-0.418Z" style="fill-rule:nonzero;"/><path d="M540.281,97.862c0,0.738 -0.352,1.41 -1.134,1.41c-0.694,0 -1.068,-0.507 -1.068,-1.189c0,-0.749 0.484,-1.388 1.233,-1.388c0.683,0 0.969,0.496 0.969,1.167Zm-1.002,1.895c1.189,0 2.126,-0.837 2.126,-1.861c0,-0.859 -0.672,-1.696 -1.884,-1.696c-0.605,0 -1.222,0.264 -1.53,0.616c0.022,-1.09 0.33,-1.795 0.815,-2.246l1.596,1.2l0.287,-0.418l-1.454,-1.08c0.463,-0.253 1.024,-0.363 1.652,-0.385l-0.022,-0.463c-0.771,0 -1.509,0.155 -2.136,0.463l-1.961,-1.465l-0.286,0.419l1.784,1.332c-0.793,0.573 -1.31,1.476 -1.31,2.72c0,1.355 0.66,2.864 2.323,2.864Z" style="fill-rule:nonzero;"/><path d="M558.89,95.319c0.396,0 0.627,-0.309 0.627,-0.694c0,-0.573 -0.627,-1.234 -1.717,-1.234c-1.234,0 -2.456,1.19 -2.456,3.326c0,1.553 0.66,3.04 2.323,3.04c1.179,0 2.115,-0.815 2.115,-1.972c0,-0.958 -0.782,-1.806 -2.005,-1.806c-0.594,0 -1.068,0.265 -1.376,0.617c0.033,-1.299 0.242,-2.731 1.421,-2.731c0.308,0 0.517,0.132 0.517,0.319c0,0.177 -0.077,0.331 -0.077,0.507c0,0.363 0.231,0.628 0.628,0.628Zm-0.232,2.433c0,0.859 -0.396,1.52 -1.145,1.52c-0.672,0 -1.035,-0.496 -1.035,-1.321c0,-0.859 0.463,-1.476 1.167,-1.476c0.694,0 1.013,0.517 1.013,1.277Z" style="fill-rule:nonzero;"/><path d="M558.989,105.879l1.013,0l0,-0.506l-1.013,0l0,-2.313l-1.013,1.08l0,1.233l-2.225,0c1.123,-1.674 1.696,-2.423 2.401,-3.854l-1.465,0c-0.374,1.453 -0.826,2.643 -1.597,3.92l0,0.44l2.886,0l0,0.771c0,0.463 -0.408,0.617 -0.716,0.617l-0.22,0l0,0.441l2.775,0l0,-0.441c-0.43,0 -0.826,-0.132 -0.826,-0.617l0,-0.771Z" style="fill-rule:nonzero;"/><path d="M578.024,97.862c0,0.738 -0.352,1.41 -1.134,1.41c-0.694,0 -1.068,-0.507 -1.068,-1.189c0,-0.749 0.484,-1.388 1.233,-1.388c0.683,0 0.969,0.496 0.969,1.167Zm-1.002,1.895c1.19,0 2.126,-0.837 2.126,-1.861c0,-0.859 -0.672,-1.696 -1.883,-1.696c-0.606,0 -1.223,0.264 -1.531,0.616c0.022,-1.09 0.33,-1.795 0.815,-2.246l1.597,1.2l0.286,-0.418l-1.454,-1.08c0.463,-0.253 1.024,-0.363 1.652,-0.385l-0.022,-0.463c-0.771,0 -1.509,0.155 -2.136,0.463l-1.961,-1.465l-0.286,0.419l1.784,1.332c-0.793,0.573 -1.31,1.476 -1.31,2.72c0,1.355 0.66,2.864 2.323,2.864Z" style="fill-rule:nonzero;"/><path d="M576.978,103.765c-0.484,0 -0.837,0.132 -1.134,0.275l-0.066,-0.033l0.022,-1.387c0.396,0.044 0.705,0.088 1.057,0.088c1.013,0 1.52,-0.419 1.894,-1.035l-0.11,-0.154c-0.617,0.088 -1.123,0.11 -1.63,0.11c-0.528,0 -1.035,-0.044 -1.674,-0.11l-0.044,3.039l0.287,0.154c0.308,-0.286 0.693,-0.44 1.145,-0.44c0.65,0 1.277,0.396 1.277,1.387c0,1.013 -0.517,1.674 -1.31,1.674c-0.54,0 -0.837,-0.231 -0.837,-0.528c0,-0.287 0.231,-0.397 0.231,-0.738c0,-0.375 -0.275,-0.606 -0.594,-0.606c-0.43,0 -0.738,0.341 -0.738,0.804c0,0.705 0.804,1.531 2.103,1.531c1.3,0 2.313,-0.87 2.313,-2.115c0,-1.189 -1.069,-1.916 -2.192,-1.916Z" style="fill-rule:nonzero;"/><path d="M588.272,95.164l0,2.17l-2.357,0l0,-2.313l-1.013,1.079l0,1.234l-2.224,0c1.123,-1.674 1.696,-2.423 2.4,-3.854l-1.464,0c-0.375,1.453 -0.826,2.643 -1.597,3.92l0,0.44l2.885,0l0,0.771c0,0.463 -0.407,0.617 -0.716,0.617l-0.22,0l0,0.441l2.775,0l0,-0.441c-0.429,0 -0.826,-0.132 -0.826,-0.617l0,-0.771l2.357,0l0,2.17l0.507,0l0,-2.17l2.169,0l0,-0.506l-2.169,0l0,-2.17l-0.507,0Z" style="fill-rule:nonzero;"/><path d="M593.834,98.006c0,-0.375 -0.275,-0.606 -0.594,-0.606c-0.43,0 -0.738,0.341 -0.738,0.804c0,0.727 0.793,1.553 2.092,1.553c1.454,0 2.346,-0.672 2.346,-1.696c0,-0.826 -0.595,-1.333 -1.333,-1.575l0,-0.121c0.551,-0.209 1.146,-0.551 1.146,-1.41c0,-0.848 -0.782,-1.564 -1.938,-1.564c-1.168,0 -1.928,0.815 -1.928,1.498c0,0.485 0.342,0.76 0.661,0.76c0.397,0 0.606,-0.275 0.606,-0.573c0,-0.484 -0.353,-0.506 -0.353,-0.76c0,-0.187 0.243,-0.462 0.782,-0.462c0.562,0 1.058,0.363 1.058,1.112c0,0.705 -0.474,1.245 -1.619,1.267l0,0.396c1.255,0 1.729,0.628 1.729,1.366c0,0.804 -0.529,1.299 -1.234,1.299c-0.517,0 -0.914,-0.22 -0.914,-0.551c0,-0.286 0.231,-0.396 0.231,-0.737Z" style="fill-rule:nonzero;"/><path d="M611.56,92.334l0,2.445l-0.683,0.198l0,1.267l0.683,-0.221l0,2.159l-0.683,0.242l0,1.222l0.683,-0.22l0,2.115l0.44,0l0,-2.269l1.366,-0.418l0,2.18l0.44,0l0,-2.357l0.683,-0.242l0,-1.244l-0.683,0.22l0,-2.158l0.683,-0.243l0,-1.244l-0.683,0.22l0,-2.114l-0.44,0l0,2.312l-1.366,0.397l0,-2.247l-0.44,0Zm1.806,3.073l0,2.202l-1.366,0.419l0,-2.203l1.366,-0.418Z" style="fill-rule:nonzero;"/><path d="M305.848,86.461c13.062,5.062 31.618,5.062 44.68,0l-0.24,-0.662c-12.822,4.314 -31.378,4.314 -44.2,0l-0.24,0.662" style="fill-rule:nonzero;"/><path d="M353.099,86.457c10.575,4.517 24.502,4.517 35.078,0l-0.261,-0.654c-10.315,3.761 -24.242,3.761 -34.558,0l-0.259,0.654" style="fill-rule:nonzero;"/><path d="M428.388,80.181c8.203,7.316 23.532,7.316 31.735,0l-0.461,-0.533c-7.742,6.439 -23.071,6.439 -30.813,0l-0.461,0.533" style="fill-rule:nonzero;"/><path d="M224.101,57.912l0,-2.829l70.682,5.641l0,2.829l-70.682,-5.641" style="fill-rule:nonzero;"/><path d="M280.718,66.721l0,-2.831l14.065,1.078l0,2.829l-14.065,-1.076" style="fill-rule:nonzero;"/><path d="M392.428,63.567l0,-2.829l19.581,-1.409l0,2.828l-19.581,1.41" style="fill-rule:nonzero;"/><path d="M466.388,56.986l0,-2.821l57.333,0l0,2.821l-57.333,0" style="fill-rule:nonzero;"/><path d="M541.89,59.336l0,-2.827l19.582,1.409l0,2.829l-19.582,-1.411" style="fill-rule:nonzero;"/></g></svg>