<?xml version="1.0" encoding="UTF-8" standalone="no"?>
<!DOCTYPE svg PUBLIC "-//W3C//DTD SVG 1.1//EN" "http://www.w3.org/Graphics/SVG/1.1/DTD/svg11.dtd">
<svg width="100%" height="100%" viewBox="0 0 646 76" version="1.1" xmlns="http://www.w3.org/2000/svg" xmlns:xlink="http://www.w3.org/1999/xlink" xml:space="preserve" xmlns:serif="http://www.serif.com/" style="fill-rule:evenodd;clip-rule:evenodd;stroke-miterlimit:2;">
    <g transform="matrix(1,0,0,1,-50,-44)">
        <g id="Example" transform="matrix(1.40467,0,0,1.34299,-7.02337,-155.123)">
            <rect x="5" y="115.506" width="533.932" height="126.583" style="fill:none;"/>
            <g opacity="0.7">
                <g transform="matrix(0.871091,-8.83466e-19,0,0.9111,13.2519,-27.0777)">
                    <path d="M42,206.142L552,206.142" style="fill:none;stroke:black;stroke-width:0.58px;"/>
                    <path d="M42,210.752L552,210.752" style="fill:none;stroke:black;stroke-width:0.58px;"/>
                    <path d="M42,215.362L552,215.362" style="fill:none;stroke:black;stroke-width:0.58px;"/>
                    <path d="M42,224.582L552,224.582" style="fill:none;stroke:black;stroke-width:0.58px;"/>
                    <path d="M42,219.972L552,219.972" style="fill:none;stroke:black;stroke-width:0.58px;"/>
                </g>
                <g transform="matrix(0.871091,-8.83466e-19,0,0.9111,13.2519,-27.0777)">
                    <path d="M160.887,205.853L160.887,224.87" style="fill:none;stroke:black;stroke-width:0.86px;"/>
                    <path d="M267.619,205.853L267.619,224.87" style="fill:none;stroke:black;stroke-width:0.86px;"/>
                    <path d="M358.9,205.853L358.9,224.87" style="fill:none;stroke:black;stroke-width:0.86px;"/>
                    <path d="M481.066,205.853L481.066,224.87" style="fill:none;stroke:black;stroke-width:0.86px;"/>
                    <path d="M546.958,205.853L546.958,224.87" style="fill:none;stroke:black;stroke-width:0.86px;"/>
                </g>
                <g transform="matrix(0.871091,-8.83466e-19,0,0.9111,13.2519,-27.0777)">
                    <path d="M550.848,205.853L550.848,224.87" style="fill:none;stroke:black;stroke-width:2.31px;"/>
                </g>
                <g transform="matrix(0.871091,-8.83466e-19,0,0.9111,13.2519,-27.0777)">
                    <path d="M74.03,201.147L74.03,214.624" style="fill:none;stroke:black;stroke-width:0.58px;"/>
                    <path d="M144.356,202.812L144.356,216.966" style="fill:none;stroke:black;stroke-width:0.58px;"/>
                    <path d="M173.964,202.665L173.964,214.661" style="fill:none;stroke:black;stroke-width:0.58px;"/>
                    <path d="M189.391,203.909L189.391,216.966" style="fill:none;stroke:black;stroke-width:0.58px;"/>
                    <path d="M204.808,205.152L204.808,219.271" style="fill:none;stroke:black;stroke-width:0.58px;"/>
                    <path d="M220.235,206.395L220.235,221.576" style="fill:none;stroke:black;stroke-width:0.58px;"/>
                    <path d="M231.153,207.275L231.153,223.881" style="fill:none;stroke:black;stroke-width:0.58px;"/>
                    <path d="M242.221,206.142L242.221,221.539" style="fill:none;stroke:black;stroke-width:0.58px;"/>
                    <path d="M280.845,206.142L280.845,221.539" style="fill:none;stroke:black;stroke-width:0.58px;"/>
                    <path d="M311.531,207.288L311.531,221.576" style="fill:none;stroke:black;stroke-width:0.58px;"/>
                    <path d="M326.957,206.135L326.957,219.271" style="fill:none;stroke:black;stroke-width:0.58px;"/>
                    <path d="M342.384,202.812L342.384,216.966" style="fill:none;stroke:black;stroke-width:0.58px;"/>
                    <path d="M371.977,200.763L371.977,216.966" style="fill:none;stroke:black;stroke-width:0.58px;"/>
                    <path d="M387.403,200.763L387.403,219.271" style="fill:none;stroke:black;stroke-width:0.58px;"/>
                    <path d="M402.83,200.763L402.83,212.356" style="fill:none;stroke:black;stroke-width:0.58px;"/>
                    <path d="M418.256,200.763L418.256,214.661" style="fill:none;stroke:black;stroke-width:0.58px;"/>
                    <path d="M433.682,203.83L433.682,216.966" style="fill:none;stroke:black;stroke-width:0.58px;"/>
                    <path d="M449.108,204.983L449.108,219.271" style="fill:none;stroke:black;stroke-width:0.58px;"/>
                    <path d="M464.535,202.812L464.535,216.966" style="fill:none;stroke:black;stroke-width:0.58px;"/>
                    <path d="M494.143,204.477L494.143,219.271" style="fill:none;stroke:black;stroke-width:0.58px;"/>
                </g>
                <g transform="matrix(0.435545,-4.41733e-19,0,0.45555,79.9975,167.039)">
                    <path d="M0,0C0,1.184 0.925,2.035 2.072,2.035C3.182,2.035 4.144,1.184 4.144,0C4.144,-1.147 3.182,-2.035 2.072,-2.035C0.925,-2.035 0,-1.147 0,0" style="fill-rule:nonzero;"/>
                </g>
                <g transform="matrix(0.435545,-4.41733e-19,0,0.45555,72.6271,169.139)">
                    <path d="M11.1,-2.183C11.1,-0.666 9.324,0.111 8.325,0.814C7.067,1.702 4.292,3.737 2.738,3.737C2.627,3.737 1.036,2.923 1.036,2.257C1.036,1.554 1.443,0.925 2.183,0.444C3.959,-0.703 6.993,-3.589 9.435,-3.589C10.397,-3.589 11.1,-3.108 11.1,-2.183M0,1.48C0,2.812 0.703,3.7 1.48,4.366C2.146,4.921 3.071,4.995 5.476,4.995C7.03,4.995 8.547,4.218 9.546,3.552C10.841,2.701 12.321,0.555 12.321,-1.48C12.321,-2.923 11.47,-4.07 10.915,-4.366C10.212,-4.773 8.436,-4.995 7.918,-4.995C6.66,-4.995 4.329,-4.551 3.071,-3.7C1.665,-2.775 0,-0.481 0,1.48" style="fill-rule:nonzero;"/>
                </g>
                <g transform="matrix(0.435545,-4.41733e-19,0,0.45555,129.345,171.239)">
                    <path d="M1.517,-11.766C1.517,-10.878 1.591,-8.399 1.591,-7.252C1.591,-5.402 1.443,-5.291 0.962,-5.143C0.444,-4.958 0,-4.81 0,-4.551L0,-2.22C0,-2.035 0.37,-1.887 0.37,-1.887C0.37,-1.887 0.851,-2.072 1.036,-2.072C1.221,-2.072 1.591,-1.961 1.591,-1.11L1.591,3.7C1.591,4.255 0,4.366 0,4.625L0,7.141C0,7.252 0.185,7.474 0.333,7.474C0.444,7.474 0.777,7.289 1.147,7.289C1.517,7.289 1.591,7.4 1.591,9.361C1.591,10.619 1.517,12.765 1.517,12.765C1.517,12.765 1.924,12.839 2.294,12.839C2.738,12.839 2.738,12.728 2.738,12.728C2.738,12.728 2.701,11.211 2.701,9.472L2.701,6.697C2.701,6.697 4.773,5.957 5.18,5.957C5.55,5.957 5.661,6.179 5.661,6.179C5.661,7.733 5.587,11.655 5.587,11.692C5.587,11.692 5.809,11.803 6.253,11.803C6.734,11.803 6.845,11.692 6.845,11.692L6.771,5.513C7.141,5.217 8.436,4.921 8.436,4.773L8.436,2.109C8.436,1.924 8.362,1.887 8.251,1.887C7.992,1.887 7.733,2.146 7.252,2.146C6.919,2.146 6.771,1.813 6.771,1.554L6.771,-3.663C6.771,-4.218 8.436,-4.218 8.436,-4.736L8.436,-7.289C8.436,-7.4 8.029,-7.437 8.029,-7.437C8.029,-7.437 7.659,-7.215 7.252,-7.215C6.771,-7.215 6.771,-7.733 6.771,-10.73C6.771,-11.396 6.845,-12.58 6.845,-12.765C6.845,-12.765 6.475,-12.839 6.068,-12.839C5.735,-12.839 5.55,-12.765 5.55,-12.765C5.55,-11.396 5.661,-8.621 5.661,-7.252C5.661,-6.586 4.81,-6.364 4.329,-6.216C4.033,-6.105 3.404,-5.92 3.145,-5.92C2.775,-5.92 2.738,-6.29 2.738,-6.919C2.738,-7.585 2.775,-11.026 2.775,-11.692C2.775,-11.692 2.479,-11.803 2.109,-11.803C1.813,-11.803 1.517,-11.766 1.517,-11.766M2.701,2.294C2.701,1.11 2.701,-1.887 2.775,-2.257C2.849,-2.701 4.218,-3.219 4.921,-3.219C5.18,-3.219 5.661,-3.182 5.661,-2.997L5.661,2.331C5.661,2.627 4.477,3.293 3.256,3.293C2.775,3.293 2.701,2.775 2.701,2.294" style="fill-rule:nonzero;"/>
                </g>
                <g transform="matrix(0.435545,-4.41733e-19,0,0.45555,134.016,171.239)">
                    <path d="M0,1.443C0,3.774 1.961,4.884 4.255,4.884C8.251,4.884 12.025,1.554 12.025,-1.406C12.025,-3.774 10.027,-4.884 7.733,-4.884C3.774,-4.884 0,-1.517 0,1.443" style="fill-rule:nonzero;"/>
                </g>
                <g transform="matrix(0.435545,-4.41733e-19,0,0.45555,159.809,169.139)">
                    <path d="M0,1.443C0,3.774 1.961,4.884 4.255,4.884C8.251,4.884 12.025,1.554 12.025,-1.406C12.025,-3.774 10.027,-4.884 7.733,-4.884C3.774,-4.884 0,-1.517 0,1.443" style="fill-rule:nonzero;"/>
                </g>
                <g transform="matrix(0.435545,-4.41733e-19,0,0.45555,169.581,171.239)">
                    <path d="M4.81,7.918L4.773,12.913C4.773,12.913 5.069,13.024 5.439,13.024C5.809,13.024 6.105,12.95 6.105,12.95C6.105,12.95 5.994,5.217 5.994,2.553L5.994,-6.993C5.994,-7.252 5.883,-7.252 5.698,-7.252C5.476,-7.252 1.924,-5.846 1.554,-5.846C1.295,-5.846 1.147,-6.179 1.147,-6.364L1.184,-12.95C1.184,-12.95 0.814,-13.024 0.518,-13.024C-0.074,-13.024 -0.148,-12.913 -0.148,-12.913C-0.148,-12.913 0,-4.181 0,-1.998L0,7.215C0,7.437 0.074,7.548 0.222,7.548C0.814,7.548 3.182,6.327 4.255,6.327C4.588,6.327 4.81,6.845 4.81,7.918M1.11,-1.776C1.11,-2.072 1.628,-2.405 2.109,-2.59C2.553,-2.775 4.255,-3.293 4.366,-3.293C4.514,-3.293 4.847,-3.108 4.847,-2.96L4.847,1.813C4.847,2.035 4.773,2.442 4.181,2.738C3.811,2.923 2.22,3.293 1.776,3.293C1.369,3.293 1.11,2.886 1.11,2.775L1.11,-1.776" style="fill-rule:nonzero;"/>
                </g>
                <g transform="matrix(0.435545,-4.41733e-19,0,0.45555,173.246,171.239)">
                    <path d="M0,1.443C0,3.774 1.961,4.884 4.255,4.884C8.251,4.884 12.025,1.554 12.025,-1.406C12.025,-3.774 10.027,-4.884 7.733,-4.884C3.774,-4.884 0,-1.517 0,1.443" style="fill-rule:nonzero;"/>
                </g>
                <g transform="matrix(0.435545,-4.41733e-19,0,0.45555,182.324,173.339)">
                    <path d="M1.443,-16.021C1.443,-16.021 1.295,-16.132 0.703,-16.132C0.222,-16.132 -0.037,-16.058 -0.037,-16.058C0,-9.25 0,-1.48 0,5.809C0,6.068 0.074,6.105 0.185,6.105C0.666,6.105 1.739,4.995 2.59,4.329C4.366,2.923 5.994,2.405 7.067,0.518C7.289,0.148 7.696,-1.073 7.696,-2.035C7.696,-4.403 6.105,-5.402 4.551,-5.402C2.886,-5.402 1.739,-3.774 1.48,-3.774C1.295,-3.774 1.258,-3.959 1.258,-4.144C1.258,-7.067 1.443,-13.431 1.443,-16.021M1.147,4.107L1.147,0.481C1.147,-0.555 1.295,-1.924 1.295,-1.924C1.295,-1.924 1.961,-3.552 3.071,-3.552C3.959,-3.552 4.662,-2.701 4.662,-1.443C4.662,1.591 2.775,2.479 1.147,4.107" style="fill-rule:nonzero;"/>
                </g>
                <g transform="matrix(0.435545,-4.41733e-19,0,0.45555,186.676,173.339)">
                    <path d="M0,1.443C0,3.774 1.961,4.884 4.255,4.884C8.251,4.884 12.025,1.554 12.025,-1.406C12.025,-3.774 10.027,-4.884 7.733,-4.884C3.774,-4.884 0,-1.517 0,1.443" style="fill-rule:nonzero;"/>
                </g>
                <g transform="matrix(0.435545,-4.41733e-19,0,0.45555,200.114,175.439)">
                    <path d="M0,1.443C0,3.774 1.961,4.884 4.255,4.884C8.251,4.884 12.025,1.554 12.025,-1.406C12.025,-3.774 10.027,-4.884 7.733,-4.884C3.774,-4.884 0,-1.517 0,1.443" style="fill-rule:nonzero;"/>
                </g>
                <g transform="matrix(0.435545,-4.41733e-19,0,0.45555,209.625,177.539)">
                    <path d="M0,1.443C0,3.774 1.961,4.884 4.255,4.884C8.251,4.884 12.025,1.554 12.025,-1.406C12.025,-3.774 10.027,-4.884 7.733,-4.884C3.774,-4.884 0,-1.517 0,1.443" style="fill-rule:nonzero;"/>
                </g>
                <g transform="matrix(0.435545,-4.41733e-19,0,0.45555,219.136,175.439)">
                    <path d="M11.1,-2.183C11.1,-0.666 9.324,0.111 8.325,0.814C7.067,1.702 4.292,3.737 2.738,3.737C2.627,3.737 1.036,2.923 1.036,2.257C1.036,1.554 1.443,0.925 2.183,0.444C3.959,-0.703 6.993,-3.589 9.435,-3.589C10.397,-3.589 11.1,-3.108 11.1,-2.183M0,1.48C0,2.812 0.703,3.7 1.48,4.366C2.146,4.921 3.071,4.995 5.476,4.995C7.03,4.995 8.547,4.218 9.546,3.552C10.841,2.701 12.321,0.555 12.321,-1.48C12.321,-2.923 11.47,-4.07 10.915,-4.366C10.212,-4.773 8.436,-4.995 7.918,-4.995C6.66,-4.995 4.329,-4.551 3.071,-3.7C1.665,-2.775 0,-0.481 0,1.48" style="fill-rule:nonzero;"/>
                </g>
                <g transform="matrix(0.435545,-4.41733e-19,0,0.45555,252.781,175.439)">
                    <path d="M11.1,-2.183C11.1,-0.666 9.324,0.111 8.325,0.814C7.067,1.702 4.292,3.737 2.738,3.737C2.627,3.737 1.036,2.923 1.036,2.257C1.036,1.554 1.443,0.925 2.183,0.444C3.959,-0.703 6.993,-3.589 9.435,-3.589C10.397,-3.589 11.1,-3.108 11.1,-2.183M0,1.48C0,2.812 0.703,3.7 1.48,4.366C2.146,4.921 3.071,4.995 5.476,4.995C7.03,4.995 8.547,4.218 9.546,3.552C10.841,2.701 12.321,0.555 12.321,-1.48C12.321,-2.923 11.47,-4.07 10.915,-4.366C10.212,-4.773 8.436,-4.995 7.918,-4.995C6.66,-4.995 4.329,-4.551 3.071,-3.7C1.665,-2.775 0,-0.481 0,1.48" style="fill-rule:nonzero;"/>
                </g>
                <g transform="matrix(0.435545,-4.41733e-19,0,0.45555,279.641,175.439)">
                    <path d="M0,1.443C0,3.774 1.961,4.884 4.255,4.884C8.251,4.884 12.025,1.554 12.025,-1.406C12.025,-3.774 10.027,-4.884 7.733,-4.884C3.774,-4.884 0,-1.517 0,1.443" style="fill-rule:nonzero;"/>
                </g>
                <g transform="matrix(0.435545,-4.41733e-19,0,0.45555,289.415,173.339)">
                    <path d="M4.81,7.918L4.773,12.913C4.773,12.913 5.069,13.024 5.439,13.024C5.809,13.024 6.105,12.95 6.105,12.95C6.105,12.95 5.994,5.217 5.994,2.553L5.994,-6.993C5.994,-7.252 5.883,-7.252 5.698,-7.252C5.476,-7.252 1.924,-5.846 1.554,-5.846C1.295,-5.846 1.147,-6.179 1.147,-6.364L1.184,-12.95C1.184,-12.95 0.814,-13.024 0.518,-13.024C-0.074,-13.024 -0.148,-12.913 -0.148,-12.913C-0.148,-12.913 0,-4.181 0,-1.998L0,7.215C0,7.437 0.074,7.548 0.222,7.548C0.814,7.548 3.182,6.327 4.255,6.327C4.588,6.327 4.81,6.845 4.81,7.918M1.11,-1.776C1.11,-2.072 1.628,-2.405 2.109,-2.59C2.553,-2.775 4.255,-3.293 4.366,-3.293C4.514,-3.293 4.847,-3.108 4.847,-2.96L4.847,1.813C4.847,2.035 4.773,2.442 4.181,2.738C3.811,2.923 2.22,3.293 1.776,3.293C1.369,3.293 1.11,2.886 1.11,2.775L1.11,-1.776" style="fill-rule:nonzero;"/>
                </g>
                <g transform="matrix(0.435545,-4.41733e-19,0,0.45555,293.079,173.339)">
                    <path d="M0,1.443C0,3.774 1.961,4.884 4.255,4.884C8.251,4.884 12.025,1.554 12.025,-1.406C12.025,-3.774 10.027,-4.884 7.733,-4.884C3.774,-4.884 0,-1.517 0,1.443" style="fill-rule:nonzero;"/>
                </g>
                <g transform="matrix(0.435545,-4.41733e-19,0,0.45555,306.517,171.239)">
                    <path d="M0,1.443C0,3.774 1.961,4.884 4.255,4.884C8.251,4.884 12.025,1.554 12.025,-1.406C12.025,-3.774 10.027,-4.884 7.733,-4.884C3.774,-4.884 0,-1.517 0,1.443" style="fill-rule:nonzero;"/>
                </g>
                <g transform="matrix(0.435545,-4.41733e-19,0,0.45555,332.295,171.239)">
                    <path d="M0,1.443C0,3.774 1.961,4.884 4.255,4.884C8.251,4.884 12.025,1.554 12.025,-1.406C12.025,-3.774 10.027,-4.884 7.733,-4.884C3.774,-4.884 0,-1.517 0,1.443" style="fill-rule:nonzero;"/>
                </g>
                <g transform="matrix(0.435545,-4.41733e-19,0,0.45555,345.732,173.339)">
                    <path d="M0,1.443C0,3.774 1.961,4.884 4.255,4.884C8.251,4.884 12.025,1.554 12.025,-1.406C12.025,-3.774 10.027,-4.884 7.733,-4.884C3.774,-4.884 0,-1.517 0,1.443" style="fill-rule:nonzero;"/>
                </g>
                <g transform="matrix(0.435545,-4.41733e-19,0,0.45555,359.171,167.039)">
                    <path d="M0,1.443C0,3.774 1.961,4.884 4.255,4.884C8.251,4.884 12.025,1.554 12.025,-1.406C12.025,-3.774 10.027,-4.884 7.733,-4.884C3.774,-4.884 0,-1.517 0,1.443" style="fill-rule:nonzero;"/>
                </g>
                <g transform="matrix(0.435545,-4.41733e-19,0,0.45555,372.609,169.139)">
                    <path d="M0,1.443C0,3.774 1.961,4.884 4.255,4.884C8.251,4.884 12.025,1.554 12.025,-1.406C12.025,-3.774 10.027,-4.884 7.733,-4.884C3.774,-4.884 0,-1.517 0,1.443" style="fill-rule:nonzero;"/>
                </g>
                <g transform="matrix(0.435545,-4.41733e-19,0,0.45555,381.373,171.239)">
                    <path d="M1.517,-11.766C1.517,-10.878 1.591,-8.399 1.591,-7.252C1.591,-5.402 1.443,-5.291 0.962,-5.143C0.444,-4.958 0,-4.81 0,-4.551L0,-2.22C0,-2.035 0.37,-1.887 0.37,-1.887C0.37,-1.887 0.851,-2.072 1.036,-2.072C1.221,-2.072 1.591,-1.961 1.591,-1.11L1.591,3.7C1.591,4.255 0,4.366 0,4.625L0,7.141C0,7.252 0.185,7.474 0.333,7.474C0.444,7.474 0.777,7.289 1.147,7.289C1.517,7.289 1.591,7.4 1.591,9.361C1.591,10.619 1.517,12.765 1.517,12.765C1.517,12.765 1.924,12.839 2.294,12.839C2.738,12.839 2.738,12.728 2.738,12.728C2.738,12.728 2.701,11.211 2.701,9.472L2.701,6.697C2.701,6.697 4.773,5.957 5.18,5.957C5.55,5.957 5.661,6.179 5.661,6.179C5.661,7.733 5.587,11.655 5.587,11.692C5.587,11.692 5.809,11.803 6.253,11.803C6.734,11.803 6.845,11.692 6.845,11.692L6.771,5.513C7.141,5.217 8.436,4.921 8.436,4.773L8.436,2.109C8.436,1.924 8.362,1.887 8.251,1.887C7.992,1.887 7.733,2.146 7.252,2.146C6.919,2.146 6.771,1.813 6.771,1.554L6.771,-3.663C6.771,-4.218 8.436,-4.218 8.436,-4.736L8.436,-7.289C8.436,-7.4 8.029,-7.437 8.029,-7.437C8.029,-7.437 7.659,-7.215 7.252,-7.215C6.771,-7.215 6.771,-7.733 6.771,-10.73C6.771,-11.396 6.845,-12.58 6.845,-12.765C6.845,-12.765 6.475,-12.839 6.068,-12.839C5.735,-12.839 5.55,-12.765 5.55,-12.765C5.55,-11.396 5.661,-8.621 5.661,-7.252C5.661,-6.586 4.81,-6.364 4.329,-6.216C4.033,-6.105 3.404,-5.92 3.145,-5.92C2.775,-5.92 2.738,-6.29 2.738,-6.919C2.738,-7.585 2.775,-11.026 2.775,-11.692C2.775,-11.692 2.479,-11.803 2.109,-11.803C1.813,-11.803 1.517,-11.766 1.517,-11.766M2.701,2.294C2.701,1.11 2.701,-1.887 2.775,-2.257C2.849,-2.701 4.218,-3.219 4.921,-3.219C5.18,-3.219 5.661,-3.182 5.661,-2.997L5.661,2.331C5.661,2.627 4.477,3.293 3.256,3.293C2.775,3.293 2.701,2.775 2.701,2.294" style="fill-rule:nonzero;"/>
                </g>
                <g transform="matrix(0.435545,-4.41733e-19,0,0.45555,386.046,171.239)">
                    <path d="M0,1.443C0,3.774 1.961,4.884 4.255,4.884C8.251,4.884 12.025,1.554 12.025,-1.406C12.025,-3.774 10.027,-4.884 7.733,-4.884C3.774,-4.884 0,-1.517 0,1.443" style="fill-rule:nonzero;"/>
                </g>
                <g transform="matrix(0.435545,-4.41733e-19,0,0.45555,399.483,173.339)">
                    <path d="M0,1.443C0,3.774 1.961,4.884 4.255,4.884C8.251,4.884 12.025,1.554 12.025,-1.406C12.025,-3.774 10.027,-4.884 7.733,-4.884C3.774,-4.884 0,-1.517 0,1.443" style="fill-rule:nonzero;"/>
                </g>
                <g transform="matrix(0.435545,-4.41733e-19,0,0.45555,412.921,171.239)">
                    <path d="M0,1.443C0,3.774 1.961,4.884 4.255,4.884C8.251,4.884 12.025,1.554 12.025,-1.406C12.025,-3.774 10.027,-4.884 7.733,-4.884C3.774,-4.884 0,-1.517 0,1.443" style="fill-rule:nonzero;"/>
                </g>
                <g transform="matrix(0.435545,-4.41733e-19,0,0.45555,438.713,173.339)">
                    <path d="M0,1.443C0,3.774 1.961,4.884 4.255,4.884C8.251,4.884 12.025,1.554 12.025,-1.406C12.025,-3.774 10.027,-4.884 7.733,-4.884C3.774,-4.884 0,-1.517 0,1.443" style="fill-rule:nonzero;"/>
                </g>
                <g transform="matrix(0.435545,-4.41733e-19,0,0.45555,450.589,169.139)">
                    <path d="M6.771,6.512C8.658,6.512 9.102,7.4 9.768,7.4C9.879,7.4 10.36,6.882 10.36,6.882C10.36,6.882 7.955,4.625 7.511,4.218C5.883,2.701 5.55,0.851 5.55,-0.259C5.55,-3.071 7.955,-5.624 8.695,-7.178L2.146,-14.578L1.295,-13.949L2.738,-11.951C3.626,-10.767 3.737,-9.287 3.737,-9.287C3.737,-9.287 2.442,-5.328 0.296,-2.442C1.739,-0.296 4.884,2.035 4.884,3.108C4.884,3.293 4.736,3.367 3.774,3.367C3.108,3.367 2.22,3.441 1.591,3.922C0.74,4.625 0,5.994 0,7.215C0,8.584 1.147,10.36 1.998,11.211C2.331,11.581 4.07,13.098 5.032,13.431L5.661,12.765C5.106,12.358 3.774,11.285 3.774,9.583C3.774,7.992 4.995,6.512 6.771,6.512" style="fill-rule:nonzero;"/>
                </g>
                <g transform="matrix(0.435545,-4.41733e-19,0,0.45555,462.703,169.139)">
                    <path d="M11.1,-0.888L11.1,-5.069L0,-5.069L0,-0.888C0,-0.666 -0.37,-0.333 -0.555,-0.333L-0.555,0L11.655,0L11.655,-0.333C11.47,-0.333 11.1,-0.555 11.1,-0.888" style="fill-rule:nonzero;"/>
                </g>
                <g transform="matrix(0.435545,-4.41733e-19,0,0.45555,52.6146,164.938)">
                    <path d="M21.312,4.662C21.312,5.698 22.274,6.845 23.31,6.845C24.346,6.845 25.16,5.698 25.16,4.662C25.16,3.626 24.235,2.664 23.199,2.664C22.163,2.664 21.312,3.626 21.312,4.662M21.312,-3.996C21.312,-2.96 22.163,-1.998 23.199,-1.998C24.235,-1.998 25.197,-2.96 25.197,-3.996C25.197,-5.032 24.124,-5.92 23.088,-5.92C22.052,-5.92 21.312,-5.032 21.312,-3.996M14.43,0.185C14.43,10.434 7.844,17.464 -0.666,20.313C-1.258,20.535 -1.776,20.72 -1.776,20.794C-1.739,21.127 -1.443,21.904 -1.332,21.904C-1.184,21.904 -0.888,21.793 -0.333,21.682C8.547,19.869 18.87,10.915 18.87,0.555C18.87,-5.55 14.8,-9.805 9.731,-9.805C4.144,-9.805 0,-5.624 0,-1.369C0,1.406 1.998,3.071 4.329,3.071C6.438,3.071 7.881,1.628 7.881,-0.333C7.881,-2.257 6.734,-3.774 4.292,-3.774C3.219,-3.774 2.923,-3.885 2.923,-4.329C2.923,-5.624 5.291,-8.214 8.325,-8.214C12.543,-8.214 14.43,-5.587 14.43,0.185" style="fill-rule:nonzero;"/>
                </g>
                <g transform="matrix(0.435545,-4.41733e-19,0,0.45555,73.129,189.72)">
                    <path d="M1.908,-10.116L1.188,-10.116L0.972,-6.264L1.656,-6.264C1.908,-8.424 2.664,-8.568 3.204,-8.568C3.96,-8.568 5.76,-7.992 6.552,-7.884C4.932,-5.112 2.808,-3.06 2.808,-1.08C2.808,-0.324 3.348,0.108 3.888,0.108C4.428,0.108 4.968,-0.288 5.04,-1.26C5.292,-4.5 7.308,-6.768 8.028,-10.116L7.236,-10.116C7.092,-9.648 6.732,-9.288 6.228,-9.288C5.364,-9.288 5.184,-10.26 3.924,-10.26C2.88,-10.26 2.484,-9.468 2.16,-9.468C1.908,-9.468 1.908,-9.684 1.908,-10.116Z" style="fill-rule:nonzero;"/>
                    <path d="M2.664,2.952L2.664,6.948L1.548,7.272L1.548,9.342L2.664,8.982L2.664,12.51L1.548,12.906L1.548,14.904L2.664,14.544L2.664,18L3.384,18L3.384,14.292L5.616,13.608L5.616,17.172L6.336,17.172L6.336,13.32L7.452,12.924L7.452,10.89L6.336,11.25L6.336,7.722L7.452,7.326L7.452,5.292L6.336,5.652L6.336,2.196L5.616,2.196L5.616,5.976L3.384,6.624L3.384,2.952L2.664,2.952ZM5.616,7.974L5.616,11.574L3.384,12.258L3.384,8.658L5.616,7.974Z" style="fill-rule:nonzero;"/>
                </g>
                <g transform="matrix(0.435545,-4.41733e-19,0,0.45555,84.8665,189.72)">
                    <path d="M-5.472,-13.608L-6.264,-13.608L-6.264,0.828L-5.904,0.828C-3.96,-1.512 -0.936,-1.476 -0.936,-4.428C-0.936,-5.94 -2.124,-6.624 -3.276,-6.624C-4.356,-6.624 -4.968,-6.012 -5.472,-5.508L-5.472,-13.608ZM-5.472,-0.468L-5.436,-4.716C-5.436,-4.716 -4.842,-5.4 -4.032,-5.4C-3.402,-5.4 -2.826,-5.004 -2.826,-3.96C-2.826,-2.34 -4.14,-1.728 -5.472,-0.468Z" style="fill-rule:nonzero;"/>
                    <path d="M6.642,-7.11C7.29,-7.11 7.668,-7.614 7.668,-8.244C7.668,-9.18 6.642,-10.26 4.86,-10.26C2.844,-10.26 0.846,-8.316 0.846,-4.824C0.846,-2.286 1.926,0.144 4.644,0.144C6.57,0.144 8.1,-1.188 8.1,-3.078C8.1,-4.644 6.822,-6.03 4.824,-6.03C3.852,-6.03 3.078,-5.598 2.574,-5.022C2.628,-7.146 2.97,-9.486 4.896,-9.486C5.4,-9.486 5.742,-9.27 5.742,-8.964C5.742,-8.676 5.616,-8.424 5.616,-8.136C5.616,-7.542 5.994,-7.11 6.642,-7.11ZM6.264,-3.132C6.264,-1.728 5.616,-0.648 4.392,-0.648C3.294,-0.648 2.7,-1.458 2.7,-2.808C2.7,-4.212 3.456,-5.22 4.608,-5.22C5.742,-5.22 6.264,-4.374 6.264,-3.132Z" style="fill-rule:nonzero;"/>
                    <path d="M2.664,2.952L2.664,6.948L1.548,7.272L1.548,9.342L2.664,8.982L2.664,12.51L1.548,12.906L1.548,14.904L2.664,14.544L2.664,18L3.384,18L3.384,14.292L5.616,13.608L5.616,17.172L6.336,17.172L6.336,13.32L7.452,12.924L7.452,10.89L6.336,11.25L6.336,7.722L7.452,7.326L7.452,5.292L6.336,5.652L6.336,2.196L5.616,2.196L5.616,5.976L3.384,6.624L3.384,2.952L2.664,2.952ZM5.616,7.974L5.616,11.574L3.384,12.258L3.384,8.658L5.616,7.974Z" style="fill-rule:nonzero;"/>
                </g>
                <g transform="matrix(0.435545,-4.41733e-19,0,0.45555,93.5922,189.72)">
                    <rect x="0.36" y="-5.435" width="8.28" height="1.006" style="fill-rule:nonzero;"/>
                    <path d="M6.804,10.152L8.46,10.152L8.46,9.324L6.804,9.324L6.804,5.544L5.148,7.308L5.148,9.324L1.512,9.324C3.348,6.588 4.284,5.364 5.436,3.024L3.042,3.024C2.43,5.4 1.692,7.344 0.432,9.432L0.432,10.152L5.148,10.152L5.148,11.412C5.148,12.168 4.482,12.42 3.978,12.42L3.618,12.42L3.618,13.14L8.154,13.14L8.154,12.42C7.452,12.42 6.804,12.204 6.804,11.412L6.804,10.152Z" style="fill-rule:nonzero;"/>
                </g>
                <g transform="matrix(0.435545,-4.41733e-19,0,0.45555,103.824,189.72)">
                    <path d="M4.554,-6.444C3.762,-6.444 3.186,-6.228 2.7,-5.994L2.592,-6.048L2.628,-8.316C3.276,-8.244 3.78,-8.172 4.356,-8.172C6.012,-8.172 6.84,-8.856 7.452,-9.864L7.272,-10.116C6.264,-9.972 5.436,-9.936 4.608,-9.936C3.744,-9.936 2.916,-10.008 1.872,-10.116L1.8,-5.148L2.268,-4.896C2.772,-5.364 3.402,-5.616 4.14,-5.616C5.202,-5.616 6.228,-4.968 6.228,-3.348C6.228,-1.692 5.382,-0.612 4.086,-0.612C3.204,-0.612 2.718,-0.99 2.718,-1.476C2.718,-1.944 3.096,-2.124 3.096,-2.682C3.096,-3.294 2.646,-3.672 2.124,-3.672C1.422,-3.672 0.918,-3.114 0.918,-2.358C0.918,-1.206 2.232,0.144 4.356,0.144C6.48,0.144 8.136,-1.278 8.136,-3.312C8.136,-5.256 6.39,-6.444 4.554,-6.444Z" style="fill-rule:nonzero;"/>
                    <path d="M2.412,1.854L2.412,14.85L5.868,14.094L5.796,18.882L6.588,18.882L6.588,5.922L3.132,6.75L3.132,1.854L2.412,1.854ZM3.132,8.874L5.868,8.262L5.868,11.862L3.132,12.51L3.132,8.874Z" style="fill-rule:nonzero;"/>
                </g>
                <g transform="matrix(0.435545,-4.41733e-19,0,0.45555,114.055,189.72)">
                    <path d="M6.642,-7.11C7.29,-7.11 7.668,-7.614 7.668,-8.244C7.668,-9.18 6.642,-10.26 4.86,-10.26C2.844,-10.26 0.846,-8.316 0.846,-4.824C0.846,-2.286 1.926,0.144 4.644,0.144C6.57,0.144 8.1,-1.188 8.1,-3.078C8.1,-4.644 6.822,-6.03 4.824,-6.03C3.852,-6.03 3.078,-5.598 2.574,-5.022C2.628,-7.146 2.97,-9.486 4.896,-9.486C5.4,-9.486 5.742,-9.27 5.742,-8.964C5.742,-8.676 5.616,-8.424 5.616,-8.136C5.616,-7.542 5.994,-7.11 6.642,-7.11ZM6.264,-3.132C6.264,-1.728 5.616,-0.648 4.392,-0.648C3.294,-0.648 2.7,-1.458 2.7,-2.808C2.7,-4.212 3.456,-5.22 4.608,-5.22C5.742,-5.22 6.264,-4.374 6.264,-3.132Z" style="fill-rule:nonzero;"/>
                    <path d="M11.088,-13.608L10.296,-13.608L10.296,0.828L10.656,0.828C12.6,-1.512 15.624,-1.476 15.624,-4.428C15.624,-5.94 14.436,-6.624 13.284,-6.624C12.204,-6.624 11.592,-6.012 11.088,-5.508L11.088,-13.608ZM11.088,-0.468L11.124,-4.716C11.124,-4.716 11.718,-5.4 12.528,-5.4C13.158,-5.4 13.734,-5.004 13.734,-3.96C13.734,-2.34 12.42,-1.728 11.088,-0.468Z" style="fill-rule:nonzero;"/>
                    <path d="M6.804,10.152L8.46,10.152L8.46,9.324L6.804,9.324L6.804,5.544L5.148,7.308L5.148,9.324L1.512,9.324C3.348,6.588 4.284,5.364 5.436,3.024L3.042,3.024C2.43,5.4 1.692,7.344 0.432,9.432L0.432,10.152L5.148,10.152L5.148,11.412C5.148,12.168 4.482,12.42 3.978,12.42L3.618,12.42L3.618,13.14L8.154,13.14L8.154,12.42C7.452,12.42 6.804,12.204 6.804,11.412L6.804,10.152Z" style="fill-rule:nonzero;"/>
                    <path d="M8.136,23.436L7.488,23.328C7.236,24.228 6.804,24.66 5.904,24.66C4.572,24.66 4.248,24.3 2.628,24.3C3.456,23.04 4.968,22.284 5.328,22.05C6.66,21.24 8.046,20.556 8.046,18.828C8.046,17.172 6.462,16.02 4.518,16.02C2.286,16.02 1.026,17.694 1.026,18.846C1.026,19.62 1.476,20.088 2.178,20.088C2.808,20.088 3.186,19.674 3.186,19.152C3.186,18.378 2.664,18.234 2.664,17.82C2.664,17.334 3.294,16.812 4.302,16.812C5.31,16.812 5.994,17.424 5.994,18.756C5.994,19.836 5.49,20.772 3.672,22.14C2.412,23.004 0.864,24.768 0.72,26.28L1.44,26.28C1.692,25.632 1.98,25.272 2.664,25.272C3.744,25.272 4.752,26.424 6.048,26.424C7.488,26.424 8.136,24.984 8.136,23.436Z" style="fill-rule:nonzero;"/>
                </g>
                <g transform="matrix(0.435545,-4.41733e-19,0,0.45555,134.519,189.72)">
                    <path d="M6.642,-7.11C7.29,-7.11 7.668,-7.614 7.668,-8.244C7.668,-9.18 6.642,-10.26 4.86,-10.26C2.844,-10.26 0.846,-8.316 0.846,-4.824C0.846,-2.286 1.926,0.144 4.644,0.144C6.57,0.144 8.1,-1.188 8.1,-3.078C8.1,-4.644 6.822,-6.03 4.824,-6.03C3.852,-6.03 3.078,-5.598 2.574,-5.022C2.628,-7.146 2.97,-9.486 4.896,-9.486C5.4,-9.486 5.742,-9.27 5.742,-8.964C5.742,-8.676 5.616,-8.424 5.616,-8.136C5.616,-7.542 5.994,-7.11 6.642,-7.11ZM6.264,-3.132C6.264,-1.728 5.616,-0.648 4.392,-0.648C3.294,-0.648 2.7,-1.458 2.7,-2.808C2.7,-4.212 3.456,-5.22 4.608,-5.22C5.742,-5.22 6.264,-4.374 6.264,-3.132Z" style="fill-rule:nonzero;"/>
                    <path d="M4.554,6.696C3.762,6.696 3.186,6.912 2.7,7.146L2.592,7.092L2.628,4.824C3.276,4.896 3.78,4.968 4.356,4.968C6.012,4.968 6.84,4.284 7.452,3.276L7.272,3.024C6.264,3.168 5.436,3.204 4.608,3.204C3.744,3.204 2.916,3.132 1.872,3.024L1.8,7.992L2.268,8.244C2.772,7.776 3.402,7.524 4.14,7.524C5.202,7.524 6.228,8.172 6.228,9.792C6.228,11.448 5.382,12.528 4.086,12.528C3.204,12.528 2.718,12.15 2.718,11.664C2.718,11.196 3.096,11.016 3.096,10.458C3.096,9.846 2.646,9.468 2.124,9.468C1.422,9.468 0.918,10.026 0.918,10.782C0.918,11.934 2.232,13.284 4.356,13.284C6.48,13.284 8.136,11.862 8.136,9.828C8.136,7.884 6.39,6.696 4.554,6.696Z" style="fill-rule:nonzero;"/>
                </g>
                <g transform="matrix(0.435545,-4.41733e-19,0,0.45555,187.178,189.72)">
                    <path d="M6.642,-7.11C7.29,-7.11 7.668,-7.614 7.668,-8.244C7.668,-9.18 6.642,-10.26 4.86,-10.26C2.844,-10.26 0.846,-8.316 0.846,-4.824C0.846,-2.286 1.926,0.144 4.644,0.144C6.57,0.144 8.1,-1.188 8.1,-3.078C8.1,-4.644 6.822,-6.03 4.824,-6.03C3.852,-6.03 3.078,-5.598 2.574,-5.022C2.628,-7.146 2.97,-9.486 4.896,-9.486C5.4,-9.486 5.742,-9.27 5.742,-8.964C5.742,-8.676 5.616,-8.424 5.616,-8.136C5.616,-7.542 5.994,-7.11 6.642,-7.11ZM6.264,-3.132C6.264,-1.728 5.616,-0.648 4.392,-0.648C3.294,-0.648 2.7,-1.458 2.7,-2.808C2.7,-4.212 3.456,-5.22 4.608,-5.22C5.742,-5.22 6.264,-4.374 6.264,-3.132Z" style="fill-rule:nonzero;"/>
                </g>
                <g transform="matrix(0.435545,-4.41733e-19,0,0.45555,219.638,189.72)">
                    <path d="M1.908,-10.116L1.188,-10.116L0.972,-6.264L1.656,-6.264C1.908,-8.424 2.664,-8.568 3.204,-8.568C3.96,-8.568 5.76,-7.992 6.552,-7.884C4.932,-5.112 2.808,-3.06 2.808,-1.08C2.808,-0.324 3.348,0.108 3.888,0.108C4.428,0.108 4.968,-0.288 5.04,-1.26C5.292,-4.5 7.308,-6.768 8.028,-10.116L7.236,-10.116C7.092,-9.648 6.732,-9.288 6.228,-9.288C5.364,-9.288 5.184,-10.26 3.924,-10.26C2.88,-10.26 2.484,-9.468 2.16,-9.468C1.908,-9.468 1.908,-9.684 1.908,-10.116Z" style="fill-rule:nonzero;"/>
                    <path d="M2.664,2.952L2.664,6.948L1.548,7.272L1.548,9.342L2.664,8.982L2.664,12.51L1.548,12.906L1.548,14.904L2.664,14.544L2.664,18L3.384,18L3.384,14.292L5.616,13.608L5.616,17.172L6.336,17.172L6.336,13.32L7.452,12.924L7.452,10.89L6.336,11.25L6.336,7.722L7.452,7.326L7.452,5.292L6.336,5.652L6.336,2.196L5.616,2.196L5.616,5.976L3.384,6.624L3.384,2.952L2.664,2.952ZM5.616,7.974L5.616,11.574L3.384,12.258L3.384,8.658L5.616,7.974Z" style="fill-rule:nonzero;"/>
                </g>
                <g transform="matrix(0.435545,-4.41733e-19,0,0.45555,226.353,189.72)">
                    <path d="M6.642,-7.11C7.29,-7.11 7.668,-7.614 7.668,-8.244C7.668,-9.18 6.642,-10.26 4.86,-10.26C2.844,-10.26 0.846,-8.316 0.846,-4.824C0.846,-2.286 1.926,0.144 4.644,0.144C6.57,0.144 8.1,-1.188 8.1,-3.078C8.1,-4.644 6.822,-6.03 4.824,-6.03C3.852,-6.03 3.078,-5.598 2.574,-5.022C2.628,-7.146 2.97,-9.486 4.896,-9.486C5.4,-9.486 5.742,-9.27 5.742,-8.964C5.742,-8.676 5.616,-8.424 5.616,-8.136C5.616,-7.542 5.994,-7.11 6.642,-7.11ZM6.264,-3.132C6.264,-1.728 5.616,-0.648 4.392,-0.648C3.294,-0.648 2.7,-1.458 2.7,-2.808C2.7,-4.212 3.456,-5.22 4.608,-5.22C5.742,-5.22 6.264,-4.374 6.264,-3.132Z" style="fill-rule:nonzero;"/>
                    <rect x="0.36" y="7.705" width="8.28" height="1.006" style="fill-rule:nonzero;"/>
                </g>
                <g transform="matrix(0.435545,-4.41733e-19,0,0.45555,233.068,189.72)">
                    <rect x="0.36" y="-5.435" width="8.28" height="1.006" style="fill-rule:nonzero;"/>
                    <path d="M6.804,10.152L8.46,10.152L8.46,9.324L6.804,9.324L6.804,5.544L5.148,7.308L5.148,9.324L1.512,9.324C3.348,6.588 4.284,5.364 5.436,3.024L3.042,3.024C2.43,5.4 1.692,7.344 0.432,9.432L0.432,10.152L5.148,10.152L5.148,11.412C5.148,12.168 4.482,12.42 3.978,12.42L3.618,12.42L3.618,13.14L8.154,13.14L8.154,12.42C7.452,12.42 6.804,12.204 6.804,11.412L6.804,10.152Z" style="fill-rule:nonzero;"/>
                </g>
                <g transform="matrix(0.435545,-4.41733e-19,0,0.45555,239.783,189.72)">
                    <path d="M4.554,-6.444C3.762,-6.444 3.186,-6.228 2.7,-5.994L2.592,-6.048L2.628,-8.316C3.276,-8.244 3.78,-8.172 4.356,-8.172C6.012,-8.172 6.84,-8.856 7.452,-9.864L7.272,-10.116C6.264,-9.972 5.436,-9.936 4.608,-9.936C3.744,-9.936 2.916,-10.008 1.872,-10.116L1.8,-5.148L2.268,-4.896C2.772,-5.364 3.402,-5.616 4.14,-5.616C5.202,-5.616 6.228,-4.968 6.228,-3.348C6.228,-1.692 5.382,-0.612 4.086,-0.612C3.204,-0.612 2.718,-0.99 2.718,-1.476C2.718,-1.944 3.096,-2.124 3.096,-2.682C3.096,-3.294 2.646,-3.672 2.124,-3.672C1.422,-3.672 0.918,-3.114 0.918,-2.358C0.918,-1.206 2.232,0.144 4.356,0.144C6.48,0.144 8.136,-1.278 8.136,-3.312C8.136,-5.256 6.39,-6.444 4.554,-6.444Z" style="fill-rule:nonzero;"/>
                    <path d="M2.412,1.854L2.412,14.85L5.868,14.094L5.796,18.882L6.588,18.882L6.588,5.922L3.132,6.75L3.132,1.854L2.412,1.854ZM3.132,8.874L5.868,8.262L5.868,11.862L3.132,12.51L3.132,8.874Z" style="fill-rule:nonzero;"/>
                </g>
                <g transform="matrix(0.435545,-4.41733e-19,0,0.45555,253.196,189.72)">
                    <path d="M1.908,-10.116L1.188,-10.116L0.972,-6.264L1.656,-6.264C1.908,-8.424 2.664,-8.568 3.204,-8.568C3.96,-8.568 5.76,-7.992 6.552,-7.884C4.932,-5.112 2.808,-3.06 2.808,-1.08C2.808,-0.324 3.348,0.108 3.888,0.108C4.428,0.108 4.968,-0.288 5.04,-1.26C5.292,-4.5 7.308,-6.768 8.028,-10.116L7.236,-10.116C7.092,-9.648 6.732,-9.288 6.228,-9.288C5.364,-9.288 5.184,-10.26 3.924,-10.26C2.88,-10.26 2.484,-9.468 2.16,-9.468C1.908,-9.468 1.908,-9.684 1.908,-10.116Z" style="fill-rule:nonzero;"/>
                    <path d="M10.656,5.778L10.656,9.324L6.804,9.324L6.804,5.544L5.148,7.308L5.148,9.324L1.512,9.324C3.348,6.588 4.284,5.364 5.436,3.024L3.042,3.024C2.43,5.4 1.692,7.344 0.432,9.432L0.432,10.152L5.148,10.152L5.148,11.412C5.148,12.168 4.482,12.42 3.978,12.42L3.618,12.42L3.618,13.14L8.154,13.14L8.154,12.42C7.452,12.42 6.804,12.204 6.804,11.412L6.804,10.152L10.656,10.152L10.656,13.698L11.484,13.698L11.484,10.152L15.03,10.152L15.03,9.324L11.484,9.324L11.484,5.778L10.656,5.778Z" style="fill-rule:nonzero;"/>
                    <path d="M8.136,23.436L7.488,23.328C7.236,24.228 6.804,24.66 5.904,24.66C4.572,24.66 4.248,24.3 2.628,24.3C3.456,23.04 4.968,22.284 5.328,22.05C6.66,21.24 8.046,20.556 8.046,18.828C8.046,17.172 6.462,16.02 4.518,16.02C2.286,16.02 1.026,17.694 1.026,18.846C1.026,19.62 1.476,20.088 2.178,20.088C2.808,20.088 3.186,19.674 3.186,19.152C3.186,18.378 2.664,18.234 2.664,17.82C2.664,17.334 3.294,16.812 4.302,16.812C5.31,16.812 5.994,17.424 5.994,18.756C5.994,19.836 5.49,20.772 3.672,22.14C2.412,23.004 0.864,24.768 0.72,26.28L1.44,26.28C1.692,25.632 1.98,25.272 2.664,25.272C3.744,25.272 4.752,26.424 6.048,26.424C7.488,26.424 8.136,24.984 8.136,23.436Z" style="fill-rule:nonzero;"/>
                </g>
                <g transform="matrix(0.435545,-4.41733e-19,0,0.45555,280.143,189.72)">
                    <path d="M1.44,-7.56C1.44,-6.354 2.07,-5.67 2.88,-5.166C1.746,-4.662 0.918,-3.816 0.918,-2.556C0.918,-1.044 2.448,0.144 4.608,0.144C6.552,0.144 8.082,-1.062 8.082,-2.862C8.082,-4.212 7.164,-4.932 6.138,-5.472C7.038,-5.994 7.65,-6.822 7.65,-7.704C7.65,-9.108 6.426,-10.26 4.626,-10.26C2.736,-10.26 1.44,-9.036 1.44,-7.56ZM3.744,-4.698C4.896,-4.158 6.75,-3.528 6.75,-2.268C6.75,-1.548 5.868,-0.756 4.608,-0.756C2.988,-0.756 1.998,-1.656 1.998,-2.628C1.998,-3.672 2.772,-4.338 3.744,-4.698ZM5.238,-5.886C4.05,-6.426 2.772,-6.984 2.772,-8.01C2.772,-8.802 3.528,-9.396 4.626,-9.396C5.778,-9.396 6.534,-8.748 6.534,-7.776C6.534,-7.02 6.066,-6.282 5.238,-5.886Z" style="fill-rule:nonzero;"/>
                    <path d="M3.06,10.422C3.06,9.81 2.61,9.432 2.088,9.432C1.386,9.432 0.882,9.99 0.882,10.746C0.882,11.934 2.178,13.284 4.302,13.284C6.678,13.284 8.136,12.186 8.136,10.512C8.136,9.162 7.164,8.334 5.958,7.938L5.958,7.74C6.858,7.398 7.83,6.84 7.83,5.436C7.83,4.05 6.552,2.88 4.662,2.88C2.754,2.88 1.512,4.212 1.512,5.328C1.512,6.12 2.07,6.57 2.592,6.57C3.24,6.57 3.582,6.12 3.582,5.634C3.582,4.842 3.006,4.806 3.006,4.392C3.006,4.086 3.402,3.636 4.284,3.636C5.202,3.636 6.012,4.23 6.012,5.454C6.012,6.606 5.238,7.488 3.366,7.524L3.366,8.172C5.418,8.172 6.192,9.198 6.192,10.404C6.192,11.718 5.328,12.528 4.176,12.528C3.33,12.528 2.682,12.168 2.682,11.628C2.682,11.16 3.06,10.98 3.06,10.422Z" style="fill-rule:nonzero;"/>
                </g>
                <g transform="matrix(0.435545,-4.41733e-19,0,0.45555,307.019,189.72)">
                    <path d="M6.642,-7.11C7.29,-7.11 7.668,-7.614 7.668,-8.244C7.668,-9.18 6.642,-10.26 4.86,-10.26C2.844,-10.26 0.846,-8.316 0.846,-4.824C0.846,-2.286 1.926,0.144 4.644,0.144C6.57,0.144 8.1,-1.188 8.1,-3.078C8.1,-4.644 6.822,-6.03 4.824,-6.03C3.852,-6.03 3.078,-5.598 2.574,-5.022C2.628,-7.146 2.97,-9.486 4.896,-9.486C5.4,-9.486 5.742,-9.27 5.742,-8.964C5.742,-8.676 5.616,-8.424 5.616,-8.136C5.616,-7.542 5.994,-7.11 6.642,-7.11ZM6.264,-3.132C6.264,-1.728 5.616,-0.648 4.392,-0.648C3.294,-0.648 2.7,-1.458 2.7,-2.808C2.7,-4.212 3.456,-5.22 4.608,-5.22C5.742,-5.22 6.264,-4.374 6.264,-3.132Z" style="fill-rule:nonzero;"/>
                </g>
                <g transform="matrix(0.435545,-4.41733e-19,0,0.45555,332.268,189.72)">
                    <path d="M10.656,-7.362L10.656,-3.816L6.804,-3.816L6.804,-7.596L5.148,-5.832L5.148,-3.816L1.512,-3.816C3.348,-6.552 4.284,-7.776 5.436,-10.116L3.042,-10.116C2.43,-7.74 1.692,-5.796 0.432,-3.708L0.432,-2.988L5.148,-2.988L5.148,-1.728C5.148,-0.972 4.482,-0.72 3.978,-0.72L3.618,-0.72L3.618,0L8.154,0L8.154,-0.72C7.452,-0.72 6.804,-0.936 6.804,-1.728L6.804,-2.988L10.656,-2.988L10.656,0.558L11.484,0.558L11.484,-2.988L15.03,-2.988L15.03,-3.816L11.484,-3.816L11.484,-7.362L10.656,-7.362Z" style="fill-rule:nonzero;"/>
                    <path d="M11.034,6.642L11.034,10.188L7.488,10.188C7.236,11.088 6.804,11.52 5.904,11.52C4.572,11.52 4.248,11.16 2.628,11.16C3.456,9.9 4.968,9.144 5.328,8.91C6.66,8.1 8.046,7.416 8.046,5.688C8.046,4.032 6.462,2.88 4.518,2.88C2.286,2.88 1.026,4.554 1.026,5.706C1.026,6.48 1.476,6.948 2.178,6.948C2.808,6.948 3.186,6.534 3.186,6.012C3.186,5.238 2.664,5.094 2.664,4.68C2.664,4.194 3.294,3.672 4.302,3.672C5.31,3.672 5.994,4.284 5.994,5.616C5.994,6.696 5.49,7.632 3.672,9C2.412,9.864 0.864,11.628 0.72,13.14L1.44,13.14C1.692,12.492 1.98,12.132 2.664,12.132C3.744,12.132 4.752,13.284 6.048,13.284C7.254,13.284 7.92,12.258 8.082,11.016L11.034,11.016L11.034,14.562L11.862,14.562L11.862,11.016L15.408,11.016L15.408,10.188L11.862,10.188L11.862,6.642L11.034,6.642Z" style="fill-rule:nonzero;"/>
                </g>
                <g transform="matrix(0.435545,-4.41733e-19,0,0.45555,346.235,189.72)">
                    <path d="M6.642,-7.11C7.29,-7.11 7.668,-7.614 7.668,-8.244C7.668,-9.18 6.642,-10.26 4.86,-10.26C2.844,-10.26 0.846,-8.316 0.846,-4.824C0.846,-2.286 1.926,0.144 4.644,0.144C6.57,0.144 8.1,-1.188 8.1,-3.078C8.1,-4.644 6.822,-6.03 4.824,-6.03C3.852,-6.03 3.078,-5.598 2.574,-5.022C2.628,-7.146 2.97,-9.486 4.896,-9.486C5.4,-9.486 5.742,-9.27 5.742,-8.964C5.742,-8.676 5.616,-8.424 5.616,-8.136C5.616,-7.542 5.994,-7.11 6.642,-7.11ZM6.264,-3.132C6.264,-1.728 5.616,-0.648 4.392,-0.648C3.294,-0.648 2.7,-1.458 2.7,-2.808C2.7,-4.212 3.456,-5.22 4.608,-5.22C5.742,-5.22 6.264,-4.374 6.264,-3.132Z" style="fill-rule:nonzero;"/>
                    <path d="M2.664,2.952L2.664,6.948L1.548,7.272L1.548,9.342L2.664,8.982L2.664,12.51L1.548,12.906L1.548,14.904L2.664,14.544L2.664,18L3.384,18L3.384,14.292L5.616,13.608L5.616,17.172L6.336,17.172L6.336,13.32L7.452,12.924L7.452,10.89L6.336,11.25L6.336,7.722L7.452,7.326L7.452,5.292L6.336,5.652L6.336,2.196L5.616,2.196L5.616,5.976L3.384,6.624L3.384,2.952L2.664,2.952ZM5.616,7.974L5.616,11.574L3.384,12.258L3.384,8.658L5.616,7.974Z" style="fill-rule:nonzero;"/>
                </g>
                <g transform="matrix(0.435545,-4.41733e-19,0,0.45555,373.111,189.72)">
                    <path d="M6.642,-7.11C7.29,-7.11 7.668,-7.614 7.668,-8.244C7.668,-9.18 6.642,-10.26 4.86,-10.26C2.844,-10.26 0.846,-8.316 0.846,-4.824C0.846,-2.286 1.926,0.144 4.644,0.144C6.57,0.144 8.1,-1.188 8.1,-3.078C8.1,-4.644 6.822,-6.03 4.824,-6.03C3.852,-6.03 3.078,-5.598 2.574,-5.022C2.628,-7.146 2.97,-9.486 4.896,-9.486C5.4,-9.486 5.742,-9.27 5.742,-8.964C5.742,-8.676 5.616,-8.424 5.616,-8.136C5.616,-7.542 5.994,-7.11 6.642,-7.11ZM6.264,-3.132C6.264,-1.728 5.616,-0.648 4.392,-0.648C3.294,-0.648 2.7,-1.458 2.7,-2.808C2.7,-4.212 3.456,-5.22 4.608,-5.22C5.742,-5.22 6.264,-4.374 6.264,-3.132Z" style="fill-rule:nonzero;"/>
                    <path d="M2.664,2.952L2.664,6.948L1.548,7.272L1.548,9.342L2.664,8.982L2.664,12.51L1.548,12.906L1.548,14.904L2.664,14.544L2.664,18L3.384,18L3.384,14.292L5.616,13.608L5.616,17.172L6.336,17.172L6.336,13.32L7.452,12.924L7.452,10.89L6.336,11.25L6.336,7.722L7.452,7.326L7.452,5.292L6.336,5.652L6.336,2.196L5.616,2.196L5.616,5.976L3.384,6.624L3.384,2.952L2.664,2.952ZM5.616,7.974L5.616,11.574L3.384,12.258L3.384,8.658L5.616,7.974Z" style="fill-rule:nonzero;"/>
                </g>
                <g transform="matrix(0.435545,-4.41733e-19,0,0.45555,386.903,189.72)">
                    <path d="M6.264,-2.952C6.264,-1.746 5.688,-0.648 4.41,-0.648C3.276,-0.648 2.664,-1.476 2.664,-2.592C2.664,-3.816 3.456,-4.86 4.68,-4.86C5.796,-4.86 6.264,-4.05 6.264,-2.952ZM4.626,0.144C6.57,0.144 8.1,-1.224 8.1,-2.898C8.1,-4.302 7.002,-5.67 5.022,-5.67C4.032,-5.67 3.024,-5.238 2.52,-4.662C2.556,-6.444 3.06,-7.596 3.852,-8.334L6.462,-6.372L6.93,-7.056L4.554,-8.82C5.31,-9.234 6.228,-9.414 7.254,-9.45L7.218,-10.206C5.958,-10.206 4.752,-9.954 3.726,-9.45L0.522,-11.844L0.054,-11.16L2.97,-8.982C1.674,-8.046 0.828,-6.57 0.828,-4.536C0.828,-2.322 1.908,0.144 4.626,0.144Z" style="fill-rule:nonzero;"/>
                </g>
                <g transform="matrix(0.435545,-4.41733e-19,0,0.45555,399.986,189.72)">
                    <path d="M6.642,-7.11C7.29,-7.11 7.668,-7.614 7.668,-8.244C7.668,-9.18 6.642,-10.26 4.86,-10.26C2.844,-10.26 0.846,-8.316 0.846,-4.824C0.846,-2.286 1.926,0.144 4.644,0.144C6.57,0.144 8.1,-1.188 8.1,-3.078C8.1,-4.644 6.822,-6.03 4.824,-6.03C3.852,-6.03 3.078,-5.598 2.574,-5.022C2.628,-7.146 2.97,-9.486 4.896,-9.486C5.4,-9.486 5.742,-9.27 5.742,-8.964C5.742,-8.676 5.616,-8.424 5.616,-8.136C5.616,-7.542 5.994,-7.11 6.642,-7.11ZM6.264,-3.132C6.264,-1.728 5.616,-0.648 4.392,-0.648C3.294,-0.648 2.7,-1.458 2.7,-2.808C2.7,-4.212 3.456,-5.22 4.608,-5.22C5.742,-5.22 6.264,-4.374 6.264,-3.132Z" style="fill-rule:nonzero;"/>
                    <path d="M6.804,10.152L8.46,10.152L8.46,9.324L6.804,9.324L6.804,5.544L5.148,7.308L5.148,9.324L1.512,9.324C3.348,6.588 4.284,5.364 5.436,3.024L3.042,3.024C2.43,5.4 1.692,7.344 0.432,9.432L0.432,10.152L5.148,10.152L5.148,11.412C5.148,12.168 4.482,12.42 3.978,12.42L3.618,12.42L3.618,13.14L8.154,13.14L8.154,12.42C7.452,12.42 6.804,12.204 6.804,11.412L6.804,10.152Z" style="fill-rule:nonzero;"/>
                </g>
                <g transform="matrix(0.435545,-4.41733e-19,0,0.45555,413.772,189.72)">
                    <path d="M6.264,-2.952C6.264,-1.746 5.688,-0.648 4.41,-0.648C3.276,-0.648 2.664,-1.476 2.664,-2.592C2.664,-3.816 3.456,-4.86 4.68,-4.86C5.796,-4.86 6.264,-4.05 6.264,-2.952ZM4.626,0.144C6.57,0.144 8.1,-1.224 8.1,-2.898C8.1,-4.302 7.002,-5.67 5.022,-5.67C4.032,-5.67 3.024,-5.238 2.52,-4.662C2.556,-6.444 3.06,-7.596 3.852,-8.334L6.462,-6.372L6.93,-7.056L4.554,-8.82C5.31,-9.234 6.228,-9.414 7.254,-9.45L7.218,-10.206C5.958,-10.206 4.752,-9.954 3.726,-9.45L0.522,-11.844L0.054,-11.16L2.97,-8.982C1.674,-8.046 0.828,-6.57 0.828,-4.536C0.828,-2.322 1.908,0.144 4.626,0.144Z" style="fill-rule:nonzero;"/>
                    <path d="M4.554,6.696C3.762,6.696 3.186,6.912 2.7,7.146L2.592,7.092L2.628,4.824C3.276,4.896 3.78,4.968 4.356,4.968C6.012,4.968 6.84,4.284 7.452,3.276L7.272,3.024C6.264,3.168 5.436,3.204 4.608,3.204C3.744,3.204 2.916,3.132 1.872,3.024L1.8,7.992L2.268,8.244C2.772,7.776 3.402,7.524 4.14,7.524C5.202,7.524 6.228,8.172 6.228,9.792C6.228,11.448 5.382,12.528 4.086,12.528C3.204,12.528 2.718,12.15 2.718,11.664C2.718,11.196 3.096,11.016 3.096,10.458C3.096,9.846 2.646,9.468 2.124,9.468C1.422,9.468 0.918,10.026 0.918,10.782C0.918,11.934 2.232,13.284 4.356,13.284C6.48,13.284 8.136,11.862 8.136,9.828C8.136,7.884 6.39,6.696 4.554,6.696Z" style="fill-rule:nonzero;"/>
                </g>
                <g transform="matrix(0.435545,-4.41733e-19,0,0.45555,419.155,189.72)">
                    <path d="M10.656,-7.362L10.656,-3.816L6.804,-3.816L6.804,-7.596L5.148,-5.832L5.148,-3.816L1.512,-3.816C3.348,-6.552 4.284,-7.776 5.436,-10.116L3.042,-10.116C2.43,-7.74 1.692,-5.796 0.432,-3.708L0.432,-2.988L5.148,-2.988L5.148,-1.728C5.148,-0.972 4.482,-0.72 3.978,-0.72L3.618,-0.72L3.618,0L8.154,0L8.154,-0.72C7.452,-0.72 6.804,-0.936 6.804,-1.728L6.804,-2.988L10.656,-2.988L10.656,0.558L11.484,0.558L11.484,-2.988L15.03,-2.988L15.03,-3.816L11.484,-3.816L11.484,-7.362L10.656,-7.362Z" style="fill-rule:nonzero;"/>
                </g>
                <g transform="matrix(0.435545,-4.41733e-19,0,0.45555,426.423,189.72)">
                    <path d="M3.06,-2.718C3.06,-3.33 2.61,-3.708 2.088,-3.708C1.386,-3.708 0.882,-3.15 0.882,-2.394C0.882,-1.206 2.178,0.144 4.302,0.144C6.678,0.144 8.136,-0.954 8.136,-2.628C8.136,-3.978 7.164,-4.806 5.958,-5.202L5.958,-5.4C6.858,-5.742 7.83,-6.3 7.83,-7.704C7.83,-9.09 6.552,-10.26 4.662,-10.26C2.754,-10.26 1.512,-8.928 1.512,-7.812C1.512,-7.02 2.07,-6.57 2.592,-6.57C3.24,-6.57 3.582,-7.02 3.582,-7.506C3.582,-8.298 3.006,-8.334 3.006,-8.748C3.006,-9.054 3.402,-9.504 4.284,-9.504C5.202,-9.504 6.012,-8.91 6.012,-7.686C6.012,-6.534 5.238,-5.652 3.366,-5.616L3.366,-4.968C5.418,-4.968 6.192,-3.942 6.192,-2.736C6.192,-1.422 5.328,-0.612 4.176,-0.612C3.33,-0.612 2.682,-0.972 2.682,-1.512C2.682,-1.98 3.06,-2.16 3.06,-2.718Z" style="fill-rule:nonzero;"/>
                </g>
                <g transform="matrix(0.435545,-4.41733e-19,0,0.45555,439.214,189.72)">
                    <path d="M2.664,-11.988L2.664,-7.992L1.548,-7.668L1.548,-5.598L2.664,-5.958L2.664,-2.43L1.548,-2.034L1.548,-0.036L2.664,-0.396L2.664,3.06L3.384,3.06L3.384,-0.648L5.616,-1.332L5.616,2.232L6.336,2.232L6.336,-1.62L7.452,-2.016L7.452,-4.05L6.336,-3.69L6.336,-7.218L7.452,-7.614L7.452,-9.648L6.336,-9.288L6.336,-12.744L5.616,-12.744L5.616,-8.964L3.384,-8.316L3.384,-11.988L2.664,-11.988ZM5.616,-6.966L5.616,-3.366L3.384,-2.682L3.384,-6.282L5.616,-6.966Z" style="fill-rule:nonzero;"/>
                </g>
                <g transform="matrix(0.871091,-8.83466e-19,0,0.9111,13.2519,-27.0777)">
                    <path d="M240.485,227.157C251.16,231.294 266.325,231.294 277,227.157L276.804,226.616C266.325,230.142 251.16,230.142 240.681,226.616L240.485,227.157" style="fill-rule:nonzero;"/>
                </g>
                <g transform="matrix(0.871091,-8.83466e-19,0,0.9111,13.2519,-27.0777)">
                    <path d="M279.101,227.154C287.744,230.845 299.126,230.845 307.769,227.154L307.556,226.619C299.126,229.693 287.744,229.693 279.313,226.619L279.101,227.154" style="fill-rule:nonzero;"/>
                </g>
                <g transform="matrix(0.871091,-8.83466e-19,0,0.9111,13.2519,-27.0777)">
                    <path d="M340.632,222.025C347.336,228.004 359.864,228.004 366.568,222.025L366.191,221.589C359.864,226.851 347.336,226.851 341.009,221.589L340.632,222.025" style="fill-rule:nonzero;"/>
                </g>
                <g transform="matrix(0.871091,-8.83466e-19,0,0.9111,13.2519,-27.0777)">
                    <path d="M173.676,203.825L173.676,201.513L231.442,206.123L231.442,208.435L173.676,203.825" style="fill-rule:nonzero;"/>
                </g>
                <g transform="matrix(0.871091,-8.83466e-19,0,0.9111,13.2519,-27.0777)">
                    <path d="M219.947,211.024L219.947,208.711L231.442,209.592L231.442,211.904L219.947,211.024" style="fill-rule:nonzero;"/>
                </g>
                <g transform="matrix(0.871091,-8.83466e-19,0,0.9111,13.2519,-27.0777)">
                    <path d="M311.243,208.447L311.243,206.135L327.246,204.983L327.246,207.294L311.243,208.447" style="fill-rule:nonzero;"/>
                </g>
                <g transform="matrix(0.871091,-8.83466e-19,0,0.9111,13.2519,-27.0777)">
                    <path d="M371.688,203.068L371.688,200.763L418.544,200.763L418.544,203.068L371.688,203.068" style="fill-rule:nonzero;"/>
                </g>
                <g transform="matrix(0.871091,-8.83466e-19,0,0.9111,13.2519,-27.0777)">
                    <path d="M433.393,204.989L433.393,202.678L449.396,203.83L449.396,206.142L433.393,204.989" style="fill-rule:nonzero;"/>
                </g>
            </g>
        </g>
    </g>
</svg>
