<?xml version="1.0" encoding="UTF-8" standalone="no"?><!DOCTYPE svg PUBLIC "-//W3C//DTD SVG 1.1//EN" "http://www.w3.org/Graphics/SVG/1.1/DTD/svg11.dtd"><svg width="100%" height="100%" viewBox="0 0 1800 700" version="1.1" xmlns="http://www.w3.org/2000/svg" xmlns:xlink="http://www.w3.org/1999/xlink" xml:space="preserve" xmlns:serif="http://www.serif.com/" style="fill-rule:evenodd;clip-rule:evenodd;stroke-miterlimit:2;"><g><g><g><path d="M194.19,191.105l1411.62,0" style="fill:none;stroke:#000;stroke-width:2.06px;"/><path d="M194.19,256.895l1411.62,0" style="fill:none;stroke:#000;stroke-width:2.06px;"/><path d="M194.19,224l1411.62,0" style="fill:none;stroke:#000;stroke-width:2.06px;"/><path d="M194.19,207.552l1411.62,0" style="fill:none;stroke:#000;stroke-width:2.06px;"/><path d="M194.19,240.448l1411.62,0" style="fill:none;stroke:#000;stroke-width:2.06px;"/></g><g><path d="M395.498,190.077l0,67.846" style="fill:none;stroke:#000;stroke-width:3.29px;"/><path d="M635.281,190.077l0,67.846" style="fill:none;stroke:#000;stroke-width:3.29px;"/><path d="M927.961,190.077l0,67.846" style="fill:none;stroke:#000;stroke-width:3.29px;"/><path d="M1266.08,190.077l0,67.846" style="fill:none;stroke:#000;stroke-width:3.29px;"/><path d="M1604.16,190.077l0,67.846" style="fill:none;stroke:#000;stroke-width:3.29px;"/></g><g><path d="M337.05,207.552l0,54.474" style="fill:none;stroke:#000;stroke-width:1.97px;"/><path d="M422.812,210.774l0,52.06" style="fill:none;stroke:#000;stroke-width:1.97px;"/><path d="M557.096,218.801l0,49.972" style="fill:none;stroke:#000;stroke-width:1.97px;"/><path d="M662.625,227.222l0,47.49" style="fill:none;stroke:#000;stroke-width:1.97px;"/><path d="M772.266,210.577l0,52.257" style="fill:none;stroke:#000;stroke-width:1.97px;"/><path d="M849.776,202.354l0,54.541" style="fill:none;stroke:#000;stroke-width:1.97px;"/><path d="M955.305,202.354l0,54.541" style="fill:none;stroke:#000;stroke-width:1.97px;"/><path d="M1032.84,210.577l0,52.257" style="fill:none;stroke:#000;stroke-width:1.97px;"/><path d="M1110.35,202.354l0,54.541" style="fill:none;stroke:#000;stroke-width:1.97px;"/><path d="M1187.89,194.13l0,54.541" style="fill:none;stroke:#000;stroke-width:1.97px;"/><path d="M1293.39,194.13l0,54.541" style="fill:none;stroke:#000;stroke-width:1.97px;"/><path d="M1370.93,202.354l0,54.541" style="fill:none;stroke:#000;stroke-width:1.97px;"/><path d="M1448.44,177.682l0,54.542" style="fill:none;stroke:#000;stroke-width:1.97px;"/></g><path d="M1440.89,174.657l34.863,0" style="fill:none;stroke:#000;stroke-width:2.74px;"/><path d="M1525.98,210.577l0,52.257" style="fill:none;stroke:#000;stroke-width:1.97px;"/><path d="M432.59,168.068c14.076,0 16.918,10.441 17.578,12.952c0.066,0.198 0.066,0.397 0.133,0.463c0.462,0.925 0.726,1.388 1.387,1.388c0.595,0 0.926,-0.265 0.926,-0.926c0,-0.198 0,-0.396 -0.067,-0.66c-4.097,-20.222 -17.908,-20.354 -19.825,-20.354c-2.115,0 -15.794,0.132 -19.825,20.354c-0.066,0.264 -0.066,0.528 -0.066,0.726c0,0.661 0.33,0.86 0.859,0.86c0.595,0 0.925,-0.463 1.322,-1.388c0.066,-0.066 0.132,-0.331 0.198,-0.595c0.793,-2.709 3.767,-12.82 17.38,-12.82m3.701,11.168c0,-1.917 -1.652,-3.569 -3.635,-3.569c-1.916,0 -3.569,1.652 -3.569,3.569c0,1.982 1.653,3.635 3.569,3.635c1.983,0 3.635,-1.653 3.635,-3.635" style="fill-rule:nonzero;"/><path d="M672.394,168.068c14.076,0 16.917,10.441 17.578,12.952c0.066,0.198 0.066,0.397 0.132,0.463c0.463,0.925 0.727,1.388 1.388,1.388c0.595,0 0.925,-0.265 0.925,-0.926c0,-0.198 0,-0.396 -0.066,-0.66c-4.097,-20.222 -17.909,-20.354 -19.825,-20.354c-2.115,0 -15.794,0.132 -19.825,20.354c-0.066,0.264 -0.066,0.528 -0.066,0.726c0,0.661 0.33,0.86 0.859,0.86c0.594,0 0.925,-0.463 1.321,-1.388c0.066,-0.066 0.133,-0.331 0.199,-0.595c0.793,-2.709 3.766,-12.82 17.38,-12.82m3.701,11.168c0,-1.917 -1.653,-3.569 -3.635,-3.569c-1.917,0 -3.569,1.652 -3.569,3.569c0,1.982 1.652,3.635 3.569,3.635c1.982,0 3.635,-1.653 3.635,-3.635" style="fill-rule:nonzero;"/><path d="M1380.69,153.185c14.075,0 16.917,10.442 17.578,12.953c0.066,0.198 0.066,0.396 0.132,0.463c0.463,0.925 0.727,1.387 1.388,1.387c0.595,0 0.925,-0.264 0.925,-0.925c0,-0.198 0,-0.396 -0.066,-0.661c-4.097,-20.221 -17.909,-20.354 -19.825,-20.354c-2.115,0 -15.794,0.133 -19.826,20.354c-0.066,0.265 -0.066,0.529 -0.066,0.727c0,0.661 0.331,0.859 0.859,0.859c0.595,0 0.926,-0.462 1.322,-1.387c0.066,-0.067 0.132,-0.331 0.198,-0.595c0.793,-2.71 3.767,-12.821 17.381,-12.821m3.7,11.169c0,-1.917 -1.652,-3.569 -3.634,-3.569c-1.917,0 -3.569,1.652 -3.569,3.569c0,1.982 1.652,3.634 3.569,3.634c1.982,0 3.634,-1.652 3.634,-3.634" style="fill-rule:nonzero;"/><path d="M323.454,274.371c6.542,0 14.605,-6.08 14.605,-12.358c0,-3.701 -2.974,-6.146 -7.204,-6.146c-8.062,0 -14.538,6.014 -14.538,12.358c0,3.833 3.172,6.146 7.137,6.146" style="fill-rule:nonzero;"/><path d="M458.395,199.328c0,-1.85 -1.454,-3.304 -3.304,-3.304c-1.85,0 -3.304,1.454 -3.304,3.304c0,1.851 1.454,3.305 3.304,3.305c1.85,0 3.304,-1.454 3.304,-3.305" style="fill-rule:nonzero;"/><path d="M428.969,216.804c12.159,0 14.604,-9.913 14.604,-12.292c0,-3.766 -2.974,-6.212 -7.269,-6.212c-11.036,0 -14.473,8.525 -14.473,12.358c0,3.899 3.106,6.146 7.138,6.146m5.617,-5.881c-3.305,2.246 -5.617,3.039 -7.203,3.039c-1.52,0 -2.446,-0.793 -2.908,-1.718c-0.265,-0.396 -0.463,-0.925 -0.463,-1.454c0,-1.586 1.586,-3.634 6.675,-6.542c3.634,-2.115 5.947,-2.908 7.467,-2.908c1.388,0 2.181,0.661 2.71,1.586c0.198,0.397 0.396,0.859 0.396,1.388c0,1.454 -1.52,3.238 -6.674,6.609" style="fill-rule:nonzero;"/><path d="M540.203,221.129c0,0 -0.198,-3.965 -0.198,-6.608c0,-1.058 0.066,-1.851 0.132,-2.115c0.264,-0.793 1.983,-2.247 2.908,-2.776c0.595,-0.33 1.189,-0.462 1.718,-0.462c0.661,0 1.256,0.264 1.652,0.727c0.661,0.727 1.057,1.85 1.057,3.106c0,1.189 -0.33,2.577 -1.123,3.965c-0.859,1.586 -2.776,3.7 -4.758,4.956c-0.264,0.132 -0.463,0.198 -0.661,0.198c-0.595,0 -0.727,-0.661 -0.727,-0.991m-2.313,5.881c0.198,0.265 0.397,0.331 0.595,0.331c0.198,0 0.396,-0.132 0.396,-0.132c1.983,-1.124 3.569,-2.908 5.221,-4.031c5.882,-4.098 7.93,-8.129 7.93,-11.169c0,-3.766 -2.907,-6.146 -5.947,-6.344c-0.463,0 -0.926,0.066 -1.388,0.198c-0.727,0.199 -1.52,0.463 -2.247,0.926c-0.397,0.33 -1.123,0.925 -1.454,0.925c-0.132,0 -0.198,0 -0.33,-0.066c-0.463,-0.199 -0.727,-0.661 -0.727,-1.124c0.066,-1.454 0.462,-17.314 0.462,-18.635c0,-0.727 -0.594,-1.124 -1.255,-1.124c-0.925,0 -1.983,0.661 -2.049,1.85c0,0 0.265,37.735 0.793,38.395" style="fill-rule:nonzero;"/><path d="M563.261,225.028c6.542,0 14.604,-6.08 14.604,-12.358c0,-3.701 -2.973,-6.146 -7.203,-6.146c-8.062,0 -14.538,6.014 -14.538,12.358c0,3.833 3.172,6.146 7.137,6.146" style="fill-rule:nonzero;"/><path d="M668.775,233.252c12.16,0 14.605,-9.913 14.605,-12.292c0,-3.767 -2.974,-6.212 -7.269,-6.212c-11.036,0 -14.473,8.525 -14.473,12.358c0,3.899 3.106,6.146 7.137,6.146m5.618,-5.882c-3.305,2.247 -5.618,3.04 -7.204,3.04c-1.52,0 -2.445,-0.793 -2.907,-1.718c-0.265,-0.397 -0.463,-0.925 -0.463,-1.454c0,-1.586 1.586,-3.635 6.675,-6.542c3.634,-2.115 5.947,-2.908 7.467,-2.908c1.388,0 2.181,0.661 2.71,1.586c0.198,0.397 0.396,0.859 0.396,1.388c0,1.454 -1.52,3.238 -6.674,6.608" style="fill-rule:nonzero;"/><path d="M761.816,210.526c-0.396,1.322 -3.502,2.643 -5.022,2.643c-0.397,0 -0.727,-0.132 -0.793,-0.33c-0.132,-0.264 -0.198,-1.718 -0.198,-3.304c0,-2.049 0.066,-4.362 0.198,-4.89c0.132,-1.124 3.172,-2.512 4.824,-2.512c0.463,0 0.859,0.133 0.991,0.397c0.132,0.33 0.265,1.982 0.265,3.767c0,1.784 -0.133,3.634 -0.265,4.229m4.56,-10.772c0.463,-0.198 0.793,-0.727 0.793,-1.123l0,-4.692c0,-0.331 -0.198,-0.529 -0.463,-0.529c-0.132,0 -0.198,0 -0.33,0.066c0,0 -1.322,0.529 -1.652,0.595c-0.463,0 -0.925,-0.33 -0.925,-0.859l0,-8.062c0,-0.397 -0.397,-0.727 -0.925,-0.727c-0.661,0 -1.058,0.33 -1.058,0.727l0,8.591c-0.066,0.661 -0.264,1.52 -0.859,1.916c-0.793,0.463 -3.04,1.388 -4.163,1.652c-0.595,0 -0.793,-0.793 -0.793,-1.321l0,-7.931c0,-0.396 -0.463,-0.727 -0.925,-0.727c-0.661,0 -1.058,0.331 -1.058,0.727l0,8.922c0,0.925 -0.396,1.586 -0.793,1.784c-0.396,0.198 -1.718,0.727 -1.718,0.727c-0.463,0.132 -0.793,0.661 -0.793,1.057l0,4.692c0,0.397 0.198,0.595 0.529,0.595c0.066,0 0.198,-0.066 0.264,-0.066c0,0 0.991,-0.396 1.454,-0.661c0.066,0 0.132,-0.066 0.198,-0.066c0.463,0 0.859,0.661 0.859,1.19l0,6.542c0,0.727 -0.33,1.322 -0.727,1.52c-0.396,0.132 -1.784,0.727 -1.784,0.727c-0.463,0.132 -0.793,0.661 -0.793,1.057l0,4.692c0,0.397 0.198,0.595 0.529,0.595c0.066,0 0.198,-0.066 0.264,-0.066c0,0 0.925,-0.397 1.52,-0.595c0.066,-0.066 0.132,-0.066 0.198,-0.066c0.463,0 0.793,0.727 0.793,1.057l0,8.129c0,0.396 0.397,0.727 0.859,0.727c0.661,0 1.124,-0.331 1.124,-0.727l0,-9.186c0,-0.859 0.33,-1.322 0.661,-1.454l4.031,-1.652c0.066,0 0.198,-0.066 0.264,-0.066c0.529,0 0.859,0.793 0.859,1.189l0,8.261c0,0.397 0.397,0.727 0.859,0.727c0.727,0 1.124,-0.33 1.124,-0.727l0,-9.384c0,-0.529 0.264,-1.322 0.727,-1.52c0.462,-0.198 1.85,-0.727 1.85,-0.727c0.463,-0.198 0.793,-0.727 0.793,-1.123l0,-4.692c0,-0.331 -0.198,-0.529 -0.463,-0.529c-0.132,0 -0.198,0 -0.33,0.066l-1.718,0.661c-0.397,0 -0.859,-0.397 -0.859,-1.19l0,-6.145c0,-0.463 0.33,-1.719 0.859,-1.917l1.718,-0.661" style="fill-rule:nonzero;"/><path d="M778.414,216.804c6.542,0 14.604,-6.08 14.604,-12.358c0,-3.7 -2.974,-6.146 -7.203,-6.146c-8.062,0 -14.538,6.014 -14.538,12.358c0,3.833 3.172,6.146 7.137,6.146" style="fill-rule:nonzero;"/><path d="M855.941,208.58c6.542,0 14.604,-6.079 14.604,-12.357c0,-3.701 -2.973,-6.146 -7.203,-6.146c-8.062,0 -14.538,6.013 -14.538,12.357c0,3.833 3.172,6.146 7.137,6.146" style="fill-rule:nonzero;"/><path d="M961.455,208.58c6.543,0 14.605,-6.079 14.605,-12.357c0,-3.701 -2.974,-6.146 -7.203,-6.146c-8.062,0 -14.539,6.013 -14.539,12.357c0,3.833 3.172,6.146 7.137,6.146" style="fill-rule:nonzero;"/><path d="M1022.38,210.526c-0.396,1.322 -3.502,2.643 -5.022,2.643c-0.397,0 -0.727,-0.132 -0.793,-0.33c-0.132,-0.264 -0.198,-1.718 -0.198,-3.304c0,-2.049 0.066,-4.362 0.198,-4.89c0.132,-1.124 3.172,-2.512 4.824,-2.512c0.463,0 0.859,0.133 0.991,0.397c0.132,0.33 0.265,1.982 0.265,3.767c0,1.784 -0.133,3.634 -0.265,4.229m4.56,-10.772c0.463,-0.198 0.793,-0.727 0.793,-1.123l0,-4.692c0,-0.331 -0.198,-0.529 -0.462,-0.529c-0.133,0 -0.199,0 -0.331,0.066c0,0 -1.322,0.529 -1.652,0.595c-0.463,0 -0.925,-0.33 -0.925,-0.859l0,-8.062c0,-0.397 -0.397,-0.727 -0.925,-0.727c-0.661,0 -1.058,0.33 -1.058,0.727l0,8.591c-0.066,0.661 -0.264,1.52 -0.859,1.916c-0.793,0.463 -3.04,1.388 -4.163,1.652c-0.595,0 -0.793,-0.793 -0.793,-1.321l0,-7.931c0,-0.396 -0.463,-0.727 -0.925,-0.727c-0.661,0 -1.058,0.331 -1.058,0.727l0,8.922c0,0.925 -0.396,1.586 -0.793,1.784c-0.396,0.198 -1.718,0.727 -1.718,0.727c-0.462,0.132 -0.793,0.661 -0.793,1.057l0,4.692c0,0.397 0.198,0.595 0.529,0.595c0.066,0 0.198,-0.066 0.264,-0.066c0,0 0.991,-0.396 1.454,-0.661c0.066,0 0.132,-0.066 0.198,-0.066c0.463,0 0.859,0.661 0.859,1.19l0,6.542c0,0.727 -0.33,1.322 -0.727,1.52c-0.396,0.132 -1.784,0.727 -1.784,0.727c-0.462,0.132 -0.793,0.661 -0.793,1.057l0,4.692c0,0.397 0.198,0.595 0.529,0.595c0.066,0 0.198,-0.066 0.264,-0.066c0,0 0.925,-0.397 1.52,-0.595c0.066,-0.066 0.132,-0.066 0.198,-0.066c0.463,0 0.793,0.727 0.793,1.057l0,8.129c0,0.396 0.397,0.727 0.859,0.727c0.661,0 1.124,-0.331 1.124,-0.727l0,-9.186c0,-0.859 0.33,-1.322 0.661,-1.454l4.031,-1.652c0.066,0 0.198,-0.066 0.264,-0.066c0.529,0 0.859,0.793 0.859,1.189l0,8.261c0,0.397 0.397,0.727 0.859,0.727c0.727,0 1.124,-0.33 1.124,-0.727l0,-9.384c0,-0.529 0.264,-1.322 0.727,-1.52c0.462,-0.198 1.85,-0.727 1.85,-0.727c0.463,-0.198 0.793,-0.727 0.793,-1.123l0,-4.692c0,-0.331 -0.198,-0.529 -0.462,-0.529c-0.133,0 -0.199,0 -0.331,0.066l-1.718,0.661c-0.397,0 -0.859,-0.397 -0.859,-1.19l0,-6.145c0,-0.463 0.33,-1.719 0.859,-1.917l1.718,-0.661" style="fill-rule:nonzero;"/><path d="M1038.98,216.804c6.542,0 14.604,-6.08 14.604,-12.358c0,-3.7 -2.973,-6.146 -7.203,-6.146c-8.062,0 -14.538,6.014 -14.538,12.358c0,3.833 3.172,6.146 7.137,6.146" style="fill-rule:nonzero;"/><path d="M1099.91,202.302c-0.397,1.322 -3.503,2.644 -5.023,2.644c-0.396,0 -0.727,-0.133 -0.793,-0.331c-0.132,-0.264 -0.198,-1.718 -0.198,-3.304c0,-2.049 0.066,-4.362 0.198,-4.89c0.132,-1.124 3.172,-2.511 4.824,-2.511c0.463,0 0.859,0.132 0.992,0.396c0.132,0.33 0.264,1.983 0.264,3.767c0,1.784 -0.132,3.635 -0.264,4.229m4.559,-10.771c0.463,-0.199 0.793,-0.727 0.793,-1.124l0,-4.692c0,-0.33 -0.198,-0.529 -0.462,-0.529c-0.132,0 -0.198,0 -0.331,0.067c0,0 -1.321,0.528 -1.652,0.594c-0.462,0 -0.925,-0.33 -0.925,-0.859l0,-8.062c0,-0.397 -0.396,-0.727 -0.925,-0.727c-0.661,0 -1.057,0.33 -1.057,0.727l0,8.591c-0.067,0.661 -0.265,1.52 -0.86,1.916c-0.793,0.463 -3.039,1.388 -4.163,1.652c-0.595,0 -0.793,-0.793 -0.793,-1.321l0,-7.93c0,-0.397 -0.462,-0.727 -0.925,-0.727c-0.661,0 -1.057,0.33 -1.057,0.727l0,8.921c0,0.925 -0.397,1.586 -0.793,1.784c-0.397,0.199 -1.719,0.727 -1.719,0.727c-0.462,0.132 -0.793,0.661 -0.793,1.058l0,4.692c0,0.396 0.199,0.594 0.529,0.594c0.066,0 0.198,-0.066 0.264,-0.066c0,0 0.992,-0.396 1.454,-0.661c0.066,0 0.132,-0.066 0.199,-0.066c0.462,0 0.859,0.661 0.859,1.19l0,6.542c0,0.727 -0.331,1.322 -0.727,1.52c-0.397,0.132 -1.785,0.727 -1.785,0.727c-0.462,0.132 -0.793,0.661 -0.793,1.057l0,4.692c0,0.397 0.199,0.595 0.529,0.595c0.066,0 0.198,-0.066 0.264,-0.066c0,0 0.926,-0.397 1.52,-0.595c0.066,-0.066 0.133,-0.066 0.199,-0.066c0.462,0 0.793,0.727 0.793,1.058l0,8.128c0,0.396 0.396,0.727 0.859,0.727c0.661,0 1.123,-0.331 1.123,-0.727l0,-9.186c0,-0.859 0.331,-1.322 0.661,-1.454l4.031,-1.652c0.066,0 0.198,-0.066 0.264,-0.066c0.529,0 0.86,0.793 0.86,1.19l0,8.26c0,0.397 0.396,0.727 0.859,0.727c0.727,0 1.123,-0.33 1.123,-0.727l0,-9.384c0,-0.528 0.264,-1.321 0.727,-1.52c0.463,-0.198 1.85,-0.727 1.85,-0.727c0.463,-0.198 0.793,-0.727 0.793,-1.123l0,-4.692c0,-0.331 -0.198,-0.529 -0.462,-0.529c-0.132,0 -0.198,0 -0.331,0.066l-1.718,0.661c-0.396,0 -0.859,-0.396 -0.859,-1.189l0,-6.146c0,-0.463 0.331,-1.718 0.859,-1.917l1.718,-0.66" style="fill-rule:nonzero;"/><path d="M1116.51,208.58c6.542,0 14.605,-6.079 14.605,-12.357c0,-3.701 -2.974,-6.146 -7.204,-6.146c-8.062,0 -14.538,6.013 -14.538,12.357c0,3.833 3.172,6.146 7.137,6.146" style="fill-rule:nonzero;"/><path d="M1194.03,200.356c6.543,0 14.605,-6.079 14.605,-12.357c0,-3.701 -2.974,-6.146 -7.203,-6.146c-8.063,0 -14.539,6.014 -14.539,12.358c0,3.832 3.172,6.145 7.137,6.145" style="fill-rule:nonzero;"/><path d="M1299.55,200.356c6.542,0 14.604,-6.079 14.604,-12.357c0,-3.701 -2.973,-6.146 -7.203,-6.146c-8.062,0 -14.538,6.014 -14.538,12.358c0,3.832 3.172,6.145 7.137,6.145" style="fill-rule:nonzero;"/><path d="M1360.47,202.302c-0.397,1.322 -3.503,2.644 -5.023,2.644c-0.396,0 -0.727,-0.133 -0.793,-0.331c-0.132,-0.264 -0.198,-1.718 -0.198,-3.304c0,-2.049 0.066,-4.362 0.198,-4.89c0.132,-1.124 3.172,-2.511 4.824,-2.511c0.463,0 0.859,0.132 0.992,0.396c0.132,0.33 0.264,1.983 0.264,3.767c0,1.784 -0.132,3.635 -0.264,4.229m4.559,-10.771c0.463,-0.199 0.793,-0.727 0.793,-1.124l0,-4.692c0,-0.33 -0.198,-0.529 -0.462,-0.529c-0.132,0 -0.198,0 -0.331,0.067c0,0 -1.321,0.528 -1.652,0.594c-0.462,0 -0.925,-0.33 -0.925,-0.859l0,-8.062c0,-0.397 -0.396,-0.727 -0.925,-0.727c-0.661,0 -1.057,0.33 -1.057,0.727l0,8.591c-0.066,0.661 -0.265,1.52 -0.859,1.916c-0.793,0.463 -3.04,1.388 -4.164,1.652c-0.595,0 -0.793,-0.793 -0.793,-1.321l0,-7.93c0,-0.397 -0.462,-0.727 -0.925,-0.727c-0.661,0 -1.057,0.33 -1.057,0.727l0,8.921c0,0.925 -0.397,1.586 -0.793,1.784c-0.397,0.199 -1.718,0.727 -1.718,0.727c-0.463,0.132 -0.794,0.661 -0.794,1.058l0,4.692c0,0.396 0.199,0.594 0.529,0.594c0.066,0 0.198,-0.066 0.265,-0.066c0,0 0.991,-0.396 1.453,-0.661c0.066,0 0.133,-0.066 0.199,-0.066c0.462,0 0.859,0.661 0.859,1.19l0,6.542c0,0.727 -0.331,1.322 -0.727,1.52c-0.397,0.132 -1.784,0.727 -1.784,0.727c-0.463,0.132 -0.794,0.661 -0.794,1.057l0,4.692c0,0.397 0.199,0.595 0.529,0.595c0.066,0 0.198,-0.066 0.265,-0.066c0,0 0.925,-0.397 1.519,-0.595c0.067,-0.066 0.133,-0.066 0.199,-0.066c0.462,0 0.793,0.727 0.793,1.058l0,8.128c0,0.396 0.396,0.727 0.859,0.727c0.661,0 1.123,-0.331 1.123,-0.727l0,-9.186c0,-0.859 0.331,-1.322 0.661,-1.454l4.031,-1.652c0.066,0 0.198,-0.066 0.265,-0.066c0.528,0 0.859,0.793 0.859,1.19l0,8.26c0,0.397 0.396,0.727 0.859,0.727c0.727,0 1.123,-0.33 1.123,-0.727l0,-9.384c0,-0.528 0.265,-1.321 0.727,-1.52c0.463,-0.198 1.85,-0.727 1.85,-0.727c0.463,-0.198 0.793,-0.727 0.793,-1.123l0,-4.692c0,-0.331 -0.198,-0.529 -0.462,-0.529c-0.132,0 -0.198,0 -0.331,0.066l-1.718,0.661c-0.396,0 -0.859,-0.396 -0.859,-1.189l0,-6.146c0,-0.463 0.331,-1.718 0.859,-1.917l1.718,-0.66" style="fill-rule:nonzero;"/><path d="M1377.07,208.58c6.542,0 14.605,-6.079 14.605,-12.357c0,-3.701 -2.974,-6.146 -7.204,-6.146c-8.062,0 -14.538,6.013 -14.538,12.357c0,3.833 3.172,6.146 7.137,6.146" style="fill-rule:nonzero;"/><path d="M1454.6,183.909c6.543,0 14.605,-6.08 14.605,-12.358c0,-3.701 -2.974,-6.146 -7.203,-6.146c-8.063,0 -14.539,6.014 -14.539,12.358c0,3.833 3.172,6.146 7.137,6.146" style="fill-rule:nonzero;"/><path d="M1512.24,204.975c0,-0.925 4.031,-2.643 5.617,-2.643c0.397,0 0.595,0.066 0.595,0.33l0,6.807c0,1.189 -3.767,2.709 -5.419,2.709c-0.463,0 -0.793,-0.132 -0.793,-0.396l0,-6.807m6.873,-9.384c-0.132,0 -0.198,0.066 -0.265,0.066c0,0 -4.229,1.52 -5.947,1.52c-0.397,0 -0.661,-0.066 -0.661,-0.33l0,-11.036c0,-0.463 -0.396,-0.793 -0.793,-0.793l-0.859,0c-0.463,0 -0.793,0.33 -0.793,0.793l0,34.033c0,0.396 0.198,0.595 0.529,0.595c0.066,0 0.198,-0.066 0.264,-0.066c0,0 0.132,0 0.198,-0.066c0.925,-0.397 4.626,-1.983 6.543,-1.983c0.66,0 1.123,0.198 1.123,0.727l0,9.847c0,0.462 0.33,0.793 0.793,0.793l0.859,0c0.397,0 0.793,-0.331 0.793,-0.793l0,-33.175c0,-0.33 -0.264,-0.528 -0.529,-0.528c-0.066,0 -0.198,0 -0.264,0.066l-0.991,0.33" style="fill-rule:nonzero;"/><path d="M1532.13,216.804c6.542,0 14.604,-6.08 14.604,-12.358c0,-3.7 -2.974,-6.146 -7.203,-6.146c-8.062,0 -14.539,6.014 -14.539,12.358c0,3.833 3.172,6.146 7.138,6.146" style="fill-rule:nonzero;"/><path d="M219.397,190.238c-11.499,0 -16.653,8.393 -16.653,14.737c0,5.287 2.775,9.847 8.128,9.847c4.163,0 7.005,-2.908 7.005,-7.005c0,-4.23 -3.106,-6.873 -6.344,-6.873c-1.784,0 -2.445,0.462 -3.304,0.462c-0.859,0 -1.058,-0.528 -1.058,-1.189c0,-2.643 3.965,-7.468 10.706,-7.468c7.005,0 10.045,6.873 10.045,17.248c0,6.807 -1.454,14.737 -5.551,21.081c-3.965,6.146 -10.772,11.763 -18.966,16.455c-0.595,0.331 -0.992,0.661 -0.992,1.19c0,0.396 0.265,0.793 0.859,0.793c0.331,0 0.727,-0.132 1.124,-0.331c8.789,-4.295 17.248,-9.317 24.253,-16.851c5.749,-6.212 9.185,-14.274 9.185,-22.931c0,-11.499 -7.004,-19.165 -18.437,-19.165m24.98,22.006c-2.049,0 -3.569,1.52 -3.569,3.569c0,2.048 1.52,3.568 3.569,3.568c2.048,0 3.568,-1.52 3.568,-3.568c0,-2.049 -1.52,-3.569 -3.568,-3.569m-0.066,-16.587c-2.049,0 -3.635,1.586 -3.635,3.635c0,2.048 1.586,3.634 3.635,3.634c2.048,0 3.634,-1.586 3.634,-3.634c0,-2.049 -1.586,-3.635 -3.634,-3.635" style="fill-rule:nonzero;"/><path d="M267.501,245.8c0,0 -0.199,-3.965 -0.199,-6.608c0,-1.057 0.067,-1.85 0.133,-2.115c0.264,-0.793 1.982,-2.247 2.907,-2.775c0.595,-0.331 1.19,-0.463 1.719,-0.463c0.66,0 1.255,0.265 1.652,0.727c0.66,0.727 1.057,1.85 1.057,3.106c0,1.19 -0.33,2.577 -1.123,3.965c-0.86,1.586 -2.776,3.701 -4.759,4.956c-0.264,0.133 -0.462,0.199 -0.66,0.199c-0.595,0 -0.727,-0.661 -0.727,-0.992m-2.313,5.882c0.198,0.264 0.396,0.33 0.595,0.33c0.198,0 0.396,-0.132 0.396,-0.132c1.983,-1.123 3.569,-2.908 5.221,-4.031c5.881,-4.097 7.93,-8.128 7.93,-11.168c0,-3.767 -2.908,-6.146 -5.948,-6.344c-0.462,0 -0.925,0.066 -1.388,0.198c-0.726,0.198 -1.519,0.463 -2.246,0.925c-0.397,0.331 -1.124,0.925 -1.454,0.925c-0.132,0 -0.199,0 -0.331,-0.066c-0.462,-0.198 -0.727,-0.661 -0.727,-1.123c0.066,-1.454 0.463,-17.314 0.463,-18.636c0,-0.727 -0.595,-1.123 -1.256,-1.123c-0.925,0 -1.982,0.66 -2.048,1.85c0,0 0.264,37.734 0.793,38.395" style="fill-rule:nonzero;"/><path d="M433.057,292.484c1.141,0 1.758,-0.864 1.758,-1.943c0,-1.604 -1.727,-3.361 -4.749,-3.361c-3.393,0 -6.785,3.207 -6.785,9.066c0,4.441 1.912,8.759 6.538,8.759c3.392,0 5.983,-2.344 5.983,-5.551c0,-2.714 -2.221,-5.058 -5.613,-5.058c-1.727,0 -3.084,0.802 -3.948,1.85c0,-3.7 0.494,-7.771 3.886,-7.771c0.833,0 1.357,0.401 1.357,0.894c0,0.463 -0.185,0.894 -0.185,1.357c0,1.018 0.679,1.758 1.758,1.758Zm-3.238,3.331c1.912,0 2.837,1.48 2.837,3.7c0,2.344 -1.11,4.133 -3.207,4.133c-1.851,0 -2.899,-1.419 -2.899,-3.824c0,-2.344 1.295,-4.009 3.269,-4.009Z" style="fill-rule:nonzero;"/><path d="M433.489,322.151l2.837,0l0,-1.418l-2.837,0l0,-6.477l-2.838,3.023l0,3.454l-6.229,0c3.146,-4.688 4.749,-6.785 6.723,-10.794l-4.102,0c-1.048,4.071 -2.313,7.401 -4.471,10.979l0,1.233l8.079,0l0,2.159c0,1.295 -1.141,1.727 -2.004,1.727l-0.617,0l0,1.234l7.772,0l0,-1.234c-1.203,0 -2.313,-0.37 -2.313,-1.727l0,-2.159Z" style="fill-rule:nonzero;"/><path d="M441.353,304.85l0,22.266l5.921,-1.295l-0.123,8.203l1.356,0l0,-22.204l-5.921,1.419l0,-8.389l-1.233,0Zm1.233,12.336l4.688,-1.048l0,5.551l-4.688,1.11l0,-5.613Z" style="fill-rule:nonzero;"/><path d="M436.233,344.911l-1.11,-0.185c-0.432,1.542 -1.172,2.282 -2.714,2.282c-2.282,0 -2.837,-0.617 -5.612,-0.617c1.418,-2.159 4.009,-3.454 4.625,-3.855c2.283,-1.388 4.657,-2.56 4.657,-5.52c0,-2.837 -2.714,-4.811 -6.044,-4.811c-3.824,0 -5.983,2.868 -5.983,4.842c0,1.326 0.771,2.128 1.974,2.128c1.079,0 1.727,-0.71 1.727,-1.604c0,-1.326 -0.895,-1.573 -0.895,-2.282c0,-0.833 1.08,-1.727 2.807,-1.727c1.727,0 2.899,1.048 2.899,3.331c0,1.85 -0.864,3.454 -3.979,5.797c-2.159,1.481 -4.811,4.503 -5.057,7.093l1.233,0c0.432,-1.11 0.925,-1.727 2.097,-1.727c1.851,0 3.578,1.974 5.798,1.974c2.467,0 3.577,-2.467 3.577,-5.119Z" style="fill-rule:nonzero;"/><path d="M567.349,292.484c1.141,0 1.758,-0.864 1.758,-1.943c0,-1.604 -1.727,-3.361 -4.749,-3.361c-3.393,0 -6.785,3.207 -6.785,9.066c0,4.441 1.912,8.759 6.538,8.759c3.392,0 5.983,-2.344 5.983,-5.551c0,-2.714 -2.221,-5.058 -5.613,-5.058c-1.727,0 -3.084,0.802 -3.947,1.85c0,-3.7 0.493,-7.771 3.885,-7.771c0.833,0 1.357,0.401 1.357,0.894c0,0.463 -0.185,0.894 -0.185,1.357c0,1.018 0.679,1.758 1.758,1.758Zm-3.238,3.331c1.912,0 2.837,1.48 2.837,3.7c0,2.344 -1.11,4.133 -3.207,4.133c-1.85,0 -2.899,-1.419 -2.899,-3.824c0,-2.344 1.295,-4.009 3.269,-4.009Z" style="fill-rule:nonzero;"/><path d="M666.202,284.219l0,6.846l-1.912,0.555l0,3.701l1.912,-0.617l0,5.736l-1.912,0.679l0,3.577l1.912,-0.617l0,5.922l1.234,0l0,-6.353l3.824,-1.172l0,6.106l1.234,0l0,-6.6l1.912,-0.678l0,-3.639l-1.912,0.617l0,-5.736l1.912,-0.679l0,-3.639l-1.912,0.617l0,-5.921l-1.234,0l0,6.476l-3.824,1.11l0,-6.291l-1.234,0Zm5.058,8.758l0,5.86l-3.824,1.172l0,-5.86l3.824,-1.172Z" style="fill-rule:nonzero;"/><path d="M774.546,287.426l-1.234,0l-0.37,6.6l1.172,0c0.432,-3.701 1.727,-3.948 2.652,-3.948c1.295,0 4.379,0.987 5.736,1.172c-2.775,4.75 -6.415,8.265 -6.415,11.658c0,1.295 0.926,2.035 1.851,2.035c0.925,0 1.85,-0.678 1.974,-2.344c0.431,-5.551 3.885,-9.437 5.119,-15.173l-1.357,0c-0.247,0.802 -0.864,1.419 -1.727,1.419c-1.48,0 -1.789,-1.665 -3.947,-1.665c-1.789,0 -2.468,1.356 -3.023,1.356c-0.431,0 -0.431,-0.37 -0.431,-1.11Z" style="fill-rule:nonzero;"/><path d="M779.079,316.23c-1.357,0 -2.344,0.37 -3.177,0.771l-0.185,-0.092l0.062,-3.886c1.11,0.123 1.974,0.247 2.961,0.247c2.837,0 4.255,-1.172 5.304,-2.899l-0.308,-0.432c-1.727,0.247 -3.146,0.308 -4.565,0.308c-1.48,0 -2.898,-0.123 -4.687,-0.308l-0.124,8.512l0.802,0.431c0.864,-0.801 1.943,-1.233 3.208,-1.233c1.819,0 3.577,1.11 3.577,3.886c0,2.837 -1.449,4.687 -3.67,4.687c-1.511,0 -2.344,-0.648 -2.344,-1.48c0,-0.802 0.648,-1.11 0.648,-2.066c0,-1.049 -0.771,-1.697 -1.665,-1.697c-1.203,0 -2.067,0.956 -2.067,2.252c0,1.973 2.252,4.286 5.891,4.286c3.639,0 6.476,-2.436 6.476,-5.921c0,-3.33 -2.991,-5.366 -6.137,-5.366Z" style="fill-rule:nonzero;"/><path d="M819.21,292.484c1.141,0 1.758,-0.864 1.758,-1.943c0,-1.604 -1.727,-3.361 -4.75,-3.361c-3.392,0 -6.784,3.207 -6.784,9.066c0,4.441 1.912,8.759 6.538,8.759c3.392,0 5.982,-2.344 5.982,-5.551c0,-2.714 -2.22,-5.058 -5.612,-5.058c-1.727,0 -3.084,0.802 -3.948,1.85c0,-3.7 0.494,-7.771 3.886,-7.771c0.833,0 1.357,0.401 1.357,0.894c0,0.463 -0.185,0.894 -0.185,1.357c0,1.018 0.678,1.758 1.758,1.758Zm-3.238,3.331c1.912,0 2.837,1.48 2.837,3.7c0,2.344 -1.11,4.133 -3.207,4.133c-1.851,0 -2.899,-1.419 -2.899,-3.824c0,-2.344 1.295,-4.009 3.269,-4.009Z" style="fill-rule:nonzero;"/><rect x="807.984" y="317.957" width="15.42" height="1.727" style="fill-rule:nonzero;"/><path d="M972.267,292.145l0,6.075l-3.454,0l-2.621,0l-0.216,0l0,-6.476l-2.838,3.022l0,3.454l-6.229,0c3.146,-4.688 4.749,-6.785 6.723,-10.794l-4.102,0c-1.048,4.071 -2.313,7.402 -4.471,10.979l0,1.234l8.079,0l0,2.158c0,1.296 -1.141,1.727 -2.004,1.727l-0.617,0l0,1.234l7.772,0l0,-1.234c-1.203,0 -2.313,-0.37 -2.313,-1.727l0,-2.158l6.291,0l0,6.075l1.418,0l0,-6.075l6.076,0l0,-1.419l-6.076,0l0,-6.075l-1.418,0Z" style="fill-rule:nonzero;"/><path d="M968.72,322.398l-1.11,-0.185c-0.432,1.542 -1.172,2.282 -2.714,2.282c-2.282,0 -2.837,-0.617 -5.612,-0.617c1.418,-2.158 4.009,-3.454 4.625,-3.855c2.283,-1.387 4.657,-2.559 4.657,-5.52c0,-2.837 -2.714,-4.811 -6.044,-4.811c-3.824,0 -5.983,2.868 -5.983,4.842c0,1.326 0.771,2.128 1.974,2.128c1.079,0 1.727,-0.709 1.727,-1.604c0,-1.326 -0.895,-1.573 -0.895,-2.282c0,-0.832 1.08,-1.727 2.807,-1.727c1.727,0 2.898,1.049 2.898,3.331c0,1.85 -0.863,3.454 -3.978,5.798c-2.159,1.48 -4.811,4.502 -5.057,7.093l1.233,0c0.432,-1.111 0.925,-1.727 2.097,-1.727c1.851,0 3.578,1.973 5.798,1.973c2.467,0 3.577,-2.467 3.577,-5.119Z" style="fill-rule:nonzero;"/><path d="M1043.07,292.484c1.141,0 1.758,-0.864 1.758,-1.943c0,-1.604 -1.727,-3.361 -4.749,-3.361c-3.393,0 -6.785,3.207 -6.785,9.066c0,4.441 1.912,8.759 6.538,8.759c3.392,0 5.983,-2.344 5.983,-5.551c0,-2.714 -2.221,-5.058 -5.613,-5.058c-1.727,0 -3.084,0.802 -3.947,1.85c0,-3.7 0.493,-7.771 3.885,-7.771c0.833,0 1.357,0.401 1.357,0.894c0,0.463 -0.185,0.894 -0.185,1.357c0,1.018 0.679,1.758 1.758,1.758Zm-3.238,3.331c1.912,0 2.837,1.48 2.837,3.7c0,2.344 -1.11,4.133 -3.207,4.133c-1.85,0 -2.899,-1.419 -2.899,-3.824c0,-2.344 1.295,-4.009 3.269,-4.009Z" style="fill-rule:nonzero;"/><path d="M1112.64,287.426l-1.234,0l-0.37,6.6l1.172,0c0.432,-3.701 1.727,-3.948 2.652,-3.948c1.295,0 4.379,0.987 5.736,1.172c-2.775,4.75 -6.414,8.265 -6.414,11.658c0,1.295 0.925,2.035 1.85,2.035c0.925,0 1.85,-0.678 1.974,-2.344c0.432,-5.551 3.886,-9.437 5.119,-15.173l-1.357,0c-0.246,0.802 -0.863,1.419 -1.727,1.419c-1.48,0 -1.788,-1.665 -3.947,-1.665c-1.789,0 -2.467,1.356 -3.022,1.356c-0.432,0 -0.432,-0.37 -0.432,-1.11Z" style="fill-rule:nonzero;"/><path d="M1117.17,316.23c-1.357,0 -2.344,0.37 -3.176,0.771l-0.185,-0.092l0.061,-3.886c1.111,0.123 1.974,0.247 2.961,0.247c2.837,0 4.256,-1.172 5.304,-2.899l-0.308,-0.432c-1.727,0.247 -3.146,0.308 -4.564,0.308c-1.481,0 -2.899,-0.123 -4.688,-0.308l-0.123,8.512l0.802,0.431c0.863,-0.801 1.942,-1.233 3.207,-1.233c1.819,0 3.577,1.11 3.577,3.886c0,2.837 -1.449,4.687 -3.67,4.687c-1.511,0 -2.343,-0.648 -2.343,-1.48c0,-0.802 0.647,-1.11 0.647,-2.066c0,-1.049 -0.771,-1.697 -1.665,-1.697c-1.203,0 -2.066,0.956 -2.066,2.252c0,1.973 2.251,4.286 5.89,4.286c3.639,0 6.476,-2.436 6.476,-5.921c0,-3.33 -2.991,-5.366 -6.137,-5.366Z" style="fill-rule:nonzero;"/><path d="M1157.3,292.484c1.141,0 1.758,-0.864 1.758,-1.943c0,-1.604 -1.727,-3.361 -4.749,-3.361c-3.393,0 -6.785,3.207 -6.785,9.066c0,4.441 1.912,8.759 6.538,8.759c3.392,0 5.983,-2.344 5.983,-5.551c0,-2.714 -2.221,-5.058 -5.613,-5.058c-1.727,0 -3.084,0.802 -3.947,1.85c0,-3.7 0.493,-7.771 3.885,-7.771c0.833,0 1.357,0.401 1.357,0.894c0,0.463 -0.185,0.894 -0.185,1.357c0,1.018 0.679,1.758 1.758,1.758Zm-3.238,3.331c1.912,0 2.837,1.48 2.837,3.7c0,2.344 -1.11,4.133 -3.207,4.133c-1.851,0 -2.899,-1.419 -2.899,-3.824c0,-2.344 1.295,-4.009 3.269,-4.009Z" style="fill-rule:nonzero;"/><rect x="1146.08" y="317.957" width="15.42" height="1.727" style="fill-rule:nonzero;"/><path d="M1191,282.338l0,22.266l5.921,-1.296l-0.123,8.204l1.356,0l0,-22.205l-5.921,1.419l0,-8.388l-1.233,0Zm1.233,12.335l4.688,-1.048l0,5.551l-4.688,1.11l0,-5.613Z" style="fill-rule:nonzero;"/><path d="M1310.36,292.145l0,6.075l-3.454,0l-2.621,0l-0.216,0l0,-6.476l-2.837,3.022l0,3.454l-6.23,0c3.146,-4.688 4.749,-6.785 6.723,-10.794l-4.101,0c-1.049,4.071 -2.313,7.402 -4.472,10.979l0,1.234l8.08,0l0,2.158c0,1.296 -1.141,1.727 -2.005,1.727l-0.617,0l0,1.234l7.772,0l0,-1.234c-1.203,0 -2.313,-0.37 -2.313,-1.727l0,-2.158l6.291,0l0,6.075l1.419,0l0,-6.075l6.075,0l0,-1.419l-6.075,0l0,-6.075l-1.419,0Z" style="fill-rule:nonzero;"/><path d="M1311.78,316.138l0,6.075l-6.076,0c-0.431,1.542 -1.171,2.282 -2.713,2.282c-2.283,0 -2.838,-0.617 -5.613,-0.617c1.418,-2.158 4.009,-3.454 4.626,-3.855c2.282,-1.387 4.656,-2.559 4.656,-5.52c0,-2.837 -2.713,-4.811 -6.044,-4.811c-3.824,0 -5.983,2.868 -5.983,4.842c0,1.326 0.771,2.128 1.974,2.128c1.079,0 1.727,-0.709 1.727,-1.604c0,-1.326 -0.895,-1.573 -0.895,-2.282c0,-0.832 1.08,-1.727 2.807,-1.727c1.727,0 2.899,1.049 2.899,3.331c0,1.85 -0.864,3.454 -3.979,5.798c-2.158,1.48 -4.81,4.502 -5.057,7.093l1.233,0c0.432,-1.111 0.926,-1.727 2.097,-1.727c1.851,0 3.578,1.973 5.798,1.973c2.067,0 3.208,-1.757 3.485,-3.885l5.058,0l0,6.075l1.418,0l0,-6.075l6.076,0l0,-1.419l-6.076,0l0,-6.075l-1.418,0Z" style="fill-rule:nonzero;"/><path d="M1381.16,292.484c1.142,0 1.758,-0.864 1.758,-1.943c0,-1.604 -1.727,-3.361 -4.749,-3.361c-3.392,0 -6.785,3.207 -6.785,9.066c0,4.441 1.912,8.759 6.538,8.759c3.393,0 5.983,-2.344 5.983,-5.551c0,-2.714 -2.22,-5.058 -5.613,-5.058c-1.727,0 -3.084,0.802 -3.947,1.85c0,-3.7 0.493,-7.771 3.886,-7.771c0.832,0 1.357,0.401 1.357,0.894c0,0.463 -0.185,0.894 -0.185,1.357c0,1.018 0.678,1.758 1.757,1.758Zm-3.238,3.331c1.912,0 2.838,1.48 2.838,3.7c0,2.344 -1.111,4.133 -3.208,4.133c-1.85,0 -2.899,-1.419 -2.899,-3.824c0,-2.344 1.296,-4.009 3.269,-4.009Z" style="fill-rule:nonzero;"/><path d="M1458.69,292.484c1.141,0 1.758,-0.864 1.758,-1.943c0,-1.604 -1.727,-3.361 -4.75,-3.361c-3.392,0 -6.784,3.207 -6.784,9.066c0,4.441 1.912,8.759 6.538,8.759c3.392,0 5.982,-2.344 5.982,-5.551c0,-2.714 -2.22,-5.058 -5.612,-5.058c-1.727,0 -3.084,0.802 -3.948,1.85c0,-3.7 0.494,-7.771 3.886,-7.771c0.833,0 1.357,0.401 1.357,0.894c0,0.463 -0.185,0.894 -0.185,1.357c0,1.018 0.678,1.758 1.758,1.758Zm-3.238,3.331c1.912,0 2.837,1.48 2.837,3.7c0,2.344 -1.11,4.133 -3.207,4.133c-1.851,0 -2.899,-1.419 -2.899,-3.824c0,-2.344 1.295,-4.009 3.269,-4.009Z" style="fill-rule:nonzero;"/><path d="M1536.21,292.484c1.141,0 1.758,-0.864 1.758,-1.943c0,-1.604 -1.727,-3.361 -4.749,-3.361c-3.393,0 -6.785,3.207 -6.785,9.066c0,4.441 1.912,8.759 6.538,8.759c3.392,0 5.983,-2.344 5.983,-5.551c0,-2.714 -2.221,-5.058 -5.613,-5.058c-1.727,0 -3.084,0.802 -3.948,1.85c0,-3.7 0.494,-7.771 3.886,-7.771c0.833,0 1.357,0.401 1.357,0.894c0,0.463 -0.185,0.894 -0.185,1.357c0,1.018 0.679,1.758 1.758,1.758Zm-3.238,3.331c1.912,0 2.837,1.48 2.837,3.7c0,2.344 -1.11,4.133 -3.207,4.133c-1.851,0 -2.899,-1.419 -2.899,-3.824c0,-2.344 1.295,-4.009 3.269,-4.009Z" style="fill-rule:nonzero;"/><path d="M864.168,183.6c28.812,-14.465 67.729,-14.465 96.512,0l0.793,-1.442c-29.576,-17.408 -68.493,-17.408 -98.098,0l0.793,1.442" style="fill-rule:nonzero;"/><path d="M1202.26,175.377c28.813,-14.466 67.729,-14.466 96.513,0l0.793,-1.443c-29.577,-17.408 -68.493,-17.408 -98.07,0l0.764,1.443" style="fill-rule:nonzero;"/><g><path d="M194.19,409.623l1411.62,0" style="fill:none;stroke:#000;stroke-width:2.06px;"/><path d="M194.19,475.414l1411.62,0" style="fill:none;stroke:#000;stroke-width:2.06px;"/><path d="M194.19,442.519l1411.62,0" style="fill:none;stroke:#000;stroke-width:2.06px;"/><path d="M194.19,426.071l1411.62,0" style="fill:none;stroke:#000;stroke-width:2.06px;"/><path d="M194.19,458.966l1411.62,0" style="fill:none;stroke:#000;stroke-width:2.06px;"/></g><g><path d="M610.844,408.596l0,67.846" style="fill:none;stroke:#000;stroke-width:3.29px;"/><path d="M1037.02,408.596l0,67.846" style="fill:none;stroke:#000;stroke-width:3.29px;"/><path d="M1411.08,408.596l0,67.846" style="fill:none;stroke:#000;stroke-width:3.29px;"/><path d="M1587.72,408.596l0,67.846" style="fill:none;stroke:#000;stroke-width:3.29px;"/></g><path d="M1601.7,408.596l0,67.846" style="fill:none;stroke:#000;stroke-width:8.22px;"/><g><path d="M317.312,445.544l0,47.686" style="fill:none;stroke:#000;stroke-width:1.97px;"/><path d="M403.105,437.32l0,49.972" style="fill:none;stroke:#000;stroke-width:1.97px;"/><path d="M508.605,409.623l0,54.475" style="fill:none;stroke:#000;stroke-width:1.97px;"/><path d="M638.189,445.544l0,42.291" style="fill:none;stroke:#000;stroke-width:1.97px;"/><path d="M694.816,437.32l0,42.291" style="fill:none;stroke:#000;stroke-width:1.97px;"/><path d="M751.472,429.096l0,52.257" style="fill:none;stroke:#000;stroke-width:1.97px;"/><path d="M837.264,437.32l0,42.227" style="fill:none;stroke:#000;stroke-width:1.97px;"/><path d="M893.92,429.096l0,46.339" style="fill:none;stroke:#000;stroke-width:1.97px;"/><path d="M950.547,420.873l0,54.541" style="fill:none;stroke:#000;stroke-width:1.97px;"/><path d="M1096.4,397.743l0,49.907" style="fill:none;stroke:#000;stroke-width:1.97px;"/><path d="M1162.46,445.544l0,47.686" style="fill:none;stroke:#000;stroke-width:1.97px;"/><path d="M1245.55,412.649l0,54.541" style="fill:none;stroke:#000;stroke-width:1.97px;"/><path d="M1344.38,409.623l0,54.475" style="fill:none;stroke:#000;stroke-width:1.97px;"/><path d="M1438.43,445.741l0,47.489" style="fill:none;stroke:#000;stroke-width:1.97px;"/></g><path d="M498.627,386.586c14.076,0 16.918,10.442 17.579,12.953c0.066,0.198 0.066,0.397 0.132,0.463c0.462,0.925 0.727,1.387 1.388,1.387c0.594,0 0.925,-0.264 0.925,-0.925c0,-0.198 0,-0.396 -0.066,-0.661c-4.097,-20.221 -17.909,-20.354 -19.826,-20.354c-2.114,0 -15.794,0.133 -19.825,20.354c-0.066,0.265 -0.066,0.529 -0.066,0.727c0,0.661 0.33,0.859 0.859,0.859c0.595,0 0.925,-0.462 1.322,-1.387c0.066,-0.066 0.132,-0.331 0.198,-0.595c0.793,-2.71 3.767,-12.821 17.38,-12.821m3.701,11.169c0,-1.917 -1.652,-3.569 -3.635,-3.569c-1.916,0 -3.568,1.652 -3.568,3.569c0,1.982 1.652,3.634 3.568,3.634c1.983,0 3.635,-1.652 3.635,-3.634" style="fill-rule:nonzero;"/><path d="M1448.19,386.586c14.076,0 16.918,10.442 17.579,12.953c0.066,0.198 0.066,0.397 0.132,0.463c0.463,0.925 0.727,1.387 1.388,1.387c0.595,0 0.925,-0.264 0.925,-0.925c0,-0.198 0,-0.396 -0.066,-0.661c-4.097,-20.221 -17.909,-20.354 -19.825,-20.354c-2.115,0 -15.795,0.133 -19.826,20.354c-0.066,0.265 -0.066,0.529 -0.066,0.727c0,0.661 0.331,0.859 0.859,0.859c0.595,0 0.926,-0.462 1.322,-1.387c0.066,-0.066 0.132,-0.331 0.198,-0.595c0.793,-2.71 3.767,-12.821 17.38,-12.821m3.701,11.169c0,-1.917 -1.652,-3.569 -3.634,-3.569c-1.917,0 -3.569,1.652 -3.569,3.569c0,1.982 1.652,3.634 3.569,3.634c1.982,0 3.634,-1.652 3.634,-3.634" style="fill-rule:nonzero;"/><path d="M323.454,451.771c6.542,0 14.605,-6.08 14.605,-12.358c0,-3.701 -2.974,-6.146 -7.204,-6.146c-8.062,0 -14.538,6.014 -14.538,12.358c0,3.833 3.172,6.146 7.137,6.146" style="fill-rule:nonzero;"/><path d="M409.255,443.547c6.542,0 14.604,-6.08 14.604,-12.358c0,-3.701 -2.973,-6.146 -7.203,-6.146c-8.062,0 -14.538,6.014 -14.538,12.358c0,3.833 3.172,6.146 7.137,6.146" style="fill-rule:nonzero;"/><path d="M495.009,476.442c12.159,0 14.604,-9.913 14.604,-12.292c0,-3.766 -2.973,-6.212 -7.269,-6.212c-11.036,0 -14.472,8.525 -14.472,12.358c0,3.899 3.106,6.146 7.137,6.146m5.617,-5.881c-3.304,2.246 -5.617,3.039 -7.203,3.039c-1.52,0 -2.445,-0.793 -2.908,-1.718c-0.264,-0.396 -0.463,-0.925 -0.463,-1.454c0,-1.586 1.586,-3.634 6.675,-6.542c3.635,-2.115 5.948,-2.908 7.468,-2.908c1.387,0 2.18,0.661 2.709,1.586c0.198,0.397 0.396,0.859 0.396,1.388c0,1.454 -1.519,3.238 -6.674,6.609" style="fill-rule:nonzero;"/><path d="M644.339,451.771c6.542,0 14.604,-6.08 14.604,-12.358c0,-3.701 -2.973,-6.146 -7.203,-6.146c-8.062,0 -14.538,6.014 -14.538,12.358c0,3.833 3.172,6.146 7.137,6.146" style="fill-rule:nonzero;"/><path d="M700.98,443.547c6.543,0 14.605,-6.08 14.605,-12.358c0,-3.701 -2.974,-6.146 -7.203,-6.146c-8.062,0 -14.539,6.014 -14.539,12.358c0,3.833 3.172,6.146 7.137,6.146" style="fill-rule:nonzero;"/><path d="M757.622,435.323c6.542,0 14.605,-6.08 14.605,-12.358c0,-3.701 -2.974,-6.146 -7.204,-6.146c-8.062,0 -14.538,6.014 -14.538,12.358c0,3.833 3.172,6.146 7.137,6.146" style="fill-rule:nonzero;"/><path d="M843.42,443.547c6.542,0 14.605,-6.08 14.605,-12.358c0,-3.701 -2.974,-6.146 -7.203,-6.146c-8.063,0 -14.539,6.014 -14.539,12.358c0,3.833 3.172,6.146 7.137,6.146" style="fill-rule:nonzero;"/><path d="M900.062,435.323c6.542,0 14.604,-6.08 14.604,-12.358c0,-3.701 -2.973,-6.146 -7.203,-6.146c-8.062,0 -14.538,6.014 -14.538,12.358c0,3.833 3.172,6.146 7.137,6.146" style="fill-rule:nonzero;"/><path d="M956.703,427.099c6.543,0 14.605,-6.08 14.605,-12.358c0,-3.7 -2.974,-6.145 -7.203,-6.145c-8.063,0 -14.539,6.013 -14.539,12.357c0,3.833 3.172,6.146 7.137,6.146" style="fill-rule:nonzero;"/><path d="M1066.2,453.716c-0.397,1.322 -3.503,2.644 -5.023,2.644c-0.396,0 -0.727,-0.132 -0.793,-0.331c-0.132,-0.264 -0.198,-1.718 -0.198,-3.304c0,-2.048 0.066,-4.361 0.198,-4.89c0.132,-1.124 3.172,-2.511 4.824,-2.511c0.463,0 0.859,0.132 0.992,0.396c0.132,0.331 0.264,1.983 0.264,3.767c0,1.784 -0.132,3.635 -0.264,4.229m4.559,-10.771c0.463,-0.199 0.793,-0.727 0.793,-1.124l0,-4.692c0,-0.33 -0.198,-0.528 -0.462,-0.528c-0.132,0 -0.198,0 -0.331,0.066c0,0 -1.321,0.528 -1.652,0.594c-0.462,0 -0.925,-0.33 -0.925,-0.859l0,-8.062c0,-0.396 -0.396,-0.727 -0.925,-0.727c-0.661,0 -1.057,0.331 -1.057,0.727l0,8.591c-0.067,0.661 -0.265,1.52 -0.86,1.916c-0.793,0.463 -3.039,1.388 -4.163,1.653c-0.595,0 -0.793,-0.793 -0.793,-1.322l0,-7.93c0,-0.397 -0.462,-0.727 -0.925,-0.727c-0.661,0 -1.057,0.33 -1.057,0.727l0,8.921c0,0.925 -0.397,1.586 -0.793,1.784c-0.397,0.199 -1.719,0.727 -1.719,0.727c-0.462,0.133 -0.793,0.661 -0.793,1.058l0,4.692c0,0.396 0.199,0.594 0.529,0.594c0.066,0 0.198,-0.066 0.264,-0.066c0,0 0.992,-0.396 1.454,-0.66c0.066,0 0.132,-0.067 0.199,-0.067c0.462,0 0.859,0.661 0.859,1.19l0,6.542c0,0.727 -0.331,1.322 -0.727,1.52c-0.397,0.132 -1.785,0.727 -1.785,0.727c-0.462,0.132 -0.793,0.661 -0.793,1.058l0,4.691c0,0.397 0.199,0.595 0.529,0.595c0.066,0 0.198,-0.066 0.264,-0.066c0,0 0.926,-0.396 1.52,-0.595c0.066,-0.066 0.133,-0.066 0.199,-0.066c0.462,0 0.793,0.727 0.793,1.058l0,8.128c0,0.397 0.396,0.727 0.859,0.727c0.661,0 1.123,-0.33 1.123,-0.727l0,-9.186c0,-0.859 0.331,-1.321 0.661,-1.454l4.031,-1.652c0.066,0 0.198,-0.066 0.264,-0.066c0.529,0 0.86,0.793 0.86,1.19l0,8.26c0,0.397 0.396,0.727 0.859,0.727c0.727,0 1.123,-0.33 1.123,-0.727l0,-9.384c0,-0.528 0.264,-1.321 0.727,-1.52c0.463,-0.198 1.85,-0.727 1.85,-0.727c0.463,-0.198 0.793,-0.726 0.793,-1.123l0,-4.692c0,-0.33 -0.198,-0.529 -0.462,-0.529c-0.132,0 -0.198,0 -0.331,0.066l-1.718,0.661c-0.396,0 -0.859,-0.396 -0.859,-1.189l0,-6.146c0,-0.463 0.331,-1.718 0.859,-1.916l1.718,-0.661" style="fill-rule:nonzero;"/><path d="M1082.8,459.994c6.542,0 14.605,-6.079 14.605,-12.357c0,-3.701 -2.974,-6.146 -7.204,-6.146c-8.062,0 -14.538,6.013 -14.538,12.358c0,3.832 3.172,6.145 7.137,6.145" style="fill-rule:nonzero;"/><path d="M1168.61,451.771c6.542,0 14.605,-6.08 14.605,-12.358c0,-3.701 -2.974,-6.146 -7.204,-6.146c-8.062,0 -14.538,6.014 -14.538,12.358c0,3.833 3.172,6.146 7.137,6.146" style="fill-rule:nonzero;"/><path d="M1251.69,418.875c6.542,0 14.605,-6.079 14.605,-12.357c0,-3.701 -2.974,-6.146 -7.203,-6.146c-8.063,0 -14.539,6.013 -14.539,12.357c0,3.833 3.172,6.146 7.137,6.146" style="fill-rule:nonzero;"/><path d="M1330.79,476.442c6.542,0 14.604,-6.08 14.604,-12.358c0,-3.7 -2.974,-6.146 -7.203,-6.146c-8.062,0 -14.538,6.014 -14.538,12.358c0,3.833 3.172,6.146 7.137,6.146" style="fill-rule:nonzero;"/><path d="M1474,434.295c0,-1.85 -1.454,-3.304 -3.305,-3.304c-1.85,0 -3.304,1.454 -3.304,3.304c0,1.85 1.454,3.304 3.304,3.304c1.851,0 3.305,-1.454 3.305,-3.304" style="fill-rule:nonzero;"/><path d="M1444.58,451.771c12.16,0 14.605,-9.913 14.605,-12.292c0,-3.767 -2.974,-6.212 -7.27,-6.212c-11.036,0 -14.472,8.525 -14.472,12.358c0,3.899 3.106,6.146 7.137,6.146m5.617,-5.882c-3.304,2.247 -5.617,3.04 -7.203,3.04c-1.52,0 -2.445,-0.793 -2.908,-1.718c-0.264,-0.397 -0.462,-0.925 -0.462,-1.454c0,-1.586 1.586,-3.635 6.674,-6.542c3.635,-2.115 5.948,-2.908 7.468,-2.908c1.387,0 2.18,0.661 2.709,1.586c0.198,0.396 0.397,0.859 0.397,1.388c0,1.454 -1.52,3.238 -6.675,6.608" style="fill-rule:nonzero;"/><path d="M219.397,408.757c-11.499,0 -16.653,8.393 -16.653,14.737c0,5.287 2.775,9.846 8.128,9.846c4.163,0 7.005,-2.907 7.005,-7.005c0,-4.229 -3.106,-6.872 -6.344,-6.872c-1.784,0 -2.445,0.462 -3.304,0.462c-0.859,0 -1.058,-0.528 -1.058,-1.189c0,-2.644 3.965,-7.468 10.706,-7.468c7.005,0 10.045,6.873 10.045,17.248c0,6.807 -1.454,14.737 -5.551,21.081c-3.965,6.146 -10.772,11.763 -18.966,16.455c-0.595,0.331 -0.992,0.661 -0.992,1.19c0,0.396 0.265,0.793 0.859,0.793c0.331,0 0.727,-0.132 1.124,-0.331c8.789,-4.295 17.248,-9.318 24.253,-16.851c5.749,-6.212 9.185,-14.274 9.185,-22.931c0,-11.499 -7.004,-19.165 -18.437,-19.165m24.98,22.006c-2.049,0 -3.569,1.52 -3.569,3.569c0,2.048 1.52,3.568 3.569,3.568c2.048,0 3.568,-1.52 3.568,-3.568c0,-2.049 -1.52,-3.569 -3.568,-3.569m-0.066,-16.587c-2.049,0 -3.635,1.586 -3.635,3.635c0,2.048 1.586,3.634 3.635,3.634c2.048,0 3.634,-1.586 3.634,-3.634c0,-2.049 -1.586,-3.635 -3.634,-3.635" style="fill-rule:nonzero;"/><path d="M267.501,464.319c0,0 -0.199,-3.965 -0.199,-6.608c0,-1.058 0.067,-1.851 0.133,-2.115c0.264,-0.793 1.982,-2.247 2.907,-2.775c0.595,-0.331 1.19,-0.463 1.719,-0.463c0.66,0 1.255,0.264 1.652,0.727c0.66,0.727 1.057,1.85 1.057,3.106c0,1.189 -0.33,2.577 -1.123,3.965c-0.86,1.586 -2.776,3.701 -4.759,4.956c-0.264,0.132 -0.462,0.199 -0.66,0.199c-0.595,0 -0.727,-0.661 -0.727,-0.992m-2.313,5.882c0.198,0.264 0.396,0.33 0.595,0.33c0.198,0 0.396,-0.132 0.396,-0.132c1.983,-1.123 3.569,-2.908 5.221,-4.031c5.881,-4.097 7.93,-8.128 7.93,-11.168c0,-3.767 -2.908,-6.146 -5.948,-6.344c-0.462,0 -0.925,0.066 -1.388,0.198c-0.726,0.198 -1.519,0.462 -2.246,0.925c-0.397,0.33 -1.124,0.925 -1.454,0.925c-0.132,0 -0.199,0 -0.331,-0.066c-0.462,-0.198 -0.727,-0.661 -0.727,-1.123c0.066,-1.454 0.463,-17.314 0.463,-18.636c0,-0.727 -0.595,-1.124 -1.256,-1.124c-0.925,0 -1.982,0.661 -2.048,1.851c0,0 0.264,37.734 0.793,38.395" style="fill-rule:nonzero;"/><path d="M319.586,505.781l-1.234,0l-0.37,6.599l1.172,0c0.432,-3.701 1.727,-3.947 2.652,-3.947c1.295,0 4.379,0.987 5.736,1.172c-2.775,4.749 -6.414,8.265 -6.414,11.657c0,1.295 0.925,2.035 1.85,2.035c0.925,0 1.85,-0.678 1.974,-2.343c0.432,-5.552 3.886,-9.437 5.119,-15.173l-1.357,0c-0.247,0.801 -0.863,1.418 -1.727,1.418c-1.48,0 -1.788,-1.665 -3.947,-1.665c-1.789,0 -2.467,1.357 -3.023,1.357c-0.431,0 -0.431,-0.37 -0.431,-1.11Z" style="fill-rule:nonzero;"/><path d="M324.119,534.585c-1.357,0 -2.344,0.37 -3.176,0.771l-0.185,-0.093l0.061,-3.886c1.111,0.124 1.974,0.247 2.961,0.247c2.837,0 4.256,-1.172 5.304,-2.899l-0.308,-0.432c-1.727,0.247 -3.146,0.309 -4.564,0.309c-1.481,0 -2.899,-0.124 -4.688,-0.309l-0.123,8.512l0.802,0.432c0.863,-0.802 1.942,-1.234 3.207,-1.234c1.819,0 3.577,1.11 3.577,3.886c0,2.837 -1.449,4.687 -3.67,4.687c-1.511,0 -2.343,-0.647 -2.343,-1.48c0,-0.802 0.647,-1.11 0.647,-2.066c0,-1.049 -0.771,-1.696 -1.665,-1.696c-1.203,0 -2.066,0.956 -2.066,2.251c0,1.974 2.251,4.287 5.89,4.287c3.639,0 6.476,-2.437 6.476,-5.921c0,-3.331 -2.991,-5.366 -6.137,-5.366Z" style="fill-rule:nonzero;"/><path d="M412.726,517.376c0,3.084 -1.48,4.626 -3.7,4.626c-1.481,0 -2.036,-0.678 -2.036,-1.172c0,-0.74 0.617,-0.678 0.617,-1.974c0,-1.171 -0.678,-2.035 -1.912,-2.035c-1.233,0 -2.097,0.802 -2.097,2.221c0,1.912 2.344,4.317 5.921,4.317c3.639,0 6.476,-2.344 6.476,-5.921c-0.061,-3.578 -3.145,-5.428 -6.291,-5.428c-1.788,0 -2.467,0.37 -3.392,0.74l0.062,-3.885c1.11,0.123 1.973,0.246 2.96,0.246c2.159,0 3.516,-0.678 4.503,-1.788l4.626,0l0,5.797l1.418,0l0,-5.797l5.551,0l0,-1.419l-5.551,0l0,-5.736l-1.418,0l0,5.736l-4.75,0c-1.727,0.123 -2.528,0.185 -3.947,0.185c-1.48,0 -2.899,-0.123 -4.688,-0.308l-0.123,8.511l0.802,0.432c0.863,-0.802 1.973,-1.234 3.392,-1.234c2.221,0.062 3.516,1.111 3.577,3.886Z" style="fill-rule:nonzero;"/><path d="M406.682,528.17l0,6.846l-1.912,0.555l0,3.701l1.912,-0.617l0,5.736l-1.912,0.679l0,3.577l1.912,-0.616l0,5.921l1.234,0l0,-6.353l3.824,-1.172l0,6.106l1.233,0l0,-6.6l1.912,-0.678l0,-3.639l-1.912,0.617l0,-5.736l1.912,-0.679l0,-3.639l-1.912,0.617l0,-5.921l-1.233,0l0,6.476l-3.824,1.11l0,-6.291l-1.234,0Zm5.058,8.758l0,5.86l-3.824,1.172l0,-5.86l3.824,-1.172Z" style="fill-rule:nonzero;"/><path d="M492.436,502.573l0,6.847l-1.912,0.555l0,3.7l1.912,-0.616l0,5.736l-1.912,0.678l0,3.578l1.912,-0.617l0,5.921l1.233,0l0,-6.353l3.825,-1.172l0,6.106l1.233,0l0,-6.599l1.912,-0.679l0,-3.639l-1.912,0.617l0,-5.736l1.912,-0.679l0,-3.639l-1.912,0.617l0,-5.921l-1.233,0l0,6.476l-3.825,1.111l0,-6.292l-1.233,0Zm5.058,8.759l0,5.859l-3.825,1.172l0,-5.859l3.825,-1.172Z" style="fill-rule:nonzero;"/><path d="M761.71,510.838c1.142,0 1.758,-0.863 1.758,-1.943c0,-1.603 -1.727,-3.361 -4.749,-3.361c-3.392,0 -6.785,3.207 -6.785,9.067c0,4.441 1.912,8.758 6.538,8.758c3.393,0 5.983,-2.344 5.983,-5.551c0,-2.714 -2.22,-5.058 -5.613,-5.058c-1.727,0 -3.084,0.802 -3.947,1.851c0,-3.701 0.493,-7.772 3.886,-7.772c0.832,0 1.357,0.401 1.357,0.894c0,0.463 -0.185,0.895 -0.185,1.357c0,1.018 0.678,1.758 1.757,1.758Zm-3.238,3.331c1.912,0 2.838,1.48 2.838,3.701c0,2.343 -1.111,4.132 -3.208,4.132c-1.85,0 -2.899,-1.419 -2.899,-3.824c0,-2.344 1.296,-4.009 3.269,-4.009Z" style="fill-rule:nonzero;"/><path d="M809.276,510.499l0,6.075l-3.454,0l-2.621,0l-0.216,0l0,-6.476l-2.837,3.022l0,3.454l-6.23,0c3.146,-4.687 4.75,-6.784 6.723,-10.793l-4.101,0c-1.049,4.07 -2.313,7.401 -4.472,10.978l0,1.234l8.08,0l0,2.159c0,1.295 -1.141,1.727 -2.005,1.727l-0.616,0l0,1.233l7.771,0l0,-1.233c-1.203,0 -2.313,-0.37 -2.313,-1.727l0,-2.159l6.291,0l0,6.075l1.419,0l0,-6.075l6.075,0l0,-1.419l-6.075,0l0,-6.075l-1.419,0Z" style="fill-rule:nonzero;"/><path d="M805.73,540.752l-1.11,-0.185c-0.432,1.542 -1.172,2.282 -2.714,2.282c-2.282,0 -2.837,-0.616 -5.613,-0.616c1.419,-2.159 4.009,-3.454 4.626,-3.855c2.282,-1.388 4.657,-2.56 4.657,-5.52c0,-2.838 -2.714,-4.811 -6.045,-4.811c-3.824,0 -5.983,2.868 -5.983,4.841c0,1.326 0.771,2.128 1.974,2.128c1.08,0 1.727,-0.709 1.727,-1.603c0,-1.326 -0.894,-1.573 -0.894,-2.282c0,-0.833 1.079,-1.727 2.806,-1.727c1.727,0 2.899,1.048 2.899,3.33c0,1.851 -0.863,3.454 -3.978,5.798c-2.159,1.48 -4.811,4.503 -5.058,7.093l1.234,0c0.431,-1.11 0.925,-1.727 2.097,-1.727c1.85,0 3.577,1.974 5.798,1.974c2.467,0 3.577,-2.467 3.577,-5.12Z" style="fill-rule:nonzero;"/><path d="M844.394,514.786c1.912,0 2.714,1.418 2.714,3.392c0,1.974 -0.987,3.824 -3.208,3.824c-1.912,0 -2.96,-1.419 -2.96,-3.392c0,-2.036 1.357,-3.824 3.454,-3.824Zm-3.763,0.431c0,-3.145 0.802,-5.119 2.159,-6.414l4.564,3.392l0.802,-1.172l-4.132,-3.084c1.233,-0.678 2.775,-0.987 4.502,-1.11l-0.123,-1.295c-2.036,0 -4.071,0.432 -5.798,1.357l-5.428,-4.071l-0.802,1.172l4.996,3.701c-2.22,1.665 -3.639,4.132 -3.639,7.524c0,3.825 1.912,8.142 6.538,8.142c3.393,0 5.983,-2.405 5.983,-5.243c0,-2.467 -1.912,-4.749 -5.304,-4.749c-1.727,0 -3.454,0.802 -4.318,1.85Z" style="fill-rule:nonzero;"/><path d="M904.15,510.838c1.141,0 1.758,-0.863 1.758,-1.943c0,-1.603 -1.727,-3.361 -4.749,-3.361c-3.393,0 -6.785,3.207 -6.785,9.067c0,4.441 1.912,8.758 6.538,8.758c3.392,0 5.983,-2.344 5.983,-5.551c0,-2.714 -2.221,-5.058 -5.613,-5.058c-1.727,0 -3.084,0.802 -3.947,1.851c0,-3.701 0.493,-7.772 3.885,-7.772c0.833,0 1.357,0.401 1.357,0.894c0,0.463 -0.185,0.895 -0.185,1.357c0,1.018 0.679,1.758 1.758,1.758Zm-3.238,3.331c1.912,0 2.837,1.48 2.837,3.701c0,2.343 -1.11,4.132 -3.207,4.132c-1.85,0 -2.899,-1.419 -2.899,-3.824c0,-2.344 1.295,-4.009 3.269,-4.009Z" style="fill-rule:nonzero;"/><path d="M960.792,510.838c1.141,0 1.758,-0.863 1.758,-1.943c0,-1.603 -1.727,-3.361 -4.75,-3.361c-3.392,0 -6.784,3.207 -6.784,9.067c0,4.441 1.912,8.758 6.538,8.758c3.392,0 5.982,-2.344 5.982,-5.551c0,-2.714 -2.22,-5.058 -5.612,-5.058c-1.727,0 -3.084,0.802 -3.948,1.851c0,-3.701 0.494,-7.772 3.886,-7.772c0.833,0 1.357,0.401 1.357,0.894c0,0.463 -0.185,0.895 -0.185,1.357c0,1.018 0.678,1.758 1.758,1.758Zm-3.238,3.331c1.912,0 2.837,1.48 2.837,3.701c0,2.343 -1.11,4.132 -3.207,4.132c-1.851,0 -2.899,-1.419 -2.899,-3.824c0,-2.344 1.295,-4.009 3.269,-4.009Z" style="fill-rule:nonzero;"/><path d="M1064.75,499.798l-1.357,0l0,24.733l0.617,0c3.33,-4.009 8.511,-3.948 8.511,-9.005c0,-2.591 -2.035,-3.763 -4.009,-3.763c-1.85,0 -2.899,1.049 -3.762,1.912l0,-13.877Zm0,22.512l0.061,-7.278c0,0 1.049,-1.172 2.468,-1.172c1.11,0 2.158,0.679 2.158,2.468c0,2.775 -2.405,3.824 -4.687,5.982Z" style="fill-rule:nonzero;"/><path d="M1078.94,505.781l-1.234,0l-0.37,6.599l1.172,0c0.432,-3.701 1.727,-3.947 2.652,-3.947c1.295,0 4.379,0.987 5.736,1.172c-2.775,4.749 -6.414,8.265 -6.414,11.657c0,1.295 0.925,2.035 1.85,2.035c0.925,0 1.85,-0.678 1.974,-2.343c0.432,-5.552 3.886,-9.437 5.119,-15.173l-1.357,0c-0.246,0.801 -0.863,1.418 -1.727,1.418c-1.48,0 -1.788,-1.665 -3.947,-1.665c-1.789,0 -2.467,1.357 -3.022,1.357c-0.432,0 -0.432,-0.37 -0.432,-1.11Z" style="fill-rule:nonzero;"/><path d="M1083.47,534.585c-1.357,0 -2.344,0.37 -3.176,0.771l-0.185,-0.093l0.061,-3.886c1.111,0.124 1.974,0.247 2.961,0.247c2.837,0 4.256,-1.172 5.304,-2.899l-0.308,-0.432c-1.727,0.247 -3.146,0.309 -4.564,0.309c-1.481,0 -2.899,-0.124 -4.688,-0.309l-0.123,8.512l0.802,0.432c0.863,-0.802 1.942,-1.234 3.207,-1.234c1.819,0 3.577,1.11 3.577,3.886c0,2.837 -1.449,4.687 -3.67,4.687c-1.511,0 -2.343,-0.647 -2.343,-1.48c0,-0.802 0.647,-1.11 0.647,-2.066c0,-1.049 -0.771,-1.696 -1.665,-1.696c-1.203,0 -2.066,0.956 -2.066,2.251c0,1.974 2.251,4.287 5.89,4.287c3.639,0 6.476,-2.437 6.476,-5.921c0,-3.331 -2.991,-5.366 -6.137,-5.366Z" style="fill-rule:nonzero;"/><path d="M1256.21,517.993l2.837,0l0,-1.419l-2.837,0l0,-6.476l-2.837,3.022l0,3.454l-6.229,0c3.145,-4.687 4.749,-6.784 6.722,-10.793l-4.101,0c-1.049,4.07 -2.313,7.401 -4.472,10.978l0,1.234l8.08,0l0,2.159c0,1.295 -1.141,1.727 -2.004,1.727l-0.617,0l0,1.233l7.771,0l0,-1.233c-1.203,0 -2.313,-0.37 -2.313,-1.727l0,-2.159Z" style="fill-rule:nonzero;"/><path d="M1328.21,502.573l0,6.847l-1.912,0.555l0,3.7l1.912,-0.616l0,5.736l-1.912,0.678l0,3.578l1.912,-0.617l0,5.921l1.233,0l0,-6.353l3.824,-1.172l0,6.106l1.234,0l0,-6.599l1.912,-0.679l0,-3.639l-1.912,0.617l0,-5.736l1.912,-0.679l0,-3.639l-1.912,0.617l0,-5.921l-1.234,0l0,6.476l-3.824,1.111l0,-6.292l-1.233,0Zm5.057,8.759l0,5.859l-3.824,1.172l0,-5.859l3.824,-1.172Z" style="fill-rule:nonzero;"/><path d="M637.19,491.947l0,-8.309l58.624,-8.224l0,8.309l-58.624,8.224" style="fill-rule:nonzero;"/><path d="M836.295,483.658l0,-8.244l58.594,-4.112l0,8.245l-58.594,4.111" style="fill-rule:nonzero;"/></g></g></svg>