<?xml version="1.0" encoding="UTF-8" standalone="no"?><!DOCTYPE svg PUBLIC "-//W3C//DTD SVG 1.1//EN" "http://www.w3.org/Graphics/SVG/1.1/DTD/svg11.dtd"><svg width="100%" height="100%" viewBox="0 0 200 150" version="1.1" xmlns="http://www.w3.org/2000/svg" xmlns:xlink="http://www.w3.org/1999/xlink" xml:space="preserve" xmlns:serif="http://www.serif.com/" style="fill-rule:evenodd;clip-rule:evenodd;stroke-linejoin:round;stroke-miterlimit:1.41421;"><g><path d="M70.712,79.24c0.789,0 1.249,-0.614 1.249,-1.381c0,-1.14 -1.249,-2.455 -3.419,-2.455c-2.455,0 -4.888,2.367 -4.888,6.619c0,3.091 1.316,6.05 4.625,6.05c2.345,0 4.208,-1.622 4.208,-3.924c0,-1.907 -1.556,-3.594 -3.989,-3.594c-1.183,0 -2.126,0.526 -2.739,1.227c0.065,-2.586 0.482,-5.435 2.827,-5.435c0.614,0 1.03,0.263 1.03,0.635c0,0.351 -0.153,0.658 -0.153,1.008c0,0.724 0.46,1.25 1.249,1.25Zm-0.46,4.844c0,1.709 -0.789,3.024 -2.28,3.024c-1.337,0 -2.06,-0.986 -2.06,-2.63c0,-1.71 0.921,-2.937 2.323,-2.937c1.381,0 2.017,1.03 2.017,2.543Z" style="fill-rule:nonzero;"/><path d="M76.301,71.963l0,15.825l4.208,-0.921l-0.087,5.83l0.964,0l0,-15.781l-4.208,1.009l0,-5.962l-0.877,0Zm0.877,8.767l3.331,-0.745l0,3.945l-3.331,0.789l0,-3.989Z" style="fill-rule:nonzero;"/><path d="M23.224,75.579l-0.877,0l-0.263,4.691l0.833,0c0.307,-2.63 1.227,-2.806 1.885,-2.806c0.92,0 3.112,0.702 4.077,0.833c-1.973,3.376 -4.559,5.874 -4.559,8.285c0,0.921 0.657,1.447 1.315,1.447c0.657,0 1.315,-0.482 1.403,-1.666c0.306,-3.945 2.761,-6.707 3.638,-10.784l-0.964,0c-0.176,0.57 -0.614,1.009 -1.228,1.009c-1.052,0 -1.271,-1.184 -2.805,-1.184c-1.272,0 -1.754,0.964 -2.148,0.964c-0.307,0 -0.307,-0.263 -0.307,-0.789Z" style="fill-rule:nonzero;"/><path d="M26.446,96.051c-0.965,0 -1.666,0.263 -2.258,0.548l-0.131,-0.066l0.044,-2.762c0.789,0.088 1.402,0.176 2.104,0.176c2.016,0 3.024,-0.833 3.77,-2.061l-0.22,-0.307c-1.227,0.176 -2.235,0.22 -3.243,0.22c-1.053,0 -2.061,-0.088 -3.332,-0.22l-0.088,6.05l0.57,0.307c0.614,-0.57 1.381,-0.877 2.28,-0.877c1.293,0 2.542,0.789 2.542,2.762c0,2.016 -1.03,3.331 -2.608,3.331c-1.074,0 -1.666,-0.46 -1.666,-1.052c0,-0.57 0.46,-0.789 0.46,-1.468c0,-0.746 -0.548,-1.206 -1.183,-1.206c-0.855,0 -1.469,0.679 -1.469,1.6c0,1.403 1.6,3.047 4.187,3.047c2.586,0 4.602,-1.732 4.602,-4.209c0,-2.367 -2.126,-3.813 -4.361,-3.813Z" style="fill-rule:nonzero;"/><path d="M24.144,107.492l0,4.866l-1.358,0.394l0,2.63l1.358,-0.438l0,4.077l-1.358,0.482l0,2.542l1.358,-0.438l0,4.208l0.877,0l0,-4.515l2.718,-0.833l0,4.34l0.877,0l0,-4.691l1.359,-0.482l0,-2.586l-1.359,0.438l0,-4.076l1.359,-0.483l0,-2.586l-1.359,0.438l0,-4.208l-0.877,0l0,4.603l-2.718,0.789l0,-4.471l-0.877,0Zm3.595,6.224l0,4.165l-2.718,0.833l0,-4.165l2.718,-0.833Z" style="fill-rule:nonzero;"/><path d="M50.102,84.259l2.017,0l0,-1.008l-2.017,0l0,-4.603l-2.016,2.148l0,2.455l-4.428,0c2.236,-3.332 3.376,-4.822 4.778,-7.672l-2.915,0c-0.745,2.894 -1.643,5.261 -3.178,7.803l0,0.877l5.743,0l0,1.534c0,0.921 -0.811,1.228 -1.425,1.228l-0.438,0l0,0.876l5.523,0l0,-0.876c-0.855,0 -1.644,-0.263 -1.644,-1.228l0,-1.534Z" style="fill-rule:nonzero;"/><path d="M51.724,100.434l-0.789,-0.131c-0.307,1.096 -0.833,1.622 -1.929,1.622c-1.622,0 -2.016,-0.439 -3.989,-0.439c1.008,-1.534 2.85,-2.454 3.288,-2.739c1.622,-0.987 3.309,-1.82 3.309,-3.924c0,-2.016 -1.928,-3.419 -4.295,-3.419c-2.718,0 -4.252,2.038 -4.252,3.441c0,0.943 0.547,1.513 1.402,1.513c0.767,0 1.228,-0.505 1.228,-1.14c0,-0.943 -0.636,-1.118 -0.636,-1.622c0,-0.592 0.767,-1.228 1.995,-1.228c1.227,0 2.06,0.746 2.06,2.368c0,1.315 -0.614,2.454 -2.828,4.12c-1.534,1.052 -3.419,3.2 -3.594,5.041l0.877,0c0.307,-0.789 0.657,-1.227 1.49,-1.227c1.315,0 2.543,1.403 4.121,1.403c1.753,0 2.542,-1.754 2.542,-3.639Z" style="fill-rule:nonzero;"/></g><g><path d="M165.68,79.24c0.789,0 1.249,-0.614 1.249,-1.381c0,-1.14 -1.249,-2.455 -3.419,-2.455c-2.455,0 -4.888,2.367 -4.888,6.619c0,3.091 1.315,6.05 4.625,6.05c2.345,0 4.208,-1.622 4.208,-3.924c0,-1.907 -1.556,-3.594 -3.989,-3.594c-1.183,0 -2.126,0.526 -2.74,1.227c0.066,-2.586 0.483,-5.435 2.828,-5.435c0.614,0 1.03,0.263 1.03,0.635c0,0.351 -0.153,0.658 -0.153,1.008c0,0.724 0.46,1.25 1.249,1.25Zm-0.46,4.844c0,1.709 -0.789,3.024 -2.28,3.024c-1.337,0 -2.06,-0.986 -2.06,-2.63c0,-1.71 0.92,-2.937 2.323,-2.937c1.381,0 2.017,1.03 2.017,2.543Z" style="fill-rule:nonzero;"/><path d="M171.269,71.963l0,15.825l4.208,-0.921l-0.088,5.83l0.965,0l0,-15.781l-4.208,1.009l0,-5.962l-0.877,0Zm0.877,8.767l3.331,-0.745l0,3.945l-3.331,0.789l0,-3.989Z" style="fill-rule:nonzero;"/><path d="M118.192,43.579l-0.877,0l-0.263,4.691l0.833,0c0.307,-2.63 1.227,-2.806 1.885,-2.806c0.92,0 3.112,0.702 4.077,0.833c-1.973,3.376 -4.559,5.874 -4.559,8.285c0,0.921 0.657,1.447 1.315,1.447c0.657,0 1.315,-0.482 1.402,-1.666c0.307,-3.945 2.762,-6.707 3.639,-10.784l-0.965,0c-0.175,0.57 -0.613,1.009 -1.227,1.009c-1.052,0 -1.271,-1.184 -2.805,-1.184c-1.272,0 -1.754,0.964 -2.148,0.964c-0.307,0 -0.307,-0.263 -0.307,-0.789Z" style="fill-rule:nonzero;"/><path d="M121.414,64.051c-0.965,0 -1.666,0.263 -2.258,0.548l-0.131,-0.066l0.043,-2.762c0.79,0.088 1.403,0.176 2.105,0.176c2.016,0 3.024,-0.833 3.769,-2.061l-0.219,-0.307c-1.227,0.176 -2.235,0.22 -3.244,0.22c-1.052,0 -2.06,-0.088 -3.331,-0.22l-0.088,6.05l0.57,0.307c0.614,-0.57 1.381,-0.877 2.28,-0.877c1.293,0 2.542,0.789 2.542,2.762c0,2.016 -1.03,3.331 -2.608,3.331c-1.074,0 -1.666,-0.46 -1.666,-1.052c0,-0.57 0.46,-0.789 0.46,-1.468c0,-0.746 -0.548,-1.206 -1.183,-1.206c-0.855,0 -1.469,0.679 -1.469,1.6c0,1.403 1.6,3.047 4.187,3.047c2.586,0 4.602,-1.732 4.602,-4.209c0,-2.367 -2.126,-3.813 -4.361,-3.813Z" style="fill-rule:nonzero;"/><path d="M119.112,75.492l0,4.866l-1.359,0.394l0,2.63l1.359,-0.438l0,4.077l-1.359,0.482l0,2.542l1.359,-0.438l0,4.208l0.877,0l0,-4.515l2.718,-0.833l0,4.34l0.877,0l0,-4.691l1.358,-0.482l0,-2.586l-1.358,0.438l0,-4.076l1.358,-0.483l0,-2.586l-1.358,0.438l0,-4.208l-0.877,0l0,4.603l-2.718,0.789l0,-4.471l-0.877,0Zm3.595,6.224l0,4.165l-2.718,0.833l0,-4.165l2.718,-0.833Z" style="fill-rule:nonzero;"/><path d="M145.07,68.259l2.017,0l0,-1.008l-2.017,0l0,-4.603l-2.016,2.148l0,2.455l-4.428,0c2.236,-3.332 3.376,-4.822 4.778,-7.672l-2.915,0c-0.745,2.894 -1.644,5.261 -3.178,7.803l0,0.877l5.743,0l0,1.534c0,0.921 -0.811,1.228 -1.425,1.228l-0.438,0l0,0.876l5.523,0l0,-0.876c-0.855,0 -1.644,-0.263 -1.644,-1.228l0,-1.534Z" style="fill-rule:nonzero;"/><path d="M146.692,84.434l-0.789,-0.131c-0.307,1.096 -0.833,1.622 -1.929,1.622c-1.622,0 -2.016,-0.439 -3.989,-0.439c1.008,-1.534 2.849,-2.454 3.288,-2.739c1.622,-0.987 3.309,-1.82 3.309,-3.924c0,-2.016 -1.928,-3.419 -4.295,-3.419c-2.718,0 -4.253,2.038 -4.253,3.441c0,0.943 0.548,1.513 1.403,1.513c0.767,0 1.228,-0.505 1.228,-1.14c0,-0.943 -0.636,-1.118 -0.636,-1.622c0,-0.592 0.767,-1.228 1.995,-1.228c1.227,0 2.06,0.746 2.06,2.368c0,1.315 -0.614,2.454 -2.828,4.12c-1.534,1.052 -3.419,3.2 -3.594,5.041l0.877,0c0.306,-0.789 0.657,-1.227 1.49,-1.227c1.315,0 2.542,1.403 4.121,1.403c1.753,0 2.542,-1.754 2.542,-3.639Z" style="fill-rule:nonzero;"/></g><path d="M23.155,26.242l-1.137,0l0,-9.779l5.452,0l0,1.01l-4.315,0l0,3.578l4.054,0l0,1.01l-4.054,0l0,4.181Z" style="fill-rule:nonzero;"/><path d="M30.032,26.242l-1.111,0l0,-7.331l1.111,0l0,7.331Zm-1.204,-9.318c0,-0.254 0.062,-0.44 0.187,-0.558c0.125,-0.118 0.281,-0.177 0.468,-0.177c0.178,0 0.332,0.06 0.462,0.18c0.129,0.121 0.194,0.306 0.194,0.555c0,0.25 -0.065,0.436 -0.194,0.559c-0.13,0.122 -0.284,0.184 -0.462,0.184c-0.187,0 -0.343,-0.062 -0.468,-0.184c-0.125,-0.123 -0.187,-0.309 -0.187,-0.559Z" style="fill-rule:nonzero;"/><path d="M38.386,18.911l0,0.702l-1.358,0.161c0.125,0.156 0.236,0.36 0.334,0.612c0.099,0.252 0.148,0.536 0.148,0.853c0,0.718 -0.246,1.291 -0.736,1.719c-0.491,0.428 -1.164,0.642 -2.02,0.642c-0.219,0 -0.424,-0.018 -0.616,-0.054c-0.472,0.25 -0.709,0.564 -0.709,0.943c0,0.201 0.083,0.349 0.248,0.445c0.165,0.096 0.448,0.144 0.849,0.144l1.298,0c0.794,0 1.404,0.167 1.829,0.502c0.426,0.334 0.639,0.82 0.639,1.458c0,0.811 -0.325,1.43 -0.976,1.856c-0.651,0.426 -1.601,0.639 -2.85,0.639c-0.959,0 -1.698,-0.179 -2.217,-0.535c-0.52,-0.357 -0.779,-0.861 -0.779,-1.512c0,-0.446 0.142,-0.832 0.428,-1.157c0.285,-0.326 0.686,-0.546 1.204,-0.662c-0.188,-0.085 -0.345,-0.217 -0.472,-0.395c-0.127,-0.178 -0.19,-0.386 -0.19,-0.622c0,-0.268 0.071,-0.502 0.214,-0.702c0.142,-0.201 0.367,-0.395 0.675,-0.582c-0.379,-0.156 -0.688,-0.422 -0.926,-0.796c-0.239,-0.375 -0.358,-0.803 -0.358,-1.285c0,-0.802 0.241,-1.421 0.722,-1.856c0.482,-0.434 1.164,-0.652 2.047,-0.652c0.384,0 0.729,0.045 1.037,0.134l2.535,0Zm-5.846,8.562c0,0.396 0.167,0.697 0.501,0.903c0.335,0.205 0.814,0.307 1.439,0.307c0.932,0 1.622,-0.139 2.07,-0.418c0.448,-0.279 0.672,-0.656 0.672,-1.134c0,-0.396 -0.123,-0.672 -0.368,-0.826c-0.245,-0.153 -0.707,-0.23 -1.384,-0.23l-1.332,0c-0.503,0 -0.896,0.12 -1.177,0.361c-0.281,0.241 -0.421,0.586 -0.421,1.037Zm0.602,-6.214c0,0.512 0.145,0.9 0.435,1.164c0.289,0.263 0.693,0.394 1.21,0.394c1.084,0 1.626,-0.526 1.626,-1.578c0,-1.102 -0.549,-1.653 -1.646,-1.653c-0.522,0 -0.923,0.141 -1.204,0.422c-0.281,0.281 -0.421,0.698 -0.421,1.251Z" style="fill-rule:nonzero;"/><path d="M40.934,18.911l0,4.756c0,0.597 0.136,1.043 0.408,1.337c0.272,0.295 0.698,0.442 1.278,0.442c0.767,0 1.328,-0.21 1.682,-0.629c0.355,-0.419 0.532,-1.104 0.532,-2.053l0,-3.853l1.11,0l0,7.331l-0.916,0l-0.161,-0.983l-0.06,0c-0.227,0.361 -0.543,0.637 -0.946,0.829c-0.404,0.192 -0.864,0.288 -1.382,0.288c-0.891,0 -1.559,-0.212 -2.003,-0.636c-0.444,-0.423 -0.665,-1.101 -0.665,-2.033l0,-4.796l1.123,0Z" style="fill-rule:nonzero;"/><path d="M51.643,18.777c0.326,0 0.618,0.027 0.876,0.08l-0.154,1.03c-0.303,-0.066 -0.57,-0.1 -0.802,-0.1c-0.593,0 -1.101,0.241 -1.522,0.723c-0.421,0.481 -0.632,1.081 -0.632,1.799l0,3.933l-1.11,0l0,-7.331l0.916,0l0.127,1.358l0.054,0c0.272,-0.477 0.599,-0.845 0.983,-1.104c0.383,-0.259 0.805,-0.388 1.264,-0.388Z" style="fill-rule:nonzero;"/><path d="M58.124,26.242l-0.22,-1.044l-0.054,0c-0.365,0.46 -0.73,0.771 -1.093,0.933c-0.364,0.163 -0.818,0.245 -1.362,0.245c-0.726,0 -1.296,-0.188 -1.709,-0.562c-0.412,-0.375 -0.618,-0.908 -0.618,-1.599c0,-1.48 1.184,-2.256 3.551,-2.328l1.245,-0.04l0,-0.455c0,-0.575 -0.124,-1 -0.372,-1.274c-0.247,-0.274 -0.643,-0.411 -1.187,-0.411c-0.611,0 -1.302,0.187 -2.073,0.562l-0.342,-0.85c0.362,-0.196 0.757,-0.35 1.188,-0.461c0.43,-0.112 0.861,-0.167 1.294,-0.167c0.874,0 1.522,0.194 1.943,0.581c0.421,0.388 0.632,1.01 0.632,1.867l0,5.003l-0.823,0Zm-2.508,-0.783c0.691,0 1.234,-0.189 1.629,-0.568c0.395,-0.379 0.592,-0.91 0.592,-1.592l0,-0.662l-1.111,0.046c-0.882,0.032 -1.519,0.169 -1.909,0.412c-0.39,0.243 -0.585,0.621 -0.585,1.134c0,0.401 0.121,0.706 0.364,0.916c0.243,0.209 0.583,0.314 1.02,0.314Z" style="fill-rule:nonzero;"/><path d="M63.603,25.459c0.196,0 0.385,-0.014 0.568,-0.043c0.183,-0.029 0.328,-0.059 0.435,-0.091l0,0.85c-0.121,0.058 -0.298,0.106 -0.532,0.144c-0.234,0.038 -0.445,0.057 -0.632,0.057c-1.418,0 -2.127,-0.747 -2.127,-2.241l0,-4.361l-1.05,0l0,-0.535l1.05,-0.462l0.468,-1.565l0.642,0l0,1.699l2.127,0l0,0.863l-2.127,0l0,4.314c0,0.442 0.105,0.78 0.315,1.017c0.209,0.236 0.497,0.354 0.863,0.354Z" style="fill-rule:nonzero;"/><path d="M72.398,22.57c0,1.195 -0.301,2.128 -0.903,2.799c-0.602,0.671 -1.433,1.007 -2.495,1.007c-0.655,0 -1.237,-0.154 -1.745,-0.462c-0.509,-0.308 -0.901,-0.749 -1.178,-1.324c-0.276,-0.576 -0.414,-1.249 -0.414,-2.02c0,-1.195 0.298,-2.126 0.896,-2.793c0.598,-0.667 1.427,-1 2.488,-1c1.026,0 1.841,0.341 2.445,1.024c0.604,0.682 0.906,1.605 0.906,2.769Zm-5.585,0c0,0.936 0.187,1.65 0.562,2.14c0.375,0.491 0.925,0.736 1.652,0.736c0.727,0 1.279,-0.244 1.656,-0.733c0.376,-0.488 0.565,-1.202 0.565,-2.143c0,-0.932 -0.189,-1.64 -0.565,-2.124c-0.377,-0.484 -0.933,-0.726 -1.669,-0.726c-0.727,0 -1.276,0.239 -1.646,0.716c-0.37,0.477 -0.555,1.188 -0.555,2.134Z" style="fill-rule:nonzero;"/><path d="M66.472,135.687l4.053,-8.756l-5.331,0l0,-1.023l6.508,0l0,0.889l-3.999,8.89l-1.231,0Z" style="fill-rule:nonzero;"/><path d="M76.124,129.713c1.03,0 1.84,0.256 2.431,0.766c0.591,0.511 0.886,1.21 0.886,2.097c0,1.012 -0.322,1.806 -0.966,2.381c-0.645,0.576 -1.533,0.863 -2.666,0.863c-1.101,0 -1.942,-0.176 -2.521,-0.528l0,-1.07c0.312,0.2 0.7,0.358 1.163,0.471c0.464,0.114 0.921,0.171 1.372,0.171c0.785,0 1.394,-0.185 1.829,-0.555c0.435,-0.37 0.652,-0.906 0.652,-1.606c0,-1.364 -0.836,-2.046 -2.508,-2.046c-0.424,0 -0.99,0.064 -1.699,0.194l-0.575,-0.368l0.368,-4.575l4.862,0l0,1.023l-3.913,0l-0.247,2.936c0.513,-0.102 1.023,-0.154 1.532,-0.154Z" style="fill-rule:nonzero;"/><path d="M82.572,134.095l0.1,0.153c-0.116,0.446 -0.283,0.965 -0.502,1.556c-0.218,0.59 -0.446,1.14 -0.682,1.648l-0.836,0c0.12,-0.463 0.253,-1.036 0.398,-1.719c0.145,-0.682 0.246,-1.228 0.304,-1.638l1.218,0Z" style="fill-rule:nonzero;"/><path d="M90.15,129.673l-0.441,2.275l1.893,0l0,0.862l-2.054,0l-0.562,2.877l-0.916,0l0.562,-2.877l-2.027,0l-0.548,2.877l-0.91,0l0.535,-2.877l-1.753,0l0,-0.862l1.92,0l0.455,-2.275l-1.853,0l0,-0.849l2,0l0.549,-2.916l0.929,0l-0.548,2.916l2.04,0l0.562,-2.916l0.896,0l-0.562,2.916l1.766,0l0,0.849l-1.933,0Zm-3.384,2.275l2.026,0l0.442,-2.275l-2.027,0l-0.441,2.275Z" style="fill-rule:nonzero;"/><path d="M110.671,133.439l-1.451,0l0,2.248l-1.064,0l0,-2.248l-4.755,0l0,-0.97l4.642,-6.615l1.177,0l0,6.575l1.451,0l0,1.01Zm-2.515,-1.01l0,-3.251c0,-0.637 0.023,-1.357 0.067,-2.16l-0.053,0c-0.214,0.428 -0.415,0.782 -0.602,1.063l-3.057,4.348l3.645,0Z" style="fill-rule:nonzero;"/><path d="M118.042,135.687l-6.428,0l0,-0.957l2.576,-2.589c0.784,-0.793 1.302,-1.36 1.551,-1.698c0.25,-0.339 0.437,-0.669 0.562,-0.99c0.125,-0.321 0.187,-0.667 0.187,-1.037c0,-0.522 -0.158,-0.935 -0.474,-1.241c-0.317,-0.305 -0.756,-0.458 -1.318,-0.458c-0.406,0 -0.79,0.067 -1.154,0.201c-0.363,0.133 -0.768,0.376 -1.214,0.729l-0.589,-0.756c0.901,-0.749 1.882,-1.124 2.944,-1.124c0.918,0 1.638,0.235 2.16,0.706c0.522,0.47 0.783,1.102 0.783,1.896c0,0.62 -0.174,1.233 -0.522,1.839c-0.348,0.607 -0.999,1.374 -1.953,2.301l-2.141,2.094l0,0.053l5.03,0l0,1.031Z" style="fill-rule:nonzero;"/><path d="M130.236,131.506c0,-1.922 0.373,-3.359 1.12,-4.311c0.747,-0.952 1.852,-1.428 3.315,-1.428c0.504,0 0.9,0.042 1.19,0.127l0,0.957c-0.343,-0.112 -0.736,-0.168 -1.177,-0.168c-1.048,0 -1.848,0.327 -2.401,0.98c-0.553,0.654 -0.856,1.68 -0.91,3.081l0.08,0c0.491,-0.767 1.267,-1.151 2.328,-1.151c0.878,0 1.571,0.265 2.077,0.796c0.506,0.531 0.759,1.251 0.759,2.16c0,1.017 -0.278,1.816 -0.833,2.398c-0.555,0.582 -1.305,0.873 -2.25,0.873c-1.013,0 -1.815,-0.38 -2.408,-1.14c-0.594,-0.76 -0.89,-1.818 -0.89,-3.174Zm3.284,3.371c0.633,0 1.125,-0.199 1.475,-0.598c0.35,-0.4 0.525,-0.976 0.525,-1.73c0,-0.646 -0.163,-1.154 -0.488,-1.525c-0.326,-0.37 -0.812,-0.555 -1.458,-0.555c-0.402,0 -0.77,0.083 -1.104,0.248c-0.334,0.165 -0.601,0.392 -0.799,0.682c-0.199,0.29 -0.298,0.591 -0.298,0.903c0,0.459 0.089,0.887 0.268,1.284c0.178,0.397 0.431,0.711 0.759,0.943c0.328,0.232 0.701,0.348 1.12,0.348Z" style="fill-rule:nonzero;"/><path d="M143.48,135.687l0,-4.743c0,-0.597 -0.136,-1.043 -0.408,-1.338c-0.272,-0.294 -0.698,-0.441 -1.278,-0.441c-0.767,0 -1.329,0.207 -1.685,0.622c-0.357,0.415 -0.536,1.099 -0.536,2.053l0,3.847l-1.11,0l0,-7.331l0.903,0l0.181,1.003l0.053,0c0.228,-0.361 0.546,-0.641 0.957,-0.839c0.41,-0.199 0.867,-0.298 1.371,-0.298c0.883,0 1.547,0.213 1.993,0.639c0.446,0.425 0.669,1.107 0.669,2.043l0,4.783l-1.11,0Z" style="fill-rule:nonzero;"/><path d="M118.123,26.242l-1.137,0l0,-9.779l5.452,0l0,1.01l-4.315,0l0,3.578l4.054,0l0,1.01l-4.054,0l0,4.181Z" style="fill-rule:nonzero;"/><path d="M124.999,26.242l-1.11,0l0,-7.331l1.11,0l0,7.331Zm-1.204,-9.318c0,-0.254 0.063,-0.44 0.188,-0.558c0.125,-0.118 0.281,-0.177 0.468,-0.177c0.178,0 0.332,0.06 0.462,0.18c0.129,0.121 0.193,0.306 0.193,0.555c0,0.25 -0.064,0.436 -0.193,0.559c-0.13,0.122 -0.284,0.184 -0.462,0.184c-0.187,0 -0.343,-0.062 -0.468,-0.184c-0.125,-0.123 -0.188,-0.309 -0.188,-0.559Z" style="fill-rule:nonzero;"/><path d="M133.354,18.911l0,0.702l-1.358,0.161c0.125,0.156 0.236,0.36 0.334,0.612c0.098,0.252 0.148,0.536 0.148,0.853c0,0.718 -0.246,1.291 -0.736,1.719c-0.491,0.428 -1.164,0.642 -2.02,0.642c-0.219,0 -0.424,-0.018 -0.616,-0.054c-0.472,0.25 -0.709,0.564 -0.709,0.943c0,0.201 0.083,0.349 0.248,0.445c0.165,0.096 0.448,0.144 0.849,0.144l1.298,0c0.794,0 1.403,0.167 1.829,0.502c0.426,0.334 0.639,0.82 0.639,1.458c0,0.811 -0.325,1.43 -0.976,1.856c-0.651,0.426 -1.601,0.639 -2.85,0.639c-0.959,0 -1.698,-0.179 -2.217,-0.535c-0.52,-0.357 -0.779,-0.861 -0.779,-1.512c0,-0.446 0.142,-0.832 0.428,-1.157c0.285,-0.326 0.686,-0.546 1.204,-0.662c-0.188,-0.085 -0.345,-0.217 -0.472,-0.395c-0.127,-0.178 -0.191,-0.386 -0.191,-0.622c0,-0.268 0.072,-0.502 0.214,-0.702c0.143,-0.201 0.368,-0.395 0.676,-0.582c-0.379,-0.156 -0.688,-0.422 -0.926,-0.796c-0.239,-0.375 -0.358,-0.803 -0.358,-1.285c0,-0.802 0.241,-1.421 0.722,-1.856c0.482,-0.434 1.164,-0.652 2.047,-0.652c0.383,0 0.729,0.045 1.037,0.134l2.535,0Zm-5.846,8.562c0,0.396 0.167,0.697 0.501,0.903c0.335,0.205 0.814,0.307 1.439,0.307c0.931,0 1.622,-0.139 2.07,-0.418c0.448,-0.279 0.672,-0.656 0.672,-1.134c0,-0.396 -0.123,-0.672 -0.368,-0.826c-0.245,-0.153 -0.707,-0.23 -1.385,-0.23l-1.331,0c-0.504,0 -0.896,0.12 -1.177,0.361c-0.281,0.241 -0.421,0.586 -0.421,1.037Zm0.602,-6.214c0,0.512 0.145,0.9 0.435,1.164c0.289,0.263 0.693,0.394 1.21,0.394c1.084,0 1.626,-0.526 1.626,-1.578c0,-1.102 -0.549,-1.653 -1.646,-1.653c-0.522,0 -0.923,0.141 -1.204,0.422c-0.281,0.281 -0.421,0.698 -0.421,1.251Z" style="fill-rule:nonzero;"/><path d="M135.902,18.911l0,4.756c0,0.597 0.136,1.043 0.408,1.337c0.272,0.295 0.698,0.442 1.278,0.442c0.767,0 1.327,-0.21 1.682,-0.629c0.354,-0.419 0.532,-1.104 0.532,-2.053l0,-3.853l1.11,0l0,7.331l-0.916,0l-0.161,-0.983l-0.06,0c-0.227,0.361 -0.543,0.637 -0.946,0.829c-0.404,0.192 -0.864,0.288 -1.382,0.288c-0.892,0 -1.559,-0.212 -2.003,-0.636c-0.444,-0.423 -0.666,-1.101 -0.666,-2.033l0,-4.796l1.124,0Z" style="fill-rule:nonzero;"/><path d="M146.611,18.777c0.325,0 0.618,0.027 0.876,0.08l-0.154,1.03c-0.303,-0.066 -0.57,-0.1 -0.802,-0.1c-0.593,0 -1.101,0.241 -1.522,0.723c-0.421,0.481 -0.632,1.081 -0.632,1.799l0,3.933l-1.11,0l0,-7.331l0.916,0l0.127,1.358l0.053,0c0.273,-0.477 0.6,-0.845 0.984,-1.104c0.383,-0.259 0.805,-0.388 1.264,-0.388Z" style="fill-rule:nonzero;"/><path d="M153.092,26.242l-0.22,-1.044l-0.054,0c-0.366,0.46 -0.73,0.771 -1.093,0.933c-0.364,0.163 -0.818,0.245 -1.362,0.245c-0.727,0 -1.296,-0.188 -1.709,-0.562c-0.412,-0.375 -0.618,-0.908 -0.618,-1.599c0,-1.48 1.184,-2.256 3.551,-2.328l1.244,-0.04l0,-0.455c0,-0.575 -0.123,-1 -0.371,-1.274c-0.247,-0.274 -0.643,-0.411 -1.187,-0.411c-0.611,0 -1.302,0.187 -2.074,0.562l-0.341,-0.85c0.362,-0.196 0.757,-0.35 1.188,-0.461c0.43,-0.112 0.861,-0.167 1.294,-0.167c0.874,0 1.522,0.194 1.943,0.581c0.421,0.388 0.632,1.01 0.632,1.867l0,5.003l-0.823,0Zm-2.508,-0.783c0.691,0 1.234,-0.189 1.629,-0.568c0.394,-0.379 0.592,-0.91 0.592,-1.592l0,-0.662l-1.111,0.046c-0.883,0.032 -1.519,0.169 -1.909,0.412c-0.39,0.243 -0.586,0.621 -0.586,1.134c0,0.401 0.122,0.706 0.365,0.916c0.243,0.209 0.583,0.314 1.02,0.314Z" style="fill-rule:nonzero;"/><path d="M158.57,25.459c0.197,0 0.386,-0.014 0.569,-0.043c0.183,-0.029 0.328,-0.059 0.435,-0.091l0,0.85c-0.121,0.058 -0.298,0.106 -0.532,0.144c-0.234,0.038 -0.445,0.057 -0.632,0.057c-1.418,0 -2.127,-0.747 -2.127,-2.241l0,-4.361l-1.05,0l0,-0.535l1.05,-0.462l0.468,-1.565l0.642,0l0,1.699l2.127,0l0,0.863l-2.127,0l0,4.314c0,0.442 0.105,0.78 0.315,1.017c0.209,0.236 0.497,0.354 0.862,0.354Z" style="fill-rule:nonzero;"/><path d="M167.366,22.57c0,1.195 -0.301,2.128 -0.903,2.799c-0.602,0.671 -1.433,1.007 -2.495,1.007c-0.655,0 -1.237,-0.154 -1.745,-0.462c-0.509,-0.308 -0.901,-0.749 -1.178,-1.324c-0.276,-0.576 -0.414,-1.249 -0.414,-2.02c0,-1.195 0.298,-2.126 0.896,-2.793c0.597,-0.667 1.427,-1 2.488,-1c1.026,0 1.841,0.341 2.445,1.024c0.604,0.682 0.906,1.605 0.906,2.769Zm-5.585,0c0,0.936 0.187,1.65 0.562,2.14c0.375,0.491 0.925,0.736 1.652,0.736c0.727,0 1.279,-0.244 1.656,-0.733c0.376,-0.488 0.565,-1.202 0.565,-2.143c0,-0.932 -0.189,-1.64 -0.565,-2.124c-0.377,-0.484 -0.934,-0.726 -1.669,-0.726c-0.727,0 -1.276,0.239 -1.646,0.716c-0.37,0.477 -0.555,1.188 -0.555,2.134Z" style="fill-rule:nonzero;"/><path d="M169.48,16.463l2.762,0c1.298,0 2.237,0.194 2.816,0.582c0.58,0.388 0.87,1.001 0.87,1.839c0,0.58 -0.162,1.058 -0.485,1.435c-0.323,0.377 -0.795,0.621 -1.415,0.732l0,0.067c1.485,0.254 2.228,1.035 2.228,2.341c0,0.874 -0.296,1.557 -0.887,2.047c-0.59,0.491 -1.417,0.736 -2.478,0.736l-3.411,0l0,-9.779Zm1.137,4.187l1.873,0c0.802,0 1.38,-0.126 1.732,-0.378c0.353,-0.252 0.529,-0.677 0.529,-1.274c0,-0.549 -0.197,-0.944 -0.589,-1.187c-0.392,-0.243 -1.017,-0.365 -1.873,-0.365l-1.672,0l0,3.204Zm0,0.963l0,3.659l2.04,0c0.789,0 1.384,-0.153 1.783,-0.458c0.399,-0.306 0.598,-0.784 0.598,-1.435c0,-0.606 -0.204,-1.052 -0.612,-1.338c-0.408,-0.285 -1.029,-0.428 -1.863,-0.428l-1.946,0Z" style="fill-rule:nonzero;"/><rect x="15.93" y="86.722" width="167.127" height="2.417" style="fill:#ff8b46;fill-opacity:0.0980392;"/></svg>