<?xml version="1.0" encoding="UTF-8" standalone="no"?><!DOCTYPE svg PUBLIC "-//W3C//DTD SVG 1.1//EN" "http://www.w3.org/Graphics/SVG/1.1/DTD/svg11.dtd"><svg width="100%" height="100%" viewBox="0 0 40 73" version="1.1" xmlns="http://www.w3.org/2000/svg" xmlns:xlink="http://www.w3.org/1999/xlink" xml:space="preserve" xmlns:serif="http://www.serif.com/" style="fill-rule:evenodd;clip-rule:evenodd;stroke-linejoin:round;stroke-miterlimit:1.41421;"><path d="M22.432,14.048c0.576,0 1.056,-0.544 1.056,-1.216c0,-0.896 -0.864,-1.92 -2.368,-1.92c-1.728,0 -3.52,1.248 -4.288,4.192c-0.16,0.512 -0.224,1.056 -0.224,1.6c0,1.824 0.8,3.392 2.752,3.392c1.728,0 3.328,-1.312 3.328,-3.072c0,-1.216 -0.8,-2.4 -2.368,-2.4c-0.864,0 -1.376,0.32 -1.984,0.896c0.512,-1.856 0.992,-3.936 2.72,-3.936c0.544,0 0.768,0.224 0.768,0.448c0,0.448 -0.32,0.608 -0.32,1.088c0,0.48 0.288,0.928 0.928,0.928Zm-3.104,5.376c-0.8,0 -1.312,-0.512 -1.312,-1.44c0,-0.16 0.032,-0.352 0.064,-0.544c0.288,-1.216 0.864,-2.08 1.888,-2.08c0.8,0 1.12,0.672 1.12,1.536c0,1.472 -0.768,2.528 -1.76,2.528Z" style="fill-rule:nonzero;"/><path d="M22,29.024l1.536,0l0.096,-0.736l-1.472,0l0.928,-3.36l-1.92,1.568l-0.48,1.792l-3.072,0c2.272,-2.432 3.616,-3.52 5.184,-5.6l-2.272,0c-1.088,2.112 -2.272,3.84 -3.872,5.696l-0.096,0.64l3.968,0l-0.32,1.12c-0.16,0.672 -0.832,0.896 -1.28,0.896l-0.32,0l-0.128,0.64l4.032,0l0.128,-0.64c-0.416,0 -0.992,-0.224 -0.992,-0.704c0,-0.064 0,-0.128 0.032,-0.192l0.32,-1.12Z" style="fill-rule:nonzero;"/><path d="M23.52,40.832l-0.576,-0.096c-0.224,0.8 -0.608,1.184 -1.408,1.184c-1.184,0 -1.472,-0.32 -2.912,-0.32c0.736,-1.12 2.08,-1.792 2.4,-2c1.184,-0.72 2.416,-1.328 2.416,-2.864c0,-1.472 -1.408,-2.496 -3.136,-2.496c-1.984,0 -3.104,1.488 -3.104,2.512c0,0.688 0.4,1.104 1.024,1.104c0.56,0 0.896,-0.368 0.896,-0.832c0,-0.688 -0.464,-0.816 -0.464,-1.184c0,-0.432 0.56,-0.896 1.456,-0.896c0.896,0 1.504,0.544 1.504,1.728c0,0.96 -0.448,1.792 -2.064,3.008c-1.12,0.768 -2.496,2.336 -2.624,3.68l0.64,0c0.224,-0.576 0.48,-0.896 1.088,-0.896c0.96,0 1.856,1.024 3.008,1.024c1.28,0 1.856,-1.28 1.856,-2.656Z" style="fill-rule:nonzero;"/><path d="M10.543,62.696l-0.81,0l0,-5.352l0.81,0l0,5.352Zm-0.878,-6.802c0,-0.185 0.045,-0.321 0.136,-0.407c0.091,-0.087 0.205,-0.13 0.342,-0.13c0.13,0 0.243,0.044 0.337,0.132c0.094,0.088 0.142,0.223 0.142,0.405c0,0.183 -0.048,0.318 -0.142,0.408c-0.094,0.089 -0.207,0.134 -0.337,0.134c-0.137,0 -0.251,-0.045 -0.342,-0.134c-0.091,-0.09 -0.136,-0.225 -0.136,-0.408Z" style="fill-rule:nonzero;"/><path d="M11.974,59.644c0,-1.403 0.273,-2.452 0.818,-3.147c0.545,-0.695 1.352,-1.042 2.419,-1.042c0.368,0 0.658,0.031 0.87,0.093l0,0.698c-0.251,-0.082 -0.538,-0.122 -0.86,-0.122c-0.765,0 -1.349,0.238 -1.753,0.715c-0.403,0.477 -0.625,1.226 -0.664,2.249l0.059,0c0.358,-0.56 0.924,-0.84 1.699,-0.84c0.641,0 1.147,0.193 1.516,0.581c0.37,0.387 0.554,0.913 0.554,1.577c0,0.742 -0.202,1.326 -0.608,1.75c-0.405,0.425 -0.953,0.638 -1.643,0.638c-0.739,0 -1.325,-0.278 -1.757,-0.833c-0.433,-0.555 -0.65,-1.327 -0.65,-2.317Zm2.398,2.461c0.462,0 0.821,-0.145 1.076,-0.437c0.256,-0.291 0.384,-0.712 0.384,-1.262c0,-0.472 -0.119,-0.843 -0.357,-1.113c-0.238,-0.271 -0.592,-0.406 -1.064,-0.406c-0.293,0 -0.562,0.061 -0.806,0.181c-0.244,0.121 -0.439,0.287 -0.584,0.498c-0.144,0.212 -0.217,0.431 -0.217,0.659c0,0.336 0.065,0.648 0.196,0.938c0.13,0.29 0.314,0.519 0.554,0.688c0.239,0.17 0.512,0.254 0.818,0.254Z" style="fill-rule:nonzero;"/><path d="M18.791,62.696l-0.811,0l0,-5.352l0.811,0l0,5.352Zm-0.879,-6.802c0,-0.185 0.045,-0.321 0.136,-0.407c0.091,-0.087 0.205,-0.13 0.342,-0.13c0.13,0 0.243,0.044 0.337,0.132c0.094,0.088 0.142,0.223 0.142,0.405c0,0.183 -0.048,0.318 -0.142,0.408c-0.094,0.089 -0.207,0.134 -0.337,0.134c-0.137,0 -0.251,-0.045 -0.342,-0.134c-0.091,-0.09 -0.136,-0.225 -0.136,-0.408Z" style="fill-rule:nonzero;"/><path d="M25.167,61.055l-1.059,0l0,1.641l-0.776,0l0,-1.641l-3.472,0l0,-0.708l3.389,-4.829l0.859,0l0,4.8l1.059,0l0,0.737Zm-1.835,-0.737l0,-2.373c0,-0.465 0.016,-0.991 0.048,-1.577l-0.039,0c-0.156,0.312 -0.302,0.571 -0.439,0.776l-2.232,3.174l2.662,0Z" style="fill-rule:nonzero;"/><path d="M30.548,62.696l-4.692,0l0,-0.698l1.88,-1.89c0.573,-0.579 0.95,-0.993 1.133,-1.24c0.182,-0.248 0.319,-0.488 0.41,-0.723c0.091,-0.234 0.137,-0.486 0.137,-0.757c0,-0.38 -0.116,-0.682 -0.347,-0.905c-0.231,-0.223 -0.552,-0.335 -0.962,-0.335c-0.296,0 -0.577,0.049 -0.842,0.147c-0.266,0.097 -0.561,0.275 -0.887,0.532l-0.429,-0.552c0.657,-0.547 1.373,-0.82 2.148,-0.82c0.671,0 1.196,0.172 1.577,0.515c0.381,0.343 0.572,0.805 0.572,1.384c0,0.453 -0.127,0.9 -0.381,1.343c-0.254,0.443 -0.729,1.003 -1.426,1.68l-1.563,1.528l0,0.039l3.672,0l0,0.752Z" style="fill-rule:nonzero;"/></svg>