<?xml version="1.0" encoding="UTF-8" standalone="no"?><!DOCTYPE svg PUBLIC "-//W3C//DTD SVG 1.1//EN" "http://www.w3.org/Graphics/SVG/1.1/DTD/svg11.dtd"><svg width="100%" height="100%" viewBox="0 0 100 100" version="1.1" xmlns="http://www.w3.org/2000/svg" xmlns:xlink="http://www.w3.org/1999/xlink" xml:space="preserve" xmlns:serif="http://www.serif.com/" style="fill-rule:evenodd;clip-rule:evenodd;stroke-linejoin:round;stroke-miterlimit:1.41421;"><path d="M30.795,19.134c0.767,0 1.402,-0.701 1.402,-1.644c0,-1.117 -1.249,-2.542 -3.353,-2.542c-2.192,0 -4.756,1.863 -5.743,5.611c-0.241,0.855 -0.372,1.731 -0.372,2.564c0,2.367 1.227,4.45 4.098,4.45c2.148,0 4.472,-1.6 4.472,-4.165c0,-1.666 -1.403,-3.375 -3.704,-3.375c-0.943,0 -1.798,0.372 -2.433,0.899c0.657,-2.433 1.665,-5.085 3.682,-5.085c0.679,0 1.249,0.306 1.249,0.723c0,0.548 -0.482,0.877 -0.482,1.49c0,0.592 0.438,1.074 1.184,1.074Zm-1.666,3.726c0,1.951 -1.271,3.726 -2.74,3.726c-1.227,0 -1.863,-0.789 -1.863,-1.928c0,-1.995 1.293,-3.661 2.784,-3.661c1.227,0 1.819,0.811 1.819,1.863Z" style="fill-rule:nonzero;"/><path d="M29.94,39.759l2.126,0l0.175,-1.008l-2.016,0l1.205,-4.515l-2.586,2.148l-0.636,2.367l-4.427,0c3.134,-3.332 4.581,-4.603 6.751,-7.452l-2.937,0c-1.513,2.893 -2.959,5.041 -5.173,7.583l-0.132,0.877l5.633,0l-0.394,1.534c-0.263,0.921 -1.14,1.228 -1.754,1.228l-0.35,0l-0.132,0.876l5.523,0l0.132,-0.876c-0.745,0 -1.447,-0.198 -1.447,-0.877c0,-0.11 0,-0.219 0.044,-0.351l0.395,-1.534Z" style="fill-rule:nonzero;"/><path d="M31.89,55.934l-0.789,-0.131c-0.306,1.096 -0.833,1.622 -1.928,1.622c-1.622,0 -2.017,-0.439 -3.989,-0.439c1.008,-1.534 2.849,-2.454 3.287,-2.739c1.622,-0.987 3.31,-1.82 3.31,-3.924c0,-2.016 -1.929,-3.419 -4.296,-3.419c-2.718,0 -4.252,2.038 -4.252,3.441c0,0.943 0.548,1.513 1.403,1.513c0.767,0 1.227,-0.505 1.227,-1.14c0,-0.943 -0.636,-1.118 -0.636,-1.622c0,-0.592 0.768,-1.228 1.995,-1.228c1.227,0 2.06,0.746 2.06,2.368c0,1.315 -0.614,2.454 -2.827,4.12c-1.534,1.052 -3.419,3.2 -3.595,5.041l0.877,0c0.307,-0.789 0.658,-1.227 1.49,-1.227c1.315,0 2.543,1.403 4.121,1.403c1.753,0 2.542,-1.754 2.542,-3.639Z" style="fill-rule:nonzero;"/><path d="M74.657,20.558l0,-4.121l3.945,0l0,-1.005l-3.945,0l0,-4.077l-1.006,0l0,4.077l-2.939,0c-0.79,0.087 -1.403,0.131 -2.059,0.131c-1.402,0 -2.477,-0.131 -4.1,-0.351l-1.71,5.872l0.482,0.351c0.702,-0.483 1.448,-0.79 2.303,-0.79c1.294,0 2.039,0.702 2.039,1.974c0,2.28 -1.557,3.947 -3.201,3.947c-0.943,0 -1.536,-0.417 -1.536,-0.746c0,-0.592 0.68,-0.658 0.68,-1.732c0,-0.724 -0.46,-1.184 -1.227,-1.184c-0.788,0 -1.422,0.636 -1.422,1.732c0,1.338 1.335,2.891 3.768,2.891c2.478,0 5.215,-1.707 5.215,-4.557c0,-2.105 -1.664,-3.374 -3.746,-3.374c-1.031,0 -1.425,0.219 -2.083,0.437l0.745,-2.631c0.878,0.132 1.382,0.263 2.084,0.263c1.424,0 2.475,-0.482 3.307,-1.228l3.4,0l0,4.121l1.006,0Z" style="fill-rule:nonzero;"/><path d="M14.443,85.885l-1.11,0l0,-7.331l1.11,0l0,7.331Zm-1.204,-9.318c0,-0.254 0.063,-0.44 0.187,-0.558c0.125,-0.118 0.281,-0.177 0.469,-0.177c0.178,0 0.332,0.06 0.461,0.18c0.129,0.121 0.194,0.306 0.194,0.555c0,0.25 -0.065,0.436 -0.194,0.559c-0.129,0.123 -0.283,0.184 -0.461,0.184c-0.188,0 -0.344,-0.061 -0.469,-0.184c-0.124,-0.123 -0.187,-0.309 -0.187,-0.559Z" style="fill-rule:nonzero;"/><path d="M16.403,81.704c0,-1.921 0.373,-3.358 1.12,-4.31c0.747,-0.953 1.852,-1.429 3.315,-1.429c0.503,0 0.9,0.043 1.19,0.128l0,0.956c-0.343,-0.111 -0.736,-0.167 -1.177,-0.167c-1.048,0 -1.848,0.326 -2.401,0.98c-0.553,0.653 -0.856,1.68 -0.91,3.08l0.08,0c0.491,-0.767 1.267,-1.151 2.328,-1.151c0.878,0 1.571,0.266 2.077,0.796c0.506,0.531 0.759,1.251 0.759,2.161c0,1.017 -0.278,1.816 -0.833,2.398c-0.555,0.582 -1.305,0.873 -2.251,0.873c-1.012,0 -1.814,-0.38 -2.407,-1.141c-0.594,-0.76 -0.89,-1.818 -0.89,-3.174Zm3.284,3.372c0.633,0 1.125,-0.2 1.475,-0.599c0.35,-0.399 0.525,-0.976 0.525,-1.729c0,-0.647 -0.163,-1.155 -0.488,-1.525c-0.326,-0.37 -0.812,-0.555 -1.458,-0.555c-0.402,0 -0.77,0.082 -1.104,0.247c-0.334,0.165 -0.601,0.393 -0.799,0.682c-0.199,0.29 -0.298,0.591 -0.298,0.903c0,0.46 0.089,0.888 0.268,1.285c0.178,0.397 0.431,0.711 0.759,0.943c0.327,0.232 0.701,0.348 1.12,0.348Z" style="fill-rule:nonzero;"/><path d="M25.74,85.885l-1.11,0l0,-7.331l1.11,0l0,7.331Zm-1.204,-9.318c0,-0.254 0.063,-0.44 0.188,-0.558c0.125,-0.118 0.281,-0.177 0.468,-0.177c0.178,0 0.332,0.06 0.461,0.18c0.13,0.121 0.194,0.306 0.194,0.555c0,0.25 -0.064,0.436 -0.194,0.559c-0.129,0.123 -0.283,0.184 -0.461,0.184c-0.187,0 -0.343,-0.061 -0.468,-0.184c-0.125,-0.123 -0.188,-0.309 -0.188,-0.559Z" style="fill-rule:nonzero;"/><path d="M34.476,83.637l-1.451,0l0,2.248l-1.064,0l0,-2.248l-4.756,0l0,-0.969l4.642,-6.616l1.178,0l0,6.575l1.451,0l0,1.01Zm-2.515,-1.01l0,-3.25c0,-0.638 0.022,-1.358 0.067,-2.161l-0.054,0c-0.214,0.428 -0.414,0.783 -0.602,1.064l-3.056,4.347l3.645,0Z" style="fill-rule:nonzero;"/><path d="M41.847,85.885l-6.428,0l0,-0.957l2.575,-2.588c0.785,-0.794 1.302,-1.36 1.552,-1.699c0.25,-0.339 0.437,-0.669 0.562,-0.99c0.125,-0.321 0.187,-0.667 0.187,-1.037c0,-0.522 -0.158,-0.935 -0.475,-1.241c-0.316,-0.305 -0.755,-0.458 -1.317,-0.458c-0.406,0 -0.791,0.067 -1.154,0.201c-0.364,0.134 -0.768,0.377 -1.214,0.729l-0.589,-0.756c0.901,-0.749 1.882,-1.124 2.943,-1.124c0.919,0 1.639,0.236 2.161,0.706c0.521,0.471 0.782,1.103 0.782,1.896c0,0.62 -0.174,1.233 -0.521,1.84c-0.348,0.606 -0.999,1.373 -1.954,2.301l-2.14,2.093l0,0.054l5.03,0l0,1.03Z" style="fill-rule:nonzero;"/><path d="M61.717,85.885l-1.111,0l0,-7.331l1.111,0l0,7.331Zm-1.204,-9.318c0,-0.254 0.062,-0.44 0.187,-0.558c0.125,-0.118 0.281,-0.177 0.468,-0.177c0.179,0 0.333,0.06 0.462,0.18c0.129,0.121 0.194,0.306 0.194,0.555c0,0.25 -0.065,0.436 -0.194,0.559c-0.129,0.123 -0.283,0.184 -0.462,0.184c-0.187,0 -0.343,-0.061 -0.468,-0.184c-0.125,-0.123 -0.187,-0.309 -0.187,-0.559Z" style="fill-rule:nonzero;"/><path d="M66.62,79.912c1.03,0 1.84,0.255 2.431,0.766c0.591,0.51 0.886,1.209 0.886,2.097c0,1.012 -0.322,1.806 -0.966,2.381c-0.645,0.575 -1.533,0.863 -2.666,0.863c-1.101,0 -1.942,-0.176 -2.521,-0.529l0,-1.07c0.312,0.201 0.7,0.358 1.163,0.472c0.464,0.113 0.921,0.17 1.372,0.17c0.784,0 1.394,-0.185 1.829,-0.555c0.435,-0.37 0.652,-0.905 0.652,-1.605c0,-1.365 -0.836,-2.047 -2.508,-2.047c-0.424,0 -0.99,0.065 -1.699,0.194l-0.575,-0.368l0.368,-4.575l4.862,0l0,1.023l-3.913,0l-0.247,2.937c0.513,-0.103 1.023,-0.154 1.532,-0.154Z" style="fill-rule:nonzero;"/><path d="M75.094,80.594l2.756,0l0,0.923l-2.756,0l0,2.85l-0.929,0l0,-2.85l-2.743,0l0,-0.923l2.743,0l0,-2.863l0.929,0l0,2.863Z" style="fill-rule:nonzero;"/></svg>