<?xml version="1.0" encoding="UTF-8" standalone="no"?><!DOCTYPE svg PUBLIC "-//W3C//DTD SVG 1.1//EN" "http://www.w3.org/Graphics/SVG/1.1/DTD/svg11.dtd"><svg width="100%" height="100%" viewBox="0 0 121 61" version="1.1" xmlns="http://www.w3.org/2000/svg" xmlns:xlink="http://www.w3.org/1999/xlink" xml:space="preserve" xmlns:serif="http://www.serif.com/" style="fill-rule:evenodd;clip-rule:evenodd;stroke-linejoin:round;stroke-miterlimit:1.41421;"><rect id="kerning" x="0.511" y="0.839" width="120" height="60" style="fill:#fff;"/><g><g><path d="M18.935,13.617c0.432,0 0.684,-0.336 0.684,-0.756c0,-0.624 -0.684,-1.344 -1.872,-1.344c-1.344,0 -2.676,1.296 -2.676,3.624c0,1.692 0.72,3.312 2.532,3.312c1.284,0 2.304,-0.888 2.304,-2.148c0,-1.044 -0.852,-1.968 -2.184,-1.968c-0.648,0 -1.164,0.288 -1.5,0.672c0.036,-1.416 0.264,-2.976 1.548,-2.976c0.336,0 0.564,0.144 0.564,0.348c0,0.192 -0.084,0.36 -0.084,0.552c0,0.396 0.252,0.684 0.684,0.684Zm-0.252,2.652c0,0.936 -0.432,1.656 -1.248,1.656c-0.732,0 -1.128,-0.54 -1.128,-1.44c0,-0.936 0.504,-1.608 1.272,-1.608c0.756,0 1.104,0.564 1.104,1.392Z" style="fill:#4e4e4e;fill-rule:nonzero;"/><path d="M21.899,9.045l-0.528,0l0,9.624l0.24,0c1.296,-1.56 3.312,-1.536 3.312,-3.504c0,-1.008 -0.792,-1.464 -1.56,-1.464c-0.72,0 -1.128,0.408 -1.464,0.744l0,-5.4Zm0,8.76l0.024,-2.832c0,0 0.396,-0.456 0.936,-0.456c0.42,0 0.804,0.264 0.804,0.96c0,1.08 -0.876,1.488 -1.764,2.328Z" style="fill:#4e4e4e;fill-rule:nonzero;"/><path d="M19.043,25.125l1.104,0l0,-0.552l-1.104,0l0,-2.52l-1.104,1.176l0,1.344l-2.424,0c1.224,-1.824 1.848,-2.64 2.616,-4.2l-1.596,0c-0.408,1.584 -0.9,2.88 -1.74,4.272l0,0.48l3.144,0l0,0.84c0,0.504 -0.444,0.672 -0.78,0.672l-0.24,0l0,0.48l3.024,0l0,-0.48c-0.468,0 -0.9,-0.144 -0.9,-0.672l0,-0.84Z" style="fill:#4e4e4e;fill-rule:nonzero;"/><path d="M23.315,18.633l0,8.664l2.304,-0.504l-0.048,3.192l0.528,0l0,-8.64l-2.304,0.552l0,-3.264l-0.48,0Zm0.48,4.68l1.824,-0.408l0,2.4l-1.824,0.432l0,-2.424Z" style="fill:#4e4e4e;fill-rule:nonzero;"/><path d="M19.931,33.981l-0.432,-0.072c-0.168,0.6 -0.456,0.888 -1.056,0.888c-0.888,0 -1.104,-0.24 -2.184,-0.24c0.552,-0.84 1.56,-1.344 1.8,-1.5c0.888,-0.54 1.812,-0.996 1.812,-2.148c0,-1.104 -1.056,-1.872 -2.352,-1.872c-1.488,0 -2.328,1.116 -2.328,1.884c0,0.516 0.3,0.828 0.768,0.828c0.42,0 0.672,-0.276 0.672,-0.624c0,-0.516 -0.348,-0.612 -0.348,-0.888c0,-0.324 0.42,-0.672 1.092,-0.672c0.672,0 1.128,0.408 1.128,1.296c0,0.72 -0.336,1.344 -1.548,2.256c-0.84,0.576 -1.872,1.752 -1.968,2.76l0.48,0c0.168,-0.432 0.36,-0.672 0.816,-0.672c0.72,0 1.392,0.768 2.256,0.768c0.96,0 1.392,-0.96 1.392,-1.992Z" style="fill:#4e4e4e;fill-rule:nonzero;"/><path d="M21.899,27.045l-0.528,0l0,9.624l0.24,0c1.296,-1.56 3.312,-1.536 3.312,-3.504c0,-1.008 -0.792,-1.464 -1.56,-1.464c-0.72,0 -1.128,0.408 -1.464,0.744l0,-5.4Zm0,8.76l0.024,-2.832c0,0 0.396,-0.456 0.936,-0.456c0.42,0 0.804,0.264 0.804,0.96c0,1.08 -0.876,1.488 -1.764,2.328Z" style="fill:#4e4e4e;fill-rule:nonzero;"/><path d="M11.591,47.961c-0.39,0 -0.727,0.131 -0.973,0.413c0.114,-1.002 0.655,-1.44 1.141,-1.464c0.204,-0.012 0.414,0.018 0.552,0.09l0.192,-0.366c-0.18,-0.089 -0.456,-0.137 -0.75,-0.119c-0.817,0.048 -1.62,0.695 -1.62,2.267c0,1.495 0.509,2.034 1.368,2.034c0.822,0 1.289,-0.545 1.289,-1.452c0,-0.918 -0.401,-1.403 -1.199,-1.403Zm-0.09,2.466c-0.577,0 -0.877,-0.402 -0.907,-1.489c0.186,-0.426 0.595,-0.588 0.997,-0.588c0.528,0 0.738,0.372 0.738,1.014c0,0.631 -0.276,1.063 -0.828,1.063Z" style="fill:#a6a6a6;fill-rule:nonzero;"/><path d="M15.293,47.685c-0.438,0 -0.781,0.203 -0.985,0.509l0,-2.243l-0.431,0l0,4.799l0.371,0l0.06,-0.425l0,-0.012c0.192,0.299 0.498,0.503 0.925,0.503c0.696,0 1.175,-0.473 1.175,-1.572c0,-1.098 -0.419,-1.559 -1.115,-1.559Zm-0.15,2.742c-0.475,0 -0.769,-0.426 -0.835,-0.763l0,-0.864c0.096,-0.288 0.402,-0.726 0.895,-0.726c0.546,0 0.78,0.318 0.78,1.17c0,0.847 -0.294,1.183 -0.84,1.183Z" style="fill:#a6a6a6;fill-rule:nonzero;"/><path d="M20.014,49.401l-0.738,0l0,-2.85l-0.899,0l-0.996,2.85l0,0.389l1.47,0l0,0.96l0.425,0l0,-0.96l0.738,0l0,-0.389Zm-2.189,0l0.858,-2.467l0.168,0l0,2.467l-1.026,0Z" style="fill:#a6a6a6;fill-rule:nonzero;"/><path d="M22.589,47.685c-0.456,0 -0.829,0.209 -1.045,0.521c-0.024,-0.161 -0.06,-0.455 -0.06,-0.455l-0.353,0l0,2.999l0.431,0l0,-1.992c0.06,-0.258 0.438,-0.684 0.931,-0.684c0.51,0 0.636,0.264 0.636,1.02l0,1.656l0.431,0l0,-1.8c0,-0.894 -0.299,-1.265 -0.971,-1.265Z" style="fill:#a6a6a6;fill-rule:nonzero;"/><path d="M26.039,49.659c0.612,-0.637 1.061,-1.285 1.061,-1.939c0,-0.642 -0.401,-1.205 -1.199,-1.205c-0.546,0 -1.05,0.251 -1.284,0.665l0.408,0.216c0.144,-0.288 0.486,-0.492 0.864,-0.492c0.48,0 0.756,0.348 0.756,0.816c0,0.522 -0.396,1.146 -0.954,1.698c-0.282,0.307 -0.66,0.625 -1.068,0.949l0,0.383l2.465,0l0,-0.383l-1.817,0c0.054,-0.024 0.48,-0.396 0.768,-0.708Z" style="fill:#a6a6a6;fill-rule:nonzero;"/><path d="M29.693,47.685c-0.438,0 -0.781,0.203 -0.985,0.509l0,-2.243l-0.431,0l0,4.799l0.371,0l0.06,-0.425l0,-0.012c0.192,0.299 0.498,0.503 0.925,0.503c0.696,0 1.175,-0.473 1.175,-1.572c0,-1.098 -0.419,-1.559 -1.115,-1.559Zm-0.15,2.742c-0.475,0 -0.769,-0.426 -0.835,-0.763l0,-0.864c0.096,-0.288 0.402,-0.726 0.895,-0.726c0.546,0 0.78,0.318 0.78,1.17c0,0.847 -0.294,1.183 -0.84,1.183Z" style="fill:#a6a6a6;fill-rule:nonzero;"/></g><g><path d="M41.61,20.487l-0.48,0l-0.144,2.568l0.456,0c0.168,-1.44 0.672,-1.536 1.032,-1.536c0.504,0 1.704,0.384 2.232,0.456c-1.08,1.848 -2.496,3.216 -2.496,4.536c0,0.504 0.36,0.792 0.72,0.792c0.36,0 0.72,-0.264 0.768,-0.912c0.168,-2.16 1.512,-3.672 1.992,-5.904l-0.528,0c-0.096,0.312 -0.336,0.552 -0.672,0.552c-0.576,0 -0.696,-0.648 -1.536,-0.648c-0.696,0 -0.96,0.528 -1.176,0.528c-0.168,0 -0.168,-0.144 -0.168,-0.432Z" style="fill:#4e4e4e;fill-rule:nonzero;"/><path d="M48.306,18.507l0,8.664l2.304,-0.504l-0.048,3.192l0.528,0l0,-8.64l-2.304,0.552l0,-3.264l-0.48,0Zm0.48,4.68l1.824,-0.408l0,2.4l-1.824,0.432l0,-2.424Z" style="fill:#4e4e4e;fill-rule:nonzero;"/><path d="M47.25,32.103l0,-2.256l2.16,0l0,-0.552l-2.16,0l0,-2.232l-0.552,0l0,2.232l-1.848,0c-0.672,0.048 -0.888,0.072 -1.44,0.072c-0.576,0 -1.128,-0.048 -1.824,-0.12l-0.048,3.312l0.312,0.168c0.336,-0.312 0.756,-0.48 1.248,-0.48c0.708,0 1.392,0.432 1.392,1.512c0,1.104 -0.564,1.824 -1.428,1.824c-0.588,0 -0.912,-0.252 -0.912,-0.576c0,-0.312 0.252,-0.432 0.252,-0.804c0,-0.408 -0.3,-0.66 -0.648,-0.66c-0.468,0 -0.804,0.372 -0.804,0.876c0,0.768 0.876,1.668 2.292,1.668c1.416,0 2.52,-0.948 2.52,-2.304c0,-1.296 -1.164,-2.088 -2.388,-2.088c-0.528,0 -0.912,0.144 -1.236,0.3l-0.072,-0.036l0.024,-1.512c0.432,0.048 0.768,0.096 1.152,0.096c0.756,0 1.272,-0.264 1.656,-0.696l1.8,0l0,2.256l0.552,0Z" style="fill:#4e4e4e;fill-rule:nonzero;"/><path d="M39.966,46.665l0,0.384l2.04,0l-1.716,3.816l0.48,0l1.68,-3.816l0,-0.384l-2.484,0Z" style="fill:#a6a6a6;fill-rule:nonzero;"/><path d="M45.078,47.799c-0.456,0 -0.828,0.21 -1.044,0.522c-0.024,-0.162 -0.06,-0.456 -0.06,-0.456l-0.354,0l0,3l0.432,0l0,-1.992c0.06,-0.258 0.438,-0.684 0.93,-0.684c0.51,0 0.636,0.264 0.636,1.02l0,1.656l0.432,0l0,-1.8c0,-0.894 -0.3,-1.266 -0.972,-1.266Z" style="fill:#a6a6a6;fill-rule:nonzero;"/><path d="M48.414,48.075c-0.33,0 -0.624,0.114 -0.834,0.33l0.126,-1.356l1.728,0l0,-0.384l-2.1,0l-0.21,2.208l0.396,0.18c0.198,-0.414 0.558,-0.582 0.894,-0.582c0.54,0 0.744,0.39 0.744,1.008c0,0.642 -0.288,1.062 -0.87,1.062c-0.402,0 -0.714,-0.126 -0.906,-0.45l-0.408,0.21c0.282,0.444 0.738,0.63 1.296,0.63c0.834,0 1.35,-0.54 1.35,-1.452c0,-0.924 -0.42,-1.404 -1.206,-1.404Z" style="fill:#a6a6a6;fill-rule:nonzero;"/><path d="M53.112,48.849l-0.942,0l0,-0.942l-0.384,0l0,0.942l-0.948,0l0,0.384l0.948,0l0,0.948l0.384,0l0,-0.948l0.942,0l0,-0.384Z" style="fill:#a6a6a6;fill-rule:nonzero;"/></g><g><path d="M65.282,27.999l0,0.72c0,4.056 1.87,7.008 3.046,8.328l0.312,-0.288c-1.344,-1.68 -2.496,-4.344 -2.496,-8.04l0,-0.72c0,-3.696 1.152,-6.36 2.496,-8.04l-0.312,-0.288c-1.176,1.32 -3.046,4.272 -3.046,8.328Z" style="fill:#4e4e4e;fill-rule:nonzero;"/><path d="M69.817,19.239l0,2.664l-0.744,0.216l0,1.38l0.744,-0.24l0,2.352l-0.744,0.264l0,1.332l0.744,-0.24l0,2.304l0.48,0l0,-2.472l1.488,-0.456l0,2.376l0.48,0l0,-2.568l0.744,-0.264l0,-1.356l-0.744,0.24l0,-2.352l0.744,-0.264l0,-1.356l-0.744,0.24l0,-2.304l-0.48,0l0,2.52l-1.488,0.432l0,-2.448l-0.48,0Zm1.968,3.348l0,2.4l-1.488,0.456l0,-2.4l1.488,-0.456Z" style="fill:#4e4e4e;fill-rule:nonzero;"/><path d="M78.577,25.239l1.104,0l0,-0.552l-1.104,0l0,-2.52l-1.104,1.176l0,1.344l-2.424,0c1.224,-1.824 1.848,-2.64 2.616,-4.2l-1.596,0c-0.408,1.584 -0.9,2.88 -1.74,4.272l0,0.48l3.144,0l0,0.84c0,0.504 -0.444,0.672 -0.78,0.672l-0.24,0l0,0.48l3.024,0l0,-0.48c-0.468,0 -0.9,-0.144 -0.9,-0.672l0,-0.84Z" style="fill:#4e4e4e;fill-rule:nonzero;"/><path d="M79.465,34.095l-0.432,-0.072c-0.168,0.6 -0.456,0.888 -1.056,0.888c-0.888,0 -1.104,-0.24 -2.184,-0.24c0.552,-0.84 1.56,-1.344 1.8,-1.5c0.888,-0.54 1.812,-0.996 1.812,-2.148c0,-1.104 -1.056,-1.872 -2.352,-1.872c-1.488,0 -2.328,1.116 -2.328,1.884c0,0.516 0.3,0.828 0.768,0.828c0.42,0 0.672,-0.276 0.672,-0.624c0,-0.516 -0.348,-0.612 -0.348,-0.888c0,-0.324 0.42,-0.672 1.092,-0.672c0.672,0 1.128,0.408 1.128,1.296c0,0.72 -0.336,1.344 -1.548,2.256c-0.84,0.576 -1.872,1.752 -1.968,2.76l0.48,0c0.168,-0.432 0.36,-0.672 0.816,-0.672c0.72,0 1.392,0.768 2.256,0.768c0.96,0 1.392,-0.96 1.392,-1.992Z" style="fill:#4e4e4e;fill-rule:nonzero;"/><path d="M83.641,28.719l0,-0.72c0,-4.056 -1.872,-7.008 -3.048,-8.328l-0.312,0.288c1.344,1.68 2.496,4.344 2.496,8.04l0,0.72c0,3.696 -1.152,6.36 -2.496,8.04l0.312,0.288c1.176,-1.32 3.048,-4.272 3.048,-8.328Z" style="fill:#4e4e4e;fill-rule:nonzero;"/><path d="M67.942,52.179l0.348,-0.174c-0.06,-0.084 -0.93,-1.278 -0.93,-2.904c0,-1.632 0.882,-2.826 0.93,-2.892l-0.348,-0.18c-0.114,0.162 -1.007,1.278 -1.007,3.072c0,1.794 0.887,2.916 1.007,3.078Z" style="fill:#a6a6a6;fill-rule:nonzero;"/><path d="M70.93,50.931c0.601,0 1.278,-0.27 1.29,-0.906c0.012,-0.684 -0.959,-0.852 -1.23,-0.924c-0.198,-0.06 -0.738,-0.162 -0.738,-0.486c0,-0.336 0.474,-0.432 0.732,-0.432c0.253,0 0.601,0.096 0.751,0.336l0.365,-0.24c-0.209,-0.33 -0.695,-0.486 -1.116,-0.486c-0.51,0 -1.205,0.234 -1.193,0.81c0.012,0.636 0.833,0.822 1.133,0.9c0.216,0.06 0.835,0.174 0.835,0.534c0,0.372 -0.432,0.504 -0.817,0.504c-0.348,0 -0.768,-0.126 -0.912,-0.336l-0.377,0.252c0.252,0.33 0.803,0.474 1.277,0.474Z" style="fill:#a6a6a6;fill-rule:nonzero;"/><path d="M75.862,49.515l-0.738,0l0,-2.85l-0.899,0l-0.996,2.85l0,0.39l1.47,0l0,0.96l0.425,0l0,-0.96l0.738,0l0,-0.39Zm-2.189,0l0.858,-2.466l0.168,0l0,2.466l-1.026,0Z" style="fill:#a6a6a6;fill-rule:nonzero;"/><path d="M78.287,49.773c0.612,-0.636 1.061,-1.284 1.061,-1.938c0,-0.642 -0.401,-1.206 -1.199,-1.206c-0.546,0 -1.05,0.252 -1.284,0.666l0.408,0.216c0.144,-0.288 0.486,-0.492 0.864,-0.492c0.48,0 0.756,0.348 0.756,0.816c0,0.522 -0.396,1.146 -0.954,1.698c-0.282,0.306 -0.66,0.624 -1.068,0.948l0,0.384l2.465,0l0,-0.384l-1.817,0c0.054,-0.024 0.48,-0.396 0.768,-0.708Z" style="fill:#a6a6a6;fill-rule:nonzero;"/><path d="M80.981,52.179c0.12,-0.162 1.007,-1.284 1.007,-3.078c0,-1.794 -0.893,-2.91 -1.007,-3.072l-0.348,0.18c0.048,0.066 0.93,1.26 0.93,2.892c0,1.626 -0.87,2.82 -0.93,2.904l0.348,0.174Z" style="fill:#a6a6a6;fill-rule:nonzero;"/></g><g><path d="M94.465,36.52l0,-16.345l1.704,0l0,-0.575l-2.278,0l0,17.495l2.278,0l0,-0.575l-1.704,0Z" style="fill:#4e4e4e;fill-rule:nonzero;"/><path d="M103.802,23.343l0,-2.256l2.16,0l0,-0.552l-2.16,0l0,-2.232l-0.552,0l0,2.232l-1.848,0c-0.672,0.048 -0.888,0.072 -1.44,0.072c-0.576,0 -1.128,-0.048 -1.824,-0.12l-0.048,3.312l0.312,0.168c0.336,-0.312 0.756,-0.48 1.248,-0.48c0.708,0 1.392,0.432 1.392,1.512c0,1.104 -0.564,1.824 -1.428,1.824c-0.588,0 -0.912,-0.252 -0.912,-0.576c0,-0.312 0.252,-0.432 0.252,-0.804c0,-0.408 -0.3,-0.66 -0.648,-0.66c-0.468,0 -0.804,0.372 -0.804,0.876c0,0.768 0.876,1.668 2.292,1.668c1.416,0 2.52,-0.948 2.52,-2.304c0,-1.296 -1.164,-2.088 -2.388,-2.088c-0.528,0 -0.912,0.144 -1.236,0.3l-0.072,-0.036l0.024,-1.512c0.432,0.048 0.768,0.096 1.152,0.096c0.756,0 1.272,-0.264 1.656,-0.696l1.8,0l0,2.256l0.552,0Z" style="fill:#4e4e4e;fill-rule:nonzero;"/><path d="M101.426,33.999l1.104,0l0,-0.552l-1.104,0l0,-2.52l-1.104,1.176l0,1.344l-2.424,0c1.224,-1.824 1.848,-2.64 2.616,-4.2l-1.596,0c-0.408,1.584 -0.9,2.88 -1.74,4.272l0,0.48l3.144,0l0,0.84c0,0.504 -0.444,0.672 -0.78,0.672l-0.24,0l0,0.48l3.024,0l0,-0.48c-0.468,0 -0.9,-0.144 -0.9,-0.672l0,-0.84Z" style="fill:#4e4e4e;fill-rule:nonzero;"/><path d="M108.314,20.175l0,16.344l-1.704,0l0,0.576l2.28,0l0,-17.496l-2.28,0l0,0.576l1.704,0Z" style="fill:#4e4e4e;fill-rule:nonzero;"/><path d="M95.273,46.449l0,-0.384l-1.343,0l0,6l1.343,0l0,-0.384l-0.918,0l0,-5.232l0.918,0Z" style="fill:#a6a6a6;fill-rule:nonzero;"/><path d="M97.848,48.075c-0.33,0 -0.624,0.114 -0.834,0.33l0.126,-1.356l1.727,0l0,-0.384l-2.099,0l-0.21,2.208l0.396,0.18c0.198,-0.414 0.558,-0.582 0.894,-0.582c0.54,0 0.744,0.39 0.744,1.008c0,0.642 -0.288,1.062 -0.87,1.062c-0.402,0 -0.714,-0.126 -0.906,-0.45l-0.408,0.21c0.282,0.444 0.738,0.63 1.296,0.63c0.834,0 1.349,-0.54 1.349,-1.452c0,-0.924 -0.42,-1.404 -1.205,-1.404Z" style="fill:#a6a6a6;fill-rule:nonzero;"/><path d="M102.545,48.849l-0.942,0l0,-0.942l-0.383,0l0,0.942l-0.948,0l0,0.384l0.948,0l0,0.948l0.383,0l0,-0.948l0.942,0l0,-0.384Z" style="fill:#a6a6a6;fill-rule:nonzero;"/><path d="M106.337,49.515l-0.738,0l0,-2.85l-0.899,0l-0.996,2.85l0,0.39l1.47,0l0,0.96l0.425,0l0,-0.96l0.738,0l0,-0.39Zm-2.189,0l0.858,-2.466l0.168,0l0,2.466l-1.026,0Z" style="fill:#a6a6a6;fill-rule:nonzero;"/><path d="M108.851,46.065l-1.343,0l0,0.384l0.918,0l0,5.232l-0.918,0l0,0.384l1.343,0l0,-6Z" style="fill:#a6a6a6;fill-rule:nonzero;"/></g></g></svg>