<?xml version="1.0" encoding="UTF-8" standalone="no"?><!DOCTYPE svg PUBLIC "-//W3C//DTD SVG 1.1//EN" "http://www.w3.org/Graphics/SVG/1.1/DTD/svg11.dtd"><svg width="100%" height="100%" viewBox="0 0 73 73" version="1.1" xmlns="http://www.w3.org/2000/svg" xmlns:xlink="http://www.w3.org/1999/xlink" xml:space="preserve" xmlns:serif="http://www.serif.com/" style="fill-rule:evenodd;clip-rule:evenodd;stroke-linejoin:round;stroke-miterlimit:1.41421;"><path d="M21.872,13.632c0.592,0 0.912,-0.448 0.912,-1.008c0,-0.832 -0.896,-1.744 -2.464,-1.744c-1.76,0 -3.52,1.664 -3.52,4.704c0,2.304 0.992,4.544 3.392,4.544c1.76,0 3.104,-1.216 3.104,-2.88c0,-1.408 -1.152,-2.624 -2.912,-2.624c-0.896,0 -1.6,0.416 -2.048,0.96c0,-1.92 0.256,-4.032 2.016,-4.032c0.432,0 0.704,0.208 0.704,0.464c0,0.24 -0.096,0.464 -0.096,0.704c0,0.528 0.352,0.912 0.912,0.912Zm-1.68,1.728c0.992,0 1.472,0.768 1.472,1.92c0,1.216 -0.576,2.144 -1.664,2.144c-0.96,0 -1.504,-0.736 -1.504,-1.984c0,-1.216 0.672,-2.08 1.696,-2.08Z" style="fill-rule:nonzero;"/><path d="M22.096,29.024l1.472,0l0,-0.736l-1.472,0l0,-3.36l-1.472,1.568l0,1.792l-3.232,0c1.632,-2.432 2.464,-3.52 3.488,-5.6l-2.128,0c-0.544,2.112 -1.2,3.84 -2.32,5.696l0,0.64l4.192,0l0,1.12c0,0.672 -0.592,0.896 -1.04,0.896l-0.32,0l0,0.64l4.032,0l0,-0.64c-0.624,0 -1.2,-0.192 -1.2,-0.896l0,-1.12Z" style="fill-rule:nonzero;"/><path d="M23.28,40.832l-0.576,-0.096c-0.224,0.8 -0.608,1.184 -1.408,1.184c-1.184,0 -1.472,-0.32 -2.912,-0.32c0.736,-1.12 2.08,-1.792 2.4,-2c1.184,-0.72 2.416,-1.328 2.416,-2.864c0,-1.472 -1.408,-2.496 -3.136,-2.496c-1.984,0 -3.104,1.488 -3.104,2.512c0,0.688 0.4,1.104 1.024,1.104c0.56,0 0.896,-0.368 0.896,-0.832c0,-0.688 -0.464,-0.816 -0.464,-1.184c0,-0.432 0.56,-0.896 1.456,-0.896c0.896,0 1.504,0.544 1.504,1.728c0,0.96 -0.448,1.792 -2.064,3.008c-1.12,0.768 -2.496,2.336 -2.624,3.68l0.64,0c0.224,-0.576 0.48,-0.896 1.088,-0.896c0.96,0 1.856,1.024 3.008,1.024c1.28,0 1.856,-1.28 1.856,-2.656Z" style="fill-rule:nonzero;"/><path d="M44.064,7.904l-0.704,0l0,12.832l0.32,0c1.728,-2.08 4.416,-2.048 4.416,-4.672c0,-1.344 -1.056,-1.952 -2.08,-1.952c-0.96,0 -1.504,0.544 -1.952,0.992l0,-7.2Zm0,11.68l0.032,-3.776c0,0 0.544,-0.608 1.28,-0.608c0.576,0 1.12,0.352 1.12,1.28c0,1.44 -1.248,1.984 -2.432,3.104Z" style="fill-rule:nonzero;"/><path d="M51.264,11.008l-0.64,0l-0.192,3.424l0.608,0c0.224,-1.92 0.896,-2.048 1.376,-2.048c0.672,0 2.272,0.512 2.976,0.608c-1.44,2.464 -3.328,4.288 -3.328,6.048c0,0.672 0.48,1.056 0.96,1.056c0.48,0 0.96,-0.352 1.024,-1.216c0.224,-2.88 2.016,-4.896 2.656,-7.872l-0.704,0c-0.128,0.416 -0.448,0.736 -0.896,0.736c-0.768,0 -0.928,-0.864 -2.048,-0.864c-0.928,0 -1.28,0.704 -1.568,0.704c-0.224,0 -0.224,-0.192 -0.224,-0.576Z" style="fill-rule:nonzero;"/><path d="M52.288,40.944c0,-0.544 -0.4,-0.88 -0.864,-0.88c-0.624,0 -1.072,0.496 -1.072,1.168c0,1.056 1.152,2.256 3.04,2.256c2.112,0 3.408,-0.976 3.408,-2.464c0,-1.2 -0.864,-1.936 -1.936,-2.288l0,-0.176c0.8,-0.304 1.664,-0.8 1.664,-2.048c0,-1.232 -1.136,-2.272 -2.816,-2.272c-1.696,0 -2.8,1.184 -2.8,2.176c0,0.704 0.496,1.104 0.96,1.104c0.576,0 0.88,-0.4 0.88,-0.832c0,-0.704 -0.512,-0.736 -0.512,-1.104c0,-0.272 0.352,-0.672 1.136,-0.672c0.816,0 1.536,0.528 1.536,1.616c0,1.024 -0.688,1.808 -2.352,1.84l0,0.576c1.824,0 2.512,0.912 2.512,1.984c0,1.168 -0.768,1.888 -1.792,1.888c-0.752,0 -1.328,-0.32 -1.328,-0.8c0,-0.416 0.336,-0.576 0.336,-1.072Z" style="fill-rule:nonzero;"/><path d="M11.974,59.644c0,-1.403 0.273,-2.452 0.818,-3.147c0.545,-0.695 1.352,-1.042 2.419,-1.042c0.368,0 0.658,0.031 0.87,0.093l0,0.698c-0.251,-0.082 -0.538,-0.122 -0.86,-0.122c-0.765,0 -1.349,0.238 -1.753,0.715c-0.403,0.477 -0.625,1.226 -0.664,2.249l0.059,0c0.358,-0.56 0.924,-0.84 1.699,-0.84c0.641,0 1.147,0.193 1.516,0.581c0.37,0.387 0.554,0.913 0.554,1.577c0,0.742 -0.202,1.326 -0.608,1.75c-0.405,0.425 -0.953,0.638 -1.643,0.638c-0.739,0 -1.325,-0.278 -1.757,-0.833c-0.433,-0.555 -0.65,-1.327 -0.65,-2.317Zm2.398,2.461c0.462,0 0.821,-0.145 1.076,-0.437c0.256,-0.291 0.384,-0.712 0.384,-1.262c0,-0.472 -0.119,-0.843 -0.357,-1.113c-0.238,-0.271 -0.592,-0.406 -1.064,-0.406c-0.293,0 -0.562,0.061 -0.806,0.181c-0.244,0.121 -0.439,0.287 -0.584,0.498c-0.144,0.212 -0.217,0.431 -0.217,0.659c0,0.336 0.065,0.648 0.196,0.938c0.13,0.29 0.314,0.519 0.554,0.688c0.239,0.17 0.512,0.254 0.818,0.254Z" style="fill-rule:nonzero;"/><path d="M22.638,61.055l-1.059,0l0,1.641l-0.777,0l0,-1.641l-3.471,0l0,-0.708l3.388,-4.829l0.86,0l0,4.8l1.059,0l0,0.737Zm-1.836,-0.737l0,-2.373c0,-0.465 0.017,-0.991 0.049,-1.577l-0.039,0c-0.156,0.312 -0.303,0.571 -0.439,0.776l-2.232,3.174l2.661,0Z" style="fill-rule:nonzero;"/><path d="M28.019,62.696l-4.692,0l0,-0.698l1.88,-1.89c0.572,-0.579 0.95,-0.993 1.132,-1.24c0.183,-0.248 0.319,-0.488 0.411,-0.723c0.091,-0.234 0.136,-0.486 0.136,-0.757c0,-0.38 -0.115,-0.682 -0.346,-0.905c-0.232,-0.223 -0.552,-0.335 -0.962,-0.335c-0.297,0 -0.577,0.049 -0.843,0.147c-0.265,0.097 -0.56,0.275 -0.886,0.532l-0.43,-0.552c0.658,-0.547 1.374,-0.82 2.149,-0.82c0.67,0 1.196,0.172 1.577,0.515c0.381,0.343 0.571,0.805 0.571,1.384c0,0.453 -0.127,0.9 -0.381,1.343c-0.253,0.443 -0.729,1.003 -1.425,1.68l-1.563,1.528l0,0.039l3.672,0l0,0.752Z" style="fill-rule:nonzero;"/><g transform="matrix(1,0,0,1,41.8359,39)"><path d="M3.842,18.257c0.703,0 1.249,0.24 1.638,0.72c0.389,0.48 0.584,1.159 0.584,2.038c0,0.879 -0.196,1.562 -0.588,2.049c-0.393,0.486 -0.937,0.73 -1.634,0.73c-0.348,0 -0.666,-0.065 -0.954,-0.193c-0.288,-0.129 -0.53,-0.327 -0.725,-0.593l-0.059,0l-0.171,0.688l-0.581,0l0,-7.598l0.811,0l0,1.846c0,0.413 -0.013,0.785 -0.039,1.113l0.039,0c0.377,-0.534 0.937,-0.8 1.679,-0.8Zm-0.117,0.678c-0.553,0 -0.952,0.159 -1.196,0.476c-0.244,0.318 -0.366,0.852 -0.366,1.604c0,0.752 0.125,1.29 0.376,1.614c0.25,0.324 0.652,0.486 1.206,0.486c0.498,0 0.869,-0.182 1.113,-0.544c0.244,-0.363 0.366,-0.885 0.366,-1.565c0,-0.697 -0.122,-1.216 -0.366,-1.558c-0.244,-0.342 -0.622,-0.513 -1.133,-0.513Z" style="fill-rule:nonzero;"/><path d="M8.012,23.696l2.959,-6.392l-3.891,0l0,-0.747l4.751,0l0,0.65l-2.92,6.489l-0.899,0Z" style="fill-rule:nonzero;"/><path d="M13.047,22.534l0.074,0.112c-0.085,0.326 -0.207,0.704 -0.367,1.135c-0.159,0.432 -0.325,0.833 -0.498,1.204l-0.61,0c0.088,-0.338 0.185,-0.757 0.291,-1.255c0.105,-0.498 0.179,-0.897 0.222,-1.196l0.888,0Z" style="fill-rule:nonzero;"/><path d="M18.702,18.237c0,0.456 -0.128,0.828 -0.384,1.118c-0.255,0.29 -0.617,0.484 -1.086,0.581l0,0.039c0.573,0.072 0.998,0.254 1.274,0.547c0.277,0.293 0.415,0.677 0.415,1.153c0,0.68 -0.236,1.203 -0.708,1.569c-0.472,0.367 -1.142,0.55 -2.011,0.55c-0.378,0 -0.724,-0.029 -1.038,-0.086c-0.314,-0.057 -0.619,-0.157 -0.915,-0.3l0,-0.772c0.309,0.153 0.638,0.27 0.988,0.35c0.35,0.079 0.681,0.119 0.994,0.119c1.234,0 1.851,-0.483 1.851,-1.45c0,-0.866 -0.681,-1.299 -2.041,-1.299l-0.704,0l0,-0.698l0.713,0c0.557,0 0.998,-0.123 1.324,-0.369c0.325,-0.246 0.488,-0.586 0.488,-1.023c0,-0.348 -0.12,-0.621 -0.359,-0.82c-0.239,-0.199 -0.564,-0.298 -0.974,-0.298c-0.313,0 -0.607,0.042 -0.884,0.127c-0.277,0.085 -0.592,0.241 -0.947,0.469l-0.41,-0.547c0.293,-0.231 0.63,-0.413 1.013,-0.544c0.382,-0.132 0.785,-0.198 1.208,-0.198c0.694,0 1.232,0.158 1.616,0.476c0.385,0.317 0.577,0.753 0.577,1.306Z" style="fill-rule:nonzero;"/></g></svg>