<?xml version="1.0" encoding="UTF-8" standalone="no"?><!DOCTYPE svg PUBLIC "-//W3C//DTD SVG 1.1//EN" "http://www.w3.org/Graphics/SVG/1.1/DTD/svg11.dtd"><svg width="100%" height="100%" viewBox="0 0 100 100" version="1.1" xmlns="http://www.w3.org/2000/svg" xmlns:xlink="http://www.w3.org/1999/xlink" xml:space="preserve" xmlns:serif="http://www.serif.com/" style="fill-rule:evenodd;clip-rule:evenodd;stroke-linejoin:round;stroke-miterlimit:1.41421;"><path d="M30.071,18.74c0.789,0 1.25,-0.614 1.25,-1.381c0,-1.14 -1.25,-2.455 -3.42,-2.455c-2.454,0 -4.887,2.367 -4.887,6.619c0,3.091 1.315,6.05 4.624,6.05c2.346,0 4.209,-1.622 4.209,-3.924c0,-1.907 -1.557,-3.594 -3.989,-3.594c-1.184,0 -2.126,0.526 -2.74,1.227c0.066,-2.586 0.482,-5.435 2.827,-5.435c0.614,0 1.03,0.263 1.03,0.635c0,0.351 -0.153,0.658 -0.153,1.008c0,0.724 0.46,1.25 1.249,1.25Zm-0.46,4.844c0,1.709 -0.789,3.024 -2.279,3.024c-1.337,0 -2.061,-0.986 -2.061,-2.63c0,-1.71 0.921,-2.937 2.324,-2.937c1.38,0 2.016,1.03 2.016,2.543Z" style="fill-rule:nonzero;"/><path d="M30.268,39.759l2.017,0l0,-1.008l-2.017,0l0,-4.603l-2.016,2.148l0,2.455l-4.427,0c2.235,-3.332 3.375,-4.822 4.778,-7.672l-2.915,0c-0.746,2.894 -1.644,5.261 -3.178,7.803l0,0.877l5.742,0l0,1.534c0,0.921 -0.811,1.228 -1.425,1.228l-0.438,0l0,0.876l5.523,0l0,-0.876c-0.854,0 -1.644,-0.263 -1.644,-1.228l0,-1.534Z" style="fill-rule:nonzero;"/><path d="M31.89,55.934l-0.789,-0.131c-0.306,1.096 -0.833,1.622 -1.928,1.622c-1.622,0 -2.017,-0.439 -3.989,-0.439c1.008,-1.534 2.849,-2.454 3.287,-2.739c1.622,-0.987 3.31,-1.82 3.31,-3.924c0,-2.016 -1.929,-3.419 -4.296,-3.419c-2.718,0 -4.252,2.038 -4.252,3.441c0,0.943 0.548,1.513 1.403,1.513c0.767,0 1.227,-0.505 1.227,-1.14c0,-0.943 -0.636,-1.118 -0.636,-1.622c0,-0.592 0.768,-1.228 1.995,-1.228c1.227,0 2.06,0.746 2.06,2.368c0,1.315 -0.614,2.454 -2.827,4.12c-1.534,1.052 -3.419,3.2 -3.595,5.041l0.877,0c0.307,-0.789 0.658,-1.227 1.49,-1.227c1.315,0 2.543,1.403 4.121,1.403c1.753,0 2.542,-1.754 2.542,-3.639Z" style="fill-rule:nonzero;"/><path d="M60.362,10.827l-0.965,0l0,17.578l0.439,0c2.367,-2.849 6.049,-2.805 6.049,-6.4c0,-1.841 -1.447,-2.673 -2.849,-2.673c-1.315,0 -2.061,0.745 -2.674,1.358l0,-9.863Zm0,16l0.043,-5.172c0,0 0.746,-0.833 1.754,-0.833c0.789,0 1.534,0.482 1.534,1.753c0,1.973 -1.709,2.718 -3.331,4.252Z" style="fill-rule:nonzero;"/><path d="M70.225,15.079l-0.877,0l-0.263,4.691l0.833,0c0.307,-2.63 1.227,-2.806 1.885,-2.806c0.92,0 3.112,0.702 4.076,0.833c-1.972,3.376 -4.558,5.874 -4.558,8.285c0,0.921 0.657,1.447 1.315,1.447c0.657,0 1.315,-0.482 1.402,-1.666c0.307,-3.945 2.762,-6.707 3.639,-10.784l-0.965,0c-0.175,0.57 -0.613,1.009 -1.227,1.009c-1.052,0 -1.271,-1.184 -2.806,-1.184c-1.271,0 -1.753,0.964 -2.147,0.964c-0.307,0 -0.307,-0.263 -0.307,-0.789Z" style="fill-rule:nonzero;"/><path d="M71.627,56.088c0,-0.746 -0.548,-1.206 -1.183,-1.206c-0.855,0 -1.469,0.68 -1.469,1.6c0,1.447 1.578,3.091 4.165,3.091c2.893,0 4.668,-1.337 4.668,-3.376c0,-1.644 -1.183,-2.652 -2.652,-3.134l0,-0.241c1.096,-0.417 2.28,-1.096 2.28,-2.806c0,-1.687 -1.557,-3.112 -3.858,-3.112c-2.323,0 -3.836,1.622 -3.836,2.981c0,0.964 0.68,1.512 1.316,1.512c0.789,0 1.205,-0.548 1.205,-1.139c0,-0.965 -0.701,-1.009 -0.701,-1.513c0,-0.372 0.482,-0.92 1.556,-0.92c1.118,0 2.104,0.723 2.104,2.213c0,1.403 -0.943,2.477 -3.222,2.521l0,0.789c2.499,0 3.441,1.249 3.441,2.718c0,1.6 -1.052,2.586 -2.455,2.586c-1.03,0 -1.819,-0.438 -1.819,-1.096c0,-0.57 0.46,-0.789 0.46,-1.468Z" style="fill-rule:nonzero;"/><path d="M16.403,81.704c0,-1.921 0.373,-3.358 1.12,-4.31c0.747,-0.953 1.852,-1.429 3.315,-1.429c0.503,0 0.9,0.043 1.19,0.128l0,0.956c-0.343,-0.111 -0.736,-0.167 -1.177,-0.167c-1.048,0 -1.848,0.326 -2.401,0.98c-0.553,0.653 -0.856,1.68 -0.91,3.08l0.08,0c0.491,-0.767 1.267,-1.151 2.328,-1.151c0.878,0 1.571,0.266 2.077,0.796c0.506,0.531 0.759,1.251 0.759,2.161c0,1.017 -0.278,1.816 -0.833,2.398c-0.555,0.582 -1.305,0.873 -2.251,0.873c-1.012,0 -1.814,-0.38 -2.407,-1.141c-0.594,-0.76 -0.89,-1.818 -0.89,-3.174Zm3.284,3.372c0.633,0 1.125,-0.2 1.475,-0.599c0.35,-0.399 0.525,-0.976 0.525,-1.729c0,-0.647 -0.163,-1.155 -0.488,-1.525c-0.326,-0.37 -0.812,-0.555 -1.458,-0.555c-0.402,0 -0.77,0.082 -1.104,0.247c-0.334,0.165 -0.601,0.393 -0.799,0.682c-0.199,0.29 -0.298,0.591 -0.298,0.903c0,0.46 0.089,0.888 0.268,1.285c0.178,0.397 0.431,0.711 0.759,0.943c0.327,0.232 0.701,0.348 1.12,0.348Z" style="fill-rule:nonzero;"/><path d="M31.011,83.638l-1.451,-0.001l0,2.248l-1.064,0l0,-2.248l-4.755,0.001l0,-0.97l4.642,-6.616l1.177,0l0,6.575l1.451,0l0,1.01Zm-2.515,-1.01l0,-3.25c0,-0.638 0.023,-1.358 0.067,-2.161l-0.053,0c-0.214,0.428 -0.415,0.783 -0.602,1.064l-3.057,4.347l3.645,0Z" style="fill-rule:nonzero;"/><path d="M38.382,85.885l-6.428,0l0,-0.957l2.576,-2.588c0.784,-0.794 1.302,-1.36 1.551,-1.699c0.25,-0.339 0.437,-0.669 0.562,-0.99c0.125,-0.321 0.187,-0.667 0.187,-1.037c0,-0.522 -0.158,-0.935 -0.474,-1.241c-0.317,-0.305 -0.756,-0.458 -1.318,-0.458c-0.406,0 -0.791,0.067 -1.154,0.201c-0.363,0.134 -0.768,0.377 -1.214,0.729l-0.589,-0.756c0.901,-0.749 1.882,-1.124 2.943,-1.124c0.919,0 1.639,0.236 2.161,0.706c0.522,0.471 0.783,1.103 0.783,1.896c0,0.62 -0.174,1.233 -0.522,1.84c-0.348,0.606 -0.999,1.373 -1.953,2.301l-2.141,2.093l0,0.054l5.03,0l0,1.03Z" style="fill-rule:nonzero;"/><g transform="matrix(1.36986,0,0,1.36986,57.3095,53.4247)"><g transform="matrix(10,0,0,10,0.492676,23.696)"><path d="M0.335,-0.544c0.07,0 0.125,0.024 0.164,0.072c0.039,0.048 0.058,0.116 0.058,0.204c0,0.088 -0.019,0.156 -0.059,0.205c-0.039,0.048 -0.093,0.073 -0.163,0.073c-0.035,0 -0.067,-0.007 -0.095,-0.02c-0.029,-0.012 -0.053,-0.032 -0.073,-0.059l-0.006,0l-0.017,0.069l-0.058,0l0,-0.76l0.081,0l0,0.185c0,0.041 -0.001,0.078 -0.004,0.111l0.004,0c0.038,-0.053 0.094,-0.08 0.168,-0.08Zm-0.012,0.068c-0.055,0 -0.095,0.016 -0.119,0.048c-0.025,0.031 -0.037,0.085 -0.037,0.16c0,0.075 0.013,0.129 0.038,0.161c0.025,0.033 0.065,0.049 0.12,0.049c0.05,0 0.087,-0.018 0.112,-0.055c0.024,-0.036 0.036,-0.088 0.036,-0.156c0,-0.07 -0.012,-0.122 -0.036,-0.156c-0.025,-0.034 -0.063,-0.051 -0.114,-0.051Z" style="fill-rule:nonzero;"/></g><g transform="matrix(10,0,0,10,6.62061,23.696)"><path d="M0.139,0l0.296,-0.639l-0.389,0l0,-0.075l0.475,0l0,0.065l-0.292,0.649l-0.09,0Z" style="fill-rule:nonzero;"/></g><g transform="matrix(10,0,0,10,11.3384,23.696)"><path d="M0.171,-0.116l0.007,0.011c-0.008,0.033 -0.02,0.07 -0.036,0.114c-0.016,0.043 -0.033,0.083 -0.05,0.12l-0.061,0c0.009,-0.034 0.018,-0.076 0.029,-0.126c0.01,-0.049 0.018,-0.089 0.022,-0.119l0.089,0Z" style="fill-rule:nonzero;"/></g><g transform="matrix(10,0,0,10,13.7896,23.696)"><path d="M0.491,-0.546c0,0.046 -0.013,0.083 -0.038,0.112c-0.026,0.029 -0.062,0.048 -0.109,0.058l0,0.004c0.058,0.007 0.1,0.025 0.128,0.055c0.027,0.029 0.041,0.067 0.041,0.115c0,0.068 -0.023,0.12 -0.071,0.157c-0.047,0.036 -0.114,0.055 -0.201,0.055c-0.038,0 -0.072,-0.003 -0.104,-0.009c-0.031,-0.005 -0.061,-0.015 -0.091,-0.03l0,-0.077c0.031,0.015 0.064,0.027 0.099,0.035c0.035,0.008 0.068,0.012 0.099,0.012c0.124,0 0.185,-0.048 0.185,-0.145c0,-0.087 -0.068,-0.13 -0.204,-0.13l-0.07,0l0,-0.07l0.071,0c0.056,0 0.1,-0.012 0.132,-0.037c0.033,-0.024 0.049,-0.058 0.049,-0.102c0,-0.035 -0.012,-0.062 -0.036,-0.082c-0.024,-0.02 -0.056,-0.03 -0.097,-0.03c-0.031,0 -0.061,0.004 -0.088,0.013c-0.028,0.008 -0.06,0.024 -0.095,0.047l-0.041,-0.055c0.029,-0.023 0.063,-0.041 0.101,-0.054c0.038,-0.014 0.079,-0.02 0.121,-0.02c0.069,0 0.123,0.016 0.162,0.047c0.038,0.032 0.057,0.076 0.057,0.131Z" style="fill-rule:nonzero;"/></g></g></svg>