<?xml version="1.0" encoding="UTF-8" standalone="no"?><!DOCTYPE svg PUBLIC "-//W3C//DTD SVG 1.1//EN" "http://www.w3.org/Graphics/SVG/1.1/DTD/svg11.dtd"><svg width="100%" height="100%" viewBox="0 0 110 73" version="1.1" xmlns="http://www.w3.org/2000/svg" xmlns:xlink="http://www.w3.org/1999/xlink" xml:space="preserve" xmlns:serif="http://www.serif.com/" style="fill-rule:evenodd;clip-rule:evenodd;stroke-linejoin:round;stroke-miterlimit:1.41421;"><g><path d="M41.772,44.065l0,-33.474l2.112,0l0,-0.766l-2.878,0l0,35.006l2.878,0l0,-0.766l-2.112,0Z" style="fill-rule:nonzero;"/><path d="M48.141,11.008l-0.64,0l-0.192,3.424l0.608,0c0.224,-1.92 0.896,-2.048 1.376,-2.048c0.672,0 2.272,0.512 2.976,0.608c-1.44,2.464 -3.328,4.288 -3.328,6.048c0,0.672 0.48,1.056 0.96,1.056c0.48,0 0.96,-0.352 1.024,-1.216c0.224,-2.88 2.016,-4.896 2.656,-7.872l-0.704,0c-0.128,0.416 -0.448,0.736 -0.896,0.736c-0.768,0 -0.928,-0.864 -2.048,-0.864c-0.928,0 -1.28,0.704 -1.568,0.704c-0.224,0 -0.224,-0.192 -0.224,-0.576Z" style="fill-rule:nonzero;"/><path d="M50.493,25.952c-0.704,0 -1.216,0.192 -1.648,0.4l-0.096,-0.048l0.032,-2.016c0.576,0.064 1.024,0.128 1.536,0.128c1.472,0 2.208,-0.608 2.752,-1.504l-0.16,-0.224c-0.896,0.128 -1.632,0.16 -2.368,0.16c-0.768,0 -1.504,-0.064 -2.432,-0.16l-0.064,4.416l0.416,0.224c0.448,-0.416 1.008,-0.64 1.664,-0.64c0.944,0 1.856,0.576 1.856,2.016c0,1.472 -0.752,2.432 -1.904,2.432c-0.784,0 -1.216,-0.336 -1.216,-0.768c0,-0.416 0.336,-0.576 0.336,-1.072c0,-0.544 -0.4,-0.88 -0.864,-0.88c-0.624,0 -1.072,0.496 -1.072,1.168c0,1.024 1.168,2.224 3.056,2.224c1.888,0 3.36,-1.264 3.36,-3.072c0,-1.728 -1.552,-2.784 -3.184,-2.784Z" style="fill-rule:nonzero;"/><path d="M49.165,40.944c0,-0.544 -0.4,-0.88 -0.864,-0.88c-0.624,0 -1.072,0.496 -1.072,1.168c0,1.056 1.152,2.256 3.04,2.256c2.112,0 3.408,-0.976 3.408,-2.464c0,-1.2 -0.864,-1.936 -1.936,-2.288l0,-0.176c0.8,-0.304 1.664,-0.8 1.664,-2.048c0,-1.232 -1.136,-2.272 -2.816,-2.272c-1.696,0 -2.8,1.184 -2.8,2.176c0,0.704 0.496,1.104 0.96,1.104c0.576,0 0.88,-0.4 0.88,-0.832c0,-0.704 -0.512,-0.736 -0.512,-1.104c0,-0.272 0.352,-0.672 1.136,-0.672c0.816,0 1.536,0.528 1.536,1.616c0,1.024 -0.688,1.808 -2.352,1.84l0,0.576c1.824,0 2.512,0.912 2.512,1.984c0,1.168 -0.768,1.888 -1.792,1.888c-0.752,0 -1.328,-0.32 -1.328,-0.8c0,-0.416 0.336,-0.576 0.336,-1.072Z" style="fill-rule:nonzero;"/><path d="M59.117,10.592l0,33.472l-2.112,0l0,0.768l2.88,0l0,-35.008l-2.88,0l0,0.768l2.112,0Z" style="fill-rule:nonzero;"/><path d="M41.551,64.278l-2.231,0l0,-8.721l2.231,0l0,0.689l-1.411,0l0,7.339l1.411,0l0,0.693Z" style="fill-rule:nonzero;"/><path d="M43.192,62.696l2.959,-6.392l-3.892,0l0,-0.747l4.751,0l0,0.65l-2.92,6.489l-0.898,0Z" style="fill-rule:nonzero;"/><path d="M50.238,58.336c0.752,0 1.343,0.186 1.775,0.559c0.431,0.372 0.647,0.883 0.647,1.53c0,0.739 -0.236,1.319 -0.706,1.739c-0.47,0.42 -1.119,0.63 -1.946,0.63c-0.804,0 -1.418,-0.129 -1.841,-0.386l0,-0.781c0.228,0.146 0.511,0.261 0.85,0.344c0.338,0.083 0.672,0.124 1.001,0.124c0.573,0 1.018,-0.135 1.335,-0.405c0.318,-0.27 0.476,-0.661 0.476,-1.172c0,-0.996 -0.61,-1.494 -1.831,-1.494c-0.309,0 -0.722,0.047 -1.24,0.142l-0.42,-0.269l0.269,-3.34l3.55,0l0,0.747l-2.857,0l-0.181,2.144c0.375,-0.075 0.748,-0.112 1.119,-0.112Z" style="fill-rule:nonzero;"/><path d="M58.148,57.237c0,0.456 -0.128,0.828 -0.384,1.118c-0.255,0.29 -0.617,0.484 -1.086,0.581l0,0.039c0.573,0.072 0.998,0.254 1.274,0.547c0.277,0.293 0.416,0.677 0.416,1.153c0,0.68 -0.236,1.203 -0.708,1.569c-0.473,0.367 -1.143,0.55 -2.012,0.55c-0.378,0 -0.724,-0.029 -1.038,-0.086c-0.314,-0.057 -0.619,-0.157 -0.915,-0.3l0,-0.772c0.309,0.153 0.638,0.27 0.988,0.35c0.35,0.079 0.682,0.119 0.994,0.119c1.234,0 1.851,-0.483 1.851,-1.45c0,-0.866 -0.681,-1.299 -2.041,-1.299l-0.703,0l0,-0.698l0.712,0c0.557,0 0.998,-0.123 1.324,-0.369c0.325,-0.246 0.488,-0.586 0.488,-1.023c0,-0.348 -0.12,-0.621 -0.359,-0.82c-0.239,-0.199 -0.564,-0.298 -0.974,-0.298c-0.313,0 -0.607,0.042 -0.884,0.127c-0.277,0.085 -0.592,0.241 -0.947,0.469l-0.41,-0.547c0.293,-0.231 0.63,-0.413 1.013,-0.544c0.382,-0.132 0.785,-0.198 1.208,-0.198c0.694,0 1.232,0.158 1.617,0.476c0.384,0.317 0.576,0.753 0.576,1.306Z" style="fill-rule:nonzero;"/><path d="M59.202,63.585l1.412,0l0,-7.339l-1.412,0l0,-0.689l2.232,0l0,8.721l-2.232,0l0,-0.693Z" style="fill-rule:nonzero;"/></g><g><path d="M23.02,16.16c0,1.856 -0.832,3.424 -1.76,4.288l0.32,0.32c1.408,-1.056 2.302,-2.848 2.302,-4.608c0,-1.76 -0.894,-3.552 -2.302,-4.608l-0.32,0.32c1.024,0.992 1.76,2.432 1.76,4.288Zm-10.082,0c0,-1.856 0.832,-3.424 1.76,-4.288l-0.32,-0.32c-1.408,1.056 -2.302,2.848 -2.302,4.608c0,1.76 0.894,3.552 2.302,4.608l0.32,-0.32c-1.024,-0.992 -1.76,-2.432 -1.76,-4.288Zm3.169,-7.792l0,11.552l3.072,-0.672l-0.064,4.256l0.704,0l0,-11.52l-3.072,0.736l0,-4.352l-0.64,0Zm0.64,6.4l2.432,-0.544l0,2.88l-2.432,0.576l0,-2.912Z" style="fill-rule:nonzero;"/><path d="M12.352,59.957c0,-0.863 0.126,-1.67 0.378,-2.422c0.253,-0.752 0.617,-1.411 1.092,-1.978l0.791,0c-0.469,0.629 -0.821,1.319 -1.057,2.071c-0.236,0.752 -0.354,1.525 -0.354,2.319c0,0.781 0.12,1.545 0.361,2.29c0.241,0.745 0.588,1.426 1.04,2.041l-0.781,0c-0.479,-0.553 -0.843,-1.2 -1.094,-1.938c-0.251,-0.739 -0.376,-1.534 -0.376,-2.383Z" style="fill-rule:nonzero;"/><path d="M19.432,62.696l0,-3.462c0,-0.436 -0.099,-0.762 -0.298,-0.976c-0.198,-0.215 -0.509,-0.323 -0.932,-0.323c-0.56,0 -0.97,0.152 -1.231,0.454c-0.26,0.303 -0.39,0.803 -0.39,1.499l0,2.808l-0.811,0l0,-5.352l0.659,0l0.132,0.733l0.039,0c0.166,-0.264 0.399,-0.468 0.698,-0.613c0.3,-0.145 0.633,-0.217 1.001,-0.217c0.645,0 1.13,0.155 1.455,0.466c0.326,0.311 0.489,0.808 0.489,1.492l0,3.491l-0.811,0Z" style="fill-rule:nonzero;"/><path d="M23.607,59.957c0,0.856 -0.126,1.653 -0.378,2.392c-0.253,0.739 -0.617,1.382 -1.092,1.929l-0.781,0c0.452,-0.612 0.799,-1.291 1.04,-2.039c0.241,-0.747 0.361,-1.511 0.361,-2.292c0,-0.794 -0.118,-1.567 -0.354,-2.319c-0.236,-0.752 -0.588,-1.442 -1.057,-2.071l0.791,0c0.479,0.57 0.843,1.232 1.094,1.985c0.251,0.754 0.376,1.559 0.376,2.415Z" style="fill-rule:nonzero;"/></g><g><path d="M89.392,13.632c0.592,0 0.912,-0.448 0.912,-1.008c0,-0.832 -0.896,-1.744 -2.464,-1.744c-1.76,0 -3.52,1.664 -3.52,4.704c0,2.304 0.992,4.544 3.392,4.544c1.76,0 3.104,-1.216 3.104,-2.88c0,-1.408 -1.152,-2.624 -2.912,-2.624c-0.896,0 -1.6,0.416 -2.048,0.96c0,-1.92 0.256,-4.032 2.016,-4.032c0.432,0 0.704,0.208 0.704,0.464c0,0.24 -0.096,0.464 -0.096,0.704c0,0.528 0.352,0.912 0.912,0.912Zm-1.68,1.728c0.992,0 1.472,0.768 1.472,1.92c0,1.216 -0.576,2.144 -1.664,2.144c-0.96,0 -1.504,-0.736 -1.504,-1.984c0,-1.216 0.672,-2.08 1.696,-2.08Z" style="fill-rule:nonzero;"/><path d="M78.799,34.144l0,-1.92c0,-4.128 1.696,-7.84 3.488,-10.08l-0.416,-0.384c-1.568,1.76 -4.062,5.536 -4.062,11.424c0,5.888 2.494,9.664 4.062,11.424l0.416,-0.384c-1.792,-2.24 -3.488,-5.952 -3.488,-10.08Z" style="fill-rule:nonzero;"/><path d="M89.616,29.024l1.472,0l0,-0.736l-1.472,0l0,-3.36l-1.472,1.568l0,1.792l-3.232,0c1.632,-2.432 2.464,-3.52 3.488,-5.6l-2.128,0c-0.544,2.112 -1.2,3.84 -2.32,5.696l0,0.64l4.192,0l0,1.12c0,0.672 -0.592,0.896 -1.04,0.896l-0.32,0l0,0.64l4.032,0l0,-0.64c-0.624,0 -1.2,-0.192 -1.2,-0.896l0,-1.12Z" style="fill-rule:nonzero;"/><path d="M91.04,40.832l-0.576,-0.096c-0.224,0.8 -0.608,1.184 -1.408,1.184c-1.184,0 -1.472,-0.32 -2.912,-0.32c0.736,-1.12 2.08,-1.792 2.4,-2c1.184,-0.72 2.416,-1.328 2.416,-2.864c0,-1.472 -1.408,-2.496 -3.136,-2.496c-1.984,0 -3.104,1.488 -3.104,2.512c0,0.688 0.4,1.104 1.024,1.104c0.56,0 0.896,-0.368 0.896,-0.832c0,-0.688 -0.464,-0.816 -0.464,-1.184c0,-0.432 0.56,-0.896 1.456,-0.896c0.896,0 1.504,0.544 1.504,1.728c0,0.96 -0.448,1.792 -2.064,3.008c-1.12,0.768 -2.496,2.336 -2.624,3.68l0.64,0c0.224,-0.576 0.48,-0.896 1.088,-0.896c0.96,0 1.856,1.024 3.008,1.024c1.28,0 1.856,-1.28 1.856,-2.656Z" style="fill-rule:nonzero;"/><path d="M96.336,32.224l0,1.92c0,4.128 -1.696,7.84 -3.488,10.08l0.416,0.384c1.568,-1.76 4.064,-5.536 4.064,-11.424c0,-5.888 -2.496,-9.664 -4.064,-11.424l-0.416,0.384c1.792,2.24 3.488,5.952 3.488,10.08Z" style="fill-rule:nonzero;"/><path d="M76.872,59.644c0,-1.403 0.272,-2.452 0.817,-3.147c0.546,-0.695 1.352,-1.042 2.42,-1.042c0.368,0 0.657,0.031 0.869,0.093l0,0.698c-0.251,-0.082 -0.537,-0.122 -0.859,-0.122c-0.765,0 -1.35,0.238 -1.753,0.715c-0.404,0.477 -0.625,1.226 -0.664,2.249l0.058,0c0.358,-0.56 0.925,-0.84 1.699,-0.84c0.642,0 1.147,0.193 1.517,0.581c0.369,0.387 0.554,0.913 0.554,1.577c0,0.742 -0.203,1.326 -0.608,1.75c-0.405,0.425 -0.953,0.638 -1.643,0.638c-0.739,0 -1.325,-0.278 -1.758,-0.833c-0.433,-0.555 -0.649,-1.327 -0.649,-2.317Zm2.397,2.461c0.462,0 0.821,-0.145 1.077,-0.437c0.255,-0.291 0.383,-0.712 0.383,-1.262c0,-0.472 -0.119,-0.843 -0.356,-1.113c-0.238,-0.271 -0.593,-0.406 -1.065,-0.406c-0.293,0 -0.561,0.061 -0.806,0.181c-0.244,0.121 -0.438,0.287 -0.583,0.498c-0.145,0.212 -0.217,0.431 -0.217,0.659c0,0.336 0.065,0.648 0.195,0.938c0.13,0.29 0.315,0.519 0.554,0.688c0.239,0.17 0.512,0.254 0.818,0.254Z" style="fill-rule:nonzero;"/><path d="M82.418,59.957c0,-0.863 0.127,-1.67 0.379,-2.422c0.252,-0.752 0.616,-1.411 1.091,-1.978l0.791,0c-0.469,0.629 -0.821,1.319 -1.057,2.071c-0.236,0.752 -0.354,1.525 -0.354,2.319c0,0.781 0.121,1.545 0.361,2.29c0.241,0.745 0.588,1.426 1.04,2.041l-0.781,0c-0.478,-0.553 -0.843,-1.2 -1.094,-1.938c-0.25,-0.739 -0.376,-1.534 -0.376,-2.383Z" style="fill-rule:nonzero;"/><path d="M90.495,61.055l-1.06,0l0,1.641l-0.776,0l0,-1.641l-3.472,0l0,-0.708l3.389,-4.829l0.859,0l0,4.8l1.06,0l0,0.737Zm-1.836,-0.737l0,-2.373c0,-0.465 0.016,-0.991 0.049,-1.577l-0.04,0c-0.156,0.312 -0.302,0.571 -0.439,0.776l-2.231,3.174l2.661,0Z" style="fill-rule:nonzero;"/><path d="M95.875,62.696l-4.692,0l0,-0.698l1.88,-1.89c0.573,-0.579 0.951,-0.993 1.133,-1.24c0.182,-0.248 0.319,-0.488 0.41,-0.723c0.091,-0.234 0.137,-0.486 0.137,-0.757c0,-0.38 -0.116,-0.682 -0.347,-0.905c-0.231,-0.223 -0.552,-0.335 -0.962,-0.335c-0.296,0 -0.577,0.049 -0.842,0.147c-0.266,0.097 -0.561,0.275 -0.886,0.532l-0.43,-0.552c0.657,-0.547 1.374,-0.82 2.148,-0.82c0.671,0 1.197,0.172 1.577,0.515c0.381,0.343 0.572,0.805 0.572,1.384c0,0.453 -0.127,0.9 -0.381,1.343c-0.254,0.443 -0.729,1.003 -1.426,1.68l-1.562,1.528l0,0.039l3.671,0l0,0.752Z" style="fill-rule:nonzero;"/><path d="M98.971,59.957c0,0.856 -0.126,1.653 -0.378,2.392c-0.253,0.739 -0.616,1.382 -1.092,1.929l-0.781,0c0.453,-0.612 0.799,-1.291 1.04,-2.039c0.241,-0.747 0.362,-1.511 0.362,-2.292c0,-0.794 -0.118,-1.567 -0.354,-2.319c-0.236,-0.752 -0.589,-1.442 -1.058,-2.071l0.791,0c0.479,0.57 0.844,1.232 1.094,1.985c0.251,0.754 0.376,1.559 0.376,2.415Z" style="fill-rule:nonzero;"/></g></svg>