<?xml version="1.0" encoding="UTF-8" standalone="no"?><!DOCTYPE svg PUBLIC "-//W3C//DTD SVG 1.1//EN" "http://www.w3.org/Graphics/SVG/1.1/DTD/svg11.dtd"><svg width="100%" height="100%" viewBox="0 0 200 100" version="1.1" xmlns="http://www.w3.org/2000/svg" xmlns:xlink="http://www.w3.org/1999/xlink" xml:space="preserve" xmlns:serif="http://www.serif.com/" style="fill-rule:evenodd;clip-rule:evenodd;stroke-linejoin:round;stroke-miterlimit:1.41421;"><g><path d="M102.932,60.363l0,-45.855l2.894,0l0,-1.049l-3.943,0l0,47.953l3.943,0l0,-1.049l-2.894,0Z" style="fill-rule:nonzero;"/><path d="M118.452,15.079l-0.877,0l-0.263,4.691l0.833,0c0.307,-2.63 1.227,-2.806 1.885,-2.806c0.92,0 3.112,0.702 4.076,0.833c-1.972,3.376 -4.558,5.874 -4.558,8.285c0,0.921 0.657,1.447 1.315,1.447c0.657,0 1.315,-0.482 1.402,-1.666c0.307,-3.945 2.762,-6.707 3.639,-10.784l-0.965,0c-0.175,0.57 -0.613,1.009 -1.227,1.009c-1.052,0 -1.271,-1.184 -2.806,-1.184c-1.271,0 -1.753,0.964 -2.148,0.964c-0.306,0 -0.306,-0.263 -0.306,-0.789Z" style="fill-rule:nonzero;"/><path d="M121.674,35.551c-0.965,0 -1.666,0.263 -2.258,0.548l-0.132,-0.066l0.044,-2.762c0.789,0.088 1.403,0.176 2.104,0.176c2.017,0 3.025,-0.833 3.77,-2.061l-0.219,-0.307c-1.227,0.176 -2.235,0.22 -3.244,0.22c-1.052,0 -2.06,-0.088 -3.331,-0.22l-0.088,6.05l0.57,0.307c0.614,-0.57 1.381,-0.877 2.279,-0.877c1.294,0 2.543,0.789 2.543,2.762c0,2.016 -1.03,3.331 -2.608,3.331c-1.074,0 -1.666,-0.46 -1.666,-1.052c0,-0.57 0.46,-0.789 0.46,-1.468c0,-0.746 -0.548,-1.206 -1.183,-1.206c-0.855,0 -1.469,0.679 -1.469,1.6c0,1.403 1.6,3.047 4.186,3.047c2.587,0 4.603,-1.732 4.603,-4.209c0,-2.367 -2.126,-3.813 -4.361,-3.813Z" style="fill-rule:nonzero;"/><path d="M108.326,43.463l0,15.825l4.208,-0.921l-0.088,5.83l0.965,0l0,-15.781l-4.209,1.009l0,-5.962l-0.876,0Zm0.876,8.767l3.332,-0.745l0,3.945l-3.332,0.789l0,-3.989Z" style="fill-rule:nonzero;"/><path d="M119.854,56.088c0,-0.746 -0.548,-1.206 -1.183,-1.206c-0.855,0 -1.469,0.68 -1.469,1.6c0,1.447 1.578,3.091 4.165,3.091c2.893,0 4.668,-1.337 4.668,-3.376c0,-1.644 -1.183,-2.652 -2.652,-3.134l0,-0.241c1.096,-0.417 2.28,-1.096 2.28,-2.806c0,-1.687 -1.557,-3.112 -3.858,-3.112c-2.323,0 -3.836,1.622 -3.836,2.981c0,0.964 0.68,1.512 1.315,1.512c0.79,0 1.206,-0.548 1.206,-1.139c0,-0.965 -0.701,-1.009 -0.701,-1.513c0,-0.372 0.482,-0.92 1.556,-0.92c1.118,0 2.104,0.723 2.104,2.213c0,1.403 -0.943,2.477 -3.222,2.521l0,0.789c2.499,0 3.441,1.249 3.441,2.718c0,1.6 -1.052,2.586 -2.455,2.586c-1.03,0 -1.819,-0.438 -1.819,-1.096c0,-0.57 0.46,-0.789 0.46,-1.468Z" style="fill-rule:nonzero;"/><path d="M131.734,14.51l0,45.852l-2.893,0l0,1.052l3.945,0l0,-47.956l-3.945,0l0,1.052l2.893,0Z" style="fill-rule:nonzero;"/><path d="M99.362,88.052l-3.057,0l0,-11.946l3.057,0l0,0.943l-1.933,0l0,10.053l1.933,0l0,0.95Z" style="fill-rule:nonzero;"/><path d="M101.609,85.885l4.054,-8.756l-5.331,0l0,-1.023l6.508,0l0,0.89l-4,8.889l-1.231,0Z" style="fill-rule:nonzero;"/><path d="M111.261,79.912c1.03,0 1.841,0.255 2.431,0.766c0.591,0.51 0.887,1.209 0.887,2.097c0,1.012 -0.322,1.806 -0.967,2.381c-0.644,0.575 -1.533,0.863 -2.665,0.863c-1.102,0 -1.942,-0.176 -2.522,-0.529l0,-1.07c0.312,0.201 0.7,0.358 1.164,0.472c0.464,0.113 0.921,0.17 1.371,0.17c0.785,0 1.395,-0.185 1.829,-0.555c0.435,-0.37 0.653,-0.905 0.653,-1.605c0,-1.365 -0.836,-2.047 -2.509,-2.047c-0.423,0 -0.99,0.065 -1.699,0.194l-0.575,-0.368l0.368,-4.575l4.863,0l0,1.023l-3.913,0l-0.248,2.937c0.513,-0.103 1.024,-0.154 1.532,-0.154Z" style="fill-rule:nonzero;"/><path d="M117.709,84.293l0.1,0.154c-0.116,0.446 -0.283,0.964 -0.501,1.555c-0.219,0.591 -0.446,1.14 -0.683,1.649l-0.836,0c0.121,-0.464 0.253,-1.037 0.398,-1.719c0.145,-0.683 0.247,-1.229 0.305,-1.639l1.217,0Z" style="fill-rule:nonzero;"/><path d="M124.92,85.885l0,-4.742c0,-0.598 -0.136,-1.044 -0.408,-1.338c-0.272,-0.294 -0.698,-0.442 -1.278,-0.442c-0.767,0 -1.329,0.208 -1.686,0.622c-0.356,0.415 -0.535,1.1 -0.535,2.054l0,3.846l-1.11,0l0,-7.331l0.903,0l0.181,1.003l0.053,0c0.227,-0.361 0.546,-0.641 0.957,-0.839c0.41,-0.199 0.867,-0.298 1.371,-0.298c0.883,0 1.547,0.213 1.993,0.639c0.446,0.426 0.669,1.107 0.669,2.043l0,4.783l-1.11,0Z" style="fill-rule:nonzero;"/><path d="M133.862,78.407c0,0.624 -0.175,1.135 -0.525,1.532c-0.35,0.396 -0.846,0.662 -1.488,0.796l0,0.053c0.785,0.098 1.367,0.348 1.746,0.749c0.379,0.402 0.568,0.928 0.568,1.579c0,0.932 -0.323,1.649 -0.969,2.15c-0.647,0.502 -1.566,0.753 -2.756,0.753c-0.517,0 -0.991,-0.039 -1.422,-0.117c-0.43,-0.078 -0.848,-0.216 -1.254,-0.412l0,-1.057c0.424,0.21 0.875,0.369 1.355,0.479c0.479,0.109 0.933,0.164 1.361,0.164c1.69,0 2.535,-0.663 2.535,-1.987c0,-1.186 -0.932,-1.779 -2.796,-1.779l-0.963,0l0,-0.957l0.976,0c0.763,0 1.367,-0.168 1.813,-0.505c0.446,-0.336 0.669,-0.803 0.669,-1.401c0,-0.477 -0.164,-0.852 -0.492,-1.124c-0.327,-0.272 -0.772,-0.408 -1.334,-0.408c-0.428,0 -0.832,0.058 -1.211,0.174c-0.379,0.116 -0.811,0.33 -1.297,0.642l-0.562,-0.749c0.401,-0.316 0.864,-0.565 1.388,-0.746c0.524,-0.18 1.076,-0.271 1.655,-0.271c0.95,0 1.688,0.218 2.214,0.653c0.526,0.434 0.789,1.031 0.789,1.789Z" style="fill-rule:nonzero;"/><path d="M135.307,87.102l1.933,0l0,-10.053l-1.933,0l0,-0.943l3.057,0l0,11.946l-3.057,0l0,-0.95Z" style="fill-rule:nonzero;"/></g><g><path d="M14.722,21.699c0,-2.981 1.315,-5.524 2.674,-6.926l-0.482,-0.526c-2.104,1.709 -3.419,4.602 -3.419,7.452c0,2.849 1.315,5.742 3.419,7.452l0.482,-0.526c-1.534,-1.578 -2.674,-3.946 -2.674,-6.926Z" style="fill-rule:nonzero;"/><path d="M27.127,18.674c0.811,0 1.25,-0.614 1.25,-1.381c0,-1.14 -1.228,-2.389 -3.376,-2.389c-2.411,0 -4.822,2.28 -4.822,6.444c0,3.156 1.359,6.225 4.647,6.225c2.411,0 4.252,-1.666 4.252,-3.946c0,-1.928 -1.578,-3.594 -3.989,-3.594c-1.227,0 -2.192,0.57 -2.805,1.315c0,-2.63 0.35,-5.523 2.761,-5.523c0.592,0 0.965,0.285 0.965,0.635c0,0.329 -0.132,0.636 -0.132,0.965c0,0.723 0.482,1.249 1.249,1.249Zm-2.301,2.367c1.359,0 2.016,1.052 2.016,2.63c0,1.666 -0.789,2.937 -2.279,2.937c-1.315,0 -2.06,-1.008 -2.06,-2.718c0,-1.665 0.92,-2.849 2.323,-2.849Z" style="fill-rule:nonzero;"/><path d="M34.536,21.699c0,2.98 -1.315,5.523 -2.674,6.926l0.482,0.526c2.104,-1.71 3.419,-4.603 3.419,-7.452c0,-2.85 -1.315,-5.743 -3.419,-7.452l-0.482,0.526c1.534,1.578 2.674,3.945 2.674,6.926Z" style="fill-rule:nonzero;"/><path d="M17.208,82.133c0,-1.182 0.173,-2.288 0.519,-3.318c0.345,-1.03 0.844,-1.933 1.495,-2.709l1.083,0c-0.642,0.861 -1.125,1.806 -1.448,2.836c-0.323,1.03 -0.485,2.089 -0.485,3.177c0,1.07 0.165,2.116 0.495,3.137c0.33,1.021 0.805,1.953 1.425,2.796l-1.07,0c-0.656,-0.758 -1.155,-1.643 -1.499,-2.655c-0.343,-1.013 -0.515,-2.101 -0.515,-3.264Z" style="fill-rule:nonzero;"/><path d="M21.496,81.704c0,-1.921 0.373,-3.358 1.12,-4.31c0.747,-0.953 1.852,-1.429 3.314,-1.429c0.504,0 0.901,0.043 1.191,0.128l0,0.956c-0.343,-0.111 -0.736,-0.167 -1.177,-0.167c-1.048,0 -1.849,0.326 -2.401,0.98c-0.553,0.653 -0.857,1.68 -0.91,3.08l0.08,0c0.491,-0.767 1.267,-1.151 2.328,-1.151c0.878,0 1.571,0.266 2.077,0.796c0.506,0.531 0.759,1.251 0.759,2.161c0,1.017 -0.278,1.816 -0.833,2.398c-0.555,0.582 -1.305,0.873 -2.251,0.873c-1.012,0 -1.815,-0.38 -2.408,-1.141c-0.593,-0.76 -0.889,-1.818 -0.889,-3.174Zm3.284,3.372c0.633,0 1.125,-0.2 1.475,-0.599c0.35,-0.399 0.525,-0.976 0.525,-1.729c0,-0.647 -0.163,-1.155 -0.488,-1.525c-0.326,-0.37 -0.812,-0.555 -1.459,-0.555c-0.401,0 -0.769,0.082 -1.103,0.247c-0.335,0.165 -0.601,0.393 -0.8,0.682c-0.198,0.29 -0.297,0.591 -0.297,0.903c0,0.46 0.089,0.888 0.267,1.285c0.179,0.397 0.432,0.711 0.76,0.943c0.327,0.232 0.701,0.348 1.12,0.348Z" style="fill-rule:nonzero;"/><path d="M32.051,82.133c0,1.172 -0.173,2.265 -0.519,3.277c-0.345,1.012 -0.844,1.893 -1.495,2.642l-1.07,0c0.62,-0.838 1.095,-1.769 1.425,-2.792c0.33,-1.024 0.495,-2.071 0.495,-3.141c0,-1.088 -0.162,-2.147 -0.485,-3.177c-0.323,-1.03 -0.806,-1.975 -1.448,-2.836l1.083,0c0.656,0.78 1.155,1.687 1.499,2.719c0.343,1.032 0.515,2.135 0.515,3.308Z" style="fill-rule:nonzero;"/></g><g><path d="M59.323,18.674c0.811,0 1.249,-0.614 1.249,-1.381c0,-1.14 -1.227,-2.389 -3.375,-2.389c-2.411,0 -4.822,2.28 -4.822,6.444c0,3.156 1.359,6.225 4.646,6.225c2.411,0 4.252,-1.666 4.252,-3.946c0,-1.928 -1.578,-3.594 -3.989,-3.594c-1.227,0 -2.191,0.57 -2.805,1.315c0,-2.63 0.351,-5.523 2.762,-5.523c0.591,0 0.964,0.285 0.964,0.635c0,0.329 -0.132,0.636 -0.132,0.965c0,0.723 0.483,1.249 1.25,1.249Zm-2.302,2.367c1.359,0 2.017,1.052 2.017,2.63c0,1.666 -0.789,2.937 -2.28,2.937c-1.315,0 -2.06,-1.008 -2.06,-2.718c0,-1.665 0.921,-2.849 2.323,-2.849Z" style="fill-rule:nonzero;"/><path d="M59.63,39.759l2.016,0l0,-1.008l-2.016,0l0,-4.603l-2.017,2.148l0,2.455l-4.427,0c2.235,-3.332 3.375,-4.822 4.778,-7.672l-2.915,0c-0.745,2.894 -1.644,5.261 -3.178,7.803l0,0.877l5.742,0l0,1.534c0,0.921 -0.811,1.228 -1.425,1.228l-0.438,0l0,0.876l5.523,0l0,-0.876c-0.854,0 -1.643,-0.263 -1.643,-1.228l0,-1.534Z" style="fill-rule:nonzero;"/><path d="M79.795,37.479c0,2.543 -1.14,4.691 -2.411,5.874l0.438,0.439c1.929,-1.447 3.154,-3.902 3.154,-6.313c0,-2.411 -1.225,-4.865 -3.154,-6.312l-0.438,0.438c1.403,1.359 2.411,3.332 2.411,5.874Zm-14.819,0c0,-2.542 1.14,-4.69 2.412,-5.874l-0.439,-0.438c-1.929,1.447 -3.154,3.901 -3.154,6.312c0,2.411 1.225,4.866 3.154,6.313l0.439,-0.439c-1.403,-1.358 -2.412,-3.331 -2.412,-5.874Zm5.174,-8.679l0,4.866l-1.359,0.394l0,2.63l1.359,-0.438l0,4.077l-1.359,0.482l0,2.542l1.359,-0.438l0,4.208l0.877,0l0,-4.515l2.718,-0.833l0,4.34l0.877,0l0,-4.69l1.359,-0.483l0,-2.586l-1.359,0.439l0,-4.077l1.359,-0.482l0,-2.587l-1.359,0.439l0,-4.209l-0.877,0l0,4.603l-2.718,0.789l0,-4.471l-0.877,0Zm3.595,6.225l0,4.164l-2.718,0.833l0,-4.164l2.718,-0.833Z" style="fill-rule:nonzero;"/><path d="M50.297,81.704c0,-1.921 0.373,-3.358 1.12,-4.31c0.747,-0.953 1.852,-1.429 3.314,-1.429c0.504,0 0.901,0.043 1.191,0.128l0,0.956c-0.343,-0.111 -0.736,-0.167 -1.177,-0.167c-1.048,0 -1.849,0.326 -2.401,0.98c-0.553,0.653 -0.857,1.68 -0.91,3.08l0.08,0c0.491,-0.767 1.267,-1.151 2.328,-1.151c0.878,0 1.571,0.266 2.077,0.796c0.506,0.531 0.759,1.251 0.759,2.161c0,1.017 -0.278,1.816 -0.833,2.398c-0.555,0.582 -1.305,0.873 -2.251,0.873c-1.012,0 -1.815,-0.38 -2.408,-1.141c-0.593,-0.76 -0.889,-1.818 -0.889,-3.174Zm3.284,3.372c0.633,0 1.125,-0.2 1.475,-0.599c0.35,-0.399 0.525,-0.976 0.525,-1.729c0,-0.647 -0.163,-1.155 -0.488,-1.525c-0.326,-0.37 -0.812,-0.555 -1.459,-0.555c-0.401,0 -0.769,0.082 -1.103,0.247c-0.335,0.165 -0.601,0.393 -0.8,0.682c-0.198,0.29 -0.297,0.591 -0.297,0.903c0,0.46 0.089,0.888 0.267,1.285c0.179,0.397 0.432,0.711 0.76,0.943c0.327,0.232 0.701,0.348 1.12,0.348Z" style="fill-rule:nonzero;"/><path d="M64.905,83.637l-1.451,0l0,2.248l-1.064,0l0,-2.248l-4.756,0l0,-0.969l4.642,-6.616l1.178,0l0,6.575l1.451,0l0,1.01Zm-2.515,-1.01l0,-3.25c0,-0.638 0.022,-1.358 0.067,-2.161l-0.054,0c-0.214,0.428 -0.414,0.783 -0.602,1.064l-3.056,4.347l3.645,0Z" style="fill-rule:nonzero;"/><path d="M65.728,82.133c0,-1.182 0.173,-2.288 0.518,-3.318c0.346,-1.03 0.844,-1.933 1.495,-2.709l1.084,0c-0.642,0.861 -1.125,1.806 -1.448,2.836c-0.324,1.03 -0.485,2.089 -0.485,3.177c0,1.07 0.165,2.116 0.495,3.137c0.33,1.021 0.804,1.953 1.424,2.796l-1.07,0c-0.655,-0.758 -1.155,-1.643 -1.498,-2.655c-0.344,-1.013 -0.515,-2.101 -0.515,-3.264Z" style="fill-rule:nonzero;"/><path d="M75.794,79.872l-0.441,2.274l1.893,0l0,0.863l-2.054,0l-0.561,2.876l-0.917,0l0.562,-2.876l-2.027,0l-0.548,2.876l-0.91,0l0.535,-2.876l-1.752,0l0,-0.863l1.919,0l0.455,-2.274l-1.852,0l0,-0.85l1.999,0l0.549,-2.916l0.93,0l-0.549,2.916l2.04,0l0.562,-2.916l0.896,0l-0.561,2.916l1.765,0l0,0.85l-1.933,0Zm-3.384,2.274l2.027,0l0.441,-2.274l-2.027,0l-0.441,2.274Z" style="fill-rule:nonzero;"/><path d="M81.587,82.133c0,1.172 -0.173,2.265 -0.519,3.277c-0.345,1.012 -0.843,1.893 -1.494,2.642l-1.071,0c0.62,-0.838 1.095,-1.769 1.425,-2.792c0.33,-1.024 0.495,-2.071 0.495,-3.141c0,-1.088 -0.162,-2.147 -0.485,-3.177c-0.323,-1.03 -0.806,-1.975 -1.448,-2.836l1.084,0c0.655,0.78 1.154,1.687 1.498,2.719c0.343,1.032 0.515,2.135 0.515,3.308Z" style="fill-rule:nonzero;"/></g><g><path d="M169.592,18.674c0.811,0 1.25,-0.614 1.25,-1.381c0,-1.14 -1.228,-2.389 -3.376,-2.389c-2.411,0 -4.822,2.28 -4.822,6.444c0,3.156 1.359,6.225 4.647,6.225c2.411,0 4.252,-1.666 4.252,-3.946c0,-1.928 -1.578,-3.594 -3.989,-3.594c-1.228,0 -2.192,0.57 -2.806,1.315c0,-2.63 0.351,-5.523 2.762,-5.523c0.592,0 0.964,0.285 0.964,0.635c0,0.329 -0.131,0.636 -0.131,0.965c0,0.723 0.482,1.249 1.249,1.249Zm-2.301,2.367c1.359,0 2.016,1.052 2.016,2.63c0,1.666 -0.789,2.937 -2.279,2.937c-1.315,0 -2.06,-1.008 -2.06,-2.718c0,-1.665 0.92,-2.849 2.323,-2.849Z" style="fill-rule:nonzero;"/><path d="M156.177,46.773l0,-2.631c0,-5.654 2.323,-10.739 4.778,-13.808l-0.57,-0.526c-2.148,2.411 -5.564,7.584 -5.564,15.65c0,8.065 3.416,13.238 5.564,15.649l0.57,-0.526c-2.455,-3.069 -4.778,-8.154 -4.778,-13.808Z" style="fill-rule:nonzero;"/><path d="M169.899,39.759l2.017,0l0,-1.008l-2.017,0l0,-4.603l-2.016,2.148l0,2.455l-4.428,0c2.236,-3.332 3.376,-4.822 4.778,-7.672l-2.915,0c-0.745,2.894 -1.644,5.261 -3.178,7.803l0,0.877l5.743,0l0,1.534c0,0.921 -0.811,1.228 -1.425,1.228l-0.438,0l0,0.876l5.523,0l0,-0.876c-0.855,0 -1.644,-0.263 -1.644,-1.228l0,-1.534Z" style="fill-rule:nonzero;"/><path d="M171.521,55.934l-0.789,-0.131c-0.307,1.096 -0.833,1.622 -1.929,1.622c-1.622,0 -2.016,-0.439 -3.989,-0.439c1.008,-1.534 2.849,-2.454 3.288,-2.739c1.622,-0.987 3.309,-1.82 3.309,-3.924c0,-2.016 -1.928,-3.419 -4.295,-3.419c-2.718,0 -4.253,2.038 -4.253,3.441c0,0.943 0.548,1.513 1.403,1.513c0.767,0 1.228,-0.505 1.228,-1.14c0,-0.943 -0.636,-1.118 -0.636,-1.622c0,-0.592 0.767,-1.228 1.995,-1.228c1.227,0 2.06,0.746 2.06,2.368c0,1.315 -0.614,2.454 -2.828,4.12c-1.534,1.052 -3.419,3.2 -3.594,5.041l0.877,0c0.306,-0.789 0.657,-1.227 1.49,-1.227c1.315,0 2.542,1.403 4.121,1.403c1.753,0 2.542,-1.754 2.542,-3.639Z" style="fill-rule:nonzero;"/><path d="M178.009,44.142l0,2.631c0,5.654 -2.324,10.739 -4.778,13.808l0.569,0.526c2.148,-2.411 5.568,-7.584 5.568,-15.649c0,-8.066 -3.42,-13.239 -5.568,-15.65l-0.569,0.526c2.454,3.069 4.778,8.154 4.778,13.808Z" style="fill-rule:nonzero;"/><path d="M152.441,81.704c0,-1.921 0.373,-3.358 1.12,-4.31c0.747,-0.953 1.852,-1.429 3.315,-1.429c0.504,0 0.9,0.043 1.19,0.128l0,0.956c-0.343,-0.111 -0.736,-0.167 -1.177,-0.167c-1.048,0 -1.848,0.326 -2.401,0.98c-0.553,0.653 -0.856,1.68 -0.91,3.08l0.08,0c0.491,-0.767 1.267,-1.151 2.328,-1.151c0.879,0 1.571,0.266 2.077,0.796c0.506,0.531 0.759,1.251 0.759,2.161c0,1.017 -0.277,1.816 -0.833,2.398c-0.555,0.582 -1.305,0.873 -2.25,0.873c-1.013,0 -1.815,-0.38 -2.408,-1.141c-0.593,-0.76 -0.89,-1.818 -0.89,-3.174Zm3.284,3.372c0.633,0 1.125,-0.2 1.475,-0.599c0.35,-0.399 0.525,-0.976 0.525,-1.729c0,-0.647 -0.163,-1.155 -0.488,-1.525c-0.326,-0.37 -0.812,-0.555 -1.458,-0.555c-0.402,0 -0.77,0.082 -1.104,0.247c-0.334,0.165 -0.601,0.393 -0.799,0.682c-0.199,0.29 -0.298,0.591 -0.298,0.903c0,0.46 0.089,0.888 0.268,1.285c0.178,0.397 0.431,0.711 0.759,0.943c0.328,0.232 0.701,0.348 1.12,0.348Z" style="fill-rule:nonzero;"/><path d="M160.039,82.133c0,-1.182 0.173,-2.288 0.519,-3.318c0.345,-1.03 0.844,-1.933 1.495,-2.709l1.083,0c-0.642,0.861 -1.124,1.806 -1.448,2.836c-0.323,1.03 -0.485,2.089 -0.485,3.177c0,1.07 0.165,2.116 0.495,3.137c0.33,1.021 0.805,1.953 1.425,2.796l-1.07,0c-0.656,-0.758 -1.155,-1.643 -1.499,-2.655c-0.343,-1.013 -0.515,-2.101 -0.515,-3.264Z" style="fill-rule:nonzero;"/><path d="M171.103,83.637l-1.452,0l0,2.248l-1.063,0l0,-2.248l-4.756,0l0,-0.969l4.642,-6.616l1.177,0l0,6.575l1.452,0l0,1.01Zm-2.515,-1.01l0,-3.25c0,-0.638 0.022,-1.358 0.067,-2.161l-0.054,0c-0.214,0.428 -0.415,0.783 -0.602,1.064l-3.057,4.347l3.646,0Z" style="fill-rule:nonzero;"/><path d="M178.474,85.885l-6.428,0l0,-0.957l2.575,-2.588c0.785,-0.794 1.302,-1.36 1.552,-1.699c0.25,-0.339 0.437,-0.669 0.562,-0.99c0.125,-0.321 0.187,-0.667 0.187,-1.037c0,-0.522 -0.158,-0.935 -0.475,-1.241c-0.317,-0.305 -0.756,-0.458 -1.318,-0.458c-0.405,0 -0.79,0.067 -1.153,0.201c-0.364,0.134 -0.769,0.377 -1.214,0.729l-0.589,-0.756c0.901,-0.749 1.882,-1.124 2.943,-1.124c0.919,0 1.639,0.236 2.16,0.706c0.522,0.471 0.783,1.103 0.783,1.896c0,0.62 -0.174,1.233 -0.522,1.84c-0.348,0.606 -0.999,1.373 -1.953,2.301l-2.14,2.093l0,0.054l5.03,0l0,1.03Z" style="fill-rule:nonzero;"/><path d="M182.714,82.133c0,1.172 -0.172,2.265 -0.518,3.277c-0.346,1.012 -0.844,1.893 -1.495,2.642l-1.07,0c0.62,-0.838 1.095,-1.769 1.425,-2.792c0.33,-1.024 0.495,-2.071 0.495,-3.141c0,-1.088 -0.162,-2.147 -0.485,-3.177c-0.324,-1.03 -0.806,-1.975 -1.448,-2.836l1.083,0c0.656,0.78 1.155,1.687 1.498,2.719c0.344,1.032 0.515,2.135 0.515,3.308Z" style="fill-rule:nonzero;"/></g></svg>