<?xml version="1.0" encoding="UTF-8" standalone="no"?><!DOCTYPE svg PUBLIC "-//W3C//DTD SVG 1.1//EN" "http://www.w3.org/Graphics/SVG/1.1/DTD/svg11.dtd"><svg width="100%" height="100%" viewBox="0 0 137 100" version="1.1" xmlns="http://www.w3.org/2000/svg" xmlns:xlink="http://www.w3.org/1999/xlink" xml:space="preserve" xmlns:serif="http://www.serif.com/" style="fill-rule:evenodd;clip-rule:evenodd;stroke-linejoin:round;stroke-miterlimit:1.41421;"><g><path d="M54.853,18.433l0,4.318l-4.471,0l0,-4.603l-2.017,2.148l0,2.455l-4.427,0c2.235,-3.332 3.375,-4.822 4.778,-7.672l-2.915,0c-0.745,2.894 -1.644,5.261 -3.178,7.803l0,0.877l5.742,0l0,1.534c0,0.921 -0.811,1.228 -1.425,1.228l-0.438,0l0,0.876l5.523,0l0,-0.876c-0.854,0 -1.643,-0.263 -1.643,-1.228l0,-1.534l4.471,0l0,4.318l1.008,0l0,-4.318l4.318,0l0,-1.008l-4.318,0l0,-4.318l-1.008,0Z" style="fill-rule:nonzero;"/><path d="M55.532,35.485l0,4.318l-4.318,0c-0.306,1.096 -0.832,1.622 -1.928,1.622c-1.622,0 -2.017,-0.439 -3.989,-0.439c1.008,-1.534 2.849,-2.454 3.287,-2.739c1.622,-0.987 3.31,-1.82 3.31,-3.924c0,-2.016 -1.929,-3.419 -4.296,-3.419c-2.718,0 -4.252,2.038 -4.252,3.441c0,0.943 0.548,1.513 1.403,1.513c0.767,0 1.227,-0.505 1.227,-1.14c0,-0.943 -0.636,-1.118 -0.636,-1.622c0,-0.592 0.768,-1.228 1.995,-1.228c1.227,0 2.06,0.746 2.06,2.368c0,1.315 -0.613,2.454 -2.827,4.12c-1.534,1.052 -3.419,3.2 -3.595,5.041l0.877,0c0.307,-0.789 0.658,-1.227 1.49,-1.227c1.316,0 2.543,1.403 4.121,1.403c1.468,0 2.279,-1.25 2.477,-2.762l3.594,0l0,4.318l1.008,0l0,-4.318l4.318,0l0,-1.008l-4.318,0l0,-4.318l-1.008,0Z" style="fill-rule:nonzero;"/><path d="M44.855,83.638l-1.452,-0.001l0,2.248l-1.063,0l0,-2.248l-4.756,0.001l0,-0.97l4.642,-6.616l1.177,0l0,6.575l1.452,0l0,1.01Zm-2.515,-1.01l0,-3.25c0,-0.638 0.022,-1.358 0.067,-2.161l-0.054,0c-0.214,0.428 -0.414,0.783 -0.602,1.064l-3.057,4.347l3.646,0Z" style="fill-rule:nonzero;"/><path d="M49.497,80.594l2.756,0l0,0.923l-2.756,0l0,2.85l-0.93,0l0,-2.85l-2.742,0l0,-0.923l2.742,0l0,-2.863l0.93,0l0,2.863Z" style="fill-rule:nonzero;"/><path d="M60.058,85.885l-6.427,0l0,-0.957l2.575,-2.588c0.785,-0.794 1.302,-1.36 1.552,-1.699c0.249,-0.339 0.437,-0.669 0.561,-0.99c0.125,-0.321 0.188,-0.667 0.188,-1.037c0,-0.522 -0.159,-0.935 -0.475,-1.241c-0.317,-0.305 -0.756,-0.458 -1.318,-0.458c-0.406,0 -0.79,0.067 -1.154,0.201c-0.363,0.134 -0.768,0.377 -1.214,0.729l-0.588,-0.756c0.9,-0.749 1.881,-1.124 2.943,-1.124c0.918,0 1.638,0.236 2.16,0.706c0.522,0.471 0.783,1.103 0.783,1.896c0,0.62 -0.174,1.233 -0.522,1.84c-0.348,0.606 -0.999,1.373 -1.953,2.301l-2.141,2.093l0,0.054l5.03,0l0,1.03Z" style="fill-rule:nonzero;"/><path d="M65.162,80.594l2.756,0l0,0.923l-2.756,0l0,2.85l-0.93,0l0,-2.85l-2.742,0l0,-0.923l2.742,0l0,-2.863l0.93,0l0,2.863Z" style="fill-rule:nonzero;"/></g><g><path d="M22.406,23.803c0,1.468 -0.701,2.805 -2.257,2.805c-1.381,0 -2.126,-1.008 -2.126,-2.367c0,-1.49 0.964,-2.762 2.454,-2.762c1.359,0 1.929,0.987 1.929,2.324Zm-1.994,3.77c2.367,0 4.23,-1.666 4.23,-3.705c0,-1.709 -1.337,-3.375 -3.748,-3.375c-1.206,0 -2.433,0.526 -3.047,1.228c0.044,-2.17 0.658,-3.573 1.622,-4.472l3.178,2.389l0.57,-0.833l-2.893,-2.147c0.92,-0.505 2.038,-0.724 3.288,-0.768l-0.044,-0.92c-1.535,0 -3.003,0.307 -4.252,0.92l-3.902,-2.915l-0.57,0.833l3.551,2.652c-1.578,1.14 -2.608,2.937 -2.608,5.414c0,2.696 1.315,5.699 4.625,5.699Z" style="fill-rule:nonzero;"/><g><path d="M15.176,81.704c0,-1.921 0.374,-3.358 1.12,-4.31c0.747,-0.953 1.852,-1.429 3.315,-1.429c0.504,0 0.9,0.043 1.19,0.128l0,0.956c-0.343,-0.111 -0.735,-0.167 -1.177,-0.167c-1.048,0 -1.848,0.326 -2.401,0.98c-0.553,0.653 -0.856,1.68 -0.91,3.08l0.08,0c0.491,-0.767 1.267,-1.151 2.328,-1.151c0.879,0 1.571,0.266 2.077,0.796c0.506,0.531 0.759,1.251 0.759,2.161c0,1.017 -0.277,1.816 -0.833,2.398c-0.555,0.582 -1.305,0.873 -2.25,0.873c-1.013,0 -1.815,-0.38 -2.408,-1.141c-0.593,-0.76 -0.89,-1.818 -0.89,-3.174Zm3.284,3.372c0.633,0 1.125,-0.2 1.475,-0.599c0.35,-0.399 0.525,-0.976 0.525,-1.729c0,-0.647 -0.163,-1.155 -0.488,-1.525c-0.326,-0.37 -0.812,-0.555 -1.458,-0.555c-0.402,0 -0.769,0.082 -1.104,0.247c-0.334,0.165 -0.601,0.393 -0.799,0.682c-0.199,0.29 -0.298,0.591 -0.298,0.903c0,0.46 0.089,0.888 0.268,1.285c0.178,0.397 0.431,0.711 0.759,0.943c0.328,0.232 0.701,0.348 1.12,0.348Z" style="fill-rule:nonzero;"/><path d="M27.116,76.106l-3.646,9.779l-1.11,0l3.645,-9.779l1.111,0Z" style="fill-rule:nonzero;"/></g></g><g><path d="M107.222,25.863c0,-0.263 0.088,-0.504 0.088,-0.789c0,-0.811 -0.505,-1.315 -1.228,-1.315c-0.855,0 -1.271,0.614 -1.271,1.315c0,1.052 1.315,2.499 3.616,2.499c2.609,0 5.041,-2.28 5.041,-6.663c0,-3.42 -1.578,-6.006 -4.536,-6.006c-2.477,0 -4.296,1.907 -4.296,3.967c0,2.017 1.512,3.463 3.923,3.463c1.227,0 2.104,-0.57 2.805,-1.271c0,2.214 -0.306,5.589 -2.937,5.589c-0.832,0 -1.205,-0.416 -1.205,-0.789Zm1.6,-4.537c-1.359,0 -2.017,-0.964 -2.017,-2.586c0,-1.556 0.746,-2.872 2.28,-2.872c1.293,0 2.104,1.118 2.104,2.828c0,1.468 -0.964,2.63 -2.367,2.63Z" style="fill-rule:nonzero;"/><rect x="103.518" y="36.778" width="10.959" height="1.227" style="fill-rule:nonzero;"/><path d="M111.803,55.759l2.016,0l0,-1.008l-2.016,0l0,-4.603l-2.017,2.148l0,2.455l-4.427,0c2.236,-3.332 3.375,-4.822 4.778,-7.672l-2.915,0c-0.745,2.894 -1.644,5.261 -3.178,7.803l0,0.877l5.742,0l0,1.534c0,0.921 -0.811,1.228 -1.424,1.228l-0.439,0l0,0.876l5.524,0l0,-0.876c-0.855,0 -1.644,-0.263 -1.644,-1.228l0,-1.534Z" style="fill-rule:nonzero;"/><path d="M104.431,80.28c0,3.826 -1.48,5.739 -4.441,5.739c-0.517,0 -0.928,-0.045 -1.231,-0.134l0,-0.957c0.357,0.116 0.763,0.174 1.218,0.174c1.07,0 1.878,-0.331 2.424,-0.993c0.547,-0.662 0.844,-1.678 0.893,-3.047l-0.08,0c-0.245,0.37 -0.571,0.652 -0.977,0.846c-0.405,0.194 -0.862,0.291 -1.371,0.291c-0.865,0 -1.552,-0.258 -2.06,-0.775c-0.508,-0.518 -0.762,-1.24 -0.762,-2.168c0,-1.016 0.284,-1.819 0.852,-2.408c0.569,-0.588 1.317,-0.883 2.244,-0.883c0.665,0 1.246,0.171 1.743,0.512c0.497,0.341 0.879,0.838 1.147,1.492c0.268,0.653 0.401,1.423 0.401,2.311Zm-3.291,-3.365c-0.637,0 -1.13,0.205 -1.478,0.616c-0.348,0.41 -0.522,0.981 -0.522,1.712c0,0.642 0.161,1.147 0.482,1.515c0.321,0.368 0.809,0.552 1.465,0.552c0.406,0 0.779,-0.083 1.12,-0.248c0.341,-0.165 0.61,-0.39 0.806,-0.675c0.197,-0.286 0.295,-0.584 0.295,-0.897c0,-0.468 -0.092,-0.9 -0.275,-1.297c-0.182,-0.397 -0.438,-0.709 -0.766,-0.937c-0.327,-0.227 -0.703,-0.341 -1.127,-0.341Z" style="fill-rule:nonzero;"/><path d="M111.334,84.902l-0.06,0c-0.513,0.744 -1.28,1.117 -2.301,1.117c-0.959,0 -1.705,-0.328 -2.237,-0.984c-0.533,-0.655 -0.8,-1.587 -0.8,-2.795c0,-1.209 0.268,-2.148 0.803,-2.816c0.535,-0.669 1.28,-1.004 2.234,-1.004c0.994,0 1.757,0.361 2.288,1.084l0.087,0l-0.047,-0.529l-0.027,-0.515l0,-2.983l1.11,0l0,10.408l-0.903,0l-0.147,-0.983Zm-2.221,0.187c0.759,0 1.308,-0.206 1.649,-0.619c0.341,-0.412 0.512,-1.078 0.512,-1.996l0,-0.234c0,-1.039 -0.173,-1.781 -0.518,-2.224c-0.346,-0.444 -0.898,-0.666 -1.656,-0.666c-0.651,0 -1.149,0.253 -1.495,0.759c-0.345,0.506 -0.518,1.221 -0.518,2.144c0,0.936 0.171,1.643 0.515,2.12c0.343,0.477 0.847,0.716 1.511,0.716Z" style="fill-rule:nonzero;"/><path d="M121.12,83.638l-1.452,-0.001l0,2.248l-1.063,0l0,-2.248l-4.756,0.001l0,-0.97l4.642,-6.616l1.177,0l0,6.575l1.452,0l0,1.01Zm-2.515,-1.01l0,-3.25c0,-0.638 0.022,-1.358 0.067,-2.161l-0.054,0c-0.214,0.428 -0.414,0.783 -0.602,1.064l-3.057,4.347l3.646,0Z" style="fill-rule:nonzero;"/></g></svg>