<?xml version="1.0" encoding="UTF-8" standalone="no"?><!DOCTYPE svg PUBLIC "-//W3C//DTD SVG 1.1//EN" "http://www.w3.org/Graphics/SVG/1.1/DTD/svg11.dtd"><svg width="100%" height="100%" viewBox="0 0 100 73" version="1.1" xmlns="http://www.w3.org/2000/svg" xmlns:xlink="http://www.w3.org/1999/xlink" xml:space="preserve" xmlns:serif="http://www.serif.com/" style="fill-rule:evenodd;clip-rule:evenodd;stroke-linejoin:round;stroke-miterlimit:1.41421;"><g><path d="M40.043,13.456l0,3.152l-1.792,0l-1.36,0l-0.112,0l0,-3.36l-1.472,1.568l0,1.792l-3.232,0c1.632,-2.432 2.464,-3.52 3.488,-5.6l-2.128,0c-0.544,2.112 -1.2,3.84 -2.32,5.696l0,0.64l4.192,0l0,1.12c0,0.672 -0.592,0.896 -1.04,0.896l-0.32,0l0,0.64l4.032,0l0,-0.64c-0.624,0 -1.2,-0.192 -1.2,-0.896l0,-1.12l3.264,0l0,3.152l0.736,0l0,-3.152l3.152,0l0,-0.736l-3.152,0l0,-3.152l-0.736,0Z" style="fill-rule:nonzero;"/><path d="M40.539,25.904l0,3.152l-3.152,0c-0.224,0.8 -0.608,1.184 -1.408,1.184c-1.184,0 -1.472,-0.32 -2.912,-0.32c0.736,-1.12 2.08,-1.792 2.4,-2c1.184,-0.72 2.416,-1.328 2.416,-2.864c0,-1.472 -1.408,-2.496 -3.136,-2.496c-1.984,0 -3.104,1.488 -3.104,2.512c0,0.688 0.4,1.104 1.024,1.104c0.56,0 0.896,-0.368 0.896,-0.832c0,-0.688 -0.464,-0.816 -0.464,-1.184c0,-0.432 0.56,-0.896 1.456,-0.896c0.896,0 1.504,0.544 1.504,1.728c0,0.96 -0.448,1.792 -2.064,3.008c-1.12,0.768 -2.496,2.336 -2.624,3.68l0.64,0c0.224,-0.576 0.48,-0.896 1.088,-0.896c0.96,0 1.856,1.024 3.008,1.024c1.072,0 1.664,-0.912 1.808,-2.016l2.624,0l0,3.152l0.736,0l0,-3.152l3.152,0l0,-0.736l-3.152,0l0,-3.152l-0.736,0Z" style="fill-rule:nonzero;"/><path d="M32.744,61.055l-1.06,0l0,1.641l-0.776,0l0,-1.641l-3.472,0l0,-0.708l3.389,-4.829l0.859,0l0,4.8l1.06,0l0,0.737Zm-1.836,-0.737l0,-2.373c0,-0.465 0.016,-0.991 0.049,-1.577l-0.039,0c-0.156,0.312 -0.303,0.571 -0.44,0.776l-2.231,3.174l2.661,0Z" style="fill-rule:nonzero;"/><path d="M36.133,58.834l2.011,0l0,0.674l-2.011,0l0,2.08l-0.679,0l0,-2.08l-2.002,0l0,-0.674l2.002,0l0,-2.09l0.679,0l0,2.09Z" style="fill-rule:nonzero;"/><path d="M43.843,62.696l-4.693,0l0,-0.698l1.88,-1.89c0.573,-0.579 0.951,-0.993 1.133,-1.24c0.182,-0.248 0.319,-0.488 0.41,-0.723c0.091,-0.234 0.137,-0.486 0.137,-0.757c0,-0.38 -0.116,-0.682 -0.347,-0.905c-0.231,-0.223 -0.552,-0.335 -0.962,-0.335c-0.296,0 -0.577,0.049 -0.842,0.147c-0.265,0.097 -0.561,0.275 -0.886,0.532l-0.43,-0.552c0.658,-0.547 1.374,-0.82 2.149,-0.82c0.67,0 1.196,0.172 1.577,0.515c0.381,0.343 0.571,0.805 0.571,1.384c0,0.453 -0.127,0.9 -0.381,1.343c-0.254,0.443 -0.729,1.003 -1.426,1.68l-1.562,1.528l0,0.039l3.672,0l0,0.752Z" style="fill-rule:nonzero;"/><path d="M47.568,58.834l2.012,0l0,0.674l-2.012,0l0,2.08l-0.678,0l0,-2.08l-2.002,0l0,-0.674l2.002,0l0,-2.09l0.678,0l0,2.09Z" style="fill-rule:nonzero;"/></g><g><path d="M14.996,15.68c0.992,0 1.408,0.736 1.408,1.76c0,1.024 -0.512,1.984 -1.664,1.984c-0.992,0 -1.536,-0.736 -1.536,-1.76c0,-1.056 0.704,-1.984 1.792,-1.984Zm-1.952,0.224c0,-1.632 0.416,-2.656 1.12,-3.328l2.368,1.76l0.416,-0.608l-2.144,-1.6c0.64,-0.352 1.44,-0.512 2.336,-0.576l-0.064,-0.672c-1.056,0 -2.112,0.224 -3.008,0.704l-2.816,-2.112l-0.416,0.608l2.592,1.92c-1.152,0.864 -1.888,2.144 -1.888,3.904c0,1.984 0.992,4.224 3.392,4.224c1.76,0 3.104,-1.248 3.104,-2.72c0,-1.28 -0.992,-2.464 -2.752,-2.464c-0.896,0 -1.792,0.416 -2.24,0.96Z" style="fill-rule:nonzero;"/><g><path d="M11.079,59.644c0,-1.403 0.272,-2.452 0.817,-3.147c0.546,-0.695 1.352,-1.042 2.42,-1.042c0.368,0 0.657,0.031 0.869,0.093l0,0.698c-0.251,-0.082 -0.537,-0.122 -0.859,-0.122c-0.765,0 -1.35,0.238 -1.753,0.715c-0.404,0.477 -0.625,1.226 -0.664,2.249l0.058,0c0.358,-0.56 0.925,-0.84 1.699,-0.84c0.642,0 1.147,0.193 1.517,0.581c0.369,0.387 0.554,0.913 0.554,1.577c0,0.742 -0.203,1.326 -0.608,1.75c-0.405,0.425 -0.953,0.638 -1.643,0.638c-0.739,0 -1.325,-0.278 -1.758,-0.833c-0.433,-0.555 -0.649,-1.327 -0.649,-2.317Zm2.397,2.461c0.462,0 0.821,-0.145 1.077,-0.437c0.255,-0.291 0.383,-0.712 0.383,-1.262c0,-0.472 -0.119,-0.843 -0.357,-1.113c-0.237,-0.271 -0.592,-0.406 -1.064,-0.406c-0.293,0 -0.561,0.061 -0.806,0.181c-0.244,0.121 -0.438,0.287 -0.583,0.498c-0.145,0.212 -0.217,0.431 -0.217,0.659c0,0.336 0.065,0.648 0.195,0.938c0.13,0.29 0.315,0.519 0.554,0.688c0.239,0.17 0.512,0.254 0.818,0.254Z" style="fill-rule:nonzero;"/><path d="M19.794,55.557l-2.661,7.139l-0.81,0l2.661,-7.139l0.81,0Z" style="fill-rule:nonzero;"/></g></g><g><path d="M78.272,18.88c0,-0.192 0.064,-0.368 0.064,-0.576c0,-0.592 -0.368,-0.96 -0.896,-0.96c-0.624,0 -0.928,0.448 -0.928,0.96c0,0.768 0.96,1.824 2.64,1.824c1.904,0 3.68,-1.664 3.68,-4.864c0,-2.496 -1.152,-4.384 -3.312,-4.384c-1.808,0 -3.136,1.392 -3.136,2.896c0,1.472 1.104,2.528 2.864,2.528c0.896,0 1.536,-0.416 2.048,-0.928c0,1.616 -0.224,4.08 -2.144,4.08c-0.608,0 -0.88,-0.304 -0.88,-0.576Zm1.168,-3.312c-0.992,0 -1.472,-0.704 -1.472,-1.888c0,-1.136 0.544,-2.096 1.664,-2.096c0.944,0 1.536,0.816 1.536,2.064c0,1.072 -0.704,1.92 -1.728,1.92Z" style="fill-rule:nonzero;"/><rect x="75.568" y="26.848" width="8" height="0.896" style="fill-rule:nonzero;"/><path d="M81.616,40.704l1.472,0l0,-0.736l-1.472,0l0,-3.36l-1.472,1.568l0,1.792l-3.232,0c1.632,-2.432 2.464,-3.52 3.488,-5.6l-2.128,0c-0.544,2.112 -1.2,3.84 -2.32,5.696l0,0.64l4.192,0l0,1.12c0,0.672 -0.592,0.896 -1.04,0.896l-0.32,0l0,0.64l4.032,0l0,-0.64c-0.624,0 -1.2,-0.192 -1.2,-0.896l0,-1.12Z" style="fill-rule:nonzero;"/><path d="M76.235,58.604c0,2.793 -1.081,4.19 -3.242,4.19c-0.378,0 -0.677,-0.033 -0.899,-0.098l0,-0.698c0.261,0.084 0.557,0.127 0.889,0.127c0.781,0 1.371,-0.242 1.77,-0.725c0.399,-0.484 0.616,-1.225 0.652,-2.225l-0.059,0c-0.179,0.271 -0.416,0.477 -0.713,0.618c-0.296,0.142 -0.63,0.213 -1.001,0.213c-0.631,0 -1.132,-0.189 -1.504,-0.567c-0.371,-0.377 -0.556,-0.905 -0.556,-1.582c0,-0.742 0.207,-1.328 0.622,-1.758c0.415,-0.429 0.961,-0.644 1.639,-0.644c0.485,0 0.909,0.124 1.271,0.373c0.363,0.249 0.643,0.612 0.838,1.089c0.195,0.477 0.293,1.039 0.293,1.687Zm-2.402,-2.456c-0.466,0 -0.826,0.15 -1.08,0.449c-0.253,0.3 -0.38,0.717 -0.38,1.25c0,0.469 0.117,0.838 0.351,1.106c0.234,0.269 0.591,0.403 1.069,0.403c0.297,0 0.569,-0.06 0.818,-0.181c0.249,-0.12 0.445,-0.284 0.589,-0.493c0.143,-0.208 0.215,-0.426 0.215,-0.654c0,-0.342 -0.067,-0.658 -0.201,-0.947c-0.133,-0.29 -0.319,-0.518 -0.559,-0.684c-0.239,-0.166 -0.513,-0.249 -0.822,-0.249Z" style="fill-rule:nonzero;"/><path d="M81.274,61.978l-0.044,0c-0.374,0.544 -0.934,0.816 -1.68,0.816c-0.7,0 -1.244,-0.24 -1.633,-0.718c-0.389,-0.479 -0.584,-1.159 -0.584,-2.041c0,-0.882 0.196,-1.568 0.586,-2.056c0.391,-0.488 0.935,-0.732 1.631,-0.732c0.726,0 1.283,0.263 1.67,0.791l0.064,0l-0.034,-0.386l-0.02,-0.376l0,-2.178l0.811,0l0,7.598l-0.66,0l-0.107,-0.718Zm-1.621,0.137c0.553,0 0.954,-0.151 1.203,-0.452c0.249,-0.301 0.374,-0.787 0.374,-1.457l0,-0.171c0,-0.759 -0.126,-1.3 -0.378,-1.624c-0.253,-0.324 -0.656,-0.486 -1.209,-0.486c-0.475,0 -0.839,0.185 -1.091,0.555c-0.253,0.369 -0.379,0.891 -0.379,1.565c0,0.683 0.126,1.199 0.376,1.547c0.251,0.349 0.619,0.523 1.104,0.523Z" style="fill-rule:nonzero;"/><path d="M88.417,61.055l-1.059,0l0,1.641l-0.776,0l0,-1.641l-3.472,0l0,-0.708l3.389,-4.829l0.859,0l0,4.8l1.059,0l0,0.737Zm-1.835,-0.737l0,-2.373c0,-0.465 0.016,-0.991 0.048,-1.577l-0.039,0c-0.156,0.312 -0.302,0.571 -0.439,0.776l-2.232,3.174l2.662,0Z" style="fill-rule:nonzero;"/></g></svg>